 <svg version="1.0" xmlns="http://www.w3.org/2000/svg" width="700.000000pt" height="810.000000pt" viewBox="0 0 700.000000 810.000000" preserveAspectRatio="xMidYMid meet">
<metadata>
Created by potrace 1.12, written by Peter Selinger 2001-2015
</metadata>
<g transform="translate(0.000000,810.000000) scale(0.100000,-0.100000)" fill="#000000" stroke="none">
<path d="M6400 8081 c0 -19 143 -38 395 -51 182 -9 217 -8 204 5 -3 2 -112 11
-242 20 -131 9 -260 20 -289 25 -63 12 -68 12 -68 1z"></path>
<path d="M658 7978 c-51 -13 -48 -29 5 -25 47 3 70 14 62 28 -7 11 -17 10 -67
-3z"></path>
<path d="M1063 7947 c-29 -6 -53 -14 -53 -19 0 -12 78 -10 85 2 13 22 134 4
305 -44 63 -18 110 -21 110 -6 0 6 -11 10 -26 10 -14 0 -78 14 -142 30 -136
36 -206 42 -279 27z"></path>
<path d="M6949 7901 c-16 -16 -29 -38 -29 -48 0 -21 33 -56 63 -66 29 -11 19
11 -13 28 -17 9 -30 24 -30 34 0 11 14 31 30 44 17 14 30 28 30 31 0 15 -24 3
-51 -23z"></path>
<path d="M1530 7890 c0 -6 55 -10 145 -10 90 0 145 4 145 10 0 6 -55 10 -145
10 -90 0 -145 -4 -145 -10z"></path>
<path d="M1840 7880 c0 -5 13 -10 30 -10 16 0 99 -14 182 -30 150 -30 160 -31
475 -33 215 -1 319 1 312 8 -6 6 -146 12 -352 16 -320 5 -350 8 -466 32 -132
29 -181 33 -181 17z"></path>
<path d="M2836 7738 c-20 -11 -158 -23 -388 -33 -80 -4 -206 -15 -280 -26
-140 -20 -293 -37 -568 -64 -91 -9 -210 -23 -265 -30 -55 -8 -142 -19 -193
-26 -51 -7 -95 -15 -97 -19 -2 -4 2 -16 10 -26 14 -19 14 -18 29 2 12 17 30
23 83 28 38 4 154 18 258 31 105 14 258 29 340 35 149 9 198 15 385 45 52 9
187 20 300 25 318 15 410 29 410 60 0 12 0 12 -24 -2z"></path>
<path d="M995 7434 c-27 -8 -80 -19 -117 -24 -37 -5 -116 -24 -175 -41 -59
-17 -155 -42 -213 -56 -58 -13 -127 -31 -155 -38 -90 -24 -128 -32 -232 -51
-69 -13 -103 -23 -103 -32 0 -8 7 -11 18 -8 9 3 65 14 123 25 121 23 473 109
575 140 37 12 118 30 180 41 114 20 164 36 164 52 0 10 -1 9 -65 -8z"></path>
<path d="M805 7303 c-55 -5 -85 -12 -85 -21 0 -4 35 -4 78 0 42 3 110 7 150 7
46 1 71 5 67 11 -6 9 -119 11 -210 3z"></path>
<path d="M828 7243 c-61 -2 -108 -8 -108 -13 0 -15 66 -17 213 -5 76 7 112 27
40 23 -21 -1 -86 -4 -145 -5z"></path>
<path d="M3415 6020 c-83 -20 -120 -55 -180 -174 -77 -153 -92 -328 -87 -1026
2 -267 -1 -611 -8 -765 l-11 -280 -27 -22 c-15 -13 -35 -23 -46 -23 -25 0
-112 -47 -159 -86 -33 -28 -48 -32 -120 -38 -90 -8 -257 -31 -327 -46 -101
-21 -84 -34 -253 193 -21 28 -59 74 -84 101 -154 166 -296 358 -348 472 -19
41 -35 80 -35 85 0 5 -4 17 -10 27 -11 19 -62 183 -79 252 -22 88 -35 126 -68
190 -18 36 -33 70 -33 77 0 6 26 32 58 57 110 87 180 141 199 152 14 10 15 15
6 25 -10 10 -31 6 -110 -21 -54 -18 -127 -46 -162 -62 -38 -18 -68 -25 -73
-20 -11 11 -31 95 -59 242 -25 129 -29 179 -17 204 13 24 -3 40 -30 32 -18 -6
-33 -24 -71 -86 -20 -34 -92 -188 -109 -235 -17 -49 -19 -50 -63 -55 -91 -11
-225 -118 -269 -216 -31 -67 -43 -141 -36 -218 10 -107 46 -202 160 -426 32
-63 81 -158 107 -210 67 -131 99 -214 99 -258 0 -33 -31 -135 -57 -188 -53
-106 -83 -170 -83 -176 0 -4 -20 -49 -44 -100 -24 -51 -54 -124 -66 -161 -21
-61 -28 -71 -59 -84 -73 -30 -127 -58 -166 -86 -22 -15 -65 -45 -96 -67 -63
-44 -147 -134 -184 -196 -32 -54 -65 -176 -65 -237 0 -63 20 -104 80 -163 54
-53 54 -40 -5 -134 -101 -158 -235 -379 -235 -385 0 -5 -8 -18 -19 -29 -36
-41 -172 -307 -169 -332 3 -22 9 -16 46 40 23 36 42 72 42 79 0 7 4 17 9 23 5
5 27 43 49 84 39 74 146 251 302 500 43 69 95 152 114 185 38 63 53 89 124
204 23 39 42 73 42 75 0 3 31 54 68 113 37 59 71 116 75 125 3 9 33 50 65 90
32 40 83 111 112 158 29 47 62 95 73 107 12 14 17 28 13 40 -6 16 -11 14 -36
-17 -16 -19 -30 -39 -30 -43 0 -5 -26 -46 -59 -90 -32 -45 -66 -98 -76 -117
-23 -45 -35 -61 -45 -55 -19 12 74 255 197 515 30 63 58 124 62 135 5 11 17
40 27 65 22 51 26 181 8 221 -6 13 -53 107 -104 209 -236 467 -255 521 -240
671 16 155 149 307 272 312 32 2 33 1 38 -43 10 -84 65 -146 176 -197 50 -22
61 -24 94 -14 21 6 43 18 50 26 22 27 38 16 68 -47 49 -102 60 -131 67 -173 8
-49 51 -188 71 -232 7 -17 14 -36 14 -42 0 -27 81 -193 123 -251 26 -36 59
-83 74 -105 14 -22 44 -61 67 -86 169 -187 338 -403 392 -499 40 -71 94 -195
105 -240 4 -19 15 -60 23 -90 32 -112 58 -360 37 -360 -14 0 -175 85 -236 125
-63 41 -192 110 -223 120 -31 9 -62 -19 -62 -55 0 -15 -9 -35 -20 -45 -14 -13
-20 -31 -20 -62 0 -24 -5 -51 -11 -61 -14 -22 13 -81 62 -137 32 -36 198 -165
247 -191 15 -9 41 -24 57 -34 17 -11 42 -26 58 -35 15 -9 27 -22 27 -30 0 -33
-45 -106 -123 -200 l-25 -30 -11 28 c-6 16 -18 50 -27 75 -41 127 -90 177
-134 137 -23 -21 -26 -52 -7 -80 7 -11 21 -47 31 -80 10 -33 22 -70 27 -82 4
-12 11 -44 15 -70 6 -48 6 -48 -49 -100 -63 -60 -117 -96 -273 -181 -27 -15
-157 -62 -171 -62 -22 0 -82 -41 -88 -61 -19 -58 -226 -229 -278 -229 -23 0
-32 26 -19 53 20 43 52 130 52 141 0 6 12 28 26 49 15 22 23 45 19 54 -5 14
-11 11 -35 -16 -17 -18 -35 -29 -40 -26 -6 4 -9 9 -6 13 32 56 77 208 107 367
21 110 20 109 75 118 82 14 126 29 207 70 84 43 105 66 117 125 5 20 14 52 21
69 12 30 11 34 -14 61 -17 17 -25 35 -22 44 9 22 -32 48 -75 48 -19 0 -73 -7
-119 -15 -51 -9 -88 -12 -94 -6 -5 5 -5 50 2 112 15 149 18 372 5 376 -7 2
-13 -47 -18 -144 -9 -215 -63 -679 -84 -734 -6 -13 -18 -62 -27 -109 -21 -109
-32 -155 -51 -210 -14 -39 -44 -138 -111 -360 -9 -30 -19 -59 -23 -65 -4 -5
-21 -44 -38 -85 -43 -106 -73 -168 -105 -217 -15 -24 -27 -45 -27 -49 0 -15
-82 -107 -132 -148 -76 -62 -156 -93 -172 -67 -7 10 10 156 25 223 6 26 18 53
26 60 19 15 35 57 27 69 -9 14 -32 -8 -51 -50 -20 -41 -188 -212 -283 -287
-121 -95 -224 -136 -258 -102 -13 13 -17 129 -4 144 5 5 21 47 36 94 33 99 72
188 93 212 16 18 10 38 -10 38 -7 0 -33 -19 -59 -43 -62 -56 -176 -148 -210
-169 -16 -10 -28 -27 -28 -38 0 -19 6 -16 59 22 32 24 84 65 115 92 56 49 83
55 56 13 -8 -12 -28 -62 -45 -112 l-31 -90 -45 3 c-24 1 -59 5 -76 8 l-33 5 0
-126 c0 -143 -8 -134 102 -111 37 8 85 12 107 9 28 -4 62 2 115 21 42 14 88
26 102 26 14 0 73 9 132 19 59 11 134 24 167 29 33 6 80 15 105 20 25 6 83 15
130 21 161 21 315 42 405 57 88 13 316 40 560 64 66 7 156 16 200 21 116 13
128 12 122 -8 -2 -10 -17 -58 -32 -108 -49 -162 -57 -189 -75 -260 -10 -38
-32 -112 -49 -164 -31 -92 -46 -152 -76 -296 -8 -38 -21 -99 -29 -135 -20 -84
-20 -80 7 -80 22 0 26 8 46 108 13 59 35 149 49 201 l27 94 65 14 c108 24 543
20 767 -6 351 -41 540 -71 753 -120 47 -11 117 -27 155 -36 39 -9 97 -23 130
-31 33 -9 76 -20 95 -25 67 -17 245 -71 295 -89 28 -10 75 -26 105 -35 30 -10
59 -21 64 -26 6 -5 20 -9 32 -9 13 0 25 -4 28 -8 7 -12 107 -35 135 -31 18 3
-6 15 -80 43 -345 127 -622 209 -934 275 -49 10 -130 28 -180 39 -49 10 -128
25 -175 31 -525 74 -545 76 -908 76 -242 0 -332 3 -332 11 0 12 33 141 94 364
19 69 50 170 71 225 20 55 43 123 52 150 8 28 18 55 23 60 4 6 10 23 14 39 l7
28 38 -41 c44 -47 64 -51 87 -16 13 19 15 40 11 83 -3 31 -7 63 -8 71 -9 32
21 19 43 -18 28 -49 66 -68 98 -51 46 24 9 145 -78 260 -32 41 -42 64 -42 92
0 20 4 39 8 42 5 3 17 36 27 73 10 37 26 82 35 98 9 17 20 44 24 60 20 79 73
125 146 125 69 0 105 -47 181 -237 16 -39 29 -78 29 -87 0 -15 32 -79 52 -104
18 -21 56 -14 74 13 13 20 15 40 11 86 -4 49 -2 61 10 66 18 7 63 -41 63 -67
1 -24 43 -68 71 -75 21 -5 30 -2 43 16 9 13 16 35 16 49 0 39 -93 215 -141
268 -24 25 -38 47 -32 49 5 2 30 -1 54 -8 24 -6 64 -13 89 -16 25 -3 49 -9 54
-14 6 -5 25 -9 42 -9 18 0 44 -4 59 -10 14 -5 63 -14 108 -20 45 -6 134 -17
197 -25 190 -24 582 -16 730 15 25 5 97 18 160 29 163 29 249 48 335 76 42 14
80 25 86 25 12 0 312 112 368 137 20 9 59 26 86 39 80 36 88 37 128 9 52 -34
198 -94 322 -130 33 -10 64 -21 68 -25 4 -4 2 -27 -6 -51 -8 -24 -26 -84 -41
-134 -34 -114 -178 -559 -262 -815 -59 -176 -122 -349 -176 -483 -11 -27 -37
-97 -57 -155 -21 -59 -51 -138 -65 -177 -15 -38 -40 -104 -55 -145 -16 -41
-40 -104 -54 -140 -15 -35 -24 -66 -21 -69 13 -13 41 21 60 75 11 32 24 68 28
79 4 11 19 52 33 90 14 39 30 74 34 80 5 5 9 18 9 30 0 11 12 45 26 75 14 30
41 102 61 160 20 58 39 110 43 115 4 6 24 55 43 110 62 176 79 220 92 234 11
11 22 10 71 -7 80 -28 204 -44 359 -45 110 -1 140 2 197 21 37 12 73 22 80 22
21 0 220 104 293 153 37 25 101 78 141 116 52 51 80 71 98 71 27 0 34 18 14
38 -8 8 -8 15 1 26 7 8 11 23 9 33 -3 14 -9 11 -28 -18 -14 -19 -52 -60 -85
-89 -33 -30 -70 -66 -83 -81 -23 -28 -168 -129 -184 -129 -4 0 -25 -10 -46
-23 -40 -25 -143 -68 -207 -86 -114 -33 -369 -27 -524 13 -97 24 -107 38 -76
101 8 19 32 85 51 147 19 62 44 138 54 168 10 30 26 83 36 118 9 34 21 65 25
68 5 3 9 14 9 26 0 11 7 32 15 46 8 15 21 52 29 82 37 139 95 323 105 333 5 5
53 -1 110 -13 112 -23 166 -24 166 0 0 12 -18 16 -78 21 -42 4 -89 11 -105 17
-15 6 -54 16 -87 22 -81 16 -186 45 -227 63 -18 8 -55 23 -83 33 -27 10 -67
29 -89 42 -48 29 -46 31 89 102 55 29 112 61 127 71 36 26 52 24 171 -16 103
-35 219 -50 225 -30 1 6 -23 14 -55 18 -32 5 -61 12 -65 16 -4 4 -3 22 3 41 5
19 14 64 19 100 32 242 36 254 62 232 7 -6 47 -22 88 -36 186 -63 640 -99 640
-51 0 10 -35 14 -157 18 -253 7 -410 33 -547 92 l-39 16 7 71 c7 82 10 88 37
88 12 0 19 5 17 12 -11 32 -227 34 -274 3 -13 -8 -29 -15 -35 -15 -7 0 -45
-27 -86 -60 -40 -33 -75 -60 -78 -60 -3 0 -38 -20 -78 -44 -91 -55 -152 -86
-170 -86 -8 0 -22 -9 -31 -19 -23 -26 -114 -64 -133 -56 -14 5 -15 20 -9 99 8
116 29 182 90 279 77 125 201 222 351 275 96 35 318 44 437 19 93 -20 88 -20
88 -2 0 8 -12 17 -27 21 -52 11 -55 13 -49 37 3 12 10 61 16 107 6 47 16 126
23 175 l12 90 50 -3 c61 -4 165 -27 225 -49 49 -19 190 -95 230 -125 14 -10
49 -37 78 -59 45 -34 52 -37 52 -20 0 19 -111 111 -184 153 -133 76 -317 138
-409 138 l-39 0 6 38 c9 52 26 832 20 890 -3 26 -9 117 -14 202 -19 310 -60
509 -147 705 -55 125 -87 172 -143 210 -73 49 -178 37 -236 -27 -53 -57 -94
-187 -94 -296 0 -22 -4 -43 -9 -47 -5 -3 -29 1 -53 9 -44 15 -88 24 -328 70
-234 44 -707 82 -907 72 -340 -15 -482 -25 -530 -35 -117 -24 -156 -31 -179
-31 -25 0 -26 1 -44 104 -11 68 -51 160 -83 195 -62 66 -143 97 -212 81z m147
-66 c59 -42 93 -110 119 -239 12 -60 23 -111 25 -113 1 -2 57 6 125 17 68 11
160 26 204 33 114 17 823 17 975 0 341 -40 661 -102 768 -149 18 -8 41 -12 50
-8 14 5 12 9 -10 28 -26 22 -26 22 -18 117 10 109 19 145 54 205 33 55 81 79
147 73 70 -7 126 -56 172 -150 62 -128 75 -162 98 -254 12 -49 25 -96 29 -104
4 -9 11 -49 14 -90 4 -41 14 -111 22 -155 11 -59 17 -189 21 -498 6 -403 -1
-624 -27 -827 -22 -174 -41 -317 -45 -346 l-5 -30 -138 -1 c-86 0 -166 -7
-215 -17 -93 -20 -213 -73 -284 -127 -63 -47 -152 -156 -185 -224 l-23 -50
-225 2 c-124 1 -297 9 -385 18 -88 9 -203 20 -255 25 -52 5 -117 14 -145 20
-27 6 -72 15 -100 20 -171 34 -397 83 -440 95 -237 69 -305 90 -407 125 -128
44 -315 124 -337 145 -11 11 -10 36 4 161 29 250 34 423 34 1099 1 669 7 806
41 952 33 138 105 252 174 273 54 16 123 6 168 -26z m-2232 -511 c0 -16 -5
-60 -10 -98 -9 -68 -13 -261 -7 -338 1 -21 -1 -41 -5 -43 -12 -8 -88 57 -104
88 -19 36 -21 137 -4 179 7 19 33 76 57 128 23 51 43 97 43 102 0 5 7 9 15 9
10 0 15 -10 15 -27z m66 -292 c3 -25 11 -52 16 -58 6 -7 8 -20 4 -28 -6 -16
-31 -21 -39 -7 -2 4 -3 2 -1 -4 1 -6 -2 -17 -7 -25 -8 -12 -10 -12 -19 1 -13
20 -12 72 2 167 l11 78 13 -39 c8 -21 17 -59 20 -85z m264 -39 c0 -12 -156
-130 -209 -159 -24 -12 -51 -23 -61 -23 -19 0 -61 29 -43 30 7 0 30 15 50 34
32 29 115 73 213 114 31 13 50 15 50 4z m1450 -1447 c0 -52 -46 -339 -60 -372
-11 -27 -41 -29 -114 -8 -28 8 -72 17 -97 20 -26 3 -54 12 -64 19 -18 13 -18
16 4 72 12 33 27 66 31 74 5 8 20 35 32 59 26 51 110 122 183 156 76 36 85 34
85 -20z m-286 -94 c3 -5 -6 -26 -21 -47 -14 -22 -36 -70 -48 -109 -14 -43 -28
-71 -38 -73 -17 -3 -132 35 -202 67 -22 10 -51 22 -65 26 -48 14 -86 64 -61
79 7 5 114 22 326 54 84 13 103 13 109 3z m348 -135 c193 -83 259 -108 408
-153 30 -9 73 -22 95 -29 92 -30 224 -67 285 -80 124 -27 345 -72 430 -88 221
-40 632 -76 877 -76 74 0 134 -4 138 -10 3 -5 -2 -46 -11 -91 -10 -52 -14 -99
-10 -131 7 -54 -10 -98 -40 -98 -8 0 -36 -11 -62 -24 -26 -13 -85 -36 -132
-51 -47 -16 -111 -39 -143 -52 -32 -13 -66 -23 -76 -23 -9 0 -21 -4 -27 -9 -5
-5 -34 -15 -64 -21 -30 -6 -73 -15 -95 -19 -96 -20 -217 -41 -315 -53 -194
-24 -838 -11 -910 18 -14 6 -132 38 -187 51 -23 5 -60 40 -51 48 3 3 49 8 103
10 53 3 115 9 136 15 22 5 57 15 79 20 60 16 100 54 100 96 0 30 -6 38 -47 65
-27 16 -67 35 -90 41 -58 14 -55 34 7 42 114 15 289 85 360 144 25 22 33 37
37 74 5 41 3 48 -19 62 -29 19 -146 43 -253 51 -76 5 -135 14 -250 35 -27 5
-102 17 -165 26 -127 17 -200 33 -200 43 0 10 30 154 35 169 6 16 17 15 57 -2z
m-635 -72 c38 -14 77 -30 88 -34 11 -4 43 -13 70 -20 28 -6 66 -18 85 -26 19
-7 62 -18 95 -23 118 -19 238 -42 246 -47 10 -6 294 -48 509 -74 178 -22 266
-37 290 -49 21 -11 24 -48 6 -75 -17 -28 -160 -98 -243 -121 -118 -33 -140
-37 -248 -43 -65 -4 -109 -11 -108 -17 1 -5 35 -17 75 -25 40 -9 89 -23 108
-31 19 -9 47 -19 61 -22 46 -12 94 -51 94 -77 0 -75 -316 -123 -514 -79 -52
12 -73 -1 -39 -23 13 -9 32 -17 43 -19 10 -2 20 -9 22 -15 2 -7 -33 2 -79 18
-46 16 -96 33 -113 37 -16 5 -77 25 -135 46 -97 34 -141 53 -259 108 l-43 20
6 44 c13 94 -65 473 -110 537 -31 45 -4 47 93 10z m-1665 -249 c3 -3 -3 -33
-13 -66 -11 -34 -19 -69 -19 -80 0 -25 -100 -179 -116 -179 -7 0 -29 14 -48
31 -32 28 -56 32 -56 9 0 -5 20 -23 45 -40 25 -17 45 -37 45 -44 0 -7 -11 -30
-25 -49 -13 -20 -35 -56 -49 -79 -44 -79 -127 -213 -137 -223 -12 -12 -83 57
-104 101 -21 44 -19 85 9 186 30 108 49 139 135 221 90 85 164 139 248 182 72
37 77 38 85 30z m5362 -75 c-1 -32 -16 -131 -61 -405 -21 -130 -25 -134 -100
-105 -32 13 -62 27 -67 31 -4 4 10 19 33 33 41 26 53 46 28 46 -7 0 -44 -21
-83 -47 -76 -50 -123 -79 -169 -100 -16 -8 -46 -23 -65 -34 -70 -40 -176 -88
-200 -91 -20 -2 -25 2 -28 22 -8 81 -61 182 -122 233 -16 14 -30 30 -30 35 0
5 39 28 88 51 123 58 314 160 333 177 8 8 20 14 25 14 5 0 43 23 83 50 41 28
79 50 84 50 5 0 27 16 49 34 42 36 72 44 158 42 45 -1 45 -1 44 -36z m-4088
-76 c49 -26 103 -57 119 -70 17 -12 77 -47 135 -77 58 -30 134 -70 170 -89 36
-19 107 -51 159 -72 93 -38 126 -49 296 -100 50 -15 100 -32 113 -37 13 -5 35
-9 50 -9 15 0 56 -11 92 -23 36 -13 81 -29 100 -36 39 -14 73 -22 210 -48 80
-15 150 -18 430 -18 351 0 405 4 660 52 142 26 235 50 310 78 25 9 65 22 90
30 44 13 143 52 207 81 44 20 49 19 96 -29 58 -58 100 -147 101 -215 l1 -54
-105 -40 c-58 -22 -145 -54 -195 -72 -49 -17 -94 -34 -100 -37 -5 -3 -44 -14
-85 -24 -41 -10 -84 -21 -95 -26 -18 -8 -43 -14 -150 -40 -103 -24 -288 -52
-470 -70 -121 -12 -461 -5 -560 11 -33 5 -98 15 -145 20 -47 6 -98 15 -115 20
-16 5 -77 18 -135 30 -212 40 -274 57 -430 117 -36 13 -90 34 -120 45 -30 12
-82 33 -115 49 -33 15 -96 43 -140 63 -44 20 -87 41 -95 46 -228 135 -388 252
-432 315 -31 45 -36 75 -12 75 21 0 103 -46 135 -76 26 -25 53 -31 64 -15 6
10 -74 68 -156 114 -36 20 -44 30 -44 53 0 45 27 41 118 -19 111 -73 127 -81
139 -69 6 6 1 16 -15 28 -28 21 -138 92 -173 112 -27 15 -48 48 -39 62 12 19
42 10 131 -36z m-408 -397 c3 -13 -14 -26 -70 -51 -40 -19 -90 -37 -110 -41
-24 -5 -38 -13 -38 -22 0 -12 7 -14 28 -9 15 3 43 9 62 13 19 3 59 19 89 35
77 42 104 27 56 -30 -31 -37 -94 -67 -170 -81 -56 -11 -96 -33 -83 -47 6 -5
35 0 129 24 20 5 51 17 69 26 77 38 44 -23 -36 -68 -60 -34 -162 -66 -207 -66
-38 0 -39 1 -32 28 4 15 9 47 10 72 3 69 27 203 38 218 6 7 18 12 27 9 8 -2
36 -1 60 3 25 5 74 7 110 6 53 -1 65 -4 68 -19z m388 -202 c20 -31 73 -185 85
-250 6 -27 14 -70 19 -95 5 -25 14 -73 21 -107 12 -62 12 -63 68 -94 113 -64
286 -271 306 -366 10 -51 -7 -39 -40 28 -16 33 -36 65 -43 71 -7 6 -20 26 -28
45 -31 65 -154 154 -154 112 0 -7 19 -48 41 -93 53 -103 57 -112 68 -166 9
-40 15 -109 12 -135 -3 -25 -34 43 -71 153 -47 140 -74 197 -128 267 -53 70
-85 79 -187 54 -61 -14 -82 -16 -93 -7 -34 29 79 75 155 63 34 -5 44 -3 49 10
8 19 -23 216 -45 288 -5 17 -17 59 -27 92 -10 33 -26 77 -36 99 -25 56 -4 80
28 31z m382 -14 c91 -46 148 -71 161 -71 31 0 1 -34 -44 -51 -76 -29 -105 -80
-68 -121 9 -10 25 -18 35 -18 32 0 32 -30 -1 -114 -46 -116 -46 -115 -67 -180
-10 -33 -24 -61 -31 -63 -6 -2 -22 7 -35 20 -40 41 -112 95 -132 98 -24 5 -31
20 -46 94 -7 33 -19 87 -26 119 l-15 60 49 50 c46 49 112 137 112 150 0 13 32
56 42 56 5 0 35 -13 66 -29z m411 -174 c36 -15 71 -27 78 -27 62 0 190 -127
243 -240 37 -79 39 -85 49 -112 12 -32 -8 -58 -28 -34 -14 16 -111 177 -111
184 0 12 -98 115 -121 128 -31 16 -69 19 -69 5 0 -5 21 -39 46 -76 50 -72 84
-172 84 -242 0 -43 -5 -50 -26 -35 -13 9 -54 93 -54 111 0 7 -6 27 -14 44 -8
18 -22 55 -32 82 -34 95 -102 184 -152 200 -21 6 -97 -11 -160 -36 -33 -13
-62 -11 -68 5 -30 77 188 105 335 43z m-748 -227 c4 -25 3 -50 -2 -56 -5 -6
-35 -14 -67 -17 -127 -14 -193 -90 -113 -132 29 -15 91 -6 142 21 47 24 83 9
126 -55 48 -71 85 -143 103 -201 7 -25 18 -51 23 -57 10 -14 3 -50 -20 -103
-8 -19 -19 -44 -24 -55 -4 -11 -17 -51 -28 -90 -30 -105 -40 -115 -111 -115
-32 0 -111 -6 -177 -14 -65 -8 -172 -20 -238 -26 -130 -12 -446 -52 -590 -74
-49 -8 -119 -18 -155 -22 -36 -3 -85 -12 -109 -20 -25 -7 -48 -11 -53 -8 -5 3
18 31 50 62 32 31 82 98 113 147 52 86 159 310 159 334 0 6 5 11 10 11 6 0 10
-6 10 -13 0 -8 9 -22 19 -31 16 -14 26 -16 54 -8 73 20 226 146 283 232 26 39
38 46 134 75 106 32 321 159 395 233 41 41 59 37 66 -18z m949 -41 c0 -5 -4
-9 -10 -9 -5 0 -10 7 -10 16 0 8 5 12 10 9 6 -3 10 -10 10 -16z m-1864 -334
l-16 -30 0 27 c0 15 5 39 12 55 l12 28 3 -25 c2 -14 -3 -39 -11 -55z m-583
-511 c-8 -93 -20 -149 -30 -148 -7 1 -40 2 -73 3 -76 1 -77 13 -6 71 30 25 62
58 71 73 18 31 41 31 38 1z"></path>
<path d="M4420 5375 c-130 -17 -169 -27 -368 -100 -282 -102 -501 -376 -553
-690 -57 -349 20 -569 271 -769 140 -111 270 -174 475 -229 376 -101 765 -84
1075 46 124 52 255 125 306 170 193 170 314 525 260 759 -23 96 -29 113 -95
248 -52 105 -65 123 -166 226 -119 121 -186 169 -310 222 -103 44 -140 55
-255 82 -173 40 -477 57 -640 35z m490 -40 c192 -28 300 -59 446 -132 177 -87
326 -240 418 -428 57 -116 67 -142 86 -243 47 -235 -92 -590 -283 -726 -114
-80 -318 -173 -456 -206 -163 -39 -209 -44 -381 -45 -188 0 -404 28 -495 65
-11 4 -49 16 -85 26 -223 62 -471 241 -566 409 -64 111 -69 136 -69 350 0 179
2 195 28 279 96 312 290 500 622 603 28 8 59 19 70 23 113 46 433 57 665 25z"></path>
<path d="M4090 4941 c-14 -26 -13 -64 2 -79 29 -29 98 1 98 42 0 49 -78 78
-100 37z"></path>
<path d="M5287 4862 c-36 -40 -14 -102 36 -102 42 0 57 15 57 60 0 20 -5 41
-12 48 -18 18 -63 14 -81 -6z"></path>
<path d="M4545 4781 c-70 -26 -128 -57 -154 -85 -32 -34 -9 -43 32 -12 18 14
59 37 90 51 49 21 72 25 157 25 54 0 109 -4 122 -9 94 -36 118 -49 160 -83 53
-43 77 -34 33 12 -34 36 -120 79 -214 109 -51 17 -169 12 -226 -8z"></path>
<path d="M3415 3279 c-4 -6 -5 -13 -2 -16 7 -7 27 6 27 18 0 12 -17 12 -25 -2z"></path>
<path d="M2626 3111 c-6 -9 36 -41 54 -41 6 0 18 -4 28 -10 27 -15 160 -56
245 -75 57 -13 81 -15 89 -7 13 13 13 13 -92 38 -88 20 -242 69 -281 90 -33
16 -36 17 -43 5z"></path>
<path d="M5795 2649 c-27 -10 -63 -25 -80 -33 -38 -18 -94 -42 -118 -50 -10
-3 -16 -10 -12 -15 5 -9 64 11 111 38 80 46 218 74 254 52 20 -13 34 -2 19 15
-16 20 -113 16 -174 -7z"></path>
<path d="M1022 4964 c-33 -23 -27 -75 10 -88 55 -19 93 55 46 88 -28 20 -28
20 -56 0z"></path>
<path d="M6548 4803 c-21 -2 -38 -9 -38 -15 0 -7 22 -9 68 -5 37 4 147 7 245
7 111 0 177 4 177 10 0 10 -366 12 -452 3z"></path>
<path d="M6450 4780 c0 -5 5 -10 10 -10 6 0 10 5 10 10 0 6 -4 10 -10 10 -5 0
-10 -4 -10 -10z"></path>
<path d="M1300 3705 c0 -8 5 -15 10 -15 6 0 10 7 10 15 0 8 -4 15 -10 15 -5 0
-10 -7 -10 -15z"></path>
<path d="M1270 3630 c0 -5 5 -10 10 -10 6 0 10 5 10 10 0 6 -4 10 -10 10 -5 0
-10 -4 -10 -10z"></path>
<path d="M2898 1874 c-5 -4 -8 -14 -8 -22 0 -7 -8 -26 -19 -40 -10 -15 -21
-38 -25 -52 -4 -14 -18 -50 -30 -80 -13 -30 -37 -89 -52 -130 -16 -41 -30 -78
-32 -82 -2 -5 1 -8 6 -8 11 0 72 135 72 160 0 10 7 23 15 30 8 7 15 21 15 31
0 10 5 21 10 24 6 3 10 19 10 35 0 16 4 32 10 35 15 9 42 72 38 90 -1 9 -6 13
-10 9z"></path>
<path d="M430 1615 c0 -8 7 -15 15 -15 8 0 15 7 15 15 0 8 -7 15 -15 15 -8 0
-15 -7 -15 -15z"></path>
<path d="M6060 1595 c7 -9 15 -13 17 -11 7 7 -7 26 -19 26 -6 0 -6 -6 2 -15z"></path>
<path d="M6120 1535 c7 -9 15 -13 17 -11 7 7 -7 26 -19 26 -6 0 -6 -6 2 -15z"></path>
<path d="M837 1526 c-6 -15 1 -26 15 -26 4 0 8 9 8 20 0 23 -15 27 -23 6z"></path>
<path d="M6205 1460 c3 -5 11 -10 16 -10 6 0 7 5 4 10 -3 6 -11 10 -16 10 -6
0 -7 -4 -4 -10z"></path>
<path d="M2720 1430 c0 -5 5 -10 10 -10 6 0 10 5 10 10 0 6 -4 10 -10 10 -5 0
-10 -4 -10 -10z"></path>
<path d="M6250 1431 c0 -5 9 -11 21 -14 16 -4 18 -3 8 9 -13 16 -29 19 -29 5z"></path>
<path d="M6335 1390 c3 -5 8 -10 11 -10 2 0 4 5 4 10 0 6 -5 10 -11 10 -5 0
-7 -4 -4 -10z"></path>
<path d="M6420 1360 c0 -5 5 -10 10 -10 6 0 10 5 10 10 0 6 -4 10 -10 10 -5 0
-10 -4 -10 -10z"></path>
<path d="M6560 1330 c0 -5 5 -10 10 -10 6 0 10 5 10 10 0 6 -4 10 -10 10 -5 0
-10 -4 -10 -10z"></path>
<path d="M2672 1310 c-6 -14 -39 -106 -72 -205 -34 -99 -65 -187 -69 -195 -4
-8 -18 -49 -30 -90 -12 -41 -33 -104 -46 -140 -27 -74 -46 -152 -39 -159 9 -9
22 20 28 62 4 23 10 46 14 52 8 10 24 58 62 185 12 41 28 89 35 105 47 112
137 384 132 399 -3 6 -9 0 -15 -14z"></path>
<path d="M6610 1320 c0 -5 9 -10 20 -10 11 0 20 5 20 10 0 6 -9 10 -20 10 -11
0 -20 -4 -20 -10z"></path>
<path d="M6690 1320 c0 -5 9 -10 20 -10 11 0 20 5 20 10 0 6 -9 10 -20 10 -11
0 -20 -4 -20 -10z"></path>
<path d="M6680 997 c0 -23 11 -47 22 -47 14 0 5 53 -9 58 -7 2 -13 -3 -13 -11z"></path>
<path d="M6770 980 c0 -11 7 -20 15 -20 8 0 15 9 15 20 0 11 -7 20 -15 20 -8
0 -15 -9 -15 -20z"></path>
<path d="M6870 980 c0 -5 5 -10 10 -10 6 0 10 5 10 10 0 6 -4 10 -10 10 -5 0
-10 -4 -10 -10z"></path>
<path d="M2326 283 c-19 -60 -39 -133 -44 -163 -6 -30 -15 -68 -21 -83 -13
-35 -13 -37 -1 -37 13 0 40 66 40 98 0 14 4 39 10 56 77 240 76 236 61 236 -6
0 -26 -48 -45 -107z"></path>
<path d="M424 245 c-4 -14 -3 -29 0 -33 9 -8 26 18 26 41 0 26 -19 20 -26 -8z"></path>
<path d="M246 251 c-8 -13 11 -51 25 -51 6 0 8 9 4 23 -10 30 -21 41 -29 28z"></path>
<path d="M340 240 c0 -5 5 -10 10 -10 6 0 10 5 10 10 0 6 -4 10 -10 10 -5 0
-10 -4 -10 -10z"></path>
</g>
</svg>