 <svg version="1.0" xmlns="http://www.w3.org/2000/svg" width="700.000000pt" height="447.000000pt" viewBox="0 0 700.000000 447.000000" preserveAspectRatio="xMidYMid meet">
<metadata>
Created by potrace 1.12, written by Peter Selinger 2001-2015
</metadata>
<g transform="translate(0.000000,447.000000) scale(0.100000,-0.100000)" fill="#000000" stroke="none">
<path d="M4147 4270 c-44 -35 -61 -97 -54 -200 4 -68 2 -93 -8 -103 -7 -8 -30
-50 -50 -95 -21 -45 -41 -82 -45 -82 -4 0 -15 21 -25 48 -10 26 -19 49 -21 51
-2 2 -17 -8 -34 -23 -17 -14 -35 -26 -40 -26 -23 0 -60 -21 -55 -30 5 -8 11
-7 21 1 8 7 29 9 50 6 32 -5 36 -4 31 13 -7 25 21 27 29 3 3 -10 18 -45 34
-77 15 -32 26 -65 23 -73 -9 -23 -62 -45 -92 -38 -42 9 -82 56 -88 104 -3 24
-10 40 -17 38 -14 -5 -21 -47 -7 -47 6 0 11 -7 11 -15 0 -8 -4 -15 -10 -15
-15 0 -12 -21 6 -55 16 -30 33 -255 19 -255 -4 0 -15 10 -25 23 -16 20 -27 22
-103 22 -80 0 -88 -2 -114 -27 -16 -16 -36 -28 -45 -28 -9 0 -18 -12 -22 -31
-9 -44 -8 -59 4 -59 6 0 10 10 10 23 1 26 12 42 58 80 30 24 42 27 106 27 49
0 79 -5 94 -16 22 -15 22 -16 5 -45 -31 -52 -64 -74 -205 -133 -75 -31 -144
-63 -154 -71 -23 -17 -13 -30 13 -17 10 6 56 18 103 27 47 9 94 19 104 22 15
4 18 1 13 -11 -4 -10 1 -29 12 -44 26 -37 36 -171 13 -179 -12 -5 -11 -8 6
-14 37 -14 25 -34 -30 -47 -52 -12 -65 -18 -56 -27 2 -3 19 0 37 6 25 9 38 9
57 -1 20 -11 23 -19 21 -59 -2 -25 -11 -58 -21 -73 -22 -34 -30 -36 -20 -5 4
12 8 36 9 52 1 17 5 41 9 54 l8 24 -32 -23 c-38 -27 -92 -98 -122 -162 -13
-26 -29 -47 -36 -48 -6 0 -11 -6 -10 -12 4 -16 -63 -13 -73 3 -5 8 -9 8 -13 0
-4 -6 -2 -11 4 -11 27 0 1 -24 -38 -36 -47 -13 -97 -43 -88 -51 3 -3 11 -1 18
4 7 6 45 21 83 33 39 13 76 25 84 28 10 4 13 1 8 -10 -4 -12 5 -20 33 -32 23
-9 44 -26 52 -43 7 -15 36 -42 63 -60 28 -18 59 -38 69 -45 11 -7 36 -27 55
-44 20 -18 45 -34 56 -36 11 -2 19 -11 17 -18 -2 -8 -6 -35 -9 -61 -5 -44 -7
-47 -47 -59 -22 -6 -77 -27 -121 -45 -44 -18 -90 -36 -102 -40 -13 -3 -23 -13
-23 -20 0 -10 22 -4 74 21 41 19 81 34 88 34 8 0 18 4 23 9 15 13 105 41 132
41 16 0 23 -6 23 -20 0 -11 5 -20 10 -20 12 0 13 -20 2 -38 -7 -10 -15 -9 -40
4 -17 8 -46 14 -64 12 l-33 -4 30 -7 c64 -16 78 -23 89 -41 8 -14 8 -20 -1
-23 -15 -5 -18 -33 -3 -33 25 0 60 144 44 180 -9 21 -3 136 11 200 7 33 25 41
25 11 0 -10 7 -38 16 -62 9 -24 20 -80 25 -123 5 -44 18 -114 28 -155 29 -114
35 -235 17 -296 -19 -59 -18 -55 -7 -55 13 0 41 111 41 163 0 26 -4 47 -9 47
-5 0 -7 8 -4 19 2 10 -7 78 -22 151 -15 72 -24 138 -21 145 4 11 11 11 35 2
36 -13 80 3 78 29 -1 9 4 19 11 21 9 3 12 -13 12 -61 0 -67 9 -86 29 -62 7 9
8 22 3 37 -5 13 -12 45 -16 72 -7 43 -4 51 22 85 17 22 32 56 36 82 8 52 49
137 78 163 34 29 193 19 311 -21 76 -25 73 -42 -8 -42 -58 0 -72 -4 -113 -32
-69 -47 -118 -94 -181 -173 -58 -73 -85 -114 -79 -121 3 -2 17 16 32 40 49 78
107 117 73 49 -8 -15 -20 -46 -26 -68 -16 -54 -53 -135 -61 -135 -4 0 -12 15
-18 33 l-10 32 -1 -31 c-1 -35 17 -94 29 -94 4 0 11 16 14 35 11 57 23 41 32
-42 7 -61 12 -78 25 -78 17 0 61 -48 72 -77 6 -18 74 -33 145 -31 23 1 42 -2
42 -6 0 -23 -281 -129 -467 -177 -40 -10 -73 -22 -73 -26 0 -12 2 -11 188 42
163 47 307 105 370 148 33 23 70 33 78 21 3 -5 14 -9 25 -9 11 0 31 -7 45 -16
22 -15 32 -15 82 -5 65 15 148 48 139 57 -3 3 -30 -3 -59 -14 -83 -31 -133
-36 -160 -18 -12 9 -30 16 -40 16 -14 0 -18 8 -18 35 0 43 -15 46 -23 5 -4
-17 -13 -30 -21 -30 -25 0 -115 102 -148 168 -51 103 -41 224 26 300 11 12 15
22 10 22 -24 0 -79 -96 -88 -155 -13 -79 41 -214 121 -301 39 -43 29 -50 -59
-40 -57 6 -63 9 -118 65 -67 69 -84 112 -77 200 9 115 70 267 127 314 79 67
146 88 242 76 139 -17 152 -28 56 -48 -72 -15 -215 -67 -224 -82 -11 -19 4
-21 29 -5 35 23 195 76 212 70 7 -3 24 0 36 7 13 6 45 13 71 15 38 3 50 0 55
-13 5 -14 8 -13 14 5 7 19 14 21 59 18 55 -4 81 11 28 16 -29 3 -33 7 -33 33
-1 40 -50 144 -116 243 -30 44 -55 79 -57 78 -1 -2 27 -52 63 -112 57 -94 75
-134 61 -134 -2 0 -20 28 -41 63 -46 74 -137 198 -143 192 -3 -2 9 -21 24 -42
47 -62 104 -149 104 -159 0 -6 17 -28 39 -50 41 -43 59 -102 34 -111 -20 -8
-43 16 -43 43 0 13 -4 24 -10 24 -5 0 -10 -8 -10 -17 0 -15 -4 -13 -20 7 -11
14 -23 36 -27 50 -9 33 -43 110 -49 110 -2 0 -1 -12 2 -26 11 -42 -12 -21 -49
44 -49 89 -274 312 -313 312 -4 0 16 -19 45 -42 28 -23 49 -43 46 -46 -2 -2
-34 7 -70 22 -68 27 -90 32 -81 17 3 -4 34 -18 68 -31 110 -39 122 -48 229
-173 96 -111 209 -267 209 -288 0 -5 -9 -9 -20 -9 -13 0 -32 17 -53 49 -109
165 -233 300 -307 335 -8 4 -26 13 -40 21 -27 16 -128 19 -170 5 -23 -7 -23
-8 9 -9 25 -1 32 -5 27 -16 -4 -11 2 -15 23 -15 17 0 31 6 35 16 11 30 78 11
143 -39 70 -53 197 -186 188 -195 -4 -4 -27 16 -51 43 -24 28 -44 45 -44 39 0
-18 88 -112 118 -126 32 -16 43 -58 15 -56 -10 1 -31 -2 -46 -6 -17 -4 -26 -3
-23 2 9 15 -27 41 -79 56 -70 22 -225 40 -267 32 -60 -11 -119 -98 -134 -196
-4 -31 -19 -60 -44 -90 -20 -25 -45 -58 -55 -73 -23 -36 -69 -34 -96 3 -25 34
-42 110 -23 103 8 -3 14 0 14 6 0 6 -4 11 -8 11 -4 0 -15 13 -25 29 -18 31
-24 121 -7 121 6 0 10 5 10 10 0 6 -7 10 -15 10 -8 0 -15 -6 -15 -13 0 -6 -13
-24 -28 -39 -25 -23 -33 -25 -71 -18 -42 8 -81 33 -69 46 4 3 17 -1 30 -10 12
-9 38 -16 58 -15 l35 1 -30 7 c-33 8 -75 29 -75 37 0 6 68 -1 76 -9 9 -8 84
43 84 58 0 7 24 61 54 121 48 99 57 111 94 129 23 11 42 23 42 27 0 4 -16 19
-35 34 -19 14 -32 31 -29 36 15 25 130 88 180 99 61 14 74 31 17 22 -56 -8
-135 -46 -179 -86 -22 -19 -48 -37 -60 -41 -21 -7 -25 -12 -88 -141 -21 -44
-40 -82 -42 -84 -13 -15 -13 18 1 98 8 50 14 114 13 143 l-3 52 85 31 c47 17
108 46 136 63 52 33 57 40 91 140 17 50 33 68 33 37 0 -8 5 -15 10 -15 12 0
14 47 2 54 -4 2 -6 23 -4 45 3 33 11 46 36 63 43 30 96 79 108 103 10 17 9 18
-4 8 -17 -15 -28 -7 -28 20 0 18 -2 18 -32 -5 -43 -33 -137 -80 -150 -76 -6 2
19 23 55 47 63 41 98 71 82 71 -4 0 -28 -15 -54 -34 -25 -18 -72 -48 -103 -66
-58 -32 -78 -58 -35 -46 12 4 36 8 52 10 37 5 92 29 127 57 33 27 51 18 33
-17 -17 -33 -57 -62 -63 -46 -6 19 -22 14 -22 -8 0 -15 -16 -28 -55 -47 -30
-15 -55 -31 -55 -35 0 -11 5 -10 45 9 19 9 38 14 41 10 4 -3 -11 -57 -32 -118
-36 -102 -42 -114 -81 -140 -23 -16 -57 -32 -75 -36 -18 -3 -54 -17 -80 -29
-66 -33 -72 -32 -65 17 4 28 16 53 39 77 32 35 32 35 5 18 -43 -26 -44 -12 -3
34 44 48 48 65 6 25 -16 -16 -32 -26 -36 -23 -3 4 0 60 6 125 11 102 15 121
37 144 13 14 23 30 21 35 -1 5 3 19 10 32 18 31 1 27 -33 -8 -16 -16 -32 -30
-37 -30 -20 0 -4 27 38 67 35 32 42 43 28 43 -16 0 -15 4 9 25 32 30 32 29 11
63 -15 26 -14 30 25 105 23 42 41 84 41 92 0 18 12 19 29 3 11 -11 13 10 8
119 -4 112 -2 137 13 171 38 85 82 65 181 -82 69 -103 93 -126 112 -107 7 7 3
13 -16 20 -24 10 -54 47 -49 64 1 4 -2 7 -8 7 -5 0 -10 5 -10 12 0 6 8 3 20
-7 16 -14 30 -16 72 -11 29 3 90 9 135 12 51 4 87 12 94 20 6 8 17 14 24 14
29 0 117 44 194 97 2 2 2 5 -1 8 -3 3 -31 -10 -62 -29 -86 -52 -166 -75 -311
-92 l-129 -14 -61 58 c-70 69 -113 102 -130 102 -7 0 -24 -9 -38 -20z m-224
-637 c49 -7 43 -28 -7 -27 -25 1 -45 9 -59 24 l-22 23 25 -8 c14 -4 42 -10 63
-12z m-25 -40 c24 -6 29 -22 11 -40 -6 -6 -8 -21 -4 -32 5 -17 12 -20 28 -15
21 6 21 6 3 -9 -16 -12 -20 -29 -23 -103 -1 -49 -7 -172 -12 -274 -5 -102 -9
-196 -9 -210 0 -14 -5 -63 -12 -110 -6 -47 -13 -98 -14 -114 -2 -38 -21 -44
-52 -15 -24 22 -32 49 -15 49 5 0 9 17 9 38 1 20 6 78 11 127 6 50 11 113 11
141 0 27 5 55 12 62 8 8 8 15 1 24 -8 9 -8 61 -2 168 10 185 10 220 3 284 -6
45 -5 48 12 41 11 -4 29 -10 42 -12z m-68 -230 c-2 -91 -21 -267 -30 -279 -10
-11 -9 -14 5 -14 12 0 15 -5 11 -16 -3 -9 -6 -29 -6 -45 0 -50 -17 -31 -26 29
-5 38 -9 48 -12 30 -2 -15 2 -53 8 -85 7 -39 7 -59 0 -61 -5 -2 -10 -13 -10
-25 0 -16 3 -18 12 -9 7 7 15 12 19 12 8 0 0 -40 -12 -55 -4 -6 -9 -46 -10
-89 -3 -75 -2 -79 24 -102 16 -13 34 -24 42 -24 7 0 30 28 49 63 20 34 40 69
45 77 5 8 19 39 32 67 25 58 52 89 68 78 19 -11 12 -39 -24 -95 -19 -30 -35
-63 -35 -73 0 -11 -9 -21 -21 -24 -12 -3 -32 -29 -49 -64 -16 -31 -34 -60 -40
-64 -12 -7 -96 29 -122 52 -28 25 -52 0 -43 -46 4 -20 11 -41 16 -47 12 -15 7
-130 -6 -125 -34 15 -115 74 -115 84 0 7 8 17 19 24 28 18 100 158 94 182 -3
12 -1 21 5 21 6 0 13 -13 17 -30 4 -16 11 -30 16 -30 6 0 8 8 5 18 -3 9 -8 60
-11 112 -6 92 -20 216 -31 273 -3 15 -1 27 4 27 6 0 15 -12 20 -27 8 -21 11
-23 11 -8 1 10 -13 34 -31 52 -21 22 -27 33 -17 33 9 0 26 -11 39 -25 13 -14
28 -25 34 -25 6 1 -10 21 -37 45 -26 24 -44 46 -40 48 5 2 25 7 46 11 20 4 37
12 37 17 0 6 -8 8 -17 5 -17 -5 -204 -46 -210 -46 -2 0 -3 4 -3 8 0 5 43 24
96 43 84 30 100 39 130 78 19 24 34 48 34 52 0 5 5 9 10 9 6 0 10 -8 10 -17z
m260 -433 c8 -5 11 -12 8 -16 -10 -9 -58 4 -58 16 0 13 30 13 50 0z m-424
-137 c-3 -10 -17 -65 -31 -123 -36 -146 -31 -138 -65 -105 -17 16 -30 35 -30
43 0 15 28 69 82 155 30 47 54 63 44 30z m274 -146 c-12 -26 -25 -45 -30 -42
-6 3 2 29 17 58 32 63 42 50 13 -16z m-260 20 c0 -18 -27 -53 -34 -46 -9 9 11
59 24 59 5 0 10 -6 10 -13z m85 -57 c3 -5 1 -10 -4 -10 -6 0 -11 5 -11 10 0 6
2 10 4 10 3 0 8 -4 11 -10z m1040 -70 c3 -5 -1 -10 -9 -10 -9 0 -16 5 -16 10
0 6 4 10 9 10 6 0 13 -4 16 -10z m-1028 -20 c14 -11 41 -22 62 -26 20 -4 42
-11 49 -17 8 -6 12 -6 12 2 0 6 5 11 10 11 16 0 11 -26 -11 -54 -44 -56 -143
-15 -156 67 -6 42 -1 45 34 17z m2 -96 c13 -14 37 -28 53 -31 34 -7 35 -36 2
-41 -24 -3 -104 67 -97 86 7 17 15 15 42 -14z m131 -31 c0 -5 -4 -15 -10 -23
-11 -18 -25 -7 -17 15 6 15 27 21 27 8z m-24 -89 c-4 -15 -10 -39 -13 -55 -8
-44 -26 -36 -19 9 11 57 16 72 28 72 6 0 8 -10 4 -26z"></path>
<path d="M4941 4254 c13 -14 25 -20 27 -14 5 15 -17 40 -36 40 -12 0 -10 -6 9
-26z"></path>
<path d="M4835 4200 c-16 -11 -25 -20 -20 -20 10 0 64 39 55 40 -3 0 -18 -9
-35 -20z"></path>
<path d="M4930 4180 c-2 -25 -28 -103 -29 -87 -1 5 -15 -1 -32 -13 -16 -12
-28 -25 -25 -28 4 -3 18 5 32 19 l27 24 -5 -25 c-3 -14 -9 -33 -13 -42 -5 -14
-2 -18 12 -18 10 0 25 -6 33 -12 8 -7 6 -3 -4 9 -18 22 -18 25 -3 60 25 58 27
76 18 108 -9 29 -9 29 -11 5z"></path>
<path d="M4750 4135 c-13 -14 -20 -28 -17 -32 4 -3 8 -4 10 -2 1 2 13 16 26
32 31 34 13 36 -19 2z"></path>
<path d="M4210 4114 c0 -6 12 -21 26 -35 14 -13 30 -33 34 -44 6 -15 9 -16 9
-4 1 9 -15 33 -34 55 -19 21 -34 34 -35 28z"></path>
<path d="M3117 4048 c3 -35 12 -70 19 -77 12 -13 18 -12 45 8 25 19 33 21 40
10 10 -17 15 -12 22 29 7 36 -7 45 -17 10 -4 -17 -8 -20 -17 -11 -21 21 -6 48
29 51 31 3 32 2 32 -37 0 -41 14 -62 24 -36 3 8 12 15 21 15 22 0 18 21 -5 27
-11 3 -23 16 -26 29 -6 23 -10 24 -54 18 -36 -5 -54 -2 -71 10 -41 28 -48 21
-42 -46z m53 17 c7 -9 10 -18 7 -22 -4 -3 -1 -13 5 -21 10 -11 9 -17 -6 -28
-25 -18 -32 -12 -40 31 -10 52 8 72 34 40z"></path>
<path d="M4555 4090 c3 -5 12 -10 19 -10 26 0 69 -59 81 -112 10 -48 14 -53
41 -55 33 -3 124 24 124 37 0 9 -81 -9 -94 -21 -18 -16 -27 -9 -25 19 3 37
-11 111 -24 119 -6 4 -7 -7 -3 -31 9 -48 -5 -46 -26 5 -12 28 -22 40 -32 36
-8 -3 -20 1 -26 9 -14 16 -45 20 -35 4z"></path>
<path d="M4757 4048 c2 -24 -1 -56 -7 -71 -8 -25 -8 -28 5 -17 9 7 15 29 15
51 0 22 4 39 8 39 4 0 34 -26 66 -58 52 -54 57 -62 54 -97 -3 -37 -28 -64 -28
-30 0 24 -20 56 -31 50 -8 -6 56 -137 85 -174 7 -9 7 -16 1 -18 -42 -15 -90
-52 -98 -76 -7 -23 -3 -41 27 -103 20 -41 36 -79 36 -83 0 -4 -9 -16 -20 -26
-10 -9 -18 -22 -17 -28 1 -6 -15 -15 -35 -20 -21 -5 -38 -14 -38 -19 0 -6 6
-8 14 -5 8 3 31 9 51 13 26 4 35 11 31 21 -3 8 4 27 15 42 l21 28 -26 51 c-32
62 -32 62 -3 62 13 0 28 5 35 12 8 8 14 5 22 -16 5 -15 10 -32 10 -37 0 -5 5
-9 10 -9 13 0 13 4 -4 45 -9 20 -14 64 -14 107 1 55 -3 80 -17 101 -15 23 -15
32 -5 56 6 16 9 43 7 60 -6 38 -44 101 -61 101 -6 0 -32 20 -56 45 -24 25 -47
45 -50 45 -4 0 -5 -19 -3 -42z m116 -380 c-8 -11 -9 -23 -4 -43 2 -11 1 -15
-6 -15 -5 0 -8 4 -8 9 0 5 -3 13 -8 17 -4 4 0 16 10 26 18 20 30 25 16 6z m47
-42 c0 -16 -18 -31 -27 -22 -8 8 5 36 17 36 5 0 10 -6 10 -14z"></path>
<path d="M3380 4051 c-17 -33 -12 -61 11 -61 15 0 19 -4 15 -16 -3 -9 -9 -28
-12 -42 -11 -55 22 5 36 63 12 49 12 58 -1 66 -22 14 -37 11 -49 -10z m29 -23
c-8 -14 -14 -18 -17 -10 -4 13 17 46 25 38 3 -2 -1 -15 -8 -28z"></path>
<path d="M3481 4053 c-17 -15 -20 -24 -15 -50 8 -41 34 -44 63 -7 30 38 28 74
-3 74 -13 0 -33 -8 -45 -17z m41 -36 c-19 -33 -35 -38 -40 -13 -4 18 35 59 49
51 6 -4 3 -19 -9 -38z"></path>
<path d="M4160 4049 c0 -6 7 -8 16 -5 16 6 74 -19 74 -33 0 -4 -24 -6 -54 -3
-33 3 -56 0 -60 -7 -5 -8 10 -11 49 -11 34 0 65 -6 80 -16 14 -9 25 -13 25
-10 0 12 -34 60 -55 78 -22 19 -75 24 -75 7z"></path>
<path d="M2630 4030 c0 -11 5 -20 10 -20 6 0 10 9 10 20 0 11 -4 20 -10 20 -5
0 -10 -9 -10 -20z"></path>
<path d="M4340 3990 c0 -5 4 -10 9 -10 6 0 13 5 16 10 3 6 -1 10 -9 10 -9 0
-16 -4 -16 -10z"></path>
<path d="M2603 3918 c-22 -73 -23 -108 -1 -50 19 50 31 38 26 -27 l-4 -58 25
7 c15 5 53 18 85 29 33 12 68 21 80 21 15 0 17 3 9 11 -10 10 -64 -3 -160 -39
-10 -3 -13 11 -13 49 0 63 -10 129 -19 129 -3 0 -16 -33 -28 -72z"></path>
<path d="M4218 3943 c-24 -28 -39 -61 -30 -67 5 -3 16 10 25 29 9 19 21 35 27
35 5 0 10 5 10 10 0 15 -15 12 -32 -7z"></path>
<path d="M4522 3922 c-10 -7 -14 -43 -15 -133 l-2 -124 -30 -3 c-37 -4 -53
-18 -39 -32 7 -7 19 -8 37 -1 21 8 27 8 27 -4 0 -11 12 -12 55 -8 61 6 74 -7
23 -22 -21 -6 -34 -18 -37 -30 -3 -19 -3 -19 17 -2 11 10 23 17 28 15 5 -1 20
4 33 11 15 8 27 9 33 3 11 -11 48 -4 48 9 0 5 -7 9 -15 9 -9 0 -12 6 -9 15 4
10 0 15 -15 15 -25 0 -28 19 -3 22 9 1 -14 4 -53 7 l-70 6 0 110 0 110 53 3
c36 2 52 7 49 15 -4 14 -96 21 -115 9z m38 -282 c0 -5 -7 -10 -15 -10 -8 0
-15 5 -15 10 0 6 7 10 15 10 8 0 15 -4 15 -10z"></path>
<path d="M4110 3894 c0 -8 5 -12 10 -9 6 3 10 10 10 16 0 5 -4 9 -10 9 -5 0
-10 -7 -10 -16z"></path>
<path d="M4407 3877 c-10 -18 -19 -61 -21 -99 -3 -57 -1 -67 14 -71 16 -4 18
2 15 47 -3 56 5 77 43 119 25 27 25 27 4 27 -13 0 -22 -6 -22 -15 0 -8 -4 -15
-9 -15 -5 0 -7 9 -4 20 8 29 0 24 -20 -13z"></path>
<path d="M4183 3811 c-89 -35 -118 -51 -94 -51 17 0 194 69 206 81 17 17 -18
8 -112 -30z"></path>
<path d="M2795 3790 c-27 -27 -47 -52 -44 -55 6 -5 109 89 109 99 0 15 -20 2
-65 -44z"></path>
<path d="M1880 3793 c-12 -15 -24 -40 -27 -55 -3 -16 -9 -28 -13 -28 -3 0 -7
-22 -8 -50 -1 -39 3 -50 14 -50 12 0 14 7 9 29 -3 16 -2 32 3 35 9 5 71 -23
98 -45 8 -6 17 -10 19 -7 7 6 -67 58 -82 58 -6 0 -16 6 -23 14 -18 23 22 106
51 106 34 0 97 -74 158 -186 30 -54 56 -93 58 -87 2 5 -15 43 -37 82 -23 40
-39 75 -37 77 2 3 27 -20 55 -51 28 -30 53 -55 56 -55 18 0 -4 27 -89 110
-141 139 -166 152 -205 103z"></path>
<path d="M2507 3745 c-11 -7 -32 -51 -48 -97 -15 -45 -33 -84 -38 -86 -6 -2
-18 12 -27 32 -14 29 -25 36 -63 45 -74 16 -171 23 -171 12 0 -5 39 -12 87
-16 87 -8 88 -8 130 -52 24 -24 43 -53 43 -65 0 -39 17 -6 45 87 14 50 35 103
47 118 23 33 21 41 -5 22z"></path>
<path d="M4040 3750 c0 -5 4 -10 9 -10 6 0 13 5 16 10 3 6 -1 10 -9 10 -9 0
-16 -4 -16 -10z"></path>
<path d="M1720 3720 c0 -5 5 -10 10 -10 6 0 10 5 10 10 0 6 -4 10 -10 10 -5 0
-10 -4 -10 -10z"></path>
<path d="M2800 3720 c0 -6 30 -10 70 -10 40 0 70 4 70 10 0 6 -30 10 -70 10
-40 0 -70 -4 -70 -10z"></path>
<path d="M4970 3720 c0 -12 16 -65 66 -213 16 -47 16 -72 -2 -166 -11 -55 11
-28 24 31 17 74 9 127 -33 243 -37 98 -55 133 -55 105z"></path>
<path d="M1770 3710 c0 -5 12 -10 28 -10 21 0 24 2 12 10 -20 13 -40 13 -40 0z"></path>
<path d="M4270 3708 c-14 -5 -64 -10 -112 -10 -50 -1 -88 -5 -88 -11 0 -14
208 -3 222 11 17 17 7 21 -22 10z"></path>
<path d="M4297 3653 c-19 -16 -56 -40 -81 -55 -25 -15 -46 -33 -46 -39 0 -12
25 2 98 55 73 53 87 65 76 66 -6 0 -27 -12 -47 -27z"></path>
<path d="M2905 3632 c-23 -20 -54 -46 -70 -58 -35 -24 -27 -44 18 -44 18 0 60
-6 95 -14 52 -11 61 -11 50 0 -7 7 -43 18 -80 23 -37 5 -72 12 -78 16 -7 4 9
21 39 41 28 19 55 43 61 54 14 27 11 25 -35 -18z"></path>
<path d="M4680 3657 c0 -20 38 -33 53 -18 13 13 9 18 -26 26 -21 6 -27 4 -27
-8z"></path>
<path d="M4040 3656 c0 -4 16 -14 36 -22 29 -12 49 -13 112 -4 41 6 78 13 81
16 3 3 -37 4 -89 3 -52 -2 -105 1 -117 5 -13 5 -23 5 -23 2z"></path>
<path d="M3740 3585 c-12 -19 -33 -44 -47 -55 -14 -11 -23 -24 -19 -28 10 -9
96 85 96 104 0 22 -6 17 -30 -21z"></path>
<path d="M1861 3573 c-1 -17 -5 -35 -11 -38 -5 -3 -10 -15 -10 -26 0 -12 4
-17 11 -14 18 12 28 52 19 82 l-8 28 -1 -32z"></path>
<path d="M2574 3589 c-31 -39 -84 -148 -75 -154 6 -3 17 9 24 28 8 18 27 53
41 76 26 40 33 79 10 50z"></path>
<path d="M4728 3593 c7 -3 16 -2 19 1 4 3 -2 6 -13 5 -11 0 -14 -3 -6 -6z"></path>
<path d="M4076 3558 c-3 -18 -10 -60 -16 -92 -5 -33 -10 -74 -10 -93 0 -24 -7
-37 -25 -49 -14 -9 -25 -21 -25 -26 0 -6 7 -5 15 2 21 18 32 3 16 -21 -19 -31
-5 -35 15 -4 9 14 19 49 21 78 4 61 22 194 29 220 3 9 1 17 -5 17 -5 0 -12
-15 -15 -32z"></path>
<path d="M1806 3560 c-58 -59 -166 -70 -315 -31 -103 27 -113 21 -80 -46 21
-42 82 -100 121 -116 8 -4 -2 -18 -29 -42 -58 -49 -55 -65 3 -20 26 19 50 35
54 35 4 0 24 -20 44 -45 21 -25 44 -45 52 -45 9 0 12 5 8 11 -7 12 56 149 68
149 11 0 10 -6 -7 -70 -18 -66 -17 -60 -5 -60 6 0 10 7 10 15 0 8 5 15 10 15
6 0 10 -11 10 -25 0 -25 23 -35 35 -15 3 6 11 10 16 10 6 0 7 -5 4 -11 -8 -11
78 31 109 54 18 13 18 14 -8 19 -19 4 -43 -4 -81 -28 -36 -21 -57 -29 -62 -22
-3 6 -6 49 -6 95 0 110 -17 108 -74 -6 -23 -46 -45 -86 -48 -90 -10 -9 -34 29
-29 44 3 7 -7 17 -23 24 -16 6 -43 25 -60 41 -18 17 -39 30 -47 30 -21 0 -72
78 -60 90 6 6 46 1 109 -16 126 -32 179 -29 240 15 24 17 48 31 54 31 6 0 11
7 11 15 0 18 -1 18 -24 -5z"></path>
<path d="M1910 3570 c-8 -5 -12 -11 -10 -13 8 -8 70 5 70 14 0 12 -41 11 -60
-1z"></path>
<path d="M4603 3565 c-13 -5 -23 -13 -23 -17 0 -13 55 -9 75 6 17 12 17 13 -6
17 -13 3 -34 0 -46 -6z"></path>
<path d="M6505 3244 c-264 -184 -556 -387 -650 -451 -93 -64 -183 -127 -198
-139 -18 -15 -42 -24 -63 -24 -19 0 -34 -4 -34 -9 0 -11 121 -16 348 -15 94 0
172 -3 172 -7 0 -5 -15 -16 -32 -26 -28 -15 -54 -17 -158 -14 -70 1 -136 -2
-150 -8 -25 -10 -24 -10 8 -10 46 -1 40 -17 -9 -24 -23 -3 -47 -11 -53 -18 -8
-9 -6 -10 9 -5 44 17 219 18 269 2 29 -9 54 -12 60 -7 6 5 30 14 53 20 45 12
137 93 130 114 -4 14 -42 14 -244 2 -86 -5 -133 -5 -133 2 0 5 62 52 138 105
314 217 1027 711 1031 714 2 2 2 7 -2 10 -3 4 -277 -182 -609 -412 l-603 -419
-53 2 c-49 1 -72 7 -61 17 2 2 137 95 299 207 162 113 460 319 663 458 323
224 389 274 360 270 -5 0 -224 -151 -488 -335z m-325 -633 c0 -17 -72 -72 -87
-67 -8 3 -20 6 -26 6 -6 0 4 16 23 35 23 24 43 35 62 35 15 0 28 -4 28 -9z
m-172 -89 c4 -13 -11 -15 -57 -6 -17 4 -31 10 -31 15 0 13 83 5 88 -9z"></path>
<path d="M2572 3470 c-60 -66 -70 -90 -36 -90 9 0 14 7 12 18 -1 10 14 38 35
63 35 39 62 80 55 79 -2 -1 -31 -32 -66 -70z"></path>
<path d="M1880 3495 c-19 -19 -29 -35 -24 -35 6 0 25 16 44 35 19 19 29 35 24
35 -6 0 -25 -16 -44 -35z"></path>
<path d="M2010 3510 c0 -5 8 -10 19 -10 10 0 34 -3 52 -7 31 -6 33 -5 20 10
-15 19 -91 24 -91 7z"></path>
<path d="M2326 3502 c-7 -12 -133 -96 -184 -122 -24 -12 -41 -25 -38 -28 6 -6
66 22 118 55 44 27 56 29 37 6 -30 -35 9 -5 49 39 24 25 39 49 33 52 -5 4 -12
2 -15 -2z"></path>
<path d="M3571 3496 c-19 -7 -37 -18 -39 -24 -2 -8 8 -7 32 3 19 8 45 15 56
15 11 0 20 5 20 10 0 13 -27 12 -69 -4z"></path>
<path d="M4602 3490 c-18 -10 -29 -20 -25 -23 11 -7 73 22 73 34 0 12 -9 10
-48 -11z"></path>
<path d="M4950 3485 c0 -14 5 -25 10 -25 6 0 10 11 10 25 0 14 -4 25 -10 25
-5 0 -10 -11 -10 -25z"></path>
<path d="M4452 3440 c-12 -16 -22 -34 -22 -40 0 -6 -7 -22 -16 -35 -15 -23
-15 -25 0 -30 9 -3 23 -7 32 -10 19 -6 46 13 38 27 -3 5 -11 5 -19 -2 -25 -20
-26 8 -4 60 25 59 22 72 -9 30z"></path>
<path d="M2853 3443 c-35 -8 -63 -19 -63 -24 0 -12 43 -12 56 1 5 5 42 12 82
16 40 4 75 11 78 15 8 14 -84 9 -153 -8z"></path>
<path d="M4350 3451 c0 -6 5 -13 10 -16 6 -3 10 1 10 9 0 9 -4 16 -10 16 -5 0
-10 -4 -10 -9z"></path>
<path d="M2618 3427 c-21 -6 -38 -15 -38 -20 0 -5 7 -6 16 -3 9 3 33 9 55 12
21 4 39 10 39 15 0 11 -24 10 -72 -4z"></path>
<path d="M4940 3396 c0 -15 28 -42 35 -34 9 8 -5 36 -21 42 -8 3 -14 -1 -14
-8z"></path>
<path d="M2355 3394 c-75 -16 -145 -38 -145 -46 0 -6 8 -7 18 -3 35 13 138 35
170 35 17 0 32 5 32 10 0 10 -36 12 -75 4z"></path>
<path d="M2905 3380 c-11 -5 -44 -9 -72 -9 -29 -1 -53 -5 -53 -11 0 -6 41 -10
103 -10 69 0 97 -3 87 -10 -12 -8 -9 -10 12 -10 43 0 42 18 -2 30 -22 6 -40
15 -40 20 0 12 -8 12 -35 0z"></path>
<path d="M4367 3370 c-14 -11 -30 -20 -36 -20 -6 0 -11 -4 -11 -10 0 -5 4 -10
9 -10 6 0 13 5 16 10 3 6 14 10 25 10 10 0 21 7 24 16 10 25 2 26 -27 4z"></path>
<path d="M2534 3353 c2 -10 12 -56 21 -103 9 -47 22 -95 27 -107 10 -20 8 -43
-8 -107 -3 -14 -2 -26 3 -26 16 0 37 110 24 123 -6 6 -11 22 -11 35 0 38 -43
202 -53 202 -4 0 -6 -8 -3 -17z"></path>
<path d="M4740 3360 c0 -5 5 -10 10 -10 6 0 10 5 10 10 0 6 -4 10 -10 10 -5 0
-10 -4 -10 -10z"></path>
<path d="M4671 3320 c-23 -28 -28 -40 -17 -40 9 0 25 18 36 40 11 22 19 40 17
40 -2 0 -18 -18 -36 -40z"></path>
<path d="M2398 3333 c42 -8 22 -23 -33 -23 -35 0 -55 -4 -55 -11 0 -16 121 -5
149 13 31 19 26 24 -31 25 -29 0 -43 -2 -30 -4z"></path>
<path d="M4822 3329 c-23 -4 -52 -15 -64 -23 -21 -15 -21 -16 -3 -16 31 0 155
34 155 42 0 10 -30 9 -88 -3z"></path>
<path d="M4936 3315 c-20 -30 -20 -41 -1 -49 8 -3 15 -1 15 3 0 5 9 7 20 4 11
-3 20 0 20 6 0 6 -4 11 -10 11 -5 0 -10 11 -10 25 0 32 -13 32 -34 0z"></path>
<path d="M2670 3320 c0 -5 9 -10 20 -10 11 0 20 -3 20 -7 0 -12 223 -9 243 2
12 8 -13 11 -95 10 -62 0 -130 4 -150 8 -25 5 -38 4 -38 -3z"></path>
<path d="M4484 3308 c-7 -11 13 -19 30 -12 11 4 16 1 16 -10 0 -10 9 -16 23
-16 12 0 32 -3 45 -6 13 -4 22 -2 22 5 0 6 -8 11 -18 11 -11 0 -27 9 -37 20
-17 18 -71 24 -81 8z"></path>
<path d="M2670 3280 c0 -5 5 -10 10 -10 6 0 10 5 10 10 0 6 -4 10 -10 10 -5 0
-10 -4 -10 -10z"></path>
<path d="M2620 3270 c0 -5 7 -10 15 -10 8 0 15 5 15 10 0 6 -7 10 -15 10 -8 0
-15 -4 -15 -10z"></path>
<path d="M4295 3270 c-3 -5 -4 -14 0 -19 3 -5 1 -12 -5 -16 -13 -8 -13 -25 0
-25 6 0 10 6 10 14 0 7 7 19 15 26 8 7 12 16 9 21 -7 12 -21 11 -29 -1z"></path>
<path d="M4875 3263 c-33 -8 -45 -24 -45 -56 0 -33 15 -27 22 8 2 13 13 22 33
25 16 3 28 9 28 15 -2 12 -12 14 -38 8z"></path>
<path d="M5425 3263 c-31 -8 -42 -23 -16 -23 20 0 22 -4 16 -30 -6 -27 -4 -30
19 -30 27 0 35 14 15 26 -6 3 -9 19 -5 35 3 16 2 28 -2 28 -4 -1 -16 -3 -27
-6z"></path>
<path d="M1940 3252 c0 -5 7 -15 15 -22 8 -7 15 -8 15 -2 0 5 -7 15 -15 22 -8
7 -15 8 -15 2z"></path>
<path d="M5480 3249 c0 -4 8 -9 19 -12 14 -3 17 -11 14 -30 -3 -13 0 -28 6
-31 7 -5 11 2 11 16 0 13 3 32 6 43 4 17 0 20 -25 20 -17 0 -31 -3 -31 -6z"></path>
<path d="M5630 3220 c0 -41 7 -49 28 -28 9 9 13 7 18 -5 11 -29 24 -18 24 20
0 34 -1 35 -18 20 -21 -19 -32 -13 -32 15 0 10 -4 18 -10 18 -5 0 -10 -18 -10
-40z"></path>
<path d="M5744 3244 c-17 -14 -17 -15 -1 -10 10 3 25 6 33 6 8 0 14 5 14 10 0
15 -24 12 -46 -6z"></path>
<path d="M5830 3214 c0 -29 4 -43 10 -39 6 4 17 1 25 -5 8 -6 22 -10 32 -7 16
4 15 6 -4 12 -23 7 -32 25 -13 25 16 0 11 26 -8 43 -31 28 -42 21 -42 -29z
m40 12 c0 -3 -4 -8 -10 -11 -5 -3 -10 -1 -10 4 0 6 5 11 10 11 6 0 10 -2 10
-4z"></path>
<path d="M1682 3238 c2 -6 10 -14 16 -16 7 -2 10 2 6 12 -7 18 -28 22 -22 4z"></path>
<path d="M4985 3218 c14 -70 36 -137 47 -144 8 -5 9 0 4 17 -3 13 -14 54 -23
92 -17 67 -40 96 -28 35z"></path>
<path d="M5562 3238 c-20 -20 -14 -48 13 -60 19 -9 28 -9 37 0 9 9 7 12 -9 12
-27 0 -39 18 -24 33 6 6 11 15 11 19 0 12 -14 10 -28 -4z"></path>
<path d="M5260 3222 c0 -27 25 -58 34 -43 6 9 13 8 28 -6 19 -17 20 -17 39 6
20 25 26 61 9 61 -5 0 -10 -11 -10 -24 0 -33 -16 -41 -33 -16 -9 13 -20 18
-31 14 -11 -4 -16 -1 -16 10 0 9 -4 16 -10 16 -5 0 -10 -8 -10 -18z"></path>
<path d="M2061 3216 c-10 -12 -8 -13 9 -9 25 7 37 23 17 23 -8 0 -20 -6 -26
-14z"></path>
<path d="M2095 3193 c-81 -41 -81 -41 -71 -50 3 -4 21 -2 39 4 17 6 69 21 115
33 45 13 82 27 82 31 0 12 -10 11 -64 -7 -49 -17 -78 -12 -32 5 14 6 26 13 26
16 0 12 -29 2 -95 -32z"></path>
<path d="M4710 3215 c0 -8 7 -15 15 -15 8 0 15 7 15 15 0 8 -7 15 -15 15 -8 0
-15 -7 -15 -15z"></path>
<path d="M2335 3213 c13 -13 86 -33 119 -33 43 0 21 17 -31 23 -26 4 -59 9
-73 13 -16 4 -21 3 -15 -3z"></path>
<path d="M4942 3178 c4 -37 1 -47 -25 -75 -17 -18 -27 -36 -23 -40 13 -13 78
70 72 92 -3 11 -6 30 -6 43 0 12 -5 22 -11 22 -7 0 -9 -15 -7 -42z"></path>
<path d="M5720 3207 c0 -35 72 -53 84 -21 8 21 10 20 -41 28 -32 5 -43 3 -43
-7z"></path>
<path d="M1645 3190 c17 -18 16 -20 -14 -50 -30 -31 -49 -75 -37 -87 3 -3 10
7 16 23 12 32 48 74 63 74 6 0 8 -28 5 -70 -3 -38 -2 -70 2 -70 10 0 20 64 20
136 l0 61 -36 1 c-36 1 -36 1 -19 -18z"></path>
<path d="M4342 3198 c5 -15 28 -23 28 -10 0 5 -7 13 -16 16 -10 4 -14 1 -12
-6z"></path>
<path d="M4760 3202 c0 -14 39 -46 47 -39 3 4 -2 16 -12 27 -19 21 -35 26 -35
12z"></path>
<path d="M4890 3200 c0 -5 5 -10 10 -10 6 0 10 5 10 10 0 6 -4 10 -10 10 -5 0
-10 -4 -10 -10z"></path>
<path d="M1990 3190 c0 -6 7 -10 15 -10 8 0 15 2 15 4 0 2 -7 6 -15 10 -8 3
-15 1 -15 -4z"></path>
<path d="M4384 3183 c4 -5 26 -8 49 -9 23 -1 53 -4 67 -8 22 -7 22 -6 -4 8
-28 16 -126 23 -112 9z"></path>
<path d="M4460 3137 c0 -7 148 -107 157 -107 18 0 53 -46 59 -78 7 -35 25 -55
23 -25 -4 55 -16 73 -81 117 -70 48 -158 99 -158 93z"></path>
<path d="M4530 3130 c20 -13 47 -13 55 0 4 6 -9 10 -32 10 -28 0 -34 -3 -23
-10z"></path>
<path d="M2183 3118 c-40 -6 -73 -14 -73 -20 0 -6 13 -8 33 -4 17 3 71 9 120
12 48 4 87 11 87 15 0 11 -72 9 -167 -3z"></path>
<path d="M3421 3092 c-7 -13 -11 -28 -8 -35 2 -7 9 -2 16 11 7 13 11 28 8 35
-2 7 -9 2 -16 -11z"></path>
<path d="M4662 3083 c-17 -7 16 -32 42 -33 12 0 16 -5 12 -15 -6 -17 -1 -19
23 -6 9 5 23 6 30 1 17 -10 70 7 91 28 13 13 13 14 -5 8 -11 -4 -36 -10 -55
-14 -32 -5 -34 -4 -21 11 12 16 9 16 -33 11 -26 -4 -51 -2 -58 3 -7 6 -19 8
-26 6z"></path>
<path d="M1905 3070 c-3 -5 -14 -10 -24 -10 -10 0 -26 -9 -35 -19 -10 -11 -33
-27 -53 -36 -26 -12 -33 -22 -31 -38 5 -33 31 -27 47 11 8 17 19 32 23 32 5 0
6 -4 3 -10 -12 -20 9 -9 51 25 23 19 49 35 58 35 8 0 18 5 21 10 4 6 -6 10
-24 10 -16 0 -33 -4 -36 -10z"></path>
<path d="M2190 3050 c0 -5 23 -10 50 -10 56 0 68 -16 18 -23 -32 -4 -32 -4 5
-5 31 -2 37 -5 37 -24 0 -21 4 -19 33 15 18 20 41 37 50 37 9 0 17 5 17 10 0
6 -42 10 -105 10 -63 0 -105 -4 -105 -10z"></path>
<path d="M3570 3052 c0 -5 27 -8 59 -8 32 1 57 4 54 9 -6 10 -113 9 -113 -1z"></path>
<path d="M4990 3054 c0 -20 25 -84 32 -84 9 0 5 18 -13 68 -8 21 -19 30 -19
16z"></path>
<path d="M3515 3041 c-26 -11 -117 -92 -111 -98 3 -3 23 10 46 28 102 83 105
86 65 70z"></path>
<path d="M2776 2995 c-65 -19 -121 -36 -124 -39 -13 -13 39 -4 140 25 59 16
113 27 118 24 6 -3 10 -15 10 -25 0 -27 30 -100 41 -100 5 0 9 1 9 3 -8 40
-51 142 -61 144 -8 1 -67 -14 -133 -32z"></path>
<path d="M4263 2989 c-40 -17 -73 -35 -73 -41 0 -5 3 -8 8 -6 4 2 40 17 79 33
40 17 73 33 73 38 0 11 -10 8 -87 -24z"></path>
<path d="M2420 2985 c0 -18 5 -25 20 -25 11 0 28 -4 38 -9 9 -5 44 -15 77 -22
42 -9 71 -22 98 -46 20 -18 42 -33 47 -33 23 0 5 -21 -92 -106 -241 -211 -332
-269 -379 -244 -19 11 -18 13 15 35 20 14 43 22 51 19 12 -5 14 7 13 72 -2 53
-7 83 -16 90 -11 8 -10 17 7 50 19 37 20 46 10 94 -9 43 -9 54 2 61 10 6 7 9
-10 9 -18 0 -22 -4 -18 -20 3 -10 0 -21 -5 -22 -7 -3 -6 -12 3 -26 10 -17 11
-24 1 -34 -8 -8 -8 -15 -1 -24 7 -8 7 -14 -1 -19 -5 -3 -10 -15 -10 -27 0 -26
-169 -259 -192 -266 -10 -2 -18 -11 -18 -18 0 -19 -15 -18 -34 2 -15 14 -16
14 -16 -1 0 -30 -44 -13 -59 23 -8 17 -19 32 -23 32 -5 0 -7 -3 -5 -7 3 -5 10
-26 16 -48 l10 -40 53 3 c54 3 95 17 113 39 15 17 47 20 53 5 2 -8 -5 -16 -17
-19 -24 -6 -29 -23 -6 -23 43 0 255 85 255 102 0 4 57 54 128 111 145 120 292
260 292 278 0 7 -22 -8 -48 -34 l-49 -48 -28 23 c-15 13 -38 33 -51 45 -13 12
-33 24 -44 28 -11 3 -20 11 -20 17 0 5 -7 8 -15 4 -8 -3 -21 1 -29 9 -10 11
-22 12 -47 5 -32 -9 -48 -2 -49 23 0 4 -4 7 -10 7 -5 0 -10 -11 -10 -25z
m-139 -357 c-10 -17 -10 -22 0 -28 10 -7 9 -11 -2 -22 -24 -24 -49 -29 -49
-10 0 12 -4 10 -13 -8 -7 -14 -19 -25 -27 -25 -8 -1 -25 -6 -37 -13 -19 -11
-22 -10 -17 3 4 9 15 20 25 26 11 5 19 16 19 24 0 7 14 27 31 44 17 17 28 31
24 31 -3 0 4 14 17 32 l22 32 10 -33 c7 -24 6 -39 -3 -53z m-66 -139 c12 -19
-5 -23 -22 -6 -16 16 -16 17 -1 17 9 0 20 -5 23 -11z"></path>
<path d="M4722 2990 c-15 -25 -16 -54 0 -44 11 7 9 -10 -6 -47 -5 -10 -1 -19
7 -22 18 -7 31 64 19 106 -7 26 -8 26 -20 7z"></path>
<path d="M1843 2968 c-13 -6 -23 -15 -23 -20 0 -11 17 -10 25 2 4 6 10 8 15 5
4 -3 13 2 20 10 15 18 -3 20 -37 3z"></path>
<path d="M3374 2969 c-3 -6 -1 -16 5 -22 8 -8 11 -5 11 11 0 24 -5 28 -16 11z"></path>
<path d="M1690 2960 c0 -12 40 -33 48 -25 4 4 -2 13 -12 21 -23 16 -36 18 -36
4z"></path>
<path d="M3618 2944 c-16 -8 -28 -18 -28 -23 0 -12 73 14 78 28 5 15 -18 13
-50 -5z"></path>
<path d="M5025 2947 c-4 -10 -5 -21 -1 -24 10 -10 18 4 13 24 -4 17 -4 17 -12
0z"></path>
<path d="M3058 2943 c-16 -2 -28 -9 -28 -14 0 -12 60 -2 75 12 9 9 3 10 -47 2z"></path>
<path d="M1854 2925 c-3 -8 -3 -19 1 -25 11 -18 25 -11 25 15 0 27 -17 34 -26
10z"></path>
<path d="M2990 2920 c0 -5 5 -10 10 -10 6 0 10 5 10 10 0 6 -4 10 -10 10 -5 0
-10 -4 -10 -10z"></path>
<path d="M3367 2923 c-11 -10 -8 -51 3 -58 6 -4 10 8 10 29 0 37 -2 41 -13 29z"></path>
<path d="M4770 2911 c0 -5 5 -13 10 -16 6 -3 10 -2 10 4 0 5 -4 13 -10 16 -5
3 -10 2 -10 -4z"></path>
<path d="M1745 2888 c-8 -35 -35 -169 -35 -174 0 -2 4 -4 9 -4 4 0 16 39 25
86 10 47 20 92 23 100 3 8 0 14 -6 14 -6 0 -13 -10 -16 -22z"></path>
<path d="M3014 2891 c-49 -19 -114 -67 -114 -84 0 -8 3 -9 8 -1 4 6 42 27 85
48 42 21 77 42 77 47 0 12 -6 10 -56 -10z"></path>
<path d="M4992 2865 c-26 -54 -27 -62 -6 -44 17 14 44 62 44 79 0 23 -17 7
-38 -35z"></path>
<path d="M3141 2833 c0 -34 4 -65 10 -68 21 -13 129 -18 129 -6 0 7 -21 11
-55 11 -62 0 -62 0 -75 76 l-8 49 -1 -62z"></path>
<path d="M1802 2871 c4 -13 18 -16 19 -4 0 4 -5 9 -11 12 -7 2 -11 -2 -8 -8z"></path>
<path d="M1840 2850 c0 -5 7 -10 15 -10 8 0 15 5 15 10 0 6 -7 10 -15 10 -8 0
-15 -4 -15 -10z"></path>
<path d="M4320 2854 c0 -4 8 -13 18 -20 15 -12 15 -15 2 -23 -8 -6 -11 -13 -7
-17 7 -7 37 14 37 27 0 4 -7 15 -16 23 -16 16 -34 21 -34 10z"></path>
<path d="M4404 2825 c4 -16 10 -33 14 -37 10 -10 188 -22 179 -12 -5 5 -43 11
-85 14 -67 4 -78 8 -88 28 -18 36 -27 39 -20 7z"></path>
<path d="M2881 2804 c0 -11 3 -14 6 -6 3 7 2 16 -1 19 -3 4 -6 -2 -5 -13z"></path>
<path d="M4225 2787 c-8 -20 -15 -39 -15 -43 0 -3 -22 -32 -48 -63 -73 -84
-72 -95 1 -17 40 43 69 84 77 109 15 51 5 61 -15 14z"></path>
<path d="M2798 2690 c-32 -44 -34 -50 -13 -50 8 0 15 8 15 18 0 10 7 28 16 40
9 13 14 25 13 27 -2 2 -16 -14 -31 -35z"></path>
<path d="M3314 2721 c9 -13 117 -73 123 -67 6 5 -67 53 -103 66 -14 6 -23 6
-20 1z"></path>
<path d="M2970 2695 c-45 -33 -30 -32 18 0 20 14 32 25 27 25 -6 -1 -26 -12
-45 -25z"></path>
<path d="M4390 2690 c0 -5 12 -10 28 -10 15 0 56 -7 92 -14 63 -13 81 -13 67
0 -7 7 -137 33 -169 33 -10 1 -18 -3 -18 -9z"></path>
<path d="M799 2665 c-27 -15 -43 -40 -34 -55 3 -4 21 -11 41 -14 42 -8 41 -28
-2 -37 -28 -6 -28 -7 7 -8 19 0 40 4 47 11 17 17 -14 48 -50 48 -37 0 -36 13
5 44 35 28 28 34 -14 11z"></path>
<path d="M1744 2671 c7 -11 76 -20 76 -10 0 10 -27 19 -56 19 -14 0 -23 -4
-20 -9z"></path>
<path d="M5369 2652 c-24 -15 -65 -36 -91 -46 -43 -16 -72 -36 -51 -36 19 1
82 27 134 58 31 17 61 32 66 32 14 0 95 -119 88 -130 -3 -5 4 -14 15 -20 24
-13 55 -69 43 -81 -11 -11 -4 -119 8 -119 5 0 9 25 9 55 0 53 1 56 40 81 46
31 47 43 1 20 -35 -19 -41 -19 -41 -6 0 5 19 19 43 31 61 31 71 40 55 50 -7 5
-24 8 -38 8 -17 -1 -19 -3 -7 -6 27 -7 20 -18 -21 -36 -55 -24 -68 -21 -64 14
1 4 -14 23 -33 44 -42 44 -45 65 -9 65 14 0 23 4 19 10 -3 6 -21 10 -39 10
-19 0 -39 7 -46 15 -17 21 -30 19 -81 -13z"></path>
<path d="M1108 2653 c-10 -2 -18 -9 -18 -14 0 -15 53 -6 58 9 4 12 -8 14 -40
5z"></path>
<path d="M1196 2633 c9 -37 13 -41 49 -43 45 -3 47 -2 29 25 -12 19 -22 23
-40 19 -18 -5 -24 -2 -24 10 0 9 -5 16 -10 16 -6 0 -8 -11 -4 -27z"></path>
<path d="M930 2639 c-8 -5 -25 -9 -38 -9 -14 0 -21 -4 -17 -11 7 -11 63 -3 78
11 13 12 -7 20 -23 9z"></path>
<path d="M995 2603 c8 -57 15 -70 26 -52 5 8 21 13 40 11 21 -3 29 0 25 7 -4
6 -16 11 -27 11 -16 0 -19 4 -14 23 6 18 5 20 -6 10 -20 -20 -29 -16 -29 12 0
14 -5 25 -11 25 -8 0 -9 -15 -4 -47z"></path>
<path d="M1840 2627 c0 -29 18 -47 45 -46 19 0 19 1 -2 16 -13 8 -23 24 -23
34 0 11 -4 19 -10 19 -5 0 -10 -10 -10 -23z"></path>
<path d="M2879 2630 c-13 -10 -19 -19 -13 -20 7 0 22 9 35 20 13 10 19 19 13
20 -7 0 -22 -9 -35 -20z"></path>
<path d="M3190 2624 c-63 -13 -127 -27 -142 -30 -16 -4 -28 -11 -28 -15 0 -5
10 -7 23 -4 12 3 67 14 122 26 55 11 108 23 118 25 41 12 11 -13 -46 -39 -34
-15 -75 -39 -92 -53 -23 -19 -8 -14 60 19 50 24 111 52 138 62 26 10 46 19 45
20 -18 14 -102 9 -198 -11z"></path>
<path d="M1326 2631 c-4 -5 3 -11 14 -13 29 -4 30 -22 2 -26 -16 -2 -25 3 -31
20 -9 21 -10 21 -10 3 -1 -12 4 -26 11 -33 30 -30 93 2 71 36 -12 20 -48 28
-57 13z"></path>
<path d="M1130 2590 c0 -16 4 -30 9 -30 17 0 41 12 41 21 0 4 -7 6 -15 3 -10
-4 -15 0 -15 15 0 12 -4 21 -10 21 -5 0 -10 -13 -10 -30z"></path>
<path d="M2678 2538 c-66 -85 -99 -136 -79 -124 15 9 14 -7 -1 -22 -6 -6 -8
-15 -3 -19 4 -5 10 -3 12 4 2 6 18 30 34 53 17 23 29 43 27 45 -2 2 -12 -9
-23 -26 -23 -33 -41 -40 -25 -8 20 36 44 59 63 59 14 0 17 5 12 20 -5 16 -2
20 14 20 16 0 21 6 21 25 0 18 5 25 20 25 11 0 20 7 20 15 0 33 -30 11 -92
-67z"></path>
<path d="M4880 2610 c0 -5 5 -10 10 -10 6 0 10 5 10 10 0 6 -4 10 -10 10 -5 0
-10 -4 -10 -10z"></path>
<path d="M892 2575 c2 -15 12 -21 41 -23 22 -2 37 1 37 8 0 6 -10 8 -25 4 -15
-4 -25 -2 -25 5 0 6 9 11 19 11 11 0 22 4 25 9 3 5 -12 8 -35 7 -34 -1 -39 -4
-37 -21z"></path>
<path d="M2809 2576 c-17 -23 -33 -86 -21 -86 4 0 13 10 21 22 10 17 11 23 2
26 -8 3 -5 12 9 27 12 13 18 25 13 28 -4 3 -15 -5 -24 -17z"></path>
<path d="M4087 2584 c-4 -4 -7 -14 -7 -23 0 -11 3 -12 11 -4 6 6 10 16 7 23
-2 6 -7 8 -11 4z"></path>
<path d="M2965 2575 c-5 -2 -36 -11 -67 -20 -32 -8 -58 -20 -58 -26 0 -7 7 -8
18 -4 9 4 44 14 77 23 62 15 95 33 60 31 -11 0 -24 -2 -30 -4z"></path>
<path d="M5125 2529 c-27 -23 -59 -47 -69 -55 -11 -7 -18 -16 -15 -18 3 -3 36
-8 74 -12 45 -4 74 -12 82 -22 17 -21 27 -9 13 17 -9 17 -20 21 -65 21 -30 0
-55 4 -55 9 0 5 20 25 45 45 50 41 55 41 127 -17 21 -17 41 -27 45 -24 3 4 4
9 2 11 -14 13 -123 86 -128 86 -3 -1 -28 -19 -56 -41z"></path>
<path d="M5306 2561 c5 -5 32 -16 61 -25 28 -10 56 -22 61 -29 5 -7 26 -65 46
-130 20 -65 40 -115 45 -113 8 5 -48 198 -72 245 -9 18 -29 30 -72 43 -68 20
-84 22 -69 9z"></path>
<path d="M2740 2515 c-13 -14 -19 -25 -13 -25 5 0 20 11 33 25 13 14 19 25 13
25 -5 0 -20 -11 -33 -25z"></path>
<path d="M3287 2514 c-4 -4 -7 -14 -7 -23 0 -11 3 -12 11 -4 6 6 10 16 7 23
-2 6 -7 8 -11 4z"></path>
<path d="M4051 2502 c-7 -13 -11 -28 -8 -35 2 -7 9 -2 16 11 7 13 11 28 8 35
-2 7 -9 2 -16 -11z"></path>
<path d="M1702 2481 c-38 -28 -60 -51 -48 -51 4 0 25 14 48 30 22 17 45 30 50
30 18 0 6 -16 -25 -34 -25 -15 -28 -20 -14 -23 9 -3 17 -9 17 -14 0 -5 9 -9
20 -9 11 0 20 -4 20 -10 0 -5 -7 -10 -15 -10 -8 0 -15 -4 -15 -10 0 -5 7 -10
15 -10 9 0 15 -9 15 -25 0 -14 -4 -25 -9 -25 -18 0 -61 42 -61 60 0 24 -10 29
-34 21 -16 -6 -9 -16 48 -66 73 -65 95 -110 76 -160 -12 -33 -12 -35 0 -35 6
0 25 21 44 48 32 44 41 49 125 75 50 16 95 26 101 22 5 -3 10 3 10 14 0 21 -7
21 -55 1 -41 -17 -119 -40 -137 -40 -10 0 -27 -9 -38 -20 -11 -11 -22 -20 -25
-20 -10 0 -5 128 6 159 6 18 8 35 5 39 -4 3 -9 -4 -13 -16 -8 -32 -25 -27 -17
6 11 44 18 44 59 2 25 -25 36 -44 29 -48 -13 -9 -13 -53 1 -44 5 3 22 14 36
25 27 19 27 19 58 -4 17 -12 33 -20 36 -18 2 3 0 22 -6 42 -11 40 -36 49 -59
22 -7 -8 -18 -15 -24 -15 -6 0 -44 32 -84 70 -40 39 -79 70 -86 70 -7 0 -31
-13 -54 -29z m74 -28 c-10 -10 -19 5 -10 18 6 11 8 11 12 0 2 -7 1 -15 -2 -18z
m4 -17 c0 -3 -4 -8 -10 -11 -5 -3 -10 -1 -10 4 0 6 5 11 10 11 6 0 10 -2 10
-4z m210 -72 c0 -8 -4 -12 -10 -9 -5 3 -10 10 -10 16 0 5 5 9 10 9 6 0 10 -7
10 -16z"></path>
<path d="M6800 2490 c0 -5 5 -10 10 -10 6 0 10 5 10 10 0 6 -4 10 -10 10 -5 0
-10 -4 -10 -10z"></path>
<path d="M3116 2450 c-10 -21 -74 -109 -142 -195 -68 -86 -140 -181 -160 -211
-20 -30 -40 -54 -45 -54 -10 0 -24 -31 -35 -75 -4 -15 -2 -25 5 -25 6 0 11 7
11 15 0 20 32 85 42 85 4 0 8 -22 8 -50 0 -28 5 -50 10 -50 7 0 10 26 8 68
l-2 68 70 90 c98 127 196 248 204 254 11 8 60 96 60 108 0 24 -15 11 -34 -28z"></path>
<path d="M4972 2430 c-28 -27 -76 -61 -105 -77 l-52 -28 -7 -85 c-5 -77 -4
-87 14 -107 22 -23 18 -53 -5 -53 -8 0 -32 -13 -54 -29 -23 -16 -44 -27 -47
-24 -20 20 8 154 50 237 l25 51 -25 -30 c-42 -50 -66 -127 -70 -226 l-3 -90
31 29 c17 16 53 43 80 61 41 27 55 31 84 26 44 -8 40 15 -4 27 -55 14 -64 34
-56 123 l7 79 50 29 c52 30 120 89 136 120 14 24 10 22 -49 -33z"></path>
<path d="M2754 2414 c-4 -10 -13 -34 -20 -53 -16 -39 -18 -54 -5 -46 13 7 45
105 37 112 -3 3 -9 -3 -12 -13z"></path>
<path d="M3247 2414 c-4 -4 -7 -14 -7 -23 0 -11 3 -12 11 -4 6 6 10 16 7 23
-2 6 -7 8 -11 4z"></path>
<path d="M5636 2392 c-17 -33 -46 -178 -46 -232 0 -40 -12 -56 -45 -61 -46 -8
-58 36 -30 105 20 47 4 46 -27 -2 -23 -33 -24 -40 -12 -57 8 -10 14 -26 14
-36 0 -30 22 -38 71 -23 l46 14 6 92 c4 51 15 123 26 161 21 72 20 84 -3 39z"></path>
<path d="M2797 2404 c-4 -4 -7 -14 -7 -23 0 -11 3 -12 11 -4 6 6 10 16 7 23
-2 6 -7 8 -11 4z"></path>
<path d="M3550 2376 c-61 -22 -147 -64 -215 -105 -29 -17 -47 -61 -26 -61 6 0
11 6 11 13 0 21 32 45 108 82 93 45 172 75 200 75 12 0 22 5 22 10 0 16 -29
11 -100 -14z"></path>
<path d="M4766 2328 c-78 -78 -120 -160 -121 -234 0 -29 5 -58 10 -63 7 -7 10
10 10 52 0 82 38 161 120 245 33 34 57 62 52 62 -5 0 -37 -28 -71 -62z"></path>
<path d="M5340 2379 c0 -9 16 -56 35 -105 19 -49 35 -95 35 -103 0 -8 -10 -25
-22 -38 -12 -13 -18 -26 -14 -30 10 -10 55 48 56 71 0 20 -67 195 -81 211 -6
5 -9 3 -9 -6z"></path>
<path d="M4570 2370 c-9 -6 -10 -10 -3 -10 6 0 15 5 18 10 8 12 4 12 -15 0z"></path>
<path d="M1830 2332 l0 -37 15 29 c18 35 18 33 0 40 -12 4 -15 -3 -15 -32z"></path>
<path d="M3209 2324 c-78 -182 -180 -564 -150 -564 6 0 11 12 11 28 0 45 67
285 121 434 28 77 48 142 45 145 -3 3 -15 -16 -27 -43z"></path>
<path d="M2777 2354 c-4 -4 -7 -14 -7 -23 0 -11 3 -12 11 -4 6 6 10 16 7 23
-2 6 -7 8 -11 4z"></path>
<path d="M2460 2329 c-47 -10 -97 -18 -112 -19 -16 0 -28 -4 -28 -10 0 -14 5
-13 146 12 68 12 124 25 124 30 0 11 -32 8 -130 -13z"></path>
<path d="M3077 2324 c-4 -4 -7 -14 -7 -23 0 -11 3 -12 11 -4 6 6 10 16 7 23
-2 6 -7 8 -11 4z"></path>
<path d="M5240 2311 c0 -12 5 -21 10 -21 6 0 10 6 10 14 0 8 -4 18 -10 21 -5
3 -10 -3 -10 -14z"></path>
<path d="M2754 2294 c-4 -10 -25 -57 -46 -103 -21 -47 -37 -90 -35 -95 4 -10
29 39 62 119 7 17 19 42 26 57 7 16 9 31 6 34 -4 4 -10 -2 -13 -12z"></path>
<path d="M5110 2278 c-20 -32 -29 -82 -12 -62 12 12 43 94 37 94 -3 0 -14 -15
-25 -32z"></path>
<path d="M2701 2279 c-5 -13 -17 -43 -26 -66 -9 -23 -15 -48 -12 -55 3 -9 7
-6 12 7 4 11 16 44 27 73 11 29 18 55 15 59 -4 3 -11 -5 -16 -18z"></path>
<path d="M6590 2280 c0 -5 7 -10 15 -10 8 0 15 5 15 10 0 6 -7 10 -15 10 -8 0
-15 -4 -15 -10z"></path>
<path d="M2105 2267 c-5 -8 -46 -28 -90 -46 -73 -28 -81 -35 -91 -66 -13 -42
-5 -45 17 -7 11 19 37 35 90 56 41 16 79 35 86 43 17 22 68 13 68 -12 0 -13
-8 -21 -22 -23 -22 -3 -166 -142 -157 -151 2 -3 33 23 67 57 65 64 81 71 112
48 17 -13 16 -16 -28 -73 -59 -74 -61 -95 -3 -29 l43 49 26 -18 c29 -18 35
-40 15 -48 -7 -3 6 -6 30 -6 23 -1 42 -6 42 -12 0 -6 -7 -9 -15 -5 -8 3 -25 1
-37 -4 -22 -8 -22 -9 5 -9 33 -1 35 -14 5 -35 -35 -25 -48 -20 -48 19 0 34 -7
40 -38 36 -10 -2 -12 4 -6 21 6 20 5 21 -8 10 -9 -7 -19 -33 -23 -58 -5 -34
-10 -44 -21 -40 -18 7 -18 -19 0 -72 15 -40 14 -41 -31 -122 -60 -105 -85
-124 -164 -118 -48 3 -65 10 -89 33 -17 16 -30 39 -30 52 0 47 -17 21 -29 -44
-18 -94 -21 -103 -34 -103 -28 0 -107 -148 -107 -201 0 -25 4 -28 45 -35 82
-12 159 12 260 81 41 27 105 111 105 136 0 9 9 38 21 63 11 26 18 54 15 63 -4
9 10 44 30 80 31 56 35 69 29 106 l-7 42 21 -19 c19 -17 21 -26 15 -81 -6 -56
-4 -64 19 -89 23 -25 26 -36 32 -161 10 -176 3 -384 -13 -394 -18 -11 -112
-441 -112 -512 0 -40 18 -8 24 43 4 29 21 124 38 211 28 142 33 157 49 152 14
-5 19 -1 19 14 0 12 -4 21 -10 21 -11 0 -13 30 -4 54 3 9 12 16 19 16 9 0 12
21 11 77 -1 65 1 77 16 81 22 5 23 11 3 26 -12 9 -17 44 -22 164 -6 147 -5
152 14 152 10 0 28 7 39 16 18 15 18 15 -8 10 -21 -5 -34 0 -59 25 -27 26 -29
32 -16 42 20 15 34 67 18 67 -6 0 -14 -14 -19 -32 -10 -41 -36 -52 -27 -11 20
90 41 126 102 180 45 40 68 53 80 49 15 -6 6 -18 -47 -66 -36 -32 -63 -60 -59
-64 3 -3 34 21 70 53 35 32 78 61 95 65 28 6 33 4 52 -29 12 -19 19 -42 17
-50 -16 -51 -14 -50 -43 -22 -16 15 -32 27 -37 27 -8 0 -137 -119 -143 -132
-2 -5 7 -8 20 -8 14 0 44 -17 69 -37 96 -81 248 -211 320 -275 l77 -68 -3 -51
c-1 -28 4 -83 12 -121 l14 -69 -38 -52 c-55 -76 -106 -137 -115 -137 -4 0 -8
68 -8 151 0 151 -6 179 -39 179 -14 0 -15 -37 -2 -42 6 -1 13 -73 17 -159 6
-138 4 -157 -11 -172 -16 -16 -15 -17 2 -14 21 3 96 82 156 165 21 28 43 49
49 46 5 -3 8 -28 7 -55 -2 -27 0 -52 4 -55 4 -4 7 -27 7 -51 0 -24 5 -43 11
-43 7 0 8 25 4 78 -4 42 -8 91 -9 107 -1 17 -5 36 -9 42 -4 7 -3 22 4 34 7 13
7 24 2 28 -26 17 -47 161 -24 161 5 0 216 -177 468 -392 960 -821 887 -762
950 -771 59 -9 83 -5 83 14 0 8 -14 9 -43 5 -33 -5 -52 -2 -87 16 -25 13 -187
144 -360 292 -755 646 -1407 1203 -1448 1238 -18 15 -32 31 -32 36 0 10 43 52
54 52 4 0 75 -59 157 -131 83 -72 152 -129 154 -127 3 3 -40 44 -96 93 -55 48
-123 109 -150 135 -46 44 -48 48 -27 53 24 7 19 10 354 -283 315 -276 387
-339 449 -395 33 -29 76 -66 95 -81 19 -16 76 -64 125 -107 176 -155 201 -177
315 -275 63 -54 131 -112 150 -130 19 -17 89 -78 155 -135 66 -57 129 -114
139 -126 11 -11 24 -21 30 -21 16 0 -57 71 -204 200 -100 87 -151 140 -195
203 -33 47 -62 84 -64 82 -2 -3 8 -20 23 -39 26 -34 33 -56 19 -56 -5 0 -44
34 -88 75 l-80 75 27 24 c15 13 32 26 38 28 7 2 6 27 -5 82 -8 46 -11 84 -6
90 8 10 -3 56 -13 56 -7 0 0 -162 8 -191 7 -23 2 -31 -28 -54 l-36 -27 -171
148 c-95 81 -174 156 -177 166 -2 10 -12 18 -21 18 -9 0 -40 22 -68 48 l-53
47 -20 140 c-29 201 -42 265 -53 265 -5 0 -7 -14 -3 -32 15 -69 55 -342 51
-346 -2 -3 -78 60 -168 139 -90 79 -223 195 -296 258 -124 107 -131 115 -131
150 0 21 2 40 5 43 3 3 41 -5 83 -18 85 -26 92 -28 92 -16 0 4 -39 19 -87 32
-81 23 -88 27 -112 67 -26 42 -27 42 -81 43 -31 0 -61 -5 -68 -12 -15 -15
-122 75 -122 102 0 10 -10 26 -22 34 -21 15 -21 16 -4 35 10 11 16 30 14 43
-3 20 -9 23 -48 26 -30 2 -48 -2 -55 -11z m75 -272 c0 -8 -4 -15 -10 -15 -5 0
-10 7 -10 15 0 8 5 15 10 15 6 0 10 -7 10 -15z m30 5 c0 -5 -4 -10 -10 -10 -5
0 -10 5 -10 10 0 6 5 10 10 10 6 0 10 -4 10 -10z m0 -69 c0 -6 -4 -13 -10 -16
-5 -3 -10 1 -10 9 0 9 5 16 10 16 6 0 10 -4 10 -9z m-362 -268 c41 -31 116
-42 162 -23 39 16 46 9 29 -32 -7 -18 -14 -40 -14 -48 0 -20 -34 -24 -87 -10
-30 8 -56 26 -86 58 -23 25 -40 37 -36 26 18 -51 91 -104 144 -104 38 0 38
-11 -1 -45 -73 -60 -190 -104 -237 -87 -27 9 -29 8 -24 -10 4 -16 1 -19 -14
-16 -11 2 -20 13 -22 25 -4 27 52 144 80 170 20 18 20 18 15 -22 -3 -22 -8
-51 -12 -65 -4 -16 0 -32 9 -45 14 -19 15 -18 9 16 -3 22 -1 39 6 43 6 4 11
27 11 51 0 45 20 145 28 145 3 0 21 -12 40 -27z"></path>
<path d="M3057 2273 c-27 -47 -137 -439 -137 -487 0 -36 17 -2 29 59 7 33 37
143 67 244 30 101 53 186 50 188 -2 2 -6 1 -9 -4z"></path>
<path d="M5250 2270 c0 -7 10 -45 21 -84 12 -39 23 -76 25 -82 1 -7 14 -9 28
-7 32 6 45 23 18 23 -27 0 -37 15 -58 85 -18 60 -34 91 -34 65z"></path>
<path d="M6500 2270 c0 -5 7 -10 15 -10 8 0 15 5 15 10 0 6 -7 10 -15 10 -8 0
-15 -4 -15 -10z"></path>
<path d="M5545 2260 c-3 -5 -2 -10 4 -10 5 0 13 5 16 10 3 6 2 10 -4 10 -5 0
-13 -4 -16 -10z"></path>
<path d="M6370 2250 c0 -5 5 -10 10 -10 6 0 10 5 10 10 0 6 -4 10 -10 10 -5 0
-10 -4 -10 -10z"></path>
<path d="M6985 2250 c-3 -5 -1 -10 4 -10 6 0 11 5 11 10 0 6 -2 10 -4 10 -3 0
-8 -4 -11 -10z"></path>
<path d="M6310 2240 c0 -5 7 -10 15 -10 8 0 15 5 15 10 0 6 -7 10 -15 10 -8 0
-15 -4 -15 -10z"></path>
<path d="M6270 2230 c0 -5 5 -10 10 -10 6 0 10 5 10 10 0 6 -4 10 -10 10 -5 0
-10 -4 -10 -10z"></path>
<path d="M6944 2224 c-18 -14 -18 -15 4 -4 12 6 22 13 22 15 0 8 -5 6 -26 -11z"></path>
<path d="M3360 2205 c0 -8 5 -15 10 -15 6 0 10 7 10 15 0 8 -4 15 -10 15 -5 0
-10 -7 -10 -15z"></path>
<path d="M6190 2210 c0 -5 5 -10 10 -10 6 0 10 5 10 10 0 6 -4 10 -10 10 -5 0
-10 -4 -10 -10z"></path>
<path d="M6894 2200 c-12 -5 -25 -13 -28 -18 -9 -15 31 -2 45 14 13 16 12 16
-17 4z"></path>
<path d="M1696 2134 c-32 -36 -56 -67 -54 -70 7 -6 118 112 118 125 0 17 -3
15 -64 -55z"></path>
<path d="M3296 2192 c-3 -5 -10 -67 -16 -138 -10 -129 -5 -290 11 -300 5 -3 6
37 3 88 -3 51 -1 151 5 223 10 125 9 147 -3 127z"></path>
<path d="M4116 2173 c8 -32 12 -39 19 -31 9 8 -6 58 -16 58 -5 0 -6 -12 -3
-27z"></path>
<path d="M4210 2190 c0 -5 5 -10 10 -10 6 0 10 5 10 10 0 6 -4 10 -10 10 -5 0
-10 -4 -10 -10z"></path>
<path d="M5100 2191 c0 -5 7 -14 15 -21 9 -8 13 -21 10 -34 -5 -16 -4 -18 4
-6 5 8 12 12 16 9 3 -3 -3 -13 -13 -23 -18 -15 -21 -15 -46 5 -26 20 -26 22
-10 40 21 23 20 23 -39 3 -51 -17 -65 -40 -19 -31 39 8 82 -31 82 -76 0 -32
-14 -57 -33 -57 -5 0 -6 7 -3 16 3 9 -11 2 -31 -17 -21 -18 -71 -48 -113 -67
-100 -47 -75 -53 29 -7 74 33 110 38 96 14 -11 -17 8 -9 42 17 39 29 48 27 39
-11 -11 -43 -61 -81 -231 -172 -174 -95 -307 -156 -485 -223 -127 -48 -126
-48 -117 -56 3 -3 20 1 39 9 18 8 76 29 128 47 106 36 446 200 528 254 30 20
56 36 58 36 2 0 4 -11 4 -24 0 -32 -51 -76 -136 -116 -81 -38 -444 -185 -559
-225 -88 -31 -91 -33 -83 -40 12 -12 501 177 656 253 82 41 142 102 142 145 0
18 9 31 33 45 36 21 47 52 47 135 0 42 17 55 49 38 22 -12 101 -4 101 10 0 11
-130 9 -152 -3 -10 -5 -18 -20 -18 -33 0 -14 -4 -25 -10 -25 -23 0 5 74 39
104 29 26 27 36 -13 69 -37 29 -46 32 -46 18z"></path>
<path d="M6119 2173 c-13 -16 -12 -17 4 -4 16 13 21 21 13 21 -2 0 -10 -8 -17
-17z"></path>
<path d="M3960 2170 c0 -5 5 -10 10 -10 6 0 10 5 10 10 0 6 -4 10 -10 10 -5 0
-10 -4 -10 -10z"></path>
<path d="M6824 2154 c-18 -14 -18 -15 4 -4 12 6 22 13 22 15 0 8 -5 6 -26 -11z"></path>
<path d="M3341 2027 c-14 -147 -15 -297 0 -297 6 0 9 7 6 15 -6 14 8 274 18
353 4 23 2 42 -3 42 -5 0 -14 -51 -21 -113z"></path>
<path d="M6774 2124 c-18 -14 -18 -15 4 -4 12 6 22 13 22 15 0 8 -5 6 -26 -11z"></path>
<path d="M3977 2108 c-15 -39 -16 -48 -6 -48 13 0 22 24 16 47 -4 17 -4 17
-10 1z"></path>
<path d="M4130 2105 c0 -8 5 -15 10 -15 6 0 10 7 10 15 0 8 -4 15 -10 15 -5 0
-10 -7 -10 -15z"></path>
<path d="M1880 2081 c-11 -16 -16 -32 -12 -35 8 -4 17 9 40 57 8 18 -9 4 -28
-22z"></path>
<path d="M6540 2100 c0 -5 5 -10 10 -10 6 0 10 5 10 10 0 6 -4 10 -10 10 -5 0
-10 -4 -10 -10z"></path>
<path d="M1784 2073 c2 -10 7 -33 11 -50 4 -18 11 -33 17 -33 6 0 7 13 3 33
-11 54 -16 67 -26 67 -6 0 -8 -8 -5 -17z"></path>
<path d="M5022 2051 c-21 -29 -188 -121 -218 -121 -8 0 -14 -5 -14 -11 0 -14
29 -5 120 37 73 34 122 71 141 107 16 28 -5 19 -29 -12z"></path>
<path d="M4140 2035 c0 -14 5 -25 10 -25 6 0 10 11 10 25 0 14 -4 25 -10 25
-5 0 -10 -11 -10 -25z"></path>
<path d="M1630 2030 c0 -5 5 -10 10 -10 6 0 10 5 10 10 0 6 -4 10 -10 10 -5 0
-10 -4 -10 -10z"></path>
<path d="M3600 2025 c0 -8 5 -15 10 -15 6 0 10 7 10 15 0 8 -4 15 -10 15 -5 0
-10 -7 -10 -15z"></path>
<path d="M3581 2025 c-1 -6 -15 -19 -32 -29 -17 -10 -28 -20 -25 -23 3 -3 12
-1 19 5 8 7 16 10 19 7 9 -9 30 24 25 37 -3 7 -6 8 -6 3z"></path>
<path d="M1415 2010 c-3 -5 1 -10 9 -10 9 0 16 5 16 10 0 6 -4 10 -9 10 -6 0
-13 -4 -16 -10z"></path>
<path d="M1970 1990 c0 -16 5 -30 10 -30 6 0 10 14 10 30 0 17 -4 30 -10 30
-5 0 -10 -13 -10 -30z"></path>
<path d="M3994 2004 c3 -8 6 -20 6 -25 0 -6 5 -7 10 -4 15 10 12 32 -6 39 -12
5 -15 2 -10 -10z"></path>
<path d="M3870 2005 c0 -6 12 -45 27 -87 14 -43 24 -81 21 -84 -4 -3 -19 1
-35 9 -41 21 -73 30 -73 19 0 -5 18 -14 41 -21 24 -7 59 -31 85 -56 46 -46 55
-45 29 5 -8 16 -29 69 -46 117 -30 82 -49 120 -49 98z"></path>
<path d="M6601 1996 c-10 -12 -8 -13 8 -9 12 3 21 9 21 14 0 14 -16 11 -29 -5z"></path>
<path d="M6650 1990 c0 -5 7 -10 15 -10 8 0 15 5 15 10 0 6 -7 10 -15 10 -8 0
-15 -4 -15 -10z"></path>
<path d="M1646 1860 l5 -132 -31 -34 c-16 -19 -30 -43 -30 -54 0 -32 23 -110
33 -110 5 0 6 10 3 23 -22 71 -14 137 15 137 11 0 124 84 134 100 14 22 -18 8
-54 -25 -21 -19 -41 -35 -45 -35 -18 0 -1 29 41 72 26 26 43 48 37 48 -6 0
-23 -13 -39 -30 -16 -16 -32 -30 -35 -30 -4 0 -10 42 -14 93 -11 141 -24 125
-20 -23z"></path>
<path d="M6700 1980 c0 -5 7 -10 15 -10 8 0 15 5 15 10 0 6 -7 10 -15 10 -8 0
-15 -4 -15 -10z"></path>
<path d="M1890 1970 c0 -5 5 -10 10 -10 6 0 10 5 10 10 0 6 -4 10 -10 10 -5 0
-10 -4 -10 -10z"></path>
<path d="M3471 1962 c-30 -55 -80 -244 -81 -299 0 -46 17 -21 23 31 6 62 53
221 73 251 8 11 14 23 14 27 0 15 -19 8 -29 -10z"></path>
<path d="M3950 1965 c-7 -9 -8 -15 -2 -15 5 0 12 7 16 15 3 8 4 15 2 15 -2 0
-9 -7 -16 -15z"></path>
<path d="M6750 1970 c0 -5 5 -10 10 -10 6 0 10 5 10 10 0 6 -4 10 -10 10 -5 0
-10 -4 -10 -10z"></path>
<path d="M1280 1960 c0 -5 4 -10 9 -10 6 0 13 5 16 10 3 6 -1 10 -9 10 -9 0
-16 -4 -16 -10z"></path>
<path d="M4150 1891 c0 -44 -4 -83 -10 -86 -15 -9 -13 -88 3 -83 17 6 24 49
26 156 1 55 -3 92 -9 92 -6 0 -10 -33 -10 -79z"></path>
<path d="M6002 1958 c-7 -7 -11 -28 -11 -47 1 -20 3 -27 6 -16 2 11 9 30 15
42 13 26 7 38 -10 21z"></path>
<path d="M6520 1950 c0 -13 20 -13 40 0 12 8 9 10 -12 10 -16 0 -28 -4 -28
-10z"></path>
<path d="M6820 1952 c0 -10 51 -24 59 -16 7 6 -2 12 -32 19 -16 4 -27 3 -27
-3z"></path>
<path d="M1790 1891 c0 -33 5 -63 11 -66 15 -10 15 -7 11 63 -5 79 -22 81 -22
3z"></path>
<path d="M3581 1934 c0 -11 3 -14 6 -6 3 7 2 16 -1 19 -3 4 -6 -2 -5 -13z"></path>
<path d="M6610 1940 c0 -5 5 -10 10 -10 6 0 10 5 10 10 0 6 -4 10 -10 10 -5 0
-10 -4 -10 -10z"></path>
<path d="M1900 1925 c0 -8 5 -15 10 -15 6 0 10 7 10 15 0 8 -4 15 -10 15 -5 0
-10 -7 -10 -15z"></path>
<path d="M612 1918 c-8 -10 -1 -13 31 -13 23 0 61 -4 85 -9 25 -4 42 -4 42 1
0 5 -29 15 -64 21 -79 15 -81 15 -94 0z"></path>
<path d="M1160 1920 c0 -5 4 -10 9 -10 6 0 13 5 16 10 3 6 -1 10 -9 10 -9 0
-16 -4 -16 -10z"></path>
<path d="M3150 1905 c0 -14 5 -25 10 -25 6 0 10 11 10 25 0 14 -4 25 -10 25
-5 0 -10 -11 -10 -25z"></path>
<path d="M6940 1920 c0 -5 5 -10 10 -10 6 0 10 5 10 10 0 6 -4 10 -10 10 -5 0
-10 -4 -10 -10z"></path>
<path d="M3523 1907 c-23 -10 -39 -37 -23 -37 6 0 10 5 10 10 0 6 6 10 14 10
14 0 32 18 25 24 -2 2 -14 -1 -26 -7z"></path>
<path d="M3610 1910 c0 -5 5 -10 10 -10 6 0 10 5 10 10 0 6 -4 10 -10 10 -5 0
-10 -4 -10 -10z"></path>
<path d="M3965 1909 c-4 -6 -5 -12 -2 -15 2 -3 7 2 10 11 7 17 1 20 -8 4z"></path>
<path d="M1100 1900 c0 -5 4 -10 9 -10 6 0 13 5 16 10 3 6 -1 10 -9 10 -9 0
-16 -4 -16 -10z"></path>
<path d="M3576 1901 c-4 -7 -5 -15 -2 -18 9 -9 19 4 14 18 -4 11 -6 11 -12 0z"></path>
<path d="M790 1890 c0 -5 7 -10 16 -10 8 0 12 5 9 10 -3 6 -10 10 -16 10 -5 0
-9 -4 -9 -10z"></path>
<path d="M1018 1882 c-27 -8 -48 -20 -48 -25 0 -5 6 -7 14 -4 8 3 32 11 55 18
23 7 41 16 41 21 0 10 -5 10 -62 -10z"></path>
<path d="M1570 1880 c0 -5 5 -10 10 -10 6 0 10 5 10 10 0 6 -4 10 -10 10 -5 0
-10 -4 -10 -10z"></path>
<path d="M2235 1880 c-3 -5 -1 -10 4 -10 6 0 11 5 11 10 0 6 -2 10 -4 10 -3 0
-8 -4 -11 -10z"></path>
<path d="M3730 1874 c0 -8 11 -14 25 -14 14 0 25 4 25 9 0 5 -11 11 -25 13
-17 4 -25 1 -25 -8z"></path>
<path d="M1510 1870 c0 -5 5 -10 10 -10 6 0 10 5 10 10 0 6 -4 10 -10 10 -5 0
-10 -4 -10 -10z"></path>
<path d="M3540 1870 c0 -5 5 -10 10 -10 6 0 10 5 10 10 0 6 -4 10 -10 10 -5 0
-10 -4 -10 -10z"></path>
<path d="M866 1845 c12 -19 22 -24 38 -19 33 10 46 28 15 20 -18 -4 -31 -1
-39 9 -21 25 -32 17 -14 -10z"></path>
<path d="M1460 1860 c0 -5 5 -10 10 -10 6 0 10 5 10 10 0 6 -4 10 -10 10 -5 0
-10 -4 -10 -10z"></path>
<path d="M1410 1850 c0 -5 5 -10 10 -10 6 0 10 5 10 10 0 6 -4 10 -10 10 -5 0
-10 -4 -10 -10z"></path>
<path d="M1360 1840 c0 -5 5 -10 10 -10 6 0 10 5 10 10 0 6 -4 10 -10 10 -5 0
-10 -4 -10 -10z"></path>
<path d="M3160 1847 c0 -2 13 -102 29 -223 16 -120 32 -247 36 -281 4 -35 11
-63 16 -63 11 0 11 3 -1 92 -5 40 -22 164 -36 276 -15 111 -31 202 -36 202 -4
0 -8 -1 -8 -3z"></path>
<path d="M3501 1834 c0 -11 3 -14 6 -6 3 7 2 16 -1 19 -3 4 -6 -2 -5 -13z"></path>
<path d="M5970 1835 c0 -8 5 -15 10 -15 6 0 10 7 10 15 0 8 -4 15 -10 15 -5 0
-10 -7 -10 -15z"></path>
<path d="M6860 1836 c0 -8 5 -18 10 -21 6 -3 10 1 10 9 0 8 -4 18 -10 21 -5 3
-10 -1 -10 -9z"></path>
<path d="M414 1825 c-15 -11 -16 -14 -3 -15 8 0 24 7 35 15 15 11 16 14 3 15
-8 0 -24 -7 -35 -15z"></path>
<path d="M3540 1820 c0 -11 5 -20 10 -20 6 0 10 9 10 20 0 11 -4 20 -10 20 -5
0 -10 -9 -10 -20z"></path>
<path d="M3680 1830 c0 -5 5 -10 10 -10 6 0 10 5 10 10 0 6 -4 10 -10 10 -5 0
-10 -4 -10 -10z"></path>
<path d="M1260 1820 c0 -5 5 -10 10 -10 6 0 10 5 10 10 0 6 -4 10 -10 10 -5 0
-10 -4 -10 -10z"></path>
<path d="M2707 1803 c-5 -27 -2 -41 7 -32 11 10 17 59 8 59 -5 0 -12 -12 -15
-27z"></path>
<path d="M2790 1760 c0 -40 4 -70 10 -70 6 0 10 30 10 70 0 40 -4 70 -10 70
-6 0 -10 -30 -10 -70z"></path>
<path d="M3715 1798 c-43 -33 -76 -69 -73 -77 2 -4 28 16 58 46 57 54 64 70
15 31z"></path>
<path d="M330 1793 c-19 -8 -30 -17 -24 -19 11 -5 84 23 84 31 0 9 -25 4 -60
-12z"></path>
<path d="M3617 1803 c-12 -12 -7 -33 8 -33 17 0 19 9 7 28 -5 7 -11 9 -15 5z"></path>
<path d="M5970 1795 c0 -8 5 -15 10 -15 6 0 10 7 10 15 0 8 -4 15 -10 15 -5 0
-10 -7 -10 -15z"></path>
<path d="M3820 1790 c0 -5 7 -10 16 -10 8 0 12 5 9 10 -3 6 -10 10 -16 10 -5
0 -9 -4 -9 -10z"></path>
<path d="M5087 1793 c-11 -10 -8 -83 3 -83 6 0 10 20 10 45 0 46 -2 50 -13 38z"></path>
<path d="M3586 1763 c-4 -17 -13 -34 -21 -36 -7 -3 -16 -19 -20 -36 -4 -17
-11 -33 -16 -36 -5 -4 -9 -22 -9 -41 0 -19 -4 -34 -8 -34 -5 0 -7 -13 -4 -30
5 -37 22 -40 22 -3 0 37 40 164 57 185 8 9 13 27 11 40 -3 20 -5 20 -12 -9z"></path>
<path d="M1160 1774 c0 -5 5 -15 12 -22 9 -9 3 -21 -27 -53 -22 -23 -31 -37
-20 -31 11 6 33 24 50 41 l29 31 -22 22 c-12 13 -22 18 -22 12z"></path>
<path d="M3860 1776 c0 -9 71 -48 77 -43 3 3 -10 15 -28 26 -33 20 -49 26 -49
17z"></path>
<path d="M6900 1774 c1 -12 39 -61 40 -51 0 5 -9 20 -20 34 -11 14 -20 22 -20
17z"></path>
<path d="M225 1750 c-3 -5 1 -10 9 -10 8 0 18 5 21 10 3 6 -1 10 -9 10 -8 0
-18 -4 -21 -10z"></path>
<path d="M3512 1740 c0 -14 2 -19 5 -12 2 6 2 18 0 25 -3 6 -5 1 -5 -13z"></path>
<path d="M5980 1750 c0 -5 5 -10 10 -10 6 0 10 5 10 10 0 6 -4 10 -10 10 -5 0
-10 -4 -10 -10z"></path>
<path d="M1910 1745 c0 -6 73 -55 82 -55 19 0 5 17 -32 38 -39 22 -50 26 -50
17z"></path>
<path d="M2910 1735 c0 -8 5 -15 10 -15 6 0 10 7 10 15 0 8 -4 15 -10 15 -5 0
-10 -7 -10 -15z"></path>
<path d="M822 1719 c2 -7 10 -15 17 -17 8 -3 12 1 9 9 -2 7 -10 15 -17 17 -8
3 -12 -1 -9 -9z"></path>
<path d="M3280 1726 c0 -4 44 -56 98 -115 76 -83 107 -127 142 -198 25 -51 48
-92 53 -92 13 -1 8 26 -8 39 -8 7 -15 21 -15 31 0 11 -4 19 -10 19 -5 0 -10 9
-10 20 0 21 -16 55 -37 78 -7 7 -13 16 -13 20 -1 15 -200 212 -200 198z"></path>
<path d="M3980 1701 c0 -32 86 -299 101 -316 6 -5 9 -3 10 8 1 9 2 23 3 30 1
6 -1 17 -6 23 -4 6 -17 35 -27 65 -35 101 -44 124 -52 141 -5 10 -9 29 -9 42
0 14 -4 28 -10 31 -6 4 -10 -6 -10 -24z"></path>
<path d="M3460 1700 c0 -10 -6 -20 -12 -23 -8 -2 -9 -8 -4 -13 5 -5 11 -4 13
4 3 6 11 12 18 12 7 0 16 -6 18 -12 3 -7 6 -1 6 13 1 19 -5 28 -19 32 -15 4
-20 0 -20 -13z"></path>
<path d="M6010 1710 c0 -5 10 -15 23 -21 22 -12 22 -12 3 10 -21 23 -26 26
-26 11z"></path>
<path d="M3220 1705 c1 -5 12 -23 25 -40 14 -16 25 -25 25 -20 -1 6 -12 24
-25 40 -14 17 -25 26 -25 20z"></path>
<path d="M6952 1698 c5 -15 28 -23 28 -10 0 5 -7 13 -16 16 -10 4 -14 1 -12
-6z"></path>
<path d="M3630 1674 c0 -8 5 -12 10 -9 6 3 10 10 10 16 0 5 -4 9 -10 9 -5 0
-10 -7 -10 -16z"></path>
<path d="M3716 1675 c-3 -8 -1 -15 3 -15 5 0 11 7 15 15 3 8 1 15 -3 15 -5 0
-11 -7 -15 -15z"></path>
<path d="M5035 1670 c-10 -16 -73 -54 -175 -105 -112 -57 -341 -132 -515 -170
-71 -16 -132 -30 -134 -32 -30 -23 180 17 351 68 152 44 346 127 418 179 17
12 33 20 36 18 8 -9 -116 -288 -156 -350 -22 -34 -40 -65 -40 -70 0 -18 21 -6
30 18 6 14 21 40 34 57 34 45 176 364 176 394 0 8 -20 2 -25 -7z"></path>
<path d="M3611 1627 c-29 -76 -52 -169 -49 -199 3 -29 5 -26 16 27 7 33 22 88
34 123 19 61 19 101 -1 49z"></path>
<path d="M2356 1624 c-8 -22 4 -244 14 -244 4 0 10 -27 14 -60 4 -33 11 -60
16 -60 6 0 10 -7 10 -15 0 -8 -7 -15 -15 -15 -22 0 -18 -18 5 -25 23 -7 27
-35 5 -35 -8 0 -15 -4 -15 -10 0 -5 8 -10 18 -10 13 0 22 -13 31 -50 7 -27 17
-50 23 -50 6 0 7 8 3 18 -12 31 -45 177 -45 200 0 12 -4 22 -8 22 -5 0 -7 14
-4 30 3 19 0 30 -8 30 -7 0 -10 12 -9 33 4 44 -12 229 -21 246 -5 10 -8 9 -14
-5z"></path>
<path d="M3450 1630 c0 -5 5 -10 10 -10 6 0 10 5 10 10 0 6 -4 10 -10 10 -5 0
-10 -4 -10 -10z"></path>
<path d="M5795 1623 c-48 -10 -253 -76 -278 -90 -58 -29 -16 -24 75 11 51 19
124 42 161 52 37 9 67 20 67 25 0 5 -1 8 -2 8 -2 -1 -12 -3 -23 -6z"></path>
<path d="M1004 1604 c-18 -14 -18 -15 4 -4 12 6 22 13 22 15 0 8 -5 6 -26 -11z"></path>
<path d="M3290 1616 c0 -4 19 -33 43 -64 47 -63 92 -129 120 -176 10 -17 25
-38 33 -46 48 -48 -37 89 -130 210 -62 81 -66 86 -66 76z"></path>
<path d="M5842 1580 c-35 -46 -44 -78 -29 -100 18 -30 26 -24 20 16 -4 26 -1
42 14 62 30 41 35 52 25 52 -4 0 -18 -13 -30 -30z"></path>
<path d="M2730 1575 c13 -14 28 -25 33 -25 6 0 0 11 -13 25 -13 14 -28 25 -33
25 -6 0 0 -11 13 -25z"></path>
<path d="M820 1560 c0 -5 5 -10 10 -10 6 0 10 5 10 10 0 6 -4 10 -10 10 -5 0
-10 -4 -10 -10z"></path>
<path d="M905 1550 c-16 -11 -25 -20 -20 -20 10 0 64 39 55 40 -3 0 -18 -9
-35 -20z"></path>
<path d="M2078 1538 c-2 -13 -8 -22 -14 -21 -6 1 -24 -12 -40 -29 -28 -30 -17
-30 19 0 15 14 17 13 17 -8 0 -33 -90 -118 -175 -165 -38 -22 -64 -40 -57 -43
13 -4 126 60 160 91 l23 21 -4 -76 c-3 -43 -2 -80 1 -83 10 -10 31 88 25 117
-3 18 2 40 15 62 19 32 52 126 52 148 0 18 -19 6 -22 -14z"></path>
<path d="M480 1540 c0 -5 5 -10 10 -10 6 0 10 5 10 10 0 6 -4 10 -10 10 -5 0
-10 -4 -10 -10z"></path>
<path d="M3718 1515 c-3 -14 -1 -28 3 -31 5 -3 9 9 9 25 0 38 -6 40 -12 6z"></path>
<path d="M832 1519 c2 -7 10 -15 17 -17 8 -3 12 1 9 9 -2 7 -10 15 -17 17 -8
3 -12 -1 -9 -9z"></path>
<path d="M2805 1510 c10 -11 23 -20 28 -20 6 0 2 9 -8 20 -10 11 -23 20 -28
20 -6 0 -2 -9 8 -20z"></path>
<path d="M490 1503 c0 -9 23 -13 80 -13 44 0 80 4 80 9 0 5 -36 11 -80 13 -59
2 -80 0 -80 -9z"></path>
<path d="M685 1500 c-3 -5 1 -10 9 -10 9 0 16 5 16 10 0 6 -4 10 -9 10 -6 0
-13 -4 -16 -10z"></path>
<path d="M3623 1452 c-12 -28 -27 -52 -32 -52 -6 0 -11 -9 -11 -20 0 -11 5
-20 11 -20 13 0 61 108 57 129 -2 9 -13 -8 -25 -37z"></path>
<path d="M4220 1480 c0 -5 5 -10 10 -10 6 0 10 5 10 10 0 6 -4 10 -10 10 -5 0
-10 -4 -10 -10z"></path>
<path d="M4838 1442 c-43 -57 -81 -129 -75 -145 2 -7 14 7 26 31 12 24 38 68
57 98 45 70 40 79 -8 16z"></path>
<path d="M3697 1474 c-4 -4 -7 -14 -7 -23 0 -11 3 -12 11 -4 6 6 10 16 7 23
-2 6 -7 8 -11 4z"></path>
<path d="M4728 1448 c-57 -61 -108 -196 -108 -286 0 -49 -10 -57 -48 -38 -16
8 -31 13 -34 11 -2 -3 -42 2 -89 10 -94 17 -159 19 -159 6 0 -4 35 -11 79 -14
86 -7 221 -34 235 -48 6 -5 21 -9 34 -9 13 0 32 -5 43 -11 11 -6 25 -8 32 -6
7 3 -11 15 -40 27 -46 20 -51 25 -44 44 5 11 14 55 21 96 15 83 35 131 87 203
40 54 35 62 -9 15z"></path>
<path d="M610 1420 c-58 -69 -46 -72 13 -4 27 30 44 54 39 54 -6 0 -29 -23
-52 -50z"></path>
<path d="M3740 1455 c0 -8 7 -15 15 -15 8 0 15 7 15 15 0 8 -7 15 -15 15 -8 0
-15 -7 -15 -15z"></path>
<path d="M180 1450 c0 -5 11 -10 25 -10 14 0 25 5 25 10 0 6 -11 10 -25 10
-14 0 -25 -4 -25 -10z"></path>
<path d="M2578 1453 c-29 -7 -23 -43 7 -43 20 0 25 5 25 25 0 25 -1 26 -32 18z"></path>
<path d="M2885 1440 c10 -11 23 -20 28 -20 6 0 2 9 -8 20 -10 11 -23 20 -28
20 -6 0 -2 -9 8 -20z"></path>
<path d="M5388 1383 c-61 -85 -121 -146 -183 -188 -39 -26 -41 -26 -210 -24
l-170 2 -7 -39 c-10 -56 -9 -74 2 -74 6 0 10 17 10 38 0 21 5 43 12 50 8 8 62
12 179 12 l167 0 61 46 c65 49 135 131 176 206 15 27 25 48 22 48 -2 0 -29
-35 -59 -77z"></path>
<path d="M4230 1430 c0 -5 4 -10 9 -10 6 0 13 5 16 10 3 6 -1 10 -9 10 -9 0
-16 -4 -16 -10z"></path>
<path d="M4640 1403 c-38 -49 -83 -157 -87 -208 l-3 -50 23 75 c12 41 40 105
61 143 40 70 42 85 6 40z"></path>
<path d="M5810 1338 c0 -50 2 -89 4 -87 10 11 16 179 7 179 -7 0 -11 -34 -11
-92z"></path>
<path d="M3650 1400 c-6 -11 -9 -26 -7 -33 3 -7 10 1 16 17 14 35 7 47 -9 16z"></path>
<path d="M100 1385 c-13 -14 -19 -25 -13 -25 5 0 20 11 33 25 13 14 19 25 13
25 -5 0 -20 -11 -33 -25z"></path>
<path d="M1030 1402 c0 -4 8 -12 18 -18 16 -11 86 -122 127 -203 16 -33 16
-34 -14 -83 -17 -27 -31 -55 -31 -61 1 -14 23 13 56 70 l25 42 -27 53 c-15 29
-42 77 -61 107 -19 29 -33 55 -31 56 2 2 36 -3 76 -12 68 -15 77 -21 144 -85
39 -37 73 -68 75 -68 15 0 -38 65 -70 86 -21 13 -42 35 -46 48 -8 19 -21 24
-92 35 -46 7 -96 19 -111 27 -31 16 -38 17 -38 6z"></path>
<path d="M4145 1401 c-3 -5 -1 -12 5 -16 5 -3 10 1 10 9 0 18 -6 21 -15 7z"></path>
<path d="M1560 1372 c0 -19 -11 -38 -31 -58 -17 -16 -50 -54 -72 -84 -41 -55
-42 -56 -45 -155 -4 -88 -1 -110 22 -176 14 -42 26 -96 26 -121 0 -28 6 -50
15 -58 8 -7 15 -21 15 -32 0 -32 28 -88 44 -88 9 0 16 -4 16 -10 0 -18 52 -85
65 -82 7 1 15 -7 18 -18 7 -28 37 -25 85 10 23 16 48 27 56 24 8 -3 21 -2 29
3 12 7 12 11 -3 26 -16 16 -19 15 -62 -23 -26 -22 -53 -40 -60 -40 -16 0 -42
26 -51 52 -4 10 -13 15 -24 12 -14 -4 -24 6 -41 40 -13 24 -28 46 -33 48 -21
7 -43 83 -43 151 0 37 -4 67 -9 67 -5 0 -6 14 -2 31 6 28 5 30 -13 25 -18 -6
-21 -1 -27 48 -4 31 -6 88 -4 129 4 68 7 76 51 137 26 36 55 74 63 85 l16 20
15 -20 c22 -30 28 -66 15 -86 -6 -10 -11 -26 -11 -34 0 -9 -16 -38 -35 -66
-19 -28 -32 -56 -28 -65 3 -8 -4 -26 -17 -39 -21 -22 -21 -25 -6 -47 11 -15
16 -45 16 -95 0 -80 29 -175 74 -243 24 -37 30 -40 72 -40 53 0 176 63 270
139 31 25 66 51 77 58 11 6 24 17 28 25 11 16 12 118 2 118 -5 -1 -28 -30 -53
-66 -43 -62 -86 -102 -97 -90 -3 3 17 36 45 73 27 37 61 91 75 118 24 46 25
57 20 133 -3 45 -9 82 -13 82 -16 0 -19 -32 -8 -86 9 -44 8 -64 -2 -93 -15
-43 -84 -150 -147 -227 -25 -30 -43 -58 -40 -61 7 -7 84 38 124 71 16 13 38
41 48 60 25 45 35 46 35 1 0 -28 -4 -35 -20 -35 -10 0 -24 -9 -30 -20 -14 -26
-119 -100 -205 -144 -48 -24 -83 -36 -112 -36 -42 0 -43 1 -72 58 -37 73 -54
133 -41 146 16 16 12 61 -10 117 -22 59 -18 72 33 127 17 17 26 32 20 32 -7 0
-15 -4 -18 -10 -8 -13 -25 -13 -25 0 0 14 55 70 69 70 15 0 14 17 -1 22 -9 3
-9 11 0 34 6 16 16 42 22 57 l10 28 28 -19 c34 -23 91 -46 160 -62 28 -6 52
-16 52 -20 0 -5 -30 -24 -67 -42 -69 -34 -140 -43 -190 -25 -14 5 -23 4 -23
-1 0 -5 9 -12 21 -15 12 -3 18 -10 15 -15 -16 -26 112 -30 176 -6 76 29 74 44
-1 18 -40 -14 -76 -23 -79 -20 -7 7 -11 4 70 43 80 39 164 97 179 125 8 16 1
13 -28 -11 -39 -31 -40 -31 -94 -20 -30 6 -58 15 -64 19 -5 4 -25 10 -44 14
-45 8 -101 43 -111 70 -8 19 -9 18 -15 -11 -4 -18 -11 -33 -15 -33 -11 0 -30
57 -30 86 0 13 -4 24 -10 24 -5 0 -10 -13 -10 -28z m-20 -517 c0 -8 -4 -15
-10 -15 -5 0 -10 7 -10 15 0 8 5 15 10 15 6 0 10 -7 10 -15z"></path>
<path d="M2965 1370 c10 -11 23 -20 28 -20 6 0 2 9 -8 20 -10 11 -23 20 -28
20 -6 0 -2 -9 8 -20z"></path>
<path d="M4010 1380 c0 -5 7 -10 15 -10 9 0 18 -7 21 -15 4 -8 12 -15 19 -15
8 0 33 -23 57 -51 23 -28 44 -46 46 -40 6 17 -66 92 -111 119 -44 25 -47 26
-47 12z"></path>
<path d="M3770 1365 c0 -8 2 -15 4 -15 2 0 6 7 10 15 3 8 1 15 -4 15 -6 0 -10
-7 -10 -15z"></path>
<path d="M3867 1345 c-20 -14 -50 -49 -67 -78 -29 -50 -30 -57 -29 -167 1 -86
3 -106 10 -80 4 19 8 67 7 107 -1 59 4 81 26 127 15 31 44 69 64 86 45 37 40
39 -11 5z"></path>
<path d="M4158 1364 c-4 -3 5 -22 18 -42 33 -48 38 -52 30 -22 -4 14 -8 30 -9
35 -7 28 -26 43 -39 29z"></path>
<path d="M706 1333 c9 -35 6 -33 31 -27 20 6 20 6 -4 30 -31 31 -35 30 -27 -3z"></path>
<path d="M3676 1328 c-9 -36 -7 -41 9 -24 16 16 20 46 6 46 -5 0 -11 -10 -15
-22z"></path>
<path d="M3040 1305 c13 -14 28 -25 33 -25 6 0 0 11 -13 25 -13 14 -28 25 -33
25 -6 0 0 -11 13 -25z"></path>
<path d="M3750 1314 c0 -8 5 -12 10 -9 6 3 10 10 10 16 0 5 -4 9 -10 9 -5 0
-10 -7 -10 -16z"></path>
<path d="M15 1310 c-3 -5 -2 -10 4 -10 5 0 13 5 16 10 3 6 2 10 -4 10 -5 0
-13 -4 -16 -10z"></path>
<path d="M2280 1300 c0 -20 32 -85 36 -74 3 6 -2 27 -11 47 -15 36 -25 47 -25
27z"></path>
<path d="M3510 1290 c6 -11 13 -20 16 -20 2 0 0 9 -6 20 -6 11 -13 20 -16 20
-2 0 0 -9 6 -20z"></path>
<path d="M3888 1271 c-26 -17 -54 -43 -62 -60 -18 -34 -21 -91 -6 -91 6 0 10
16 10 36 0 29 8 44 38 73 22 20 50 44 63 53 41 29 6 20 -43 -11z"></path>
<path d="M797 1266 c10 -13 19 -23 21 -21 5 5 -22 45 -31 45 -4 0 0 -11 10
-24z"></path>
<path d="M3720 1269 c0 -11 5 -17 10 -14 6 3 10 13 10 21 0 8 -4 14 -10 14 -5
0 -10 -9 -10 -21z"></path>
<path d="M693 1273 c-33 -6 -28 -23 7 -23 20 0 30 5 30 15 0 8 -3 14 -7 14 -5
-1 -18 -4 -30 -6z"></path>
<path d="M3635 1243 c3 -16 12 -34 20 -42 11 -11 11 -6 2 28 -12 45 -33 58
-22 14z"></path>
<path d="M600 1250 c0 -5 7 -10 15 -10 8 0 15 5 15 10 0 6 -7 10 -15 10 -8 0
-15 -4 -15 -10z"></path>
<path d="M3125 1230 c10 -11 23 -20 28 -20 6 0 2 9 -8 20 -10 11 -23 20 -28
20 -6 0 -2 -9 8 -20z"></path>
<path d="M5810 1210 c0 -11 5 -20 10 -20 6 0 10 9 10 20 0 11 -4 20 -10 20 -5
0 -10 -9 -10 -20z"></path>
<path d="M3550 1209 c0 -5 5 -7 10 -4 6 3 10 8 10 11 0 2 -4 4 -10 4 -5 0 -10
-5 -10 -11z"></path>
<path d="M1950 1195 c-8 -9 -8 -15 -2 -15 12 0 26 19 19 26 -2 2 -10 -2 -17
-11z"></path>
<path d="M2320 1197 c0 -21 91 -168 140 -226 42 -49 130 -121 149 -121 5 0 14
-7 21 -15 14 -17 30 -20 30 -6 0 5 -8 12 -17 15 -32 12 -69 35 -87 54 -15 17
-16 29 -7 98 6 44 13 94 17 112 4 19 2 32 -3 32 -11 0 -33 -118 -33 -176 l0
-38 -36 35 c-41 38 -103 129 -140 201 -25 49 -34 58 -34 35z"></path>
<path d="M4730 1195 c0 -8 5 -15 10 -15 6 0 10 7 10 15 0 8 -4 15 -10 15 -5 0
-10 -7 -10 -15z"></path>
<path d="M3195 1170 c10 -11 23 -20 28 -20 6 0 2 9 -8 20 -10 11 -23 20 -28
20 -6 0 -2 -9 8 -20z"></path>
<path d="M4130 1183 c0 -17 38 -45 72 -53 18 -4 41 -11 51 -15 11 -5 17 -3 17
6 0 12 -32 28 -127 66 -7 3 -13 1 -13 -4z"></path>
<path d="M450 1161 c0 -6 5 -13 10 -16 6 -3 10 1 10 9 0 9 -4 16 -10 16 -5 0
-10 -4 -10 -9z"></path>
<path d="M5820 1160 c0 -5 5 -10 10 -10 6 0 10 5 10 10 0 6 -4 10 -10 10 -5 0
-10 -4 -10 -10z"></path>
<path d="M1895 1150 c-3 -6 1 -7 9 -4 18 7 21 14 7 14 -6 0 -13 -4 -16 -10z"></path>
<path d="M2240 1150 c0 -5 5 -10 10 -10 6 0 10 5 10 10 0 6 -4 10 -10 10 -5 0
-10 -4 -10 -10z"></path>
<path d="M3586 1143 c-6 -14 -5 -15 5 -6 7 7 10 15 7 18 -3 3 -9 -2 -12 -12z"></path>
<path d="M3982 1093 c-35 -37 -79 -93 -99 -124 -19 -32 -41 -60 -48 -63 -18
-7 -4 -77 23 -111 12 -15 24 -42 28 -61 3 -19 11 -37 17 -41 16 -10 0 54 -30
115 l-27 55 34 65 c19 37 66 99 113 148 43 46 73 84 66 84 -8 0 -42 -30 -77
-67z"></path>
<path d="M585 1130 c-3 -5 1 -10 9 -10 8 0 18 5 21 10 3 6 -1 10 -9 10 -8 0
-18 -4 -21 -10z"></path>
<path d="M1880 1053 c-82 -73 -208 -164 -260 -186 l-25 -11 24 -4 c13 -2 61 8
106 22 69 22 94 35 140 77 31 29 61 61 67 73 6 11 -17 -5 -50 -37 -59 -55
-140 -103 -164 -95 -6 2 18 25 54 51 77 54 174 142 189 168 5 11 8 19 7 18 -2
0 -41 -34 -88 -76z"></path>
<path d="M4720 1120 c0 -5 5 -10 10 -10 6 0 10 5 10 10 0 6 -4 10 -10 10 -5 0
-10 -4 -10 -10z"></path>
<path d="M5806 1104 c-4 -14 -18 -43 -31 -65 -14 -21 -25 -41 -25 -45 0 -15
-140 -182 -274 -327 -80 -88 -146 -163 -146 -169 0 -9 85 78 236 242 71 77
174 204 174 214 0 4 11 22 24 39 21 29 66 117 66 131 0 18 -19 2 -24 -20z"></path>
<path d="M3280 1095 c7 -8 17 -15 22 -15 6 0 5 7 -2 15 -7 8 -17 15 -22 15 -6
0 -5 -7 2 -15z"></path>
<path d="M482 1091 c2 -7 7 -12 11 -12 12 1 9 15 -3 20 -7 2 -11 -2 -8 -8z"></path>
<path d="M2274 1058 c3 -17 13 -39 21 -48 8 -9 15 -23 15 -31 0 -8 9 -22 20
-32 12 -10 18 -23 14 -29 -4 -6 -3 -8 4 -4 6 4 34 -29 67 -78 53 -80 85 -118
85 -101 0 5 -17 31 -38 59 -89 120 -143 204 -167 259 -20 45 -30 48 -21 5z"></path>
<path d="M4270 996 c0 -53 -4 -98 -10 -101 -6 -3 -22 3 -36 14 -38 30 -86 26
-156 -11 -68 -36 -143 -120 -113 -126 9 -2 27 5 38 15 49 42 174 93 228 93 26
0 59 -29 101 -90 13 -19 17 -21 17 -8 1 9 -4 20 -10 23 -6 4 -8 13 -5 20 2 7
1 16 -4 21 -23 26 -42 119 -36 180 4 41 3 64 -4 64 -6 0 -10 -36 -10 -94z
m-70 -96 c0 -5 -10 -10 -22 -10 -26 0 -178 -70 -178 -82 0 -4 -7 -8 -16 -8
-22 0 50 64 101 90 42 21 115 27 115 10z"></path>
<path d="M3540 1060 c-6 -11 -8 -20 -6 -20 3 0 10 9 16 20 6 11 8 20 6 20 -3
0 -10 -9 -16 -20z"></path>
<path d="M4745 1048 c41 -27 81 -76 114 -142 22 -41 31 -70 25 -74 -18 -12
-26 -45 -30 -124 -3 -49 0 -78 6 -78 6 0 10 27 10 64 0 35 7 86 16 114 l16 50
-36 68 c-24 45 -33 71 -26 78 13 13 13 36 0 36 -5 0 -10 -7 -10 -15 0 -20 -9
-19 -28 5 -10 10 -30 22 -47 25 -27 5 -28 5 -10 -7z"></path>
<path d="M2220 1018 c1 -75 70 -312 121 -411 35 -69 36 -80 7 -101 -19 -14
-16 -13 11 1 34 18 169 150 185 181 5 9 -25 -16 -67 -57 -47 -46 -81 -72 -90
-68 -31 12 -145 353 -147 439 0 15 -4 30 -10 33 -6 3 -10 -4 -10 -17z"></path>
<path d="M3355 1030 c3 -5 11 -10 16 -10 6 0 7 5 4 10 -3 6 -11 10 -16 10 -6
0 -7 -4 -4 -10z"></path>
<path d="M1130 1000 c0 -5 5 -10 10 -10 6 0 10 5 10 10 0 6 -4 10 -10 10 -5 0
-10 -4 -10 -10z"></path>
<path d="M2742 961 c-12 -17 -22 -36 -22 -43 0 -7 -7 -22 -15 -32 -8 -10 -12
-23 -9 -27 3 -5 0 -9 -5 -9 -6 0 -11 -5 -11 -11 0 -17 -107 -168 -153 -216
-23 -24 -36 -43 -30 -43 6 0 33 26 60 58 85 98 96 116 180 270 37 69 41 101 5
53z"></path>
<path d="M3445 950 c10 -11 23 -20 28 -20 6 0 2 9 -8 20 -10 11 -23 20 -28 20
-6 0 -2 -9 8 -20z"></path>
<path d="M1115 924 c-6 -32 -1 -54 9 -43 9 11 16 79 8 79 -6 0 -13 -16 -17
-36z"></path>
<path d="M2975 930 c-38 -4 -56 -8 -40 -9 50 -5 218 1 260 9 50 10 -114 10
-220 0z"></path>
<path d="M3770 930 c0 -5 5 -10 10 -10 6 0 10 5 10 10 0 6 -4 10 -10 10 -5 0
-10 -4 -10 -10z"></path>
<path d="M3504 902 c11 -18 287 -254 292 -249 2 2 -59 60 -136 128 -129 114
-173 148 -156 121z"></path>
<path d="M4436 881 c-3 -4 34 -11 83 -14 48 -3 104 -12 123 -20 35 -15 141
-124 133 -137 -3 -4 2 -13 10 -20 8 -7 15 -21 15 -33 0 -17 -5 -19 -32 -14
-18 4 -69 13 -113 21 -92 17 -231 21 -240 6 -4 -6 24 -10 78 -10 80 0 248 -23
294 -41 20 -7 23 -16 23 -59 0 -29 -5 -50 -11 -50 -6 0 -9 -12 -7 -27 2 -19 8
-27 19 -25 11 1 19 -13 29 -50 7 -29 17 -60 22 -68 15 -27 78 -182 78 -192 0
-5 8 -22 19 -36 10 -15 22 -45 27 -66 9 -36 34 -63 34 -36 0 12 -85 219 -120
292 -10 21 -15 40 -10 43 4 3 41 12 81 20 110 22 233 56 244 66 13 13 3 12
-85 -11 -90 -23 -227 -50 -252 -50 -14 0 -18 8 -18 33 0 51 -11 77 -31 77 -16
0 -17 6 -12 53 3 28 10 58 16 65 6 8 5 17 -3 27 -10 12 -10 15 0 15 10 0 10 3
0 15 -7 9 -10 18 -7 21 10 10 -131 171 -161 183 -69 27 -214 42 -226 22z"></path>
<path d="M500 870 c0 -5 18 -10 40 -10 22 0 40 5 40 10 0 6 -18 10 -40 10 -22
0 -40 -4 -40 -10z"></path>
<path d="M2978 833 c0 -27 -1 -55 0 -63 1 -8 4 -69 7 -134 3 -66 7 -121 9
-123 7 -8 229 84 346 142 126 63 126 63 118 71 -3 3 -51 -17 -105 -45 -118
-59 -308 -141 -327 -141 -17 0 -26 81 -28 233 0 59 -5 107 -9 107 -5 0 -10
-21 -11 -47z"></path>
<path d="M430 860 c0 -5 7 -10 15 -10 8 0 15 5 15 10 0 6 -7 10 -15 10 -8 0
-15 -4 -15 -10z"></path>
<path d="M613 845 c0 -24 2 -25 36 -19 20 4 38 9 41 11 9 8 -25 22 -42 17 -10
-3 -18 -1 -18 5 0 6 -4 11 -9 11 -5 0 -8 -11 -8 -25z"></path>
<path d="M1100 840 c0 -11 5 -20 10 -20 6 0 10 9 10 20 0 11 -4 20 -10 20 -5
0 -10 -9 -10 -20z"></path>
<path d="M2370 841 c0 -6 4 -13 10 -16 6 -3 7 1 4 9 -7 18 -14 21 -14 7z"></path>
<path d="M2895 800 c-39 -77 -92 -146 -194 -252 l-88 -92 -184 2 -184 1 -42
46 -43 46 21 40 c11 22 18 46 16 52 -4 12 -57 -83 -57 -103 0 -5 6 -10 13 -10
8 0 22 -8 31 -19 16 -17 16 -24 -4 -112 -22 -103 -24 -129 -11 -129 5 0 12 25
16 55 5 40 12 58 26 66 16 8 18 13 8 25 -6 8 -10 17 -7 20 3 3 122 6 264 8
253 3 413 19 467 48 29 15 13 20 -29 9 -58 -16 -255 -43 -261 -37 -4 3 32 45
79 94 106 110 205 255 195 285 -2 7 -16 -13 -32 -43z"></path>
<path d="M315 830 c-3 -5 1 -10 9 -10 9 0 16 5 16 10 0 6 -4 10 -9 10 -6 0
-13 -4 -16 -10z"></path>
<path d="M720 833 c0 -5 24 -15 53 -22 28 -8 58 -18 65 -24 20 -16 14 8 -8 28
-21 19 -110 34 -110 18z"></path>
<path d="M4243 798 c-48 -52 -137 -211 -130 -231 2 -7 11 4 19 24 15 34 27 55
104 174 37 59 39 68 7 33z"></path>
<path d="M1090 770 c0 -11 5 -20 10 -20 6 0 10 9 10 20 0 11 -4 20 -10 20 -5
0 -10 -9 -10 -20z"></path>
<path d="M3365 759 c-9 -17 -14 -33 -11 -37 8 -8 46 28 46 44 0 27 -20 23 -35
-7z"></path>
<path d="M4268 773 c-43 -51 -136 -229 -125 -239 8 -9 4 -16 49 76 21 41 51
99 67 128 32 54 34 64 9 35z"></path>
<path d="M430 770 c-8 -5 -12 -12 -9 -15 4 -3 12 1 19 10 14 17 11 19 -10 5z"></path>
<path d="M2150 766 c0 -8 5 -18 10 -21 6 -3 10 3 10 14 0 12 -4 21 -10 21 -5
0 -10 -6 -10 -14z"></path>
<path d="M1600 756 c0 -15 40 -69 47 -63 4 5 -36 77 -43 77 -2 0 -4 -6 -4 -14z"></path>
<path d="M2930 743 c0 -6 -43 -56 -96 -112 -53 -56 -92 -101 -87 -101 12 0
128 120 167 173 16 21 26 40 22 44 -3 3 -6 2 -6 -4z"></path>
<path d="M2567 733 c-4 -3 -7 -11 -7 -17 0 -6 5 -5 12 2 6 6 9 14 7 17 -3 3
-9 2 -12 -2z"></path>
<path d="M1990 710 c0 -24 -89 -116 -128 -132 -26 -11 -26 -12 -4 -16 16 -2
37 10 75 43 28 26 57 57 64 69 15 26 17 56 3 56 -5 0 -10 -9 -10 -20z"></path>
<path d="M2170 719 c0 -9 7 -22 15 -29 19 -16 19 0 0 26 -12 16 -14 16 -15 3z"></path>
<path d="M4326 693 c4 -21 29 -105 55 -188 27 -82 49 -158 49 -167 0 -10 5
-18 10 -18 17 0 12 26 -34 166 -25 74 -50 159 -57 189 -14 61 -34 76 -23 18z"></path>
<path d="M1080 690 c0 -16 5 -30 10 -30 6 0 10 14 10 30 0 17 -4 30 -10 30 -5
0 -10 -13 -10 -30z"></path>
<path d="M2460 711 c0 -5 5 -13 10 -16 6 -3 10 -2 10 4 0 5 -4 13 -10 16 -5 3
-10 2 -10 -4z"></path>
<path d="M4585 709 c55 -4 117 -10 138 -13 20 -4 37 -2 37 3 0 12 -80 21 -184
20 l-91 -2 100 -8z"></path>
<path d="M367 693 c-4 -3 -7 -11 -7 -17 0 -6 5 -5 12 2 6 6 9 14 7 17 -3 3 -9
2 -12 -2z"></path>
<path d="M327 643 c-4 -3 -7 -11 -7 -17 0 -6 5 -5 12 2 6 6 9 14 7 17 -3 3 -9
2 -12 -2z"></path>
<path d="M2090 620 c0 -11 5 -20 10 -20 6 0 10 9 10 20 0 11 -4 20 -10 20 -5
0 -10 -9 -10 -20z"></path>
<path d="M3840 605 c13 -14 28 -25 33 -25 6 0 0 11 -13 25 -13 14 -28 25 -33
25 -6 0 0 -11 13 -25z"></path>
<path d="M1070 560 c0 -33 4 -60 10 -60 6 0 10 27 10 60 0 33 -4 60 -10 60 -6
0 -10 -27 -10 -60z"></path>
<path d="M3599 593 c-25 -29 -120 -86 -336 -199 -117 -61 -210 -114 -205 -119
4 -4 2 -5 -5 -1 -7 4 -26 0 -42 -9 -17 -8 -53 -15 -81 -15 -27 0 -50 -4 -50
-10 0 -16 50 -23 76 -11 55 25 59 19 72 -90 12 -99 24 -139 42 -139 13 0 13 4
-4 44 -18 42 -31 157 -22 191 5 20 11 25 26 20 11 -4 20 -2 20 3 0 6 -6 12
-12 14 -7 3 79 51 192 107 113 56 212 108 220 115 8 7 39 27 69 46 44 28 56
32 72 22 23 -15 29 -15 29 -2 0 6 -7 10 -15 10 -8 0 -15 6 -15 14 0 23 -16 27
-31 9z"></path>
<path d="M280 585 c-7 -9 -11 -18 -8 -20 3 -3 11 1 18 10 7 9 11 18 8 20 -3 3
-11 -1 -18 -10z"></path>
<path d="M1935 543 c4 -21 20 -106 37 -190 l30 -152 -25 -78 c-32 -99 -37
-123 -27 -123 8 0 27 55 45 133 4 15 11 27 16 27 15 0 11 38 -20 185 -16 77
-32 161 -35 188 -4 26 -12 47 -17 47 -6 0 -7 -15 -4 -37z"></path>
<path d="M2080 550 c0 -11 5 -20 10 -20 6 0 10 9 10 20 0 11 -4 20 -10 20 -5
0 -10 -9 -10 -20z"></path>
<path d="M3375 535 c-38 -19 -87 -42 -109 -50 -21 -9 -36 -19 -32 -22 3 -4 16
-2 29 4 12 6 59 25 104 43 45 17 90 38 100 45 36 28 -19 16 -92 -20z"></path>
<path d="M3936 522 c17 -15 84 -74 150 -131 158 -139 153 -135 159 -129 6 6
-319 288 -331 288 -5 -1 5 -13 22 -28z"></path>
<path d="M3595 514 c-44 -14 -84 -29 -88 -34 -11 -10 36 -2 95 17 26 8 52 11
58 8 12 -7 40 12 40 26 0 13 -17 10 -105 -17z"></path>
<path d="M3700 508 c0 -17 20 -58 30 -58 5 0 10 4 10 9 0 10 -39 59 -40 49z"></path>
<path d="M2070 490 c0 -5 5 -10 10 -10 6 0 10 5 10 10 0 6 -4 10 -10 10 -5 0
-10 -4 -10 -10z"></path>
<path d="M3150 490 c0 -5 5 -10 10 -10 6 0 10 5 10 10 0 6 -4 10 -10 10 -5 0
-10 -4 -10 -10z"></path>
<path d="M190 455 c-13 -14 -19 -25 -13 -25 12 0 48 38 41 45 -2 3 -15 -6 -28
-20z"></path>
<path d="M1080 455 c0 -8 5 -15 10 -15 6 0 10 7 10 15 0 8 -4 15 -10 15 -5 0
-10 -7 -10 -15z"></path>
<path d="M3627 453 c-13 -13 -7 -21 13 -16 11 3 20 9 20 14 0 10 -24 12 -33 2z"></path>
<path d="M5250 450 c0 -5 4 -10 9 -10 6 0 13 5 16 10 3 6 -1 10 -9 10 -9 0
-16 -4 -16 -10z"></path>
<path d="M3575 420 c-3 -5 1 -10 9 -10 8 0 18 5 21 10 3 6 -1 10 -9 10 -8 0
-18 -4 -21 -10z"></path>
<path d="M4790 410 c0 -11 5 -20 10 -20 6 0 10 9 10 20 0 11 -4 20 -10 20 -5
0 -10 -9 -10 -20z"></path>
<path d="M1090 414 c0 -3 10 -18 21 -32 12 -15 19 -20 15 -12 -3 8 -9 23 -12
33 -6 16 -24 25 -24 11z"></path>
<path d="M115 390 c-10 -11 -14 -20 -8 -20 5 0 18 9 28 20 10 11 14 20 8 20
-5 0 -18 -9 -28 -20z"></path>
<path d="M2040 402 c0 -5 7 -57 15 -117 9 -59 13 -116 10 -127 -7 -21 10 -25
19 -3 7 19 -26 255 -36 255 -4 0 -8 -4 -8 -8z"></path>
<path d="M2300 393 c0 -25 774 -49 789 -24 3 5 15 11 26 14 11 3 -7 3 -40 1
-33 -2 -95 -7 -138 -10 -43 -3 -157 -1 -255 5 -97 6 -223 14 -279 17 -63 4
-103 3 -103 -3z"></path>
<path d="M3494 385 c-15 -11 -16 -14 -3 -15 8 0 24 7 35 15 15 11 16 14 3 15
-8 0 -24 -7 -35 -15z"></path>
<path d="M3674 353 c-1 -16 -5 -46 -9 -68 -7 -36 -7 -39 7 -27 14 11 29 -2
110 -90 51 -57 101 -114 111 -127 9 -14 20 -22 23 -18 10 10 -40 71 -142 175
-91 92 -92 94 -82 128 9 33 5 54 -10 54 -4 0 -8 -12 -8 -27z"></path>
<path d="M3430 360 c-12 -8 -11 -10 7 -10 12 0 25 5 28 10 8 13 -15 13 -35 0z"></path>
<path d="M45 330 c-10 -11 -14 -20 -8 -20 5 0 18 9 28 20 10 11 14 20 8 20 -5
0 -18 -9 -28 -20z"></path>
<path d="M3340 336 c-19 -7 -79 -24 -132 -37 -54 -12 -98 -27 -98 -31 0 -11 4
-11 125 21 119 31 194 59 160 59 -11 1 -36 -5 -55 -12z"></path>
<path d="M4800 340 c0 -5 5 -10 10 -10 6 0 10 5 10 10 0 6 -4 10 -10 10 -5 0
-10 -4 -10 -10z"></path>
<path d="M1157 314 c26 -68 222 -314 251 -314 11 0 -4 21 -44 63 -61 62 -184
220 -184 236 0 5 -7 14 -15 21 -13 11 -14 10 -8 -6z"></path>
<path d="M4260 312 c0 -13 61 -65 68 -58 3 4 -7 20 -23 36 -29 30 -45 38 -45
22z"></path>
<path d="M4810 300 c0 -5 5 -10 10 -10 6 0 10 5 10 10 0 6 -4 10 -10 10 -5 0
-10 -4 -10 -10z"></path>
<path d="M4820 255 c0 -8 5 -15 10 -15 6 0 10 7 10 15 0 8 -4 15 -10 15 -5 0
-10 -7 -10 -15z"></path>
<path d="M4420 235 c0 -8 5 -15 10 -15 6 0 10 7 10 15 0 8 -4 15 -10 15 -5 0
-10 -7 -10 -15z"></path>
<path d="M2140 230 c0 -5 7 -10 15 -10 8 0 15 5 15 10 0 6 -7 10 -15 10 -8 0
-15 -4 -15 -10z"></path>
<path d="M2645 228 c-77 -5 -206 -7 -287 -4 -92 3 -148 2 -148 -4 0 -6 13 -10
28 -10 30 0 52 -16 52 -37 0 -20 71 -173 81 -173 4 0 -8 35 -27 79 -43 100
-47 126 -16 125 12 0 57 -1 100 -2 l77 -2 104 -100 c57 -55 110 -100 119 -100
10 0 1 12 -23 32 -73 59 -175 161 -169 169 3 5 35 9 72 9 104 0 232 12 232 21
0 5 -12 8 -27 8 -16 -1 -91 -6 -168 -11z"></path>
<path d="M4070 231 c0 -21 62 -217 72 -226 12 -12 13 -12 -28 132 -16 57 -32
103 -36 103 -5 0 -8 -4 -8 -9z"></path>
<path d="M4830 211 c0 -6 5 -13 10 -16 6 -3 10 1 10 9 0 9 -4 16 -10 16 -5 0
-10 -4 -10 -9z"></path>
<path d="M4430 202 c0 -25 52 -141 71 -158 27 -24 37 -9 11 19 -11 12 -30 47
-42 77 -22 56 -40 84 -40 62z"></path>
<path d="M2360 146 c0 -8 5 -18 10 -21 6 -3 10 1 10 9 0 8 -4 18 -10 21 -5 3
-10 -1 -10 -9z"></path>
<path d="M2060 118 c0 -10 8 -33 17 -53 16 -34 16 -36 -3 -50 -18 -14 -18 -14
4 -15 34 0 37 24 8 82 -14 29 -25 45 -26 36z"></path>
<path d="M2380 100 c0 -16 43 -100 52 -100 12 0 10 6 -17 60 -25 48 -35 60
-35 40z"></path>
</g>
</svg>