 <svg version="1.0" xmlns="http://www.w3.org/2000/svg" width="700.000000pt" height="745.000000pt" viewBox="0 0 700.000000 745.000000" preserveAspectRatio="xMidYMid meet">
<metadata>
Created by potrace 1.12, written by Peter Selinger 2001-2015
</metadata>
<g transform="translate(0.000000,745.000000) scale(0.100000,-0.100000)" fill="#000000" stroke="none">
<path d="M3536 7409 c-12 -38 -37 -340 -47 -554 -10 -238 -19 -353 -38 -492
-17 -118 -42 -265 -52 -312 -8 -38 -7 -47 10 -65 58 -64 73 -119 47 -181 -28
-66 -121 -79 -161 -22 -19 27 -19 48 2 106 l16 47 -39 52 c-21 28 -124 222
-229 429 -104 208 -196 379 -202 381 -7 2 -13 -5 -13 -15 0 -16 44 -195 111
-448 51 -192 71 -305 76 -425 6 -126 14 -156 41 -145 24 9 52 -24 52 -61 0
-49 -32 -67 -112 -63 -62 4 -63 4 -62 -21 1 -14 5 -34 9 -46 5 -15 1 -23 -18
-31 -13 -6 -46 -38 -73 -70 -102 -122 -207 -217 -282 -256 -40 -22 -76 -45
-79 -53 -7 -18 22 -52 48 -56 11 -2 20 -7 21 -13 2 -15 -140 -93 -202 -111
-89 -26 -192 -74 -238 -111 -35 -29 -42 -40 -38 -59 6 -21 -5 -30 -103 -88
-154 -92 -229 -127 -363 -174 -162 -57 -267 -76 -418 -75 -189 0 -388 57 -496
140 -52 39 -69 35 -60 -15 17 -109 137 -244 283 -320 79 -41 109 -71 61 -59
-13 3 -70 13 -127 21 -57 9 -167 34 -244 57 -122 35 -175 55 -297 112 -62 29
-209 113 -243 140 -49 38 -72 31 -62 -21 18 -100 143 -256 312 -389 45 -36 83
-70 83 -74 0 -4 32 -41 71 -83 82 -88 213 -180 320 -223 40 -17 83 -34 94 -39
32 -14 -236 -17 -345 -4 -129 16 -268 45 -367 77 -135 44 -137 3 -6 -96 77
-58 237 -143 299 -160 23 -6 48 -19 55 -28 13 -15 11 -16 -17 -10 -116 23
-174 17 -174 -17 0 -22 89 -72 171 -96 341 -101 361 -104 621 -105 119 0 214
-3 212 -7 -15 -24 -360 -74 -574 -83 -161 -7 -190 -13 -190 -41 0 -65 381
-153 665 -154 224 0 494 50 668 125 31 13 18 -13 -20 -40 -21 -15 -74 -52
-119 -84 -91 -65 -270 -148 -389 -181 -95 -26 -115 -36 -115 -55 0 -35 133
-67 245 -60 173 12 267 34 445 104 157 62 332 168 404 245 19 20 31 26 34 18
2 -7 -1 -18 -6 -25 -31 -37 -42 -272 -13 -272 7 0 30 32 50 71 73 142 187 270
386 434 161 133 273 239 311 297 l37 56 34 -39 c33 -39 63 -119 63 -167 0 -45
-37 -113 -99 -182 -60 -66 -75 -101 -46 -110 8 -3 21 -7 29 -9 28 -9 3 -59
-44 -86 -65 -38 -72 -56 -34 -88 42 -36 51 -57 59 -129 9 -76 -4 -119 -50
-163 -19 -19 -35 -37 -35 -41 0 -4 11 -20 24 -36 20 -25 24 -42 30 -148 4 -66
12 -151 17 -190 5 -38 16 -133 24 -210 29 -277 73 -521 146 -805 51 -195 79
-349 79 -428 0 -61 -5 -83 -26 -123 l-27 -49 26 -57 c28 -65 36 -91 73 -253
29 -126 76 -258 103 -292 11 -13 24 -19 34 -15 33 12 89 156 128 327 29 131
57 221 74 244 21 27 19 43 -10 100 -34 67 -33 152 5 334 16 79 32 146 34 150
2 4 22 84 44 177 39 164 57 258 88 450 23 142 74 613 74 684 0 54 5 72 27 103
l26 39 -35 37 c-49 51 -58 72 -58 137 0 63 7 81 57 143 20 24 32 49 29 57 -3
8 -28 29 -56 46 -46 28 -57 49 -26 49 20 0 40 27 26 35 -13 8 6 35 25 35 7 0
23 8 36 19 20 16 22 21 9 35 -7 10 -29 24 -47 31 -19 8 -60 40 -92 72 -47 48
-60 68 -71 111 -11 46 -10 59 5 98 9 24 23 44 30 44 24 0 124 -139 176 -244
80 -162 92 -215 93 -396 1 -154 1 -155 25 -158 67 -10 181 201 181 335 0 24 4
43 8 43 16 0 90 -145 100 -195 6 -27 14 -86 18 -130 7 -88 15 -105 49 -105 31
0 39 13 70 105 20 59 28 107 32 192 6 106 12 129 29 102 3 -6 79 -58 168 -116
88 -58 197 -134 241 -168 101 -79 238 -222 289 -300 51 -79 76 -105 97 -105
88 0 10 318 -129 528 -19 30 -58 78 -85 108 -52 58 -57 72 -17 50 327 -175
420 -237 548 -360 52 -50 121 -129 153 -176 70 -102 159 -193 184 -188 47 9
44 58 -12 198 -85 213 -228 466 -340 598 -25 29 -43 56 -39 59 10 11 166 -90
232 -150 74 -68 131 -151 203 -295 28 -57 59 -106 67 -109 65 -25 79 186 23
346 -26 77 -79 178 -136 260 -24 35 -42 66 -39 68 10 10 142 -37 236 -82 109
-54 148 -80 307 -211 127 -105 156 -115 161 -56 2 23 -7 52 -34 100 -41 74
-120 182 -134 182 -4 0 -11 7 -14 16 -5 13 0 15 34 9 49 -8 70 6 70 45 0 20
-10 35 -35 54 -19 15 -80 89 -134 165 -74 101 -120 154 -176 200 -42 35 -74
65 -72 68 6 6 69 -26 155 -79 69 -42 146 -102 218 -171 32 -30 48 -38 70 -35
27 3 29 6 27 40 -6 100 -224 417 -305 444 -10 3 -18 11 -18 19 0 10 18 12 83
9 142 -8 346 -65 420 -116 37 -27 71 -20 75 14 12 105 -186 249 -502 363 -174
63 -412 113 -581 122 l-110 6 -48 43 c-27 24 -96 67 -155 95 -59 29 -115 56
-126 61 -67 33 -360 114 -452 124 -40 5 -58 12 -66 27 -21 40 -95 111 -165
158 -40 27 -74 49 -77 49 -12 0 -106 64 -106 72 0 5 11 13 25 18 55 21 9 81
-108 142 -69 35 -101 62 -200 162 l-118 121 7 40 c4 33 2 44 -15 59 -18 16
-25 17 -69 6 -56 -15 -94 -8 -122 20 -23 23 -26 62 -7 78 6 6 26 12 42 14 l30
3 7 105 c11 159 25 254 57 375 15 61 49 190 74 287 25 98 49 197 52 222 12 80
-12 62 -63 -46 -172 -363 -330 -668 -370 -716 l-45 -54 16 -46 c33 -91 14
-130 -67 -139 -38 -5 -48 -2 -70 20 -22 22 -26 35 -26 80 0 46 6 63 35 105
l35 51 -29 173 c-42 249 -60 413 -71 663 -11 257 -38 556 -50 569 -6 6 -11 4
-14 -5z m28 -426 c12 -371 44 -680 98 -916 9 -43 8 -52 -9 -75 -45 -61 -56
-94 -50 -151 5 -48 11 -61 41 -88 31 -28 43 -33 87 -33 43 0 55 5 80 29 34 34
37 65 13 128 l-17 43 37 45 c35 42 225 414 311 605 40 91 61 122 53 80 -3 -14
-29 -105 -57 -203 -69 -233 -102 -404 -105 -542 -3 -108 -3 -110 -27 -113 -37
-6 -69 -41 -69 -77 0 -79 89 -125 179 -94 45 16 60 1 43 -43 -11 -31 -11 -32
103 -153 100 -106 129 -131 222 -186 115 -68 132 -92 73 -97 -19 -2 -39 -7
-43 -11 -10 -10 71 -71 188 -141 50 -30 119 -83 154 -118 56 -57 61 -66 48
-79 -12 -12 -19 -13 -36 -4 -33 18 -27 -3 30 -98 54 -92 104 -151 127 -151 7
0 12 -8 10 -17 -2 -14 -18 -20 -66 -26 -52 -7 -81 -5 -155 13 -51 12 -96 26
-102 31 -13 13 -25 11 -25 -4 0 -7 14 -26 31 -43 40 -38 145 -192 170 -250 16
-36 18 -48 9 -60 -15 -18 -24 -18 -63 0 -97 45 -277 78 -277 52 0 -16 37 -71
96 -144 24 -29 44 -60 44 -67 0 -30 -113 -24 -179 9 -43 23 -46 7 -5 -30 25
-23 35 -40 32 -56 -3 -23 -5 -23 -110 -20 -114 4 -117 3 -96 -43 8 -18 8 -29
1 -36 -6 -6 -62 -11 -132 -12 -73 -1 -121 -6 -121 -12 0 -5 10 -10 23 -11 43
-2 49 -4 45 -15 -2 -7 -29 -18 -58 -26 -87 -22 -151 -56 -212 -112 -99 -90
-123 -183 -74 -286 23 -51 95 -124 149 -152 35 -18 31 -34 -12 -45 -27 -7 -31
-13 -29 -36 3 -22 -2 -27 -27 -33 -16 -4 -49 -7 -71 -8 -40 -1 -42 -2 -48 -40
-3 -22 -10 -42 -15 -45 -5 -3 -34 6 -64 20 l-56 25 -55 -31 c-46 -26 -153 -55
-164 -45 -2 2 2 13 8 25 17 32 0 45 -42 31 -18 -5 -51 -11 -73 -13 -39 -3 -40
-2 -40 31 0 47 -20 49 -60 7 -18 -20 -36 -36 -39 -36 -11 0 -6 101 5 122 13
25 5 35 -16 18 -8 -7 -22 -9 -31 -6 -14 5 -3 21 54 79 79 82 99 128 87 205
-23 155 -137 273 -301 313 -85 21 -125 38 -93 40 7 1 22 2 31 3 10 0 18 6 19
11 1 11 -13 14 -164 41 -54 9 -100 21 -103 25 -2 5 7 16 21 25 37 24 23 32
-42 22 -53 -8 -125 -4 -159 9 -10 4 -1 21 32 58 25 29 41 56 35 59 -5 3 -33 0
-63 -8 -29 -7 -81 -17 -114 -21 -77 -8 -88 4 -44 50 38 39 28 49 -32 35 -51
-11 -148 -13 -148 -2 1 4 24 24 53 45 99 71 192 167 162 167 -3 0 -39 -29 -80
-65 -66 -57 -95 -76 -95 -60 0 8 49 110 62 127 27 37 -5 30 -41 -10 -36 -39
-43 -42 -89 -42 -28 0 -53 4 -56 9 -3 4 21 39 52 77 74 88 98 128 113 187 8
35 9 51 1 59 -8 8 -14 4 -21 -15 -10 -26 -12 -27 -101 -27 -69 0 -90 3 -90 13
0 8 62 50 137 95 76 45 145 85 153 90 35 22 -3 22 -64 0 -59 -21 -67 -21 -81
-7 -14 14 -14 18 5 42 24 30 13 42 -30 32 -61 -13 -24 28 66 73 22 11 72 30
110 43 111 35 215 90 262 137 47 49 46 66 -1 57 -20 -4 -39 -1 -51 8 -17 13
-14 16 45 44 73 34 168 118 262 231 36 42 86 92 111 111 41 31 44 36 31 51 -8
9 -15 19 -15 22 0 3 28 8 61 11 75 7 96 25 105 87 5 37 2 50 -15 72 -12 15
-31 28 -44 30 -21 3 -22 9 -28 113 -11 177 -50 369 -129 620 -22 71 -38 131
-35 133 3 3 27 -42 54 -99 132 -280 273 -555 307 -596 l38 -46 -17 -47 c-24
-68 -21 -88 17 -126 92 -92 236 8 206 143 -5 20 -22 56 -39 80 l-31 43 15 71
c50 234 81 535 90 874 4 127 9 233 12 238 15 25 21 -26 27 -220z m-1428 -2217
c-4 -18 -1 -29 15 -40 l21 -14 -24 -15 c-102 -62 -132 -83 -145 -104 -14 -21
-14 -25 1 -42 9 -9 16 -20 16 -23 0 -10 -162 -104 -261 -152 -201 -96 -405
-146 -601 -146 -67 0 -78 3 -167 51 -160 85 -250 163 -298 259 -27 55 -21 67
20 36 41 -32 159 -79 267 -106 109 -28 334 -31 450 -6 79 18 219 63 310 101
56 23 294 157 360 201 43 30 44 30 36 0z m2909 -11 c215 -41 444 -119 588
-200 50 -28 92 -56 94 -62 3 -9 -82 -11 -311 -8 -173 1 -319 6 -324 9 -6 3 -8
15 -5 27 4 15 -7 32 -43 67 -59 57 -134 147 -134 161 0 9 18 17 45 20 6 0 46
-6 90 -14z m-4931 -265 c145 -99 397 -201 631 -256 97 -23 138 -27 341 -31
284 -6 366 3 506 58 150 59 321 144 405 200 66 45 78 50 121 47 32 -2 48 -8
50 -18 1 -9 -29 -54 -68 -100 -39 -48 -70 -95 -70 -107 0 -32 45 -63 91 -63
35 0 39 -2 39 -26 0 -50 -83 -109 -235 -169 -38 -15 -117 -48 -175 -75 -223
-102 -190 -95 -421 -94 -218 1 -276 9 -464 70 -38 12 -86 25 -105 29 -132 27
-375 176 -530 327 -47 46 -103 104 -123 130 -38 48 -74 118 -60 118 5 0 35
-18 67 -40z m4852 -25 c55 -1 107 -6 115 -11 8 -5 196 -9 424 -9 337 -1 430
-4 520 -19 308 -48 598 -146 776 -261 109 -71 188 -162 157 -181 -5 -3 -17 1
-26 9 -37 32 -137 66 -320 107 -128 29 -557 6 -937 -50 -202 -29 -314 -38
-385 -31 -55 6 -78 15 -147 58 -116 72 -189 133 -204 168 -17 38 -124 201
-138 209 -26 16 -10 28 27 21 20 -5 82 -9 138 -10z m-155 -315 c68 -25 101
-25 123 -1 18 19 19 19 80 -28 52 -40 95 -69 221 -144 11 -7 31 -19 45 -28 82
-52 197 -105 355 -164 262 -96 376 -142 504 -202 63 -29 121 -53 129 -53 32 0
141 -83 233 -177 92 -94 142 -160 208 -271 33 -56 26 -78 -14 -46 -13 11 -58
47 -102 82 -43 35 -87 71 -98 80 -125 105 -315 198 -445 217 -25 3 -65 13 -90
20 -51 16 -370 80 -445 90 -92 12 -170 39 -230 80 -33 23 -150 97 -260 165
-171 105 -248 156 -288 191 -5 4 -2 18 7 32 22 32 12 57 -53 135 -28 34 -51
63 -51 66 0 7 113 -22 171 -44z m1584 -103 c54 -42 110 -105 177 -197 87 -120
147 -233 129 -244 -4 -3 -42 27 -83 68 -156 152 -485 308 -713 337 -76 10
-110 19 -69 19 10 0 82 7 159 14 77 8 173 17 214 20 41 3 76 8 79 11 16 16 71
2 107 -28z m-4111 -6 c-7 -36 15 -51 76 -51 l41 0 -19 -27 c-68 -95 -343 -343
-443 -401 -56 -31 -218 -77 -389 -109 -138 -26 -576 -26 -705 0 -228 46 -472
146 -637 261 -38 26 -68 52 -68 57 0 12 -3 12 60 -10 196 -69 517 -97 781 -70
184 18 447 83 629 154 99 38 431 184 475 208 21 11 56 16 117 17 l88 0 -6 -29z
m2451 -145 c79 -60 233 -161 290 -192 86 -47 353 -233 444 -311 56 -48 120
-99 141 -113 105 -70 287 -343 408 -614 39 -89 82 -207 82 -228 0 -36 -65 33
-163 171 -162 227 -336 360 -697 534 -125 60 -144 73 -260 178 -286 258 -520
511 -520 561 0 6 23 7 54 3 50 -7 54 -5 75 21 12 15 19 35 16 44 -10 32 45 9
130 -54z m-2252 0 c41 -11 43 -14 22 -41 -8 -11 -53 -78 -101 -150 -148 -220
-286 -397 -375 -482 -39 -36 -210 -97 -370 -132 -232 -50 -590 -53 -804 -7
-141 30 -225 55 -225 65 0 5 71 11 158 15 169 8 371 35 492 66 41 11 104 27
140 36 213 53 231 61 495 228 124 78 218 157 370 311 129 131 140 140 150 121
6 -12 26 -25 48 -30z m3583 28 c112 -32 305 -187 390 -312 73 -108 127 -177
163 -209 27 -25 33 -35 24 -44 -22 -22 -76 24 -167 146 -112 150 -196 232
-328 323 -118 81 -157 111 -145 112 5 0 33 -7 63 -16z m-1632 -76 c57 -120
211 -280 685 -714 70 -63 161 -177 205 -257 79 -141 145 -372 115 -401 -8 -8
-14 -6 -23 7 -27 44 -161 215 -194 250 -63 66 -179 155 -346 265 -410 270
-656 485 -759 663 -38 65 -36 74 26 90 42 11 53 19 55 38 4 23 6 23 78 19 86
-6 105 3 109 53 2 19 4 35 4 37 1 1 5 2 11 2 5 0 21 -24 34 -52z m-1782 19
c16 -16 46 -28 88 -36 94 -18 98 -20 102 -44 2 -18 15 -25 76 -41 72 -19 87
-30 55 -40 -28 -9 -95 -77 -268 -270 -305 -341 -504 -499 -754 -597 -176 -69
-267 -90 -426 -96 -192 -7 -273 16 -153 44 131 30 309 114 440 207 248 176
393 341 667 754 84 126 98 142 122 142 16 0 38 -10 51 -23z m1313 -307 c3 -5
1 -10 -4 -10 -6 0 -11 5 -11 10 0 6 2 10 4 10 3 0 8 -4 11 -10z m-925 -14 c0
-10 -127 -125 -250 -227 -87 -72 -289 -274 -327 -327 -38 -53 -49 -36 -32 50
11 55 17 64 108 157 53 54 120 125 149 159 52 59 127 105 238 143 22 8 53 21
69 31 30 17 45 21 45 14z m-2407 -76 c5 -4 -23 -15 -62 -24 -68 -15 -72 -15
-126 5 -30 11 -55 24 -55 28 0 10 233 1 243 -9z m3428 -44 c5 3 9 -4 9 -15 0
-12 7 -21 15 -21 8 0 15 -5 15 -11 0 -6 7 -8 16 -5 8 3 12 2 9 -4 -3 -5 7 -17
22 -26 15 -9 46 -34 68 -55 22 -21 55 -52 73 -68 32 -30 33 -32 27 -93 -9 -90
-32 -164 -71 -234 -59 -106 -101 -122 -70 -26 35 105 -10 313 -110 514 -13 26
-24 51 -23 55 0 4 3 2 6 -5 2 -6 9 -10 14 -6z m1991 -121 c66 -97 145 -258
164 -332 8 -36 14 -93 12 -135 l-3 -73 -13 45 c-62 217 -120 343 -239 519 -31
46 -30 61 5 52 19 -5 42 -28 74 -76z m-1478 -140 c17 -13 18 -25 13 -127 -4
-83 -12 -135 -31 -195 -15 -46 -31 -83 -36 -83 -20 0 -20 23 0 87 26 83 34
188 22 271 -9 66 -4 74 32 47z m-678 -106 c10 -12 36 -30 57 -40 39 -21 46
-39 22 -59 -24 -20 -92 -145 -129 -238 -64 -161 -82 -260 -121 -672 -42 -436
-64 -733 -71 -960 -6 -201 -5 -220 15 -300 12 -47 31 -100 42 -118 22 -39 24
-65 5 -81 -14 -12 -17 -21 -67 -226 -38 -158 -78 -285 -90 -285 -5 0 -9 360
-9 813 0 797 0 815 20 860 51 115 87 357 76 512 -7 104 -38 241 -68 303 -19
41 -20 53 -13 227 l7 184 35 21 c44 26 48 25 111 -6 61 -30 75 -25 93 37 8 26
19 39 33 42 12 2 24 5 27 6 3 0 14 -8 25 -20z m-574 -62 c62 2 67 1 70 -20 3
-19 10 -22 59 -25 l57 -3 7 -163 c7 -156 6 -165 -15 -207 -97 -190 -97 -598 0
-825 19 -44 20 -73 20 -860 0 -448 -4 -814 -8 -814 -11 0 -63 171 -102 335
-17 72 -40 145 -51 163 -24 41 -24 53 0 94 48 81 56 138 55 393 -2 252 -20
512 -78 1110 -37 378 -109 626 -217 757 -21 26 -39 52 -39 58 0 9 57 40 75 40
3 0 10 -11 15 -25 13 -34 24 -31 52 13 l23 37 5 -30 6 -30 66 2z m-119 -284
c44 -130 60 -196 82 -330 16 -96 15 -158 -1 -105 -25 83 -104 218 -168 285
-20 21 -36 43 -36 49 0 5 16 28 35 51 31 36 35 47 35 99 0 32 4 58 8 58 5 0
25 -48 45 -107z m717 36 c0 -37 13 -64 52 -105 l30 -32 -60 -66 c-53 -58 -125
-184 -157 -271 -17 -46 -14 11 5 126 17 103 55 235 101 356 12 33 29 28 29 -8z
m-366 -187 c8 -16 25 -66 38 -113 20 -73 23 -107 23 -264 0 -108 -5 -202 -13
-235 -25 -110 -55 -200 -67 -200 -12 0 -33 66 -66 205 -7 29 -12 124 -12 230
0 150 4 193 21 256 22 80 48 149 56 149 3 0 12 -13 20 -28z m-338 -197 c81
-166 104 -267 129 -580 8 -104 22 -269 29 -365 20 -237 29 -570 16 -570 -6 0
-10 13 -10 29 0 39 -29 178 -84 396 -46 185 -83 372 -110 555 -25 167 -66 554
-66 621 l0 62 21 -19 c12 -10 45 -68 75 -129z m714 -180 c-35 -334 -71 -554
-131 -805 -22 -91 -49 -201 -59 -245 -11 -44 -27 -124 -37 -177 -10 -54 -22
-98 -26 -98 -5 0 -6 51 -3 112 3 62 8 172 11 243 8 167 52 717 66 815 6 41 20
109 31 150 22 82 102 258 139 305 l24 30 3 -65 c2 -36 -6 -155 -18 -265z"></path>
<path d="M3895 5949 c-4 -6 -5 -12 -2 -15 2 -3 7 2 10 11 7 17 1 20 -8 4z"></path>
<path d="M3853 5905 c-8 -22 6 -33 17 -15 13 20 12 30 0 30 -6 0 -13 -7 -17
-15z"></path>
<path d="M3528 5838 c-4 -76 -37 -127 -99 -155 -37 -17 -51 -33 -28 -33 29 0
119 72 119 95 0 7 8 19 18 28 14 13 21 14 30 5 15 -15 15 -7 -2 61 -17 76 -33
75 -38 -1z"></path>
<path d="M3880 5780 c0 -22 -12 -43 -42 -75 -41 -45 -27 -54 19 -13 l21 20 22
-48 c11 -27 28 -57 38 -68 18 -20 88 -55 110 -56 24 0 12 18 -17 23 -61 13
-124 90 -121 150 3 41 -10 97 -21 97 -5 0 -9 -14 -9 -30z"></path>
<path d="M3200 5770 c0 -36 57 -102 98 -115 33 -10 26 8 -11 25 -21 10 -39 30
-52 57 -19 40 -35 55 -35 33z"></path>
<path d="M3590 5734 c15 -40 39 -64 77 -80 38 -16 109 -18 118 -4 4 6 -16 10
-51 10 -57 0 -59 1 -106 51 -42 44 -47 48 -38 23z"></path>
<path d="M3180 5720 c0 -5 5 -10 10 -10 6 0 10 5 10 10 0 6 -4 10 -10 10 -5 0
-10 -4 -10 -10z"></path>
<path d="M3187 5662 c-8 -41 -37 -71 -82 -86 -22 -8 -47 -25 -55 -38 -18 -28
-142 -159 -268 -284 -85 -83 -93 -94 -83 -113 16 -28 33 -27 25 3 -4 19 4 32
50 72 31 27 87 85 124 129 98 116 181 196 226 220 22 11 48 31 57 45 22 31 35
80 21 80 -5 0 -12 -13 -15 -28z"></path>
<path d="M3350 5650 c0 -5 5 -10 10 -10 6 0 10 5 10 10 0 6 -4 10 -10 10 -5 0
-10 -4 -10 -10z"></path>
<path d="M4103 5572 c-29 -4 -29 -13 -2 -31 18 -11 23 -11 30 1 17 26 8 36
-28 30z"></path>
<path d="M4130 5499 c0 -23 153 -222 202 -262 24 -19 62 -44 86 -56 28 -14 42
-28 42 -41 0 -24 15 -26 24 -4 11 28 7 33 -57 63 -80 38 -134 95 -282 296 -11
16 -14 17 -15 4z"></path>
<path d="M3245 5347 c-57 -15 -86 -29 -105 -52 -18 -22 24 -82 97 -140 53 -41
247 -144 301 -160 30 -9 112 24 217 86 78 46 149 111 195 177 28 42 19 53 -59
76 -90 26 -203 15 -286 -28 -40 -21 -42 -21 -121 15 -80 37 -162 45 -239 26z
m180 -40 c47 -40 44 -158 -5 -202 -16 -15 -23 -15 -56 -3 -20 7 -55 29 -77 48
-36 32 -40 42 -45 93 -6 78 3 87 89 87 56 0 72 -4 94 -23z m423 7 c28 -20 30
-86 3 -127 -23 -35 -108 -97 -133 -97 -10 0 -30 11 -43 25 -21 20 -25 34 -25
87 0 74 16 103 63 117 50 14 110 12 135 -5z m-642 -61 c-6 -14 -9 -15 -16 -4
-11 19 -1 46 13 32 5 -5 7 -18 3 -28z m364 13 l45 -2 5 -65 c3 -37 12 -76 23
-92 26 -41 21 -51 -17 -28 -42 27 -95 27 -140 1 -19 -12 -37 -17 -40 -12 -3 5
4 29 16 53 17 33 22 59 20 103 -1 56 -1 58 21 51 12 -5 42 -9 67 -9z"></path>
<path d="M4480 5087 c0 -17 77 -81 234 -195 47 -34 86 -69 86 -77 0 -8 5 -15
10 -15 6 0 10 9 10 19 0 13 -42 50 -132 116 -73 54 -150 114 -170 133 -28 27
-38 32 -38 19z"></path>
<path d="M2684 5059 c-49 -51 -126 -96 -253 -148 -117 -47 -191 -91 -191 -112
0 -5 19 3 43 19 23 16 97 52 165 80 122 50 242 125 263 163 17 32 5 32 -27 -2z"></path>
<path d="M4810 4769 c0 -22 79 -175 108 -209 44 -50 51 -30 9 22 -35 43 -97
161 -97 186 0 6 -4 12 -10 12 -5 0 -10 -5 -10 -11z"></path>
<path d="M2188 4638 c-35 -20 -49 -38 -30 -38 8 0 80 59 72 59 -3 0 -22 -9
-42 -21z"></path>
<path d="M3760 3399 c0 -45 127 -225 145 -207 4 4 -13 30 -37 57 -42 46 -88
126 -88 151 0 5 -4 10 -10 10 -5 0 -10 -5 -10 -11z"></path>
<path d="M3300 3307 c0 -8 -13 -34 -30 -58 -32 -48 -39 -69 -15 -49 34 28 76
120 56 120 -6 0 -11 -6 -11 -13z"></path>
<path d="M1908 4565 c-34 -19 -169 -69 -268 -100 -112 -35 -260 -65 -360 -72
-50 -3 -90 -10 -90 -16 0 -26 297 20 463 72 139 43 307 112 307 126 0 9 -25 4
-52 -10z"></path>
<path d="M838 4441 c25 -21 218 -71 275 -71 20 0 37 5 37 10 0 6 -17 10 -37
10 -43 0 -186 31 -253 54 -45 16 -45 16 -22 -3z"></path>
<path d="M5010 4682 c0 -5 20 -15 44 -21 54 -13 56 -13 56 -2 0 5 -12 11 -27
15 -16 3 -38 8 -50 12 -13 4 -23 2 -23 -4z"></path>
<path d="M5130 4652 c0 -5 20 -15 44 -21 24 -6 51 -13 60 -17 9 -3 16 -2 16 3
0 6 -19 15 -42 22 -24 7 -51 15 -60 17 -10 3 -18 1 -18 -4z"></path>
<path d="M5270 4612 c0 -8 129 -52 152 -52 27 0 -11 19 -76 39 -78 24 -76 24
-76 13z"></path>
<path d="M5440 4555 c0 -5 89 -45 101 -45 25 0 4 18 -38 33 -49 18 -63 20 -63
12z"></path>
<path d="M198 4351 c30 -26 206 -93 340 -131 112 -31 132 -35 132 -22 0 4 -44
18 -98 31 -85 21 -228 71 -357 125 l-40 17 23 -20z"></path>
<path d="M690 4190 c0 -5 7 -10 15 -10 8 0 15 5 15 10 0 6 -7 10 -15 10 -8 0
-15 -4 -15 -10z"></path>
<path d="M740 4180 c0 -5 9 -10 20 -10 11 0 20 5 20 10 0 6 -9 10 -20 10 -11
0 -20 -4 -20 -10z"></path>
<path d="M810 4170 c0 -5 11 -10 25 -10 14 0 25 5 25 10 0 6 -11 10 -25 10
-14 0 -25 -4 -25 -10z"></path>
<path d="M5420 4400 c0 -6 32 -10 75 -10 43 0 75 4 75 10 0 6 -32 10 -75 10
-43 0 -75 -4 -75 -10z"></path>
<path d="M5600 4390 c0 -6 49 -10 128 -10 134 0 193 -10 577 -94 233 -52 260
-60 348 -112 135 -78 149 -85 160 -81 10 3 -127 88 -208 130 -57 29 -265 79
-652 157 -110 22 -353 29 -353 10z"></path>
<path d="M6386 3378 c55 -57 121 -131 147 -165 52 -68 66 -80 43 -35 -41 77
-250 302 -281 302 -5 0 37 -46 91 -102z"></path>
<path d="M6310 4026 c0 -3 47 -50 104 -106 58 -56 115 -117 128 -136 29 -43
44 -44 22 -1 -28 53 -254 270 -254 243z"></path>
<path d="M975 3653 c-16 -2 -63 -10 -104 -18 -40 -8 -88 -15 -107 -15 -19 0
-34 -4 -34 -10 0 -5 10 -10 23 -10 43 0 287 44 287 52 0 8 -10 8 -65 1z"></path>
<path d="M470 3610 c0 -5 9 -10 20 -10 11 0 20 5 20 10 0 6 -9 10 -20 10 -11
0 -20 -4 -20 -10z"></path>
<path d="M530 3600 c0 -6 37 -10 90 -10 53 0 90 4 90 10 0 6 -37 10 -90 10
-53 0 -90 -4 -90 -10z"></path>
<path d="M5700 3136 c0 -4 14 -27 30 -51 17 -24 30 -46 30 -50 0 -3 18 -33 40
-66 22 -33 40 -64 40 -68 0 -5 7 -14 15 -21 13 -11 14 -10 8 6 -16 45 -163
269 -163 250z"></path>
<path d="M5870 2852 c0 -14 30 -71 41 -77 15 -10 10 22 -6 35 -8 7 -15 18 -15
26 0 7 -4 16 -10 19 -5 3 -10 2 -10 -3z"></path>
<path d="M5927 2740 c7 -25 23 -37 23 -17 0 8 -6 20 -14 26 -12 10 -13 8 -9
-9z"></path>
<path d="M5950 2690 c0 -19 33 -75 37 -63 2 6 -3 25 -12 42 -16 32 -25 39 -25
21z"></path>
<path d="M6010 2556 c0 -9 5 -16 10 -16 6 0 10 4 10 9 0 6 -4 13 -10 16 -5 3
-10 -1 -10 -9z"></path>
<path d="M1150 3160 c0 -5 5 -10 10 -10 6 0 10 5 10 10 0 6 -4 10 -10 10 -5 0
-10 -4 -10 -10z"></path>
<path d="M1090 3150 c0 -5 7 -10 15 -10 8 0 15 5 15 10 0 6 -7 10 -15 10 -8 0
-15 -4 -15 -10z"></path>
<path d="M1030 3140 c0 -5 7 -10 15 -10 8 0 15 5 15 10 0 6 -7 10 -15 10 -8 0
-15 -4 -15 -10z"></path>
<path d="M970 3130 c0 -5 5 -10 10 -10 6 0 10 5 10 10 0 6 -4 10 -10 10 -5 0
-10 -4 -10 -10z"></path>
<path d="M900 3120 c0 -5 9 -10 20 -10 11 0 20 5 20 10 0 6 -9 10 -20 10 -11
0 -20 -4 -20 -10z"></path>
<path d="M1894 2999 c-53 -54 -160 -126 -264 -179 -36 -18 -59 -35 -53 -37 18
-6 176 79 255 137 61 45 126 115 116 125 -2 3 -26 -18 -54 -46z"></path>
<path d="M4250 3125 c0 -30 5 -55 10 -55 6 0 10 25 10 55 0 30 -4 55 -10 55
-5 0 -10 -25 -10 -55z"></path>
<path d="M4227 2984 c-20 -64 -15 -86 7 -32 21 49 30 88 20 88 -5 0 -17 -26
-27 -56z"></path>
<path d="M3870 3022 c0 -14 57 -64 63 -55 3 5 -10 21 -29 36 -19 16 -34 24
-34 19z"></path>
<path d="M3626 713 c9 -37 44 -106 51 -100 7 7 -40 127 -50 127 -4 0 -4 -12
-1 -27z"></path>
<path d="M3600 380 c0 -5 5 -10 10 -10 6 0 10 5 10 10 0 6 -4 10 -10 10 -5 0
-10 -4 -10 -10z"></path>
<path d="M3410 700 c0 -5 5 -10 10 -10 6 0 10 5 10 10 0 6 -4 10 -10 10 -5 0
-10 -4 -10 -10z"></path>
<path d="M3400 654 c0 -8 5 -12 10 -9 6 3 10 10 10 16 0 5 -4 9 -10 9 -5 0
-10 -7 -10 -16z"></path>
<path d="M3436 458 c8 -27 12 -33 19 -27 7 8 -7 49 -17 49 -5 0 -6 -10 -2 -22z"></path>
<path d="M3150 2615 c-7 -9 -8 -15 -2 -15 5 0 12 7 16 15 3 8 4 15 2 15 -2 0
-9 -7 -16 -15z"></path>
<path d="M3906 2615 c4 -8 11 -15 16 -15 6 0 5 6 -2 15 -7 8 -14 15 -16 15 -2
0 -1 -7 2 -15z"></path>
<path d="M3190 2050 c0 -11 5 -20 10 -20 6 0 10 9 10 20 0 11 -4 20 -10 20 -5
0 -10 -9 -10 -20z"></path>
<path d="M3203 1981 c3 -15 9 -51 13 -80 4 -28 10 -51 15 -51 12 0 11 7 -2 91
-7 38 -16 69 -22 69 -5 0 -7 -13 -4 -29z"></path>
<path d="M3233 1798 c3 -18 9 -54 13 -80 3 -27 11 -48 16 -48 6 0 8 14 5 33
-3 17 -9 53 -13 80 -3 26 -11 47 -16 47 -6 0 -8 -14 -5 -32z"></path>
<path d="M3260 1635 c0 -8 5 -15 10 -15 6 0 10 7 10 15 0 8 -4 15 -10 15 -5 0
-10 -7 -10 -15z"></path>
<path d="M3270 1588 c0 -36 34 -178 43 -178 5 0 7 10 3 23 -3 12 -11 55 -18
95 -6 39 -16 72 -20 72 -4 0 -8 -6 -8 -12z"></path>
<path d="M3310 1375 c0 -8 5 -15 10 -15 6 0 10 7 10 15 0 8 -4 15 -10 15 -5 0
-10 -7 -10 -15z"></path>
<path d="M3320 1330 c0 -5 5 -10 10 -10 6 0 10 5 10 10 0 6 -4 10 -10 10 -5 0
-10 -4 -10 -10z"></path>
<path d="M3860 2025 c0 -8 5 -15 10 -15 6 0 10 7 10 15 0 8 -4 15 -10 15 -5 0
-10 -7 -10 -15z"></path>
<path d="M3850 1965 c0 -8 5 -15 10 -15 6 0 10 7 10 15 0 8 -4 15 -10 15 -5 0
-10 -7 -10 -15z"></path>
<path d="M3840 1905 c0 -8 5 -15 10 -15 6 0 10 7 10 15 0 8 -4 15 -10 15 -5 0
-10 -7 -10 -15z"></path>
<path d="M3826 1823 c-5 -42 -2 -63 8 -52 10 10 18 99 8 99 -5 0 -12 -21 -16
-47z"></path>
<path d="M3810 1720 c0 -11 5 -20 10 -20 6 0 10 9 10 20 0 11 -4 20 -10 20 -5
0 -10 -9 -10 -20z"></path>
<path d="M3800 1665 c0 -8 5 -15 10 -15 6 0 10 7 10 15 0 8 -4 15 -10 15 -5 0
-10 -7 -10 -15z"></path>
<path d="M3785 1583 c-3 -27 -9 -58 -12 -70 -3 -13 -1 -23 5 -23 5 0 15 28 21
63 13 77 13 77 2 77 -5 0 -12 -21 -16 -47z"></path>
<path d="M3760 1460 c0 -5 5 -10 10 -10 6 0 10 5 10 10 0 6 -4 10 -10 10 -5 0
-10 -4 -10 -10z"></path>
<path d="M3750 1415 c0 -8 5 -15 10 -15 6 0 10 7 10 15 0 8 -4 15 -10 15 -5 0
-10 -7 -10 -15z"></path>
</g>
</svg>