 <svg version="1.0" xmlns="http://www.w3.org/2000/svg" width="700.000000pt" height="499.000000pt" viewBox="0 0 700.000000 499.000000" preserveAspectRatio="xMidYMid meet">
<metadata>
Created by potrace 1.12, written by Peter Selinger 2001-2015
</metadata>
<g transform="translate(0.000000,499.000000) scale(0.100000,-0.100000)" fill="#000000" stroke="none">
<path d="M0 3835 l0 -1154 33 -6 c17 -2 52 -6 77 -7 l45 -3 -4 -100 c-5 -159
-24 -242 -91 -398 l-60 -143 0 -1012 0 -1012 3500 0 3500 0 0 360 c0 248 -3
360 -11 360 -6 0 -19 -5 -30 -11 -14 -7 -24 -7 -33 0 -7 6 -48 16 -90 23 -67
10 -79 15 -87 35 -9 26 -19 29 -37 11 -8 -8 -15 -8 -27 2 -13 11 -18 10 -33
-4 -12 -10 -36 -16 -70 -16 -28 0 -70 -7 -92 -16 -23 -9 -43 -15 -45 -12 -2 2
-2 21 2 41 7 47 41 67 111 67 27 0 74 8 105 19 48 15 59 16 68 5 6 -8 20 -14
30 -14 10 0 23 -9 29 -20 16 -30 93 -28 114 2 19 26 21 59 5 75 -6 6 -8 16 -5
22 16 26 33 6 56 -65 13 -41 28 -78 32 -80 4 -3 8 459 8 1026 l0 1032 -26 -31
c-29 -35 -64 -42 -64 -13 0 27 45 66 70 59 l20 -5 0 1069 0 1069 -1147 0
-1148 -1 -65 -74 c-36 -42 -74 -94 -85 -118 -11 -23 -39 -76 -61 -117 -56
-102 -94 -205 -102 -281 -7 -59 -9 -64 -32 -64 -22 0 -25 -5 -26 -35 0 -30 -3
-35 -25 -35 -17 0 -25 -6 -27 -23 -2 -13 1 -29 7 -36 8 -10 7 -17 -4 -26 -22
-18 -19 -40 11 -71 25 -26 25 -26 8 -63 -10 -20 -20 -36 -24 -36 -3 0 -12 33
-19 73 -16 89 -52 190 -99 282 -42 82 -164 210 -257 270 -202 129 -541 170
-910 110 -30 -5 -31 -4 -31 30 0 43 -17 64 -37 47 -17 -15 -27 -6 -27 26 0 13
-12 51 -26 83 l-27 59 -1423 0 -1424 0 0 -1155z m5514 1135 c21 -8 26 -16 26
-45 0 -33 -2 -35 -34 -35 -19 0 -44 -8 -56 -18 -20 -16 -21 -21 -11 -41 7 -12
10 -29 7 -37 -5 -13 -9 -13 -35 0 -33 18 -41 34 -41 85 0 42 16 62 70 85 42
18 42 18 74 6z m106 -66 c0 -17 -4 -22 -15 -18 -8 4 -15 1 -15 -6 0 -7 -6 -6
-16 4 -10 10 -13 24 -9 37 6 17 9 18 16 8 4 -7 11 -10 15 -6 4 3 1 15 -7 24
-11 15 -10 15 9 -1 12 -11 22 -30 22 -42z m-35 -54 c3 -5 2 -10 -4 -10 -5 0
-13 5 -16 10 -3 6 -2 10 4 10 5 0 13 -4 16 -10z m-4040 -440 c-3 -5 -18 -10
-33 -9 -24 0 -25 1 -7 9 28 12 47 12 40 0z m2825 -114 c0 -7 10 -16 22 -20 22
-5 22 -6 6 -23 -17 -16 -19 -16 -33 2 -17 23 -20 55 -5 55 6 0 10 -6 10 -14z
m-30 -71 c8 -10 9 -15 2 -15 -6 0 -9 -7 -6 -15 4 -8 2 -15 -4 -15 -11 0 -22
23 -22 46 0 18 14 18 30 -1z m415 5 c-3 -5 -11 -10 -16 -10 -6 0 -7 5 -4 10 3
6 11 10 16 10 6 0 7 -4 4 -10z m-892 -461 c27 -102 75 -232 108 -288 l20 -34
-21 -22 c-30 -32 -26 -69 10 -95 30 -21 30 -21 14 -58 -8 -20 -29 -89 -45
-152 -23 -94 -34 -119 -56 -138 -49 -41 -168 -120 -249 -164 l-79 -44 1 -148
c1 -137 3 -150 21 -165 12 -9 26 -27 34 -41 19 -39 59 -198 66 -266 5 -59 5
-61 -28 -89 -47 -39 -103 -62 -186 -76 -92 -16 -173 0 -252 51 -74 48 -101 83
-101 129 1 87 67 283 103 302 19 11 20 18 14 124 -7 148 -15 164 -97 193 -133
47 -243 108 -316 175 -95 89 -121 129 -145 228 -17 72 -18 90 -8 122 11 34 10
40 -11 69 -20 27 -22 38 -16 90 5 53 11 66 51 110 57 63 147 198 217 323 29
52 56 95 61 95 4 0 7 -15 7 -34 0 -46 11 -96 20 -96 5 0 11 13 15 30 10 47 22
44 30 -7 17 -114 155 -393 195 -393 5 0 17 17 27 38 9 20 85 107 168 192 83
85 173 184 200 220 l48 65 -7 -43 c-3 -23 -13 -62 -21 -84 -8 -23 -12 -44 -9
-47 8 -8 103 91 142 148 l37 54 7 -89 c3 -49 18 -132 31 -185z m578 60 c-5
-117 -28 -213 -73 -309 -24 -49 -96 -155 -122 -179 -31 -29 -44 -22 -28 14 18
38 15 59 -12 84 l-23 22 24 61 c14 34 34 100 45 147 11 47 23 93 27 101 11 22
142 121 154 117 7 -2 10 -26 8 -58z m-2172 -102 c52 -31 56 -36 76 -102 12
-39 36 -102 54 -142 l33 -72 -21 -27 c-11 -15 -21 -34 -21 -42 0 -27 -79 58
-118 128 -44 79 -69 151 -78 230 -8 72 -3 74 75 27z m2657 -12 c-19 -15 -46
-20 -46 -10 0 6 40 24 55 24 6 0 1 -6 -9 -14z m19 -19 c-11 -7 -31 -16 -45
-20 -19 -5 -16 -2 10 13 40 23 65 28 35 7z m-83 -18 c-7 -7 -12 -8 -12 -2 0 6
3 14 7 17 3 4 9 5 12 2 2 -3 -1 -11 -7 -17z m45 -52 c-3 -8 1 -22 8 -33 17
-22 19 -79 3 -89 -16 -10 -58 42 -58 73 0 27 25 63 43 63 5 0 7 -6 4 -14z
m1814 -226 c41 -23 10 -60 -50 -60 -24 0 -31 4 -31 19 0 19 34 51 53 51 5 0
17 -5 28 -10z m-2420 -66 c9 -11 9 -18 2 -22 -6 -4 -12 -16 -14 -27 -5 -25
-38 -26 -53 -3 -8 14 -5 22 14 43 28 29 33 30 51 9z m2144 -4 c9 -15 -50 -70
-74 -70 -30 0 -27 34 5 59 29 23 59 27 69 11z m335 -669 c0 -18 -53 -51 -81
-51 -38 0 -38 24 -1 44 30 17 82 21 82 7z m-940 -162 c7 -12 12 -76 12 -152 1
-124 -1 -139 -35 -252 -19 -66 -56 -167 -82 -225 -25 -58 -58 -134 -72 -170
-33 -82 -34 -83 -120 -164 -75 -71 -100 -78 -81 -25 22 63 -24 59 -86 -8 l-25
-27 2 45 c2 42 1 44 -25 42 -16 -1 -28 1 -28 5 1 33 42 137 116 292 80 169 88
191 90 251 1 38 9 79 19 99 16 31 16 34 -9 90 -14 32 -26 72 -26 89 0 26 4 31
24 31 28 0 46 -24 78 -106 41 -101 58 -83 67 76 5 89 9 105 24 108 24 5 45
-49 53 -137 11 -113 26 -88 40 64 3 39 7 76 10 83 6 19 42 14 54 -9z m-4940
-339 c15 -8 18 -17 13 -40 -4 -22 -1 -31 11 -36 23 -9 22 -90 -1 -102 -10 -5
-24 -7 -31 -5 -6 3 -26 -7 -43 -21 -17 -14 -34 -24 -39 -21 -4 2 3 33 15 67
12 35 26 83 30 108 11 65 13 67 45 50z m2374 -170 c104 -44 242 -32 353 30
l53 30 6 -24 c9 -37 -15 -508 -27 -522 -11 -14 -271 -165 -357 -208 -29 -15
-57 -24 -62 -21 -17 11 -46 131 -85 351 -22 124 -29 293 -16 355 10 46 10 55
-4 65 -8 6 -15 19 -15 28 0 13 13 7 53 -23 28 -22 74 -49 101 -61z m-1006
-142 c316 -147 517 -318 613 -522 16 -34 29 -66 29 -73 0 -6 31 -48 69 -93 93
-110 114 -197 61 -245 -26 -24 -42 -10 -77 67 -17 37 -44 75 -74 102 -37 33
-47 48 -42 65 3 11 1 21 -5 21 -6 0 -13 -18 -17 -40 -8 -45 -61 -100 -99 -100
-33 0 -36 7 -20 45 16 39 18 65 5 65 -5 0 -12 -16 -15 -35 -10 -52 -51 -95
-90 -95 -65 0 -125 104 -91 156 24 38 50 27 49 -19 -2 -44 19 -46 24 -2 3 21
-6 37 -37 69 -22 22 -51 66 -64 96 -23 52 -29 58 -118 107 -52 28 -170 89
-264 136 -140 70 -180 95 -223 140 -50 50 -52 55 -32 60 18 5 21 11 16 30 -5
21 -3 23 24 19 37 -5 50 20 25 48 -17 19 -17 20 36 17 51 -2 54 -1 52 21 -3
22 -2 22 80 16 69 -6 98 -15 185 -56z m1423 -916 c12 -101 19 -186 16 -189 -9
-8 -107 79 -211 187 -58 61 -85 95 -78 102 5 5 61 38 123 73 l114 64 7 -27 c4
-15 17 -109 29 -210z m1681 -12 c29 -22 80 -49 113 -59 37 -12 59 -24 58 -33
-1 -7 -14 -44 -28 -83 -15 -38 -32 -97 -39 -130 -11 -50 -16 -61 -35 -63 -43
-7 -110 76 -190 234 -28 56 -51 106 -51 112 0 5 15 13 34 16 19 4 45 15 58 26
13 11 24 19 25 20 2 0 26 -18 55 -40z m-2659 13 c4 -3 -5 -12 -19 -20 -33 -16
-34 -16 -34 1 0 20 39 34 53 19z m111 -156 c25 -48 46 -98 46 -111 0 -29 -24
-50 -47 -42 -15 6 -14 8 5 22 27 19 30 63 5 65 -10 1 -21 1 -25 0 -10 -1 -10
11 1 28 11 18 3 41 -14 41 -8 0 -15 12 -17 26 -2 15 -11 32 -21 38 -15 9 -22
7 -37 -12 -12 -14 -21 -18 -25 -12 -4 6 -5 12 -4 13 35 18 45 28 47 47 4 22 4
22 22 4 10 -11 39 -58 64 -107z m126 98 c0 -2 -10 -10 -22 -16 -21 -11 -22
-11 -9 4 13 16 31 23 31 12z m-415 -35 c3 -5 -3 -10 -14 -10 -11 0 -25 -8 -30
-17 -9 -16 -10 -16 -11 3 0 11 3 24 7 27 10 10 41 8 48 -3z m435 -15 c-33 -19
-49 -19 -24 0 10 8 26 14 34 14 9 0 4 -6 -10 -14z m-369 -70 c47 -84 70 -135
76 -169 5 -31 2 -37 -21 -47 -23 -11 -29 -10 -44 5 -16 17 -16 18 4 12 11 -3
29 0 40 8 15 12 17 18 8 33 -17 27 -58 29 -70 2 -9 -20 -13 -16 -42 39 -18 33
-32 61 -32 63 0 3 15 4 33 4 26 0 33 4 35 23 3 16 -2 25 -16 28 -14 4 -18 12
-14 30 5 29 11 25 43 -31z m149 -4 c0 -21 6 -32 21 -36 20 -7 23 -26 4 -27
-10 -1 -54 69 -55 85 0 4 7 7 15 7 10 0 15 -10 15 -29z m-227 3 c3 -3 3 -13 0
-21 -5 -12 -7 -12 -14 -1 -15 23 -4 40 14 22z m3639 -28 c5 -9 16 -16 24 -16
11 0 14 -6 8 -22 -10 -35 -35 -58 -61 -58 -16 0 -27 -8 -33 -25 -5 -13 -24
-32 -42 -41 -18 -9 -44 -26 -56 -38 l-24 -21 7 40 c4 22 16 62 26 88 11 26 19
58 19 70 0 13 5 28 12 35 17 17 109 8 120 -12z m-3732 -44 c0 -9 -169 -97
-175 -91 -3 4 162 98 173 99 1 0 2 -3 2 -8z m-271 -67 c22 -41 98 -215 106
-241 6 -23 -7 -37 -42 -48 -17 -5 -26 -1 -38 18 -15 23 -125 262 -125 271 0 9
56 34 69 32 8 -1 22 -15 30 -32z m291 31 c0 -7 -60 -40 -125 -70 -81 -37 -58
-17 39 33 79 41 86 44 86 37z m-50 -71 c-78 -41 -149 -71 -110 -47 51 32 167
91 180 91 8 0 -23 -20 -70 -44z m6 -46 c-32 -17 -60 -28 -62 -26 -6 6 87 54
106 55 8 1 -11 -13 -44 -29z m-86 -43 c0 -2 -7 -7 -16 -10 -8 -3 -12 -2 -9 4
6 10 25 14 25 6z m2370 -83 c25 -32 75 -93 112 -136 64 -75 77 -104 40 -93
-10 3 -62 10 -116 16 -100 10 -296 63 -296 80 0 5 24 21 52 37 34 18 70 50
102 91 28 34 53 62 56 62 3 0 25 -26 50 -57z m-2794 -101 l25 -42 -28 -11
c-44 -17 -135 -50 -167 -60 l-28 -8 18 22 c44 53 139 147 147 144 4 -1 19 -21
33 -45z m722 -44 c15 -13 16 -40 0 -56 -17 -17 -48 -15 -70 5 -49 44 16 93 70
51z m-187 -18 c38 -21 19 -70 -27 -70 -23 0 -40 46 -24 65 15 18 24 19 51 5z
m-785 -90 c8 -8 19 -7 39 0 15 6 30 8 33 6 8 -8 -38 -110 -56 -123 -9 -7 -28
-13 -44 -13 -25 0 -28 4 -28 33 0 64 12 107 29 107 9 0 22 -5 27 -10z m-683
-35 c21 9 39 -20 35 -57 -3 -31 -6 -33 -44 -36 -37 -3 -44 1 -82 42 -54 59
-54 74 1 78 30 2 47 -2 59 -14 9 -10 23 -16 31 -13z m1137 -7 c34 -74 31 -78
-55 -78 -82 0 -85 3 -58 53 29 52 45 67 70 67 19 0 28 -10 43 -42z m2182 -62
c61 -11 55 -26 -11 -26 -61 0 -77 9 -67 36 4 11 11 12 23 6 10 -5 35 -12 55
-16z"></path>
<path d="M3658 3803 c-39 -10 -15 -21 35 -16 47 5 56 2 84 -21 19 -16 34 -22
38 -16 22 35 -87 72 -157 53z"></path>
<path d="M2925 3666 c-57 -18 -107 -45 -100 -56 3 -4 24 1 47 12 23 11 68 26
100 32 32 6 58 14 58 18 0 12 -60 8 -105 -6z"></path>
<path d="M3730 3571 c-15 -29 -12 -114 5 -137 15 -19 15 -19 35 5 28 33 29
126 1 141 -26 14 -29 13 -41 -9z"></path>
<path d="M3010 3469 c-41 -23 -118 -25 -146 -4 -22 17 -34 19 -34 5 0 -17 58
-40 102 -40 49 0 133 34 123 50 -3 5 -7 10 -8 9 -1 0 -18 -9 -37 -20z"></path>
<path d="M3461 3231 c-6 -11 -11 -30 -11 -43 0 -40 -18 -48 -107 -48 -53 0
-83 -4 -83 -11 0 -7 32 -10 96 -8 95 3 97 2 116 -24 11 -15 24 -25 29 -21 5 3
0 17 -11 31 -22 28 -26 82 -10 113 6 12 7 21 1 25 -6 3 -15 -3 -20 -14z"></path>
<path d="M3460 1620 c-14 -4 -65 -20 -113 -34 -92 -27 -153 -54 -144 -63 3 -2
32 4 64 16 67 23 175 56 216 65 15 4 25 11 22 16 -7 11 -11 11 -45 0z"></path>
<path d="M3505 1583 c-68 -14 -147 -37 -151 -45 -7 -12 12 -10 75 7 31 8 77
17 104 20 26 3 47 10 47 16 0 9 -37 10 -75 2z"></path>
<path d="M2588 683 c-20 -5 -32 -33 -19 -46 5 -5 21 -7 36 -3 20 5 26 12 23
28 -3 23 -13 28 -40 21z"></path>
<path d="M4470 4980 c0 -5 -15 -16 -32 -24 -38 -16 -115 -92 -105 -103 4 -4
27 14 51 40 23 26 50 47 58 47 8 0 25 11 38 25 19 21 21 25 7 25 -9 0 -17 -4
-17 -10z"></path>
<path d="M4240 4850 c0 -5 16 -10 35 -10 19 0 35 5 35 10 0 6 -16 10 -35 10
-19 0 -35 -4 -35 -10z"></path>
<path d="M4190 4840 c0 -5 7 -10 15 -10 8 0 15 5 15 10 0 6 -7 10 -15 10 -8 0
-15 -4 -15 -10z"></path>
<path d="M4440 4793 c-76 -6 -90 -23 -18 -23 60 0 88 7 88 21 0 5 -3 8 -7 7
-5 -1 -33 -3 -63 -5z"></path>
<path d="M4200 4780 c0 -5 20 -10 45 -10 25 0 45 5 45 10 0 6 -20 10 -45 10
-25 0 -45 -4 -45 -10z"></path>
<path d="M4310 4770 c0 -5 7 -10 15 -10 8 0 15 5 15 10 0 6 -7 10 -15 10 -8 0
-15 -4 -15 -10z"></path>
</g>
</svg>