 <svg version="1.0" xmlns="http://www.w3.org/2000/svg" width="700.000000pt" height="438.000000pt" viewBox="0 0 700.000000 438.000000" preserveAspectRatio="xMidYMid meet">
<metadata>
Created by potrace 1.12, written by Peter Selinger 2001-2015
</metadata>
<g transform="translate(0.000000,438.000000) scale(0.100000,-0.100000)" fill="#000000" stroke="none">
<path d="M0 2190 l0 -2190 290 0 290 0 0 1153 c0 635 2 1156 6 1159 3 3 26 -4
52 -17 26 -12 83 -37 127 -55 44 -18 86 -38 93 -43 9 -7 17 -6 24 1 21 21 66
13 101 -18 19 -16 44 -30 55 -30 12 0 30 -13 42 -30 12 -16 26 -30 31 -30 5 0
27 -11 49 -25 22 -14 53 -25 69 -25 19 0 43 -11 65 -30 19 -17 55 -42 81 -55
43 -23 48 -24 76 -10 27 14 36 14 110 -7 80 -21 83 -22 198 -5 64 9 158 30
210 47 52 17 114 34 138 37 24 3 43 10 43 16 0 6 -19 7 -49 3 -43 -6 -50 -4
-63 16 -29 45 -91 188 -85 195 4 3 38 -15 76 -40 38 -26 81 -49 94 -52 13 -4
34 -20 46 -36 16 -22 30 -29 55 -29 24 0 40 -7 53 -23 11 -15 41 -30 83 -41
82 -22 99 -33 143 -95 41 -56 38 -62 -33 -81 -137 -37 -234 -137 -248 -255 -4
-40 -2 -45 21 -54 19 -7 27 -21 37 -59 6 -28 22 -60 36 -73 32 -30 30 -45 -6
-64 -39 -20 -38 -36 5 -74 78 -68 176 -94 322 -85 112 7 130 0 142 -56 5 -27
12 -36 31 -38 13 -2 56 -28 94 -58 72 -56 98 -63 104 -30 3 14 0 17 -12 13 -8
-3 -18 -2 -21 4 -12 18 26 21 46 3 25 -22 47 -12 69 34 8 17 24 38 35 46 11 8
17 18 13 21 -11 12 -109 -24 -141 -51 -61 -51 -66 -15 -5 38 29 25 37 38 26
38 -9 0 -32 -18 -51 -40 -36 -43 -47 -49 -47 -26 0 8 23 35 52 60 29 25 48 49
44 53 -4 4 -30 -16 -57 -46 -47 -50 -51 -52 -64 -35 -11 16 -11 23 3 47 10 16
27 37 39 47 33 26 117 33 182 16 30 -9 58 -13 62 -10 4 2 11 -1 14 -6 4 -6 18
-15 31 -20 32 -13 30 -27 -6 -48 -16 -9 -30 -20 -30 -23 0 -10 293 0 303 10
16 16 -4 32 -31 26 -15 -3 -53 -6 -85 -7 -32 -1 -60 -5 -63 -10 -10 -16 -33
13 -40 48 -5 27 -14 38 -41 49 -20 8 -44 15 -54 15 -25 0 -24 8 4 31 18 15 32
18 78 13 l56 -6 72 67 c39 37 74 78 77 91 3 13 9 24 13 24 7 -1 104 -141 99
-144 -15 -8 -204 -67 -245 -76 -50 -11 -64 -22 -44 -34 14 -9 146 21 193 44
23 11 56 22 75 26 31 6 34 4 49 -31 19 -47 13 -70 -16 -55 -26 14 -35 8 -56
-35 -20 -44 -16 -80 11 -80 17 0 20 7 20 44 0 54 21 66 38 22 15 -39 31 -40
22 -1 -6 27 -3 31 32 45 26 12 54 15 91 12 39 -4 52 -2 52 8 0 15 -22 25 -55
25 -17 0 -32 13 -52 42 -16 24 -37 44 -47 46 -16 3 -13 -3 12 -34 33 -40 42
-74 18 -74 -7 0 -21 21 -31 48 -10 26 -33 66 -52 89 -18 23 -54 75 -78 115
l-45 72 0 109 c0 94 -3 116 -22 155 -62 123 -230 193 -349 145 -36 -14 -50
-15 -99 -5 -96 20 -150 15 -216 -18 -48 -24 -67 -29 -100 -24 -26 4 -54 0 -78
-10 -21 -9 -40 -16 -41 -16 -1 0 -25 31 -53 68 -49 66 -52 69 -129 92 -43 13
-89 34 -104 47 -14 13 -36 23 -50 23 -16 0 -38 13 -59 35 -19 19 -41 35 -50
35 -9 0 -48 20 -86 45 -70 45 -127 58 -151 34 -11 -11 -75 10 -87 30 -4 6 -27
24 -51 41 -36 25 -64 33 -147 46 -57 8 -138 27 -182 42 -73 25 -79 30 -91 64
-23 67 -43 91 -73 84 -88 -19 -149 -18 -197 3 -39 17 -54 19 -84 11 -20 -5
-54 -10 -77 -10 -47 0 -78 -19 -73 -45 3 -12 33 -30 99 -57 52 -21 127 -52
165 -69 39 -17 90 -39 115 -49 25 -10 65 -26 90 -36 25 -10 95 -47 155 -82 61
-35 146 -79 190 -98 84 -37 103 -49 92 -60 -3 -4 -29 3 -56 15 -27 11 -66 21
-85 21 -28 0 -46 10 -86 45 -72 64 -98 75 -178 75 -38 0 -93 5 -122 10 -66 13
-144 61 -160 100 -24 58 -38 63 -190 67 -109 2 -148 0 -182 -13 -24 -8 -53
-18 -65 -21 l-23 -5 0 1006 0 1006 -290 0 -290 0 0 -2190z m1293 312 l20 -33
-34 -32 c-19 -18 -39 -41 -44 -51 -9 -17 -12 -17 -40 -2 -17 8 -66 31 -110 50
-57 25 -80 40 -80 53 0 15 10 18 65 19 36 1 88 9 115 17 67 21 86 18 108 -21z
m140 -112 c39 -11 114 -27 165 -35 73 -12 104 -22 139 -46 l45 -31 -35 -29
c-19 -16 -42 -47 -51 -69 -9 -22 -18 -40 -22 -40 -14 0 -169 82 -260 138 -28
17 -67 38 -87 47 -44 18 -47 36 -11 64 32 26 28 26 117 1z m-442 -20 c10 -6
19 -16 19 -22 0 -7 9 -22 21 -34 l20 -21 -25 -37 c-13 -20 -27 -42 -29 -49 -3
-8 -11 -4 -22 11 -14 20 -25 23 -64 21 -52 -3 -130 17 -147 38 -7 8 -9 23 -7
34 5 18 11 20 47 15 35 -5 48 -1 85 24 47 32 70 36 102 20z m147 -135 c34 -18
195 -39 223 -30 24 8 75 -19 120 -62 l37 -35 -28 -42 c-16 -23 -32 -54 -35
-69 -4 -15 -11 -30 -16 -32 -4 -3 -33 12 -65 32 -31 21 -68 46 -83 55 -14 10
-39 18 -54 18 -30 0 -106 40 -128 66 -7 9 -23 20 -36 25 -28 11 -29 29 -2 63
24 30 26 31 67 11z m772 -19 c31 -11 38 -22 67 -92 29 -70 30 -79 15 -83 -9
-2 -26 -10 -37 -17 -11 -8 -30 -14 -42 -14 -24 0 -117 40 -145 63 -31 25 -21
92 20 140 18 20 70 22 122 3z m-235 -151 c33 -9 87 -28 120 -41 33 -13 66 -24
73 -24 24 0 12 -28 -15 -34 -68 -15 -231 -18 -284 -6 -70 17 -70 16 -57 48 22
50 65 86 93 78 6 -2 37 -11 70 -21z m1629 -145 c55 -26 107 -77 130 -125 9
-19 16 -59 16 -95 0 -56 -2 -61 -20 -55 -22 7 -73 -22 -64 -37 3 -5 13 -3 23
6 9 8 25 14 36 12 18 -3 20 -12 23 -82 3 -75 1 -83 -27 -120 -16 -23 -49 -57
-72 -77 -42 -34 -46 -35 -89 -26 -25 6 -57 13 -72 16 -15 3 -50 27 -78 54 -28
27 -53 49 -56 49 -14 0 2 -27 40 -68 41 -44 44 -50 33 -72 -8 -16 -21 -25 -36
-25 -19 0 -34 17 -77 89 -30 49 -54 93 -54 97 0 21 17 5 39 -37 27 -50 73 -94
99 -94 11 0 2 13 -26 36 -23 20 -49 49 -57 64 -13 25 -13 30 1 40 20 17 9 25
-33 25 -30 0 -38 5 -52 32 -16 33 -34 45 -29 19 2 -8 -1 -16 -7 -18 -17 -5
-18 44 -2 54 8 4 18 26 22 48 4 22 10 40 13 40 14 0 32 -54 22 -64 -14 -14
-12 -52 3 -63 18 -15 56 -22 62 -12 3 4 1 16 -4 26 -5 10 -21 45 -36 78 -26
56 -27 64 -17 127 7 45 18 78 36 101 31 40 103 78 134 70 11 -2 28 -1 37 5 27
15 88 7 139 -18z m-316 1 c11 -7 8 -17 -14 -51 -15 -23 -30 -61 -33 -83 l-6
-42 -64 -10 c-48 -8 -67 -15 -79 -33 -17 -26 -8 -44 11 -19 11 16 116 41 127
31 2 -3 -1 -13 -8 -22 -6 -9 -24 -38 -38 -65 -21 -36 -32 -46 -46 -41 -34 10
-18 -16 45 -79 58 -56 96 -112 97 -141 1 -6 14 -27 30 -46 17 -19 30 -37 30
-41 0 -4 -15 -10 -34 -13 -19 -4 -51 -18 -71 -32 -29 -20 -40 -22 -51 -13 -22
18 -29 2 -9 -21 15 -17 16 -20 3 -20 -9 0 -37 25 -63 55 -25 30 -51 55 -56 55
-24 0 -4 -33 52 -84 57 -53 73 -86 29 -58 -11 7 -25 12 -31 12 -5 0 -22 14
-36 30 l-25 30 -127 0 c-141 0 -207 14 -273 57 l-39 26 28 31 c15 17 43 48 62
68 34 37 34 38 16 58 -18 20 -44 18 -26 -4 6 -8 3 -19 -9 -36 -22 -28 -22 -26
-20 45 2 89 26 152 79 205 26 26 65 53 87 60 21 7 65 30 98 52 32 21 60 37 62
35 2 -1 1 -13 -3 -25 -3 -14 -13 -22 -27 -22 -22 -1 -63 -26 -55 -35 3 -2 27
1 55 8 l49 12 0 46 c0 55 11 70 78 104 40 20 66 25 121 25 39 0 77 -4 84 -9z
m-293 -40 c7 -12 -85 -76 -170 -119 -33 -17 -77 -48 -97 -69 -40 -41 -77 -114
-78 -150 0 -13 -5 -23 -11 -23 -8 0 -10 -12 -6 -33 3 -19 1 -40 -3 -48 -11
-17 -13 -14 -28 46 -8 30 -22 58 -37 70 -21 18 -24 27 -19 55 10 55 51 117 99
150 57 39 77 38 38 -2 -17 -18 -39 -48 -48 -67 -21 -42 -33 -151 -16 -151 6 0
11 16 11 38 0 69 20 113 75 171 51 53 74 68 185 120 47 22 95 27 105 12z m285
-311 c0 -5 -4 -10 -10 -10 -5 0 -10 5 -10 10 0 6 5 10 10 10 6 0 10 -4 10 -10z
m191 -273 c-1 -12 -15 -9 -19 4 -3 6 1 10 8 8 6 -3 11 -8 11 -12z m-308 -185
c9 -8 16 -17 14 -19 -7 -7 -77 27 -77 38 0 13 39 2 63 -19z m177 -42 c0 -5 -5
-10 -11 -10 -5 0 -7 5 -4 10 3 6 8 10 11 10 2 0 4 -4 4 -10z"></path>
<path d="M3212 1779 c2 -7 10 -15 17 -17 8 -3 12 1 9 9 -2 7 -10 15 -17 17 -8
3 -12 -1 -9 -9z"></path>
<path d="M3392 1724 c-22 -15 -29 -34 -13 -34 5 0 19 8 32 18 28 23 11 37 -19
16z"></path>
<path d="M3148 1674 c-16 -8 -28 -18 -28 -23 0 -15 12 -20 29 -11 9 5 24 11
34 14 19 6 24 36 5 36 -7 -1 -25 -8 -40 -16z"></path>
<path d="M3178 1589 c-18 -10 -25 -39 -9 -39 5 0 14 7 22 16 9 11 22 14 41 10
21 -4 28 -2 28 9 0 18 -55 20 -82 4z"></path>
<path d="M3392 1579 c2 -6 8 -10 13 -10 5 0 11 4 13 10 2 6 -4 11 -13 11 -9 0
-15 -5 -13 -11z"></path>
<path d="M3204 1539 c-3 -6 -1 -16 4 -21 13 -13 45 8 36 23 -7 12 -31 11 -40
-2z"></path>
<path d="M3300 1460 c0 -5 5 -10 10 -10 6 0 10 5 10 10 0 6 -4 10 -10 10 -5 0
-10 -4 -10 -10z"></path>
<path d="M3299 1401 c-13 -11 -20 -23 -16 -27 10 -10 60 17 59 31 -1 17 -19
16 -43 -4z"></path>
<path d="M2806 1508 c-5 -28 -1 -37 31 -71 21 -21 61 -50 88 -63 49 -23 49
-23 22 -1 -98 77 -117 99 -117 133 0 43 -15 44 -24 2z"></path>
<path d="M1840 4360 c0 -17 -7 -20 -48 -20 -27 0 -62 -7 -78 -15 -68 -33 -96
-96 -46 -103 18 -3 21 -9 19 -35 -2 -26 2 -33 21 -35 12 -2 34 6 48 17 23 18
35 20 103 15 56 -5 85 -12 111 -30 58 -39 100 -80 100 -97 0 -25 18 -30 44
-13 22 14 25 13 39 -2 8 -9 20 -27 26 -39 22 -43 66 -24 73 31 5 44 31 56 62
27 30 -28 56 -22 56 13 0 16 -16 39 -51 70 -61 55 -61 65 8 149 31 38 50 54
57 47 5 -5 11 -75 12 -156 4 -166 6 -172 82 -206 l43 -20 37 38 c37 38 37 39
37 124 1 53 7 100 17 125 8 22 18 61 21 88 l7 47 -97 0 c-55 0 -93 -4 -87 -9
17 -16 77 -31 122 -31 38 0 43 -2 37 -17 -4 -10 -11 -35 -15 -55 -10 -49 -26
-68 -60 -68 -28 0 -95 39 -117 68 -7 9 -13 37 -13 64 l0 48 -42 0 c-41 -1 -45
-3 -73 -51 -36 -62 -77 -90 -103 -71 -9 7 -31 19 -48 27 -19 9 -37 29 -49 54
-19 44 -25 47 -42 30 -8 -8 -21 -8 -48 1 -29 10 -46 9 -81 0 -34 -10 -48 -10
-57 -1 -17 17 -27 13 -27 -9z m173 -18 c27 -10 49 -23 49 -28 0 -5 4 -19 9
-32 6 -16 5 -28 -5 -37 -7 -8 -16 -12 -19 -9 -3 3 -11 -5 -18 -18 -18 -34 -30
-38 -60 -22 -16 8 -40 14 -54 14 -16 0 -24 4 -20 10 4 7 24 8 51 4 36 -5 45
-3 50 11 9 22 -15 65 -43 76 -22 8 -30 29 -16 42 10 11 24 8 76 -11z m-103
-22 c4 -16 16 -29 36 -35 19 -7 28 -16 26 -27 -3 -14 -8 -15 -33 -6 -26 9 -35
7 -59 -11 -18 -12 -45 -21 -67 -21 -21 0 -47 -7 -57 -15 -11 -8 -26 -15 -34
-15 -26 0 -6 24 43 50 46 25 69 50 46 50 -5 0 -30 -11 -55 -24 -26 -14 -55
-22 -66 -19 -28 8 -25 22 8 28 15 4 46 15 70 26 23 10 53 19 66 19 13 0 27 7
30 16 9 23 39 13 46 -16z m250 -105 c0 -18 -6 -38 -13 -42 -8 -4 -22 -20 -32
-35 -19 -30 -37 -35 -53 -15 -7 8 -6 16 4 25 8 7 14 9 14 5 0 -18 21 17 26 43
8 47 12 54 34 54 16 0 20 -6 20 -35z m72 -2 c6 -16 36 -51 67 -80 31 -28 53
-54 49 -59 -5 -4 -16 1 -27 10 -12 11 -31 16 -53 14 -30 -3 -33 -6 -36 -38 -1
-19 -5 -41 -8 -49 -7 -22 -34 7 -34 39 0 15 -7 33 -15 40 -13 11 -21 9 -46 -9
-49 -36 -46 -16 4 38 34 36 47 58 47 80 0 26 9 38 33 40 4 1 13 -11 19 -26z"></path>
<path d="M2671 4343 c-32 -125 -41 -170 -52 -278 -13 -140 -23 -174 -92 -314
-61 -127 -72 -190 -36 -215 13 -9 39 -16 59 -16 l36 0 0 55 c1 66 -10 72 -22
13 -8 -36 -13 -43 -33 -43 -20 0 -27 7 -33 33 -12 44 16 122 42 122 11 0 29
18 44 44 15 25 31 48 36 51 6 4 9 -34 7 -99 l-2 -105 45 -46 c81 -84 281 -209
373 -234 49 -13 70 -5 132 51 28 24 70 56 95 70 25 15 58 41 73 59 25 30 27
39 23 89 -3 30 -8 100 -11 155 -9 139 -40 344 -70 445 -30 105 -24 115 50 94
28 -7 62 -13 76 -14 15 0 32 -7 39 -15 16 -19 49 -19 56 0 4 10 15 12 35 8 21
-4 30 -1 35 11 12 31 24 16 24 -29 0 -66 21 -69 78 -12 41 41 46 51 50 102 l5
56 -108 -3 c-104 -3 -108 -4 -110 -25 -3 -35 -13 -39 -38 -15 -37 35 -41 12
-5 -25 23 -24 29 -36 21 -44 -13 -13 -54 11 -77 47 -10 15 -33 28 -61 35 -25
6 -45 15 -45 20 0 5 -16 9 -35 9 l-35 0 0 -100 c0 -57 4 -100 10 -100 18 0 41
-104 65 -298 27 -212 31 -292 14 -325 -18 -35 -60 -76 -114 -113 -27 -19 -68
-47 -89 -64 -49 -38 -76 -38 -151 0 -102 51 -259 158 -292 198 -9 11 -13 57
-13 148 0 73 -4 135 -9 139 -5 3 -29 -17 -52 -45 -47 -56 -60 -60 -31 -9 30
51 50 126 57 209 8 96 31 231 50 294 18 58 18 66 5 66 -5 0 -14 -17 -19 -37z
m709 -23 c26 -17 4 -20 -41 -6 l-44 14 35 1 c19 0 42 -3 50 -9z"></path>
<path d="M2834 4356 c35 -29 126 -56 186 -56 62 0 129 -35 146 -76 48 -114
105 -434 107 -591 1 -121 11 -148 23 -57 9 75 -2 189 -37 374 -35 187 -72 303
-105 329 -33 26 -30 39 10 56 18 8 36 21 39 30 9 21 -5 19 -60 -11 -40 -23
-60 -27 -128 -27 -69 -1 -90 3 -137 26 -67 33 -82 34 -44 3z"></path>
<path d="M5626 4358 c-15 -73 -27 -178 -41 -373 -18 -247 -31 -346 -48 -368
-16 -20 -152 -47 -238 -47 -56 0 -73 -4 -89 -20 -11 -11 -20 -25 -20 -30 0
-39 88 -106 207 -159 81 -35 158 -48 149 -25 -3 9 6 19 27 28 18 7 46 30 62
50 17 20 45 54 63 76 41 48 92 198 121 356 12 60 28 134 36 164 24 84 45 227
45 303 l0 67 -135 0 c-132 0 -135 -1 -139 -22z"></path>
<path d="M6250 4373 c0 -4 17 -68 37 -142 36 -130 38 -143 38 -291 0 -141 -2
-160 -23 -209 -47 -108 -134 -199 -230 -240 -68 -28 -92 -22 -63 15 22 29 27
44 12 44 -5 0 -21 -21 -37 -47 -15 -26 -45 -66 -67 -90 -32 -35 -46 -43 -74
-43 -51 0 -93 25 -100 61 -7 35 -21 47 -29 25 -3 -9 2 -28 11 -43 17 -25 17
-27 1 -39 -9 -6 -47 -17 -84 -24 -37 -7 -71 -15 -76 -18 -4 -2 11 -21 35 -42
44 -37 44 -38 41 -98 -3 -79 14 -96 59 -58 42 36 74 34 113 -9 38 -42 55 -43
86 -10 13 14 33 25 45 25 12 0 30 9 40 20 25 28 110 53 182 55 53 1 67 5 91
28 15 15 36 27 45 27 24 0 21 13 -13 64 -31 46 -41 50 -154 68 -10 2 -24 11
-29 20 -9 13 -5 23 16 45 91 93 169 190 194 240 28 57 28 60 27 233 0 158 -3
183 -26 260 -14 47 -31 106 -38 133 -7 26 -17 47 -21 47 -5 0 -9 -3 -9 -7z
m-150 -908 c-14 -16 -40 -20 -40 -6 0 10 17 19 39 20 11 1 11 -2 1 -14z m57
-111 c30 -19 70 -36 89 -40 35 -6 44 -18 21 -27 -18 -7 -98 22 -123 44 -24 22
-37 24 -32 5 2 -7 23 -29 47 -47 25 -19 43 -39 40 -44 -6 -15 -24 -8 -91 36
-34 21 -71 39 -82 39 -50 1 -59 33 -11 42 13 2 21 12 23 28 6 53 12 57 39 26
14 -16 50 -44 80 -62z m-142 66 c-3 -5 -11 -10 -16 -10 -6 0 -7 5 -4 10 3 6
11 10 16 10 6 0 7 -4 4 -10z m228 -67 c18 -6 24 -23 7 -23 -5 0 -21 5 -35 12
-28 12 -35 34 -7 23 9 -4 25 -10 35 -12z m-423 -36 c0 -28 37 -64 103 -102 64
-37 47 -54 -19 -19 -27 15 -55 34 -61 42 -27 33 -26 -2 1 -49 38 -69 22 -81
-34 -24 -24 25 -51 45 -60 45 -8 0 -28 -16 -43 -35 -16 -20 -32 -33 -38 -30
-20 13 -7 46 37 97 26 29 53 68 60 86 13 28 17 31 34 22 11 -6 20 -21 20 -33z
m-89 0 c-10 -9 -11 -8 -5 6 3 10 9 15 12 12 3 -3 0 -11 -7 -18z m163 10 c-5
-14 29 -17 42 -4 4 4 13 -2 21 -13 8 -11 31 -23 53 -26 21 -4 53 -16 72 -27
l33 -21 -40 -6 c-22 -3 -49 -11 -59 -17 -14 -8 -23 -8 -32 1 -7 6 -40 26 -73
45 -42 24 -57 37 -49 43 10 6 10 8 1 8 -22 0 -14 18 10 23 12 2 23 5 24 6 1 0
0 -5 -3 -12z m-189 -27 c-1 -11 -8 -28 -17 -36 -14 -14 -16 -14 -21 1 -4 9 -1
18 8 21 8 4 15 12 15 20 0 8 4 14 8 14 5 0 8 -9 7 -20z m200 -140 c3 -5 2 -10
-4 -10 -5 0 -13 5 -16 10 -3 6 -2 10 4 10 5 0 13 -4 16 -10z"></path>
<path d="M6420 2190 l0 -2190 290 0 290 0 0 2190 0 2190 -290 0 -290 0 0
-2190z"></path>
<path d="M2917 4133 c-3 -5 19 -34 49 -64 70 -68 128 -143 184 -239 l45 -75 3
-137 c2 -76 7 -138 12 -138 16 0 23 130 12 215 -10 73 -17 92 -53 145 -22 33
-39 66 -36 74 7 17 9 14 -110 130 -55 54 -103 94 -106 89z"></path>
<path d="M3173 3865 c23 -46 43 -61 32 -22 -10 31 -34 67 -45 67 -5 0 1 -20
13 -45z"></path>
<path d="M2580 3680 c0 -16 5 -30 10 -30 6 0 10 14 10 30 0 17 -4 30 -10 30
-5 0 -10 -13 -10 -30z"></path>
<path d="M6027 3612 c-22 -25 -21 -35 2 -27 11 3 22 1 26 -5 10 -16 25 -12 25
8 0 18 -18 42 -30 42 -4 0 -14 -8 -23 -18z"></path>
<path d="M6151 3595 c-19 -14 -40 -26 -45 -28 -6 -3 -8 -8 -4 -12 8 -8 68 26
88 50 18 22 0 17 -39 -10z"></path>
<path d="M5897 3475 c-22 -19 -39 -25 -78 -25 -27 0 -49 -4 -49 -10 0 -5 23
-10 50 -10 44 0 55 5 88 35 42 39 32 48 -11 10z"></path>
<path d="M2585 3458 c12 -53 47 -98 98 -124 61 -31 83 -68 90 -151 6 -60 10
-68 44 -98 29 -25 41 -30 51 -22 10 8 20 3 39 -22 14 -18 73 -68 131 -112 117
-88 151 -98 190 -56 35 37 29 83 -18 146 -22 29 -43 64 -46 78 -8 31 10 73 32
73 8 0 32 18 51 40 20 22 42 40 48 40 13 0 70 79 62 86 -2 2 -37 -28 -78 -67
-41 -39 -88 -77 -106 -85 -19 -8 -33 -22 -35 -36 -2 -18 -12 -24 -48 -30 -79
-14 -207 33 -195 72 4 13 -3 25 -24 39 -16 12 -33 21 -38 21 -5 0 -41 27 -79
60 -38 33 -76 60 -86 60 -16 0 -68 80 -68 106 0 8 -5 14 -11 14 -7 0 -8 -11
-4 -32z"></path>
<path d="M3350 3405 c0 -19 4 -35 9 -35 11 0 21 38 14 56 -10 26 -23 14 -23
-21z"></path>
<path d="M2910 3201 c0 -7 8 -14 18 -17 9 -3 25 -10 34 -15 10 -5 26 -9 36 -9
10 0 23 -5 30 -12 9 -9 13 -7 18 6 4 10 10 13 18 8 20 -16 45 -21 51 -12 3 5
-6 17 -20 26 -19 12 -28 14 -38 5 -13 -10 -77 1 -129 24 -11 4 -18 3 -18 -4z"></path>
<path d="M1040 2701 c0 -18 166 -108 178 -96 4 4 0 11 -8 16 -147 89 -170 100
-170 80z"></path>
<path d="M1200 2672 c0 -12 80 -55 88 -47 10 9 -49 55 -70 55 -10 0 -18 -4
-18 -8z"></path>
<path d="M1440 2550 c0 -5 6 -10 14 -10 7 0 19 -7 26 -15 16 -19 30 -19 30 0
0 16 -30 35 -54 35 -9 0 -16 -4 -16 -10z"></path>
<path d="M2057 2394 c-11 -11 3 -24 24 -24 12 0 19 5 17 13 -5 14 -31 21 -41
11z"></path>
<path d="M2340 2276 c-10 -13 -9 -17 4 -22 22 -8 49 3 44 19 -7 18 -33 20 -48
3z"></path>
<path d="M2530 2170 c0 -32 23 -51 42 -32 7 7 4 18 -7 36 -23 34 -35 33 -35
-4z"></path>
<path d="M930 2160 c0 -5 5 -10 10 -10 6 0 10 5 10 10 0 6 -4 10 -10 10 -5 0
-10 -4 -10 -10z"></path>
<path d="M830 2122 c0 -26 72 -69 160 -97 32 -10 64 -28 77 -43 16 -19 25 -24
33 -16 20 20 -31 63 -119 99 -46 19 -94 41 -107 50 -26 17 -44 20 -44 7z"></path>
<path d="M2744 2057 c-7 -19 14 -60 27 -52 14 9 11 41 -6 55 -12 10 -16 9 -21
-3z"></path>
<path d="M2665 2040 c-4 -6 5 -10 19 -10 14 0 26 5 26 10 0 6 -9 10 -19 10
-11 0 -23 -4 -26 -10z"></path>
<path d="M2615 2020 c-3 -5 1 -10 9 -10 8 0 18 5 21 10 3 6 -1 10 -9 10 -8 0
-18 -4 -21 -10z"></path>
<path d="M2898 2023 c-45 -7 -32 -22 17 -20 46 2 57 10 29 21 -9 3 -16 5 -17
5 -1 -1 -14 -4 -29 -6z"></path>
<path d="M2530 2010 c0 -5 5 -10 10 -10 6 0 10 5 10 10 0 6 -4 10 -10 10 -5 0
-10 -4 -10 -10z"></path>
<path d="M1156 1941 c-7 -10 43 -46 51 -37 7 7 -26 46 -38 46 -4 0 -10 -4 -13
-9z"></path>
<path d="M1597 1804 c-11 -11 3 -24 24 -24 12 0 19 5 17 13 -5 14 -31 21 -41
11z"></path>
<path d="M1827 1713 c-4 -3 -7 -15 -7 -26 0 -13 5 -17 16 -13 9 3 18 6 20 6 2
0 4 9 4 20 0 19 -20 27 -33 13z"></path>
<path d="M3790 1515 c0 -18 5 -25 19 -25 26 0 36 17 21 35 -19 23 -40 18 -40
-10z"></path>
<path d="M1737 1523 c-4 -3 -7 -15 -7 -26 0 -14 5 -17 16 -13 10 4 25 -1 35
-10 16 -15 17 -14 12 8 -10 41 -37 61 -56 41z"></path>
<path d="M2109 1474 c-11 -14 -10 -18 6 -30 27 -20 32 -18 31 16 -1 33 -16 39
-37 14z"></path>
<path d="M1720 1425 c0 -16 27 -32 37 -21 7 7 -16 36 -28 36 -5 0 -9 -7 -9
-15z"></path>
<path d="M1870 1423 c1 -9 84 -76 101 -82 6 -2 -12 18 -39 43 -48 45 -62 54
-62 39z"></path>
<path d="M3950 1402 c-47 -23 -44 -35 9 -44 54 -9 59 -6 53 32 -5 35 -14 37
-62 12z m40 -22 c0 -5 -4 -10 -10 -10 -5 0 -10 5 -10 10 0 6 5 10 10 10 6 0
10 -4 10 -10z"></path>
<path d="M2123 1353 c-25 -10 -12 -22 17 -16 34 6 43 -15 10 -24 -11 -3 -20
-9 -20 -14 0 -12 3 -12 47 10 21 11 46 22 56 25 34 11 6 26 -46 25 -29 0 -58
-3 -64 -6z"></path>
<path d="M1850 1335 c0 -15 74 -107 105 -130 46 -36 52 -31 9 8 -21 17 -55 54
-76 80 -21 27 -38 46 -38 42z"></path>
<path d="M2083 1220 c9 -14 31 -34 49 -44 18 -10 29 -15 23 -10 -5 5 -27 25
-49 44 -31 28 -36 30 -23 10z"></path>
<path d="M2931 1172 c-30 -42 -26 -50 5 -12 15 17 24 33 21 36 -2 3 -14 -8
-26 -24z"></path>
<path d="M3675 1169 c-10 -15 3 -25 16 -12 7 7 7 13 1 17 -6 3 -14 1 -17 -5z"></path>
<path d="M4237 1157 c-13 -20 -13 -26 -1 -42 15 -20 16 -20 33 12 11 21 6 53
-9 53 -4 0 -14 -10 -23 -23z"></path>
<path d="M1956 1152 c-3 -5 8 -19 24 -30 32 -24 40 -27 40 -13 0 14 -58 53
-64 43z"></path>
<path d="M2220 1140 c0 -5 5 -10 10 -10 6 0 10 5 10 10 0 6 -4 10 -10 10 -5 0
-10 -4 -10 -10z"></path>
<path d="M2085 1132 c6 -6 24 -14 40 -18 21 -4 27 -3 20 4 -5 6 -23 14 -40 18
-21 4 -27 3 -20 -4z"></path>
<path d="M2260 1131 c0 -11 26 -22 34 -14 3 3 3 10 0 14 -7 12 -34 11 -34 0z"></path>
<path d="M3732 1089 c2 -7 10 -15 17 -17 8 -3 12 1 9 9 -2 7 -10 15 -17 17 -8
3 -12 -1 -9 -9z"></path>
<path d="M4105 1090 c-7 -11 2 -30 13 -30 4 0 13 9 20 20 11 17 10 20 -7 20
-11 0 -23 -4 -26 -10z"></path>
<path d="M2309 1058 c-2 -39 2 -62 18 -91 16 -32 61 -53 82 -40 25 16 24 32
-2 38 -36 9 -78 57 -75 85 2 12 -3 25 -9 27 -8 3 -13 -5 -14 -19z m78 -114
c-9 -10 -38 16 -31 28 4 6 13 4 22 -6 9 -8 13 -19 9 -22z"></path>
<path d="M2264 1051 c21 -23 26 -26 26 -11 0 5 -10 15 -22 21 -23 12 -23 12
-4 -10z"></path>
<path d="M3145 1020 c-6 -10 42 -46 51 -37 8 8 -4 25 -26 37 -12 6 -21 7 -25
0z"></path>
<path d="M4197 999 c-17 -39 -79 -99 -102 -99 -8 0 -15 -4 -15 -10 0 -5 5 -10
12 -10 16 0 88 50 88 62 0 5 10 22 21 37 12 16 19 35 16 43 -3 8 -11 -1 -20
-23z"></path>
<path d="M3512 978 c3 -22 -1 -23 -60 -26 -50 -2 -71 1 -99 18 -21 12 -33 15
-31 8 15 -46 157 -64 217 -27 35 21 33 32 -7 44 -19 5 -22 3 -20 -17z"></path>
<path d="M2516 981 c-5 -7 9 -11 43 -11 58 0 74 -15 40 -41 -13 -10 -21 -21
-17 -24 4 -4 23 6 42 21 31 25 34 31 21 43 -18 18 -120 28 -129 12z"></path>
<path d="M4010 965 c-8 -9 -8 -15 -2 -15 18 0 42 12 42 21 0 14 -26 10 -40 -6z"></path>
<path d="M2460 960 c0 -5 5 -10 10 -10 6 0 10 5 10 10 0 6 -4 10 -10 10 -5 0
-10 -4 -10 -10z"></path>
<path d="M3630 951 c-10 -21 3 -40 15 -21 3 5 22 10 41 10 35 0 46 13 18 24
-31 12 -63 6 -74 -13z"></path>
<path d="M3030 951 c0 -5 18 -23 39 -40 27 -21 50 -31 74 -31 48 0 52 11 17
45 -28 27 -45 24 -18 -3 9 -9 7 -13 -6 -18 -11 -4 -33 4 -62 24 -24 18 -44 28
-44 23z"></path>
<path d="M3904 927 c-38 -33 -102 -67 -123 -67 -6 0 -11 -4 -11 -10 0 -14 9
-12 50 8 64 32 140 85 134 93 -7 12 -6 13 -50 -24z"></path>
<path d="M2450 910 c0 -5 7 -10 15 -10 8 0 15 5 15 10 0 6 -7 10 -15 10 -8 0
-15 -4 -15 -10z"></path>
<path d="M4030 880 c0 -5 7 -10 15 -10 8 0 15 5 15 10 0 6 -7 10 -15 10 -8 0
-15 -4 -15 -10z"></path>
<path d="M3965 860 c-3 -6 1 -7 9 -4 18 7 21 14 7 14 -6 0 -13 -4 -16 -10z"></path>
<path d="M3671 839 c-18 -7 -21 -12 -12 -23 6 -8 23 -16 36 -19 20 -3 23 -2
14 9 -9 11 -7 15 5 20 9 3 16 10 16 15 0 11 -28 11 -59 -2z"></path>
<path d="M2786 821 c-3 -5 1 -14 9 -21 12 -10 18 -10 30 0 8 7 25 10 39 6 27
-7 86 -80 86 -107 0 -16 36 -37 45 -27 9 9 -98 140 -121 148 -32 12 -81 13
-88 1z"></path>
<path d="M3897 812 c-18 -20 -22 -32 -9 -32 10 1 45 50 34 50 -5 0 -16 -8 -25
-18z"></path>
<path d="M2520 803 c0 -6 13 -16 30 -23 16 -7 35 -18 41 -26 6 -8 16 -14 22
-14 7 0 7 4 -1 12 -24 24 -14 38 19 26 36 -12 50 -4 19 12 -30 16 -130 26
-130 13z"></path>
<path d="M2392 782 c15 -37 159 -124 177 -107 8 8 -20 33 -52 46 -18 7 -48 25
-68 41 -35 27 -64 37 -57 20z"></path>
<path d="M3234 761 c-43 -26 -51 -41 -29 -58 22 -15 65 -18 65 -3 0 6 -9 10
-20 10 -11 0 -20 7 -20 15 0 38 104 47 124 10 15 -27 27 -35 54 -35 30 0 28
16 -3 24 -14 4 -32 17 -41 31 -13 20 -25 25 -58 25 -23 0 -55 -9 -72 -19z"></path>
<path d="M2685 760 c3 -5 13 -10 21 -10 8 0 12 5 9 10 -3 6 -13 10 -21 10 -8
0 -12 -4 -9 -10z"></path>
<path d="M3843 726 c-32 -15 -29 -28 5 -20 36 9 43 14 37 25 -7 11 -13 10 -42
-5z"></path>
<path d="M2640 710 c0 -10 40 -40 52 -40 17 0 6 16 -22 32 -17 9 -30 13 -30 8z"></path>
<path d="M3655 690 c-3 -5 1 -10 9 -10 8 0 18 5 21 10 3 6 -1 10 -9 10 -8 0
-18 -4 -21 -10z"></path>
<path d="M2740 670 c0 -5 5 -10 10 -10 6 0 10 5 10 10 0 6 -4 10 -10 10 -5 0
-10 -4 -10 -10z"></path>
<path d="M3580 670 c0 -5 11 -10 24 -10 14 0 28 5 31 10 4 6 -7 10 -24 10 -17
0 -31 -4 -31 -10z"></path>
<path d="M3724 670 c-12 -5 -25 -13 -28 -18 -9 -15 31 -2 45 14 13 16 12 16
-17 4z"></path>
<path d="M3510 660 c0 -5 9 -10 20 -10 11 0 20 5 20 10 0 6 -9 10 -20 10 -11
0 -20 -4 -20 -10z"></path>
<path d="M3235 626 c-16 -7 -39 -23 -50 -36 -19 -21 -16 -20 37 6 31 16 57 32
57 37 1 10 -9 8 -44 -7z"></path>
<path d="M2840 620 c0 -14 35 -30 64 -30 19 0 26 5 26 20 0 23 -10 26 -28 8
-9 -9 -18 -9 -37 0 -14 7 -25 8 -25 2z"></path>
<path d="M3583 623 c-13 -2 -23 -9 -23 -15 0 -6 10 -8 23 -4 12 3 25 6 30 6 4
0 7 5 7 10 0 6 -3 9 -7 9 -5 -1 -18 -4 -30 -6z"></path>
<path d="M3500 600 c0 -5 9 -10 20 -10 11 0 20 5 20 10 0 6 -9 10 -20 10 -11
0 -20 -4 -20 -10z"></path>
<path d="M3030 560 c0 -11 93 -40 132 -40 15 0 28 5 28 10 0 6 -9 10 -21 10
-15 0 -19 5 -15 15 4 12 -6 15 -59 15 -36 0 -65 -4 -65 -10z"></path>
<path d="M3238 543 c-16 -2 -28 -9 -28 -14 0 -14 44 -11 66 6 20 15 16 16 -38
8z"></path>
</g>
</svg>