 <svg version="1.0" xmlns="http://www.w3.org/2000/svg" width="700.000000pt" height="454.000000pt" viewBox="0 0 700.000000 454.000000" preserveAspectRatio="xMidYMid meet">
<metadata>
Created by potrace 1.12, written by Peter Selinger 2001-2015
</metadata>
<g transform="translate(0.000000,454.000000) scale(0.100000,-0.100000)" fill="#000000" stroke="none">
<path d="M0 2270 l0 -2270 3500 0 3500 0 0 585 c0 473 -2 585 -13 585 -18 0
-133 85 -140 104 -14 35 -18 317 -7 431 7 66 13 147 15 180 l3 60 43 17 c24 9
56 20 72 23 15 3 27 12 27 20 0 20 -61 9 -137 -26 -55 -25 -63 -33 -67 -61 -3
-18 -12 -82 -21 -143 -9 -60 -19 -120 -21 -132 -5 -26 -26 -30 -44 -8 -6 8
-21 17 -33 21 -12 4 -34 16 -48 27 -15 10 -33 17 -41 14 -8 -3 1 -11 22 -20
20 -9 55 -33 78 -54 41 -36 45 -45 86 -193 26 -91 40 -159 35 -166 -6 -7 17
-27 66 -58 41 -26 75 -48 75 -49 0 -1 -48 -2 -107 -2 -100 0 -114 -2 -185 -33
-109 -47 -274 -159 -341 -231 -95 -103 -162 -238 -233 -468 l-29 -93 -417 0
-417 0 -19 27 c-22 32 -118 237 -157 336 -25 62 -40 85 -50 75 -4 -4 87 -214
128 -294 14 -28 24 -53 22 -56 -8 -7 -174 20 -201 34 -22 11 -37 40 -84 163
-50 130 -62 152 -86 163 -53 24 -59 29 -82 68 -24 43 -82 213 -82 243 0 35
154 158 289 233 25 13 47 30 49 38 3 8 -7 5 -27 -9 -17 -12 -35 -19 -41 -16
-16 10 -12 126 6 178 9 26 29 61 45 78 16 18 27 34 24 37 -9 9 -56 -41 -74
-78 -15 -33 -20 -35 -68 -38 -64 -4 -138 26 -152 60 -17 43 -24 63 -26 83 -1
11 -6 29 -10 40 -5 11 -4 17 0 12 5 -4 20 1 34 10 18 12 53 18 116 21 77 3 99
0 155 -21 59 -22 65 -27 63 -52 -2 -24 1 -26 20 -20 12 3 62 10 111 15 49 6
97 12 108 15 23 8 24 28 1 21 -10 -3 -39 -8 -65 -12 -58 -8 -59 -3 -15 86 43
87 86 112 204 118 100 5 111 22 14 22 -66 0 -70 1 -94 34 -21 27 -35 34 -74
40 -92 12 -167 44 -210 89 -101 104 -203 233 -209 265 -3 17 -10 32 -15 32
-16 0 -18 -17 -3 -45 17 -33 10 -47 -10 -19 -8 10 -17 16 -21 12 -11 -11 2
-24 40 -42 47 -23 44 -36 -9 -36 -36 0 -48 -5 -65 -26 -23 -29 -20 -46 7 -37
13 4 13 2 -3 -10 -11 -9 -26 -17 -32 -17 -7 0 -13 -4 -13 -9 0 -8 79 -3 89 5
2 2 -1 9 -7 16 -16 20 17 56 55 60 35 3 83 -32 83 -62 0 -17 -91 -57 -122 -53
-9 2 -29 -4 -45 -12 -15 -8 -41 -15 -56 -15 -16 0 -36 -8 -45 -19 -19 -21 -76
-43 -95 -35 -7 2 -28 -11 -47 -31 -19 -19 -40 -35 -47 -35 -20 0 -16 28 6 39
23 13 51 55 62 95 l8 31 -22 -28 -23 -28 -32 45 c-18 25 -39 61 -47 80 -16 38
-20 161 -6 170 5 3 37 -7 72 -23 35 -16 83 -32 107 -36 39 -6 42 -9 42 -38 -1
-62 -25 -131 -51 -144 l-24 -13 23 -6 c27 -8 29 -30 2 -37 -11 -3 -20 -10 -20
-16 0 -14 34 2 47 22 14 22 42 171 43 228 0 77 -27 217 -51 257 -22 39 -15 45
52 40 l44 -3 -3 -39 c-3 -36 -2 -38 20 -31 13 4 36 9 52 12 25 5 27 3 21 -16
-8 -25 11 -28 40 -7 18 13 17 14 -8 31 -20 13 -37 15 -63 10 l-37 -6 6 35 6
36 -48 0 c-27 0 -69 -3 -94 -6 -44 -6 -45 -7 -27 -23 30 -26 80 -221 65 -258
-7 -21 -45 -12 -147 32 -45 19 -83 33 -85 32 -1 -2 -6 -31 -9 -64 -11 -100 1
-143 57 -219 l50 -67 -27 -28 c-15 -16 -34 -29 -41 -29 -7 0 -21 -5 -31 -11
-14 -9 -26 -7 -54 10 -22 12 -40 16 -43 10 -4 -5 -10 -7 -15 -4 -5 3 -44 12
-87 20 -63 12 -139 36 -162 51 -5 4 52 77 71 92 10 7 18 17 18 23 0 5 8 17 18
28 87 92 83 85 70 140 -11 50 -5 79 11 52 7 -10 13 -11 31 -1 18 10 31 10 62
-1 35 -11 41 -10 66 8 15 11 27 26 28 34 0 8 6 27 12 42 14 34 15 47 3 47 -5
0 -12 -15 -16 -32 -7 -35 -50 -88 -71 -88 -6 0 -17 7 -24 15 -10 12 -9 25 9
66 23 56 25 69 13 69 -4 0 -16 -24 -26 -52 -22 -64 -42 -88 -71 -88 -41 0 -47
21 -30 96 14 60 14 86 0 73 -2 -3 -11 -38 -20 -78 -18 -87 -20 -91 -46 -91
-45 0 -59 18 -59 75 0 49 4 59 36 95 48 52 39 61 -10 11 -29 -29 -39 -49 -43
-82 -8 -70 -10 -74 -33 -54 -16 14 -20 15 -20 4 0 -21 21 -39 45 -39 21 0 45
-17 45 -32 0 -23 -102 4 -127 33 -17 21 -5 59 18 59 17 0 18 6 13 59 l-7 58
55 37 c30 20 62 36 71 36 9 0 19 5 22 10 10 16 -34 12 -65 -7 -27 -15 -30 -15
-54 1 -14 9 -26 21 -26 26 0 6 -4 10 -10 10 -5 0 -10 -6 -10 -14 0 -7 -7 -19
-15 -26 -13 -10 -19 -10 -35 5 -18 16 -20 16 -26 1 -4 -11 3 -25 20 -41 33
-30 36 -31 36 -5 0 23 45 39 63 21 8 -8 4 -17 -13 -36 -24 -25 -64 -33 -75
-15 -8 13 -25 13 -25 -1 0 -6 14 -16 30 -22 46 -18 36 -27 -30 -27 -33 0 -60
-4 -60 -10 0 -6 28 -10 65 -10 37 0 65 -4 65 -10 0 -5 -10 -10 -22 -10 -21 -1
-21 -2 -6 -11 16 -9 17 -12 2 -34 -14 -21 -14 -26 1 -54 8 -17 20 -31 26 -31
7 0 10 -14 7 -35 -4 -37 14 -45 20 -9 5 28 20 40 32 28 8 -8 6 -15 -5 -24 -8
-7 -15 -19 -15 -27 0 -8 -12 -25 -26 -40 -14 -14 -38 -60 -53 -102 -16 -42
-30 -75 -32 -75 -2 1 -50 16 -105 34 l-101 32 -47 -46 c-25 -26 -46 -48 -46
-51 0 -2 23 -5 52 -7 47 -3 55 -6 76 -38 13 -19 38 -43 57 -52 57 -30 95 -75
95 -115 0 -46 -49 -97 -111 -114 l-44 -12 33 -14 c45 -18 50 -39 19 -70 -18
-18 -36 -26 -66 -27 -23 0 -41 -4 -41 -8 0 -5 7 -8 15 -8 8 0 15 -5 15 -11 0
-22 -35 -3 -38 21 -2 14 -9 31 -14 38 -8 9 -5 19 12 37 13 14 29 25 37 25 7 0
13 5 13 11 0 7 -7 8 -17 3 -10 -4 -60 -9 -111 -12 -89 -4 -94 -3 -119 22 -14
14 -31 26 -37 26 -7 0 -7 -3 -1 -8 21 -15 32 -48 27 -80 -3 -24 -1 -32 11 -32
13 0 15 -8 10 -38 -8 -52 -19 -62 -72 -62 -52 0 -63 5 -80 38 -12 23 -6 88 10
98 5 3 9 23 9 45 0 37 2 39 31 39 17 0 28 4 24 10 -9 14 -62 12 -72 -2 -4 -7
-6 -21 -5 -30 3 -14 -4 -18 -25 -18 -45 0 -145 27 -153 41 -6 9 -18 4 -44 -19
-51 -45 -131 -66 -246 -65 -109 0 -265 33 -304 64 -27 21 -36 24 -36 9 0 -20
89 -59 175 -76 175 -35 333 -18 405 43 35 29 60 24 60 -10 0 -33 -13 -41 -95
-63 -54 -14 -106 -19 -225 -18 -144 0 -161 2 -235 28 -110 39 -147 75 -110
106 9 7 13 20 10 28 -9 24 6 34 26 16 18 -16 137 -54 171 -54 10 0 18 5 18 10
0 6 -9 10 -21 10 -39 0 -164 43 -196 67 -65 50 -49 79 68 120 61 21 93 26 184
27 61 1 129 -2 153 -7 34 -6 42 -4 42 7 0 23 80 65 136 72 33 5 60 16 81 35
33 29 50 33 163 44 92 9 110 9 136 -6 20 -10 27 -10 45 7 40 35 62 102 55 168
-3 33 -8 61 -11 64 -2 2 -18 -8 -36 -22 -46 -39 -98 -34 -121 13 -10 19 -26
44 -37 55 l-21 20 -23 -22 c-13 -12 -26 -22 -30 -22 -15 0 -6 31 14 51 33 33
18 48 -53 51 -73 3 -87 25 -28 43 l35 10 4 73 c2 48 -1 72 -8 72 -7 0 -11 -22
-11 -58 0 -32 -5 -63 -12 -70 -20 -20 -96 -15 -107 6 -6 11 -6 23 -2 28 8 9
31 93 31 113 0 6 -4 11 -9 11 -4 0 -14 -28 -21 -62 -16 -79 -23 -88 -72 -88
-32 0 -41 4 -45 21 -3 11 -11 18 -18 15 -23 -8 -55 23 -55 54 0 66 39 110 103
115 17 2 38 3 45 4 6 1 12 6 12 12 0 8 -17 9 -55 4 -30 -3 -55 -4 -55 -1 0 13
75 88 101 102 16 8 51 14 79 14 32 0 49 4 45 10 -9 14 -78 13 -112 -2 -48 -21
-104 -71 -125 -111 -13 -27 -24 -37 -36 -33 -55 16 -70 17 -79 3 -7 -12 -19
-11 -83 5 -41 10 -133 32 -203 48 -132 29 -192 55 -166 71 10 6 3 12 -25 24
-28 12 -41 13 -51 5 -28 -23 -27 12 1 42 54 58 213 113 609 212 33 9 83 22
110 30 145 44 200 59 300 82 61 14 148 32 195 39 47 8 112 19 145 24 32 6 62
7 66 3 4 -4 10 -35 14 -69 7 -63 7 -63 -18 -63 -55 0 -88 -96 -52 -147 18 -26
13 -30 -77 -58 -76 -23 -75 -39 2 -30 99 12 77 -11 -73 -74 -44 -19 -51 -19
-70 -6 -24 17 -73 20 -82 5 -3 -5 -45 -10 -93 -10 l-86 0 34 -30 c39 -32 62
-40 37 -12 -25 27 -22 30 28 25 29 -4 56 0 79 11 44 21 45 20 81 -8 l30 -24
23 21 c19 18 37 21 124 24 65 3 104 0 108 -7 4 -7 16 -3 34 11 28 22 48 22 21
-1 -8 -7 -15 -17 -15 -23 0 -5 8 -3 18 6 18 16 20 15 50 -22 22 -28 28 -41 20
-49 -8 -8 -6 -13 8 -17 52 -17 63 -26 69 -54 8 -36 26 -42 22 -8 -2 23 0 23
46 12 17 -5 27 -3 27 4 0 6 -7 11 -15 11 -31 0 -114 50 -144 87 -42 51 -58 88
-66 156 -4 31 -12 57 -17 57 -6 0 -8 -14 -5 -35 7 -42 -5 -45 -54 -12 -67 45
-86 139 -34 173 17 11 29 12 50 4 15 -6 29 -9 31 -8 1 2 12 39 23 82 11 43 26
85 32 92 6 7 8 18 4 24 -4 6 5 29 19 50 16 25 22 41 15 46 -16 10 31 54 57 54
13 0 32 9 42 20 18 20 20 19 148 -89 l129 -109 26 24 26 24 66 -50 c36 -27 69
-55 74 -62 4 -7 8 -60 9 -118 0 -58 4 -135 9 -172 9 -74 0 -138 -18 -138 -7 0
-19 15 -28 32 -33 68 -135 118 -211 104 -20 -3 -52 -18 -72 -31 -46 -31 -50
-31 -66 3 -7 15 -15 22 -17 15 -2 -6 6 -31 18 -54 18 -36 21 -54 17 -111 l-5
-69 36 -16 c45 -20 85 -22 181 -11 110 14 112 29 3 22 -81 -6 -96 -5 -137 15
-48 24 -50 28 -60 113 -5 47 -5 49 33 73 86 58 175 42 251 -43 52 -58 60 -79
35 -88 -27 -11 -16 -24 20 -24 37 0 38 3 26 35 -5 11 -2 30 6 45 7 14 13 37
13 52 0 15 5 30 10 33 6 4 9 19 8 33 -1 15 9 49 21 75 18 36 22 59 18 93 -5
49 -7 49 93 19 25 -8 113 -30 195 -49 205 -49 220 -53 247 -75 18 -16 20 -21
8 -25 -8 -2 -76 -23 -150 -46 -74 -22 -173 -54 -220 -70 -106 -37 -121 -37
-150 0 -13 17 -28 30 -34 30 -8 0 -8 -2 0 -8 15 -9 23 -81 13 -109 -5 -14 -17
-23 -29 -23 -11 0 -20 -4 -20 -10 0 -6 31 -10 73 -10 56 0 78 5 97 20 20 15
21 20 8 20 -9 0 -20 -4 -23 -10 -7 -12 -82 -14 -88 -2 -3 4 -1 18 4 31 7 18
14 22 32 16 82 -25 147 -25 147 2 0 11 -8 12 -36 7 -27 -5 -35 -4 -30 5 4 6
15 11 25 11 9 0 21 4 26 9 17 15 55 23 55 12 0 -6 -7 -11 -15 -11 -8 0 -15 -5
-15 -11 0 -7 9 -9 23 -5 12 3 26 6 30 6 5 0 6 8 3 18 -5 16 7 22 86 46 51 15
111 34 133 41 22 7 58 16 80 20 22 4 48 12 58 17 31 16 338 -45 912 -181 94
-23 195 -48 225 -56 30 -9 87 -25 127 -35 101 -28 216 -70 228 -83 6 -7 28
-13 50 -15 46 -3 105 -20 105 -30 0 -4 -80 -32 -178 -61 -97 -30 -222 -72
-277 -94 -148 -57 -505 -185 -540 -193 -16 -4 -34 -10 -40 -14 -5 -3 -32 -15
-60 -25 -27 -10 -56 -23 -63 -28 -10 -8 -24 0 -57 36 -23 26 -48 47 -54 47 -6
0 -11 -1 -11 -2 0 -6 167 -184 194 -208 16 -14 63 -57 105 -96 84 -79 123
-102 226 -133 39 -11 79 -27 90 -35 11 -9 27 -15 35 -15 26 0 -39 46 -84 59
-92 27 -179 64 -208 88 -26 22 -29 30 -25 59 6 37 56 89 95 99 12 3 22 10 22
15 0 29 -78 -17 -111 -66 -13 -19 -29 -35 -36 -35 -12 0 -118 84 -142 113 -20
25 -7 43 50 73 56 28 218 84 244 84 9 0 33 9 55 20 22 11 47 20 57 20 10 0 35
9 56 20 20 11 46 20 56 20 11 0 23 5 26 10 3 6 17 10 31 10 13 0 32 4 42 9 90
48 214 95 437 168 113 37 161 43 228 31 35 -6 38 -5 35 15 -2 17 -13 24 -50
32 -54 12 -65 20 -50 37 6 8 13 106 16 238 4 124 9 250 12 280 7 67 49 276 64
314 15 40 14 244 -2 228 -7 -7 -22 -12 -35 -12 -23 0 -23 -2 -17 -70 l7 -70
-27 0 c-24 0 -26 -4 -27 -42 -5 -133 -9 -163 -22 -173 -22 -16 -71 -189 -97
-339 -6 -38 -17 -84 -25 -101 -16 -39 -70 -83 -113 -91 -34 -7 -42 -21 -17
-30 32 -13 13 -24 -39 -24 -30 0 -58 -5 -61 -10 -6 -11 -22 -8 -117 17 -86 23
-72 35 30 28 110 -9 123 -8 136 5 8 8 7 15 -5 23 -9 7 -26 31 -38 54 -25 50
-47 58 -128 48 -69 -8 -98 -21 -118 -52 -11 -17 -25 -23 -50 -23 -19 0 -35 -5
-35 -11 0 -23 -93 1 -124 31 -17 16 -28 31 -25 33 74 53 79 59 69 76 -12 23
-45 35 -135 51 -38 7 -92 21 -118 31 -35 14 -74 19 -151 19 -129 0 -200 13
-301 55 -44 19 -113 44 -153 56 -130 38 -141 68 -97 260 19 83 25 134 24 212
-2 134 53 468 83 504 8 10 180 13 874 13 l864 0 0 150 0 150 -3500 0 -3500 0
0 -2270z m5133 1964 c13 -13 -13 -42 -32 -37 -18 5 -19 1 -14 -33 l6 -39 -25
23 c-39 36 -45 28 -43 -50 2 -40 -1 -83 -7 -97 -5 -14 -9 -57 -10 -96 0 -38
-8 -108 -18 -155 -12 -55 -20 -143 -23 -250 -4 -165 -18 -232 -49 -251 -7 -4
-46 10 -88 31 -41 22 -89 44 -107 51 -29 10 -133 104 -133 120 0 3 39 9 87 13
48 3 92 11 98 17 12 12 -6 29 -134 117 -50 35 -91 67 -91 71 0 4 27 20 60 36
106 50 100 55 -61 55 -79 0 -154 3 -167 6 -20 6 -18 9 24 36 27 17 43 33 38
38 -5 5 -61 -4 -129 -20 -66 -15 -166 -36 -223 -45 -95 -17 -103 -17 -120 -2
-10 9 -63 35 -117 57 -108 44 -123 54 -136 87 -11 29 -29 30 -29 2 0 -15 -4
-19 -19 -14 -11 3 -22 1 -26 -5 -3 -5 -13 -10 -22 -10 -8 0 -24 -11 -35 -25
-30 -38 -66 -53 -158 -64 -45 -6 -123 -24 -174 -41 -192 -62 -316 -100 -328
-100 -29 1 -369 -84 -448 -112 -47 -16 -112 -36 -145 -45 -108 -29 -132 -68
-140 -230 -5 -104 -27 -213 -43 -213 -4 0 -30 22 -57 50 -35 35 -80 65 -157
102 l-107 53 -1 105 c0 64 6 129 15 165 15 57 66 158 86 170 18 12 145 43 259
65 145 27 444 93 755 165 468 109 515 117 592 107 37 -5 70 -8 73 -5 9 9 -25
21 -77 28 -29 3 -53 9 -53 11 0 35 25 151 34 156 13 9 1610 11 1619 2z m-4929
-504 c112 -55 404 -169 626 -245 173 -59 306 -115 328 -138 25 -27 40 -77 22
-77 -22 0 -81 -53 -106 -97 -14 -23 -28 -43 -29 -43 -21 0 -55 29 -68 56 -9
19 -22 34 -29 34 -8 0 -5 5 5 11 9 5 22 7 27 4 13 -8 120 14 120 24 0 6 -91 7
-162 2 -5 -1 -8 -8 -8 -16 0 -9 -9 -15 -24 -15 -13 0 -40 7 -59 15 -45 19 -51
19 -44 1 10 -27 -56 -54 -175 -72 -62 -9 -140 -21 -173 -26 -33 -5 -93 -12
-132 -14 -41 -3 -73 -10 -73 -16 0 -16 167 -4 350 25 85 14 163 28 173 32 28
12 20 -12 -20 -60 -42 -51 -67 -61 -178 -70 -44 -4 -156 -27 -248 -51 -196
-52 -284 -64 -298 -43 -5 8 -9 200 -9 427 l0 412 31 0 c18 0 83 -26 153 -60z
m4035 -258 l43 -38 -27 -18 c-15 -10 -29 -16 -31 -13 -11 10 -43 107 -36 107
4 0 27 -18 51 -38z m-2536 -53 c10 -17 2 -94 -12 -118 -6 -8 -44 -19 -98 -26
-62 -9 -109 -22 -154 -44 l-64 -32 -44 40 c-24 22 -52 43 -62 46 -39 13 -9
105 34 105 19 0 160 19 252 34 99 17 135 16 148 -5z m2807 -243 c0 -46 -24
-116 -40 -116 -5 0 -12 20 -16 45 -5 35 -3 50 10 64 21 24 22 49 1 31 -12 -10
-15 -10 -15 2 0 24 21 38 42 27 13 -7 18 -21 18 -53z m-3170 -29 c0 -2 -15
-16 -32 -33 l-33 -29 29 33 c28 30 36 37 36 29z m4607 -156 c9 -13 8 -20 -5
-34 -17 -19 -38 -18 -124 4 -38 10 -52 29 -23 29 9 0 18 7 21 15 8 20 114 9
131 -14z m-3997 -78 c11 -30 20 -63 20 -73 0 -11 4 -20 9 -20 15 0 21 45 11
81 -6 19 -10 45 -10 58 0 24 0 24 21 5 12 -10 34 -41 50 -69 27 -47 29 -57 29
-165 0 -63 5 -144 10 -178 5 -35 6 -70 4 -77 -4 -9 -37 -14 -114 -17 -72 -2
-114 -8 -122 -16 -11 -11 6 -13 92 -12 58 1 109 1 114 1 20 -2 -29 -40 -89
-71 -60 -31 -70 -33 -162 -31 -90 1 -99 3 -124 27 -47 45 -81 138 -92 246 -9
95 -8 97 18 143 23 38 32 46 53 43 18 -2 28 -11 32 -27 6 -26 9 -24 118 115
17 23 22 25 18 9 -26 -121 -7 -128 28 -11 14 46 26 90 26 98 0 24 14 30 27 12
7 -10 22 -42 33 -71z m3790 77 c0 -5 -4 -10 -10 -10 -5 0 -10 5 -10 10 0 6 5
10 10 10 6 0 10 -4 10 -10z m-4001 -86 c-6 -38 -16 -77 -21 -86 -10 -20 -58
-25 -58 -7 0 15 82 170 87 165 2 -2 -1 -35 -8 -72z m-577 -120 c1 -31 0 -61
-4 -67 -4 -7 -8 0 -8 16 0 15 -4 27 -10 27 -16 0 -23 49 -10 65 21 26 28 17
32 -41z m5517 2 c17 -20 2 -25 -47 -16 -68 12 -76 30 -15 30 31 0 55 -5 62
-14z m-3798 -17 c28 -15 13 -31 -16 -17 -25 11 -34 28 -14 28 6 0 19 -5 30
-11z m-1496 -89 c11 -18 45 -163 39 -171 -11 -18 -61 -9 -84 16 -28 30 -51 34
-25 5 18 -20 18 -21 -6 -46 -13 -14 -71 -57 -129 -95 -170 -110 -160 -99 -160
-183 0 -61 -4 -78 -22 -102 l-23 -29 25 16 c26 17 37 48 39 114 1 38 15 75 24
65 3 -3 0 -47 -6 -98 -10 -89 -12 -93 -44 -113 -18 -11 -43 -19 -55 -17 -21 3
-24 11 -33 89 -8 70 -15 91 -37 118 -34 39 -35 61 -6 148 29 88 109 175 178
193 54 15 148 7 191 -16 33 -16 51 -12 31 8 -17 17 -15 59 4 86 11 16 25 22
54 22 21 0 41 -4 45 -10z m1234 -91 c41 -14 51 -42 50 -132 -2 -120 -6 -129
-66 -147 -28 -8 -55 -18 -59 -22 -10 -11 -76 -10 -94 2 -11 7 -14 34 -15 121
l0 112 97 1 c59 1 102 6 109 13 8 8 -8 10 -69 6 -90 -6 -132 1 -132 22 0 27
123 43 179 24z m-335 -71 c12 -20 10 -23 -26 -32 -25 -6 -28 -3 -28 17 0 13 3
27 7 31 11 11 35 3 47 -16z m126 7 c0 -16 -27 -32 -37 -21 -7 7 16 36 28 36 5
0 9 -7 9 -15z m-250 -66 c0 -5 -7 -9 -15 -9 -9 0 -12 6 -9 15 6 15 24 11 24
-6z m185 11 c-3 -5 -34 -9 -68 -9 -53 1 -57 3 -27 9 54 11 102 11 95 0z m64
-75 c0 -5 -6 1 -14 15 -8 14 -14 30 -14 35 0 6 6 -1 14 -15 8 -14 14 -29 14
-35z m-162 24 c35 -13 109 -84 128 -123 21 -41 19 -43 -12 -14 -44 41 -91 60
-135 56 l-40 -4 6 36 c3 19 6 41 6 48 0 15 10 15 47 1z m-858 -24 c4 -11 7
-58 7 -105 l-1 -85 -31 -3 c-49 -5 -67 25 -68 109 -1 62 2 73 22 89 29 24 62
21 71 -5z m2747 -9 c10 -8 17 -17 14 -19 -3 -3 -16 3 -29 14 -27 22 -15 26 15
5z m-2886 -57 c-10 -33 -37 -69 -52 -69 -5 0 -1 12 10 28 11 15 23 37 26 50
11 34 26 26 16 -9z m1024 -29 c15 0 63 -45 77 -72 7 -14 1 -12 -28 8 -34 23
-45 25 -102 21 -38 -3 -67 -10 -72 -18 -5 -8 -9 -9 -9 -4 0 6 4 15 8 21 11 18
86 54 100 49 8 -3 19 -5 26 -5z m543 -11 c22 -8 24 -12 13 -19 -10 -7 -11 -10
-2 -10 25 0 11 -22 -25 -37 -48 -20 -181 -13 -219 12 -27 17 -24 35 6 35 10 0
20 7 24 15 4 12 24 15 90 15 47 0 97 -5 113 -11z m1251 -68 c-11 -4 -78 58
-78 72 0 4 20 -9 44 -30 24 -21 40 -40 34 -42z m-4023 29 c3 -5 -1 -10 -9 -10
-9 0 -16 5 -16 10 0 6 4 10 9 10 6 0 13 -4 16 -10z m2584 -49 c98 -21 174 -10
218 31 20 19 23 19 23 4 0 -9 -5 -26 -11 -38 -9 -16 -7 -24 10 -42 39 -41 20
-91 -46 -125 -28 -14 -166 -14 -217 0 -77 21 -110 91 -70 148 12 17 13 26 5
34 -6 6 -11 19 -11 29 0 15 3 14 23 -6 14 -14 46 -28 76 -35z m-729 19 c-19
-13 -30 -13 -30 0 0 6 10 10 23 10 18 0 19 -2 7 -10z m-109 -63 c-107 -70
-166 -107 -172 -107 -17 0 -18 35 -2 53 29 31 164 96 203 96 l35 1 -64 -43z
m-1579 18 c43 -7 126 -29 185 -48 60 -19 142 -45 183 -57 41 -12 129 -40 196
-61 66 -21 124 -39 127 -39 4 0 7 16 7 36 0 24 4 34 12 31 8 -2 13 -20 13 -42
0 -37 2 -39 50 -56 28 -9 73 -18 100 -18 28 -1 56 -6 63 -13 10 -10 19 -8 44
7 25 15 33 16 36 5 3 -7 22 -32 42 -54 20 -23 35 -46 33 -53 -3 -7 32 -30 84
-56 48 -25 119 -63 156 -84 l68 -40 -43 -28 c-53 -35 -188 -170 -188 -187 0
-8 -14 -30 -31 -51 -29 -35 -33 -37 -72 -31 -38 6 -77 33 -77 55 0 4 20 0 45
-11 43 -18 75 -18 75 1 0 5 -5 9 -12 9 -14 0 -98 33 -288 112 -175 73 -238 95
-440 154 -85 25 -164 49 -175 53 -28 12 -99 31 -154 41 -25 5 -79 16 -120 24
-68 14 -93 15 -79 1 8 -8 148 -45 213 -55 33 -6 78 -17 100 -25 22 -7 65 -21
95 -29 103 -27 315 -95 372 -118 l58 -24 -28 -16 c-15 -8 -72 -25 -128 -38
-134 -30 -218 -20 -331 38 -43 22 -102 45 -131 52 -35 8 -79 31 -132 69 -44
31 -87 61 -97 67 -16 10 -18 33 -22 229 -2 154 0 220 8 228 11 11 73 34 96 36
6 0 45 -6 87 -14z m1738 0 c-32 -18 -40 -18 -40 0 0 10 10 15 33 15 l32 -1
-25 -14z m-91 -37 c0 -16 -98 -98 -116 -98 -32 0 -7 31 67 84 40 28 50 31 49
14z m-526 -30 c28 -14 37 -24 32 -37 -3 -11 4 -26 20 -41 29 -27 33 -58 8 -56
-14 1 -17 -6 -15 -29 l2 -30 -27 30 c-67 73 -145 114 -233 124 -50 5 -55 8
-55 31 0 25 1 25 88 26 48 1 90 4 94 8 8 8 36 -1 86 -26z m3622 -29 c26 -28
45 -52 44 -53 -2 -2 -30 -1 -61 1 -52 5 -59 8 -77 39 l-20 34 22 15 c32 23 40
20 92 -36z m-90 -85 c59 -138 89 -223 82 -231 -4 -3 -33 2 -64 12 -32 9 -96
27 -143 39 -79 21 -85 25 -90 52 -4 25 -11 30 -45 35 -22 3 -50 9 -62 13 -13
4 -23 3 -23 -2 0 -9 66 -32 94 -32 18 0 22 -25 6 -35 -6 -4 -25 3 -44 14 -18
11 -50 24 -72 29 -25 5 -39 13 -39 24 0 8 -6 22 -12 30 -10 12 -7 18 17 36 16
12 35 22 43 22 7 0 76 22 153 49 76 28 143 49 147 48 5 -2 28 -48 52 -103z
m-692 0 c48 -8 48 -24 -1 -24 -21 0 -47 -7 -58 -15 -10 -8 -26 -15 -36 -15
-18 0 -68 -54 -68 -73 0 -7 -4 -18 -9 -26 -8 -12 -12 -12 -25 -2 -37 31 -2
121 57 146 35 15 81 18 140 9z m965 -19 c23 -4 42 -11 42 -16 0 -17 -48 -20
-78 -5 -37 19 -54 41 -26 33 11 -3 38 -9 62 -12z m-733 -25 c13 -14 15 -23 8
-32 -6 -7 -14 -24 -18 -38 -7 -22 -6 -23 9 -11 13 11 24 11 63 1 50 -14 113
-63 113 -87 0 -26 -58 -75 -80 -68 -19 6 -20 2 -21 -97 -1 -189 -1 -189 -32
-212 -22 -16 -43 -21 -94 -21 -88 0 -108 22 -118 131 -7 69 -1 191 9 201 2 2
16 -8 31 -23 24 -23 32 -26 80 -22 29 3 65 12 80 22 37 24 26 30 -21 10 -71
-30 -178 0 -144 41 7 8 31 20 54 26 29 7 45 18 54 37 20 42 14 46 -22 14 -19
-16 -56 -35 -84 -42 -44 -10 -51 -15 -54 -38 -3 -30 -34 -39 -95 -27 -52 9
-39 25 22 25 76 0 69 20 -7 22 -35 1 -72 2 -82 2 -49 3 -45 98 6 141 48 41 74
47 180 46 53 0 100 4 103 9 10 16 41 11 60 -10z m35 -40 c0 -5 -4 -10 -10 -10
-5 0 -10 5 -10 10 0 6 5 10 10 10 6 0 10 -4 10 -10z m-500 -54 c0 -27 7 -40
33 -61 20 -16 25 -23 12 -19 -11 4 -26 12 -33 17 -9 7 -11 6 -6 -8 4 -9 25
-26 48 -36 23 -11 52 -26 66 -34 13 -8 49 -17 80 -20 70 -8 86 -13 74 -25 -13
-12 -168 13 -233 38 -64 25 -111 67 -111 98 0 23 44 84 61 84 5 0 9 -15 9 -34z
m-155 -146 c4 -6 15 -8 25 -5 27 8 156 -24 195 -48 48 -31 49 -80 1 -126 -30
-29 -43 -34 -100 -38 -36 -3 -66 -10 -66 -16 0 -14 109 -2 146 17 17 9 36 27
42 41 13 29 36 24 27 -5 -3 -10 -1 -21 5 -25 18 -11 11 -41 -17 -67 -63 -58
-201 -78 -362 -54 -106 16 -163 39 -169 68 -3 14 2 14 35 -3 47 -23 163 -38
163 -20 0 6 -13 11 -30 11 -52 0 -132 22 -152 42 -13 13 -18 30 -16 50 3 35
28 52 28 19 0 -37 124 -81 227 -81 55 0 29 17 -37 23 -144 15 -188 44 -175
113 7 37 20 45 28 15 10 -41 48 -52 196 -58 103 -4 141 -3 141 5 0 7 -11 12
-24 12 -12 0 -38 5 -55 11 -24 9 -35 9 -44 0 -13 -13 -76 -14 -97 -1 -17 10
-18 9 35 36 42 21 56 53 35 80 -8 9 -9 14 -2 14 6 0 14 -5 17 -10z m-1271 -44
c143 -68 390 -72 584 -11 17 6 22 3 22 -9 0 -26 -56 -44 -174 -56 -203 -21
-431 19 -485 84 -18 22 -6 20 53 -8z m2030 -12 c11 -29 6 -69 -14 -101 -28
-47 -44 -41 -20 7 22 43 26 75 10 85 -15 9 -12 25 4 25 8 0 17 -7 20 -16z
m-2030 -34 c23 -10 74 -26 114 -35 97 -20 325 -20 411 0 35 9 66 13 69 11 25
-26 -76 -59 -213 -71 -146 -13 -408 45 -436 96 -13 25 3 25 55 -1z m1096 5 c0
-8 -4 -15 -10 -15 -5 0 -10 7 -10 15 0 8 5 15 10 15 6 0 10 -7 10 -15z m-1804
-44 c61 -11 130 -24 153 -31 31 -8 46 -8 56 0 14 11 60 -1 66 -18 2 -5 40 -21
84 -35 476 -152 966 -352 1197 -489 87 -52 99 -65 61 -73 -100 -20 -250 -132
-301 -224 -28 -51 -11 -55 20 -3 27 44 129 142 148 142 8 0 -18 -30 -57 -67
-60 -57 -76 -81 -104 -148 -45 -106 -67 -137 -90 -125 -10 6 -32 36 -50 67
-18 32 -51 75 -73 97 l-41 38 83 -42 c45 -24 86 -40 89 -36 10 10 -28 34 -166
107 -70 36 -187 98 -261 138 -131 71 -306 151 -329 151 -27 0 -6 -17 47 -37
62 -24 395 -203 389 -209 -9 -10 -192 21 -275 47 -52 16 -104 29 -115 29 -11
0 -56 10 -99 21 -72 19 -87 20 -166 10 -48 -6 -110 -20 -138 -30 l-50 -20 -40
22 c-30 17 -46 37 -71 87 -17 35 -39 70 -48 76 -22 16 -54 5 -108 -40 -58 -46
-62 -47 -89 -37 -24 9 -24 10 -26 165 l-1 156 62 -4 c34 -2 70 -7 80 -11 10
-4 17 -3 17 3 0 14 -63 32 -110 32 -19 0 -45 8 -58 18 l-23 18 24 55 c41 93
146 219 181 219 12 0 71 -9 132 -19z m2318 -127 c12 -32 5 -55 -29 -93 -61
-68 -116 -84 -297 -89 -149 -4 -158 -3 -210 20 -53 25 -118 82 -118 104 0 15
27 37 33 27 2 -4 7 -20 11 -35 11 -47 55 -62 192 -66 138 -5 260 14 333 50 41
21 46 27 49 61 3 38 24 51 36 21z m-75 -50 c-7 -9 -22 -20 -34 -24 -48 -18
-65 -21 -65 -11 0 5 12 12 28 16 15 3 38 14 52 25 28 21 39 18 19 -6z m-281
-43 c58 -1 92 -5 92 -12 0 -7 -44 -9 -139 -7 -120 3 -142 6 -160 22 -34 31
-25 33 47 15 39 -11 105 -18 160 -18z m832 -309 c0 -27 43 -149 73 -208 20
-40 36 -56 70 -72 43 -20 46 -25 89 -134 25 -62 48 -126 52 -143 4 -16 19 -42
32 -56 34 -36 31 -90 -6 -100 -14 -4 -321 -7 -682 -8 l-658 -1 0 224 0 223 43
-8 c23 -4 77 -19 120 -32 69 -22 78 -23 86 -9 8 13 27 6 135 -49 69 -35 136
-72 148 -81 22 -16 22 -17 -67 -60 -104 -50 -132 -62 -275 -118 -58 -23 -109
-46 -115 -51 -18 -18 26 -9 81 16 30 14 56 25 59 25 2 0 33 14 68 30 36 17 68
30 72 30 3 0 52 21 108 46 56 25 111 49 122 54 110 48 198 93 189 96 -6 3 -26
-2 -44 -10 -31 -13 -35 -12 -57 10 -13 13 -50 40 -81 60 -122 78 -174 137
-158 180 6 15 9 15 27 -4 31 -34 95 -30 142 9 21 17 44 43 52 59 24 46 182 92
343 99 25 1 32 -3 32 -17z"></path>
<path d="M3555 3889 c-10 -15 3 -25 16 -12 7 7 7 13 1 17 -6 3 -14 1 -17 -5z"></path>
<path d="M1956 3681 c-5 -7 2 -11 17 -11 43 0 115 -39 174 -94 18 -16 35 -27
38 -25 9 10 -27 50 -79 88 -55 41 -137 64 -150 42z"></path>
<path d="M2468 3632 c-21 -8 -38 -18 -38 -23 0 -8 71 9 83 21 17 15 -9 17 -45
2z"></path>
<path d="M2380 3600 c0 -5 5 -10 10 -10 6 0 10 5 10 10 0 6 -4 10 -10 10 -5 0
-10 -4 -10 -10z"></path>
<path d="M5885 2970 c3 -5 11 -10 16 -10 6 0 7 5 4 10 -3 6 -11 10 -16 10 -6
0 -7 -4 -4 -10z"></path>
<path d="M1930 2809 c0 -5 5 -7 10 -4 6 3 10 8 10 11 0 2 -4 4 -10 4 -5 0 -10
-5 -10 -11z"></path>
<path d="M1972 2693 c2 -27 8 -48 13 -48 6 0 11 21 13 48 3 38 0 47 -13 47
-13 0 -16 -9 -13 -47z"></path>
<path d="M1681 2681 c-6 -11 -11 -29 -11 -41 0 -12 5 -30 11 -41 16 -30 39 -6
39 41 0 47 -23 71 -39 41z"></path>
<path d="M1778 2504 c-4 -4 2 -18 12 -32 11 -13 20 -33 20 -43 0 -21 15 -25
26 -7 4 6 2 14 -4 16 -7 2 -12 10 -12 17 0 18 -34 58 -42 49z"></path>
<path d="M1765 2410 c-4 -6 -3 -16 3 -22 6 -6 12 -6 17 2 4 6 3 16 -3 22 -6 6
-12 6 -17 -2z"></path>
<path d="M1338 2634 c17 -14 32 -34 32 -44 0 -10 4 -21 8 -24 4 -2 8 6 7 19 0
27 -41 75 -64 75 -10 0 -4 -9 17 -26z"></path>
<path d="M948 2493 c-36 -40 -49 -123 -26 -166 11 -21 11 -21 19 -2 4 11 8 31
8 45 1 14 13 42 27 63 14 21 24 45 22 55 -5 24 -31 26 -50 5z"></path>
<path d="M2680 2250 c0 -5 14 -10 30 -10 17 0 30 5 30 10 0 6 -13 10 -30 10
-16 0 -30 -4 -30 -10z"></path>
<path d="M2570 2181 c0 -9 52 -22 59 -15 6 6 -1 11 -31 18 -16 3 -28 2 -28 -3z"></path>
<path d="M4480 1920 c0 -5 5 -10 10 -10 6 0 10 5 10 10 0 6 -4 10 -10 10 -5 0
-10 -4 -10 -10z"></path>
<path d="M4436 1834 c-5 -12 -2 -15 10 -10 8 3 18 6 20 6 3 0 2 5 -1 10 -9 15
-22 12 -29 -6z"></path>
<path d="M4487 1819 c7 -7 15 -10 18 -7 3 3 -2 9 -12 12 -14 6 -15 5 -6 -5z"></path>
<path d="M4380 1780 c0 -5 7 -10 15 -10 8 0 15 5 15 10 0 6 -7 10 -15 10 -8 0
-15 -4 -15 -10z"></path>
<path d="M4452 1751 c12 -20 33 -18 42 5 4 10 -3 14 -24 14 -27 0 -29 -2 -18
-19z"></path>
<path d="M3810 1651 c0 -17 5 -31 10 -31 6 0 10 11 10 24 0 14 -4 28 -10 31
-6 4 -10 -7 -10 -24z"></path>
<path d="M3973 1596 c-36 -11 -44 -26 -15 -26 19 0 61 26 52 32 -3 2 -20 -1
-37 -6z"></path>
<path d="M4022 1480 c-27 -23 -95 -38 -207 -46 -88 -7 -118 -24 -42 -24 65 0
211 26 246 44 17 9 31 23 31 31 0 19 0 18 -28 -5z"></path>
<path d="M1695 1210 c3 -5 8 -10 11 -10 2 0 4 5 4 10 0 6 -5 10 -11 10 -5 0
-7 -4 -4 -10z"></path>
<path d="M1736 1201 c-4 -5 -2 -12 3 -15 5 -4 12 -2 15 3 4 5 2 12 -3 15 -5 4
-12 2 -15 -3z"></path>
<path d="M1825 1160 c3 -5 13 -10 21 -10 8 0 12 5 9 10 -3 6 -13 10 -21 10 -8
0 -12 -4 -9 -10z"></path>
<path d="M1936 1141 c-4 -5 -2 -12 3 -15 5 -4 12 -2 15 3 4 5 2 12 -3 15 -5 4
-12 2 -15 -3z"></path>
<path d="M4628 401 c-27 -16 -37 -31 -19 -31 12 0 57 37 51 43 -3 2 -17 -3
-32 -12z"></path>
<path d="M3927 3415 c-36 -14 -98 -52 -67 -43 8 3 39 13 68 23 29 9 69 15 88
13 35 -4 46 5 18 16 -24 9 -65 6 -107 -9z"></path>
<path d="M3880 3260 c0 -6 35 -10 85 -10 50 0 85 4 85 10 0 6 -35 10 -85 10
-50 0 -85 -4 -85 -10z"></path>
<path d="M4250 3260 c0 -6 30 -10 70 -10 40 0 70 4 70 10 0 6 -30 10 -70 10
-40 0 -70 -4 -70 -10z"></path>
<path d="M4173 3140 c-1 -44 2 -80 7 -80 10 0 24 124 16 145 -13 34 -21 10
-23 -65z"></path>
<path d="M3690 3192 c0 -4 9 -13 20 -20 14 -8 20 -23 20 -47 0 -19 5 -35 10
-35 6 0 10 9 10 20 0 13 5 18 15 14 9 -4 15 0 15 9 0 9 -9 19 -20 22 -11 3
-25 15 -30 26 -10 18 -40 27 -40 11z"></path>
<path d="M4838 2943 c-19 -5 -25 -23 -9 -23 17 0 41 12 41 21 0 9 -4 10 -32 2z"></path>
<path d="M4492 2897 c-26 -27 -28 -37 -7 -37 16 0 38 35 33 51 -2 6 -13 0 -26
-14z"></path>
<path d="M3580 2819 c0 -53 4 -79 11 -77 6 2 10 7 10 11 -1 4 -1 39 -1 77 0
40 -4 70 -10 70 -6 0 -10 -34 -10 -81z"></path>
<path d="M3384 2858 c14 -18 38 -51 53 -73 15 -22 28 -34 31 -27 2 7 -9 28
-25 46 -15 19 -36 46 -46 60 -10 14 -23 26 -29 26 -6 0 1 -15 16 -32z"></path>
<path d="M3720 2866 c0 -23 30 -87 38 -82 15 9 0 72 -19 84 -15 10 -19 9 -19
-2z"></path>
<path d="M3768 2853 c5 -21 7 -23 10 -9 2 10 0 22 -6 28 -6 6 -7 0 -4 -19z"></path>
<path d="M4750 2872 c0 -5 11 -14 25 -20 32 -15 32 -25 -1 -43 -28 -14 -136
-150 -127 -159 3 -3 12 6 22 19 23 35 122 134 151 153 l25 15 -42 22 c-47 23
-53 25 -53 13z"></path>
<path d="M3791 2844 c-1 -22 22 -49 37 -42 4 1 2 14 -5 28 -11 22 -13 23 -14
5 -1 -17 -2 -16 -9 5 -7 22 -8 23 -9 4z"></path>
<path d="M4674 2810 c-6 -39 -17 -50 -29 -30 -8 12 -35 13 -35 1 0 -13 60 -35
69 -25 14 15 22 82 12 89 -6 3 -13 -11 -17 -35z"></path>
<path d="M4887 2787 c21 -29 52 -70 69 -92 18 -22 33 -49 35 -59 2 -11 10 -21
17 -22 7 -1 8 0 2 3 -5 2 -10 10 -10 17 0 20 -116 192 -134 199 -9 4 1 -17 21
-46z"></path>
<path d="M3070 2798 c0 -9 20 -11 115 -8 59 1 75 -2 98 -20 16 -13 27 -31 27
-46 0 -13 5 -24 10 -24 15 0 12 43 -5 67 -8 12 -30 26 -48 32 -36 12 -197 11
-197 -1z"></path>
<path d="M3866 2779 c12 -13 24 -33 29 -44 4 -12 9 -15 12 -8 7 20 -21 67 -42
71 -20 4 -20 4 1 -19z"></path>
<path d="M4380 2793 c0 -13 102 -24 115 -12 5 5 -3 9 -22 9 -17 0 -45 3 -62 6
-18 4 -31 2 -31 -3z"></path>
<path d="M4380 2719 c-40 -29 -45 -30 -84 -20 -22 6 -62 13 -89 15 -26 2 -50
6 -54 10 -7 7 -33 -12 -33 -25 0 -5 34 -9 75 -9 86 0 169 -26 205 -65 24 -25
50 -33 50 -15 0 5 -12 16 -28 24 -15 8 -35 23 -45 34 -17 19 -17 20 28 46 25
15 45 29 45 31 0 14 -32 1 -70 -26z"></path>
<path d="M2974 2685 c-23 -61 -10 -70 16 -11 23 54 23 56 11 56 -5 0 -17 -20
-27 -45z"></path>
<path d="M4800 2660 c-19 -17 -45 -30 -57 -30 -13 0 -23 -4 -23 -10 0 -20 47
-9 88 21 l43 31 58 -21 c65 -23 71 -25 71 -13 0 8 -116 53 -135 52 -5 -1 -26
-14 -45 -30z"></path>
<path d="M3310 2630 c0 -11 5 -20 10 -20 6 0 10 9 10 20 0 11 -4 20 -10 20 -5
0 -10 -9 -10 -20z"></path>
<path d="M5079 2602 c33 -28 34 -31 28 -77 -4 -27 -9 -51 -12 -54 -3 -2 -24
14 -48 37 -43 42 -82 62 -120 62 -37 0 -99 -39 -145 -90 -27 -32 -52 -50 -70
-52 -18 -2 -26 -8 -23 -18 3 -8 6 -31 7 -50 1 -28 5 -34 20 -32 26 5 26 5 10
37 -17 32 -5 60 21 51 8 -4 22 8 34 29 12 19 27 35 35 35 7 0 20 13 28 29 21
40 91 55 139 29 22 -11 128 -101 202 -170 41 -38 125 -65 125 -39 0 6 -13 11
-29 11 -20 0 -50 17 -96 53 l-67 52 7 65 c5 60 4 68 -17 86 -13 12 -32 24 -43
28 -13 4 -8 -4 14 -22z"></path>
<path d="M4460 2610 c0 -5 7 -10 15 -10 8 0 15 5 15 10 0 6 -7 10 -15 10 -8 0
-15 -4 -15 -10z"></path>
<path d="M3281 2566 c-8 -9 -11 -19 -7 -23 9 -9 29 13 24 27 -2 8 -8 7 -17 -4z"></path>
<path d="M3825 2510 c-4 -6 5 -10 19 -10 14 0 26 5 26 10 0 6 -9 10 -19 10
-11 0 -23 -4 -26 -10z"></path>
<path d="M4420 2506 c0 -7 -9 -25 -21 -40 -11 -14 -16 -26 -10 -26 13 0 51 49
51 66 0 8 -4 14 -10 14 -5 0 -10 -6 -10 -14z"></path>
<path d="M3785 2460 c-3 -5 -1 -10 4 -10 6 0 11 5 11 10 0 6 -2 10 -4 10 -3 0
-8 -4 -11 -10z"></path>
<path d="M3752 2428 c-14 -14 -16 -68 -3 -68 7 0 22 70 16 77 -1 2 -7 -3 -13
-9z"></path>
<path d="M3385 2390 c-17 -28 28 -40 68 -18 l22 12 -25 7 c-37 10 -58 10 -65
-1z"></path>
<path d="M4843 2375 c4 -13 77 -19 77 -7 0 6 -18 12 -40 14 -25 2 -39 0 -37
-7z"></path>
<path d="M3910 2355 c0 -8 5 -15 10 -15 6 0 10 7 10 15 0 8 -4 15 -10 15 -5 0
-10 -7 -10 -15z"></path>
<path d="M4190 2353 c0 -25 64 -243 72 -243 5 0 8 6 6 13 -40 155 -64 237 -70
237 -5 0 -8 -3 -8 -7z"></path>
<path d="M5330 2320 c0 -5 14 -10 31 -10 17 0 28 4 24 10 -3 6 -17 10 -31 10
-13 0 -24 -4 -24 -10z"></path>
<path d="M3900 2310 c0 -5 5 -10 10 -10 6 0 10 5 10 10 0 6 -4 10 -10 10 -5 0
-10 -4 -10 -10z"></path>
<path d="M5419 2303 c-9 -10 -25 -23 -35 -29 -10 -7 -16 -15 -13 -18 7 -8 99
45 99 56 0 15 -36 8 -51 -9z"></path>
<path d="M3650 2295 c0 -8 5 -15 10 -15 6 0 10 7 10 15 0 8 -4 15 -10 15 -5 0
-10 -7 -10 -15z"></path>
<path d="M3886 2254 c-6 -24 -2 -44 8 -33 9 11 15 59 7 59 -5 0 -12 -12 -15
-26z"></path>
<path d="M4180 2235 c0 -8 5 -15 10 -15 6 0 10 7 10 15 0 8 -4 15 -10 15 -5 0
-10 -7 -10 -15z"></path>
<path d="M3559 2188 c-6 -13 -25 -38 -42 -55 -24 -26 -27 -33 -14 -33 28 0
102 74 94 93 -9 24 -24 21 -38 -5z"></path>
<path d="M4190 2178 c0 -20 -1 -20 -19 -4 -11 10 -26 16 -33 13 -8 -3 -3 -9
13 -15 29 -11 69 -57 69 -78 0 -7 5 -16 11 -20 13 -8 7 24 -13 73 -6 15 -10
34 -9 41 1 6 -3 12 -9 12 -5 0 -10 -10 -10 -22z"></path>
<path d="M3867 2184 c-4 -4 -7 -14 -7 -23 0 -11 3 -12 11 -4 6 6 10 16 7 23
-2 6 -7 8 -11 4z"></path>
<path d="M4780 2175 c-6 -8 -10 -21 -8 -30 2 -12 8 -8 21 14 18 31 9 43 -13
16z"></path>
<path d="M5986 2123 c-38 -47 -41 -98 -6 -124 31 -23 90 -36 90 -20 0 6 -9 11
-20 11 -12 0 -35 7 -52 16 -27 14 -30 19 -25 51 7 43 33 73 62 73 29 0 38 -13
60 -80 10 -30 34 -83 52 -117 29 -53 43 -67 98 -98 36 -20 95 -47 132 -61 38
-14 92 -36 122 -50 29 -14 58 -23 65 -21 6 3 -11 15 -39 27 -27 12 -63 28 -80
35 -16 7 -55 23 -85 34 -144 54 -194 106 -245 253 -28 81 -36 92 -75 101 -21
5 -31 0 -54 -30z"></path>
<path d="M4260 2081 c0 -6 5 -13 10 -16 6 -3 10 1 10 9 0 9 -4 16 -10 16 -5 0
-10 -4 -10 -9z"></path>
<path d="M4240 2046 c0 -8 5 -18 10 -21 6 -3 10 1 10 9 0 8 -4 18 -10 21 -5 3
-10 -1 -10 -9z"></path>
<path d="M4280 2036 c0 -8 5 -18 10 -21 6 -3 10 1 10 9 0 8 -4 18 -10 21 -5 3
-10 -1 -10 -9z"></path>
<path d="M2950 1965 c0 -8 0 -18 -1 -22 0 -4 4 -9 10 -11 6 -2 11 3 11 12 0 9
5 16 10 16 6 0 10 -9 10 -19 0 -19 45 -39 58 -26 3 3 -4 8 -16 12 -12 3 -22
13 -22 23 0 10 -10 20 -22 24 -34 9 -38 8 -38 -9z"></path>
<path d="M2640 1960 c0 -12 37 -12 65 0 15 7 10 9 -22 9 -24 1 -43 -3 -43 -9z"></path>
<path d="M2810 1961 c0 -5 9 -11 21 -14 12 -3 18 -10 15 -16 -13 -20 25 -61
55 -61 36 0 41 9 33 59 -7 42 -24 57 -24 22 0 -49 -22 -65 -40 -31 -9 17 -7
22 12 30 l23 11 -22 -5 c-13 -2 -23 0 -23 5 0 5 -11 9 -25 9 -14 0 -25 -4 -25
-9z"></path>
<path d="M2547 1945 c-46 -13 -87 -39 -87 -56 0 -5 10 -14 23 -20 20 -11 21
-11 7 5 -13 16 -12 20 4 32 10 7 43 19 72 25 30 7 54 16 54 21 0 10 -14 9 -73
-7z"></path>
<path d="M3740 1932 c0 -5 11 -19 25 -32 14 -13 25 -34 25 -47 0 -34 -50 -52
-186 -67 -101 -11 -136 -19 -123 -30 8 -6 235 22 269 34 51 19 60 29 60 67 0
24 -8 41 -26 58 -27 25 -44 32 -44 17z"></path>
<path d="M5483 1923 c-25 -5 -32 -23 -9 -23 22 0 46 11 46 21 0 5 -3 8 -7 8
-5 -1 -18 -4 -30 -6z"></path>
<path d="M3110 1916 c0 -2 7 -9 15 -16 9 -7 15 -8 15 -2 0 5 -7 12 -15 16 -8
3 -15 4 -15 2z"></path>
<path d="M2560 1899 l-25 -10 24 -20 c29 -24 109 -27 117 -4 15 38 -55 58
-116 34z"></path>
<path d="M3070 1895 c19 -23 4 -44 -47 -68 -43 -20 -64 -22 -188 -21 -109 1
-157 6 -219 23 -44 11 -81 19 -84 16 -16 -16 206 -65 299 -65 76 0 172 16 210
35 38 20 64 62 48 81 -6 8 -16 14 -21 14 -6 0 -5 -7 2 -15z"></path>
<path d="M2965 1871 c-7 -12 12 -24 25 -16 11 7 4 25 -10 25 -5 0 -11 -4 -15
-9z"></path>
<path d="M3081 1822 c-29 -20 -48 -38 -42 -40 7 -2 18 1 25 7 7 6 20 9 29 5
11 -4 21 4 32 26 9 18 15 33 13 35 -2 1 -27 -14 -57 -33z"></path>
<path d="M2790 1841 c0 -12 29 -23 41 -15 18 10 9 24 -16 24 -14 0 -25 -4 -25
-9z"></path>
<path d="M3150 1801 c0 -9 53 -31 76 -31 28 0 13 17 -25 28 -46 14 -51 15 -51
3z"></path>
<path d="M2970 1770 c-14 -4 -51 -8 -82 -9 -32 -1 -58 -5 -58 -11 0 -22 159
-5 183 19 13 13 -5 13 -43 1z"></path>
<path d="M2720 1750 c0 -5 7 -10 15 -10 8 0 15 5 15 10 0 6 -7 10 -15 10 -8 0
-15 -4 -15 -10z"></path>
<path d="M6300 1753 c0 -5 60 -28 132 -53 73 -25 157 -60 186 -77 59 -36 62
-37 62 -25 0 18 -114 75 -234 117 -131 46 -146 50 -146 38z"></path>
<path d="M3355 1720 c3 -5 15 -10 26 -10 10 0 19 5 19 10 0 6 -12 10 -26 10
-14 0 -23 -4 -19 -10z"></path>
<path d="M4650 1691 c0 -17 26 -29 91 -40 78 -13 159 -14 159 -2 0 4 -41 11
-90 14 -50 3 -104 13 -122 21 -36 19 -38 19 -38 7z"></path>
<path d="M4948 1676 c-10 -7 -18 -16 -18 -20 0 -10 38 -7 46 5 11 18 -10 29
-28 15z"></path>
<path d="M5354 1411 c-10 -47 -41 -69 -104 -73 -41 -2 -55 -7 -55 -18 0 -24
121 -27 148 -3 23 21 47 73 47 103 0 31 -30 24 -36 -9z"></path>
<path d="M5510 1420 c-6 -11 -14 -43 -17 -70 -5 -46 -4 -51 27 -80 40 -37 107
-73 120 -65 18 11 10 25 -27 44 -64 32 -75 51 -71 122 3 66 -11 88 -32 49z"></path>
<path d="M6517 1286 c-32 -13 -65 -30 -75 -37 -164 -128 -261 -256 -395 -524
-59 -119 -147 -343 -146 -372 0 -24 17 12 75 161 76 200 192 415 285 532 105
132 254 244 327 244 12 0 22 5 22 10 0 16 -31 11 -93 -14z"></path>
<path d="M6660 1303 c0 -5 29 -15 65 -24 48 -12 62 -13 55 -4 -6 7 -30 18 -55
24 -52 13 -65 14 -65 4z"></path>
<path d="M5195 1210 c-9 -15 4 -30 25 -30 28 0 35 -18 35 -85 0 -53 2 -60 20
-60 25 0 47 62 43 119 -3 37 -5 40 -48 52 -54 16 -67 17 -75 4z"></path>
<path d="M5465 1166 c-22 -34 -41 -134 -27 -148 17 -17 38 5 52 57 17 61 31
70 70 50 22 -11 36 -13 42 -7 12 12 -20 35 -80 56 -41 15 -43 14 -57 -8z"></path>
<path d="M4804 923 c3 -21 6 -46 6 -56 0 -12 17 -26 53 -41 71 -31 97 -39 97
-28 0 5 -28 20 -62 33 -35 14 -64 31 -65 39 -8 63 -15 90 -25 90 -7 0 -8 -13
-4 -37z"></path>
<path d="M5020 831 c0 -6 5 -13 10 -16 6 -3 10 1 10 9 0 9 -4 16 -10 16 -5 0
-10 -4 -10 -9z"></path>
</g>
</svg>