 <svg version="1.0" xmlns="http://www.w3.org/2000/svg" width="700.000000pt" height="403.000000pt" viewBox="0 0 700.000000 403.000000" preserveAspectRatio="xMidYMid meet">
<metadata>
Created by potrace 1.12, written by Peter Selinger 2001-2015
</metadata>
<g transform="translate(0.000000,403.000000) scale(0.100000,-0.100000)" fill="#000000" stroke="none">
<path d="M0 2015 l0 -2015 3500 0 3500 0 0 25 0 25 -3492 2 -3493 3 -3 678 -2
677 289 0 290 0 -2 33 c0 17 1 39 4 47 3 13 -34 15 -290 18 l-294 2 6 868 c4
477 10 879 13 895 4 15 11 27 17 27 6 0 45 -18 88 -40 43 -22 88 -40 100 -40
12 0 52 12 87 26 76 30 112 28 169 -10 72 -49 99 -31 132 87 12 45 29 79 54
106 19 21 45 66 57 98 12 33 31 72 44 87 l22 28 43 -22 c27 -13 52 -19 67 -16
35 9 58 -7 93 -63 l30 -50 3 -178 c3 -275 26 -435 50 -351 9 35 9 320 -2 433
-6 64 -5 115 1 140 5 22 13 130 17 240 l7 200 595 7 c327 3 1443 6 2480 7
3143 0 2820 -2 2820 21 0 20 -7 20 -3500 20 l-3500 0 0 -2015z m800 1919 c0
-8 -4 -14 -10 -14 -5 0 -10 9 -10 21 0 11 5 17 10 14 6 -3 10 -13 10 -21z"></path>
<path d="M1862 3919 c5 -35 33 -47 57 -25 21 19 28 46 12 46 -5 0 -11 -9 -14
-20 -3 -11 -10 -20 -17 -20 -7 0 -14 9 -17 20 -7 27 -25 26 -21 -1z"></path>
<path d="M2810 3925 c0 -8 5 -15 10 -15 6 0 10 7 10 15 0 8 -4 15 -10 15 -5 0
-10 -7 -10 -15z"></path>
<path d="M2930 3934 c1 -20 19 -37 34 -31 17 7 22 27 7 27 -5 0 -16 3 -25 6
-9 3 -16 2 -16 -2z"></path>
<path d="M3426 3914 c-9 -8 -21 -25 -27 -37 -6 -12 -7 -17 -3 -12 45 51 57 65
51 65 -3 0 -13 -7 -21 -16z"></path>
<path d="M2250 3899 c-14 -5 -35 -20 -47 -31 -47 -44 -16 -128 42 -114 14 3
37 9 51 12 21 5 33 -1 65 -32 22 -21 39 -48 39 -60 0 -38 12 -84 22 -84 6 0 9
24 6 60 -4 58 -7 63 -54 105 -55 50 -62 52 -110 29 -40 -19 -64 -7 -64 31 0
24 21 45 63 63 49 21 68 14 124 -43 30 -30 58 -55 64 -55 5 0 15 15 23 34 16
39 42 56 85 56 47 0 43 -39 -8 -79 -35 -28 -39 -36 -45 -93 -5 -48 -12 -68
-33 -90 -31 -32 -24 -51 8 -22 27 24 49 74 49 113 0 20 13 44 40 76 42 48 47
64 30 96 -8 14 -21 19 -52 19 -34 0 -46 -6 -75 -36 l-34 -37 -43 42 c-47 46
-98 60 -146 40z"></path>
<path d="M3840 3897 c0 -8 -9 -22 -21 -33 -12 -10 -30 -36 -40 -56 -16 -32
-17 -38 -5 -38 9 0 36 -20 61 -45 39 -37 46 -50 43 -76 -2 -24 -11 -37 -35
-50 l-33 -18 -8 32 c-5 22 -18 37 -42 49 -19 10 -40 24 -46 32 -5 8 -28 16
-50 18 -31 2 -40 7 -42 25 -5 33 66 104 127 128 50 19 73 43 29 29 -51 -15
-86 -40 -151 -107 l-69 -71 -41 11 c-34 10 -43 9 -52 -4 -9 -12 -23 -15 -58
-11 -26 3 -47 2 -47 -3 0 -5 5 -9 10 -9 6 0 20 -21 31 -47 11 -27 34 -63 52
-80 41 -44 20 -42 -38 3 -26 19 -50 32 -53 28 -4 -4 -1 -9 6 -12 24 -8 83 -64
98 -93 17 -33 18 -117 3 -174 -6 -22 -11 -52 -11 -66 1 -20 -17 -45 -70 -98
-39 -39 -76 -71 -84 -71 -7 0 -17 -6 -21 -14 -12 -20 -80 -58 -87 -48 -3 5
-10 29 -15 53 -8 35 -7 47 6 61 19 22 11 45 -18 50 -18 2 -25 16 -41 73 -11
39 -24 75 -30 80 -7 7 -9 4 -6 -10 24 -93 81 -306 89 -332 7 -22 17 -33 30
-33 10 0 19 -4 19 -8 0 -16 183 -215 202 -220 39 -10 17 -24 -32 -20 -63 6
-92 31 -88 73 2 24 -1 30 -17 30 -14 0 -20 7 -20 21 -1 12 -5 28 -11 35 -6 8
-14 22 -17 32 -8 21 -27 23 -27 2 0 -8 18 -48 40 -89 22 -41 38 -81 35 -88 -8
-20 130 -54 150 -38 8 7 23 9 35 5 26 -8 26 9 0 42 -24 31 -27 125 -5 163 7
14 21 40 29 58 8 17 19 32 25 32 5 0 22 -27 38 -59 27 -57 44 -76 43 -48 -1 6
-18 43 -39 80 -38 68 -38 69 -25 114 8 26 14 59 14 74 0 42 15 43 29 1 7 -20
31 -65 52 -100 38 -61 38 -64 22 -88 -15 -24 -15 -26 2 -42 16 -16 17 -16 11
4 -4 14 0 27 13 38 19 17 18 19 -32 98 -36 56 -51 89 -50 111 2 39 55 169 71
175 7 2 10 -2 6 -12 -5 -13 -1 -13 36 1 40 16 43 16 93 -9 74 -36 111 -41 132
-18 9 10 14 24 10 29 -3 6 0 11 9 11 8 0 22 3 30 6 13 5 15 2 9 -12 -7 -18 -6
-18 17 -3 14 9 45 41 70 72 l45 56 5 -35 c3 -19 10 -35 15 -35 6 1 13 -10 16
-23 6 -19 3 -24 -15 -24 -11 0 -43 -7 -69 -14 -40 -11 -55 -22 -84 -61 -39
-53 -38 -76 2 -29 19 23 41 34 95 47 39 10 74 15 77 11 3 -3 2 -16 -4 -28 -11
-25 -7 -48 8 -48 5 0 13 11 18 23 7 17 16 23 33 22 20 -2 23 -7 22 -39 -2 -45
11 -46 31 -3 9 17 22 43 31 57 10 17 14 44 11 88 -2 48 0 61 10 58 23 -9 14
18 -22 63 -29 36 -35 52 -35 92 0 27 -4 49 -10 49 -5 0 -10 -22 -10 -49 0 -27
-6 -64 -14 -82 l-14 -32 -7 42 c-4 25 -3 46 2 50 6 3 13 37 16 75 l6 69 -60
58 c-102 100 -165 129 -283 129 -49 0 -66 -4 -66 -13z m-320 -703 c0 -17 -22
-14 -28 4 -2 7 3 12 12 12 9 0 16 -7 16 -16z m-82 -63 c32 -20 44 -64 37 -138
-4 -40 -10 -73 -14 -73 -13 0 -86 83 -76 86 38 15 60 32 63 48 4 18 2 18 -33
-2 -20 -12 -45 -22 -55 -22 -11 0 -24 -9 -30 -20 -11 -21 -35 -27 -45 -10 -12
19 21 64 75 101 61 43 60 42 78 30z"></path>
<path d="M2820 3878 c0 -17 47 -64 55 -56 3 3 -8 20 -25 38 -18 19 -30 26 -30
18z"></path>
<path d="M3520 3864 c0 -8 5 -12 10 -9 6 4 8 11 5 16 -9 14 -15 11 -15 -7z"></path>
<path d="M3170 3857 c0 -8 -11 -24 -25 -37 -25 -23 -32 -40 -17 -40 4 0 18 17
32 38 32 48 34 52 21 52 -6 0 -11 -6 -11 -13z"></path>
<path d="M4345 3860 c3 -5 8 -10 11 -10 2 0 4 5 4 10 0 6 -5 10 -11 10 -5 0
-7 -4 -4 -10z"></path>
<path d="M2900 3830 c0 -5 5 -10 10 -10 6 0 10 -7 10 -15 0 -8 5 -15 10 -15 6
0 10 7 10 15 0 8 3 15 8 15 17 0 112 -72 112 -85 0 -8 5 -15 10 -15 21 0 9 40
-17 57 -16 9 -41 27 -56 40 -29 23 -97 32 -97 13z"></path>
<path d="M1727 3823 c-13 -12 -7 -18 18 -19 21 -2 24 1 14 12 -13 15 -22 18
-32 7z"></path>
<path d="M3440 3800 c0 -5 5 -10 10 -10 6 0 10 5 10 10 0 6 -4 10 -10 10 -5 0
-10 -4 -10 -10z"></path>
<path d="M2245 3690 c-7 -21 0 -40 15 -40 5 0 7 7 4 15 -4 8 -1 22 6 30 10 12
10 15 -3 15 -9 0 -18 -9 -22 -20z"></path>
<path d="M2295 3700 c3 -5 10 -10 16 -10 5 0 9 5 9 10 0 6 -7 10 -16 10 -8 0
-12 -4 -9 -10z"></path>
<path d="M1949 3653 c-8 -10 -33 -45 -54 -78 -38 -58 -39 -62 -37 -139 3 -75
18 -126 43 -141 19 -13 19 1 -2 41 -15 29 -19 50 -15 83 4 27 2 49 -6 58 -9
11 -3 26 30 73 23 32 42 65 42 73 0 7 5 18 12 25 6 6 9 14 6 17 -2 3 -11 -3
-19 -12z"></path>
<path d="M2135 3660 c-3 -5 -1 -10 4 -10 6 0 11 5 11 10 0 6 -2 10 -4 10 -3 0
-8 -4 -11 -10z"></path>
<path d="M2295 3659 c-4 -6 -5 -13 -2 -16 7 -7 27 6 27 18 0 12 -17 12 -25 -2z"></path>
<path d="M2920 3660 c0 -5 7 -10 15 -10 8 0 15 5 15 10 0 6 -7 10 -15 10 -8 0
-15 -4 -15 -10z"></path>
<path d="M3028 3662 c-10 -2 -18 -7 -18 -12 0 -10 49 -19 55 -10 7 12 -18 27
-37 22z"></path>
<path d="M2805 3642 c-27 -8 -74 -16 -102 -16 -42 -1 -60 -7 -88 -29 -19 -15
-40 -38 -46 -50 -7 -13 6 -5 33 21 44 42 46 43 94 37 35 -5 57 -2 79 9 17 9
51 19 78 22 26 4 47 10 47 15 0 13 -38 9 -95 -9z"></path>
<path d="M3180 3650 c0 -5 7 -10 15 -10 8 0 15 5 15 10 0 6 -7 10 -15 10 -8 0
-15 -4 -15 -10z"></path>
<path d="M1994 3632 c3 -10 -3 -36 -15 -57 -25 -49 -52 -135 -45 -143 7 -7 56
-10 56 -3 0 2 -7 12 -16 22 -14 16 -13 23 16 89 29 67 33 110 9 110 -6 0 -8
-8 -5 -18z"></path>
<path d="M3250 3640 c0 -5 7 -10 15 -10 8 0 15 5 15 10 0 6 -7 10 -15 10 -8 0
-15 -4 -15 -10z"></path>
<path d="M3300 3630 c0 -5 7 -10 16 -10 8 0 12 5 9 10 -3 6 -10 10 -16 10 -5
0 -9 -4 -9 -10z"></path>
<path d="M3150 3595 c7 -9 15 -13 17 -11 7 7 -7 26 -19 26 -6 0 -6 -6 2 -15z"></path>
<path d="M2227 3593 c-14 -13 -6 -20 18 -15 14 2 25 8 25 13 0 10 -34 12 -43
2z"></path>
<path d="M2255 3550 c-3 -5 -2 -10 4 -10 5 0 13 5 16 10 3 6 2 10 -4 10 -5 0
-13 -4 -16 -10z"></path>
<path d="M2915 3517 c16 -12 49 -39 73 -60 41 -35 63 -43 48 -18 -12 19 -124
101 -138 101 -7 0 0 -11 17 -23z"></path>
<path d="M2563 3499 c3 -13 16 -76 30 -139 13 -63 31 -130 39 -148 13 -30 13
-37 -5 -72 -10 -22 -17 -45 -14 -52 2 -7 15 11 28 40 24 55 49 68 68 35 5 -10
13 -15 17 -10 11 10 -26 48 -45 45 -34 -6 -89 146 -57 158 13 5 12 12 -6 46
-12 23 -24 57 -27 76 -4 20 -12 37 -20 40 -10 3 -12 -2 -8 -19z"></path>
<path d="M2620 3466 c0 -4 9 -19 19 -34 11 -15 24 -55 30 -89 11 -71 33 -107
140 -233 59 -70 123 -168 180 -278 9 -16 16 -22 19 -14 2 7 -3 21 -11 30 -8 9
-18 28 -22 42 -15 50 -78 152 -138 223 -116 135 -138 172 -150 242 -8 50 -18
72 -39 92 -15 15 -28 23 -28 19z"></path>
<path d="M1980 3390 c0 -6 -9 -30 -20 -52 -23 -48 -23 -48 -10 -48 11 0 50 73
50 95 0 8 -4 15 -10 15 -5 0 -10 -5 -10 -10z"></path>
<path d="M3725 3270 c-7 -11 -6 -11 40 -13 17 -1 30 -6 30 -12 0 -5 -11 -9
-24 -7 -15 2 -22 -1 -19 -10 3 -7 23 -14 48 -16 39 -3 42 -2 37 18 -4 17 -2
20 14 15 24 -8 25 3 2 21 -21 16 -119 19 -128 4z"></path>
<path d="M4036 3253 c-12 -13 -5 -21 14 -16 14 4 20 0 20 -11 0 -11 -9 -16
-27 -16 -34 0 -22 -12 16 -16 22 -3 34 2 45 18 25 35 30 14 11 -44 -41 -125
-116 -217 -198 -243 -51 -17 -82 -35 -61 -35 6 0 37 9 69 20 32 11 82 20 112
20 42 0 55 4 59 18 4 9 12 31 19 47 7 17 19 47 26 68 15 42 24 45 59 17 49
-39 43 -19 -9 29 -52 48 -53 51 -47 89 5 32 3 41 -12 47 -23 11 -88 16 -96 8z
m104 -130 c-1 -26 -14 -53 -27 -53 -8 0 -12 6 -9 13 3 6 9 20 12 30 6 17 24
24 24 10z m-85 -163 c3 -5 -3 -10 -14 -10 -12 0 -21 5 -21 10 0 6 6 10 14 10
8 0 18 -4 21 -10z"></path>
<path d="M1468 3219 c-10 -5 -18 -17 -18 -24 0 -20 16 -19 24 0 3 8 12 15 19
15 8 0 20 -7 27 -15 18 -21 -6 -48 -37 -42 -15 3 -22 0 -20 -7 2 -6 16 -12 30
-14 15 -2 27 -5 27 -7 0 -2 -16 -31 -35 -65 -23 -40 -35 -75 -35 -99 0 -45 25
-73 57 -65 15 4 25 0 33 -15 12 -24 6 -41 -15 -41 -8 0 -22 -11 -31 -25 -21
-32 -25 -31 -76 5 -50 37 -96 39 -126 8 -32 -35 -82 -155 -82 -197 0 -27 7
-44 25 -61 28 -27 19 -50 -20 -50 -30 0 -75 -37 -75 -61 0 -10 5 -19 10 -19 6
0 10 6 10 14 0 24 42 46 86 46 25 0 47 6 54 15 11 13 6 22 -29 54 -45 41 -54
81 -26 117 8 10 19 35 25 55 13 47 46 89 70 89 28 0 88 -39 95 -61 4 -10 9
-19 13 -19 19 1 55 29 65 51 7 13 20 25 30 27 27 5 32 -26 8 -52 -20 -22 -20
-23 -4 -38 32 -28 61 -31 72 -9 21 39 13 79 -25 121 -30 33 -35 45 -31 70 9
41 -9 47 -43 15 -16 -15 -33 -24 -39 -21 -19 12 -13 81 9 101 11 10 20 27 20
38 0 10 15 34 34 53 43 43 90 46 135 8 38 -31 39 -57 6 -96 -32 -38 -36 -108
-6 -108 11 0 23 -5 26 -10 4 -6 12 -10 18 -9 28 3 40 -4 83 -48 45 -46 47 -46
77 -34 88 36 119 21 138 -66 l13 -55 -53 -49 c-51 -47 -60 -72 -23 -62 12 3
25 -4 36 -21 21 -34 36 -33 68 4 16 18 44 34 73 42 38 10 50 19 65 48 26 53
32 108 14 142 -8 16 -12 37 -9 47 5 16 -29 60 -39 50 -3 -3 4 -31 15 -64 22
-66 21 -143 -2 -171 -7 -9 -36 -26 -64 -38 -27 -13 -56 -30 -64 -39 -18 -22
-34 -21 -56 3 -17 19 -17 21 19 60 39 43 44 72 25 131 -25 74 -71 95 -148 68
-27 -9 -36 -9 -48 3 -13 14 -11 18 16 37 41 29 44 82 6 107 -34 22 -68 12
-101 -31 -30 -40 -44 -43 -68 -16 -16 18 -16 22 -2 49 9 17 20 34 26 37 15 9
12 63 -5 89 -23 35 -67 50 -126 43 -47 -6 -50 -5 -44 14 4 13 0 28 -11 40 -19
21 -40 24 -66 8z m383 -249 c22 -12 25 -52 5 -69 -16 -14 -77 -2 -83 15 -4 13
35 64 48 64 6 0 19 -5 30 -10z m-251 -199 c0 -6 -4 -13 -10 -16 -5 -3 -10 1
-10 9 0 9 5 16 10 16 6 0 10 -4 10 -9z"></path>
<path d="M2413 3213 c-7 -2 -13 -12 -13 -21 0 -12 3 -13 12 -4 19 19 82 14
112 -9 14 -11 26 -16 26 -10 0 5 -12 19 -26 30 -25 20 -81 27 -111 14z"></path>
<path d="M3960 3185 c0 -14 5 -25 10 -25 6 0 10 11 10 25 0 14 -4 25 -10 25
-5 0 -10 -11 -10 -25z"></path>
<path d="M2390 3165 c0 -6 -5 -38 -10 -73 -10 -57 -9 -66 10 -92 24 -33 110
-65 110 -41 0 5 -15 12 -33 15 -18 3 -43 13 -56 22 -20 15 -22 21 -16 68 4 28
12 57 18 64 7 9 6 18 -6 30 -10 9 -17 12 -17 7z"></path>
<path d="M2690 3132 c0 -4 34 -46 75 -92 41 -47 75 -89 75 -94 0 -11 -69 -2
-138 19 -63 19 -92 45 -92 82 0 40 -13 21 -65 -97 -116 -262 -132 -290 -202
-354 -36 -34 -89 -78 -117 -99 -74 -56 -172 -155 -208 -210 -28 -43 -29 -50
-16 -64 12 -12 23 -13 52 -4 51 13 64 6 68 -37 3 -31 7 -38 30 -42 31 -6 98
-79 98 -107 0 -10 -9 -31 -19 -47 -21 -32 -19 -46 5 -46 8 0 28 -10 44 -21 36
-27 57 -20 76 26 11 26 20 35 39 35 13 0 40 14 58 30 32 27 35 36 39 98 4 50
1 71 -10 84 -21 25 -10 41 51 73 l55 29 32 -28 c41 -34 71 -29 119 20 19 19
54 47 78 61 46 27 60 58 21 48 -24 -6 -141 15 -191 34 -20 8 -26 8 -21 0 10
-17 86 -49 117 -49 15 0 27 -4 27 -8 0 -21 -27 -62 -40 -62 -24 0 -167 146
-173 177 -5 28 45 133 65 133 9 0 34 9 193 71 78 30 120 58 107 71 -9 9 -17 7
-32 -7 -25 -22 -27 -5 -2 24 l17 22 36 -25 c33 -23 43 -24 113 -19 84 7 104
23 27 23 -28 0 -53 5 -56 11 -4 6 -13 8 -20 5 -8 -3 -30 15 -51 42 -21 26 -80
96 -132 156 -51 60 -99 117 -105 127 -12 19 -27 25 -27 11z m1 -203 c11 -5 17
-14 13 -20 -4 -6 -11 -6 -20 2 -8 6 -14 8 -14 5 0 -4 -5 -4 -10 -1 -6 4 -8 11
-5 16 8 12 12 11 36 -2z"></path>
<path d="M2536 3121 c-3 -5 -20 -12 -37 -16 -20 -5 -34 -16 -40 -33 -11 -30
-5 -38 36 -47 l30 -7 -25 20 c-20 17 -22 22 -11 36 7 9 19 16 26 16 15 0 40
28 32 36 -3 3 -8 1 -11 -5z"></path>
<path d="M3199 3097 c15 -19 41 -23 41 -7 0 6 -4 10 -9 10 -5 0 -18 3 -28 7
-16 6 -16 5 -4 -10z"></path>
<path d="M3880 3061 c0 -11 34 -41 48 -41 9 0 32 30 32 42 0 2 -18 4 -40 5
-22 2 -40 -1 -40 -6z"></path>
<path d="M3796 3003 c-8 -9 14 -33 30 -33 7 0 15 4 18 9 6 10 -39 32 -48 24z"></path>
<path d="M3916 2985 c-4 -12 -1 -16 11 -13 18 3 21 20 5 26 -5 1 -12 -4 -16
-13z"></path>
<path d="M2198 2964 c-16 -8 -28 -22 -28 -30 0 -13 5 -12 26 5 40 31 88 28
113 -8 25 -34 26 -52 7 -89 -18 -36 -8 -125 15 -130 16 -3 105 105 95 116 -3
3 -14 -6 -25 -19 -59 -76 -59 -75 -67 -56 -3 10 -3 39 1 65 13 88 10 104 -26
134 -37 31 -70 35 -111 12z"></path>
<path d="M4294 2950 c3 -14 6 -31 6 -37 0 -7 5 -13 11 -13 13 0 3 50 -13 65
-8 7 -9 2 -4 -15z"></path>
<path d="M4194 2899 c31 -27 46 -49 46 -65 0 -13 5 -24 10 -24 6 0 10 12 10
26 0 19 4 25 15 20 8 -3 15 -1 15 5 0 5 -19 18 -43 28 -23 10 -48 26 -56 35
-7 9 -20 16 -29 16 -8 0 6 -18 32 -41z"></path>
<path d="M3510 2895 c0 -22 30 -66 41 -59 10 6 -14 59 -31 69 -5 3 -10 -1 -10
-10z"></path>
<path d="M3667 2903 c-30 -8 -57 -36 -57 -59 0 -45 -8 -52 -48 -43 -44 10 -47
7 -32 -21 9 -16 9 -25 1 -33 -21 -21 -11 -24 67 -23 95 1 117 -11 109 -61 -3
-18 -3 -33 0 -33 4 0 46 27 95 60 83 57 91 60 148 60 75 0 78 16 4 26 -42 5
-64 2 -93 -11 -30 -13 -43 -14 -59 -6 -11 6 -29 11 -39 11 -31 0 -83 55 -83
89 0 25 3 28 21 24 16 -4 20 -2 17 8 -5 15 -23 20 -51 12z"></path>
<path d="M3791 2876 c-19 -23 2 -26 29 -5 24 18 24 19 4 19 -12 0 -27 -6 -33
-14z"></path>
<path d="M4300 2855 c-10 -18 -10 -28 -2 -38 6 -7 8 -23 5 -36 -5 -20 -3 -22
16 -16 12 4 21 2 21 -4 0 -6 -5 -11 -11 -11 -6 0 -8 -8 -4 -19 4 -13 0 -20
-16 -24 -15 -4 -23 0 -26 14 -7 26 -23 24 -23 -2 0 -16 -3 -19 -13 -11 -19 16
-56 11 -49 -7 4 -11 0 -13 -16 -9 -15 4 -20 3 -15 -5 4 -7 6 -19 5 -28 -2 -10
6 -19 19 -22 11 -3 18 -10 14 -16 -9 -15 -63 -14 -121 4 -70 21 -164 30 -164
16 0 -6 9 -11 20 -11 11 0 40 -10 65 -21 33 -15 49 -18 58 -11 9 8 29 5 72 -9
l59 -19 23 22 c13 12 23 27 23 35 0 7 7 13 15 13 26 0 17 -17 -40 -78 -30 -33
-55 -64 -55 -70 0 -5 -7 -15 -15 -22 -9 -7 -14 -14 -12 -16 2 -2 33 24 68 58
62 62 64 62 67 36 2 -17 18 -39 42 -58 50 -40 56 -60 31 -115 -11 -25 -25 -70
-30 -101 -12 -61 -56 -152 -112 -229 -41 -58 -113 -125 -132 -125 -38 0 -119
34 -167 70 -30 23 -65 43 -77 46 -15 4 -23 14 -23 29 0 12 -13 41 -30 63 -16
23 -30 46 -30 51 0 17 -52 51 -79 51 -18 0 -37 -13 -62 -42 -34 -39 -39 -42
-58 -30 -18 10 -27 9 -61 -14 -23 -15 -42 -37 -45 -50 -3 -13 -8 -36 -11 -51
-11 -56 -83 -192 -124 -237 -43 -47 -44 -52 -7 -94 25 -27 49 -22 93 20 17 16
40 28 50 26 15 -3 21 11 39 89 11 50 23 95 27 98 4 4 31 -14 60 -39 45 -41 56
-47 84 -42 44 9 57 -10 45 -62 -13 -61 12 -172 39 -172 14 0 12 7 -6 36 -9 13
-15 26 -13 27 21 13 82 31 114 33 76 7 125 16 125 24 0 15 -50 21 -73 8 -12
-6 -42 -13 -67 -14 -25 -2 -54 -4 -65 -6 -18 -3 -20 3 -23 57 -4 73 -21 95
-74 95 -30 0 -51 9 -93 41 -33 24 -55 49 -55 60 0 11 -5 19 -11 19 -17 0 -38
31 -39 56 0 11 11 31 25 44 21 20 25 21 31 7 3 -9 3 -21 -1 -27 -3 -5 -2 -10
4 -10 5 0 11 12 13 28 3 24 7 27 34 24 26 -3 37 3 62 33 21 26 36 36 52 33 25
-3 31 -11 54 -79 9 -25 43 -77 76 -115 71 -84 118 -110 185 -101 25 4 45 3 45
-2 0 -5 -28 -34 -62 -65 -35 -31 -56 -56 -48 -56 9 0 36 20 60 45 24 24 46 42
50 40 11 -7 0 -103 -21 -187 -22 -92 -60 -179 -96 -226 -26 -34 -26 -34 -92
-30 -37 3 -77 10 -89 17 -21 11 -21 13 -7 41 17 33 19 50 6 50 -5 0 -11 -10
-14 -22 -4 -13 -12 -31 -19 -41 -13 -17 -16 -17 -72 4 -59 23 -156 100 -156
124 0 26 -23 28 -41 4 -13 -17 -17 -34 -13 -60 4 -21 0 -50 -10 -73 -9 -21
-13 -42 -11 -47 10 -14 262 -89 440 -130 86 -20 155 -24 155 -10 0 12 -26 21
-62 21 -47 0 -407 94 -464 121 -28 14 -29 16 -25 79 2 36 5 67 7 69 2 2 29
-20 60 -48 37 -32 77 -57 113 -69 45 -15 55 -23 52 -38 -3 -18 -2 -18 16 -1
19 16 22 16 53 0 48 -23 143 -22 171 3 59 53 128 244 137 383 6 75 11 96 25
105 42 26 54 -44 26 -154 -4 -19 -13 -111 -20 -205 l-11 -170 -40 -68 c-42
-69 -88 -117 -114 -117 -10 0 -13 -6 -10 -18 4 -11 -2 -27 -14 -40 -11 -11
-20 -27 -20 -34 0 -7 7 -2 16 10 19 27 31 28 39 2 6 -18 15 -20 84 -20 65 0
81 -3 96 -20 16 -18 55 -28 55 -15 0 3 -17 29 -38 58 -46 63 -88 146 -83 167
1 8 19 34 38 58 27 33 32 46 24 56 -9 10 -9 54 -1 163 5 83 12 156 15 164 3 8
9 46 14 84 7 56 6 75 -6 94 -9 14 -11 27 -6 32 12 12 72 -8 100 -34 13 -11 25
-18 28 -15 7 6 -59 58 -74 58 -26 0 -19 24 18 67 23 25 41 51 41 57 0 7 23 34
51 61 28 28 57 62 65 78 15 28 41 38 30 12 -3 -8 -1 -15 3 -15 17 0 31 63 31
139 0 44 7 95 16 121 25 69 24 153 -3 182 -11 13 -24 37 -28 55 -3 17 -20 50
-36 72 -19 27 -29 53 -29 76 0 41 -11 45 -30 10z m-50 -176 c0 -5 5 -7 10 -4
6 3 10 1 10 -5 0 -7 -8 -9 -22 -5 -34 11 -46 25 -20 25 12 0 22 -5 22 -11z
m56 -16 c-10 -10 -19 5 -10 18 6 11 8 11 12 0 2 -7 1 -15 -2 -18z m-86 -8 c0
-8 -4 -15 -9 -15 -13 0 -22 16 -14 24 11 11 23 6 23 -9z m140 -76 c12 -28 19
-53 15 -57 -4 -4 -10 -2 -12 5 -2 6 -20 32 -38 56 -19 25 -32 47 -29 50 15 14
44 -10 64 -54z m-890 -584 c11 -21 10 -36 -4 -102 -24 -106 -22 -102 -51 -113
-14 -5 -38 -19 -54 -31 -32 -23 -61 -20 -61 7 0 9 15 36 34 59 31 37 86 141
100 188 7 24 20 21 36 -8z m575 -811 c13 -26 21 -52 16 -57 -15 -15 -113 -3
-125 16 -9 14 -4 23 34 56 25 21 46 38 48 37 1 -2 13 -25 27 -52z"></path>
<path d="M3971 2844 c6 -8 18 -14 26 -14 20 0 8 16 -17 23 -17 4 -19 3 -9 -9z"></path>
<path d="M4020 2825 c0 -3 11 -10 25 -15 30 -11 33 -36 5 -45 -41 -13 -21 -28
29 -21 27 4 52 2 55 -3 3 -5 15 -11 27 -14 20 -5 19 -4 -4 26 -25 32 -29 35
-86 61 -35 17 -51 20 -51 11z"></path>
<path d="M4196 2798 c15 -49 25 -71 30 -65 8 8 -18 87 -28 87 -5 0 -6 -10 -2
-22z"></path>
<path d="M3800 2800 c0 -5 5 -10 10 -10 6 0 10 5 10 10 0 6 -4 10 -10 10 -5 0
-10 -4 -10 -10z"></path>
<path d="M4250 2775 c0 -8 5 -15 10 -15 6 0 10 7 10 15 0 8 -4 15 -10 15 -5 0
-10 -7 -10 -15z"></path>
<path d="M3215 2750 c3 -5 15 -10 26 -10 11 0 17 5 14 10 -3 6 -15 10 -26 10
-11 0 -17 -4 -14 -10z"></path>
<path d="M4030 2711 c0 -10 50 -25 58 -17 2 3 -7 10 -22 16 -33 12 -36 12 -36
1z"></path>
<path d="M4115 2710 c3 -5 13 -10 21 -10 8 0 12 5 9 10 -3 6 -13 10 -21 10 -8
0 -12 -4 -9 -10z"></path>
<path d="M4125 2670 c3 -5 10 -10 16 -10 5 0 9 5 9 10 0 6 -7 10 -16 10 -8 0
-12 -4 -9 -10z"></path>
<path d="M6060 2620 c0 -5 5 -10 10 -10 6 0 10 5 10 10 0 6 -4 10 -10 10 -5 0
-10 -4 -10 -10z"></path>
<path d="M3920 2590 c0 -5 5 -10 10 -10 6 0 10 5 10 10 0 6 -4 10 -10 10 -5 0
-10 -4 -10 -10z"></path>
<path d="M4063 2560 c-6 -23 -24 -25 -55 -9 -12 6 -51 13 -87 14 -77 3 -107
-11 -184 -87 -33 -31 -46 -51 -41 -60 5 -7 11 -31 14 -53 6 -46 23 -53 28 -12
2 15 6 27 10 27 4 0 29 18 56 40 31 26 55 38 66 35 25 -8 62 9 97 43 26 27 34
29 69 23 49 -9 64 -18 64 -37 0 -8 5 -14 10 -14 18 0 12 82 -7 96 -25 19 -34
17 -40 -6z m37 -10 c0 -5 -5 -10 -11 -10 -5 0 -7 5 -4 10 3 6 8 10 11 10 2 0
4 -4 4 -10z m-123 -15 c4 -13 -75 -65 -100 -65 -10 0 -15 5 -12 10 13 22 -10
8 -51 -30 -42 -38 -76 -50 -88 -31 -4 5 23 35 58 68 63 58 64 58 126 58 35 0
65 -5 67 -10z"></path>
<path d="M4060 2490 c0 -5 5 -10 10 -10 6 0 10 5 10 10 0 6 -4 10 -10 10 -5 0
-10 -4 -10 -10z"></path>
<path d="M4001 2464 c15 -18 69 -28 82 -15 8 8 4 11 -15 11 -15 0 -29 4 -33 9
-3 6 -14 9 -25 8 -14 -1 -16 -5 -9 -13z"></path>
<path d="M4233 2420 c-49 -20 -32 -87 22 -87 35 0 31 12 -7 23 -31 9 -49 42
-19 36 15 -3 41 16 41 29 0 11 -8 11 -37 -1z"></path>
<path d="M4293 2415 c4 -5 0 -17 -10 -27 -9 -10 -11 -18 -5 -18 6 0 18 -3 27
-6 13 -6 16 -1 13 21 -2 16 -10 31 -18 33 -8 3 -12 1 -7 -3z"></path>
<path d="M1130 2380 c0 -16 5 -30 10 -30 6 0 10 14 10 30 0 17 -4 30 -10 30
-5 0 -10 -13 -10 -30z"></path>
<path d="M1227 2304 c-31 -38 -30 -58 1 -31 28 26 36 22 77 -38 31 -44 37 -60
32 -85 -6 -28 -5 -30 13 -20 11 6 20 15 20 20 0 20 -22 65 -47 94 -14 17 -32
46 -40 64 -7 17 -17 32 -21 32 -4 0 -20 -16 -35 -36z"></path>
<path d="M4103 2333 c-20 -8 -15 -51 8 -74 15 -15 28 -19 47 -14 39 9 72 33
72 51 0 13 -3 14 -14 5 -16 -14 -43 -4 -66 23 -13 16 -25 18 -47 9z m52 -44
c12 -19 -5 -23 -22 -6 -16 16 -16 17 -1 17 9 0 20 -5 23 -11z"></path>
<path d="M1140 2326 c0 -15 21 -56 29 -56 5 0 4 13 -2 30 -9 25 -27 42 -27 26z"></path>
<path d="M6060 2285 c0 -19 5 -35 10 -35 6 0 10 16 10 35 0 19 -4 35 -10 35
-5 0 -10 -16 -10 -35z"></path>
<path d="M4030 2170 c0 -5 12 -10 26 -10 14 0 34 -5 45 -11 11 -6 25 -8 32 -6
15 6 -55 37 -83 37 -11 0 -20 -4 -20 -10z"></path>
<path d="M3780 2153 c0 -5 7 -18 15 -29 15 -18 15 -18 13 5 -3 23 -28 44 -28
24z"></path>
<path d="M1310 2090 c0 -5 5 -10 10 -10 6 0 10 5 10 10 0 6 -4 10 -10 10 -5 0
-10 -4 -10 -10z"></path>
<path d="M3502 2045 c0 -16 2 -22 5 -12 2 9 2 23 0 30 -3 6 -5 -1 -5 -18z"></path>
<path d="M1327 2029 c-7 -24 9 -53 24 -43 13 8 11 27 -4 49 -13 17 -14 17 -20
-6z"></path>
<path d="M608 1968 c-28 -23 -74 -115 -64 -125 8 -8 9 -7 45 65 34 67 56 78
97 47 12 -9 31 -12 50 -9 27 5 39 0 73 -31 23 -21 41 -45 41 -55 0 -10 6 -23
13 -29 11 -8 18 -6 32 9 10 11 24 20 32 20 7 0 13 5 13 10 0 13 -6 13 -29 -2
-24 -15 -46 -5 -63 28 -19 39 -61 66 -115 75 -27 4 -59 10 -73 14 -18 4 -33
-1 -52 -17z"></path>
<path d="M3740 1982 c0 -12 34 -42 48 -42 7 0 12 5 12 10 0 6 -7 10 -15 10 -9
0 -18 7 -21 15 -6 16 -24 21 -24 7z"></path>
<path d="M6060 1955 c0 -19 5 -35 10 -35 6 0 10 16 10 35 0 19 -4 35 -10 35
-5 0 -10 -16 -10 -35z"></path>
<path d="M1330 1872 c0 -12 19 -26 26 -19 2 2 -2 10 -11 17 -9 8 -15 8 -15 2z"></path>
<path d="M960 1841 c0 -13 29 -35 37 -28 7 8 -15 37 -28 37 -5 0 -9 -4 -9 -9z"></path>
<path d="M4280 1841 c0 -6 4 -13 10 -16 6 -3 7 1 4 9 -7 18 -14 21 -14 7z"></path>
<path d="M622 1798 c-17 -17 -15 -31 4 -24 10 4 34 -9 65 -35 43 -36 49 -45
49 -80 0 -21 5 -39 10 -39 6 0 10 20 10 44 0 38 -5 48 -31 68 -17 13 -43 35
-57 51 -30 31 -33 32 -50 15z"></path>
<path d="M4300 1780 c0 -5 5 -10 10 -10 6 0 10 5 10 10 0 6 -4 10 -10 10 -5 0
-10 -4 -10 -10z"></path>
<path d="M2782 1763 c-30 -10 -50 -26 -68 -54 -13 -21 -24 -41 -24 -44 0 -3
13 -5 29 -5 15 0 40 -9 54 -20 l25 -20 32 37 c32 40 44 70 38 100 -4 23 -32
26 -86 6z"></path>
<path d="M984 1755 c-9 -21 2 -32 53 -55 60 -26 77 -25 97 6 l17 25 -32 -17
c-30 -15 -35 -15 -67 0 -19 9 -36 26 -39 36 -6 23 -21 26 -29 5z"></path>
<path d="M3970 1760 c0 -5 5 -10 10 -10 6 0 10 5 10 10 0 6 -4 10 -10 10 -5 0
-10 -4 -10 -10z"></path>
<path d="M4310 1685 c0 -37 4 -65 10 -65 6 0 10 28 10 65 0 37 -4 65 -10 65
-6 0 -10 -28 -10 -65z"></path>
<path d="M1291 1710 c-17 -23 -26 -29 -34 -21 -6 6 -15 11 -19 11 -12 0 -10
-38 2 -45 14 -9 56 19 70 46 19 35 6 42 -19 9z"></path>
<path d="M500 1630 c0 -5 5 -10 10 -10 6 0 10 5 10 10 0 6 -4 10 -10 10 -5 0
-10 -4 -10 -10z"></path>
<path d="M4293 1549 c-7 -28 -24 -75 -39 -105 -14 -29 -24 -59 -21 -66 2 -7
14 11 27 40 25 57 35 64 46 30 10 -36 25 -50 38 -38 7 5 133 11 307 12 230 3
301 6 326 18 29 12 36 12 66 -2 31 -15 130 -17 996 -18 857 -1 961 1 961 15 0
13 -85 15 -770 15 -507 0 -770 3 -770 10 0 7 263 10 770 10 678 0 770 2 770
15 0 17 112 16 -1640 19 -570 1 -1041 5 -1047 9 -9 6 -9 15 -3 33 12 30 13 54
2 54 -4 0 -13 -23 -19 -51z m617 -89 c0 -6 -98 -10 -275 -10 -177 0 -275 4
-275 10 0 6 98 10 275 10 177 0 275 -4 275 -10z m270 0 c0 -5 -18 -10 -40 -10
-22 0 -40 5 -40 10 0 6 18 10 40 10 22 0 40 -4 40 -10z"></path>
<path d="M740 1580 c0 -5 5 -10 10 -10 6 0 10 5 10 10 0 6 -4 10 -10 10 -5 0
-10 -4 -10 -10z"></path>
<path d="M725 1510 c-27 -5 -30 -8 -27 -40 2 -19 7 -39 12 -44 8 -8 54 69 48
83 -2 3 -16 4 -33 1z"></path>
<path d="M594 1373 c10 -42 56 -79 109 -87 48 -7 92 -41 66 -51 -8 -3 -172 -2
-364 3 -193 4 -352 6 -355 4 -19 -14 54 -22 225 -23 110 -1 274 -4 365 -8 91
-4 168 -4 173 -1 10 9 -21 68 -41 79 -10 5 -35 12 -57 16 -54 10 -84 31 -97
66 -13 37 -32 39 -24 2z"></path>
<path d="M4320 1375 c0 -8 5 -15 10 -15 6 0 10 7 10 15 0 8 -4 15 -10 15 -5 0
-10 -7 -10 -15z"></path>
<path d="M4330 1315 c0 -8 5 -15 10 -15 6 0 10 7 10 15 0 8 -4 15 -10 15 -5 0
-10 -7 -10 -15z"></path>
<path d="M3240 1305 c-13 -15 -6 -35 13 -35 7 0 13 11 13 25 2 28 -8 32 -26
10z"></path>
<path d="M3300 1302 c0 -5 15 -12 33 -15 54 -8 53 8 -1 19 -19 4 -32 2 -32 -4z"></path>
<path d="M3390 1284 c0 -8 144 -64 163 -64 25 0 -13 22 -71 41 -37 12 -73 24
-79 27 -7 2 -13 0 -13 -4z"></path>
<path d="M3345 1240 c3 -5 13 -10 21 -10 8 0 12 5 9 10 -3 6 -13 10 -21 10 -8
0 -12 -4 -9 -10z"></path>
<path d="M3141 1194 c-26 -34 -26 -40 2 -58 60 -39 138 -53 282 -50 166 3 155
2 155 13 0 5 -17 11 -37 14 -37 6 -88 21 -271 78 -51 16 -96 29 -101 29 -5 0
-19 -12 -30 -26z m141 -31 c89 -26 108 -45 52 -51 -36 -5 -150 26 -164 44 -13
14 -5 34 12 34 6 0 51 -12 100 -27z"></path>
<path d="M5380 1210 c0 -5 5 -10 10 -10 6 0 10 5 10 10 0 6 -4 10 -10 10 -5 0
-10 -4 -10 -10z"></path>
<path d="M3435 1200 c3 -5 10 -10 16 -10 5 0 9 5 9 10 0 6 -7 10 -16 10 -8 0
-12 -4 -9 -10z"></path>
<path d="M4330 1180 c0 -16 5 -30 10 -30 6 0 10 5 10 11 0 7 11 9 28 6 l27 -5
-30 24 c-39 31 -45 30 -45 -6z"></path>
<path d="M3480 1190 c0 -5 5 -10 10 -10 6 0 10 5 10 10 0 6 -4 10 -10 10 -5 0
-10 -4 -10 -10z"></path>
<path d="M3550 1170 c0 -5 5 -10 10 -10 6 0 10 5 10 10 0 6 -4 10 -10 10 -5 0
-10 -4 -10 -10z"></path>
<path d="M3860 1170 c0 -5 5 -10 10 -10 6 0 10 5 10 10 0 6 -4 10 -10 10 -5 0
-10 -4 -10 -10z"></path>
<path d="M3590 1160 c0 -5 5 -10 10 -10 6 0 10 5 10 10 0 6 -4 10 -10 10 -5 0
-10 -4 -10 -10z"></path>
<path d="M4417 1149 c7 -7 15 -10 18 -7 3 3 -2 9 -12 12 -14 6 -15 5 -6 -5z"></path>
<path d="M3670 1142 c0 -6 12 -13 28 -16 15 -4 35 -9 45 -12 9 -3 17 -1 17 4
0 6 -12 13 -27 16 -16 4 -36 9 -45 12 -10 3 -18 1 -18 -4z"></path>
<path d="M4320 1105 c0 -14 5 -25 10 -25 6 0 10 11 10 25 0 14 -4 25 -10 25
-5 0 -10 -11 -10 -25z"></path>
<path d="M4500 1075 c19 -19 38 -35 44 -35 5 0 -5 16 -24 35 -19 19 -38 35
-44 35 -5 0 5 -16 24 -35z"></path>
<path d="M2492 1023 c6 -31 258 -24 258 8 0 5 -58 9 -131 9 -117 0 -130 -2
-127 -17z"></path>
<path d="M2865 1025 c-71 -13 -145 -42 -145 -57 0 -11 1 -11 56 14 39 17 74
22 177 26 125 5 158 13 96 26 -45 9 -104 6 -184 -9z"></path>
<path d="M3405 1025 c-27 -7 -80 -14 -117 -14 -38 -1 -68 -5 -68 -11 0 -5 7
-10 15 -10 8 0 89 -36 179 -80 92 -45 176 -80 193 -80 23 0 48 18 122 91 67
65 90 94 82 102 -16 16 -344 18 -406 2z m140 -30 c39 -9 96 -21 128 -27 31 -6
57 -15 57 -18 0 -4 -23 -29 -51 -55 -44 -41 -55 -47 -83 -42 -40 6 -270 117
-261 125 9 10 85 30 115 31 14 1 57 -6 95 -14z"></path>
<path d="M3960 1000 c0 -12 82 -76 144 -113 43 -25 58 -28 152 -30 57 -1 104
1 104 5 0 5 -5 8 -10 8 -6 0 -54 21 -108 46 -72 35 -240 91 -279 94 -2 0 -3
-4 -3 -10z m198 -75 c52 -24 61 -45 20 -45 -25 0 -108 47 -108 60 0 17 33 11
88 -15z"></path>
<path d="M3050 983 c0 -6 45 -22 100 -37 111 -30 202 -62 281 -101 29 -14 55
-23 57 -20 7 6 8 5 -63 42 -61 32 -275 106 -339 119 -21 3 -36 2 -36 -3z"></path>
<path d="M2105 969 c-22 -4 -66 -8 -98 -8 -32 -1 -113 -14 -180 -31 -166 -40
-326 -67 -488 -84 -146 -16 -160 -18 -262 -48 l-69 -19 -96 22 c-105 24 -211
22 -274 -5 -18 -8 -46 -19 -62 -25 -49 -20 -16 -33 106 -42 62 -4 116 -8 121
-8 4 -1 7 -8 7 -16 0 -27 202 -24 315 5 95 24 205 63 205 72 0 13 -38 9 -75
-6 -141 -59 -365 -86 -420 -50 -14 9 -58 17 -114 21 -50 3 -91 9 -91 13 0 11
49 28 103 36 33 4 81 -1 157 -16 l110 -23 87 21 c151 37 200 37 368 3 82 -16
152 -27 155 -25 9 9 -23 22 -84 34 -123 23 -127 33 -18 49 112 18 212 38 338
68 61 14 118 23 127 20 27 -10 20 -34 -18 -57 -53 -33 -42 -44 15 -15 38 19
50 31 50 49 0 20 8 24 58 35 82 18 92 21 92 32 0 10 -9 10 -65 -2z"></path>
<path d="M2528 963 c-44 -5 -53 -18 -62 -87 -3 -27 -11 -55 -18 -63 -17 -21 8
-40 75 -58 32 -8 63 -15 69 -15 25 0 -7 16 -60 31 -45 12 -58 20 -60 37 -3 22
-1 22 117 22 117 0 155 11 89 25 -45 10 -168 67 -168 77 0 5 43 8 95 6 100 -3
120 4 58 21 -38 11 -62 11 -135 4z"></path>
<path d="M4665 930 c3 -5 16 -15 28 -21 22 -12 22 -12 3 10 -19 21 -43 30 -31
11z"></path>
<path d="M2840 891 c0 -11 59 -26 67 -17 9 9 2 12 -34 19 -18 4 -33 2 -33 -2z"></path>
<path d="M2930 872 c0 -6 25 -16 55 -23 30 -7 55 -16 55 -21 0 -10 -52 -3
-124 18 -57 16 -176 19 -176 4 0 -6 26 -10 58 -10 32 0 96 -9 143 -20 46 -12
120 -30 163 -40 77 -19 106 -19 76 0 -8 5 -39 15 -67 21 -59 13 -74 35 -18 25
19 -4 35 -3 35 2 0 5 -35 16 -77 25 -43 9 -88 19 -100 23 -14 4 -23 2 -23 -4z"></path>
<path d="M4475 862 c-3 -3 -5 -16 -5 -28 0 -27 34 -48 120 -75 47 -14 56 -21
60 -45 3 -19 13 -31 30 -36 50 -16 236 -69 270 -78 42 -11 240 -13 240 -2 0 4
-34 25 -76 47 -42 22 -80 47 -85 57 -5 9 -35 24 -66 33 -32 9 -65 23 -73 30
-8 7 -42 15 -75 19 -60 6 -217 43 -293 69 -23 8 -44 12 -47 9z m196 -77 c54
-14 124 -29 156 -34 86 -14 164 -45 219 -86 27 -21 51 -42 53 -48 8 -20 -134
2 -269 42 -119 36 -138 45 -163 75 -18 23 -45 40 -77 51 -28 9 -50 21 -50 27
0 6 7 7 16 4 9 -3 61 -17 115 -31z"></path>
<path d="M980 820 c0 -5 14 -10 30 -10 17 0 30 5 30 10 0 6 -13 10 -30 10 -16
0 -30 -4 -30 -10z"></path>
<path d="M3150 820 c0 -5 5 -10 10 -10 6 0 10 5 10 10 0 6 -4 10 -10 10 -5 0
-10 -4 -10 -10z"></path>
<path d="M4250 821 c0 -5 12 -12 28 -16 15 -4 75 -30 135 -58 73 -35 107 -57
107 -68 0 -23 133 -86 245 -115 100 -26 115 -28 115 -15 0 5 -21 14 -47 20
-138 34 -214 62 -222 83 -10 28 -106 83 -266 152 -41 18 -95 27 -95 17z"></path>
<path d="M3190 810 c0 -11 48 -25 57 -16 9 8 3 12 -29 20 -17 4 -28 2 -28 -4z"></path>
<path d="M1913 788 c2 -18 -10 -26 -73 -52 -95 -40 -122 -55 -115 -66 3 -5 24
2 48 15 23 13 71 33 105 46 67 24 82 39 62 64 -18 21 -30 18 -27 -7z"></path>
<path d="M2530 799 c0 -8 191 -70 270 -89 38 -9 58 -7 128 12 46 13 84 28 85
33 1 6 -19 14 -43 18 -25 5 -74 15 -110 22 -66 15 -330 17 -330 4z"></path>
<path d="M3270 790 c0 -5 16 -10 35 -10 19 0 35 5 35 10 0 6 -16 10 -35 10
-19 0 -35 -4 -35 -10z"></path>
<path d="M3533 785 c-28 -12 -30 -25 -3 -25 26 0 26 -22 0 -45 -17 -16 -31
-17 -120 -11 -55 4 -136 13 -179 20 -65 11 -92 11 -143 0 -97 -19 -168 -38
-168 -45 0 -11 404 -60 520 -63 l55 -1 -1 -32 c-2 -31 8 -43 20 -25 3 5 7 32
10 59 4 48 40 122 66 138 36 22 -15 49 -57 30z"></path>
<path d="M3380 780 c0 -5 20 -10 45 -10 25 0 45 5 45 10 0 6 -20 10 -45 10
-25 0 -45 -4 -45 -10z"></path>
<path d="M2606 724 c-4 -11 -1 -14 11 -12 9 2 18 9 21 16 6 18 -25 15 -32 -4z"></path>
<path d="M1505 724 c-187 -21 -239 -30 -295 -51 -53 -20 -82 -25 -157 -24 -53
0 -93 -4 -93 -9 0 -6 20 -10 45 -10 25 0 56 -6 68 -14 12 -8 58 -21 101 -30
44 -9 82 -18 84 -20 10 -11 -12 -26 -37 -26 -15 0 -36 -6 -47 -14 -18 -14 -18
-15 -1 -21 30 -12 19 -20 -49 -33 -80 -15 -106 -28 -102 -50 4 -19 108 -79
108 -63 0 6 -18 20 -41 31 -22 12 -39 26 -36 33 2 7 31 19 65 27 62 16 87 31
87 52 0 13 21 25 58 33 59 12 10 52 -87 70 -20 4 -35 12 -33 18 6 18 151 55
263 66 161 17 194 22 194 32 0 9 -33 10 -95 3z"></path>
<path d="M2512 708 c-7 -7 -34 -18 -60 -23 -62 -13 -62 -35 1 -54 26 -8 46
-19 44 -25 -2 -6 -26 -15 -53 -21 -69 -14 -77 -21 -69 -61 7 -39 -3 -62 -52
-119 -31 -36 -34 -44 -29 -83 5 -35 2 -49 -14 -69 -21 -27 -27 -63 -10 -63 6
0 10 7 10 15 0 8 9 30 20 50 11 20 20 50 20 67 0 18 11 45 25 64 14 18 25 37
25 43 0 16 1 16 164 -45 112 -42 171 -58 235 -64 46 -5 88 -7 93 -4 19 12 5
19 -43 21 -28 0 -72 4 -98 9 l-46 7 40 13 c51 16 155 18 155 3 0 -6 7 -9 15
-5 8 3 15 0 15 -6 0 -7 6 -5 13 4 9 12 38 18 120 23 95 7 107 6 107 -9 0 -28
18 -17 25 15 l7 32 76 -7 c41 -3 98 -6 126 -7 88 -1 15 -21 -83 -23 -46 0 -86
-5 -88 -11 -2 -6 40 -8 118 -5 126 5 144 0 137 -37 -2 -11 -17 -21 -41 -26
-54 -13 -45 -29 16 -25 l52 3 1 85 c1 47 3 96 5 109 2 13 -2 26 -9 28 -7 3
-10 -1 -6 -11 3 -9 -1 -27 -10 -41 l-16 -24 -207 5 c-122 3 -241 12 -288 21
-93 18 -391 126 -420 152 -11 10 -33 23 -50 28 -42 13 -37 27 10 31 22 2 44
10 48 18 4 8 17 14 27 14 11 0 20 5 20 10 0 14 -64 12 -78 -2z"></path>
<path d="M900 650 c0 -5 7 -10 15 -10 8 0 15 5 15 10 0 6 -7 10 -15 10 -8 0
-15 -4 -15 -10z"></path>
<path d="M2825 650 c-3 -5 1 -10 9 -10 8 0 18 5 21 10 3 6 -1 10 -9 10 -8 0
-18 -4 -21 -10z"></path>
<path d="M1754 633 c1 -13 -13 -21 -55 -33 -58 -16 -108 -43 -98 -54 3 -3 23
3 45 13 22 11 56 22 76 26 20 4 45 13 55 20 15 11 15 15 4 29 -17 21 -29 20
-27 -1z"></path>
<path d="M2670 620 c0 -5 5 -10 10 -10 6 0 10 5 10 10 0 6 -4 10 -10 10 -5 0
-10 -4 -10 -10z"></path>
<path d="M2735 611 c-3 -5 -1 -12 5 -16 12 -7 30 2 30 16 0 12 -27 12 -35 0z"></path>
<path d="M5235 548 c-22 -5 -104 -8 -182 -6 -139 3 -143 2 -137 -17 11 -34 35
-54 73 -61 20 -3 47 -13 60 -21 16 -10 67 -19 140 -24 64 -4 139 -13 166 -18
41 -8 60 -6 105 9 30 10 55 25 55 32 0 11 -45 42 -95 64 -125 58 -123 57 -185
42z m167 -56 c80 -38 91 -49 61 -58 -10 -3 -26 -10 -35 -15 -11 -5 -49 -3
-105 7 -48 8 -119 15 -158 15 -39 1 -83 7 -100 15 -16 8 -50 20 -75 27 -25 7
-45 17 -45 22 0 6 67 12 157 15 86 3 160 9 164 13 12 12 50 1 136 -41z"></path>
<path d="M3400 531 c0 -9 24 -21 41 -21 5 0 9 7 9 15 0 9 -9 15 -25 15 -14 0
-25 -4 -25 -9z"></path>
<path d="M1621 521 c2 -6 29 -26 59 -44 30 -18 55 -37 55 -43 0 -5 -36 -18
-80 -28 -163 -39 -190 -49 -193 -75 -3 -15 -14 -27 -33 -34 -16 -6 -29 -15
-29 -19 0 -12 18 -10 50 7 21 11 29 22 27 36 -2 23 -4 22 193 66 78 17 107 33
96 52 -8 12 -109 79 -134 89 -9 3 -13 0 -11 -7z"></path>
<path d="M1115 326 c-10 -23 5 -50 31 -55 18 -3 18 -2 3 15 -10 11 -19 28 -21
39 -5 19 -5 19 -13 1z"></path>
<path d="M2894 329 c-7 -12 8 -17 74 -25 36 -4 62 -3 62 3 0 11 -130 32 -136
22z"></path>
<path d="M3120 309 c0 -5 5 -7 10 -4 6 3 10 8 10 11 0 2 -4 4 -10 4 -5 0 -10
-5 -10 -11z"></path>
<path d="M3182 301 c2 -7 7 -12 11 -12 12 1 9 15 -3 20 -7 2 -11 -2 -8 -8z"></path>
<path d="M3270 280 c0 -5 5 -10 10 -10 6 0 10 5 10 10 0 6 -4 10 -10 10 -5 0
-10 -4 -10 -10z"></path>
<path d="M3320 270 c0 -13 20 -13 40 0 12 8 9 10 -12 10 -16 0 -28 -4 -28 -10z"></path>
<path d="M3400 250 c0 -5 11 -12 25 -16 14 -3 34 -18 45 -32 23 -29 37 -24 20
8 -6 12 -27 28 -45 36 -41 17 -45 17 -45 4z"></path>
<path d="M1400 221 c0 -5 14 -12 30 -16 17 -4 30 -11 30 -16 0 -5 9 -9 21 -9
35 0 16 22 -32 36 -53 16 -49 16 -49 5z"></path>
<path d="M1055 180 c-3 -5 1 -10 9 -10 8 0 18 5 21 10 3 6 -1 10 -9 10 -8 0
-18 -4 -21 -10z"></path>
<path d="M990 150 c0 -5 4 -10 9 -10 6 0 13 5 16 10 3 6 -1 10 -9 10 -9 0 -16
-4 -16 -10z"></path>
<path d="M940 120 c0 -5 7 -7 15 -4 8 4 15 8 15 10 0 2 -7 4 -15 4 -8 0 -15
-4 -15 -10z"></path>
</g>
</svg>