 <svg version="1.0" xmlns="http://www.w3.org/2000/svg" width="700.000000pt" height="421.000000pt" viewBox="0 0 700.000000 421.000000" preserveAspectRatio="xMidYMid meet">
<metadata>
Created by potrace 1.12, written by Peter Selinger 2001-2015
</metadata>
<g transform="translate(0.000000,421.000000) scale(0.100000,-0.100000)" fill="#000000" stroke="none">
<path d="M0 3399 l0 -811 62 6 c119 11 474 19 560 12 73 -7 85 -10 81 -24 -2
-10 -38 -55 -79 -102 -126 -142 -278 -322 -321 -380 -23 -30 -65 -83 -94 -117
-30 -34 -89 -103 -131 -153 l-78 -92 0 -869 0 -869 3500 0 3500 0 0 1073 0
1072 -138 -140 c-77 -77 -146 -151 -154 -163 -14 -21 -19 -22 -40 -11 -12 6
-30 18 -38 26 -8 7 -60 45 -115 84 -55 38 -127 90 -160 114 -33 25 -73 53 -90
62 -42 22 -194 130 -230 164 -54 49 -299 209 -321 209 -24 0 -79 -47 -244
-211 -69 -68 -244 -236 -388 -372 -144 -137 -269 -258 -277 -270 -8 -12 -94
-101 -190 -198 -126 -127 -172 -179 -163 -185 7 -5 52 -29 100 -54 48 -25 83
-46 78 -48 -4 -2 -31 8 -59 23 -28 14 -81 32 -118 41 -113 26 -225 75 -546
238 -198 101 -318 156 -338 156 -20 0 -117 -44 -267 -121 -131 -67 -266 -136
-302 -154 -56 -28 -131 -70 -245 -139 l-30 -18 25 21 c14 11 59 41 100 65 163
95 294 168 316 176 13 5 24 14 24 19 0 5 -41 47 -92 93 -51 46 -150 137 -221
203 -215 200 -389 356 -443 397 -58 43 -84 44 -126 4 -27 -26 -195 -156 -201
-156 -3 0 -33 37 -68 83 -35 45 -106 136 -159 202 -53 66 -152 192 -220 280
-69 88 -162 204 -207 258 -98 115 -167 207 -160 213 11 12 308 -345 600 -721
l124 -160 127 -3 c81 -2 126 1 126 8 0 6 -41 10 -111 10 -131 0 -107 -17 -276
198 l-112 142 47 1 c26 1 236 3 467 4 452 3 781 18 842 39 26 9 38 19 38 32 0
28 -77 44 -207 45 -60 0 -108 4 -108 8 0 12 -57 41 -80 41 -14 0 -24 -8 -27
-20 -6 -21 -6 -21 -21 1 -12 17 -21 20 -52 15 -26 -4 -41 -2 -49 8 -17 20 7
30 104 40 174 19 938 31 968 14 13 -6 28 -6 45 0 20 8 269 24 357 24 6 0 256
-1 558 -2 301 0 554 -3 562 -6 24 -9 18 -21 -22 -46 -30 -18 -54 -23 -113 -25
-115 -3 -147 4 -154 33 -9 33 -25 30 -23 -3 1 -19 -3 -28 -13 -28 -8 0 -16 9
-16 20 -1 11 -2 24 -3 29 -1 5 -7 3 -15 -3 -20 -17 -157 -30 -252 -25 -71 4
-87 1 -121 -18 -45 -26 -94 -26 -234 -3 -34 6 -44 3 -66 -16 l-25 -24 -251 3
c-263 4 -312 -2 -305 -35 2 -12 17 -20 43 -25 22 -3 346 -7 720 -7 959 -2
1789 -10 1930 -20 66 -5 252 -7 413 -4 l292 6 0 63 c0 61 -13 84 -27 48 -5
-14 -28 -15 -184 -11 -98 3 -183 8 -189 12 -5 3 -10 15 -10 26 0 34 43 42 191
32 74 -5 154 -7 177 -5 l42 4 0 517 c0 359 -3 520 -11 528 -8 8 -8 13 0 17 7
5 11 75 11 212 l0 204 -3500 0 -3500 0 0 -811z m5598 527 c15 -33 -9 -56 -35
-35 -10 7 -19 14 -21 15 -5 3 31 42 39 43 3 1 11 -10 17 -23z m346 3 c-3 -5
-10 -7 -15 -3 -5 3 -7 10 -3 15 3 5 10 7 15 3 5 -3 7 -10 3 -15z m-2070 -10
c-3 -5 -10 -7 -15 -3 -5 3 -7 10 -3 15 3 5 10 7 15 3 5 -3 7 -10 3 -15z
m-2429 -9 c3 -5 -1 -10 -10 -10 -9 0 -13 5 -10 10 3 6 8 10 10 10 2 0 7 -4 10
-10z m4295 -30 c0 -5 -7 -10 -15 -10 -8 0 -15 5 -15 10 0 6 7 10 15 10 8 0 15
-4 15 -10z m-2430 -15 c0 -8 -4 -15 -10 -15 -5 0 -10 7 -10 15 0 8 5 15 10 15
6 0 10 -7 10 -15z m-2356 -16 c-3 -5 -10 -7 -15 -3 -5 3 -7 10 -3 15 3 5 10 7
15 3 5 -3 7 -10 3 -15z m-789 -107 c0 -18 -20 -15 -23 4 -3 10 1 15 10 12 7
-3 13 -10 13 -16z m2443 -59 c5 -17 -26 -29 -40 -15 -6 6 -7 15 -3 22 9 14 37
9 43 -7z m1827 -112 c7 -12 -12 -24 -25 -16 -11 7 -4 25 10 25 5 0 11 -4 15
-9z m1905 -55 c0 -3 -4 -8 -10 -11 -5 -3 -10 -1 -10 4 0 6 5 11 10 11 6 0 10
-2 10 -4z m-2678 -167 c21 -5 44 -19 52 -30 12 -18 26 -21 112 -23 108 -3 147
-16 183 -62 32 -41 27 -81 -15 -120 l-35 -34 98 0 c108 0 123 -6 123 -52 0
-27 1 -28 58 -26 31 0 73 -2 92 -6 46 -9 110 -37 110 -48 0 -4 -48 -8 -107 -8
-60 0 -171 -7 -248 -15 -182 -19 -255 -19 -393 2 -111 16 -113 16 -175 -5
-147 -51 -280 -66 -480 -52 -169 11 -282 37 -308 69 -16 20 -28 21 -191 21
-248 1 -372 20 -338 54 18 18 11 26 -25 26 -19 0 -35 4 -35 9 0 16 60 21 237
21 184 0 191 1 253 51 20 17 61 34 99 43 34 8 64 16 65 18 66 110 97 123 308
131 133 4 149 3 178 -15 l33 -19 31 29 c60 57 190 74 318 41z m3188 -9 c0 -5
-7 -10 -15 -10 -8 0 -15 5 -15 10 0 6 7 10 15 10 8 0 15 -4 15 -10z m-2076
-21 c-3 -5 -10 -7 -15 -3 -5 3 -7 10 -3 15 3 5 10 7 15 3 5 -3 7 -10 3 -15z
m-3224 -13 c0 -11 -19 -15 -25 -6 -3 5 1 10 9 10 9 0 16 -2 16 -4z m3520 -40
c0 -11 -19 -15 -25 -6 -3 5 1 10 9 10 9 0 16 -2 16 -4z m-4786 -37 c-3 -5 -10
-7 -15 -3 -5 3 -7 10 -3 15 3 5 10 7 15 3 5 -3 7 -10 3 -15z m874 -80 c-2 -6
-8 -10 -13 -10 -5 0 -11 4 -13 10 -2 6 4 11 13 11 9 0 15 -5 13 -11z m4597
-188 c3 -5 1 -12 -5 -16 -5 -3 -10 1 -10 9 0 18 6 21 15 7z m-4780 -30 c3 -5
1 -12 -5 -16 -5 -3 -10 1 -10 9 0 18 6 21 15 7z m833 -14 c2 -10 -3 -17 -12
-17 -18 0 -29 16 -21 31 9 14 29 6 33 -14z m1642 -62 c0 -8 -4 -15 -10 -15 -5
0 -10 7 -10 15 0 8 5 15 10 15 6 0 10 -7 10 -15z m2974 -16 c-3 -5 -10 -7 -15
-3 -5 3 -7 10 -3 15 3 5 10 7 15 3 5 -3 7 -10 3 -15z m-2070 -10 c-3 -5 -10
-7 -15 -3 -5 3 -7 10 -3 15 3 5 10 7 15 3 5 -3 7 -10 3 -15z m-460 -40 c-3 -5
-10 -7 -15 -3 -5 3 -7 10 -3 15 3 5 10 7 15 3 5 -3 7 -10 3 -15z m-1359 -89
c-3 -5 -17 -10 -31 -10 -13 0 -24 5 -24 10 0 6 14 10 31 10 17 0 28 -4 24 -10z
m-2199 -11 c10 -17 -13 -36 -27 -22 -12 12 -4 33 11 33 5 0 12 -5 16 -11z
m587 -836 c31 -21 86 -64 124 -95 37 -32 133 -112 213 -179 80 -67 223 -187
318 -268 96 -80 193 -162 216 -181 24 -19 88 -73 142 -120 55 -47 130 -110
167 -139 71 -56 81 -74 25 -45 -167 86 -707 506 -1251 974 -32 27 -66 54 -75
60 -15 8 -15 11 -2 20 28 19 68 10 123 -27z m3824 -750 c45 -23 84 -47 88 -53
8 -12 -10 -5 -102 42 -39 21 -75 43 -79 49 -8 14 -10 15 93 -38z m1393 -352
c-23 -13 -46 -39 -67 -77 -39 -70 -44 -65 -8 7 23 45 73 90 100 89 6 -1 -6 -9
-25 -19z m-114 -207 c-8 -32 -15 -51 -15 -41 -1 22 20 109 25 104 3 -2 -2 -30
-10 -63z m914 39 c-8 -3 -24 -10 -35 -15 -20 -9 -20 -9 -1 6 11 9 27 16 35 15
14 0 14 -1 1 -6z m-1151 -56 c-2 -1 -13 -9 -24 -17 -19 -14 -19 -14 -6 3 7 9
18 17 24 17 6 0 8 -1 6 -3z m1061 -11 c0 -2 -8 -10 -17 -17 -16 -13 -17 -12
-4 4 13 16 21 21 21 13z m-5926 -65 c32 -36 13 -30 -23 7 -18 19 -25 30 -15
24 11 -6 28 -20 38 -31z m4804 2 c-27 -47 -28 -49 -28 -37 0 11 38 74 45 74 2
0 -5 -17 -17 -37z m279 -20 c-3 -10 -5 -2 -5 17 0 19 2 27 5 18 2 -10 2 -26 0
-35z m777 -20 c-18 -38 -40 -99 -48 -138 -8 -38 -15 -59 -15 -45 -1 41 33 154
63 204 39 67 39 56 0 -21z m-3728 1 c8 -18 13 -53 13 -76 -2 -40 -2 -40 -9 14
-4 32 -15 69 -25 84 -9 15 -12 23 -5 19 7 -4 18 -22 26 -41z m-2717 -10 c12
-15 21 -34 21 -43 -1 -9 -7 -2 -14 15 -8 18 -22 37 -33 43 -10 6 -13 11 -6 11
6 0 21 -12 32 -26z m5658 -46 c-2 -13 -4 -5 -4 17 -1 22 1 32 4 23 2 -10 2
-28 0 -40z m-311 -4 c-8 -21 -15 -34 -15 -28 -1 15 20 76 25 71 2 -2 -2 -21
-10 -43z m-4729 4 c-3 -8 -6 -5 -6 6 -1 11 2 17 5 13 3 -3 4 -12 1 -19z m10
-65 c-3 -10 -5 -4 -5 12 0 17 2 24 5 18 2 -7 2 -21 0 -30z m5030 -55 c-2 -18
-4 -6 -4 27 0 33 2 48 4 33 2 -15 2 -42 0 -60z m-333 26 c-3 -25 -10 -80 -15
-122 -8 -76 -8 -75 -3 18 4 94 12 150 21 150 2 0 1 -21 -3 -46z m-4683 -155
c-7 -23 -14 -39 -17 -36 -2 2 0 17 7 33 6 17 9 59 6 99 l-5 70 10 -63 c8 -47
8 -73 -1 -103z m2096 79 c-2 -13 -4 -5 -4 17 -1 22 1 32 4 23 2 -10 2 -28 0
-40z m2941 -68 c0 -22 -1 -22 -8 5 -4 17 -8 41 -8 55 0 22 1 22 8 -5 4 -16 8
-41 8 -55z m699 -17 c-2 -21 -4 -6 -4 32 0 39 2 55 4 38 2 -18 2 -50 0 -70z
m-6360 45 c-3 -7 -5 -2 -5 12 0 14 2 19 5 13 2 -7 2 -19 0 -25z m-17 -65 c-11
-17 -11 -17 -6 0 3 10 7 26 7 35 1 15 2 15 6 0 2 -10 -1 -25 -7 -35z"></path>
<path d="M2720 3000 c0 -5 9 -10 19 -10 11 0 46 -6 78 -14 78 -19 173 -28 173
-17 0 15 -30 23 -135 37 -124 16 -135 16 -135 4z"></path>
<path d="M3630 2997 c0 -10 13 -17 43 -20 23 -3 60 -10 82 -16 45 -12 166 -14
268 -4 121 11 70 22 -77 16 -116 -5 -153 -3 -192 10 -84 27 -124 31 -124 14z"></path>
<path d="M3435 2977 c-52 -17 -86 -20 -242 -21 -101 -1 -183 -4 -183 -8 0 -12
154 -21 260 -14 58 3 131 13 161 22 29 9 80 18 112 21 31 3 57 9 57 14 0 16
-103 8 -165 -14z"></path>
<path d="M5625 2494 c-36 -18 -87 -58 -176 -136 l-66 -58 -76 0 c-43 0 -77 -4
-77 -9 0 -5 39 -11 88 -13 l87 -4 85 76 c47 42 106 92 133 110 64 45 65 67 2
34z"></path>
<path d="M4115 2355 c-91 -14 -239 -61 -324 -104 -32 -16 -100 -57 -150 -92
-148 -102 -126 -96 -359 -103 -114 -4 -283 -11 -375 -17 -185 -11 -211 -8
-202 22 6 17 1 19 -34 19 -23 0 -41 -4 -41 -9 0 -5 21 -27 46 -47 38 -32 49
-36 64 -26 21 13 249 28 570 38 l215 6 40 33 c244 197 549 293 842 265 120
-11 194 -27 319 -69 65 -22 100 -29 127 -24 49 8 47 23 -3 23 -22 0 -57 6 -77
14 -200 77 -451 104 -658 71z"></path>
<path d="M6120 2290 c0 -6 67 -10 180 -10 113 0 180 4 180 10 0 6 -67 10 -180
10 -113 0 -180 -4 -180 -10z"></path>
<path d="M5150 2280 c0 -5 7 -10 15 -10 8 0 15 5 15 10 0 6 -7 10 -15 10 -8 0
-15 -4 -15 -10z"></path>
<path d="M6570 2280 c0 -5 7 -10 15 -10 8 0 15 5 15 10 0 6 -7 10 -15 10 -8 0
-15 -4 -15 -10z"></path>
<path d="M4960 2270 c0 -5 23 -10 50 -10 28 0 50 5 50 10 0 6 -22 10 -50 10
-27 0 -50 -4 -50 -10z"></path>
<path d="M6972 2259 c2 -6 8 -10 13 -10 5 0 11 4 13 10 2 6 -4 11 -13 11 -9 0
-15 -5 -13 -11z"></path>
<path d="M5322 2216 c-26 -25 -44 -48 -40 -51 4 -4 31 16 60 44 29 28 47 51
40 51 -7 0 -34 -20 -60 -44z"></path>
<path d="M2405 2210 c-7 -11 3 -16 56 -24 20 -4 53 -21 75 -39 21 -18 48 -39
59 -47 19 -14 20 -14 3 6 -23 27 -23 34 2 34 25 0 27 20 3 20 -10 0 -45 14
-78 30 -60 30 -109 38 -120 20z"></path>
<path d="M6901 2170 l-32 -40 -274 0 c-177 0 -275 -4 -275 -10 0 -6 85 -10
234 -10 161 0 237 -3 242 -11 3 -6 -5 -23 -20 -38 -26 -25 -30 -26 -166 -29
-77 -2 -140 -8 -140 -13 0 -5 64 -9 148 -9 l148 0 64 68 c99 102 125 132 114
132 -6 0 -25 -18 -43 -40z"></path>
<path d="M0 2161 c0 -25 6 -27 13 -6 4 8 2 17 -3 20 -6 4 -10 -3 -10 -14z"></path>
<path d="M5018 2118 c18 -19 38 -24 105 -29 80 -5 83 -5 112 23 l30 28 -135 0
-134 0 22 -22z"></path>
<path d="M0 2118 c0 -11 19 -17 77 -22 104 -8 153 -8 153 3 0 4 -39 11 -87 14
-49 4 -100 9 -115 13 -21 5 -28 3 -28 -8z"></path>
<path d="M2950 2100 c0 -5 11 -10 25 -10 14 0 25 5 25 10 0 6 -11 10 -25 10
-14 0 -25 -4 -25 -10z"></path>
<path d="M2793 2093 c-35 -2 -63 -8 -63 -13 0 -12 51 -13 139 -4 66 7 86 25
24 22 -21 -1 -66 -3 -100 -5z"></path>
<path d="M5138 2053 c-20 -5 -23 -19 -7 -29 6 -3 21 3 32 15 22 21 15 25 -25
14z"></path>
<path d="M3440 1975 c-13 -14 -21 -27 -18 -30 2 -3 17 9 33 25 16 17 24 30 19
30 -6 0 -21 -11 -34 -25z"></path>
<path d="M2840 1881 c211 -194 356 -321 368 -321 6 0 12 9 12 20 0 13 -5 18
-15 14 -9 -4 -68 43 -166 133 -243 221 -257 233 -271 233 -7 0 25 -35 72 -79z"></path>
<path d="M6672 1937 c-12 -13 -22 -26 -22 -30 0 -16 18 -5 38 23 27 35 15 40
-16 7z"></path>
<path d="M0 1940 c0 -5 18 -10 40 -10 22 0 40 5 40 10 0 6 -18 10 -40 10 -22
0 -40 -4 -40 -10z"></path>
<path d="M4815 1890 c3 -5 10 -10 16 -10 5 0 9 5 9 10 0 6 -7 10 -16 10 -8 0
-12 -4 -9 -10z"></path>
<path d="M4385 1406 c-8 -19 -15 -41 -16 -48 0 -7 -4 -2 -10 10 -11 30 -30 24
-42 -13 -8 -23 -6 -31 9 -42 10 -7 24 -11 31 -9 6 3 13 0 15 -6 6 -17 34 -3
53 26 13 19 15 34 8 67 -11 55 -29 60 -48 15z"></path>
</g>
</svg>