 <svg version="1.0" xmlns="http://www.w3.org/2000/svg" width="700.000000pt" height="922.000000pt" viewBox="0 0 700.000000 922.000000" preserveAspectRatio="xMidYMid meet">
<metadata>
Created by potrace 1.12, written by Peter Selinger 2001-2015
</metadata>
<g transform="translate(0.000000,922.000000) scale(0.100000,-0.100000)" fill="#000000" stroke="none">
<path d="M0 9170 l0 -50 478 -2 c262 -2 1837 -2 3500 0 l3022 2 0 50 0 50
-3500 0 -3500 0 0 -50z"></path>
<path d="M960 9094 c0 -13 -3 -14 -15 -4 -8 6 -19 9 -24 6 -5 -4 -189 -7 -408
-8 l-399 -2 2 -29 c1 -15 5 -31 8 -34 3 -4 1 -12 -5 -20 -21 -24 -40 4 -33 47
l6 38 -46 0 -46 -1 0 -314 0 -313 28 6 c80 19 118 75 152 219 24 101 44 150
68 161 9 5 176 10 370 12 l352 3 0 125 c0 68 -2 124 -5 124 -3 0 -5 -7 -5 -16z
m-890 -48 c0 -8 -5 -18 -10 -21 -18 -11 -11 -31 15 -45 45 -24 98 23 64 57 -7
7 -7 13 0 17 13 9 43 -49 39 -77 -3 -20 -9 -22 -78 -22 -85 0 -92 7 -66 69 15
36 36 49 36 22z m248 -8 c16 -16 15 -53 -2 -67 -12 -10 -14 -6 -13 21 2 24 -3
33 -17 36 -17 4 -18 0 -13 -32 3 -20 2 -36 -3 -36 -10 0 -23 67 -15 80 9 14
49 12 63 -2z m302 -33 c0 -19 -4 -37 -10 -40 -6 -4 -10 12 -10 40 0 28 4 44
10 40 6 -3 10 -21 10 -40z m220 1 c0 -39 -11 -50 -40 -41 -25 8 -27 50 -2 64
31 19 42 12 42 -23z m-377 10 c53 -1 48 -40 -5 -43 -20 0 -29 5 -34 21 -7 20
-8 19 -17 -7 -6 -21 -15 -27 -30 -25 -11 2 -23 10 -25 18 -4 12 -3 13 10 3 16
-14 28 -8 28 15 0 10 -7 13 -21 9 -16 -4 -18 -3 -8 9 7 9 20 12 38 7 14 -4 43
-7 64 -7z m115 -18 c2 -16 -1 -28 -7 -28 -6 0 -11 9 -11 20 0 11 -4 20 -10 20
-5 0 -10 -9 -10 -20 0 -11 -4 -20 -10 -20 -11 0 -14 43 -3 54 17 17 48 0 51
-26z m111 18 c16 -19 -4 -59 -26 -54 -26 5 -39 34 -24 52 17 20 35 20 50 2z
m69 -24 c3 -26 0 -32 -17 -32 -26 0 -38 20 -18 32 10 5 14 15 10 25 -4 11 -2
14 8 11 8 -2 15 -19 17 -36z"></path>
<path d="M800 8989 c0 -11 5 -17 10 -14 6 3 10 13 10 21 0 8 -4 14 -10 14 -5
0 -10 -9 -10 -21z"></path>
<path d="M652 8994 c4 -21 22 -23 26 -1 2 10 -3 17 -13 17 -10 0 -15 -6 -13
-16z"></path>
<path d="M2900 9073 c-38 -14 -190 -195 -190 -227 0 -9 -6 -16 -14 -16 -8 0
-17 -9 -21 -19 -3 -11 -12 -22 -20 -25 -8 -3 -15 -12 -15 -20 0 -8 -6 -19 -14
-23 -13 -7 -113 -150 -129 -184 -4 -8 -16 -27 -27 -44 -11 -16 -26 -43 -35
-60 -8 -16 -26 -50 -40 -74 -14 -24 -25 -51 -25 -58 0 -8 -9 -26 -20 -40 -11
-14 -20 -32 -20 -40 0 -8 -7 -27 -16 -43 -12 -19 -15 -38 -10 -64 7 -39 26
-50 26 -15 0 12 9 38 19 58 10 20 45 90 76 155 31 66 69 138 83 160 37 57 50
78 61 101 6 11 27 43 48 72 21 28 69 96 108 150 38 53 102 132 142 174 40 42
73 79 73 83 0 7 -19 7 -40 -1z"></path>
<path d="M6020 9023 c133 -117 330 -330 398 -429 72 -106 102 -156 102 -170 0
-8 7 -17 15 -20 8 -4 15 -12 15 -19 0 -8 6 -20 13 -27 6 -7 17 -26 22 -43 12
-33 28 -36 33 -6 2 12 -5 24 -17 31 -12 6 -21 21 -21 34 0 13 -7 26 -15 30 -8
3 -15 13 -15 22 0 14 -16 51 -42 94 -33 56 -47 77 -80 120 -21 26 -38 51 -38
55 0 8 -122 143 -221 246 -81 82 -157 139 -187 139 -25 -1 -22 -5 38 -57z"></path>
<path d="M370 8735 c0 -30 5 -55 10 -55 6 0 10 25 10 55 0 30 -4 55 -10 55 -5
0 -10 -25 -10 -55z"></path>
<path d="M3605 8599 c-5 -7 9 -27 38 -53 25 -23 57 -58 71 -79 33 -51 93 -117
106 -117 5 0 10 -9 10 -21 0 -24 80 -130 92 -123 16 10 7 38 -27 80 -19 23
-35 47 -35 53 0 6 -7 11 -15 11 -8 0 -15 7 -15 15 0 24 -161 235 -180 235 -4
0 -15 3 -23 6 -8 3 -18 0 -22 -7z"></path>
<path d="M2920 8445 c0 -19 5 -35 10 -35 6 0 10 16 10 35 0 19 -4 35 -10 35
-5 0 -10 -16 -10 -35z"></path>
<path d="M4460 8385 c0 -9 10 -26 23 -38 50 -48 197 -259 227 -326 6 -13 24
-44 40 -68 17 -24 30 -50 30 -57 0 -7 9 -25 20 -39 11 -14 20 -35 20 -46 0
-27 17 -27 25 -1 4 12 0 31 -9 45 -9 13 -16 33 -16 43 0 11 -7 25 -15 32 -8 7
-15 19 -15 27 0 28 -150 270 -213 345 -18 20 -42 51 -55 67 -25 33 -62 42 -62
16z"></path>
<path d="M2884 8318 c3 -13 6 -31 6 -40 0 -10 5 -18 10 -18 11 0 13 39 4 64
-9 25 -27 19 -20 -6z"></path>
<path d="M6630 8265 c-13 -16 -6 -65 9 -65 5 0 12 -18 16 -39 4 -22 13 -45 21
-52 8 -6 14 -17 14 -25 0 -7 9 -18 20 -24 15 -8 20 -21 20 -50 0 -40 13 -53
24 -24 11 27 6 61 -9 74 -8 7 -15 20 -15 29 0 8 -10 39 -22 68 -15 38 -27 53
-41 53 -15 0 -18 5 -12 29 7 33 -7 48 -25 26z"></path>
<path d="M4790 8220 c0 -11 5 -20 10 -20 6 0 10 9 10 20 0 11 -4 20 -10 20 -5
0 -10 -9 -10 -20z"></path>
<path d="M2845 8161 c-8 -14 6 -91 16 -91 12 0 11 87 0 95 -5 3 -12 1 -16 -4z"></path>
<path d="M5022 8139 c1 -13 8 -23 13 -21 15 3 12 35 -3 40 -9 3 -13 -3 -10
-19z"></path>
<path d="M4825 8129 c-8 -23 -1 -34 14 -24 13 8 15 45 2 45 -5 0 -13 -9 -16
-21z"></path>
<path d="M3976 8133 c-11 -11 -6 -23 9 -23 8 0 15 4 15 9 0 13 -16 22 -24 14z"></path>
<path d="M6184 8115 c-8 -20 3 -48 16 -40 13 8 13 55 0 55 -6 0 -13 -7 -16
-15z"></path>
<path d="M2276 8082 c-7 -12 4 -52 15 -52 12 0 12 47 0 55 -5 3 -12 2 -15 -3z"></path>
<path d="M4854 8036 c-8 -32 2 -59 19 -53 16 5 16 69 0 74 -7 3 -15 -7 -19
-21z"></path>
<path d="M2235 8000 c-9 -14 4 -110 15 -110 23 0 28 91 6 109 -10 9 -16 9 -21
1z"></path>
<path d="M5060 7955 c0 -25 5 -45 10 -45 6 0 10 20 10 45 0 25 -4 45 -10 45
-5 0 -10 -20 -10 -45z"></path>
<path d="M4892 7943 c2 -21 8 -38 13 -38 6 0 11 17 13 38 3 29 0 37 -13 37
-13 0 -16 -8 -13 -37z"></path>
<path d="M5170 7940 c0 -22 5 -40 10 -40 6 0 10 18 10 40 0 22 -4 40 -10 40
-5 0 -10 -18 -10 -40z"></path>
<path d="M6219 7954 c-11 -29 -8 -128 4 -141 14 -13 22 10 25 78 5 80 -10 112
-29 63z"></path>
<path d="M6762 7946 c-13 -29 -1 -81 19 -81 10 0 14 -13 14 -50 0 -39 4 -50
18 -53 14 -3 17 4 17 35 0 21 -7 51 -15 66 -8 15 -17 43 -21 63 -8 43 -18 50
-32 20z"></path>
<path d="M2202 7823 c2 -31 8 -58 14 -60 17 -6 29 85 13 103 -22 27 -30 14
-27 -43z"></path>
<path d="M4930 7846 c0 -33 14 -55 27 -42 9 8 -7 76 -17 76 -6 0 -10 -15 -10
-34z"></path>
<path d="M5090 7805 c0 -25 5 -45 10 -45 6 0 10 20 10 45 0 25 -4 45 -10 45
-5 0 -10 -20 -10 -45z"></path>
<path d="M4180 7780 c0 -22 32 -71 43 -67 22 7 20 40 -4 58 -27 21 -39 24 -39
9z"></path>
<path d="M5210 7740 c0 -27 5 -50 10 -50 6 0 10 23 10 50 0 28 -4 50 -10 50
-5 0 -10 -22 -10 -50z"></path>
<path d="M2165 7749 c-4 -12 -4 -45 0 -74 5 -40 3 -54 -7 -58 -14 -5 -68 -100
-68 -118 0 -5 -11 -27 -25 -49 -30 -48 -33 -70 -6 -46 11 10 25 15 30 11 16
-9 13 -46 -5 -67 -14 -15 -15 -20 -3 -34 21 -26 49 16 49 76 0 26 9 76 20 110
11 34 20 68 20 75 0 7 7 26 15 41 8 16 15 47 15 69 0 74 -21 111 -35 64z"></path>
<path d="M4850 7756 c0 -8 5 -18 10 -21 6 -3 10 3 10 14 0 12 -4 21 -10 21 -5
0 -10 -6 -10 -14z"></path>
<path d="M4966 7763 c-3 -3 -6 -21 -6 -40 0 -23 5 -33 15 -33 10 0 15 10 15
34 0 34 -11 52 -24 39z"></path>
<path d="M6826 7728 c-3 -13 -3 -40 1 -61 5 -31 9 -36 24 -32 18 6 19 2 13
-80 -7 -82 -6 -87 12 -83 17 3 19 12 16 78 -1 41 -7 79 -12 84 -6 6 -10 22
-10 37 0 34 -16 79 -29 79 -5 0 -11 -10 -15 -22z"></path>
<path d="M4880 7693 c0 -5 7 -18 15 -29 15 -18 15 -18 13 5 -3 23 -28 44 -28
24z"></path>
<path d="M4250 7675 c0 -8 5 -15 10 -15 6 0 10 7 10 15 0 8 -4 15 -10 15 -5 0
-10 -7 -10 -15z"></path>
<path d="M5125 7643 c7 -41 12 -50 21 -41 9 9 -7 78 -18 78 -6 0 -8 -14 -3
-37z"></path>
<path d="M6256 7598 c-18 -131 -8 -328 15 -328 5 0 9 86 9 190 0 185 -10 244
-24 138z"></path>
<path d="M4996 7589 c-5 -36 -3 -57 7 -73 8 -11 17 -45 20 -75 4 -29 11 -58
16 -65 5 -6 12 -37 16 -68 4 -32 13 -63 21 -69 9 -7 14 -32 14 -68 0 -61 11
-88 30 -76 16 10 7 140 -12 162 -7 9 -14 36 -16 61 -1 25 -9 59 -17 75 -8 17
-15 45 -15 62 0 18 -9 61 -20 95 -11 34 -20 69 -20 76 0 8 -4 14 -9 14 -5 0
-11 -23 -15 -51z"></path>
<path d="M5234 7578 c3 -13 6 -67 6 -120 0 -59 4 -98 10 -98 6 0 10 39 10 98
0 104 -6 142 -22 142 -6 0 -8 -10 -4 -22z"></path>
<path d="M4314 7527 c-7 -20 -2 -47 11 -50 14 -3 19 43 6 56 -7 7 -12 6 -17
-6z"></path>
<path d="M5160 7485 c0 -19 5 -35 10 -35 6 0 10 16 10 35 0 19 -4 35 -10 35
-5 0 -10 -16 -10 -35z"></path>
<path d="M2856 7493 c-11 -11 -6 -23 9 -23 8 0 15 4 15 9 0 13 -16 22 -24 14z"></path>
<path d="M6895 7397 c-9 -71 -4 -112 15 -112 9 0 16 11 18 30 5 41 -8 135 -18
135 -5 0 -12 -24 -15 -53z"></path>
<path d="M4350 7428 c0 -7 -3 -23 -6 -35 -5 -17 -2 -23 10 -23 9 0 16 6 16 13
0 6 3 22 6 35 5 16 2 22 -10 22 -9 0 -16 -6 -16 -12z"></path>
<path d="M1967 7320 c-20 -27 -37 -52 -37 -55 0 -3 -21 -32 -47 -64 -27 -32
-83 -102 -125 -154 -42 -52 -100 -114 -129 -138 -29 -24 -73 -62 -98 -85 -25
-22 -93 -74 -151 -115 -84 -59 -100 -75 -83 -77 69 -10 377 236 511 408 95
121 111 146 158 243 11 21 27 45 37 54 9 9 17 20 17 25 0 19 -18 5 -53 -42z"></path>
<path d="M4382 7345 c-11 -25 -7 -55 8 -55 4 0 10 10 14 23 15 55 -1 78 -22
32z"></path>
<path d="M2920 7340 c0 -5 5 -10 10 -10 6 0 10 5 10 10 0 6 -4 10 -10 10 -5 0
-10 -4 -10 -10z"></path>
<path d="M5222 7293 c-11 -20 1 -118 23 -198 8 -27 16 -110 18 -183 5 -134 10
-158 28 -132 17 25 3 383 -18 459 -19 67 -35 85 -51 54z"></path>
<path d="M2955 7259 c-8 -36 0 -48 20 -28 9 8 12 23 9 37 -9 31 -21 27 -29 -9z"></path>
<path d="M4415 7249 c-8 -23 -1 -34 14 -24 13 8 15 45 2 45 -5 0 -13 -9 -16
-21z"></path>
<path d="M2985 7200 c-4 -6 -3 -25 1 -43 4 -17 7 -56 5 -84 -2 -34 1 -53 8
-53 6 0 11 8 11 18 0 10 3 22 7 25 9 10 43 -23 43 -43 0 -9 7 -25 15 -36 8
-10 15 -31 15 -45 0 -14 7 -34 15 -45 8 -10 15 -29 15 -42 0 -12 7 -25 15 -28
8 -4 15 -13 15 -21 0 -22 98 -220 137 -275 18 -26 33 -54 33 -62 0 -8 13 -34
29 -58 16 -24 41 -67 56 -95 15 -29 31 -53 36 -53 15 0 10 47 -6 60 -8 7 -15
20 -15 30 0 10 -7 23 -15 30 -8 7 -15 19 -15 27 0 8 -8 27 -18 41 -10 15 -33
59 -51 97 -19 39 -38 77 -42 85 -5 8 -15 29 -24 45 -8 17 -19 37 -24 45 -5 8
-12 22 -15 30 -3 8 -22 42 -41 75 -20 33 -42 76 -51 95 -8 19 -19 44 -24 55
-37 83 -50 116 -50 130 0 8 -7 18 -15 21 -8 4 -15 17 -15 29 0 45 -20 70 -35
45z"></path>
<path d="M4445 7169 c-5 -24 -2 -35 14 -50 13 -13 21 -32 21 -53 0 -19 7 -39
15 -46 8 -7 15 -22 15 -34 0 -12 9 -39 20 -61 11 -22 20 -48 20 -60 1 -11 7
-31 15 -45 8 -14 14 -34 15 -45 0 -11 6 -32 14 -46 7 -14 16 -42 20 -62 4 -21
11 -37 16 -37 16 0 12 66 -4 79 -8 7 -18 27 -21 44 -4 18 -18 65 -31 106 -13
40 -21 77 -18 83 15 24 108 -99 164 -218 17 -38 41 -78 51 -90 18 -19 18 -22
4 -34 -12 -10 -13 -16 -4 -26 6 -8 18 -14 25 -14 8 0 19 -12 24 -26 6 -14 14
-22 20 -19 15 9 12 46 -4 64 -8 9 -26 39 -41 66 -90 171 -154 277 -176 290
-29 19 -109 129 -109 151 0 18 -7 28 -20 31 -13 4 -20 13 -19 27 5 60 -14 79
-26 25z"></path>
<path d="M2073 7168 c-10 -16 -17 -605 -8 -665 7 -46 25 -59 25 -18 0 14 5 25
10 25 14 0 13 -57 -1 -66 -14 -9 -5 -200 10 -218 6 -7 13 -39 17 -72 4 -32 12
-72 19 -89 7 -16 16 -51 20 -77 3 -27 10 -48 16 -48 5 0 9 -15 9 -34 0 -41 18
-96 32 -96 17 0 4 111 -14 121 -12 7 -15 19 -11 46 3 21 0 63 -7 93 -6 30 -17
87 -25 125 -8 39 -19 86 -25 105 -5 19 -10 73 -10 120 0 47 -7 112 -15 145
-11 45 -14 130 -15 332 0 254 -5 304 -27 271z"></path>
<path d="M6932 7085 c1 -47 5 -85 10 -85 4 0 8 38 8 85 0 50 -4 85 -10 85 -6
0 -9 -34 -8 -85z"></path>
<path d="M1954 7126 c-11 -11 -23 -29 -27 -38 -3 -10 -10 -18 -15 -18 -6 0
-31 -33 -58 -72 -59 -89 -205 -237 -297 -301 -37 -26 -70 -47 -73 -47 -2 0
-42 -18 -88 -40 -89 -43 -130 -50 -144 -24 -8 14 -12 14 -48 0 -21 -9 -84 -27
-139 -41 -108 -28 -123 -36 -102 -53 18 -16 139 0 227 28 36 12 88 26 115 31
105 22 229 77 310 137 100 73 275 258 275 290 0 5 9 17 20 27 11 10 20 22 20
26 0 4 14 28 30 52 43 64 39 90 -6 43z"></path>
<path d="M2306 7142 c-3 -6 -1 -14 5 -17 15 -10 25 3 12 16 -7 7 -13 7 -17 1z"></path>
<path d="M2876 7108 c-9 -29 -18 -75 -23 -119 -5 -49 13 -77 43 -65 13 5 15
20 12 98 -2 60 -8 93 -16 96 -7 2 -14 -2 -16 -10z"></path>
<path d="M5126 7055 c-8 -43 3 -127 17 -137 6 -3 12 -44 14 -90 5 -99 9 -116
25 -100 17 17 13 170 -6 191 -10 11 -16 36 -16 72 0 94 -21 133 -34 64z"></path>
<path d="M6208 6883 c-2 -109 -1 -204 1 -211 2 -7 11 -12 20 -10 14 3 17 27
21 173 4 132 2 178 -9 208 -8 20 -18 37 -22 37 -4 0 -9 -89 -11 -197z"></path>
<path d="M3220 7041 c0 -10 6 -24 14 -30 8 -7 16 -28 19 -49 5 -40 31 -119 53
-165 8 -16 14 -39 14 -52 0 -12 7 -28 15 -35 8 -7 17 -27 21 -46 3 -18 12 -38
20 -45 8 -6 14 -26 14 -44 0 -18 7 -38 15 -45 8 -7 15 -18 15 -25 0 -7 9 -24
20 -38 11 -14 20 -32 20 -40 0 -23 19 -31 27 -12 3 10 -1 30 -11 45 -9 16 -16
35 -16 42 0 8 -9 23 -20 33 -13 11 -18 25 -14 39 3 14 -2 28 -15 40 -12 11
-21 29 -21 41 0 12 -9 34 -20 48 -11 14 -20 28 -20 32 0 5 -10 27 -21 51 -40
79 -4 99 57 32 78 -85 282 -286 387 -380 103 -93 347 -276 412 -308 43 -21 46
-50 5 -50 -37 0 -100 -25 -100 -40 0 -20 33 -24 63 -7 42 24 127 32 151 14 23
-17 15 -47 -11 -47 -22 0 -123 -38 -141 -52 -9 -8 -9 -14 -1 -24 6 -7 8 -18 4
-24 -11 -18 22 -22 57 -7 18 8 59 23 90 33 76 24 84 16 71 -66 -8 -50 -7 -74
7 -126 21 -78 34 -94 74 -94 17 0 42 -7 54 -16 13 -9 26 -14 29 -11 10 11 -10
30 -52 48 -42 18 -43 21 -59 90 -9 39 -16 91 -16 114 0 48 -28 92 -62 97 -12
2 -23 9 -26 16 -4 14 49 17 64 3 5 -5 52 -31 104 -57 114 -57 180 -101 230
-152 l37 -39 -2 -149 c-3 -209 -29 -286 -101 -300 -55 -10 -76 19 -109 148
-12 49 -13 68 -4 90 6 15 8 35 5 44 -5 14 -13 10 -42 -20 -36 -37 -36 -38 -26
-84 42 -189 60 -212 165 -212 32 0 108 32 125 53 6 7 20 67 32 133 18 100 20
131 12 180 -6 32 -12 68 -14 79 -3 17 3 20 36 20 23 0 41 5 44 13 7 22 -19 42
-57 42 -29 0 -50 10 -97 49 -92 73 -165 120 -205 131 -42 12 -161 87 -244 154
-30 25 -104 79 -163 120 -59 41 -148 107 -197 146 -96 76 -382 338 -463 424
-27 28 -74 72 -104 98 -36 31 -59 58 -63 77 -3 16 -13 35 -21 42 -8 6 -14 20
-14 30 0 11 -7 19 -15 19 -8 0 -15 -8 -15 -19z"></path>
<path d="M2265 6998 c-2 -7 -3 -40 -1 -73 1 -33 3 -104 4 -157 1 -54 6 -98 11
-98 11 0 24 244 15 298 -6 41 -20 55 -29 30z"></path>
<path d="M2987 6799 c4 -168 3 -182 -17 -213 -22 -36 -27 -105 -9 -123 7 -7
15 -48 19 -93 7 -79 13 -100 27 -86 12 12 13 487 1 594 -6 56 -14 102 -18 102
-3 0 -5 -81 -3 -181z"></path>
<path d="M4795 6957 c-5 -11 -1 -25 9 -36 9 -10 16 -29 16 -43 0 -14 7 -31 15
-38 8 -7 15 -22 15 -34 0 -12 6 -30 14 -41 7 -11 16 -37 20 -57 4 -20 13 -50
21 -65 8 -15 15 -37 15 -48 0 -11 7 -28 15 -38 7 -11 16 -36 20 -57 4 -22 13
-44 21 -51 8 -6 14 -22 14 -36 0 -15 16 -40 43 -68 43 -44 97 -133 97 -162 0
-8 9 -26 20 -40 11 -14 20 -40 20 -57 0 -17 7 -40 15 -50 8 -11 15 -28 15 -39
0 -23 24 -17 29 8 1 10 -7 39 -19 64 -12 25 -28 60 -35 76 -7 17 -23 53 -35
80 -11 28 -25 57 -30 65 -6 8 -16 29 -24 46 -7 17 -26 46 -42 65 -44 52 -54
75 -54 123 0 26 -6 48 -15 56 -8 7 -17 28 -21 48 -4 19 -13 47 -20 61 -8 14
-14 32 -14 40 0 22 -49 121 -60 121 -6 0 -10 15 -10 33 0 19 -10 44 -24 62
-22 27 -25 28 -31 12z"></path>
<path d="M6976 6718 c4 -79 10 -186 14 -238 6 -82 7 -67 8 105 2 203 -3 275
-19 275 -5 0 -7 -62 -3 -142z"></path>
<path d="M5190 6638 c0 -70 8 -108 21 -108 5 0 9 38 9 85 0 69 -3 85 -15 85
-12 0 -15 -14 -15 -62z"></path>
<path d="M2306 6643 c-8 -49 -8 -162 0 -202 14 -68 24 -24 24 104 0 130 -11
175 -24 98z"></path>
<path d="M2817 6663 c-4 -3 -7 -36 -7 -73 0 -37 -5 -71 -12 -78 -15 -15 7 -42
34 -42 24 0 34 26 17 46 -9 11 -13 38 -10 85 3 63 -4 81 -22 62z"></path>
<path d="M6185 6603 c-4 -21 -5 -88 -4 -151 3 -90 1 -115 -11 -122 -8 -5 -12
-12 -8 -15 3 -4 15 0 27 7 20 12 21 21 21 165 0 147 -10 194 -25 116z"></path>
<path d="M4657 6613 c-13 -13 -8 -122 7 -130 8 -5 15 -34 19 -72 3 -35 10 -68
16 -74 6 -6 11 -25 11 -41 1 -17 8 -49 16 -71 9 -22 19 -58 22 -80 5 -26 12
-40 22 -40 12 0 15 13 13 63 -1 35 -6 69 -12 76 -6 7 -14 35 -18 61 -4 31 -12
49 -22 52 -12 3 -16 17 -17 55 0 35 -6 54 -17 63 -20 15 -23 78 -4 93 7 6 24
8 36 5 18 -4 22 -2 19 8 -2 8 -15 16 -29 17 -13 2 -28 8 -33 13 -12 11 -20 11
-29 2z"></path>
<path d="M5310 6540 c0 -16 5 -30 10 -30 6 0 10 14 10 30 0 17 -4 30 -10 30
-5 0 -10 -13 -10 -30z"></path>
<path d="M2404 6546 c-8 -21 1 -205 11 -214 16 -16 24 31 20 117 -4 93 -17
133 -31 97z"></path>
<path d="M4857 6493 c-12 -12 -7 -54 7 -59 8 -3 17 -16 20 -30 4 -13 11 -24
16 -24 5 0 12 -16 16 -35 3 -19 12 -39 20 -46 8 -6 14 -19 14 -29 0 -10 7 -23
15 -30 13 -11 15 -8 15 18 0 16 -7 35 -15 42 -8 7 -15 28 -15 46 0 24 -5 34
-15 34 -9 0 -15 9 -15 21 0 11 -9 32 -20 46 -11 14 -20 32 -20 39 0 15 -12 18
-23 7z"></path>
<path d="M5223 6474 c-12 -32 14 -145 40 -173 23 -25 25 -34 31 -200 4 -96 9
-178 12 -183 3 -5 10 -6 15 -2 11 7 10 564 -1 564 -9 0 -20 -62 -20 -117 0
-23 -5 -45 -10 -48 -16 -10 -40 59 -40 114 0 51 -15 76 -27 45z"></path>
<path d="M6760 6430 c-13 -56 -7 -148 16 -237 8 -30 14 -71 14 -91 0 -20 7
-62 15 -92 8 -30 15 -70 15 -87 0 -18 5 -33 10 -33 6 0 10 5 10 10 0 6 5 10
10 10 6 0 10 -32 10 -75 0 -58 4 -77 15 -81 10 -4 15 -21 15 -53 1 -40 17 -81
32 -81 14 0 15 87 2 129 -8 25 -28 112 -44 192 -16 81 -34 159 -40 174 -5 14
-10 44 -10 66 0 22 -7 56 -16 77 -9 20 -19 78 -21 130 -3 50 -9 92 -13 92 -5
0 -13 -23 -20 -50z"></path>
<path d="M3055 6461 c-8 -13 33 -34 52 -27 12 5 13 9 3 21 -14 17 -46 20 -55
6z"></path>
<path d="M2210 6435 c0 -8 5 -15 10 -15 6 0 10 7 10 15 0 8 -4 15 -10 15 -5 0
-10 -7 -10 -15z"></path>
<path d="M2820 6390 c0 -11 5 -20 10 -20 6 0 10 9 10 20 0 11 -4 20 -10 20 -5
0 -10 -9 -10 -20z"></path>
<path d="M3500 6361 c0 -11 5 -23 10 -26 6 -4 10 5 10 19 0 14 -4 26 -10 26
-5 0 -10 -9 -10 -19z"></path>
<path d="M2230 6316 c0 -49 7 -76 21 -76 5 0 9 27 9 60 0 47 -3 60 -15 60 -11
0 -15 -12 -15 -44z"></path>
<path d="M2440 6246 c0 -71 3 -87 18 -98 10 -7 22 -25 26 -40 7 -32 26 -38 26
-9 0 10 -9 47 -20 81 -11 34 -20 75 -20 90 0 34 -9 60 -21 60 -5 0 -9 -38 -9
-84z"></path>
<path d="M2340 6275 c0 -25 5 -45 10 -45 6 0 10 20 10 45 0 25 -4 45 -10 45
-5 0 -10 -20 -10 -45z"></path>
<path d="M2786 6301 c-9 -14 -15 -451 -9 -593 3 -71 10 -128 15 -128 4 0 8 24
8 53 0 41 5 58 20 72 24 21 25 33 6 54 -20 24 -28 137 -9 152 12 10 24 2 68
-45 30 -31 59 -72 64 -89 20 -65 39 -112 46 -112 5 0 13 8 19 17 8 13 2 41
-24 118 -34 100 -34 102 -15 116 23 17 87 11 123 -13 22 -13 23 -19 17 -76 -8
-80 25 -214 57 -228 63 -28 73 -36 76 -62 3 -23 0 -27 -22 -27 -33 0 -39 -12
-21 -46 8 -16 15 -42 15 -58 0 -32 51 -118 83 -141 26 -18 77 -19 101 -2 15
11 18 29 17 121 0 60 -3 111 -6 114 -13 13 -20 -16 -24 -99 -3 -85 -4 -91 -28
-100 -33 -12 -30 -14 -53 32 -13 24 -24 70 -27 110 -7 83 10 112 61 107 l31
-3 -3 53 c-1 29 -7 64 -12 78 -6 14 -10 47 -10 72 0 28 -7 57 -16 71 -14 19
-14 27 -4 46 7 13 10 28 6 33 -12 19 -223 104 -318 128 -113 28 -138 30 -138
9 0 -8 5 -15 10 -15 25 0 6 -32 -26 -46 -57 -24 -62 -13 -57 124 2 64 5 138 7
165 2 33 -1 47 -10 47 -7 0 -15 -4 -18 -9z m472 -457 c12 -4 22 -12 22 -19 0
-7 9 -23 19 -36 15 -19 51 -163 51 -202 0 -3 -15 -13 -34 -22 l-34 -16 -46 44
c-34 34 -47 55 -52 86 -4 23 -11 44 -15 47 -12 7 -11 81 1 105 11 19 44 24 88
13z"></path>
<path d="M3530 6286 c0 -14 5 -28 11 -31 5 -4 14 -18 19 -31 10 -26 40 -33 40
-10 0 7 -8 24 -18 37 -10 13 -21 32 -25 42 -9 25 -27 21 -27 -7z"></path>
<path d="M6145 6196 c-4 -51 -3 -91 3 -102 7 -13 7 -25 1 -37 -11 -18 -3 -57
10 -57 5 0 11 20 14 45 8 54 -3 235 -14 235 -4 0 -10 -38 -14 -84z"></path>
<path d="M3456 6231 c-3 -5 2 -19 12 -32 10 -13 22 -31 25 -39 4 -8 16 -28 27
-45 11 -16 27 -43 35 -60 8 -16 35 -57 59 -90 25 -33 45 -64 45 -68 1 -5 21
-32 44 -60 44 -52 98 -127 127 -175 21 -33 35 -28 34 12 -1 20 -14 53 -34 82
-65 96 -70 103 -70 115 0 7 -7 21 -16 30 -12 14 -21 16 -35 9 -14 -8 -24 -2
-52 33 -19 23 -47 64 -63 90 -16 27 -34 56 -39 65 -6 9 -25 37 -43 61 -17 24
-32 50 -32 57 0 16 -17 27 -24 15z"></path>
<path d="M3020 6215 c0 -8 5 -15 10 -15 6 0 10 7 10 15 0 8 -4 15 -10 15 -5 0
-10 -7 -10 -15z"></path>
<path d="M4990 6206 c0 -7 7 -19 15 -26 9 -7 27 -37 40 -67 14 -29 29 -53 35
-53 15 0 12 65 -4 104 -16 37 -19 40 -58 50 -21 5 -28 3 -28 -8z"></path>
<path d="M2268 6173 c-2 -53 4 -148 11 -156 4 -4 16 -1 26 7 18 13 18 18 8 62
-7 27 -15 64 -18 82 -8 39 -24 42 -27 5z"></path>
<path d="M3610 6156 c0 -14 5 -26 10 -26 6 0 10 9 10 19 0 11 -4 23 -10 26 -6
4 -10 -5 -10 -19z"></path>
<path d="M3634 6093 c18 -47 72 -152 79 -153 17 -1 -2 54 -42 120 -5 8 -12 23
-15 33 -3 9 -10 17 -17 17 -6 0 -8 -7 -5 -17z"></path>
<path d="M4786 6004 c4 -44 10 -83 14 -87 4 -4 26 -10 49 -12 93 -8 157 -72
171 -170 7 -56 28 -50 51 15 25 72 66 110 119 110 46 0 82 -29 80 -63 -4 -39
0 -44 31 -44 27 0 30 3 23 21 -4 12 -7 36 -7 54 0 17 -4 32 -8 32 -4 0 -22 12
-40 27 -23 20 -41 26 -65 24 -26 -2 -41 4 -63 26 -24 25 -37 29 -78 29 -50 -1
-103 20 -111 42 -2 8 7 12 27 12 34 0 41 14 14 25 -10 4 -52 11 -93 15 -41 5
-85 12 -97 15 -23 7 -23 7 -17 -71z"></path>
<path d="M3130 6062 c0 -11 131 -62 159 -62 24 0 27 12 9 28 -16 12 -119 42
-147 42 -12 0 -21 -4 -21 -8z"></path>
<path d="M2514 6023 c10 -55 16 -73 26 -73 8 0 6 37 -5 88 -9 39 -28 25 -21
-15z"></path>
<path d="M2410 5975 c0 -9 5 -26 12 -38 6 -12 14 -37 17 -56 3 -19 11 -32 16
-30 13 5 7 76 -8 108 -14 29 -37 39 -37 16z"></path>
<path d="M2270 5970 c0 -5 5 -10 10 -10 6 0 10 5 10 10 0 6 -4 10 -10 10 -5 0
-10 -4 -10 -10z"></path>
<path d="M6116 5919 c-3 -34 -6 -94 -6 -134 0 -40 -7 -92 -15 -115 -8 -23 -15
-62 -15 -86 0 -23 -5 -55 -11 -71 -6 -15 -17 -80 -24 -143 -8 -64 -19 -128
-24 -144 -6 -15 -11 -55 -11 -90 0 -34 -7 -89 -16 -121 -9 -33 -17 -91 -18
-130 0 -38 -4 -74 -7 -80 -9 -13 -26 -104 -34 -178 -6 -57 -6 -58 14 -47 18 9
21 20 21 80 0 60 3 71 21 80 19 11 20 19 18 127 -3 99 -1 117 14 128 14 10 17
30 17 126 0 80 4 120 14 134 7 12 15 59 18 110 7 107 32 204 60 226 20 15 20
23 13 203 -4 102 -11 186 -15 186 -4 0 -10 -28 -14 -61z"></path>
<path d="M2552 5900 c2 -25 8 -44 13 -42 13 4 8 63 -6 77 -7 7 -9 -4 -7 -35z"></path>
<path d="M2370 5851 c0 -6 5 -13 10 -16 6 -3 10 1 10 9 0 9 -4 16 -10 16 -5 0
-10 -4 -10 -9z"></path>
<path d="M4822 5833 c5 -25 28 -28 28 -4 0 12 -6 21 -16 21 -9 0 -14 -7 -12
-17z"></path>
<path d="M2580 5796 c0 -26 4 -36 16 -36 11 0 14 8 12 32 -4 46 -28 49 -28 4z"></path>
<path d="M2300 5765 c0 -19 -4 -35 -10 -35 -5 0 -10 8 -10 19 0 26 -27 48 -42
33 -7 -7 -5 -23 10 -54 11 -24 30 -73 42 -110 12 -37 26 -70 31 -73 5 -4 9
-19 9 -34 0 -29 16 -51 37 -51 17 0 8 89 -13 135 -12 25 -33 145 -34 193 0 6
-4 12 -10 12 -5 0 -10 -16 -10 -35z"></path>
<path d="M2410 5760 c0 -5 5 -10 10 -10 6 0 10 5 10 10 0 6 -4 10 -10 10 -5 0
-10 -4 -10 -10z"></path>
<path d="M2458 5736 c-24 -19 -27 -26 -19 -52 5 -17 13 -39 19 -50 20 -39 42
-95 42 -107 0 -7 13 -37 28 -67 16 -30 42 -80 57 -110 28 -53 97 -166 136
-222 10 -15 19 -34 19 -42 0 -23 45 -70 58 -62 16 10 15 37 -2 61 -7 11 -17
48 -21 83 -7 58 -25 97 -25 53 0 -26 -17 -36 -36 -20 -20 16 -84 113 -84 126
0 6 -7 16 -15 23 -8 7 -15 22 -15 33 0 11 -13 49 -30 84 -16 34 -30 71 -30 80
0 9 -8 25 -17 35 -13 14 -18 39 -19 90 -1 38 -6 74 -10 78 -5 5 -21 -1 -36
-14z"></path>
<path d="M2607 5726 c-10 -25 8 -75 59 -166 7 -14 14 -32 14 -40 0 -22 25 -89
37 -101 32 -32 37 31 7 76 -8 11 -14 34 -14 51 0 17 -7 37 -15 44 -8 7 -15 20
-15 30 0 9 -9 28 -19 41 -10 14 -21 35 -23 49 -4 27 -23 38 -31 16z"></path>
<path d="M2852 5679 c1 -13 8 -23 13 -21 15 3 12 35 -3 40 -9 3 -13 -3 -10
-19z"></path>
<path d="M5267 5683 c-4 -3 -7 -117 -7 -253 0 -236 7 -300 33 -300 9 0 9 398
0 493 -6 63 -11 76 -26 60z"></path>
<path d="M2887 5618 c-4 -13 0 -29 8 -38 8 -9 15 -28 15 -42 0 -14 7 -31 15
-38 8 -7 15 -22 15 -34 0 -11 9 -34 20 -51 11 -16 20 -40 20 -52 0 -32 18 -38
31 -9 10 20 7 35 -12 83 -13 32 -29 65 -36 74 -7 8 -13 23 -13 32 0 13 -37 78
-54 95 -2 1 -6 -7 -9 -20z"></path>
<path d="M4597 5633 c-15 -14 -6 -41 15 -47 30 -7 42 7 29 33 -12 21 -31 27
-44 14z"></path>
<path d="M6928 5509 c-6 -19 4 -79 13 -79 12 0 12 77 0 84 -5 4 -11 1 -13 -5z"></path>
<path d="M2818 5478 c0 -13 0 -34 1 -46 1 -13 -5 -35 -14 -48 -14 -22 -14 -28
2 -75 18 -50 44 -76 63 -64 15 9 12 35 -10 80 -13 27 -19 62 -20 108 0 38 -4
67 -10 67 -5 0 -11 -10 -12 -22z"></path>
<path d="M3084 5379 c-3 -6 -1 -16 4 -21 13 -13 45 8 36 23 -7 12 -31 11 -40
-2z"></path>
<path d="M5015 5380 c-7 -12 12 -40 27 -40 13 0 6 43 -9 47 -6 2 -14 -1 -18
-7z"></path>
<path d="M6973 5374 c-8 -21 4 -115 17 -128 7 -7 10 14 10 67 0 73 -12 100
-27 61z"></path>
<path d="M6830 5335 c0 -8 5 -15 10 -15 6 0 10 7 10 15 0 8 -4 15 -10 15 -5 0
-10 -7 -10 -15z"></path>
<path d="M4895 5319 c-8 -12 23 -49 41 -49 25 0 27 23 4 42 -25 21 -36 22 -45
7z"></path>
<path d="M3154 5309 c-8 -14 11 -33 25 -25 16 10 13 36 -3 36 -8 0 -18 -5 -22
-11z"></path>
<path d="M3017 5290 c-7 -27 3 -90 14 -90 10 0 22 61 17 86 -5 26 -25 28 -31
4z"></path>
<path d="M6187 5250 c-6 -24 2 -60 14 -60 5 0 9 18 9 40 0 42 -14 54 -23 20z"></path>
<path d="M6840 5260 c0 -5 5 -10 10 -10 6 0 10 5 10 10 0 6 -4 10 -10 10 -5 0
-10 -4 -10 -10z"></path>
<path d="M2887 5173 c-6 -32 -3 -38 12 -28 13 8 15 55 2 55 -5 0 -11 -12 -14
-27z"></path>
<path d="M6850 5180 c0 -5 5 -10 10 -10 6 0 10 5 10 10 0 6 -4 10 -10 10 -5 0
-10 -4 -10 -10z"></path>
<path d="M3060 5130 c0 -27 5 -50 10 -50 6 0 10 23 10 50 0 28 -4 50 -10 50
-5 0 -10 -22 -10 -50z"></path>
<path d="M2916 5099 c-9 -46 -7 -129 3 -129 15 0 34 87 27 125 -8 43 -21 45
-30 4z"></path>
<path d="M6220 5090 c0 -22 5 -40 10 -40 6 0 10 18 10 40 0 22 -4 40 -10 40
-5 0 -10 -18 -10 -40z"></path>
<path d="M6630 5116 c0 -9 5 -16 10 -16 6 0 10 4 10 9 0 6 -4 13 -10 16 -5 3
-10 -1 -10 -9z"></path>
<path d="M6860 5075 c0 -19 5 -35 10 -35 6 0 10 16 10 35 0 19 -4 35 -10 35
-5 0 -10 -16 -10 -35z"></path>
<path d="M6640 5071 c0 -6 4 -12 9 -15 5 -3 12 -21 15 -41 4 -19 12 -37 18
-41 12 -8 5 33 -15 79 -12 26 -27 37 -27 18z"></path>
<path d="M5226 4875 c-8 -142 7 -325 25 -325 12 0 15 316 4 398 -5 39 -12 72
-16 72 -3 0 -10 -65 -13 -145z"></path>
<path d="M3090 4985 c-5 -14 -7 -38 -4 -55 12 -56 34 -29 34 41 0 44 -16 52
-30 14z"></path>
<path d="M6870 4985 c0 -8 5 -15 10 -15 6 0 10 7 10 15 0 8 -4 15 -10 15 -5 0
-10 -7 -10 -15z"></path>
<path d="M6250 4950 c0 -38 12 -52 25 -30 9 14 -4 70 -16 70 -5 0 -9 -18 -9
-40z"></path>
<path d="M6690 4954 c0 -15 58 -171 77 -207 9 -18 18 -27 20 -20 2 6 -3 25
-12 42 -8 17 -27 63 -41 103 -25 69 -44 105 -44 82z"></path>
<path d="M6880 4910 c0 -5 5 -10 10 -10 6 0 10 5 10 10 0 6 -4 10 -10 10 -5 0
-10 -4 -10 -10z"></path>
<path d="M2953 4836 c-12 -55 -6 -206 7 -206 4 0 10 10 14 23 9 33 7 237 -2
237 -4 0 -13 -24 -19 -54z"></path>
<path d="M6280 4843 c0 -16 7 -41 15 -57 8 -15 15 -41 15 -56 0 -39 18 -83 30
-75 16 10 12 82 -7 100 -9 9 -17 29 -18 43 -1 15 -3 37 -3 50 -3 33 -32 28
-32 -5z"></path>
<path d="M6890 4860 c0 -5 5 -10 10 -10 6 0 10 5 10 10 0 6 -4 10 -10 10 -5 0
-10 -4 -10 -10z"></path>
<path d="M3126 4834 c-9 -24 -7 -104 3 -104 12 0 21 36 21 83 0 38 -13 50 -24
21z"></path>
<path d="M6900 4806 c0 -14 5 -28 10 -31 6 -4 10 7 10 24 0 17 -4 31 -10 31
-5 0 -10 -11 -10 -24z"></path>
<path d="M6497 4753 c-12 -11 -8 -23 8 -23 8 0 15 7 15 15 0 16 -12 20 -23 8z"></path>
<path d="M6920 4745 c0 -8 4 -15 10 -15 5 0 7 7 4 15 -4 8 -8 15 -10 15 -2 0
-4 -7 -4 -15z"></path>
<path d="M3156 4694 c-10 -26 5 -39 21 -19 7 11 13 22 13 27 0 15 -28 8 -34
-8z"></path>
<path d="M6520 4687 c0 -40 12 -87 22 -87 14 0 5 103 -9 108 -8 2 -13 -6 -13
-21z"></path>
<path d="M6800 4676 c0 -8 5 -18 10 -21 6 -3 10 1 10 9 0 8 -4 18 -10 21 -5 3
-10 -1 -10 -9z"></path>
<path d="M6050 4640 c0 -11 5 -20 10 -20 6 0 10 9 10 20 0 11 -4 20 -10 20 -5
0 -10 -9 -10 -20z"></path>
<path d="M6820 4630 c0 -16 36 -80 45 -80 7 0 -23 72 -36 85 -6 5 -9 4 -9 -5z"></path>
<path d="M3186 4615 c-9 -23 2 -44 72 -134 64 -82 171 -170 344 -284 31 -21
59 -44 62 -52 3 -8 14 -15 24 -15 10 0 79 -46 153 -102 191 -146 192 -146 186
-160 -5 -14 -178 -121 -222 -138 -21 -8 -26 -15 -22 -32 5 -16 -10 -39 -61
-95 -37 -41 -82 -81 -99 -88 -18 -8 -33 -20 -33 -27 0 -16 -36 -89 -48 -97 -4
-3 -12 -16 -17 -27 -6 -12 -60 -68 -121 -125 -61 -57 -138 -135 -171 -174 -33
-38 -84 -90 -113 -114 -29 -24 -59 -59 -66 -78 -9 -19 -26 -38 -40 -43 -33
-13 -63 -49 -64 -76 0 -12 -9 -33 -20 -47 -11 -14 -20 -32 -20 -40 0 -8 -7
-20 -15 -27 -18 -15 -16 -51 3 -58 7 -2 12 6 12 22 0 15 8 30 20 36 11 6 20
19 20 29 0 10 7 24 15 31 8 7 15 17 15 22 0 19 99 134 197 228 119 115 386
410 421 465 32 50 54 75 182 204 58 58 126 120 150 137 87 60 391 202 480 224
47 12 126 32 176 46 63 17 103 23 130 18 33 -5 49 0 99 29 33 19 91 51 129 72
39 21 105 62 149 92 44 30 86 52 93 49 10 -4 14 -27 14 -88 0 -59 3 -79 11
-71 12 12 19 417 7 429 -17 16 -23 -12 -28 -113 l-5 -106 -140 -85 c-240 -146
-276 -162 -363 -172 -42 -4 -148 -26 -234 -48 -125 -32 -176 -50 -252 -91 -52
-28 -104 -51 -116 -51 -12 0 -33 13 -48 28 -38 40 -282 232 -295 232 -3 0 -30
17 -60 38 -30 20 -94 65 -143 98 -49 34 -110 80 -136 103 -48 43 -169 192
-181 224 -8 21 -23 22 -31 2z"></path>
<path d="M6355 4619 c-10 -14 4 -99 16 -99 12 0 12 97 0 105 -5 3 -13 0 -16
-6z"></path>
<path d="M6080 4556 c0 -20 4 -36 9 -36 5 0 13 -10 17 -22 9 -30 67 -119 122
-188 92 -115 302 -297 464 -404 31 -20 59 -44 62 -52 6 -16 -10 -37 -265 -364
-49 -63 -154 -200 -234 -305 -174 -229 -169 -223 -197 -229 -13 -2 -78 -16
-145 -31 -67 -15 -129 -25 -137 -22 -12 5 -14 15 -9 38 17 85 2 332 -19 311
-5 -5 -10 -107 -12 -228 -2 -136 -7 -230 -14 -247 -14 -32 -16 -137 -4 -137 5
0 19 11 32 25 21 22 22 31 18 100 -3 48 -1 78 6 83 6 5 40 14 76 21 36 7 91
22 123 33 46 16 61 18 70 8 9 -9 7 -16 -11 -27 -21 -15 -161 -173 -209 -237
-12 -16 -41 -40 -63 -53 -44 -27 -48 -34 -24 -53 13 -12 26 -3 90 61 76 74
224 243 224 255 0 8 59 85 80 104 9 8 48 56 85 105 38 50 100 129 137 176 37
48 68 91 68 95 0 5 25 38 55 74 81 96 255 318 255 325 0 17 69 96 97 111 37
21 57 14 131 -44 l42 -33 0 39 c0 33 -4 41 -22 45 -92 23 -118 31 -158 53 -26
14 -58 24 -72 22 -20 -2 -55 20 -149 92 -168 130 -419 383 -419 423 0 8 -9 22
-20 32 -11 10 -20 24 -20 32 0 7 -6 13 -14 13 -9 0 -16 12 -18 32 -4 46 -28
49 -28 4z m-330 -1836 c0 -11 -4 -20 -10 -20 -5 0 -10 9 -10 20 0 11 5 20 10
20 6 0 10 -9 10 -20z"></path>
<path d="M2990 4531 c-10 -31 -11 -135 -6 -493 4 -249 9 -479 12 -510 15 -150
21 -14 22 492 1 303 -2 550 -7 550 -4 0 -14 -18 -21 -39z"></path>
<path d="M6560 4525 c0 -25 4 -45 9 -45 13 0 17 17 13 56 -6 50 -22 42 -22
-11z"></path>
<path d="M5916 4538 c-2 -7 -7 -47 -10 -89 -3 -41 -12 -91 -19 -110 -20 -49
-17 -204 3 -204 12 0 16 20 18 107 2 78 6 109 17 118 18 15 22 175 5 185 -6 3
-12 0 -14 -7z"></path>
<path d="M6387 4487 c-8 -22 4 -67 19 -67 8 0 14 10 14 24 0 46 -21 74 -33 43z"></path>
<path d="M6596 4413 c-12 -13 -6 -53 9 -53 9 0 15 9 15 24 0 26 -12 40 -24 29z"></path>
<path d="M6424 4364 c9 -47 33 -87 47 -78 7 4 5 12 -5 22 -8 10 -16 32 -18 51
-2 19 -9 37 -17 39 -11 4 -12 -3 -7 -34z"></path>
<path d="M3897 4373 c-12 -11 14 -33 39 -33 32 0 31 18 -2 30 -30 12 -29 12
-37 3z"></path>
<path d="M6625 4290 c-10 -16 6 -60 22 -60 11 0 14 6 9 23 -3 12 -6 28 -6 35
0 14 -16 16 -25 2z"></path>
<path d="M6667 4194 c-10 -10 -9 -54 2 -54 12 0 22 43 13 52 -5 5 -11 5 -15 2z"></path>
<path d="M5160 3993 c0 -144 9 -263 20 -263 13 0 18 374 6 382 -23 16 -26 4
-26 -119z"></path>
<path d="M5846 4094 c-8 -20 -8 -182 0 -211 4 -13 10 -23 14 -23 11 0 19 122
13 191 -6 58 -15 74 -27 43z"></path>
<path d="M6700 4060 c0 -5 5 -10 10 -10 6 0 10 5 10 10 0 6 -4 10 -10 10 -5 0
-10 -4 -10 -10z"></path>
<path d="M4725 3981 c-6 -11 9 -23 19 -14 9 9 7 23 -3 23 -6 0 -12 -4 -16 -9z"></path>
<path d="M4649 3906 c-65 -58 -169 -117 -274 -155 -138 -50 -208 -93 -310
-195 -82 -82 -175 -203 -175 -228 0 -6 31 -42 68 -82 96 -100 157 -202 145
-241 -8 -27 -88 -130 -116 -150 -33 -23 -44 -19 -69 32 -28 56 -108 143 -131
143 -26 0 -20 -18 21 -65 105 -119 144 -205 107 -235 -8 -7 -15 -17 -15 -22 0
-16 -98 -135 -137 -167 -36 -30 -40 -61 -9 -61 9 0 39 -18 68 -40 29 -21 66
-40 83 -42 27 -3 30 -7 33 -40 2 -27 9 -39 23 -43 26 -9 39 4 18 16 -13 7 -16
22 -14 73 3 55 9 72 39 115 20 28 36 53 36 56 0 7 59 91 122 174 44 59 60 103
40 115 -17 11 -225 -281 -240 -338 -22 -77 -59 -93 -132 -55 -47 25 -50 38
-12 66 45 33 109 124 133 188 16 43 35 72 66 100 25 22 59 65 77 95 39 67 73
79 82 31 8 -37 21 -40 30 -6 5 18 -2 34 -29 67 -19 24 -46 66 -61 95 -14 29
-60 93 -101 142 -41 49 -75 92 -75 95 0 11 147 181 190 220 91 82 235 156 332
169 37 6 53 16 184 126 59 49 75 73 57 84 -5 3 -29 -14 -54 -37z"></path>
<path d="M3630 3815 c0 -57 4 -95 10 -95 6 0 10 38 10 95 0 57 -4 95 -10 95
-6 0 -10 -38 -10 -95z"></path>
<path d="M4760 3885 c-7 -9 -11 -16 -9 -18 2 -1 13 -7 24 -13 11 -6 28 -25 37
-44 9 -18 22 -38 27 -43 6 -6 11 -21 11 -33 0 -12 7 -27 15 -34 8 -7 15 -17
15 -22 0 -20 67 -147 93 -176 10 -10 17 -28 17 -39 0 -11 6 -26 14 -33 8 -6
16 -23 18 -37 4 -35 28 -43 28 -9 0 26 -8 50 -40 121 -18 40 -94 197 -109 225
-5 8 -19 38 -32 65 -44 97 -79 126 -109 90z"></path>
<path d="M4692 3792 c-23 -35 -45 -75 -48 -90 -4 -15 -11 -32 -16 -39 -6 -8
-6 -19 1 -30 9 -17 10 -17 16 2 4 11 10 27 15 35 47 79 80 149 78 165 -2 15
-13 5 -46 -43z"></path>
<path d="M5805 3775 c-4 -36 -4 -77 0 -93 3 -15 9 -44 12 -64 3 -21 9 -38 13
-38 11 0 18 202 8 215 -5 5 -8 17 -8 27 0 10 -4 18 -9 18 -5 0 -13 -29 -16
-65z"></path>
<path d="M5135 3688 c-7 -17 -10 -90 -7 -160 1 -44 6 -58 17 -58 12 0 15 19
15 109 0 63 -4 112 -10 116 -6 3 -12 0 -15 -7z"></path>
<path d="M3637 3664 c-11 -11 -8 -44 3 -44 15 0 24 30 13 41 -5 5 -12 6 -16 3z"></path>
<path d="M6954 3642 c-16 -15 -65 -70 -109 -122 -44 -51 -127 -148 -185 -215
-58 -67 -169 -196 -246 -286 -78 -90 -166 -192 -195 -226 -30 -34 -103 -120
-164 -190 -60 -70 -141 -162 -180 -203 -38 -42 -80 -88 -93 -104 -31 -37 -52
-21 -52 40 0 24 -4 44 -10 44 -6 0 -10 -43 -11 -107 -2 -189 3 -588 7 -592 2
-2 6 -2 9 1 7 7 16 252 15 403 l-1 120 87 85 c47 47 147 155 222 240 75 85
173 196 217 246 102 115 309 356 400 464 39 46 98 115 133 154 35 39 89 106
120 149 34 47 61 76 69 73 9 -4 13 4 13 24 0 37 -10 38 -46 2z"></path>
<path d="M4602 3598 c-7 -7 -12 -23 -12 -36 0 -14 -7 -30 -16 -36 -8 -7 -17
-28 -18 -47 -2 -20 -12 -45 -24 -57 -46 -46 -17 -202 37 -202 10 0 59 -40 109
-89 83 -81 144 -121 156 -102 8 12 -5 25 -79 85 -38 32 -100 91 -137 132 -77
85 -82 106 -48 194 11 28 20 59 20 70 0 10 5 20 11 22 11 4 31 78 20 78 -4 0
-12 -5 -19 -12z"></path>
<path d="M5768 3428 c-3 -79 -2 -144 3 -146 5 -2 9 -10 9 -18 0 -22 17 -16 24
9 17 65 -1 297 -24 297 -4 0 -10 -64 -12 -142z"></path>
<path d="M4347 3474 c-14 -14 -8 -297 7 -325 7 -14 16 -43 20 -63 4 -21 14
-54 23 -75 42 -95 85 -187 94 -201 5 -8 13 -24 18 -35 5 -12 16 -27 25 -34 9
-7 16 -20 16 -27 0 -64 374 -464 435 -464 6 0 26 -16 45 -35 19 -19 29 -35 22
-35 -13 0 -17 -71 -5 -84 4 -3 8 -118 9 -255 2 -204 5 -255 18 -280 10 -18 16
-55 16 -94 0 -75 9 -127 21 -127 5 0 9 65 9 144 0 108 -3 146 -14 155 -17 14
-30 807 -17 1071 8 169 -1 300 -21 300 -8 0 -13 -139 -13 -340 0 -152 -4 -150
-277 180 -54 65 -84 111 -144 218 -60 108 -76 64 -18 -51 20 -40 42 -79 50
-88 8 -8 14 -20 14 -25 0 -5 24 -37 53 -70 28 -33 83 -98 121 -142 38 -45 100
-110 138 -143 l69 -61 -3 -112 c-3 -110 -3 -111 -28 -114 -17 -3 -31 4 -45 21
-11 13 -57 56 -102 95 -45 38 -111 105 -145 148 -77 95 -188 255 -188 270 0 6
-6 17 -14 23 -8 7 -18 25 -21 41 -3 16 -13 34 -21 41 -8 6 -14 21 -14 33 0 12
-6 30 -13 41 -19 28 -57 133 -57 156 0 11 -7 19 -17 19 -16 0 -18 14 -18 155
0 143 -8 189 -28 169z"></path>
<path d="M5097 3323 c-8 -14 -12 -271 -4 -279 4 -4 7 -16 7 -26 0 -11 5 -18
13 -15 9 3 12 41 12 143 0 76 -1 149 -3 162 -4 22 -16 29 -25 15z"></path>
<path d="M2990 3220 c0 -16 5 -30 10 -30 6 0 10 14 10 30 0 17 -4 30 -10 30
-5 0 -10 -13 -10 -30z"></path>
<path d="M2950 3015 c0 -110 4 -175 10 -175 6 0 10 65 10 175 0 110 -4 175
-10 175 -6 0 -10 -65 -10 -175z"></path>
<path d="M4550 3170 c0 -11 5 -20 10 -20 6 0 10 9 10 20 0 11 -4 20 -10 20 -5
0 -10 -9 -10 -20z"></path>
<path d="M2990 3060 c0 -73 4 -120 10 -120 6 0 10 47 10 120 0 73 -4 120 -10
120 -6 0 -10 -47 -10 -120z"></path>
<path d="M6987 2843 c-3 -5 -8 -34 -12 -65 -6 -50 -5 -58 9 -58 13 0 16 12 16
65 0 62 -3 75 -13 58z"></path>
<path d="M3560 2757 c0 -8 12 -24 26 -38 14 -13 40 -48 57 -77 18 -30 39 -66
47 -79 8 -14 20 -26 25 -27 20 -2 16 44 -7 82 -45 75 -80 127 -96 140 -21 16
-52 15 -52 -1z"></path>
<path d="M6926 2635 c-4 -19 -4 -40 -1 -45 3 -6 -3 -27 -14 -48 -10 -20 -22
-46 -25 -57 -2 -11 -16 -51 -30 -88 -14 -37 -29 -93 -32 -125 -4 -31 -13 -66
-20 -77 -8 -11 -14 -34 -14 -52 0 -17 -5 -44 -11 -60 -11 -28 -27 -85 -54
-193 -7 -30 -18 -70 -24 -88 -5 -19 -8 -61 -4 -95 5 -55 3 -64 -16 -81 -17
-16 -21 -31 -21 -86 0 -36 -5 -71 -10 -76 -6 -6 -13 -35 -16 -65 -8 -83 -26
-169 -35 -169 -5 0 -9 4 -9 10 0 15 -47 80 -53 73 -4 -3 -1 -15 5 -27 14 -26
26 -74 38 -150 5 -32 16 -66 25 -76 13 -14 15 -37 13 -116 l-3 -99 -40 -5
c-57 -7 -52 -30 10 -46 28 -7 53 -13 56 -14 18 -1 24 59 18 185 -9 183 -1 418
16 475 7 25 16 70 20 100 3 30 12 75 20 100 7 25 16 63 20 85 4 22 10 44 13
50 7 10 14 40 45 188 8 38 20 74 26 80 6 6 11 28 11 49 0 20 6 52 14 70 16 37
46 155 53 208 3 19 11 49 19 67 8 17 14 41 14 53 0 12 7 43 16 69 17 53 16
102 -2 108 -7 2 -15 -12 -18 -32z"></path>
<path d="M5635 2555 c-3 -30 -4 -64 0 -75 12 -37 25 -20 25 33 0 28 3 62 6 75
5 16 2 22 -9 22 -10 0 -17 -16 -22 -55z"></path>
<path d="M2850 2540 c0 -23 -5 -33 -20 -37 -15 -4 -20 -14 -20 -39 0 -49 21
-42 49 15 24 51 25 81 4 89 -9 2 -13 -7 -13 -28z"></path>
<path d="M3360 2474 c0 -8 -10 -37 -21 -65 -21 -48 -21 -49 -3 -75 37 -51 54
-89 54 -121 0 -37 15 -44 23 -12 3 11 15 23 26 26 29 7 26 18 -14 50 -19 15
-35 33 -35 39 0 6 -10 18 -22 27 l-23 15 28 25 c29 28 36 74 15 95 -17 17 -28
15 -28 -4z"></path>
<path d="M3687 2445 c-24 -50 -93 -122 -154 -162 -55 -35 -66 -53 -34 -53 19
0 104 70 151 124 28 33 70 103 70 117 0 20 -17 7 -33 -26z"></path>
<path d="M2786 2403 c-12 -12 -6 -43 9 -43 8 0 15 9 15 19 0 21 -13 34 -24 24z"></path>
<path d="M3701 2332 c-42 -56 -80 -93 -133 -128 -40 -27 -78 -54 -84 -60 -7
-6 -27 -23 -45 -38 -28 -24 -31 -30 -21 -47 17 -27 17 -590 0 -607 -10 -10 -9
-16 4 -28 35 -36 38 -11 38 332 0 310 1 335 18 341 67 25 244 202 291 291 26
49 -11 18 -68 -56z"></path>
<path d="M5606 2368 c-3 -13 -6 -84 -6 -158 0 -75 -7 -192 -16 -260 -14 -101
-17 -214 -16 -586 0 -453 0 -462 22 -504 24 -48 20 -57 -30 -62 -41 -4 -48
-29 -10 -38 22 -5 25 -11 25 -50 0 -61 19 -67 23 -8 2 35 8 51 23 58 24 13 24
43 -1 98 -19 41 -20 67 -19 494 0 433 1 450 19 455 18 5 19 18 19 222 0 231
-7 361 -19 361 -4 0 -10 -10 -14 -22z"></path>
<path d="M2746 2332 c-7 -12 5 -52 15 -52 5 0 9 14 9 30 0 28 -13 40 -24 22z"></path>
<path d="M3977 2223 c-4 -38 -7 -96 -7 -129 0 -52 3 -62 19 -67 17 -4 18 -16
17 -153 -2 -169 0 -186 22 -182 14 3 16 18 14 98 -4 121 -19 262 -30 269 -4 3
-8 22 -8 41 0 115 -5 190 -13 190 -4 0 -11 -30 -14 -67z"></path>
<path d="M2712 2236 c2 -15 8 -26 13 -26 15 0 12 43 -3 48 -10 3 -13 -4 -10
-22z"></path>
<path d="M2680 2155 c0 -24 5 -35 15 -35 15 0 20 26 9 54 -11 28 -24 17 -24
-19z"></path>
<path d="M3356 2145 c-3 -9 0 -15 9 -15 8 0 15 7 15 15 0 8 -4 15 -9 15 -5 0
-11 -7 -15 -15z"></path>
<path d="M3330 2110 c0 -5 -16 -20 -35 -32 -48 -31 -45 -47 8 -44 42 2 42 2
45 44 2 25 -1 42 -7 42 -6 0 -11 -4 -11 -10z"></path>
<path d="M2647 2104 c-11 -11 -8 -62 4 -70 15 -9 30 16 27 45 -3 25 -19 37
-31 25z"></path>
<path d="M6416 2034 c-9 -69 -7 -242 3 -224 12 21 30 209 24 243 -8 41 -20 33
-27 -19z"></path>
<path d="M2616 2023 c-3 -3 -6 -24 -6 -45 0 -27 4 -38 15 -38 11 0 15 11 15
39 0 38 -10 57 -24 44z"></path>
<path d="M5160 1763 c0 -166 3 -224 14 -245 8 -14 17 -54 21 -88 4 -34 13 -74
21 -88 8 -15 14 -55 14 -88 0 -72 9 -124 21 -124 14 0 10 155 -5 223 -22 95
-53 410 -55 550 -1 61 -4 77 -16 77 -13 0 -15 -31 -15 -217z"></path>
<path d="M3284 1956 c-8 -21 -1 -49 14 -54 8 -2 12 8 12 32 0 36 -16 49 -26
22z"></path>
<path d="M2575 1919 c-4 -5 -4 -18 0 -28 4 -14 0 -23 -15 -31 -17 -9 -21 -19
-18 -53 4 -49 19 -52 31 -5 5 18 15 40 23 49 18 20 18 65 -1 72 -8 4 -17 2
-20 -4z"></path>
<path d="M3254 1846 c-9 -22 0 -91 11 -89 14 4 19 103 5 103 -6 0 -13 -6 -16
-14z"></path>
<path d="M2500 1746 c0 -25 12 -46 26 -46 15 0 18 18 8 44 -8 20 -34 21 -34 2z"></path>
<path d="M3220 1688 c0 -23 -6 -49 -14 -57 -8 -9 -17 -46 -21 -83 -7 -62 -6
-67 15 -78 33 -18 47 1 32 43 -16 46 -15 92 3 107 23 19 18 110 -6 110 -5 0
-9 -19 -9 -42z"></path>
<path d="M2473 1656 c4 -10 7 -22 7 -27 0 -5 5 -9 11 -9 15 0 7 43 -10 48 -10
3 -12 0 -8 -12z"></path>
<path d="M2444 1576 c-8 -21 3 -49 16 -41 5 3 10 15 10 25 0 25 -18 36 -26 16z"></path>
<path d="M5750 1520 c0 -40 4 -70 10 -70 6 0 10 30 10 70 0 40 -4 70 -10 70
-6 0 -10 -30 -10 -70z"></path>
<path d="M6350 1530 c0 -11 5 -20 10 -20 6 0 10 9 10 20 0 11 -4 20 -10 20 -5
0 -10 -9 -10 -20z"></path>
<path d="M2405 1509 c-4 -5 -4 -21 -1 -33 4 -18 1 -25 -14 -29 -15 -4 -20 -14
-20 -39 0 -23 -6 -37 -21 -46 -15 -10 -20 -21 -16 -38 2 -14 -1 -28 -9 -32
-19 -11 -64 -99 -64 -127 0 -13 -7 -28 -15 -32 -11 -7 -14 -18 -9 -41 4 -18 9
-32 13 -32 9 0 77 149 85 187 4 17 14 37 22 44 8 6 14 19 14 28 0 9 9 30 20
46 11 17 20 38 20 47 0 9 8 29 17 46 16 28 13 62 -6 62 -5 0 -13 -5 -16 -11z"></path>
<path d="M5990 1490 c0 -5 14 -10 30 -10 17 0 30 5 30 10 0 6 -13 10 -30 10
-16 0 -30 -4 -30 -10z"></path>
<path d="M6070 1490 c0 -5 9 -10 20 -10 11 0 20 5 20 10 0 6 -9 10 -20 10 -11
0 -20 -4 -20 -10z"></path>
<path d="M6492 1489 c2 -7 10 -15 17 -17 8 -3 12 1 9 9 -2 7 -10 15 -17 17 -8
3 -12 -1 -9 -9z"></path>
<path d="M5940 1480 c0 -5 5 -10 10 -10 6 0 10 5 10 10 0 6 -4 10 -10 10 -5 0
-10 -4 -10 -10z"></path>
<path d="M6130 1481 c0 -5 13 -12 30 -16 16 -4 32 -11 35 -16 7 -11 25 -12 25
-1 0 6 -72 42 -85 42 -3 0 -5 -4 -5 -9z"></path>
<path d="M3150 1370 c0 -46 12 -66 22 -37 7 19 -3 87 -13 87 -5 0 -9 -22 -9
-50z"></path>
<path d="M5670 1333 c0 -31 15 -61 25 -51 9 9 -5 78 -16 78 -5 0 -9 -12 -9
-27z"></path>
<path d="M3915 1300 c-55 -4 -176 -13 -270 -19 -93 -7 -192 -16 -218 -21 -26
-6 -73 -10 -103 -10 -41 0 -63 -5 -81 -20 -15 -12 -41 -20 -63 -20 -49 0 -61
-16 -63 -84 -1 -31 -5 -56 -9 -56 -5 0 -8 -4 -8 -10 0 -25 18 -6 38 41 28 63
49 73 236 105 246 43 389 55 656 57 212 1 287 -2 445 -21 379 -46 532 -79 605
-134 18 -13 44 -21 70 -21 l41 0 -3 -46 -3 -46 -52 -8 c-41 -7 -53 -13 -53
-27 0 -19 26 -30 78 -30 l32 0 -2 -202 -3 -203 -58 -5 c-49 -4 -60 -9 -70 -30
-15 -31 -56 -39 -74 -14 -7 10 -13 37 -13 60 0 37 -5 47 -36 72 -32 27 -35 33
-32 73 l3 44 45 3 c92 5 90 3 90 86 0 77 -13 104 -45 92 -11 -4 -15 -20 -15
-59 l0 -54 -45 -6 c-79 -8 -87 -23 -84 -152 l3 -110 -50 -3 c-35 -2 -53 -9
-65 -24 l-16 -20 -57 26 c-31 14 -80 42 -109 61 -28 19 -61 35 -72 35 -49 0
-54 16 -57 160 -3 112 -6 135 -18 135 -13 0 -16 -29 -20 -185 l-5 -185 -42 -3
c-51 -4 -74 -25 -44 -41 11 -6 48 -14 81 -18 39 -4 64 -11 67 -20 8 -20 80
-55 106 -51 32 4 27 30 -8 41 -44 15 -103 54 -115 77 -15 27 -3 60 21 60 10 0
40 -16 65 -36 69 -52 98 -64 334 -143 118 -39 256 -92 306 -117 81 -40 97 -52
133 -104 22 -32 41 -62 41 -68 0 -17 40 -46 50 -36 16 16 -47 134 -93 174 -23
19 -68 51 -101 71 -57 33 -61 38 -58 68 4 51 29 91 57 91 13 0 26 4 29 9 11
18 13 565 3 586 -6 11 -11 31 -12 45 -4 75 -6 81 -29 91 -19 9 -26 22 -31 60
-4 27 -11 49 -16 49 -13 0 -11 -74 3 -105 21 -47 -1 -52 -99 -21 -49 15 -142
34 -208 42 -66 8 -167 24 -225 34 -215 39 -487 55 -685 40z"></path>
<path d="M5700 1163 c0 -38 13 -93 21 -93 10 0 12 54 3 88 -7 26 -24 30 -24 5z"></path>
<path d="M5270 980 c0 -101 9 -134 24 -94 14 36 1 204 -15 204 -5 0 -9 -49 -9
-110z"></path>
<path d="M607 1063 c-3 -5 -7 -133 -9 -284 -4 -324 -7 -311 86 -307 l61 3 3
148 3 148 34 20 c19 12 32 25 29 30 -10 17 -60 9 -82 -14 -19 -20 -22 -36 -24
-152 l-3 -130 -40 0 -40 0 -3 249 c-2 262 0 276 42 276 36 0 46 -20 46 -92 0
-51 3 -68 14 -68 29 0 38 138 10 161 -18 15 -119 25 -127 12z"></path>
<path d="M2560 985 c0 -100 18 -115 22 -19 3 77 18 95 65 78 l28 -10 -1 -254
0 -255 -36 -3 c-48 -4 -70 -28 -37 -41 13 -4 42 -8 64 -7 l40 1 3 280 c2 275
2 280 -19 298 -14 11 -39 17 -75 17 l-54 0 0 -85z"></path>
<path d="M5751 1061 c-9 -6 -12 -19 -7 -40 3 -17 9 -45 12 -62 7 -35 24 -45
52 -30 17 9 18 16 11 62 -11 71 -32 93 -68 70z"></path>
<path d="M2195 1026 c-8 -19 -19 -37 -25 -41 -13 -8 -13 -45 0 -65 9 -13 11
-13 20 0 5 8 10 24 10 35 0 11 9 28 20 38 24 20 26 52 4 61 -11 4 -19 -4 -29
-28z"></path>
<path d="M4397 1054 c-4 -4 -7 -20 -7 -36 0 -26 -2 -28 -44 -28 -27 0 -48 -6
-56 -15 -21 -26 2 -36 71 -33 l64 3 0 54 c0 50 -11 72 -28 55z"></path>
<path d="M277 1043 c-9 -8 -7 -180 2 -213 6 -23 12 -25 61 -25 l53 0 0 108
c-1 93 -4 110 -19 122 -20 15 -85 20 -97 8z m88 -113 c0 -83 -1 -85 -24 -88
-35 -5 -51 22 -51 86 0 69 13 94 48 90 27 -3 27 -3 27 -88z"></path>
<path d="M427 1043 c-16 -15 -4 -22 41 -25 l47 -3 0 -85 0 -85 -40 -5 c-27 -3
-40 -10 -40 -20 0 -12 13 -15 58 -15 l58 0 3 103 c2 102 2 103 -25 123 -26 18
-89 26 -102 12z"></path>
<path d="M5060 1030 c0 -5 5 -10 10 -10 6 0 10 5 10 10 0 6 -4 10 -10 10 -5 0
-10 -4 -10 -10z"></path>
<path d="M3090 1015 c0 -8 5 -15 10 -15 6 0 10 7 10 15 0 8 -4 15 -10 15 -5 0
-10 -7 -10 -15z"></path>
<path d="M6454 975 c1 -52 -1 -56 -53 -109 -44 -45 -56 -63 -60 -98 -6 -43 -6
-43 -51 -46 -53 -4 -68 -15 -50 -37 14 -17 56 -20 94 -5 18 6 27 19 32 45 4
24 19 48 41 68 75 68 102 135 78 193 -21 50 -31 47 -31 -11z"></path>
<path d="M6768 933 l-3 -88 -40 -5 c-27 -3 -40 -10 -40 -20 0 -11 14 -16 52
-18 45 -3 53 0 63 19 17 30 3 199 -16 199 -10 0 -14 -22 -16 -87z"></path>
<path d="M6240 976 c-11 -29 -26 -32 -65 -14 -19 9 -28 9 -37 0 -17 -17 -2
-28 56 -44 47 -12 49 -12 70 15 12 15 32 27 45 27 16 0 22 5 19 18 -2 12 -14
18 -41 20 -32 3 -38 0 -47 -22z"></path>
<path d="M803 920 c-37 -15 -26 -28 20 -23 33 4 50 0 77 -19 l35 -24 0 -164 0
-165 -40 0 -40 0 -3 115 c-3 137 -21 175 -24 49 -2 -124 3 -192 15 -207 7 -9
30 -12 71 -10 l61 3 3 170 c2 114 -1 179 -9 198 -22 52 -118 97 -166 77z"></path>
<path d="M1145 911 c-66 -30 -80 -65 -80 -206 0 -135 12 -171 75 -212 27 -19
46 -23 115 -23 95 0 137 20 167 80 28 55 25 221 -4 280 -44 86 -177 125 -273
81z m192 -31 c58 -35 65 -56 61 -179 -3 -106 -4 -111 -32 -140 -39 -40 -86
-55 -158 -48 -75 7 -103 30 -117 99 -24 110 -6 223 41 263 26 22 39 25 101 25
54 0 80 -5 104 -20z"></path>
<path d="M1197 832 c-13 -14 -17 -39 -17 -106 0 -85 10 -126 31 -126 7 0 10
35 7 103 l-3 102 33 3 c34 3 39 11 20 30 -18 18 -53 15 -71 -6z"></path>
<path d="M1289 715 c2 -58 -1 -90 -9 -100 -16 -19 -10 -27 10 -15 20 13 27
158 8 183 -11 15 -12 5 -9 -68z"></path>
<path d="M2377 910 c-36 -28 -47 -76 -47 -200 0 -124 12 -173 50 -212 24 -24
37 -28 82 -28 61 0 93 18 100 55 7 34 -4 39 -34 15 -33 -26 -96 -34 -128 -18
-32 17 -48 77 -49 183 -1 154 26 201 109 192 25 -2 53 -8 63 -12 9 -4 17 -3
17 3 0 13 -74 42 -109 42 -16 0 -40 -9 -54 -20z"></path>
<path d="M5393 919 c-57 -16 -36 -26 45 -21 84 5 94 8 72 22 -19 12 -75 11
-117 -1z"></path>
<path d="M1483 904 c-6 -17 102 -401 119 -421 6 -7 32 -13 59 -13 56 0 63 8
74 90 4 30 14 71 22 90 14 35 11 80 -7 80 -8 0 -34 -75 -58 -170 -8 -32 -11
-35 -47 -35 l-39 0 -43 145 c-24 80 -45 163 -46 185 -2 37 0 40 22 37 38 -4
48 -18 68 -93 9 -38 21 -69 25 -69 12 0 10 51 -4 111 -10 44 -17 54 -45 65
-44 19 -92 18 -100 -2z"></path>
<path d="M1705 908 c-23 -73 -32 -119 -22 -115 6 2 17 22 25 46 16 47 29 56
67 47 26 -7 49 -48 61 -111 7 -40 24 -47 24 -10 0 57 -25 118 -55 137 -34 21
-94 24 -100 6z"></path>
<path d="M1927 913 c-3 -5 -12 -34 -20 -66 -17 -66 -1 -77 18 -12 6 25 20 44
34 51 26 13 51 8 51 -10 1 -19 -93 -330 -103 -344 -6 -7 -24 -12 -40 -10 -26
3 -33 9 -45 46 -7 23 -18 42 -23 42 -12 0 -11 -9 7 -66 23 -66 30 -74 75 -74
42 0 61 19 73 75 12 50 76 258 92 293 8 18 14 37 14 42 0 26 -120 55 -133 33z"></path>
<path d="M2130 876 c0 -30 9 -56 20 -56 14 0 21 51 9 66 -17 21 -29 17 -29
-10z"></path>
<path d="M3100 896 c0 -2 7 -21 16 -41 12 -29 15 -65 12 -151 -3 -103 -5 -115
-27 -138 -55 -59 -172 -71 -248 -26 -39 23 -46 5 -10 -27 30 -27 71 -40 145
-47 l64 -6 59 47 59 46 0 122 c0 110 -2 126 -26 173 -14 29 -30 52 -35 52 -5
0 -9 -2 -9 -4z"></path>
<path d="M4857 894 c-10 -10 -9 -44 2 -44 13 0 23 32 13 42 -5 5 -11 5 -15 2z"></path>
<path d="M3914 856 c-17 -27 -43 -33 -61 -15 -6 6 -28 9 -49 7 -31 -2 -39 -7
-39 -23 0 -17 6 -20 35 -18 19 2 52 -5 74 -14 l38 -17 29 34 c16 19 28 42 26
50 -4 25 -35 23 -53 -4z"></path>
<path d="M5055 748 c-8 -150 -5 -214 10 -211 13 4 19 343 6 343 -5 0 -12 -60
-16 -132z"></path>
<path d="M6014 845 c3 -16 6 -55 8 -85 l3 -55 -100 -5 -100 -5 -3 -30 c-3 -34
19 -72 36 -61 7 4 12 16 12 26 0 17 9 20 93 22 l92 3 3 55 c4 71 -4 109 -29
140 l-20 25 5 -30z"></path>
<path d="M3354 836 c-21 -33 -15 -71 11 -71 13 0 21 8 23 23 3 17 10 22 33 22
17 0 29 5 29 13 0 42 -70 51 -96 13z"></path>
<path d="M5832 848 c-7 -7 -12 -29 -12 -51 0 -31 3 -38 17 -35 9 2 20 14 23
28 3 14 14 26 25 28 42 7 48 11 35 27 -15 18 -71 20 -88 3z"></path>
<path d="M2923 838 c-25 -32 -21 -217 4 -225 9 -3 13 21 15 88 3 95 5 99 52
113 15 5 16 9 6 21 -15 18 -64 20 -77 3z"></path>
<path d="M3545 778 l0 -73 -100 -5 -100 -5 3 -34 c3 -38 19 -64 33 -55 5 3 8
13 7 22 -3 15 10 18 92 22 l94 5 9 40 c13 63 -6 155 -32 155 -3 0 -6 -33 -6
-72z"></path>
<path d="M5442 840 c-22 -9 -23 -13 -20 -121 2 -79 7 -114 16 -117 9 -3 12 20
12 92 l0 95 32 17 c30 16 31 17 13 30 -21 16 -22 16 -53 4z"></path>
<path d="M2462 828 c-17 -17 -15 -178 2 -200 7 -10 17 -18 21 -18 4 0 5 43 3
97 -3 106 3 118 48 88 23 -15 25 -20 22 -93 -3 -69 -5 -78 -25 -87 -13 -5 -23
-13 -23 -17 0 -13 10 -9 41 13 28 19 29 24 29 94 0 64 -3 77 -26 104 -27 33
-70 41 -92 19z"></path>
<path d="M5284 783 c3 -27 8 -76 11 -111 8 -81 29 -140 64 -177 20 -21 30 -45
35 -80 3 -27 11 -54 16 -59 6 -6 10 -22 10 -36 0 -14 9 -42 20 -63 11 -20 20
-43 20 -49 1 -7 9 -31 20 -53 11 -22 19 -45 20 -52 0 -6 10 -19 22 -27 17 -12
19 -18 9 -30 -10 -12 -64 -14 -318 -15 -307 -1 -339 2 -327 34 8 19 -20 68
-54 97 -17 14 -56 35 -88 48 -95 38 -264 138 -293 173 -16 20 -41 22 -41 4 0
-16 57 -71 125 -122 28 -20 66 -54 86 -75 19 -21 46 -41 60 -44 13 -2 52 -10
87 -18 35 -7 67 -17 72 -23 15 -18 0 -55 -24 -60 -34 -7 -1205 -13 -1281 -6
-57 5 -70 9 -73 25 -7 33 14 40 47 15 56 -41 54 -9 -5 59 -30 35 -54 67 -54
71 0 5 7 14 15 21 16 13 13 14 83 -36 16 -12 26 -14 33 -7 8 8 -6 23 -45 52
-35 26 -56 49 -56 61 0 26 -22 25 -45 0 -12 -14 -20 -41 -23 -80 -6 -77 -23
-93 -61 -56 -25 24 -50 70 -124 228 -15 31 -32 60 -37 63 -6 3 -10 15 -10 26
0 10 -4 19 -10 19 -18 0 -11 -37 17 -91 15 -29 40 -89 56 -133 16 -45 40 -114
55 -154 14 -39 23 -74 21 -76 -11 -10 -629 -15 -1911 -16 -1245 0 -1408 -2
-1408 -15 0 -13 396 -15 3500 -15 3104 0 3500 2 3500 15 0 13 -22 15 -137 16
-76 0 -383 2 -683 3 -300 2 -561 5 -580 7 -29 3 -36 9 -38 29 -2 14 -7 34 -11
45 -5 11 -24 60 -43 110 -19 50 -47 121 -62 158 -14 38 -24 73 -21 78 4 5 27
9 53 10 26 0 67 4 92 7 42 7 45 9 63 56 10 27 17 59 15 70 -4 28 -32 27 -36
-2 -2 -12 -18 -38 -36 -57 -32 -33 -36 -35 -102 -35 -120 0 -144 29 -159 190
-9 101 -15 130 -26 130 -6 0 -8 -19 -5 -47z"></path>
<path d="M2100 770 c0 -17 -9 -39 -20 -50 -22 -22 -27 -74 -9 -86 16 -10 29
15 29 57 0 23 6 39 15 43 9 3 15 18 15 36 0 20 -5 30 -15 30 -10 0 -15 -10
-15 -30z"></path>
<path d="M6652 718 c5 -24 10 -110 10 -193 0 -82 4 -155 8 -160 5 -6 14 -71
20 -145 13 -149 16 -168 30 -154 6 6 6 53 0 124 -6 63 -15 192 -21 285 -15
239 -21 279 -41 283 -14 3 -15 -2 -6 -40z"></path>
<path d="M3670 720 c0 -18 50 -59 103 -85 57 -29 67 -30 67 -10 0 8 -30 30
-69 50 -38 19 -72 39 -76 45 -8 13 -25 13 -25 0z"></path>
<path d="M3950 643 c0 -83 -57 -133 -150 -133 -31 0 -72 5 -89 11 -24 8 -36 8
-43 1 -13 -13 55 -46 119 -56 121 -21 221 71 192 176 -13 49 -29 49 -29 1z"></path>
<path d="M5514 615 c-9 -14 -23 -25 -30 -25 -8 0 -14 -4 -14 -10 0 -5 3 -10 7
-10 11 0 73 51 73 61 0 17 -20 9 -36 -16z"></path>
<path d="M2043 603 c-7 -3 -13 -21 -13 -40 0 -20 -9 -51 -20 -69 -18 -27 -20
-41 -13 -86 4 -29 6 -56 5 -60 -1 -5 2 -8 7 -8 14 0 21 27 21 81 0 28 9 69 20
93 20 45 16 97 -7 89z"></path>
<path d="M6345 598 c-3 -7 -4 -26 -2 -43 2 -29 1 -30 -50 -33 -50 -3 -81 -21
-69 -41 4 -5 39 -9 79 -7 l72 2 0 64 c0 42 -4 65 -12 67 -7 3 -15 -1 -18 -9z"></path>
<path d="M3554 573 c-16 -51 -34 -60 -136 -62 -64 -1 -103 11 -135 41 -18 16
-23 18 -23 7 0 -17 43 -61 79 -79 30 -16 158 -16 205 0 34 11 36 14 36 55 0
46 -16 69 -26 38z"></path>
<path d="M6026 581 c-3 -5 -4 -16 -1 -23 12 -30 -25 -43 -120 -43 -80 0 -97 3
-123 22 -33 24 -47 21 -31 -8 26 -49 110 -71 215 -57 81 11 94 20 94 63 0 33
-23 64 -34 46z"></path>
<path d="M3017 433 c-3 -5 -8 -27 -12 -50 -4 -24 -10 -45 -15 -48 -4 -3 -11
-25 -15 -50 -3 -25 -12 -60 -19 -78 -7 -18 -16 -56 -19 -85 -6 -51 -5 -53 16
-50 20 3 22 10 25 71 3 61 5 69 27 79 24 11 35 48 15 48 -19 0 -11 65 10 78
25 15 29 92 6 92 -8 0 -17 -3 -19 -7z"></path>
<path d="M5584 398 c3 -24 10 -105 15 -181 5 -76 12 -141 14 -144 21 -20 27
23 27 188 l0 179 -31 0 c-31 0 -31 0 -25 -42z"></path>
<path d="M3570 392 c-25 -20 -20 -42 9 -42 23 0 66 -19 103 -44 16 -10 35 -15
44 -12 15 6 15 8 -1 26 -9 10 -30 22 -45 25 -38 8 -59 32 -36 41 27 10 68 -6
113 -44 23 -20 71 -59 108 -87 36 -27 95 -83 131 -122 60 -67 94 -87 108 -65
8 13 -224 236 -287 276 -106 66 -202 85 -247 48z"></path>
<path d="M5925 362 c15 -17 75 -27 75 -13 0 6 -8 11 -17 11 -10 0 -29 3 -43 6
-18 5 -22 4 -15 -4z"></path>
<path d="M6108 363 c-38 -4 -54 -23 -19 -23 34 0 81 12 81 21 0 5 -6 8 -12 7
-7 -1 -30 -3 -50 -5z"></path>
<path d="M3530 326 c0 -9 5 -16 10 -16 6 0 10 4 10 9 0 6 -4 13 -10 16 -5 3
-10 -1 -10 -9z"></path>
<path d="M1962 233 c3 -74 6 -88 21 -91 13 -3 17 4 17 31 0 20 -6 38 -12 40
-10 4 -9 8 2 17 11 9 12 13 3 17 -7 2 -13 20 -13 39 0 19 -5 34 -10 34 -7 0
-10 -32 -8 -87z"></path>
<path d="M3560 301 c0 -6 24 -38 54 -73 29 -35 68 -87 86 -116 20 -33 39 -52
51 -52 25 0 25 32 -1 55 -11 10 -20 26 -20 35 0 10 -33 50 -72 89 -67 66 -98
85 -98 62z"></path>
<path d="M2000 285 c0 -8 5 -15 10 -15 6 0 10 7 10 15 0 8 -4 15 -10 15 -5 0
-10 -7 -10 -15z"></path>
<path d="M6256 214 c-9 -36 1 -43 14 -10 12 33 12 36 1 36 -5 0 -12 -12 -15
-26z"></path>
<path d="M6226 135 c-19 -44 -19 -45 -7 -45 11 0 36 69 28 77 -3 3 -13 -12
-21 -32z"></path>
<path d="M3050 95 c0 -14 5 -25 10 -25 6 0 10 11 10 25 0 14 -4 25 -10 25 -5
0 -10 -11 -10 -25z"></path>
</g>
</svg>