 <svg version="1.0" xmlns="http://www.w3.org/2000/svg" width="700.000000pt" height="953.000000pt" viewBox="0 0 700.000000 953.000000" preserveAspectRatio="xMidYMid meet">
<metadata>
Created by potrace 1.12, written by Peter Selinger 2001-2015
</metadata>
<g transform="translate(0.000000,953.000000) scale(0.100000,-0.100000)" fill="#000000" stroke="none">
<path d="M4304 8520 c-29 -11 -64 -58 -64 -85 0 -12 34 -70 75 -129 75 -105
100 -151 90 -166 -2 -4 -19 -10 -36 -14 -38 -7 -109 -77 -109 -107 0 -32 54
-102 135 -176 111 -100 167 -180 206 -293 31 -91 33 -102 33 -246 l1 -151 -44
-86 c-48 -96 -123 -182 -186 -211 -42 -20 -83 -17 -310 23 -230 41 -378 55
-575 55 -314 1 -598 -23 -870 -75 -175 -33 -176 -33 -355 -89 -162 -51 -203
-57 -241 -37 -16 8 -72 57 -125 109 -76 74 -104 110 -133 169 -78 157 -85 280
-28 464 27 88 136 255 250 385 34 39 62 77 62 84 0 27 -56 74 -101 85 -68 17
-74 23 -71 67 3 47 18 89 46 129 56 80 73 138 50 174 -24 36 -100 26 -206 -27
-186 -92 -365 -297 -463 -529 -77 -186 -118 -402 -118 -623 0 -152 13 -224 69
-389 67 -197 127 -307 250 -462 58 -73 209 -216 279 -264 51 -35 75 -88 75
-167 0 -45 13 -193 25 -279 l5 -35 -123 0 c-133 1 -155 -4 -312 -66 -237 -95
-276 -104 -333 -74 -67 35 -93 88 -96 196 -3 94 -18 97 -62 15 -42 -76 -66
-150 -67 -198 0 -21 -3 -40 -8 -42 -4 -3 -35 13 -70 36 -91 61 -157 82 -276
87 -56 2 -133 -1 -170 -7 -85 -15 -175 -56 -171 -78 2 -12 21 -15 98 -17 88
-1 100 -4 169 -38 86 -44 200 -127 201 -147 0 -11 -13 -13 -65 -8 -79 8 -157
40 -190 78 -28 34 -40 36 -55 8 -17 -31 -2 -94 36 -150 19 -28 34 -53 34 -56
0 -3 -19 -3 -42 1 -120 19 -257 98 -284 163 -20 46 -38 37 -42 -21 -5 -83 89
-248 196 -343 l37 -33 -45 -39 c-25 -22 -43 -41 -40 -42 3 -1 73 -3 155 -4
148 -2 217 -12 380 -54 129 -34 270 -87 270 -102 0 -9 -9 -13 -25 -11 -151 18
-295 8 -416 -29 -62 -19 -101 -49 -89 -68 3 -6 36 -11 73 -11 61 0 146 -14
245 -40 20 -6 52 -14 70 -19 52 -14 104 -38 229 -107 155 -86 169 -105 57 -78
-205 49 -257 65 -301 96 -13 9 -20 10 -29 1 -29 -29 163 -240 306 -334 133
-88 275 -178 304 -193 l29 -16 -19 -50 c-35 -91 -19 -200 29 -200 9 0 45 20
80 44 34 24 89 54 122 66 l60 23 78 -26 c189 -63 366 -97 498 -97 50 0 93 -3
97 -6 3 -4 -7 -33 -23 -65 -55 -109 -107 -296 -155 -569 -24 -134 -14 -421 21
-589 41 -200 99 -333 198 -457 73 -92 135 -140 193 -150 66 -10 69 1 48 179
-33 282 7 524 108 652 132 167 418 346 657 411 72 20 215 44 262 44 87 0 198
-67 198 -120 0 -27 -45 -104 -114 -194 -68 -89 -87 -151 -58 -185 17 -20 17
-20 72 -2 77 27 270 114 358 163 89 49 191 142 243 221 110 170 77 415 -70
513 -56 37 -144 64 -266 83 l-109 17 -32 42 c-46 59 -85 208 -70 266 6 23 12
25 93 31 340 25 618 112 782 245 62 51 65 52 101 41 21 -6 54 -11 74 -11 37 0
204 44 376 100 52 16 199 60 325 96 127 36 277 80 335 99 58 18 218 66 355
105 138 39 261 74 275 79 14 5 92 30 173 56 152 49 177 65 141 92 -16 13 -77
14 -409 9 -214 -3 -511 -10 -660 -16 -148 -6 -351 -15 -450 -19 -99 -4 -184
-4 -189 0 -9 8 103 198 143 242 77 85 218 103 272 34 9 -11 21 -17 28 -13 31
19 -9 115 -76 181 -57 57 -113 83 -191 89 -64 5 -60 -5 -47 112 19 162 -91
304 -227 292 -54 -4 -110 -26 -112 -42 0 -5 20 -15 47 -23 51 -15 51 -15 48
-98 -3 -71 -60 -152 -134 -191 -38 -20 -50 -9 -31 28 24 45 21 160 -4 219 -24
55 -87 122 -110 117 -14 -3 -16 -14 -14 -64 3 -46 -1 -72 -18 -106 -19 -41
-25 -46 -63 -52 -23 -4 -52 -9 -64 -13 -23 -5 -23 -3 -23 83 0 49 -5 183 -11
297 -14 250 -12 262 70 350 175 189 279 347 365 554 77 185 97 271 103 435 6
160 -4 250 -52 433 -37 145 -57 200 -111 307 -93 185 -226 328 -444 475 -78
52 -220 91 -266 73z m133 -63 c194 -66 415 -283 538 -527 94 -187 132 -335
145 -572 11 -189 7 -234 -39 -403 -23 -87 -139 -320 -219 -440 -32 -49 -106
-140 -164 -200 -126 -133 -135 -155 -119 -285 6 -46 11 -215 11 -374 0 -527
-43 -742 -196 -971 -50 -77 -183 -199 -253 -235 -120 -60 -274 -101 -531 -141
-216 -34 -364 -42 -543 -30 -320 22 -519 86 -662 214 -62 55 -168 209 -211
306 -32 71 -127 355 -147 441 -67 276 -90 415 -107 645 -7 90 -18 165 -28 188
-12 29 -42 59 -118 118 -177 137 -294 285 -402 509 -88 183 -148 487 -124 630
56 340 55 338 105 465 66 169 132 269 259 391 88 84 174 142 254 169 83 28 95
5 38 -69 -47 -61 -84 -154 -84 -209 0 -55 26 -81 95 -98 77 -18 82 -28 41 -80
-44 -55 -217 -315 -233 -349 -67 -148 -72 -376 -10 -522 52 -122 198 -292 289
-337 70 -33 102 -30 348 39 370 103 705 146 1120 143 286 -2 482 -20 812 -75
89 -15 131 -2 200 61 65 59 145 192 171 281 15 52 17 89 14 185 -8 228 -79
377 -272 568 -123 122 -126 150 -17 188 25 8 50 23 56 32 17 27 -19 113 -90
212 -67 94 -75 119 -46 141 24 19 40 17 119 -9z m757 -2809 c16 -79 16 -111
-2 -152 -25 -55 -134 -171 -174 -185 -26 -9 -21 -2 34 48 84 78 132 173 126
256 -3 55 7 76 16 33z m-4164 -112 c19 -40 53 -76 122 -129 23 -18 23 -18 -26
-12 -97 13 -136 44 -136 111 0 38 7 74 15 74 2 0 13 -20 25 -44z m819 15 c20
-13 4 -18 -87 -31 -46 -6 -127 -24 -180 -39 -174 -51 -225 -47 -109 8 95 46
192 70 282 70 44 0 86 -3 94 -8z m-1187 -42 c24 -6 61 -20 83 -31 58 -30 155
-97 155 -108 0 -13 -84 24 -124 55 -18 14 -39 25 -47 25 -8 0 -52 11 -99 24
-47 13 -102 27 -122 31 -21 3 -38 10 -38 16 0 12 133 4 192 -12z m978 -189
c12 -7 8 -10 -14 -10 -143 -1 -581 -127 -768 -221 -48 -25 -197 -41 -329 -35
-90 3 -117 9 -182 36 -43 18 -87 40 -100 51 -18 15 -6 13 66 -11 48 -17 120
-34 161 -38 146 -16 335 13 478 73 153 64 413 141 533 158 59 8 140 7 155 -3z
m3830 -51 c71 -30 71 -46 2 -54 -151 -17 -244 -55 -352 -143 -41 -34 -79 -62
-83 -62 -12 0 2 40 26 75 49 71 92 116 138 145 95 62 186 75 269 39z m-4452
-318 c142 -29 244 -65 325 -113 61 -37 102 -71 66 -55 -97 42 -201 76 -329
109 l-155 39 -214 0 c-122 0 -211 3 -205 8 47 44 324 51 512 12z m5788 -163
c-10 -5 -118 -39 -242 -74 l-224 -64 -47 21 c-27 12 -57 25 -68 30 -11 5 -60
15 -110 24 -130 23 -135 24 -135 39 0 11 37 15 183 20 100 3 274 9 387 13 225
9 284 7 256 -9z m-901 -18 c-3 -5 -10 -10 -16 -10 -5 0 -9 5 -9 10 0 6 7 10
16 10 8 0 12 -4 9 -10z m21 -44 c33 -7 69 -18 80 -23 10 -6 48 -13 84 -17 70
-6 170 -34 170 -46 0 -8 -485 -170 -506 -170 -6 0 -25 7 -41 15 -43 21 -191
52 -293 60 -47 4 -99 12 -115 19 -17 7 -53 16 -80 20 -71 11 -95 17 -95 26 0
5 16 35 35 68 l35 59 153 8 c83 4 208 10 277 14 86 4 142 2 180 -7 30 -7 82
-18 116 -26z m-4753 -124 c41 -11 92 -40 83 -49 -3 -3 -47 0 -98 6 -51 6 -127
13 -168 16 -97 6 -180 24 -180 37 0 13 305 4 363 -10z m4067 -72 c47 -4 112
-12 145 -19 70 -14 195 -70 195 -87 0 -12 -144 -55 -250 -74 -92 -17 -227 -56
-337 -97 -7 -3 -13 1 -13 9 0 8 -9 23 -20 33 -19 17 -18 19 44 109 35 50 71
105 80 123 15 30 18 32 44 21 15 -7 65 -15 112 -18z m437 -73 c-5 -16 -40 -25
-64 -16 -33 12 -28 27 10 31 39 4 59 -1 54 -15z m-4547 -197 c52 -17 119 -36
148 -42 64 -15 69 -33 6 -24 -55 7 -204 58 -236 80 -30 21 -28 21 82 -14z"></path>
<path d="M3941 5530 c-111 -52 -189 -150 -237 -297 -68 -208 -17 -428 122
-526 61 -43 98 -55 171 -56 116 -2 216 52 292 156 52 72 83 145 107 250 14 64
15 88 5 152 -22 153 -53 220 -129 278 -53 40 -93 52 -202 59 -73 4 -91 2 -129
-16z"></path>
<path d="M2565 5451 c-97 -33 -162 -87 -207 -174 -27 -52 -37 -219 -18 -306
35 -160 101 -268 209 -340 83 -56 130 -71 220 -71 67 0 86 4 139 31 76 38 144
111 168 182 12 35 18 81 17 142 -1 224 -106 429 -260 508 -39 21 -147 47 -188
46 -16 0 -53 -8 -80 -18z"></path>
<path d="M5885 4569 c-60 -13 -125 -39 -125 -50 0 -12 5 -11 43 4 18 8 56 20
85 26 28 7 55 17 58 22 6 11 -7 10 -61 -2z"></path>
<path d="M5400 4423 c-19 -9 -29 -18 -22 -20 16 -6 102 19 102 29 0 13 -42 8
-80 -9z"></path>
</g>
</svg>