 <svg version="1.0" xmlns="http://www.w3.org/2000/svg" width="700.000000pt" height="482.000000pt" viewBox="0 0 700.000000 482.000000" preserveAspectRatio="xMidYMid meet">
<metadata>
Created by potrace 1.12, written by Peter Selinger 2001-2015
</metadata>
<g transform="translate(0.000000,482.000000) scale(0.100000,-0.100000)" fill="#000000" stroke="none">
<path d="M0 2410 l0 -2410 3500 0 3500 0 0 200 0 199 -67 3 -68 3 -13 120
c-19 184 -72 618 -78 636 -6 23 -39 27 -259 35 -124 4 -266 2 -410 -7 -121 -8
-245 -14 -275 -14 l-56 0 -44 -155 c-65 -233 -122 -404 -173 -515 l-45 -100
-1158 0 -1159 0 -14 30 c-8 17 -37 64 -65 105 -28 41 -53 80 -56 85 -8 17
-148 218 -169 245 -11 14 -21 29 -21 33 0 5 -16 30 -35 55 -20 26 -72 97 -116
157 -44 61 -88 116 -98 123 -15 11 -29 8 -87 -19 -38 -17 -64 -33 -58 -35 6
-3 36 7 68 21 43 19 62 23 71 15 11 -9 91 -114 234 -308 19 -26 40 -56 45 -67
6 -11 45 -69 86 -128 41 -60 80 -116 85 -125 6 -10 34 -54 63 -99 28 -45 52
-84 52 -87 0 -4 -117 -6 -260 -6 l-259 0 -73 97 c-94 124 -137 173 -153 173
-40 0 -367 -164 -482 -242 l-42 -28 -948 2 -948 3 0 1960 0 1960 3352 3 c3336
2 3353 2 3385 -18 20 -12 26 -20 17 -20 -9 0 -19 -7 -23 -15 -3 -8 -13 -15
-21 -15 -9 0 -14 -4 -11 -8 3 -5 -4 -18 -14 -30 -11 -12 -20 -26 -20 -33 0 -6
-6 -23 -14 -37 -8 -15 -20 -55 -27 -90 -8 -35 -18 -63 -24 -63 -5 0 -15 15
-21 35 -7 19 -32 68 -55 108 -23 40 -52 92 -66 116 -13 23 -29 40 -34 36 -6
-4 -4 -15 5 -29 18 -28 77 -137 120 -220 16 -33 33 -62 36 -65 4 -3 20 -32 37
-65 16 -33 57 -112 90 -175 91 -174 177 -405 261 -700 7 -24 10 137 11 530 l1
566 -35 72 c-19 40 -39 72 -45 72 -16 0 -12 21 8 36 9 7 29 14 45 14 l27 0 0
245 0 245 -3500 0 -3500 0 0 -2410z"></path>
<path d="M4925 4290 c5 -8 30 -48 57 -88 50 -75 55 -99 15 -82 -35 16 -338 92
-383 97 -48 6 -210 -28 -309 -63 -76 -28 -100 -32 -127 -20 -11 5 -18 4 -18
-2 0 -5 34 -22 76 -38 74 -27 76 -27 172 -15 243 31 612 22 655 -16 18 -17 34
-43 60 -99 20 -42 41 -56 26 -17 -5 15 -15 34 -22 41 -12 15 -32 48 -43 72
-10 21 -144 223 -157 235 -7 7 -7 5 -2 -5z m-158 -126 c62 -16 113 -32 113
-36 0 -5 -61 -8 -137 -8 -75 0 -199 -7 -275 -16 -276 -32 -278 12 -3 76 101
24 162 21 302 -16z"></path>
<path d="M3354 4075 c-23 -50 -58 -100 -97 -142 -17 -18 -28 -35 -26 -38 8 -7
74 64 98 105 45 77 52 92 48 103 -3 7 -13 -6 -23 -28z"></path>
<path d="M3156 4035 c-3 -9 -19 -18 -36 -21 -19 -4 -30 -13 -30 -23 0 -23 -68
-65 -153 -95 -109 -38 -367 -112 -507 -145 -69 -16 -196 -50 -283 -75 -87 -25
-161 -46 -165 -46 -31 2 237 136 374 188 166 63 473 137 657 158 55 7 81 24
35 24 -82 0 -443 -79 -598 -130 -217 -71 -574 -251 -727 -366 -17 -13 -36 -24
-41 -24 -5 0 -17 -9 -27 -20 -24 -27 -9 -25 29 3 39 29 155 89 225 117 76 30
408 127 516 151 160 35 533 148 596 179 40 21 159 119 159 132 0 14 -18 9 -24
-7z"></path>
<path d="M5171 3882 c6 -17 17 -36 25 -43 12 -9 12 -7 3 19 -6 17 -17 36 -25
43 -12 9 -12 7 -3 -19z"></path>
<path d="M5220 3796 c16 -43 49 -104 60 -111 12 -7 0 25 -29 84 -24 47 -46 66
-31 27z"></path>
<path d="M4850 3800 c0 -5 7 -10 15 -10 8 0 15 5 15 10 0 6 -7 10 -15 10 -8 0
-15 -4 -15 -10z"></path>
<path d="M4698 3793 c-27 -2 -48 -9 -48 -15 0 -7 20 -9 61 -4 34 3 75 6 90 6
16 0 29 5 29 10 0 10 -34 10 -132 3z"></path>
<path d="M4570 3770 c0 -5 14 -10 30 -10 17 0 30 5 30 10 0 6 -13 10 -30 10
-16 0 -30 -4 -30 -10z"></path>
<path d="M4477 3760 c-40 -7 -65 -25 -54 -36 4 -4 12 -2 19 3 7 6 34 14 61 17
26 4 47 11 47 17 0 10 -17 10 -73 -1z"></path>
<path d="M4377 3692 c-25 -27 -21 -35 8 -16 25 16 33 34 17 34 -5 0 -16 -8
-25 -18z"></path>
<path d="M4825 3673 c-62 -5 -298 -43 -304 -49 -2 -2 1 -15 8 -28 13 -23 4
-63 -37 -173 -2 -7 1 -13 7 -13 6 0 13 11 17 25 6 26 24 35 24 12 0 -32 44
-144 82 -207 23 -38 65 -93 94 -121 l53 -53 86 -4 c80 -4 88 -3 111 19 38 35
52 67 62 141 9 72 0 195 -17 227 -9 16 -18 19 -44 14 -27 -4 -41 2 -80 31
l-48 36 16 -29 c17 -35 45 -52 95 -61 41 -6 47 -23 49 -140 1 -99 -13 -147
-57 -188 -33 -32 -39 -34 -89 -30 -40 4 -62 12 -91 35 -82 66 -161 201 -189
324 -15 66 -14 73 3 111 10 22 28 46 39 54 38 25 284 47 473 42 107 -3 176 -8
183 -15 15 -15 56 -188 64 -271 8 -77 -6 -152 -36 -193 -22 -32 -12 -40 14
-11 39 43 49 90 46 231 -1 106 -6 148 -22 191 -28 79 -32 85 -58 88 -44 5
-403 9 -454 5z"></path>
<path d="M4810 3596 c0 -14 5 -28 10 -31 6 -4 10 7 10 24 0 17 -4 31 -10 31
-5 0 -10 -11 -10 -24z"></path>
<path d="M4699 3578 c-30 -55 26 -202 84 -223 45 -15 62 3 60 61 -2 60 -23
111 -61 152 -35 37 -66 41 -83 10z"></path>
<path d="M2953 3547 c-35 -5 -63 -14 -63 -20 0 -6 17 -7 43 -3 23 4 61 10 85
13 23 3 42 10 42 14 0 11 -23 10 -107 -4z"></path>
<path d="M2820 3523 c-129 -21 -419 -108 -444 -134 -17 -16 9 -10 95 21 112
42 304 90 357 90 29 0 42 4 40 12 -5 14 -15 16 -48 11z"></path>
<path d="M2895 3480 c3 -5 12 -10 20 -10 7 0 54 -21 105 -46 50 -25 94 -44 97
-41 11 12 -180 106 -215 107 -7 0 -10 -4 -7 -10z"></path>
<path d="M1290 3461 c0 -11 5 -23 10 -26 6 -4 10 5 10 19 0 14 -4 26 -10 26
-5 0 -10 -9 -10 -19z"></path>
<path d="M5410 3399 c0 -8 7 -24 15 -35 11 -15 14 -16 15 -3 0 8 -7 24 -15 35
-11 15 -14 16 -15 3z"></path>
<path d="M2780 3355 c-8 -2 -49 -8 -90 -15 -131 -20 -416 -112 -684 -219 -223
-90 -266 -110 -272 -126 -6 -15 49 -327 77 -440 11 -44 28 -89 37 -99 9 -10
44 -32 76 -47 57 -27 92 -30 121 -9 13 9 114 28 185 35 45 4 60 11 92 42 75
73 112 224 89 361 -18 106 -23 114 -70 106 -31 -5 -45 -2 -71 17 -34 26 -74
87 -84 132 -4 15 -11 27 -16 27 -18 0 -10 -45 16 -98 30 -61 83 -102 130 -102
30 0 33 -3 44 -51 8 -31 11 -88 8 -145 -4 -79 -10 -104 -36 -157 -36 -73 -86
-127 -103 -110 -8 8 -1 25 24 62 82 118 71 263 -25 334 -44 33 -43 12 1 -28
117 -106 54 -331 -106 -378 -28 -9 -61 -13 -72 -10 -14 3 -23 0 -27 -11 -3 -9
-12 -16 -19 -16 -24 0 -100 37 -134 65 -30 26 -32 30 -16 41 15 11 15 14 1 36
-20 31 -56 135 -49 142 3 3 18 -3 33 -14 36 -26 112 -44 153 -36 19 3 52 22
74 41 42 35 97 135 91 164 -2 9 -16 -10 -31 -44 -65 -140 -141 -172 -270 -115
-56 25 -61 34 -81 155 -8 50 -18 100 -22 113 -6 19 0 25 49 47 93 41 343 135
358 135 8 0 19 4 25 9 25 23 319 115 425 133 51 9 79 9 122 -1 67 -15 176 -68
239 -116 32 -24 49 -32 54 -24 8 13 -135 154 -167 164 -48 15 7 35 99 35 26 0
41 4 37 10 -5 9 -175 13 -215 5z"></path>
<path d="M5440 3335 c0 -7 58 -147 151 -364 11 -24 22 -41 25 -38 6 5 -30 99
-116 297 -37 87 -60 127 -60 105z"></path>
<path d="M4841 3309 c-14 -11 -39 -19 -63 -19 -26 0 -37 -4 -32 -11 10 -17 84
-3 107 20 27 27 19 35 -12 10z"></path>
<path d="M4700 3300 c0 -5 7 -10 16 -10 8 0 12 5 9 10 -3 6 -10 10 -16 10 -5
0 -9 -4 -9 -10z"></path>
<path d="M2410 3090 c0 -5 7 -10 16 -10 8 0 12 5 9 10 -3 6 -10 10 -16 10 -5
0 -9 -4 -9 -10z"></path>
<path d="M1885 2995 c-44 -44 -31 -141 29 -212 24 -28 35 -33 71 -33 36 0 48
5 69 31 43 50 34 135 -21 199 -31 36 -39 40 -79 40 -34 0 -51 -6 -69 -25z"></path>
<path d="M5620 2914 c0 -15 50 -137 61 -148 16 -17 10 8 -17 75 -25 63 -44 94
-44 73z"></path>
<path d="M5690 2736 c0 -8 5 -18 10 -21 6 -3 10 1 10 9 0 8 -4 18 -10 21 -5 3
-10 -1 -10 -9z"></path>
<path d="M6555 2663 c19 -276 36 -759 33 -933 l-3 -205 -180 -7 c-246 -9 -345
-18 -345 -30 0 -6 15 -8 38 -4 20 3 168 9 327 12 266 6 472 -2 552 -23 l23 -5
0 236 0 236 -99 193 c-54 105 -135 255 -180 332 -45 77 -98 170 -119 207 -20
37 -40 68 -45 68 -4 0 -5 -35 -2 -77z"></path>
<path d="M5713 2685 c7 -27 90 -259 94 -264 2 -2 5 -2 8 1 7 7 -82 259 -96
272 -9 8 -10 6 -6 -9z"></path>
<path d="M2010 2600 c0 -5 5 -10 10 -10 6 0 10 5 10 10 0 6 -4 10 -10 10 -5 0
-10 -4 -10 -10z"></path>
<path d="M4570 2531 c0 -22 88 -117 191 -207 117 -102 126 -120 110 -226 -15
-98 -38 -174 -67 -227 -27 -49 -28 -51 -15 -51 13 0 87 148 105 212 18 64 21
160 6 189 -6 10 -59 60 -118 111 -59 50 -127 114 -151 142 -60 71 -61 72 -61
57z"></path>
<path d="M1850 2370 c0 -5 5 -10 10 -10 6 0 10 5 10 10 0 6 -4 10 -10 10 -5 0
-10 -4 -10 -10z"></path>
<path d="M5826 2348 c8 -27 12 -33 19 -27 7 8 -7 49 -17 49 -5 0 -6 -10 -2
-22z"></path>
<path d="M5843 2286 c3 -8 9 -31 13 -50 3 -20 10 -36 15 -36 11 0 11 2 -2 56
-6 24 -16 44 -21 44 -6 0 -8 -6 -5 -14z"></path>
<path d="M1880 2260 c0 -5 5 -10 10 -10 6 0 10 5 10 10 0 6 -4 10 -10 10 -5 0
-10 -4 -10 -10z"></path>
<path d="M5870 2165 c0 -8 5 -15 10 -15 6 0 10 7 10 15 0 8 -4 15 -10 15 -5 0
-10 -7 -10 -15z"></path>
<path d="M1910 2160 c0 -5 5 -10 10 -10 6 0 10 5 10 10 0 6 -4 10 -10 10 -5 0
-10 -4 -10 -10z"></path>
<path d="M5880 2105 c0 -8 5 -15 10 -15 6 0 10 7 10 15 0 8 -4 15 -10 15 -5 0
-10 -7 -10 -15z"></path>
<path d="M1944 2044 c3 -9 9 -27 12 -40 3 -13 11 -24 16 -24 6 0 7 7 4 16 -3
9 -9 27 -12 40 -3 13 -11 24 -16 24 -6 0 -7 -7 -4 -16z"></path>
<path d="M5890 1915 c0 -90 4 -145 10 -145 6 0 10 55 10 145 0 90 -4 145 -10
145 -6 0 -10 -55 -10 -145z"></path>
<path d="M1880 1951 c0 -5 6 -14 14 -20 12 -10 13 -8 9 8 -5 21 -23 30 -23 12z"></path>
<path d="M4565 1939 c-56 -13 -72 -33 -20 -24 59 10 75 15 75 26 0 10 -1 10
-55 -2z"></path>
<path d="M1210 1886 c0 -40 13 -66 26 -53 9 8 -7 97 -17 97 -5 0 -9 -20 -9
-44z"></path>
<path d="M1983 1917 c11 -28 28 -129 23 -134 -3 -3 -18 16 -33 42 -15 26 -36
57 -46 69 -16 20 -17 20 -11 1 10 -29 156 -276 161 -271 7 7 -81 306 -90 306
-5 0 -7 -6 -4 -13z"></path>
<path d="M4453 1898 c-13 -6 -23 -15 -23 -20 0 -14 24 -8 50 12 28 22 11 26
-27 8z"></path>
<path d="M5880 1690 c0 -16 5 -30 10 -30 6 0 10 14 10 30 0 17 -4 30 -10 30
-5 0 -10 -13 -10 -30z"></path>
<path d="M5870 1605 c0 -14 5 -25 10 -25 6 0 10 11 10 25 0 14 -4 25 -10 25
-5 0 -10 -11 -10 -25z"></path>
<path d="M5852 1498 c-12 -67 -12 -71 9 -63 10 4 14 24 15 65 1 33 -2 60 -6
60 -3 0 -12 -28 -18 -62z"></path>
<path d="M6010 1480 c0 -5 7 -10 15 -10 8 0 15 5 15 10 0 6 -7 10 -15 10 -8 0
-15 -4 -15 -10z"></path>
<path d="M5950 1470 c0 -5 9 -10 20 -10 11 0 20 5 20 10 0 6 -9 10 -20 10 -11
0 -20 -4 -20 -10z"></path>
<path d="M5088 1454 c-30 -16 -35 -24 -15 -24 16 0 54 27 47 33 -3 3 -17 -1
-32 -9z"></path>
<path d="M5900 1460 c0 -5 7 -10 15 -10 8 0 15 5 15 10 0 6 -7 10 -15 10 -8 0
-15 -4 -15 -10z"></path>
<path d="M4990 1411 c-60 -34 -632 -219 -985 -318 -196 -55 -246 -65 -337 -70
-60 -3 -108 -10 -108 -14 0 -13 125 -11 196 2 224 41 1274 374 1274 404 0 8
-23 6 -40 -4z"></path>
<path d="M5812 1328 c-12 -46 -24 -93 -28 -105 -3 -13 -2 -23 3 -23 6 0 22 44
37 98 29 110 29 112 18 112 -5 0 -18 -37 -30 -82z"></path>
<path d="M1950 1391 c0 -14 44 -80 53 -81 10 0 -1 38 -19 68 -15 22 -34 30
-34 13z"></path>
<path d="M2240 1073 c-62 -32 -136 -70 -165 -85 -29 -15 -56 -32 -60 -38 -8
-13 58 13 95 38 14 9 73 40 131 68 59 29 110 57 113 63 11 17 6 15 -114 -46z"></path>
<path d="M1190 951 c0 -6 4 -13 10 -16 6 -3 7 1 4 9 -7 18 -14 21 -14 7z"></path>
<path d="M1974 924 c-18 -14 -18 -15 4 -4 12 6 22 13 22 15 0 8 -5 6 -26 -11z"></path>
<path d="M1924 900 c-12 -4 -54 -30 -94 -57 -40 -26 -80 -52 -89 -58 -51 -32
-122 -88 -117 -92 3 -3 36 17 73 44 37 27 108 73 156 103 48 29 90 57 93 62 6
9 6 9 -22 -2z"></path>
<path d="M1620 595 c0 -25 5 -45 10 -45 6 0 10 20 10 45 0 25 -4 45 -10 45 -5
0 -10 -20 -10 -45z"></path>
<path d="M1630 490 c0 -16 5 -30 10 -30 6 0 10 14 10 30 0 17 -4 30 -10 30 -5
0 -10 -13 -10 -30z"></path>
</g>
</svg>