 <svg version="1.0" xmlns="http://www.w3.org/2000/svg" width="700.000000pt" height="795.000000pt" viewBox="0 0 700.000000 795.000000" preserveAspectRatio="xMidYMid meet">
<metadata>
Created by potrace 1.12, written by Peter Selinger 2001-2015
</metadata>
<g transform="translate(0.000000,795.000000) scale(0.100000,-0.100000)" fill="#000000" stroke="none">
<path d="M1 7178 c0 -483 4 -765 10 -753 6 13 6 -3 1 -45 -12 -109 -8 -984 5
-1090 31 -247 46 -344 69 -455 13 -66 27 -128 30 -137 4 -13 0 -18 -16 -18
-23 0 -40 -34 -40 -83 0 -52 -10 -76 -34 -79 -19 -3 -21 -10 -24 -67 -2 -48 1
-68 14 -82 15 -17 15 -19 0 -25 -14 -5 -16 -34 -16 -254 0 -204 3 -252 16
-278 17 -35 15 -78 -4 -75 -9 2 -12 -396 -12 -1867 l0 -1870 503 1 c276 0 498
2 492 4 -5 2 -100 22 -210 44 -228 46 -366 66 -579 81 -83 6 -154 13 -158 16
-14 9 -9 40 10 56 37 33 58 38 98 24 35 -13 131 -23 549 -57 77 -7 265 -13
418 -14 l278 -1 27 -27 c38 -38 24 -53 -83 -93 l-90 -33 2873 0 2872 -1 0 148
0 149 -227 17 c-267 21 -766 23 -1053 5 -220 -15 -226 -15 -1010 -18 -338 -1
-660 2 -715 7 -59 5 -354 5 -725 -1 -800 -14 -1141 -1 -1500 55 -102 16 -198
22 -395 25 -159 3 -264 8 -272 15 -24 19 7 49 91 89 l83 38 199 3 c109 2 309
-3 444 -9 407 -21 749 -28 1280 -27 467 0 632 6 975 35 102 9 880 23 1270 24
324 0 1526 -16 1540 -21 10 -4 15 0 15 15 0 21 -3 21 -227 22 -549 4 -742 6
-1118 14 l-400 8 -33 38 c-38 44 -69 55 -173 64 l-77 7 -15 52 c-63 208 -266
716 -324 804 -24 38 -11 48 79 60 134 18 213 47 269 99 30 28 53 59 59 82 25
91 3 647 -35 861 -8 47 -19 123 -25 170 -6 46 -17 123 -24 170 -8 47 -12 88
-9 93 2 4 39 7 81 7 42 0 171 7 285 16 139 11 211 14 218 7 6 -6 19 -77 29
-159 19 -146 79 -571 100 -709 21 -138 61 -421 70 -500 5 -44 17 -127 25 -185
68 -474 68 -468 54 -587 -13 -124 -7 -289 13 -330 7 -14 21 -31 31 -37 31 -19
52 21 66 121 12 84 44 226 61 268 42 101 100 226 142 305 126 235 150 284 211
425 71 166 174 480 206 630 20 93 51 289 57 360 17 204 23 314 24 446 2 141 2
148 26 170 21 20 23 28 20 93 -2 39 -4 91 -5 114 -1 36 -7 50 -34 74 -31 30
-32 34 -44 152 -6 66 -19 175 -28 241 -8 66 -20 154 -25 195 -9 73 -79 499
-101 610 -11 59 -83 363 -99 420 -5 19 -21 78 -34 130 -28 108 -89 308 -110
360 -8 19 -33 87 -57 150 -23 63 -52 138 -64 165 -13 28 -37 84 -55 125 -75
173 -188 366 -305 520 -131 173 -297 329 -593 557 -78 60 -135 124 -196 222
-89 141 -98 152 -120 149 -18 -3 -21 -9 -19 -53 1 -53 50 -209 89 -287 13 -26
45 -73 71 -105 42 -51 48 -65 55 -123 4 -36 14 -110 23 -165 8 -55 22 -152 31
-215 8 -63 21 -162 29 -220 8 -58 30 -215 49 -350 19 -135 37 -270 41 -300 3
-30 10 -77 15 -105 6 -27 21 -135 35 -240 14 -104 32 -235 40 -290 8 -55 21
-149 29 -210 8 -60 26 -189 40 -285 50 -359 65 -469 85 -620 21 -152 64 -461
81 -570 6 -40 5 -59 -5 -68 -9 -10 -84 -17 -294 -25 -154 -6 -283 -8 -287 -4
-4 3 -10 44 -15 90 -5 46 -20 158 -34 248 -68 431 -85 542 -100 644 -63 429
-164 950 -201 1033 -29 66 -73 116 -118 132 -17 7 -40 16 -51 20 -63 26 -273
62 -460 80 -81 7 -117 15 -136 29 -38 28 -91 48 -155 60 -44 8 -69 21 -112 56
-122 100 -476 307 -682 398 -297 130 -460 170 -605 147 -84 -13 -169 -54 -204
-97 -29 -36 -48 -40 -90 -19 -83 43 -438 154 -564 177 -77 13 -97 6 -78 -29
22 -41 3 -44 -41 -7 -25 21 -40 25 -96 26 -37 0 -94 5 -127 10 -60 9 -254 31
-435 48 -98 10 -216 36 -237 53 -13 10 -33 3 -33 -11 0 -12 139 -117 243 -184
133 -87 271 -162 392 -213 116 -48 126 -52 380 -132 260 -82 329 -102 346
-102 8 0 23 -6 33 -13 17 -13 16 -15 -18 -35 -33 -19 -36 -25 -36 -66 0 -38
-4 -48 -25 -62 -14 -9 -25 -22 -25 -29 0 -19 -31 -39 -90 -60 -132 -44 -475
-189 -590 -248 -218 -111 -285 -164 -316 -247 -35 -95 -29 -474 14 -828 17
-136 15 -162 -10 -162 -13 0 -138 84 -187 126 l-43 38 6 85 7 86 -92 75 c-151
123 -146 117 -168 202 -74 276 -118 658 -128 1098 -4 191 -2 326 6 410 15 154
54 403 80 507 11 43 35 146 55 228 44 186 104 394 169 580 14 39 28 83 32 100
11 48 23 57 71 49 34 -5 54 -1 89 16 42 20 49 21 72 9 18 -10 61 -14 137 -14
93 1 126 5 201 29 78 24 109 29 225 30 112 2 152 7 234 30 104 29 205 74 294
134 40 26 56 32 65 23 15 -15 50 -14 66 2 10 10 16 8 28 -10 9 -13 21 -23 29
-23 13 0 84 39 84 46 0 2 -441 4 -980 4 l-980 0 1 -772z m4860 320 c71 -120
153 -212 267 -301 410 -318 604 -543 794 -918 84 -166 89 -177 129 -279 72
-180 151 -409 189 -545 12 -44 28 -100 35 -125 26 -89 102 -409 121 -510 8
-41 19 -97 25 -125 30 -152 104 -669 129 -905 6 -58 13 -122 16 -142 5 -33 3
-39 -19 -47 -14 -6 -28 -15 -32 -20 -10 -17 -33 -13 -55 9 -14 14 -21 39 -25
87 -24 281 -69 606 -120 873 -9 47 -23 123 -31 170 -8 47 -19 110 -24 140 -23
128 -147 586 -203 745 -114 325 -292 738 -327 760 -5 3 -10 13 -10 20 0 21
-121 194 -217 312 -87 106 -188 202 -338 318 -49 38 -99 78 -110 88 -11 11
-30 26 -43 35 -36 24 -108 132 -143 213 -40 92 -71 219 -55 219 2 0 23 -33 47
-72z m184 -419 c4 -6 62 -54 129 -107 189 -151 317 -289 451 -487 92 -136 212
-381 290 -595 15 -41 37 -95 48 -120 30 -68 112 -313 142 -425 14 -55 37 -138
50 -185 46 -167 95 -393 114 -525 14 -95 68 -411 75 -433 3 -9 12 -82 21 -162
8 -80 22 -203 30 -274 8 -71 12 -134 8 -139 -3 -5 -16 -6 -29 -3 -36 9 -63
-10 -84 -59 -10 -24 -29 -50 -42 -58 -33 -21 -680 -106 -711 -94 -9 3 -17 27
-21 64 -4 32 -11 90 -17 128 -41 289 -70 503 -79 575 -5 47 -23 177 -40 290
-17 113 -37 255 -45 315 -8 61 -22 157 -30 215 -8 58 -22 155 -30 215 -42 302
-68 489 -90 645 -9 58 -22 157 -30 220 -8 63 -22 160 -30 215 -8 55 -22 150
-30 210 -8 61 -21 157 -30 215 -8 58 -20 148 -25 200 -6 52 -15 108 -20 124
-10 29 -6 46 10 46 5 0 12 -5 15 -11z m-2550 -808 c177 -43 472 -177 710 -321
96 -59 274 -171 294 -187 17 -13 -25 -13 -126 0 -132 18 -288 32 -503 48 -324
23 -299 19 -315 49 -30 58 -103 77 -165 43 -31 -17 -32 -17 -43 2 -25 42 -156
161 -234 212 -46 29 -83 57 -83 62 0 27 116 96 190 112 53 12 185 3 275 -20z
m-1252 -17 c60 -26 63 -26 113 -10 62 20 94 20 208 1 63 -10 111 -25 164 -52
92 -46 134 -87 147 -139 9 -35 13 -39 40 -39 23 0 31 5 33 23 3 16 10 22 30
22 29 0 54 -15 125 -74 54 -45 60 -66 18 -66 -16 0 -31 -4 -33 -9 -1 -5 -27
-2 -57 5 -48 13 -75 12 -208 -1 -85 -9 -168 -14 -186 -10 -87 17 -114 49 -82
98 9 14 15 36 13 49 -3 25 0 24 -193 79 -202 57 -270 80 -295 99 -26 20 -22
34 15 43 46 11 89 5 148 -19z m1260 -387 c69 -64 70 -160 2 -143 -25 6 -26 8
-11 25 30 33 15 91 -23 91 -23 0 -51 -31 -51 -56 0 -13 10 -30 22 -38 18 -13
19 -16 6 -21 -9 -4 -29 -5 -45 -3 -27 3 -28 4 -28 66 0 57 3 66 28 88 38 32
59 30 100 -9z m-177 -58 c8 -6 14 -27 14 -45 0 -46 -13 -50 -203 -57 -152 -6
-192 -12 -389 -62 -32 -8 -66 -15 -75 -15 -34 1 40 49 85 56 59 9 49 30 -11
26 -42 -3 -47 -1 -47 16 0 48 48 62 275 86 82 8 340 4 351 -5z m149 -29 c-5
-8 -11 -8 -17 -2 -6 6 -7 16 -3 22 5 8 11 8 17 2 6 -6 7 -16 3 -22z m380 0
c105 -6 204 -12 220 -15 17 -3 100 -12 185 -20 271 -27 436 -57 463 -84 14
-14 -7 -14 -88 -1 -33 5 -136 14 -230 20 -93 6 -195 13 -225 16 -30 3 -174 11
-319 17 l-265 12 -7 29 c-11 40 -3 49 40 42 20 -3 122 -10 226 -16z m185 -105
c326 -19 604 -41 775 -61 72 -8 164 -19 205 -24 194 -22 363 -60 433 -99 40
-21 80 -99 106 -207 40 -161 129 -655 176 -974 10 -63 26 -169 37 -235 10 -66
25 -167 33 -223 8 -57 17 -111 19 -120 3 -10 12 -75 21 -147 8 -71 22 -166 30
-210 18 -101 36 -235 76 -550 5 -38 15 -108 23 -155 33 -189 58 -520 39 -520
-12 0 -104 51 -263 145 -122 72 -206 119 -333 186 -62 33 -82 50 -98 81 -31
61 -115 109 -198 115 -60 4 -86 15 -281 113 -118 59 -260 128 -315 153 -194
87 -575 279 -570 287 3 4 40 11 82 14 234 19 409 30 583 35 l195 6 -3 75 c-2
57 -6 78 -20 88 -28 22 -758 3 -1079 -29 l-132 -13 -138 66 c-76 36 -197 89
-269 118 l-132 53 -6 46 c-4 25 -22 168 -41 316 -19 149 -38 302 -44 340 -9
67 -23 188 -57 515 -27 266 -38 534 -26 648 15 146 20 151 178 164 328 26 584
27 994 3z m-1188 -61 c-22 -141 -25 -207 -14 -397 15 -266 59 -704 92 -927 9
-61 53 -418 69 -558 4 -34 4 -67 0 -73 -5 -8 -40 -6 -125 6 -66 10 -153 20
-194 22 -41 3 -80 9 -86 14 -6 5 -14 35 -18 66 -9 74 -44 214 -59 232 -11 12
-60 11 -134 -3 -11 -3 -43 -7 -70 -11 -109 -14 -231 -47 -253 -67 -21 -20 -22
-26 -15 -99 l6 -79 -138 0 c-76 0 -148 3 -160 6 -27 7 -29 14 -43 139 -6 55
-18 156 -25 225 -8 69 -21 181 -30 250 -9 69 -18 233 -22 365 -8 340 5 383
141 474 124 84 370 199 621 291 50 19 95 37 100 41 30 21 329 111 350 105 6
-2 9 -12 7 -22z m-1711 -1048 c2 -44 -2 -90 -8 -99 -3 -5 -13 -1 -22 7 -15 13
-16 25 -10 64 4 26 8 52 8 59 2 27 31 -1 32 -31z m77 -19 c19 -20 20 -28 12
-57 -6 -19 -10 -47 -10 -62 0 -18 -5 -28 -14 -28 -19 0 -45 37 -40 58 1 9 6
38 9 65 3 26 10 47 14 47 4 0 17 -10 29 -23z m80 -129 c-5 -65 -11 -76 -33
-58 -17 14 -20 76 -5 115 9 23 13 25 26 14 12 -10 15 -27 12 -71z m73 1 c12
-23 4 -129 -10 -129 -23 0 -37 38 -33 93 4 61 21 76 43 36z m-259 -116 c24
-21 23 -32 -4 -42 -26 -10 -78 20 -78 45 0 20 59 18 82 -3z m-42 -84 c21 -30
17 -149 -5 -149 -31 0 -45 31 -45 99 0 88 15 103 50 50z m130 11 c0 -13 -34
-30 -59 -30 -14 0 -21 6 -21 20 0 17 7 20 40 20 22 0 40 -4 40 -10z m75 -55
c0 -14 -100 -44 -125 -38 -34 9 -22 31 23 42 51 11 102 10 102 -4z m162 -108
c49 -37 52 -49 18 -71 -40 -26 -39 -28 -93 103 -8 21 23 7 75 -32z m-237 8 c0
-26 -14 -33 -25 -15 -9 14 1 40 15 40 5 0 10 -11 10 -25z m68 -34 c2 -32 0
-42 -10 -39 -7 3 -14 23 -16 47 -2 32 0 42 10 39 7 -3 14 -23 16 -47z m107
-71 c3 -5 1 -10 -4 -10 -6 0 -11 5 -11 10 0 6 2 10 4 10 3 0 8 -4 11 -10z
m1051 -185 c3 -19 3 -43 -1 -52 -6 -15 -9 -13 -21 12 -18 40 -18 75 1 75 8 0
17 -14 21 -35z m5204 -230 c0 -26 -6 -35 -31 -48 -36 -17 -84 -9 -84 15 0 8
20 31 45 50 51 40 70 35 70 -17z m-203 19 c32 -24 45 -64 22 -64 -7 0 -26 9
-45 20 -44 28 -55 8 -18 -31 27 -28 29 -37 32 -126 2 -52 0 -99 -5 -104 -8 -8
-56 -16 -268 -44 -233 -31 -274 -35 -405 -45 -74 -6 -144 -12 -154 -13 -23 -2
-32 23 -41 126 -5 56 -4 75 7 84 7 5 56 13 108 17 88 6 227 23 375 46 33 5
100 14 149 21 95 12 126 30 126 72 0 35 28 67 57 67 14 0 41 -11 60 -26z m211
-106 c-7 -23 -69 -48 -90 -37 -28 15 -22 24 25 36 60 14 69 15 65 1z m-140
-41 c7 -18 12 -44 12 -57 0 -28 27 -60 50 -60 34 0 42 -25 36 -112 -3 -46 -13
-186 -22 -313 -14 -216 -30 -342 -55 -460 -77 -348 -181 -633 -341 -940 -221
-422 -250 -499 -302 -797 -4 -21 -11 -38 -16 -38 -17 0 -25 74 -24 215 1 190
16 236 202 610 142 286 202 443 296 775 74 263 130 744 126 1078 -2 141 -3
132 13 132 7 0 18 -15 25 -33z m-5395 -17 c2 -3 12 -27 22 -55 28 -75 31 -78
95 -72 30 3 73 9 94 13 l39 7 -16 -24 c-25 -34 -21 -54 14 -82 l31 -24 -78
-18 c-135 -30 -140 -37 -109 -143 l16 -52 47 0 c26 0 90 11 142 24 52 13 130
31 172 40 42 9 82 23 88 31 9 11 8 34 -7 102 -18 87 -18 88 -60 108 -23 11
-42 24 -43 28 0 5 19 24 44 43 38 28 53 34 96 34 54 0 263 -33 317 -51 59 -19
57 -12 113 -369 40 -254 46 -292 74 -445 9 -44 18 -102 21 -130 29 -223 133
-717 175 -828 11 -28 17 -53 14 -56 -6 -7 -21 -7 -554 -16 -597 -9 -660 0
-717 101 -34 61 -91 271 -113 419 -4 28 -11 67 -15 88 -7 34 -5 37 15 37 12 0
48 -6 79 -14 31 -7 110 -21 176 -31 157 -22 165 -25 165 -70 0 -36 24 -94 44
-107 6 -4 22 -8 35 -8 14 0 39 -5 56 -11 28 -10 39 -8 88 15 42 20 59 33 64
54 14 47 6 201 -12 248 -28 74 -52 84 -260 113 -249 36 -375 71 -375 105 0 23
41 50 145 96 l96 41 45 -30 c61 -40 118 -48 188 -26 102 32 155 111 156 230 0
130 -58 207 -179 234 -85 19 -184 -27 -236 -109 -18 -28 -35 -42 -63 -49 -69
-19 -207 -77 -271 -114 -35 -21 -65 -37 -66 -35 -8 11 -74 417 -95 588 -5 41
-12 98 -16 127 l-7 52 99 3 c101 3 219 -3 227 -12z m5543 -12 c9 -14 -40 -58
-65 -58 -10 0 -24 6 -30 14 -13 16 -2 28 44 44 40 14 43 14 51 0z m-1128 -122
c7 -54 9 -102 5 -107 -12 -12 -178 -29 -288 -30 -55 0 -140 -4 -190 -8 -49 -4
-93 -5 -97 -2 -9 7 -40 212 -34 218 2 3 82 7 178 10 95 2 218 8 273 13 152 12
138 20 153 -94z m-3235 -70 c89 -40 200 -91 247 -111 102 -45 360 -174 378
-188 19 -15 -4 -27 -54 -27 -61 0 -73 -14 -76 -90 l-3 -64 -38 -8 c-72 -15
-77 -21 -76 -96 1 -37 4 -80 8 -97 6 -28 10 -30 61 -35 l55 -5 10 -50 c16 -80
14 -79 129 -72 56 3 113 10 129 16 26 10 27 12 21 65 -6 48 -4 55 14 65 11 6
32 11 46 11 14 0 35 9 47 21 19 19 20 28 14 97 -10 104 -17 116 -65 109 -44
-6 -60 6 -60 45 0 20 5 28 18 28 9 0 168 -76 352 -168 l335 -167 6 -65 c10
-111 64 -187 169 -237 94 -45 227 -44 295 3 l37 25 47 -24 c25 -13 80 -43 121
-67 104 -61 214 -120 360 -195 225 -115 221 -111 171 -167 -57 -65 -125 -91
-311 -118 -30 -4 -66 -11 -80 -14 -14 -3 -101 -13 -195 -22 -93 -9 -208 -20
-255 -24 -47 -4 -148 -13 -225 -19 -77 -6 -194 -16 -260 -21 -66 -6 -219 -15
-340 -20 -121 -6 -290 -14 -375 -19 -189 -12 -474 -16 -488 -7 -28 17 -83 208
-133 466 -11 58 -26 137 -34 175 -8 39 -21 115 -30 170 -8 55 -22 138 -30 185
-17 99 -50 307 -65 400 -5 36 -21 134 -35 219 -23 140 -24 171 -8 171 2 0 78
-33 166 -74z m4139 -76 c-7 -218 -50 -599 -83 -737 -27 -116 -83 -307 -120
-411 -79 -222 -112 -300 -223 -522 -61 -124 -118 -244 -124 -267 -16 -53 -28
-55 -35 -5 -18 125 -60 424 -72 517 -26 192 -55 398 -65 460 -5 33 -16 112
-25 175 -8 63 -31 228 -51 365 -34 238 -53 376 -54 402 0 24 44 35 178 44 76
5 164 13 197 19 33 5 114 16 180 25 66 8 149 19 185 24 36 5 76 8 90 7 l25 -1
-3 -95z m-5797 -174 c77 -50 151 -99 164 -108 24 -17 42 -74 55 -178 7 -54 6
-56 -27 -88 l-35 -34 -37 33 c-78 69 -231 312 -285 453 -13 35 -2 30 165 -78z
m2403 -108 c7 -7 12 -33 12 -59 0 -57 17 -74 74 -74 l41 0 9 -68 c11 -81 2
-95 -63 -104 -23 -3 -45 -11 -49 -17 -3 -6 -7 -36 -7 -66 l0 -55 -63 -8 c-34
-5 -69 -7 -76 -4 -7 3 -16 29 -19 58 -4 29 -11 57 -17 63 -5 5 -34 10 -63 11
l-52 0 -6 75 c-4 44 -2 80 4 88 5 6 27 12 49 12 22 0 48 5 60 11 18 10 19 17
13 69 -4 33 -4 64 0 69 9 15 138 14 153 -1z m-188 -53 c3 -47 1 -55 -15 -55
-11 0 -15 11 -15 43 0 66 26 76 30 12z m-1365 -5 c24 -27 33 -131 13 -147 -7
-6 -62 -28 -121 -48 -206 -68 -317 -132 -317 -180 0 -54 122 -100 335 -125
142 -17 245 -38 272 -55 27 -18 42 -68 50 -165 6 -85 -7 -133 -35 -128 -13 2
-18 15 -20 56 -2 40 -7 52 -19 52 -14 0 -15 -10 -10 -69 4 -54 3 -71 -8 -75
-17 -6 -44 19 -47 42 -1 9 -2 33 -2 52 -1 24 -6 35 -16 35 -12 0 -14 -11 -12
-46 2 -30 -2 -50 -11 -57 -24 -20 -46 8 -57 71 -5 31 -12 61 -15 67 -3 5 -27
12 -53 15 -418 55 -542 105 -603 240 -36 78 -23 132 54 233 67 88 241 177 442
228 117 29 157 30 180 4z m1236 -162 c1 -13 3 -40 5 -60 2 -21 -1 -38 -6 -38
-6 0 -10 20 -10 44 0 24 -3 51 -6 60 -3 9 -1 16 5 16 6 0 12 -10 12 -22z m139
-188 c0 -22 -4 -40 -10 -40 -5 0 -10 18 -10 40 0 22 5 40 10 40 6 0 10 -18 10
-40z m1221 -112 c64 -32 126 -70 139 -83 l22 -23 -30 -16 c-38 -20 -121 -21
-165 -2 -67 27 -154 151 -132 186 9 15 33 6 166 -62z m-3167 -523 c84 -59 121
-97 142 -143 50 -112 68 -144 95 -164 77 -59 87 -73 118 -165 32 -94 39 -170
21 -218 -8 -21 -16 -26 -38 -23 -16 2 -27 9 -27 18 -1 8 -8 26 -17 40 -10 14
-30 57 -46 96 -38 92 -62 128 -204 312 -128 167 -155 211 -163 268 -4 35 -4
36 24 31 16 -3 58 -27 95 -52z m3711 -280 c48 -97 116 -247 130 -286 7 -20 18
-45 24 -55 13 -23 145 -390 166 -461 15 -49 18 -53 48 -54 115 -2 177 -18 206
-53 18 -22 1 -24 -232 -30 -197 -5 -198 -5 -207 17 -5 12 -23 63 -40 112 -32
92 -115 314 -130 350 -5 11 -26 63 -46 115 -21 52 -68 157 -106 233 -37 76
-68 142 -68 147 0 14 107 28 190 26 33 -1 37 -5 65 -61z m-233 -90 c71 -138
218 -497 293 -716 25 -73 44 -133 42 -135 -1 -2 -99 -5 -217 -9 -225 -6 -415
-16 -660 -36 -169 -14 -1201 -16 -1385 -3 l-120 9 -18 55 c-50 145 -143 345
-228 485 l-48 81 64 129 c35 70 71 135 79 143 12 12 61 16 278 19 145 2 353 8
463 14 110 5 288 14 395 19 272 13 919 64 945 75 36 14 51 -3 117 -130z
m-2252 -6 c0 -6 -31 -75 -69 -152 -112 -232 -151 -334 -202 -537 -44 -177 -33
-170 -261 -170 -146 0 -186 3 -215 16 -41 20 -66 54 -57 78 15 40 125 78 258
89 35 3 37 6 77 137 55 183 183 484 227 533 13 14 33 17 129 17 75 0 113 -4
113 -11z m-315 -19 c4 -6 -7 -33 -23 -61 -17 -30 -32 -47 -36 -40 -4 6 -5 15
-1 20 3 5 -1 16 -9 24 -8 8 -18 26 -22 41 -6 25 -5 26 39 26 25 0 49 -5 52
-10z m324 -485 c71 -132 151 -318 151 -350 0 -16 -10 -17 -104 -13 -63 3 -111
10 -120 17 -8 7 -20 29 -27 49 -6 20 -32 78 -57 127 l-45 90 16 60 c9 34 30
92 48 130 l31 69 19 -25 c10 -13 50 -82 88 -154z"></path>
<path d="M2525 5440 c-266 -12 -291 -26 -320 -175 -22 -116 -19 -250 15 -715
24 -334 86 -731 127 -819 27 -55 59 -62 318 -74 545 -23 1333 -10 1709 28 120
12 142 18 163 37 l25 23 -5 170 c-2 94 -9 226 -16 295 -33 370 -43 474 -57
565 -40 262 -78 447 -100 480 -25 38 -193 85 -381 105 -51 5 -135 14 -185 20
-51 5 -109 12 -128 15 -19 3 -141 14 -270 25 -276 22 -656 31 -895 20z m860
-43 c105 -9 204 -19 220 -22 17 -3 82 -9 145 -15 237 -20 454 -54 553 -86 70
-23 77 -42 127 -344 12 -69 26 -142 31 -163 6 -21 14 -89 19 -150 41 -512 59
-764 60 -810 0 -26 -7 -45 -23 -61 -20 -20 -39 -24 -167 -34 -489 -40 -1349
-50 -1795 -20 -125 8 -142 11 -163 32 -62 61 -132 531 -163 1096 -15 282 -9
439 19 503 24 54 39 62 152 82 105 19 730 13 985 -8z"></path>
<path d="M2686 4811 c-10 -15 62 -81 111 -102 28 -12 55 -17 71 -13 31 8 82
52 82 71 0 19 -9 16 -47 -17 -18 -16 -40 -30 -49 -30 -28 0 -82 28 -122 64
-22 20 -43 32 -46 27z"></path>
<path d="M3860 4761 c0 -15 71 -72 108 -88 20 -8 46 -11 63 -8 30 7 79 57 79
80 0 27 -20 25 -35 -4 -8 -17 -25 -36 -37 -42 -30 -16 -86 3 -123 41 -28 29
-55 39 -55 21z"></path>
<path d="M3670 4498 c-101 -24 -157 -24 -305 -2 -64 10 -126 14 -147 10 -45
-8 -78 -47 -78 -89 0 -50 65 -154 116 -187 111 -70 288 -80 419 -22 167 73
251 204 178 274 -39 36 -84 40 -183 16z m-247 -39 c79 -11 112 -11 180 0 160
24 205 26 227 6 64 -58 -33 -183 -190 -243 -19 -7 -80 -16 -135 -19 -79 -4
-111 -2 -150 11 -76 26 -122 61 -155 119 -36 63 -39 109 -7 132 24 18 60 17
230 -6z"></path>
<path d="M3350 4342 c0 -11 69 -27 78 -18 9 9 0 14 -40 21 -24 5 -38 3 -38 -3z"></path>
<path d="M3274 4326 c-10 -8 -16 -18 -11 -22 4 -4 13 -2 19 4 7 7 20 12 30 12
10 0 18 5 18 10 0 15 -33 12 -56 -4z"></path>
<path d="M3450 4330 c0 -5 8 -10 17 -10 9 0 45 -16 81 -35 35 -20 67 -33 71
-30 8 9 -24 33 -84 61 -53 25 -85 31 -85 14z"></path>
<path d="M4336 3499 c-56 -44 -21 -159 49 -159 69 0 103 103 50 155 -30 30
-64 32 -99 4z"></path>
<path d="M3850 3000 c-33 -66 -60 -126 -60 -134 0 -28 34 -34 171 -27 175 8
197 23 145 100 -13 20 -44 69 -70 109 -44 70 -47 72 -86 72 l-40 0 -60 -120z
m100 72 c0 -13 -70 -175 -82 -189 -14 -17 -38 -17 -38 0 0 28 90 197 105 197
8 0 15 -4 15 -8z m78 -59 c67 -108 69 -113 50 -127 -21 -16 -159 -29 -171 -17
-5 5 5 40 23 77 18 38 36 79 41 92 13 32 23 28 57 -25z"></path>
<path d="M4364 2965 c-45 -20 -80 -66 -88 -116 -9 -54 24 -124 74 -157 30 -20
44 -23 95 -19 80 6 120 28 146 79 25 49 21 127 -9 168 -41 55 -145 77 -218 45z
m176 -43 c34 -35 47 -90 31 -141 -14 -49 -40 -71 -89 -78 -33 -4 -44 -1 -72
24 -29 26 -34 37 -38 90 -4 56 -2 62 28 96 27 31 39 37 72 37 30 0 46 -7 68
-28z m-195 -34 c-10 -41 -11 -82 -3 -113 l7 -30 -20 25 c-16 19 -20 34 -16 67
4 37 21 73 33 73 3 0 2 -10 -1 -22z"></path>
<path d="M1287 4994 c-12 -12 -8 -41 7 -53 22 -18 58 4 54 32 -3 22 -45 36
-61 21z"></path>
<path d="M954 4905 c-8 -19 3 -35 26 -35 19 0 34 25 24 41 -8 14 -44 10 -50
-6z"></path>
<path d="M1477 4784 c-11 -11 -8 -52 4 -59 5 -4 21 -4 35 -1 20 5 25 12 22 34
-2 20 -9 28 -28 30 -14 2 -29 0 -33 -4z"></path>
<path d="M1134 4666 c-10 -26 1 -51 23 -54 25 -4 46 27 37 52 -8 20 -53 21
-60 2z"></path>
<path d="M855 4584 c-24 -24 -15 -58 16 -62 36 -4 55 21 41 53 -13 29 -34 32
-57 9z"></path>
<path d="M1365 4390 c-14 -43 44 -67 68 -28 8 12 7 21 -2 32 -19 23 -58 20
-66 -4z"></path>
<path d="M1010 4345 c-11 -13 -11 -20 0 -40 14 -27 39 -32 58 -13 16 16 15 33
-4 52 -20 20 -38 20 -54 1z"></path>
<path d="M3073 2158 c-27 -13 -31 -53 -7 -62 24 -9 184 -7 228 4 52 11 74 33
56 54 -10 13 -36 16 -134 15 -66 0 -131 -5 -143 -11z"></path>
<path d="M2813 2141 c-70 -5 -97 -10 -110 -24 -14 -14 -15 -21 -7 -35 10 -15
26 -17 130 -14 122 4 164 16 164 47 0 17 -41 36 -68 33 -9 -1 -58 -4 -109 -7z"></path>
<path d="M1998 7943 c7 -3 16 -2 19 1 4 3 -2 6 -13 5 -11 0 -14 -3 -6 -6z"></path>
</g>
</svg>