 <svg version="1.0" xmlns="http://www.w3.org/2000/svg" width="700.000000pt" height="1076.000000pt" viewBox="0 0 700.000000 1076.000000" preserveAspectRatio="xMidYMid meet">
<metadata>
Created by potrace 1.12, written by Peter Selinger 2001-2015
</metadata>
<g transform="translate(0.000000,1076.000000) scale(0.100000,-0.100000)" fill="#000000" stroke="none">
<path d="M0 5380 l0 -5380 3500 0 3500 0 0 5380 0 5380 -3500 0 -3500 0 0
-5380z m1882 4860 c113 -42 183 -133 199 -258 12 -95 11 -634 -2 -711 -14 -89
-41 -142 -95 -190 -114 -100 -318 -119 -471 -44 -94 46 -143 120 -162 246 -14
100 -14 549 0 675 17 147 73 231 185 278 93 39 248 41 346 4z m3458 7 c90 -33
155 -89 192 -166 23 -46 23 -50 23 -451 0 -401 0 -405 -23 -451 -32 -66 -106
-135 -172 -161 -46 -18 -75 -22 -170 -22 -102 0 -121 3 -172 26 -75 35 -140
97 -169 161 -24 52 -24 53 -24 447 l0 395 27 56 c45 93 141 163 248 180 61 10
197 2 240 -14z m-4285 -22 c83 -21 133 -53 163 -105 26 -44 27 -51 30 -231 4
-207 -3 -251 -49 -303 -38 -44 -97 -63 -221 -72 l-98 -7 -2 -241 -3 -241 -157
-3 -158 -3 0 604 c0 332 3 607 7 610 3 4 102 7 219 7 154 0 228 -4 269 -15z
m1461 -207 c0 -128 4 -218 10 -219 10 -1 17 16 69 186 20 66 46 149 58 185
l22 65 139 3 c77 1 143 -1 148 -6 4 -4 -3 -37 -15 -72 -13 -36 -54 -156 -92
-267 l-68 -203 58 -192 c31 -106 74 -249 96 -316 21 -68 39 -132 39 -143 0
-18 -9 -19 -159 -19 l-159 0 -11 43 c-6 23 -27 103 -47 177 -20 74 -38 146
-40 160 -13 66 -28 110 -38 110 -8 0 -10 -67 -8 -245 l4 -245 -155 0 c-132 0
-156 2 -161 16 -8 22 -8 1189 1 1198 4 3 75 5 157 4 l151 -3 1 -217z m1072
112 c1 -58 -2 -112 -8 -120 -7 -12 -31 -15 -107 -15 l-98 0 0 -115 0 -115 95
-5 95 -5 0 -110 0 -110 -95 -1 -95 -1 0 -134 0 -134 115 -5 115 -5 3 -95 c2
-52 0 -105 -3 -117 l-5 -23 -274 0 c-241 0 -275 2 -280 16 -8 22 -8 1189 1
1197 4 4 126 6 272 5 l266 -3 3 -105z m530 93 c11 -23 39 -203 63 -405 12 -99
22 -129 34 -95 2 6 11 77 20 157 29 270 34 307 45 334 l10 26 202 -2 203 -3 3
-608 2 -608 -137 3 -138 3 -3 383 c-1 238 -6 382 -12 382 -12 0 -16 -20 -30
-155 -15 -157 -51 -448 -69 -565 l-6 -45 -100 0 -99 0 -27 190 c-33 226 -45
318 -58 444 -10 95 -15 110 -28 97 -5 -4 -8 -170 -8 -369 l0 -362 -134 -3
c-101 -2 -136 1 -143 10 -9 15 -11 1192 -1 1201 3 4 95 7 204 7 179 0 199 -2
207 -17z m1847 -15 c24 -56 65 -173 65 -186 0 -7 4 -20 9 -30 10 -18 65 -196
77 -244 3 -16 11 -28 18 -28 8 0 11 71 11 257 l0 258 130 0 130 0 0 -605 0
-605 -139 0 -139 0 -13 40 c-7 22 -27 85 -44 140 -18 55 -36 114 -40 130 -18
65 -51 181 -56 194 -4 13 -7 13 -19 0 -11 -11 -12 -24 -4 -59 5 -25 8 -135 7
-245 l-3 -200 -132 -3 -133 -3 0 604 c0 332 3 607 7 610 3 4 62 7 130 7 l123
0 15 -32z m75 -1503 c84 -18 199 -68 246 -108 63 -53 98 -182 92 -332 l-3 -80
-195 0 -195 0 -5 107 c-5 114 -19 148 -59 148 -57 0 -81 -41 -81 -140 0 -115
23 -142 235 -270 122 -73 227 -157 266 -211 80 -113 101 -442 38 -590 -85
-197 -478 -272 -737 -141 -71 36 -134 104 -162 178 -21 52 -24 76 -24 214 l-1
155 192 3 193 2 4 -22 c3 -13 7 -82 8 -154 3 -145 14 -174 67 -174 37 1 59 21
76 70 18 52 19 98 1 172 -22 96 -11 85 -296 274 -135 89 -179 129 -214 194
-52 95 -70 264 -43 405 18 90 44 141 100 192 50 46 161 103 204 104 15 0 37 4
48 9 33 14 164 11 245 -5z m-4748 -65 c24 -107 73 -437 86 -573 9 -88 20 -116
42 -102 8 5 10 22 7 48 -3 23 8 147 25 277 16 129 33 266 38 303 4 38 12 73
17 78 5 5 124 8 279 7 l269 -3 0 -805 0 -805 -185 0 -185 0 0 509 c0 395 -3
510 -13 514 -6 2 -12 2 -12 0 -7 -93 -22 -253 -30 -313 -5 -44 -15 -116 -20
-160 -13 -106 -26 -202 -40 -300 -6 -44 -15 -115 -19 -158 -9 -86 -23 -110
-59 -100 -20 5 -23 11 -20 35 3 16 0 32 -5 35 -6 4 -40 6 -76 6 l-66 0 -3 -31
c-2 -17 -10 -36 -18 -42 -23 -20 -41 5 -48 68 -7 57 -39 288 -57 412 -20 131
-28 197 -38 285 -21 183 -31 249 -41 259 -6 6 -10 6 -10 0 -1 -5 -2 -236 -3
-514 l-2 -505 -185 0 -185 0 -3 795 c-1 437 0 801 3 808 3 10 64 12 277 10
l272 -3 8 -35z m1653 -125 l0 -160 -139 0 -139 0 2 -150 c1 -82 5 -153 7 -157
3 -4 61 -8 130 -8 l125 0 -3 -152 -3 -153 -122 0 c-67 0 -124 -3 -127 -6 -3
-2 -6 -79 -7 -169 l-1 -165 154 -5 153 -5 0 -160 0 -160 -364 -3 c-285 -2
-366 1 -373 10 -9 15 -11 1568 -2 1592 6 15 44 16 358 14 l351 -3 0 -160z
m720 143 c9 -36 73 -477 86 -593 16 -134 34 -142 44 -17 9 112 72 591 80 615
7 16 27 17 284 15 l276 -3 3 -571 c2 -621 4 -606 -51 -585 -23 9 -25 14 -20
46 l6 36 -79 -3 -79 -3 0 -32 c0 -18 -4 -36 -10 -41 -5 -4 -41 -6 -80 -3 l-70
6 3 283 c3 237 1 282 -11 282 -10 0 -16 -20 -21 -72 -21 -234 -56 -532 -66
-555 -9 -21 -14 -22 -70 -16 -50 5 -61 3 -66 -11 -11 -28 12 -64 43 -68 25 -3
28 -7 28 -43 0 -39 -1 -40 -35 -40 -32 0 -35 3 -38 33 -3 25 -10 35 -29 43
-42 16 -54 -4 -51 -80 l3 -66 32 0 c39 0 48 -9 48 -48 0 -30 2 -32 45 -37 33
-4 46 -10 48 -23 8 -40 -14 -47 -144 -47 -120 0 -125 1 -133 23 -10 24 -104
691 -124 876 -7 63 -17 116 -22 118 -8 2 -10 -148 -7 -481 3 -267 2 -496 -2
-511 l-6 -25 -188 2 -187 3 -3 795 c-1 437 0 801 3 808 3 9 69 12 279 12 l276
0 5 -22z m1655 -137 c0 -138 -2 -160 -16 -165 -9 -4 -69 -3 -134 0 -86 5 -119
4 -124 -5 -4 -7 -8 -78 -8 -159 l0 -147 128 -3 c87 -2 131 -7 136 -15 4 -7 8
-71 8 -143 0 -103 -3 -134 -14 -144 -10 -8 -52 -11 -130 -9 -64 1 -119 0 -122
-3 -3 -4 -6 -80 -6 -170 l0 -163 154 -5 153 -5 0 -160 0 -160 -215 0 -214 0
-1 70 0 70 -40 5 c-38 5 -40 7 -40 40 0 33 -2 35 -40 40 -38 5 -40 7 -40 39
l0 35 -75 0 -75 1 -3 635 c-1 349 0 645 3 658 l5 22 355 0 355 0 0 -159z
m-2345 -981 c0 -24 -3 -25 -74 -28 -86 -3 -111 2 -92 21 12 12 122 36 151 33
9 -1 15 -11 15 -26z m1380 -55 c0 -26 -4 -30 -31 -33 -24 -2 -32 -9 -40 -35
-12 -43 -40 -43 -36 -1 2 19 -3 36 -12 44 -18 14 -20 32 -6 46 5 5 35 9 67 9
58 0 58 0 58 -30z m-151 -38 c12 -9 17 -23 14 -47 -3 -33 -5 -35 -38 -35 -32
0 -35 -3 -40 -35 l-5 -35 -75 0 -75 0 0 75 0 75 95 6 c52 3 98 6 101 7 3 1 13
-4 23 -11z m248 -117 c-1 -19 -3 -53 -5 -75 l-2 -40 -100 -6 c-118 -7 -137 0
-133 44 3 29 6 32 41 35 36 3 37 4 37 43 l0 40 83 -3 82 -3 -3 -35z m58 -7 c0
-13 -3 -13 -15 -3 -8 7 -12 16 -9 21 8 13 24 1 24 -18z m-316 -14 c-3 -5 -10
-7 -15 -3 -5 3 -7 10 -3 15 3 5 10 7 15 3 5 -3 7 -10 3 -15z m491 -92 c1 -69
-11 -95 -38 -84 -7 3 -53 2 -101 -2 -48 -4 -92 -3 -98 0 -8 5 -9 17 -2 41 8
28 15 34 44 38 33 5 35 7 35 45 l0 40 80 -5 80 -5 0 -68z m-715 39 c0 -29 -30
-42 -60 -26 -11 6 -30 8 -40 5 -11 -4 -20 -2 -20 4 0 14 58 39 93 40 22 1 27
-3 27 -23z m778 -9 c2 -10 -3 -17 -12 -17 -9 0 -16 2 -16 4 0 2 -3 12 -6 21
-5 13 -2 16 12 13 10 -2 20 -11 22 -21z m-626 -57 c5 0 8 -10 6 -22 -4 -28
-45 -38 -54 -14 -9 24 4 49 22 42 9 -3 20 -6 26 -6z m706 -57 l3 -61 -56 -54
-55 -55 0 -106 c0 -94 2 -109 20 -127 11 -11 32 -20 46 -20 15 0 42 -9 61 -21
18 -12 40 -18 48 -15 19 7 19 45 0 52 -27 11 -16 41 25 69 l40 28 23 -21 c13
-12 29 -22 35 -22 7 0 16 -8 19 -17 4 -10 33 -44 66 -75 62 -60 83 -67 174
-59 13 1 26 -6 32 -18 6 -10 25 -24 42 -30 32 -11 32 -11 25 -63 -3 -29 -6
-74 -6 -100 0 -43 -3 -49 -30 -63 -17 -9 -35 -26 -40 -39 -8 -22 -16 -24 -119
-31 l-111 -7 -8 -32 c-7 -27 -13 -31 -48 -34 -80 -5 -104 -12 -104 -32 0 -43
-10 -50 -74 -50 -71 0 -84 -6 -95 -46 -5 -22 -15 -30 -36 -34 -24 -4 -31 -12
-38 -43 -7 -29 -14 -37 -32 -37 -27 0 -42 -16 -47 -50 -2 -18 -10 -26 -29 -28
-22 -3 -28 -10 -32 -35 -6 -38 4 -51 41 -52 24 0 27 -4 27 -35 0 -32 -3 -35
-35 -40 l-35 -5 0 -75 0 -75 35 -5 c31 -4 36 -9 40 -40 5 -32 8 -35 42 -38 35
-3 37 -5 40 -40 l3 -37 115 0 115 0 -2 -38 c-2 -36 -2 -37 33 -37 41 0 46 -9
48 -93 l1 -62 35 -5 c31 -4 36 -9 40 -40 4 -25 11 -36 25 -38 65 -10 61 -2 57
-114 -4 -117 -15 -139 -56 -120 -18 8 -26 20 -28 44 -3 30 -6 33 -38 33 -33 0
-35 2 -35 32 0 39 -11 50 -50 55 -26 3 -29 7 -30 38 0 31 -3 35 -25 32 -48 -5
-49 -6 -49 -118 0 -59 -4 -110 -8 -114 -4 -4 -39 -5 -78 -1 l-70 6 -5 35 c-4
29 -9 35 -30 35 -46 0 -50 10 -50 119 0 109 -9 132 -47 124 -12 -2 -18 -13
-18 -33 0 -49 -10 -55 -91 -55 l-74 0 0 -34 c0 -33 -2 -35 -37 -38 l-38 -3 0
-155 0 -155 -40 -5 -40 -5 0 -70 c0 -69 0 -70 -30 -75 l-30 -5 -6 -90 c-3 -50
-2 -95 3 -102 5 -6 22 -13 36 -15 26 -3 27 -6 30 -65 3 -55 6 -63 22 -63 11 0
29 -9 40 -20 17 -17 18 -24 9 -41 -13 -24 -4 -36 30 -41 52 -7 54 -68 2 -68
-16 0 -31 -6 -35 -15 -3 -9 -19 -15 -41 -15 -32 0 -36 3 -33 23 2 17 10 22 32
22 52 0 40 39 -14 47 -22 3 -25 8 -25 43 l0 40 -38 -3 -39 -3 2 53 c4 86 3 88
-29 88 -43 0 -48 15 -41 115 8 97 1 118 -34 113 -16 -2 -21 -9 -19 -32 1 -16
-4 -38 -12 -50 -8 -11 -15 -33 -15 -48 l0 -28 -197 2 -198 3 0 35 0 35 -70 3
c-38 2 -75 7 -81 13 -7 6 -11 34 -11 72 l2 62 37 3 c20 2 42 10 48 18 8 9 32
14 66 14 46 0 56 3 70 25 9 14 24 25 34 25 9 0 25 9 35 20 14 16 31 20 77 20
53 0 59 2 68 25 10 27 52 35 66 13 4 -6 8 -56 8 -112 1 -90 3 -101 20 -104 10
-2 22 0 26 5 5 4 10 62 11 128 l3 120 -35 5 c-31 5 -34 8 -39 45 -4 35 -9 41
-35 45 -26 4 -31 10 -35 45 -4 35 -9 40 -33 43 -19 2 -31 11 -38 29 -9 24 -12
25 -63 19 -52 -7 -55 -6 -76 24 -20 29 -26 31 -74 28 -62 -4 -72 -29 -15 -39
20 -3 53 -15 73 -27 21 -12 54 -22 75 -22 30 0 45 -8 77 -39 85 -83 114 -149
76 -170 -11 -6 -71 -11 -133 -12 -109 -2 -145 -11 -133 -30 3 -5 14 -9 24 -9
25 0 35 -19 19 -35 -9 -9 -42 -15 -94 -16 -83 -2 -115 -16 -115 -48 0 -9 -7
-25 -15 -35 -9 -12 -15 -42 -15 -78 0 -76 27 -108 92 -108 37 0 47 -5 80 -41
l37 -40 185 3 c146 2 187 0 191 -10 3 -8 -9 -19 -29 -27 -34 -14 -53 -45 -41
-64 3 -6 27 -13 53 -17 45 -7 101 -38 85 -47 -4 -2 -21 -7 -36 -11 -20 -5 -33
-17 -43 -41 l-14 -35 -139 0 c-125 0 -140 2 -156 20 -10 11 -16 22 -14 25 3 2
61 5 129 7 l125 3 0 35 0 35 -145 6 c-80 4 -146 7 -148 8 -2 0 -10 17 -18 36
l-15 36 -67 -3 c-60 -3 -67 -5 -70 -24 -2 -14 8 -30 27 -47 l30 -25 -47 -11
c-26 -5 -72 -15 -102 -21 -37 -7 -70 -22 -99 -45 -42 -34 -47 -35 -130 -35
-121 0 -149 25 -58 51 54 16 69 28 62 50 -8 25 11 33 85 39 62 5 65 6 68 32 4
36 -24 47 -96 40 -42 -4 -52 -8 -47 -20 3 -8 -2 -26 -10 -39 -14 -21 -22 -24
-58 -19 -114 14 -144 37 -60 46 54 6 73 15 73 35 0 20 32 35 74 35 22 0 45 9
63 24 26 22 27 29 31 127 4 89 2 104 -13 115 -28 21 -12 62 31 80 45 19 40 33
-18 52 l-46 14 34 34 c18 19 40 34 48 34 7 0 21 11 30 25 9 14 25 25 36 25 14
0 20 7 20 23 0 31 26 65 52 69 20 3 23 10 25 55 1 55 -12 77 -44 71 -14 -2
-19 -16 -23 -63 -5 -55 -7 -60 -30 -63 -35 -5 -52 -22 -46 -46 6 -24 -10 -46
-34 -46 -10 0 -27 -11 -37 -25 -17 -24 -24 -26 -128 -30 -127 -5 -143 -2 -155
31 -6 14 -18 24 -29 24 -10 0 -26 11 -35 25 -9 14 -25 25 -35 25 -10 0 -26 9
-37 21 -10 11 -26 18 -36 16 -24 -7 -36 11 -40 58 -3 37 -5 40 -33 40 -28 0
-30 3 -33 40 -4 46 -17 65 -43 65 -28 0 -37 28 -31 98 4 56 7 62 27 62 31 0
86 20 108 39 15 12 41 15 145 12 121 -2 128 -3 145 -27 16 -20 27 -24 72 -24
45 0 55 -4 69 -25 10 -15 26 -25 41 -25 20 0 24 -5 27 -37 3 -36 5 -38 38 -38
31 0 35 3 38 28 4 34 -13 57 -42 57 -12 0 -25 9 -31 23 -6 12 -20 23 -31 25
-12 2 -30 12 -40 23 -13 14 -30 19 -71 19 -48 0 -55 3 -63 25 -9 23 -13 24
-112 27 l-103 3 0 37 c-1 21 -6 43 -12 49 -20 20 -34 -1 -31 -44 3 -42 3 -42
-32 -42 l-35 0 0 54 c0 45 -5 59 -28 84 -20 22 -33 28 -52 24 -17 -3 -30 1
-38 12 -18 24 -63 41 -110 41 -48 0 -67 -13 -67 -47 0 -17 -7 -23 -35 -29 -29
-5 -35 -11 -41 -40 -3 -19 -7 -34 -8 -34 0 -1 -19 -3 -41 -7 -60 -8 -84 -20
-95 -47 -12 -33 -19 -36 -87 -37 -112 -1 -136 -7 -153 -42 -15 -32 -15 -32
-104 -35 -80 -3 -90 -1 -112 19 -13 12 -21 25 -19 29 7 11 -17 28 -45 32 -18
2 -26 10 -28 28 -5 36 -14 42 -79 55 l-58 12 -10 59 c-8 49 -14 61 -37 72 -31
15 -35 29 -44 177 -7 113 -14 135 -44 135 -21 0 -34 38 -19 56 5 6 30 15 56
19 67 10 73 14 73 49 0 31 -1 32 -65 44 -35 6 -83 12 -105 12 -33 0 -40 3 -40
19 0 14 8 21 27 23 22 2 30 11 39 37 8 26 19 37 45 45 26 9 35 18 39 41 4 24
11 31 35 35 24 4 32 13 41 40 9 26 19 37 43 44 22 6 31 15 31 30 0 28 18 46
46 46 26 0 36 13 38 44 1 15 8 21 26 21 20 0 26 -6 30 -30 4 -24 11 -31 35
-35 29 -5 30 -7 33 -68 3 -60 2 -62 -21 -62 -28 0 -42 -14 -51 -52 -4 -19 -14
-28 -37 -33 -39 -9 -44 -22 -33 -98 l9 -62 37 -3 c33 -3 37 -6 40 -35 3 -28 7
-32 36 -35 31 -3 33 -2 30 24 -2 22 -10 30 -36 38 l-34 9 7 61 c9 72 10 76 35
76 11 0 22 -10 27 -26 6 -18 20 -30 43 -38 39 -12 52 -46 27 -74 -16 -19 -32
-174 -21 -216 3 -14 21 -35 40 -47 19 -11 41 -34 49 -49 8 -16 25 -32 37 -36
37 -13 131 -4 150 13 10 9 31 16 48 15 27 -1 30 3 30 29 0 30 3 33 53 43 24 6
27 11 27 46 0 40 0 40 -39 40 -43 0 -52 11 -44 53 6 32 -12 42 -49 28 -26 -10
-26 -11 -27 -117 -1 -60 -5 -112 -10 -117 -4 -4 -39 -7 -77 -5 l-69 3 0 40 0
40 -40 0 -40 0 0 115 0 115 75 5 75 5 0 35 0 35 -65 0 c-79 0 -91 7 -87 48 2
30 0 32 -33 32 -33 0 -35 2 -38 37 -3 36 -2 37 35 40 l38 3 0 115 0 115 39 5
39 5 0 110 0 110 -28 3 c-39 5 -46 -6 -47 -82 0 -37 -5 -69 -11 -73 -5 -3 -31
-6 -56 -7 -54 -1 -66 -18 -19 -27 34 -6 28 -12 -22 -23 -24 -5 -27 -1 -42 50
-9 30 -15 61 -12 69 3 8 22 15 42 17 34 3 37 6 42 38 4 29 9 36 33 38 18 2 32
12 39 28 18 39 -1 49 -82 45 -58 -2 -71 0 -76 14 -4 10 -1 21 6 25 8 5 91 6
185 3 158 -5 174 -4 210 15 39 20 40 20 77 1 36 -18 59 -19 436 -15 218 2 408
4 422 5 14 0 119 -2 234 -5 174 -4 215 -3 247 10 35 14 43 14 80 0 31 -13 60
-15 125 -11 72 4 87 2 108 -14 18 -14 41 -19 89 -19 l64 0 -1 -59 c-1 -62 5
-78 25 -66 8 5 10 26 5 66 -5 49 -3 59 10 59 8 0 20 14 26 30 8 25 17 31 49
36 45 8 55 28 45 97 -7 48 3 71 30 65 13 -2 19 -12 20 -32 2 -47 27 -58 119
-53 44 2 87 7 96 11 13 6 18 -2 25 -36 l9 -43 79 -3 c84 -3 96 2 96 46 0 20 5
22 58 22 36 0 66 6 80 16 21 14 22 21 16 81 l-7 65 29 -4 c28 -3 29 -5 32 -65z
m-470 30 c3 -10 -14 -13 -62 -13 -53 0 -66 3 -66 15 0 13 11 15 62 13 38 -2
63 -8 66 -15z m220 -70 c-3 -15 -14 -18 -61 -18 -42 0 -57 4 -57 14 0 10 11
12 45 9 25 -3 48 -2 51 3 9 16 26 10 22 -8z m-3108 -73 l5 -35 70 -3 c39 -2
75 -8 80 -13 6 -6 10 -49 10 -96 0 -57 4 -88 12 -90 14 -5 27 49 18 77 -5 14
-2 20 9 20 13 0 16 -12 16 -55 0 -33 -4 -55 -11 -55 -22 0 -68 -41 -71 -63 -5
-34 -34 -28 -30 6 3 28 3 28 -50 25 l-53 -3 0 -67 c0 -36 -4 -70 -8 -75 -5 -4
-39 -8 -75 -8 l-67 0 -3 -77 -3 -77 -77 -3 -77 -3 0 -65 c0 -36 -3 -70 -7 -76
-7 -11 -212 -14 -222 -3 -3 3 -7 37 -9 75 l-3 69 -34 0 -35 0 -6 70 c-7 79 -1
93 44 97 28 3 33 7 37 38 4 30 9 35 32 35 38 0 43 9 43 83 l0 67 40 5 c38 5
40 7 37 37 -4 41 9 48 88 48 l65 0 5 35 c4 31 9 36 40 40 28 4 36 10 38 30 5
38 30 51 92 48 55 -3 55 -3 60 -38z m3445 18 c3 -13 5 -66 3 -118 l-3 -95 -35
-5 c-30 -4 -35 -9 -35 -32 0 -41 -26 -63 -62 -51 l-28 10 2 114 1 114 39 5
c33 4 38 8 35 28 -5 32 15 52 49 52 21 0 30 -6 34 -22z m756 -117 c44 -17 59
-28 72 -56 9 -19 58 -81 109 -136 51 -56 109 -125 128 -154 19 -29 52 -72 73
-96 40 -45 164 -229 175 -258 3 -9 24 -50 47 -91 91 -161 150 -289 211 -459
73 -198 101 -303 138 -508 41 -224 48 -332 44 -648 -4 -258 -8 -307 -32 -445
-35 -202 -64 -318 -133 -525 -62 -185 -189 -453 -307 -648 -36 -59 -66 -112
-66 -117 0 -18 -19 -20 -72 -6 -35 9 -54 19 -56 30 -2 9 31 70 73 134 85 129
222 399 285 562 69 177 141 464 174 690 23 153 24 648 2 790 -52 340 -125 596
-247 863 -82 181 -125 259 -236 425 -133 201 -234 324 -405 494 -136 134 -148
149 -148 182 0 20 -4 36 -10 36 -5 0 -7 6 -4 14 4 11 19 7 67 -19 34 -18 87
-43 118 -54z m-621 19 c0 -5 -7 -10 -15 -10 -8 0 -15 5 -15 10 0 6 7 10 15 10
8 0 15 -4 15 -10z m455 -103 c286 -253 532 -579 703 -928 40 -81 72 -150 72
-153 0 -3 9 -25 19 -49 37 -80 123 -367 149 -497 51 -251 57 -320 57 -630 -1
-222 -5 -309 -18 -395 -44 -277 -88 -447 -179 -690 -28 -76 -64 -159 -93 -215
-118 -231 -287 -500 -326 -521 -12 -6 -47 -11 -78 -10 -31 0 -155 1 -276 3
l-220 3 -5 40 c-5 38 -7 40 -42 43 -35 3 -37 5 -40 40 -3 35 -5 37 -42 40 -36
3 -38 5 -34 33 5 34 -5 44 -47 44 l-30 0 -1 155 c-2 167 -3 170 -57 156 -22
-5 -22 -8 -19 -168 2 -89 1 -177 -3 -196 -6 -30 -9 -33 -38 -30 -29 3 -32 0
-35 -27 -6 -51 -14 -54 -130 -49 -58 3 -109 7 -114 10 -4 3 -7 19 -5 37 2 29
-1 32 -33 37 l-35 5 -5 75 -5 75 -35 0 c-33 0 -35 2 -32 33 2 27 -2 34 -24 42
-34 13 -52 -1 -56 -43 l-3 -32 -65 0 c-79 0 -91 -7 -87 -48 2 -31 1 -32 -38
-32 -38 0 -40 2 -45 35 -4 31 -9 36 -40 40 l-35 5 -1 85 c-1 47 -4 93 -9 103
-10 24 12 47 46 47 23 0 32 6 40 27 15 39 4 57 -30 50 -43 -9 -66 12 -54 49 8
23 17 30 44 34 30 4 35 9 39 40 l5 35 75 0 75 0 1 30 c0 17 3 35 6 40 4 6 73
10 160 10 l153 0 0 -35 c0 -33 2 -35 40 -40 38 -5 40 -7 40 -40 0 -32 3 -35
35 -40 32 -5 35 -8 40 -45 5 -44 23 -54 54 -32 15 11 19 28 20 78 l1 64 -40 5
c-39 5 -40 6 -37 43 l4 37 -41 0 -41 0 0 41 0 41 -37 -4 c-37 -3 -38 -2 -43
37 l-5 40 -65 1 c-77 0 -92 7 -84 39 7 27 -9 40 -51 40 l-30 0 3 76 4 76 -36
7 c-39 7 -48 30 -16 39 29 8 27 55 -2 59 -21 3 -23 8 -23 63 l0 60 35 5 c32 5
35 8 38 42 3 35 5 37 40 40 l37 3 0 75 0 75 38 3 37 3 0 68 c0 75 11 93 51 89
20 -3 25 2 29 32 5 32 8 35 40 35 32 0 35 -3 40 -35 l5 -35 106 4 c117 4 124
0 124 -54 0 -28 3 -30 35 -30 32 0 35 -3 40 -35 4 -31 9 -36 40 -40 32 -5 35
-8 38 -42 l3 -37 77 -3 77 -3 0 -35 0 -35 235 0 235 0 0 32 c0 17 4 35 8 39 5
5 57 7 117 5 l109 -3 3 39 c3 35 6 38 36 41 18 2 35 9 37 15 2 7 5 58 7 115
l3 102 -42 0 -42 0 -3 -77 -3 -78 -35 0 -35 0 -3 78 -3 77 40 0 40 0 3 78 3
77 38 3 38 3 -3 117 -3 116 -35 1 -35 0 -5 75 -5 75 -38 3 c-37 3 -38 4 -35
40 3 35 1 37 -30 40 -27 3 -34 -1 -42 -24 -15 -39 -6 -54 34 -54 30 0 35 -4
40 -27 3 -16 2 -50 -2 -78 l-7 -50 -75 0 -75 0 0 35 c0 33 -2 35 -40 40 l-40
5 0 105 c0 58 3 111 8 118 5 6 20 12 32 12 29 0 47 22 43 52 -2 19 -9 23 -38
23 l-35 0 -1 115 -1 115 -41 3 -42 3 0 -79 c0 -56 -4 -83 -14 -91 -10 -9 -16
-9 -21 -1 -15 24 -40 5 -40 -30 l0 -35 -80 -5 -80 -5 0 -35 c0 -32 -3 -35 -35
-40 -30 -4 -35 -9 -35 -32 0 -37 -7 -41 -80 -44 -72 -2 -88 8 -83 53 3 24 7
28 38 29 19 1 50 2 68 3 24 1 35 7 44 26 21 46 4 51 -157 48 l-145 -4 -11 25
c-18 38 -6 54 43 58 39 3 43 5 40 28 -5 53 -5 53 -117 48 -78 -4 -108 -1 -116
8 -7 8 -8 36 -2 81 l8 68 35 0 c34 0 35 1 38 44 l3 43 -74 -6 c-93 -9 -99 -4
-90 87 l6 66 76 3 76 3 3 38 3 39 77 -3 77 -4 1 30 c0 17 1 35 2 40 2 12 201
14 219 2 7 -5 12 -22 10 -40 l-2 -31 75 3 c41 1 76 4 77 5 1 1 4 18 5 37 3 33
2 34 -37 39 l-40 5 0 70 0 70 39 5 38 5 1 115 0 115 -39 5 -39 5 0 110 0 110
-35 0 -35 0 -5 -75 -5 -75 -75 0 -75 0 -5 40 c-5 38 -7 40 -40 40 -32 0 -35 3
-40 35 -4 31 -9 36 -40 40 -29 4 -36 9 -38 33 -6 49 9 56 116 51 83 -3 98 -1
113 15 14 14 32 18 96 17 l79 -1 109 -98z m-3970 -252 l0 -57 -54 -2 c-35 -1
-56 3 -58 12 -3 7 4 12 18 12 33 0 69 38 69 73 0 18 4 27 13 25 8 -3 12 -25
12 -63z m-155 -156 l0 -59 -61 0 c-44 0 -59 3 -56 13 2 6 12 11 21 9 32 -6 66
26 66 62 0 18 3 36 6 39 15 15 24 -8 24 -64z m-505 -85 c-5 -36 -2 -49 16 -74
l23 -30 -31 -33 c-89 -95 -267 -486 -351 -772 -93 -316 -147 -759 -100 -812
25 -27 26 -172 2 -209 -14 -20 -15 -39 -10 -107 4 -45 10 -92 12 -103 13 -53
-94 -31 -119 24 -9 19 -12 122 -12 367 1 326 2 346 29 500 39 223 76 368 145
557 106 292 233 543 327 647 29 32 51 61 47 64 -10 10 6 39 18 31 7 -4 9 -22
4 -50z m345 -74 l0 -60 -60 0 c-44 0 -60 4 -60 14 0 8 16 16 40 20 41 6 60 27
60 65 0 12 5 21 10 21 6 0 10 -27 10 -60z m-138 -112 c-3 -36 -3 -37 35 -40
35 -3 38 -6 43 -38 4 -31 9 -36 40 -40 l35 -5 1 -66 c2 -74 9 -93 31 -84 9 3
25 3 35 -1 19 -6 20 -14 17 -123 l-4 -116 40 0 40 0 0 -75 0 -75 32 -1 c41 0
48 -8 48 -47 l0 -32 75 0 75 0 5 -35 c4 -31 9 -36 40 -40 32 -5 35 -8 38 -42
l3 -38 114 0 c121 0 125 -2 125 -56 0 -21 5 -24 34 -24 41 0 45 5 39 48 -5 30
-8 32 -45 32 -39 0 -39 0 -36 37 2 30 8 38 31 46 37 12 52 -2 49 -48 l-3 -36
78 3 78 3 5 35 5 35 115 5 115 5 0 35 c0 33 -2 35 -33 35 -35 0 -52 17 -52 52
0 19 6 22 43 25 41 3 42 4 42 38 l1 35 109 7 c60 4 113 4 117 2 4 -3 8 -45 8
-94 0 -84 -1 -89 -22 -92 -13 -2 -27 -13 -33 -26 -8 -17 -17 -22 -40 -20 l-30
3 -3 -78 c-3 -85 6 -107 43 -107 22 0 40 -22 28 -34 -4 -3 -21 -6 -40 -6 -23
0 -33 5 -33 16 0 23 -58 42 -122 40 -61 -3 -88 -17 -88 -47 0 -11 -10 -23 -24
-29 -33 -12 -38 -23 -20 -49 13 -17 22 -20 48 -15 20 3 47 0 69 -10 l36 -15
-2 -68 -2 -68 -40 -5 c-38 -5 -40 -7 -38 -37 4 -43 -18 -55 -80 -41 -57 12
-74 2 -79 -45 l-3 -32 -67 0 c-75 -1 -85 -6 -90 -50 -3 -27 -7 -30 -38 -30
-32 0 -35 -2 -38 -34 -2 -18 0 -37 5 -42 5 -5 35 -4 67 1 68 11 96 1 96 -34 0
-29 -16 -43 -55 -48 -26 -3 -30 -7 -30 -35 -1 -18 -4 -35 -8 -40 -4 -4 -38 -7
-75 -8 l-67 0 0 -35 0 -35 -85 0 -85 0 0 75 0 75 -35 0 c-33 0 -35 -2 -35 -32
-1 -18 -3 -35 -7 -38 -3 -3 -39 -7 -79 -8 l-74 -2 0 -35 0 -35 -74 2 c-40 1
-75 4 -77 5 -2 2 -4 66 -5 142 -1 149 3 161 49 161 24 0 27 4 30 38 l3 38 -42
-3 c-42 -3 -43 -4 -44 -38 0 -33 -2 -35 -35 -35 l-35 0 -1 70 c0 39 -3 76 -7
82 -5 7 -21 9 -42 6 l-35 -6 0 42 0 41 -74 0 c-41 0 -77 -4 -80 -8 -3 -5 -2
-22 3 -38 7 -26 11 -29 45 -26 21 2 54 1 73 -3 l35 -6 -3 -117 -4 -117 25 -3
c37 -5 50 -29 51 -96 2 -88 11 -120 34 -124 27 -5 55 -32 55 -52 0 -31 27 -45
55 -30 14 7 25 20 25 27 0 11 8 13 29 8 26 -5 35 -1 69 34 33 34 46 41 79 41
21 0 49 7 61 16 24 17 24 16 37 -39 8 -40 62 -61 135 -53 47 5 59 11 85 41 26
30 36 35 73 35 34 0 48 6 66 26 40 45 50 54 74 72 15 11 25 31 29 57 6 49 -18
76 -69 79 -22 1 -33 7 -33 16 0 11 20 18 70 25 64 9 70 12 73 35 2 14 15 37
30 53 21 22 35 27 71 27 45 0 91 28 91 56 0 7 16 22 36 33 l36 22 -6 -28 c-24
-100 -27 -104 -62 -119 -27 -11 -34 -20 -34 -43 0 -20 7 -31 25 -39 35 -16 32
-45 -7 -63 -20 -9 -35 -23 -38 -39 -8 -35 -47 -40 -59 -7 -11 29 -46 44 -65
28 -8 -7 -16 -37 -19 -69 -14 -140 -17 -150 -48 -156 -19 -3 -29 -12 -29 -23
0 -10 -5 -41 -12 -69 -11 -45 -16 -53 -40 -58 -20 -4 -33 -15 -42 -38 -13 -29
-18 -32 -67 -35 -71 -4 -76 -6 -84 -42 -7 -31 -7 -31 -71 -31 -60 0 -64 1 -64
23 0 37 -19 47 -90 47 -65 0 -67 1 -81 33 -25 57 -92 41 -69 -17 6 -18 17 -26
34 -26 34 0 43 -55 14 -87 -16 -17 -19 -32 -16 -73 l3 -52 -53 -17 c-49 -14
-55 -20 -68 -56 -7 -22 -14 -50 -14 -62 0 -19 -6 -23 -32 -23 -36 0 -106 -15
-115 -24 -3 -3 -6 -15 -7 -28 -1 -16 -10 -24 -33 -30 -25 -7 -34 -16 -41 -41
l-8 -32 -135 -3 -135 -3 -9 33 -10 33 -78 3 c-83 3 -107 -6 -107 -39 0 -11 -7
-19 -15 -19 -12 0 -13 5 -7 18 13 25 7 93 -9 106 -10 8 -14 34 -15 84 -1 40
-4 76 -8 80 -4 4 -40 9 -79 12 -65 5 -72 7 -77 29 -4 19 -30 44 -47 46 -1 0 2
18 7 40 6 24 5 46 -2 58 -7 13 -7 22 1 30 14 14 52 -20 49 -42 -2 -11 5 -16
22 -17 14 -1 38 -6 54 -13 22 -9 37 -9 57 -1 14 6 42 10 60 8 32 -3 34 -6 34
-38 0 -34 -1 -35 -40 -35 -33 0 -40 4 -45 23 -6 29 -20 32 -34 9 -9 -15 -5
-23 22 -48 18 -16 41 -29 53 -29 31 0 66 28 78 62 10 28 8 35 -13 57 -20 22
-22 31 -14 54 6 16 17 27 28 27 24 0 42 24 38 52 -2 15 -10 23 -22 23 -20 0
-28 12 -43 60 -6 22 -16 31 -38 35 -29 5 -30 8 -32 61 l-3 56 30 -5 c40 -6 60
13 60 54 0 22 5 34 14 34 17 0 22 -13 31 -74 6 -41 12 -49 41 -61 21 -9 36
-23 40 -40 3 -14 15 -32 26 -39 13 -10 18 -21 14 -34 -11 -32 38 -82 80 -82
45 0 89 40 80 73 -4 16 1 27 17 39 20 15 22 27 25 131 l4 115 -31 7 c-28 6
-31 10 -32 48 -1 23 -1 46 0 50 1 4 -4 18 -11 30 -7 12 -13 53 -13 91 0 67 -1
69 -28 79 -48 16 -52 0 -49 -165 l3 -148 34 0 c29 0 36 -4 41 -25 10 -40 -11
-55 -76 -55 -63 0 -86 15 -75 49 7 24 -10 36 -50 36 l-30 0 -5 75 -5 75 -35 5
c-31 4 -35 8 -35 35 l-1 30 -68 3 c-88 4 -97 1 -87 -35 7 -27 11 -28 77 -33
l69 -5 7 -110 c4 -60 3 -114 -2 -118 -4 -5 -19 -9 -31 -8 -13 0 -41 1 -61 2
-21 0 -42 6 -47 13 -6 7 -12 57 -13 112 l-3 99 -35 5 -35 5 2 125 c5 341 116
779 289 1135 47 96 112 219 146 273 l20 33 82 -3 81 -3 -3 -37z m3648 -251 c0
-42 15 -57 57 -57 21 0 33 -5 33 -14 0 -15 -99 -31 -112 -18 -9 9 -12 34 -10
85 3 49 32 53 32 4z m-55 -257 c0 -52 -1 -55 -25 -55 -23 0 -25 4 -28 58 l-3
58 28 -3 c26 -3 27 -6 28 -58z m130 22 c4 -43 11 -50 60 -55 26 -3 41 -10 43
-20 4 -20 -38 -28 -98 -19 l-45 7 -1 63 c-1 58 0 63 19 60 14 -2 20 -12 22
-36z m-47 -129 c-2 -22 -9 -29 -30 -31 -24 -3 -28 0 -28 21 0 30 7 37 37 37
21 0 24 -4 21 -27z m198 -6 c-3 -15 2 -32 18 -51 21 -27 28 -29 92 -30 54 -1
69 -4 69 -16 0 -19 -31 -22 -125 -13 -75 8 -75 8 -76 38 0 17 -4 40 -8 52 -9
27 -1 43 21 43 11 0 14 -6 9 -23z m654 -103 c11 -70 17 -88 35 -96 19 -8 20
-16 17 -78 -4 -64 -2 -70 22 -92 33 -30 54 -51 77 -77 16 -18 30 -21 91 -21
53 0 76 4 90 17 15 13 23 15 36 7 13 -9 17 -31 20 -112 l4 -101 -34 -9 c-32
-8 -33 -9 -38 -74 -3 -43 -11 -73 -22 -85 -13 -14 -18 -36 -18 -80 0 -77 21
-107 74 -107 71 0 28 -21 -70 -34 -104 -14 -124 -23 -124 -53 0 -18 -11 -19
-218 -19 l-218 0 -15 33 c-13 30 -19 33 -79 41 -59 8 -66 11 -80 40 -10 21
-23 32 -41 34 -20 2 -28 11 -35 40 -8 33 -13 37 -46 40 -31 3 -38 7 -43 32 -7
32 -13 34 -139 48 -66 7 -70 9 -77 36 -11 40 -24 46 -96 46 -59 0 -63 1 -63
23 0 32 -18 47 -57 47 l-34 0 3 68 c2 52 6 67 18 67 9 0 16 -11 18 -29 3 -20
23 -49 65 -92 59 -58 65 -62 118 -67 100 -9 142 39 125 143 -6 40 4 59 21 37
6 -6 13 -36 16 -65 3 -29 9 -57 12 -62 9 -15 51 -12 65 5 19 23 32 18 63 -20
32 -41 73 -47 102 -15 41 46 75 14 75 -70 0 -44 3 -52 24 -62 38 -17 51 -5 54
46 2 59 7 66 41 66 17 0 37 10 52 26 21 22 24 34 22 86 -3 81 -9 95 -44 113
-16 9 -29 22 -29 30 0 18 -48 55 -71 55 -27 0 -24 -28 4 -32 18 -2 22 -9 22
-38 1 -33 3 -35 40 -40 l40 -5 3 -71 c2 -49 -1 -74 -10 -81 -8 -7 -38 -8 -78
-4 l-65 6 0 125 c0 176 0 176 80 185 l65 7 0 33 c0 33 -1 33 -52 37 -70 6 -98
-5 -98 -36 0 -30 -12 -34 -82 -28 l-58 4 0 64 c0 59 2 64 22 64 12 0 31 -8 42
-18 30 -27 164 -17 180 13 6 11 27 36 47 55 19 20 38 43 42 53 5 12 18 17 47
17 50 0 96 22 103 50 11 41 24 18 37 -66z m-3085 -336 c7 -15 18 -22 33 -21
14 2 28 -6 38 -22 9 -14 24 -25 33 -25 30 0 41 -23 41 -86 0 -42 5 -65 15 -74
17 -14 35 -5 35 19 0 44 58 56 84 17 9 -14 27 -26 43 -28 24 -3 29 -8 33 -43
5 -37 8 -40 40 -45 31 -4 36 -9 40 -40 5 -34 6 -35 50 -34 25 1 59 3 75 5 29
4 30 2 35 -41 5 -44 6 -45 45 -50 33 -4 39 -8 37 -25 -2 -11 -3 -59 -3 -107 1
-59 -3 -89 -11 -95 -7 -4 -42 -8 -78 -8 l-65 0 0 -35 0 -35 -74 -3 c-41 -2
-87 2 -103 9 -36 15 -60 -3 -56 -40 2 -20 9 -27 31 -29 35 -4 36 -9 39 -102
l3 -75 34 3 c19 1 38 -2 41 -8 9 -14 0 -202 -10 -213 -4 -4 -38 -9 -76 -10
l-69 -2 2 -32 c4 -41 -7 -47 -87 -47 l-65 -1 0 -35 0 -35 104 0 c112 -1 114
-1 126 -59 l6 -29 63 6 c69 6 86 -2 86 -39 0 -27 16 -39 50 -39 24 0 25 -4 31
-70 3 -38 1 -74 -3 -80 -5 -5 -23 -10 -41 -10 -29 0 -32 -3 -37 -35 l-5 -35
-75 -5 -75 -5 0 -35 c0 -33 2 -35 40 -40 34 -4 40 -9 43 -31 5 -39 -17 -50
-95 -47 l-68 3 0 35 c0 33 -2 35 -35 35 -32 0 -35 -3 -40 -35 -4 -31 -9 -36
-40 -40 -31 -4 -36 -9 -40 -40 l-5 -35 -146 4 c-160 3 -164 2 -164 -54 l0 -30
-117 2 -118 1 0 -38 c0 -38 1 -39 38 -42 35 -3 37 -5 37 -38 0 -33 2 -35 40
-40 37 -5 40 -8 43 -39 4 -44 -7 -51 -96 -51 -40 0 -88 -6 -106 -14 -37 -15
-76 -71 -76 -107 0 -19 84 -315 152 -539 15 -49 22 -210 9 -210 -5 0 -33 14
-61 30 -28 17 -57 30 -65 30 -29 0 -38 41 -33 144 3 56 2 171 -2 256 -6 135
-11 162 -33 211 -68 153 -211 228 -407 216 -100 -7 -171 -31 -239 -82 l-50
-36 -49 36 c-27 19 -56 35 -63 35 -27 1 -61 27 -88 68 -14 22 -56 85 -92 139
-63 94 -178 291 -189 323 -3 8 -24 53 -47 99 -43 84 -51 115 -33 126 6 3 8 16
4 29 -9 35 13 45 89 39 66 -6 68 -7 65 -32 -1 -14 1 -31 4 -36 4 -6 66 -10
155 -10 l148 0 5 35 c5 32 8 35 45 40 38 5 40 7 40 40 l0 35 75 5 75 5 5 35
c5 32 8 35 40 35 33 0 35 2 33 29 -3 37 12 56 43 56 27 0 37 -13 38 -53 l1
-30 115 0 115 -1 3 42 3 41 -118 3 -118 3 0 110 0 110 75 0 75 0 0 -35 c0 -33
2 -35 32 -32 41 4 53 -18 53 -97 l0 -61 41 0 41 0 -3 113 -4 112 78 3 77 3 0
33 c0 36 13 46 55 46 20 0 24 6 27 38 3 35 5 37 38 38 l35 0 0 71 c0 39 4 75
8 80 5 4 23 8 40 8 29 0 32 3 37 35 4 31 9 36 40 40 32 5 35 8 35 40 0 33 2
35 40 40 38 5 40 6 37 38 -2 21 2 34 12 38 21 8 56 -14 56 -35 0 -10 9 -26 20
-36 12 -11 20 -31 20 -52 0 -27 5 -35 25 -43 17 -6 25 -17 25 -33 0 -27 25
-53 55 -59 10 -2 22 -14 25 -28 6 -21 11 -25 41 -22 45 4 60 19 35 38 -11 8
-28 14 -37 14 -23 0 -33 17 -34 55 0 24 -4 30 -22 30 -28 0 -35 8 -42 52 -4
26 -14 41 -30 50 -45 22 -50 46 -51 234 0 188 4 205 50 211 21 3 25 8 25 38 0
29 -4 36 -23 38 -15 2 -32 -6 -48 -23 -26 -28 -41 -29 -58 -2 -12 19 -4 30 27
32 16 1 22 8 22 26 0 23 -4 24 -58 25 -64 0 -88 14 -67 39 9 10 31 15 74 15
54 0 62 -3 71 -22z m1920 -143 c13 -71 20 -85 45 -85 14 0 21 -11 27 -42 7
-37 13 -44 38 -48 34 -6 40 -22 31 -85 -6 -37 -11 -43 -36 -48 -27 -6 -28 -9
-35 -82 -8 -83 -2 -78 -92 -75 -48 1 -54 -1 -64 -24 -17 -37 1 -74 38 -78 19
-2 29 -9 31 -24 2 -16 -5 -22 -35 -30 -28 -7 -39 -15 -41 -31 -5 -32 -26 -29
-56 8 -29 34 -34 80 -11 99 12 10 14 26 9 76 l-7 63 29 6 c16 4 35 8 42 11 8
2 12 24 12 63 0 50 -4 62 -22 75 -20 14 -22 22 -19 123 2 88 5 111 20 123 9 8
23 28 29 43 9 21 18 28 34 25 18 -2 24 -13 33 -63z m-158 -328 c1 -52 -9 -72
-32 -64 -12 5 -14 13 -9 29 4 13 8 32 8 43 1 25 15 47 25 41 4 -3 8 -25 8 -49z
m-3751 -292 c0 -83 7 -97 39 -89 14 3 26 0 31 -8 13 -20 13 -127 0 -137 -19
-14 -94 -20 -105 -7 -11 14 -44 293 -35 307 3 6 20 9 37 7 l32 -3 1 -70z m469
-26 c11 -17 13 -113 4 -131 -11 -21 -61 -24 -77 -5 -6 7 -9 39 -7 72 3 33 4
63 5 68 0 11 68 8 75 -4z m2575 -79 c0 -5 -14 -7 -32 -3 -46 8 -48 13 -5 13
21 0 37 -4 37 -10z m-3204 -151 c6 -5 10 -37 10 -71 l-2 -63 -82 -3 -82 -3 0
69 c0 37 5 73 10 78 12 12 130 6 146 -7z m2970 6 c3 -8 7 -63 7 -122 l2 -108
35 0 c33 0 35 2 40 40 5 38 7 40 40 40 l35 0 5 80 c5 74 7 80 28 83 33 5 53
-16 50 -52 -3 -28 0 -31 27 -34 45 -6 55 -19 55 -78 0 -56 -5 -64 -54 -73 -26
-6 -32 -12 -36 -41 l-5 -35 -145 0 -145 0 -5 35 c-4 30 -10 35 -42 43 -21 5
-38 12 -39 15 -6 41 -4 110 4 120 5 6 20 12 32 12 29 0 47 22 39 45 -5 12 -1
23 11 31 25 18 54 18 61 -1z m98 -21 c23 -9 21 -67 -3 -88 -27 -25 -41 -12
-41 38 0 55 8 64 44 50z m-336 -63 c8 -4 12 -19 10 -32 -2 -19 -10 -25 -34
-27 -36 -4 -50 18 -34 49 11 20 36 24 58 10z m704 -4 c14 -14 17 -104 4 -125
-9 -15 -49 -15 -64 0 -7 7 -12 38 -12 69 0 46 3 58 18 62 31 8 40 7 54 -6z
m146 7 c46 -13 19 -79 -30 -72 -37 5 -36 78 2 78 3 0 15 -3 28 -6z m178 -20
c7 -29 -7 -44 -41 -44 -34 0 -48 15 -41 44 5 22 12 26 41 26 29 0 36 -4 41
-26z m377 -223 c9 -7 17 -22 19 -34 3 -22 13 -26 106 -43 12 -2 22 -10 22 -17
0 -9 -33 -11 -136 -9 -148 3 -175 -4 -194 -54 -8 -21 -15 -24 -64 -24 -52 0
-56 -2 -87 -41 -17 -22 -43 -45 -55 -50 -20 -7 -24 -15 -24 -54 0 -38 -3 -46
-16 -43 -9 2 -22 19 -28 38 -7 24 -18 36 -33 38 -28 4 -35 26 -28 87 6 42 12
53 36 67 16 10 29 25 29 36 0 23 19 42 42 42 11 0 23 11 29 28 5 15 16 32 24
38 21 15 339 12 358 -5z m-1488 -33 c8 -25 18 -35 42 -42 25 -8 33 -17 37 -42
5 -25 12 -33 36 -38 17 -3 33 -14 36 -23 11 -37 22 -48 50 -53 22 -4 30 -11
32 -30 2 -21 -3 -27 -30 -35 -28 -8 -34 -15 -36 -43 -3 -25 -8 -32 -20 -30
-14 3 -16 14 -14 68 l4 65 -66 68 c-61 63 -68 67 -109 67 -39 0 -48 4 -71 35
-22 28 -34 35 -62 35 -24 0 -34 5 -34 15 0 12 18 15 98 15 l98 0 9 -32z
m-2532 11 c-8 -8 -16 -8 -30 0 -16 9 -14 10 12 11 21 0 26 -3 18 -11z m111
-52 c14 -10 16 -25 14 -82 l-3 -70 -33 3 c-37 4 -40 0 -46 -83 -3 -33 -5 -61
-5 -62 -1 -2 -35 -3 -76 -3 l-76 0 3 78 3 77 35 0 c32 0 35 3 40 35 4 31 9 36
40 40 31 4 35 9 36 35 1 17 2 33 3 38 2 12 46 8 65 -6z m4126 -97 c0 -5 -2
-10 -4 -10 -3 0 -8 5 -11 10 -3 6 -1 10 4 10 6 0 11 -4 11 -10z m-3997 -363
c48 -95 122 -228 167 -295 80 -122 90 -145 69 -157 -20 -13 -130 6 -137 23 -3
9 -33 62 -66 117 -93 153 -185 344 -192 395 -5 44 -5 46 33 66 21 12 38 22 39
23 1 1 40 -77 87 -172z m2598 142 c4 -8 10 -27 14 -42 4 -21 13 -29 35 -34 42
-8 41 -40 -2 -51 -25 -6 -34 -15 -40 -40 -8 -30 -11 -32 -56 -32 -75 0 -91 -8
-98 -46 l-6 -34 -58 0 c-76 0 -88 -6 -96 -45 -3 -18 -11 -32 -17 -32 -7 0 -51
-1 -99 -1 -94 -2 -118 -14 -118 -57 0 -16 -9 -28 -27 -37 -17 -8 -31 -26 -37
-45 -10 -36 -18 -38 -106 -25 l-44 7 -11 65 c-10 63 -11 65 -40 65 -20 0 -30
-5 -31 -15 -1 -8 -2 -20 -2 -27 -1 -6 -17 -17 -36 -23 -24 -8 -38 -20 -45 -41
-10 -28 -13 -29 -69 -29 l-60 0 -6 36 c-6 28 -14 38 -42 50 -51 22 -41 30 30
26 64 -4 65 -4 99 33 l33 36 123 4 123 4 55 55 c29 31 59 56 64 56 6 0 22 -9
36 -20 19 -15 41 -20 84 -20 48 0 63 4 89 27 28 23 31 31 27 60 -5 29 -2 35
18 43 16 6 25 18 27 37 3 27 5 28 68 31 84 3 94 7 87 34 -4 12 -2 27 3 33 14
17 122 12 131 -6z m727 -19 c2 -14 11 -31 20 -38 14 -11 17 -32 17 -122 l0
-109 42 -36 c46 -39 63 -73 42 -86 -9 -5 -17 1 -25 21 -10 22 -20 29 -46 32
-27 2 -34 8 -36 28 -5 32 -20 50 -43 50 -26 0 -39 30 -39 89 0 47 -2 51 -27
57 -16 4 -34 11 -40 17 -14 10 -18 109 -6 121 4 4 37 6 73 4 61 -3 65 -5 68
-28z m-241 -132 c4 -7 8 -24 8 -38 0 -22 4 -25 35 -25 33 0 35 -2 40 -40 5
-40 5 -40 44 -37 l39 4 -6 -35 c-6 -41 11 -62 41 -53 24 8 46 -17 38 -42 -10
-32 13 -41 73 -30 29 5 59 7 66 4 8 -3 15 -24 17 -48 l3 -43 57 3 c82 5 98 -2
98 -44 0 -19 -1 -34 -2 -34 -2 0 -43 -5 -93 -10 -84 -8 -92 -11 -121 -43 l-31
-33 -7 -211 c-6 -199 -1 -616 9 -764 l5 -67 -33 -5 c-17 -3 -59 -11 -93 -16
-109 -18 -223 -81 -123 -68 109 14 225 39 238 52 11 11 22 9 65 -11 35 -17 69
-24 111 -24 70 0 105 -15 62 -25 -15 -4 -27 -13 -27 -20 0 -8 -24 -14 -69 -18
-41 -3 -96 -17 -133 -32 -35 -15 -75 -32 -90 -38 -22 -9 -30 -8 -47 7 -41 37
-90 45 -272 46 -176 0 -176 0 -235 -30 -32 -16 -60 -25 -62 -20 -5 14 -30 12
-35 -2 -3 -10 -10 -10 -28 2 -79 48 -89 50 -229 50 -112 0 -142 -4 -177 -20
-40 -17 -47 -18 -95 -5 -29 8 -91 18 -138 21 -95 6 -140 19 -140 40 0 8 -11
19 -25 24 -14 5 -25 11 -25 14 0 2 24 21 53 43 73 56 97 58 167 17 84 -51 168
-71 273 -68 87 3 110 10 157 46 14 11 47 34 74 51 27 18 55 36 62 41 8 7 24 0
50 -20 46 -35 72 -49 105 -57 14 -4 43 -18 64 -33 36 -24 47 -26 130 -25 49 1
105 5 122 9 38 8 119 67 185 135 82 84 83 89 83 569 l0 417 -28 29 c-39 40
-88 50 -232 44 -66 -2 -127 -4 -135 -4 -8 0 -78 1 -155 2 -140 2 -201 -9 -219
-39 -10 -16 -34 -13 -64 8 -15 10 -40 21 -57 25 -36 9 -45 21 -45 64 0 29 -3
32 -32 32 -55 0 -60 9 -51 81 l8 64 75 5 75 5 -2 29 c-4 49 12 58 91 54 l71
-3 0 35 c0 33 2 35 38 38 35 3 37 5 37 36 0 18 3 36 7 39 3 4 89 7 189 7 135
0 185 -3 191 -12z m708 -172 c24 -22 35 -42 35 -62 0 -54 12 -75 54 -96 l41
-22 -47 -9 c-60 -12 -74 -6 -81 32 -5 25 -12 31 -31 31 -17 0 -31 10 -46 35
-27 43 -65 48 -80 10 -9 -22 -15 -25 -64 -25 -30 0 -62 -3 -72 -7 -11 -4 -15
-2 -12 7 2 8 24 18 49 24 32 8 47 18 57 38 10 22 21 28 67 33 39 5 59 13 66
26 14 26 25 24 64 -15z m602 -162 c3 -8 0 -21 -6 -27 -10 -9 -16 -8 -26 7 -8
10 -12 23 -9 27 9 15 34 10 41 -7z m-147 -19 c0 -9 -9 -15 -21 -15 -18 0 -19
2 -9 15 7 8 16 15 21 15 5 0 9 -7 9 -15z m-2034 -43 c24 -23 2 -37 -99 -62
-102 -25 -117 -20 -117 41 l0 38 101 -1 c75 0 104 -4 115 -16z m2264 -22 c0
-11 -4 -21 -9 -24 -13 -8 -34 21 -27 39 7 20 36 8 36 -15z m-380 0 c12 -8 9
-10 -12 -10 -16 0 -28 5 -28 10 0 13 20 13 40 0z m70 1 c0 -15 -19 -23 -38
-16 -14 5 -14 7 -2 15 19 12 40 13 40 1z m-3210 -171 c32 -12 71 -37 97 -62
70 -68 75 -99 71 -421 -3 -261 -4 -274 -26 -319 -25 -51 -75 -95 -132 -119
-23 -9 -69 -14 -135 -13 -88 1 -106 4 -145 26 -53 30 -105 93 -120 146 -5 21
-10 151 -10 303 0 213 3 274 15 311 18 52 82 121 128 138 18 6 39 16 47 20 29
17 153 11 210 -10z m1410 7 c85 -30 138 -81 166 -159 18 -51 20 -544 3 -613
-14 -56 -64 -114 -125 -145 -42 -22 -60 -25 -148 -25 -114 1 -162 18 -218 80
-54 58 -58 83 -58 398 0 272 1 290 21 332 26 55 86 108 143 128 52 18 170 21
216 4z m-2020 -31 c24 -9 55 -27 68 -39 51 -47 51 -53 53 -404 2 -375 1 -381
-73 -423 -41 -23 -53 -25 -253 -30 -120 -3 -215 -2 -222 3 -10 7 -13 110 -13
457 0 245 3 450 8 454 4 4 93 6 197 4 148 -4 200 -8 235 -22z m1252 -11 c13
-50 38 -203 38 -236 0 -36 17 -72 31 -64 5 4 9 23 9 43 0 58 41 276 54 284 20
13 193 9 203 -4 7 -9 -2 -53 -29 -138 -22 -69 -53 -170 -70 -225 -17 -55 -38
-120 -46 -145 -12 -31 -18 -98 -22 -220 l-5 -175 -107 -3 -106 -3 -4 173 -4
173 -62 210 c-34 116 -66 219 -71 230 -20 45 -33 105 -28 120 6 13 22 15 109
13 l102 -3 8 -30z m1288 -355 l5 -385 30 0 30 0 5 385 5 385 120 0 120 0 3
-360 c3 -399 1 -420 -55 -485 -58 -68 -101 -84 -223 -84 -90 0 -112 3 -153 23
-51 25 -92 68 -113 117 -19 46 -32 757 -14 779 11 13 33 15 124 13 l111 -3 5
-385z m1018 381 c9 -5 12 -31 10 -92 l-3 -84 -79 0 -80 0 1 -89 1 -90 73 0 74
-1 3 -79 c2 -57 -1 -82 -10 -88 -7 -5 -39 -8 -70 -6 -32 1 -61 -1 -64 -5 -4
-3 -7 -48 -7 -99 l0 -93 71 3 c104 5 112 -2 112 -98 0 -66 -3 -81 -17 -87 -10
-4 -106 -6 -213 -3 l-195 5 -3 445 c-1 245 0 451 3 458 3 9 51 12 192 12 103
0 194 -4 201 -9z m289 1 c6 -4 16 -54 23 -112 6 -58 15 -141 21 -184 5 -44 9
-125 9 -182 0 -62 4 -105 11 -109 6 -4 12 -5 15 -3 2 3 8 74 14 159 13 201 28
365 35 401 8 36 24 40 155 36 l105 -3 -2 -25 c-1 -14 -6 -59 -12 -100 -5 -41
-14 -113 -20 -159 -6 -46 -13 -91 -16 -100 -5 -16 -17 -95 -35 -236 -20 -150
-30 -221 -38 -255 l-8 -35 -177 -3 c-209 -3 -184 -24 -215 183 -12 77 -33 212
-47 300 -70 442 -67 418 -53 427 16 10 219 10 235 0z m821 -1 c9 -5 12 -31 10
-92 l-3 -84 -75 -1 -75 -1 0 -88 0 -88 70 -1 70 -1 0 -85 0 -85 -70 -1 -70 -1
0 -98 0 -99 67 3 c102 4 109 -3 106 -102 l-3 -82 -204 -3 c-157 -2 -206 1
-213 10 -12 20 -9 880 4 895 12 15 364 19 386 4z m299 1 c12 -7 78 -203 105
-308 24 -92 33 -62 38 128 l5 183 95 0 95 0 3 -457 2 -458 -99 0 c-74 0 -102
4 -110 14 -10 12 -91 275 -108 354 -3 12 -9 22 -14 22 -5 0 -9 -87 -9 -194 l0
-195 -87 -3 c-49 -2 -94 -2 -100 0 -10 3 -13 103 -13 457 0 353 3 454 13 458
20 9 171 7 184 -1z m-3970 -758 l54 -27 -3 -46 c-3 -45 -4 -46 -36 -45 -46 2
-112 35 -112 57 0 22 27 87 36 87 4 0 31 -12 61 -26z m581 -137 c6 -7 15 -24
21 -38 9 -24 8 -26 -16 -21 -25 5 -44 37 -36 60 6 16 18 15 31 -1z m1712 -211
c0 -3 -4 -8 -10 -11 -5 -3 -10 -1 -10 4 0 6 5 11 10 11 6 0 10 -2 10 -4z
m-2195 -171 c62 -18 110 -48 138 -87 16 -21 20 -44 21 -110 l1 -83 -100 -3
c-113 -3 -128 5 -118 62 6 41 -11 76 -37 76 -25 0 -40 -29 -40 -77 0 -47 21
-69 130 -141 87 -56 141 -107 167 -154 14 -26 17 -57 18 -154 0 -118 -1 -121
-29 -158 -44 -58 -116 -86 -223 -86 -108 0 -153 13 -208 62 -53 47 -67 89 -63
191 l3 72 94 3 c58 2 98 -1 105 -8 6 -6 13 -43 16 -82 4 -53 9 -74 23 -82 33
-21 52 4 55 74 3 57 1 66 -25 93 -15 16 -66 55 -114 87 -140 95 -169 141 -169
270 0 128 33 184 135 225 71 29 143 32 220 10z m2241 -6 c90 -28 128 -65 143
-141 7 -32 11 -74 9 -95 l-3 -38 -105 0 -105 0 -5 55 c-3 30 -9 61 -13 68 -13
20 -44 14 -61 -13 -38 -58 -14 -103 98 -178 181 -122 211 -167 210 -322 0 -49
-6 -107 -13 -128 -25 -74 -115 -117 -245 -117 -149 0 -230 47 -261 152 -9 33
-15 81 -13 115 l3 58 105 0 105 0 5 -75 c7 -87 12 -100 45 -100 34 0 48 32 43
98 -4 50 -9 59 -44 90 -21 18 -64 49 -94 69 -74 48 -138 111 -156 152 -19 44
-19 200 0 245 28 68 132 124 232 125 29 1 83 -8 120 -20z m-1591 -21 c52 -15
91 -51 111 -104 13 -33 15 -70 13 -177 -4 -118 -7 -139 -25 -164 -31 -43 -88
-66 -173 -71 l-76 -4 3 -150 c5 -214 15 -198 -123 -198 l-115 0 0 440 0 439
88 4 c116 5 248 -1 297 -15z m425 -340 c-1 -193 1 -353 5 -356 3 -3 34 -6 68
-7 l62 0 0 -80 0 -80 -185 0 -185 0 -3 437 -2 437 102 3 c57 2 111 1 121 -1
17 -3 18 -25 17 -353z m637 349 c6 -4 13 -28 16 -54 6 -49 18 -129 36 -238 5
-33 26 -166 45 -295 19 -129 38 -245 42 -256 3 -12 1 -25 -6 -29 -13 -8 -221
-7 -230 1 -3 3 -7 38 -10 77 l-5 72 -34 3 c-18 2 -39 -2 -45 -8 -6 -6 -13 -41
-16 -78 l-5 -67 -120 0 c-114 0 -120 1 -119 20 1 18 10 87 35 270 5 39 14 102
19 140 28 207 59 417 65 432 6 17 307 25 332 10z m1279 3 l44 0 0 -440 0 -441
-117 3 -118 3 -1 180 -2 180 -32 0 -33 0 2 -177 c2 -147 0 -178 -13 -185 -8
-4 -62 -7 -120 -5 l-106 3 0 440 0 440 118 -3 117 -3 0 -155 0 -155 34 0 34 0
1 155 1 155 60 6 c33 3 66 4 73 2 8 -2 34 -3 58 -3z"></path>
<path d="M1691 10051 c-16 -16 -20 -42 -26 -196 -4 -98 -6 -278 -3 -401 4
-199 6 -226 23 -244 28 -31 54 -25 71 15 22 52 21 773 -1 815 -18 35 -37 38
-64 11z"></path>
<path d="M5162 10047 c-22 -23 -22 -25 -22 -418 0 -345 2 -397 16 -417 20 -29
54 -25 71 8 18 36 18 784 0 820 -17 33 -38 36 -65 7z"></path>
<path d="M885 10032 c-3 -3 -5 -75 -5 -159 l0 -154 37 3 c53 4 63 29 63 158 0
119 -10 145 -60 152 -16 3 -32 2 -35 0z"></path>
<path d="M3751 6886 c-7 -9 -11 -40 -9 -78 3 -61 4 -63 30 -63 35 -1 46 -12
50 -50 l3 -30 195 -1 195 -1 0 -34 0 -34 78 -3 79 -3 -4 -42 -3 -42 71 3 c77
4 98 -8 92 -50 -3 -21 -8 -23 -80 -26 l-78 -3 0 -39 0 -40 -150 0 -150 0 -11
-27 c-16 -43 -8 -48 76 -48 l79 0 1 -75 0 -75 -37 -3 c-21 -2 -38 -9 -39 -15
-1 -7 -2 -23 -2 -37 -2 -23 -7 -25 -59 -30 -31 -3 -59 -8 -63 -12 -16 -15 9
-28 56 -28 48 0 52 2 115 66 54 54 65 70 60 90 -5 17 -1 26 15 34 11 7 27 27
35 46 18 42 39 40 39 -3 0 -24 13 -43 60 -89 l60 -59 100 -5 c103 -5 155 6
155 35 0 7 21 30 46 50 41 34 46 41 41 70 l-5 33 59 6 60 7 -3 32 c-3 29 -7
32 -38 34 -19 2 -65 8 -102 14 -60 11 -68 15 -68 34 0 26 -14 40 -52 49 -42
10 -37 42 6 50 33 6 35 10 38 49 l3 42 64 5 c64 5 65 6 73 39 5 18 7 35 4 38
-3 3 -36 2 -74 -2 -67 -7 -70 -8 -76 -36 l-6 -30 -142 3 -142 3 -9 32 c-11 36
-28 43 -103 43 -51 0 -52 1 -58 34 -6 32 -10 35 -49 41 -24 4 -79 4 -123 1
-43 -4 -113 -8 -154 -9 l-75 -2 -3 68 c-3 62 -5 69 -28 77 -32 12 -29 13 -43
-4z m929 -576 c5 -33 7 -35 50 -40 38 -4 44 -8 41 -25 -7 -42 -21 -56 -54 -53
-31 3 -32 2 -32 -37 l0 -39 -113 -1 c-68 0 -116 3 -120 10 -4 5 -7 24 -7 40 0
27 -3 30 -32 30 -18 0 -36 5 -41 10 -5 6 -7 40 -4 78 l4 68 152 -3 151 -3 5
-35z"></path>
<path d="M5004 6566 c-12 -31 0 -51 31 -51 27 0 30 3 30 30 0 25 -4 30 -28 33
-17 2 -29 -2 -33 -12z"></path>
<path d="M5097 6502 c-14 -3 -17 -11 -15 -35 l3 -32 68 -1 c74 -2 88 8 70 48
-7 17 -19 22 -59 23 -27 0 -57 -1 -67 -3z"></path>
<path d="M3455 6460 c-3 -5 -1 -10 4 -10 6 0 11 5 11 10 0 6 -2 10 -4 10 -3 0
-8 -4 -11 -10z"></path>
<path d="M3820 6402 c0 -46 15 -52 122 -52 98 0 99 0 109 27 18 49 10 53 -116
53 l-115 0 0 -28z"></path>
<path d="M3522 6408 c-7 -7 -12 -18 -12 -25 0 -18 29 -16 37 3 8 21 -10 37
-25 22z"></path>
<path d="M3230 6385 c-10 -12 -9 -16 5 -21 19 -8 40 9 31 25 -10 15 -21 14
-36 -4z"></path>
<path d="M2813 6334 c-14 -36 1 -49 60 -52 65 -3 90 9 85 42 -3 19 -10 21 -71
22 -47 0 -70 -3 -74 -12z"></path>
<path d="M3593 6334 c-2 -7 -3 -21 -1 -31 3 -16 16 -18 98 -21 72 -2 100 1
115 12 19 14 19 16 3 32 -22 22 -206 30 -215 8z"></path>
<path d="M2734 6266 c-3 -9 -3 -27 0 -41 5 -21 2 -27 -21 -36 -24 -9 -25 -11
-10 -26 15 -15 14 -19 -13 -50 -21 -24 -30 -45 -31 -71 -1 -20 -2 -55 -4 -77
-1 -22 3 -47 10 -55 6 -8 18 -30 25 -49 13 -32 12 -35 -13 -53 -34 -25 -35
-60 -2 -82 14 -9 25 -25 25 -35 0 -16 16 -57 39 -101 6 -11 25 -15 72 -15 l64
0 -3 30 c-5 42 -12 47 -78 49 -73 2 -85 17 -61 77 15 38 15 44 2 59 -13 14
-15 45 -13 176 l3 159 29 -2 c45 -3 53 9 48 74 -5 64 -7 68 -40 78 -15 4 -24
2 -28 -9z"></path>
<path d="M3827 6274 c-13 -13 -7 -62 9 -78 33 -34 67 -8 62 46 -3 29 -7 33
-33 36 -17 2 -34 0 -38 -4z"></path>
<path d="M2977 6264 c-13 -13 -7 -64 7 -70 8 -3 24 0 36 6 31 17 24 64 -10 68
-14 2 -29 0 -33 -4z"></path>
<path d="M3444 6255 c-10 -25 4 -45 31 -45 28 0 28 0 15 34 -10 29 -37 35 -46
11z"></path>
<path d="M3527 6254 c-9 -10 15 -54 30 -54 7 0 16 7 19 15 11 27 -29 58 -49
39z"></path>
<path d="M3087 6236 c-6 -15 1 -26 15 -26 4 0 8 9 8 20 0 23 -15 27 -23 6z"></path>
<path d="M2497 6193 c-11 -11 -8 -48 5 -61 7 -7 39 -12 75 -12 60 0 63 1 79
31 13 26 14 33 2 40 -15 10 -152 12 -161 2z"></path>
<path d="M3210 6186 c-16 -21 -9 -61 12 -61 9 0 23 -9 31 -19 13 -18 14 -16
14 25 1 63 -27 90 -57 55z"></path>
<path d="M1484 6176 c-9 -24 0 -51 19 -54 25 -5 47 16 47 44 0 20 -5 24 -30
24 -17 0 -33 -6 -36 -14z"></path>
<path d="M3364 6175 c-4 -9 0 -23 9 -32 21 -21 49 -9 45 19 -4 28 -45 38 -54
13z"></path>
<path d="M3675 6178 c-2 -7 -5 -24 -7 -38 -3 -24 -5 -25 -78 -25 l-75 0 -3
-37 c-3 -35 -6 -38 -32 -38 -37 0 -48 -21 -42 -82 5 -58 17 -62 26 -9 5 30 18
51 59 90 45 44 57 51 94 51 36 0 46 5 69 35 21 28 33 35 60 35 24 0 34 5 34
15 0 19 -98 22 -105 3z"></path>
<path d="M3860 6139 c0 -5 5 -7 10 -4 6 3 10 8 10 11 0 2 -4 4 -10 4 -5 0 -10
-5 -10 -11z"></path>
<path d="M2024 6106 c-11 -30 1 -61 24 -64 32 -5 52 15 52 49 0 26 -3 29 -35
29 -22 0 -38 -6 -41 -14z"></path>
<path d="M2337 6114 c-11 -11 -8 -28 6 -48 10 -14 31 -19 81 -23 l67 -4 -3 38
-3 38 -70 3 c-39 1 -74 0 -78 -4z"></path>
<path d="M2972 6088 c2 -26 8 -34 27 -36 33 -5 44 9 32 41 -8 20 -18 27 -36
27 -24 0 -26 -3 -23 -32z"></path>
<path d="M3129 6104 c-14 -17 -2 -147 12 -139 5 4 9 28 9 56 0 38 4 52 20 61
11 7 20 16 20 19 0 14 -50 16 -61 3z"></path>
<path d="M3902 6009 c3 -95 6 -113 21 -120 9 -5 25 -13 34 -17 10 -5 20 -20
23 -33 4 -18 13 -25 38 -27 26 -3 32 0 34 17 0 12 1 27 2 34 1 6 -15 17 -34
23 -30 10 -35 16 -33 40 5 78 4 102 -4 144 -8 43 -10 45 -46 48 l-38 3 3 -112z"></path>
<path d="M2264 6036 c-3 -8 -4 -27 -2 -43 3 -25 7 -28 38 -28 31 0 35 3 38 29
4 33 -2 41 -41 50 -19 5 -29 2 -33 -8z"></path>
<path d="M2897 6034 c-24 -25 7 -82 39 -70 24 9 15 70 -11 74 -12 2 -24 0 -28
-4z"></path>
<path d="M3296 6009 c-19 -37 -18 -39 20 -42 27 -2 29 1 29 33 0 47 -27 52
-49 9z"></path>
<path d="M4308 6028 c-9 -7 -18 -24 -20 -38 -2 -19 -10 -26 -32 -30 -16 -3
-34 -13 -40 -23 -9 -15 -7 -21 13 -36 28 -21 23 -50 -9 -58 -67 -17 -66 -207
0 -228 11 -4 27 -20 35 -36 9 -16 29 -36 45 -44 29 -15 30 -19 30 -80 0 -60
-2 -66 -27 -82 -44 -26 -53 -43 -53 -95 0 -42 -3 -50 -25 -60 -14 -6 -34 -27
-45 -46 l-21 -35 -23 22 c-34 32 -64 27 -82 -14 -13 -32 -18 -35 -57 -35 -50
0 -66 9 -67 35 -5 107 -2 100 -40 100 l-35 0 0 -59 c0 -76 -20 -94 -63 -53
-22 21 -38 27 -73 27 -33 0 -51 6 -64 20 -29 32 -155 24 -155 -10 0 -5 32 -7
70 -4 68 4 71 3 80 -21 9 -23 15 -25 69 -25 50 0 62 -3 71 -20 6 -12 21 -20
35 -20 15 0 31 -10 41 -24 8 -14 27 -26 42 -28 24 -3 27 -7 27 -43 0 -36 3
-40 27 -43 33 -4 45 -18 50 -57 3 -34 29 -45 55 -23 9 7 26 13 37 13 17 0 21
6 21 34 l0 35 -57 -3 c-54 -2 -58 -1 -72 26 -18 36 -7 57 31 58 25 0 28 4 28
35 l1 35 74 5 75 5 5 40 c5 38 7 40 40 40 l35 0 0 67 c0 74 6 85 50 90 l30 3
0 110 0 110 -30 3 c-39 5 -50 16 -50 55 0 26 -4 31 -20 29 -11 -2 -27 -4 -35
-5 -12 -2 -15 13 -15 83 0 75 2 85 18 83 9 -2 25 -4 35 -5 14 -3 17 5 17 37
l0 40 123 3 123 3 -3 32 c-3 32 -3 32 -70 37 -73 5 -85 12 -90 50 -4 29 -34
38 -60 18z"></path>
<path d="M3607 6013 c-14 -14 -6 -41 14 -46 25 -7 37 17 19 38 -14 16 -23 19
-33 8z"></path>
<path d="M3683 5957 c-3 -6 -9 -24 -13 -41 l-6 -31 -65 3 c-43 2 -70 -2 -83
-11 -30 -22 -10 -37 50 -37 46 0 59 -4 78 -25 24 -25 43 -30 84 -19 33 9 27
22 -13 30 -35 6 -49 34 -24 49 5 4 14 18 19 31 13 34 67 34 79 1 11 -29 57
-61 77 -53 23 9 16 24 -13 28 -24 2 -29 8 -31 36 -2 18 -9 35 -15 37 -31 10
-118 11 -124 2z"></path>
<path d="M2817 5953 c-12 -11 -7 -109 6 -125 16 -20 45 -30 53 -17 3 6 -2 19
-11 29 -15 17 -16 20 -3 25 16 6 19 60 5 83 -9 13 -39 16 -50 5z"></path>
<path d="M3047 5953 c-10 -9 -8 -25 3 -43 7 -12 13 -11 34 9 14 13 23 28 20
32 -6 11 -48 12 -57 2z"></path>
<path d="M3535 5941 c-6 -11 9 -23 19 -14 9 9 7 23 -3 23 -6 0 -12 -4 -16 -9z"></path>
<path d="M2288 5883 c-38 -6 -35 -20 12 -70 l39 -43 113 0 113 0 45 41 45 41
-24 19 c-34 28 -56 21 -56 -18 0 -18 -5 -37 -11 -43 -7 -7 -51 -10 -120 -8
l-109 3 0 39 c0 42 -4 45 -47 39z"></path>
<path d="M3082 5874 c-5 -8 -20 -21 -33 -27 -13 -7 -28 -22 -34 -34 -6 -14
-20 -23 -40 -25 -23 -2 -31 -9 -33 -26 -5 -35 14 -50 75 -58 49 -6 58 -4 72
13 11 14 33 22 70 26 61 7 66 10 58 32 -5 11 -21 15 -62 15 -50 0 -56 -2 -65
-25 -10 -27 -47 -34 -68 -13 -20 20 -13 36 18 43 17 4 35 15 40 26 9 16 22 19
75 19 68 0 91 14 60 37 -27 19 -122 17 -133 -3z"></path>
<path d="M1564 5866 c-12 -31 0 -51 31 -51 27 0 30 3 30 30 0 25 -4 30 -28 33
-17 2 -29 -2 -33 -12z"></path>
<path d="M3307 5873 c-15 -15 -5 -23 28 -23 39 0 47 14 13 24 -29 7 -33 7 -41
-1z"></path>
<path d="M3445 5869 c-4 -6 -5 -13 -2 -16 7 -7 27 6 27 18 0 12 -17 12 -25 -2z"></path>
<path d="M3380 5835 c-7 -8 -10 -19 -6 -22 9 -9 38 8 38 22 -1 16 -18 16 -32
0z"></path>
<path d="M2197 5803 c-13 -13 -7 -64 8 -69 38 -15 61 47 26 66 -23 12 -26 12
-34 3z"></path>
<path d="M3777 5803 c-9 -8 32 -53 48 -53 6 0 22 -11 35 -25 23 -24 60 -34 60
-16 0 5 -21 23 -47 40 -27 17 -57 37 -69 46 -11 8 -24 12 -27 8z"></path>
<path d="M1637 5794 c-4 -4 -7 -34 -7 -66 0 -52 3 -60 23 -67 43 -17 58 3 55
72 -3 61 -4 62 -33 65 -17 2 -34 0 -38 -4z"></path>
<path d="M2765 5790 c-8 -13 3 -30 20 -30 14 0 27 24 18 34 -10 9 -31 7 -38
-4z"></path>
<path d="M4062 5733 l3 -68 30 0 c25 0 31 5 35 30 3 17 3 46 0 65 -5 31 -9 35
-38 38 l-33 3 3 -68z"></path>
<path d="M2882 5698 c-7 -7 -12 -15 -12 -20 0 -13 38 -28 54 -22 22 8 20 31
-3 44 -24 13 -24 13 -39 -2z"></path>
<path d="M3438 5691 c-8 -11 -26 -23 -41 -27 -23 -5 -28 -11 -25 -33 5 -40 45
-42 59 -2 l11 31 98 0 c93 0 98 -1 114 -25 10 -15 26 -25 41 -25 17 0 25 -6
27 -22 4 -28 39 -36 57 -14 20 23 6 46 -28 46 -20 0 -30 6 -34 20 -3 12 -14
20 -26 20 -11 0 -28 11 -37 25 -15 24 -21 25 -110 25 -80 0 -95 -3 -106 -19z"></path>
<path d="M3930 5661 c0 -19 6 -34 15 -38 23 -8 28 2 18 33 -13 40 -33 42 -33
5z"></path>
<path d="M3160 5645 c0 -14 5 -25 10 -25 6 0 10 11 10 25 0 14 -4 25 -10 25
-5 0 -10 -11 -10 -25z"></path>
<path d="M3312 5564 c-32 -22 -31 -96 3 -129 39 -40 45 -32 45 60 0 91 -5 99
-48 69z"></path>
<path d="M3510 5555 c-18 -22 -1 -37 36 -33 21 2 29 8 29 23 0 26 -46 33 -65
10z"></path>
<path d="M3085 5549 c-4 -6 -4 -13 -1 -16 8 -8 36 5 36 17 0 13 -27 13 -35 -1z"></path>
<path d="M4009 5548 c-7 -89 -1 -123 15 -82 10 25 7 94 -4 94 -5 0 -10 -6 -11
-12z"></path>
<path d="M3789 5456 c-1 -47 -2 -92 -3 -98 -1 -17 42 -22 60 -8 10 9 14 34 14
85 0 75 -5 87 -47 99 -23 7 -23 6 -24 -78z"></path>
<path d="M3020 5505 c-7 -9 -10 -19 -6 -22 8 -9 38 9 44 25 5 17 -23 15 -38
-3z"></path>
<path d="M3942 5418 c-14 -14 -16 -138 -3 -138 6 0 13 21 16 48 3 26 10 55 16
65 16 30 -5 49 -29 25z"></path>
<path d="M3388 5393 c-40 -10 -26 -63 17 -63 14 0 25 -7 28 -20 3 -13 14 -20
30 -20 13 0 31 -9 38 -19 12 -16 30 -20 107 -24 89 -5 94 -4 108 18 9 13 27
25 41 27 32 4 39 20 18 42 -24 23 -42 20 -57 -11 -13 -27 -16 -28 -106 -31
-90 -3 -92 -2 -102 22 -6 17 -18 26 -37 28 -19 2 -32 12 -41 31 -7 15 -16 26
-20 26 -4 -1 -14 -3 -24 -6z"></path>
<path d="M2793 5327 c-8 -12 -65 -33 -108 -39 -16 -3 -20 -11 -20 -38 0 -27 5
-36 20 -38 35 -7 56 -33 53 -66 -3 -27 1 -31 27 -36 26 -4 31 -10 35 -45 4
-34 9 -40 32 -43 15 -2 34 -14 43 -28 9 -14 20 -22 25 -19 14 9 38 -5 43 -26
3 -12 14 -19 30 -19 15 0 31 -9 41 -24 13 -21 23 -24 65 -23 35 2 56 8 73 24
13 11 32 23 42 25 25 4 34 38 32 119 l-1 64 -35 5 c-32 5 -35 8 -38 43 -3 29
-7 37 -23 37 -11 0 -30 11 -43 25 -13 14 -31 25 -39 25 -9 0 -24 12 -33 26
-12 17 -24 24 -36 21 -12 -4 -24 3 -34 19 -14 21 -24 24 -80 24 -41 0 -66 -5
-71 -13z m334 -241 c2 -1 5 -105 4 -123 -1 -9 -18 -13 -50 -13 -40 0 -51 4
-56 19 -3 11 -19 24 -36 30 -36 12 -37 44 -2 49 12 2 28 14 37 27 13 20 21 22
58 18 24 -3 44 -6 45 -7z"></path>
<path d="M3305 5180 c-19 -36 -19 -59 -1 -66 37 -14 81 51 55 82 -18 22 -37
17 -54 -16z"></path>
<path d="M4767 5183 c-13 -12 -7 -74 7 -79 36 -14 80 42 56 71 -13 15 -51 20
-63 8z"></path>
<path d="M4141 5016 c-18 -22 3 -66 33 -66 35 0 52 24 38 55 -13 28 -52 34
-71 11z"></path>
<path d="M3503 5013 c-24 -9 -13 -24 15 -21 15 2 26 8 25 13 -2 12 -23 16 -40
8z"></path>
<path d="M3372 4868 c3 -25 34 -36 51 -19 14 14 -9 41 -35 41 -14 0 -19 -6
-16 -22z"></path>
<path d="M3445 4830 c-13 -21 11 -31 66 -28 40 2 54 7 54 18 0 19 -109 28
-120 10z"></path>
<path d="M4078 4713 c-3 -87 0 -122 9 -133 11 -12 15 -12 29 2 13 13 16 38 16
129 l0 114 -25 3 -25 3 -4 -118z"></path>
<path d="M3280 4566 c0 -56 3 -67 21 -76 40 -22 50 -6 47 67 l-3 68 -32 3 -33
3 0 -65z"></path>
<path d="M3361 4386 c-18 -22 -9 -51 17 -54 40 -6 51 4 43 35 -8 32 -41 42
-60 19z"></path>
<path d="M1402 6783 c5 -59 59 -52 74 10 6 26 5 27 -36 27 l-41 0 3 -37z"></path>
<path d="M1270 6661 c-19 -5 -25 -13 -25 -36 0 -25 4 -31 27 -33 23 -3 30 2
38 24 11 28 7 55 -7 53 -4 -1 -19 -4 -33 -8z"></path>
<path d="M1087 6503 c-2 -4 -3 -21 -3 -38 1 -27 4 -30 36 -30 33 0 35 2 35 35
0 32 -3 35 -32 38 -17 2 -33 -1 -36 -5z"></path>
<path d="M5234 6876 c-11 -29 1 -51 28 -54 29 -3 54 27 44 54 -7 19 -65 18
-72 0z"></path>
<path d="M5460 6083 c0 -49 -14 -73 -32 -55 -24 24 -38 13 -38 -28 0 -39 -1
-40 -35 -40 -25 0 -37 -6 -46 -21 -19 -36 9 -53 88 -54 l68 0 0 -30 c0 -42 12
-57 35 -45 28 15 51 -12 43 -50 -5 -29 -5 -30 36 -30 l42 0 -3 78 -3 77 -30 0
c-16 0 -35 3 -40 7 -6 4 -8 44 -4 110 4 56 5 106 2 111 -2 4 -22 7 -44 7 -38
0 -39 -1 -39 -37z m-16 -108 c8 -30 1 -45 -20 -45 -15 0 -17 12 -8 48 8 29 20
28 28 -3z"></path>
<path d="M4926 5953 c-3 -4 -6 -19 -6 -35 0 -28 0 -28 65 -28 36 0 68 0 73 0
4 0 7 15 7 33 l0 32 -66 2 c-37 1 -69 -1 -73 -4z"></path>
<path d="M5074 5715 c-4 -8 1 -27 10 -41 16 -23 22 -25 79 -22 l62 3 0 35 0
35 -73 3 c-58 2 -73 0 -78 -13z"></path>
<path d="M5794 5413 c-7 -5 -14 -21 -15 -38 -4 -26 -1 -30 24 -33 37 -4 59 15
55 47 -2 19 -9 27 -28 29 -14 1 -30 -1 -36 -5z"></path>
<path d="M4937 3378 c-9 -7 -19 -25 -23 -40 -6 -27 -4 -28 30 -28 29 0 39 5
48 25 19 41 -18 70 -55 43z"></path>
<path d="M4226 3288 c-31 -44 -12 -68 38 -48 22 8 27 15 24 38 -4 36 -40 42
-62 10z"></path>
<path d="M4312 3222 c-16 -13 -23 -26 -20 -43 2 -20 9 -24 38 -24 31 0 35 3
38 28 3 26 -12 57 -27 57 -3 0 -17 -9 -29 -18z"></path>
<path d="M1865 5170 c-3 -6 -4 -19 0 -29 7 -24 -16 -43 -51 -39 l-27 3 -1 -80
-1 -80 -39 3 -39 3 6 -35 c3 -22 1 -38 -6 -43 -6 -4 -43 -7 -82 -7 -69 -1 -70
-1 -73 -29 -2 -16 2 -29 10 -32 7 -2 93 -6 191 -8 190 -3 202 -1 195 45 -3 20
-9 23 -43 23 l-40 0 0 100 c0 118 5 135 45 135 35 0 42 9 34 49 -6 27 -11 31
-40 31 -18 0 -36 -5 -39 -10z m-28 -256 c9 -23 -11 -38 -26 -20 -13 16 -7 36
10 36 5 0 12 -7 16 -16z"></path>
<path d="M2187 5024 c-4 -4 -7 -20 -7 -36 0 -39 42 -60 68 -35 15 16 15 20 2
45 -15 26 -49 40 -63 26z"></path>
<path d="M1405 4791 c-3 -2 -5 -22 -5 -43 l0 -39 78 3 77 3 -3 30 c-2 17 -6
33 -10 36 -9 8 -130 17 -137 10z"></path>
<path d="M1045 4619 c-11 -16 15 -30 50 -27 19 2 30 9 30 18 0 19 -70 27 -80
9z"></path>
<path d="M5397 5334 c-4 -4 -7 -23 -7 -41 0 -33 2 -34 33 -31 29 3 32 6 32 38
0 30 -4 35 -25 38 -14 2 -29 0 -33 -4z"></path>
<path d="M5473 5004 c-8 -20 8 -48 30 -52 18 -4 41 33 33 54 -7 19 -55 18 -63
-2z"></path>
<path d="M5557 4943 c-3 -5 -7 -37 -8 -73 l-4 -65 35 0 35 0 3 58 c2 35 -2 64
-9 73 -12 15 -45 19 -52 7z"></path>
<path d="M5319 4690 c-1 -11 -2 -25 -3 -32 -1 -6 14 -15 31 -20 25 -7 34 -16
41 -41 l8 -32 70 0 69 0 0 29 c0 25 -5 31 -31 38 -24 6 -33 16 -40 40 -10 33
-10 33 -77 36 -61 3 -67 1 -68 -18z"></path>
<path d="M2599 4878 c0 -2 -1 -70 -1 -153 -1 -136 0 -150 16 -153 10 -2 22 0
26 5 5 4 10 73 12 153 l3 145 -27 3 c-16 2 -28 2 -29 0z"></path>
<path d="M2682 4558 c-18 -18 -16 -117 4 -125 24 -9 32 7 36 72 2 47 0 60 -12
62 -9 2 -21 -2 -28 -9z"></path>
<path d="M2745 4406 c-19 -28 -14 -53 10 -62 24 -10 46 16 43 50 -4 40 -31 46
-53 12z"></path>
<path d="M2752 4237 c-14 -17 -19 -144 -6 -156 5 -5 18 -5 29 -1 18 7 20 16
19 86 0 62 -4 80 -16 82 -8 2 -20 -3 -26 -11z"></path>
<path d="M2667 4063 c-11 -10 -8 -71 3 -78 34 -21 76 39 50 70 -13 16 -42 20
-53 8z"></path>
<path d="M2821 4056 c-7 -8 -11 -27 -9 -43 3 -24 8 -28 33 -28 27 0 30 3 27
30 -6 49 -29 68 -51 41z"></path>
<path d="M2734 3965 c-9 -22 9 -37 37 -33 16 2 24 10 24 23 0 26 -52 35 -61
10z"></path>
<path d="M2493 3684 c-3 -8 -1 -26 6 -40 10 -23 15 -25 78 -22 l68 3 0 30 c0
25 -5 31 -30 36 -60 13 -115 10 -122 -7z"></path>
<path d="M2414 3605 c-4 -9 -1 -28 5 -41 9 -20 17 -25 39 -22 24 3 27 7 27 38
0 32 -3 35 -33 38 -22 2 -34 -2 -38 -13z"></path>
<path d="M2343 3538 c-4 -7 -8 -26 -8 -43 0 -28 -2 -30 -40 -30 l-40 0 0 -40
c0 -39 -1 -40 -35 -40 -33 0 -35 -2 -35 -35 0 -33 2 -35 40 -40 38 -5 40 -7
40 -40 0 -32 2 -35 30 -35 l30 0 0 67 c1 77 11 93 58 93 l32 0 -3 65 c-3 64
-17 90 -48 90 -7 0 -16 -6 -21 -12z m-43 -176 c0 -5 -7 -17 -15 -28 -14 -18
-14 -18 -15 9 0 17 5 27 15 27 8 0 15 -4 15 -8z"></path>
<path d="M2107 3304 c-12 -12 -8 -51 6 -63 8 -6 24 -12 38 -13 22 -3 24 1 24
37 0 37 -2 40 -30 43 -17 2 -34 0 -38 -4z"></path>
<path d="M2027 3223 c-4 -3 -7 -52 -7 -108 0 -113 8 -131 54 -119 26 6 26 7
26 101 0 52 -5 103 -10 114 -10 18 -50 26 -63 12z"></path>
<path d="M3210 1572 c-37 -5 -45 -19 -20 -32 15 -8 78 -13 179 -14 133 -1 156
1 156 14 0 11 -17 17 -65 22 -85 9 -218 14 -250 10z"></path>
<path d="M1552 2488 c-9 -9 -12 -94 -12 -320 0 -277 2 -309 16 -315 9 -3 24
-2 33 4 14 9 16 47 19 307 1 193 -1 304 -8 316 -12 23 -30 26 -48 8z"></path>
<path d="M2979 2483 c-11 -13 -15 -79 -17 -310 -3 -311 -1 -327 42 -321 31 4
37 78 34 369 -2 190 -6 250 -17 262 -17 21 -25 21 -42 0z"></path>
<path d="M889 2476 c-2 -2 -4 -141 -3 -308 0 -325 1 -329 49 -294 19 14 20 27
20 295 0 174 -4 284 -10 289 -12 12 -50 24 -56 18z"></path>
<path d="M2677 1173 c-11 -11 -8 -211 3 -218 17 -10 49 5 62 28 6 12 13 50 14
84 2 50 -1 67 -17 87 -20 25 -48 34 -62 19z"></path>
<path d="M3721 1088 c-12 -29 -36 -302 -28 -320 3 -10 17 -13 42 -10 l37 4 -6
42 c-3 22 -9 99 -12 169 -7 128 -16 158 -33 115z"></path>
</g>
</svg>