 <svg version="1.0" xmlns="http://www.w3.org/2000/svg" width="700.000000pt" height="438.000000pt" viewBox="0 0 700.000000 438.000000" preserveAspectRatio="xMidYMid meet">
<metadata>
Created by potrace 1.12, written by Peter Selinger 2001-2015
</metadata>
<g transform="translate(0.000000,438.000000) scale(0.100000,-0.100000)" fill="#000000" stroke="none">
<path d="M5417 4324 c107 -126 246 -237 393 -316 76 -41 209 -93 217 -85 8 9
-7 27 -21 27 -8 0 -19 6 -26 14 -6 8 -44 31 -83 51 -148 75 -340 220 -423 320
-32 37 -44 45 -72 45 l-34 0 49 -56z"></path>
<path d="M5801 4323 c37 -100 54 -96 22 4 -9 29 -23 53 -30 53 -9 0 -7 -14 8
-57z"></path>
<path d="M5933 4342 c38 -39 50 -65 20 -41 -10 7 -6 0 8 -16 15 -17 43 -66 63
-111 19 -44 54 -115 76 -157 22 -43 40 -81 40 -86 0 -5 -21 -6 -46 -3 -56 6
-54 -12 2 -22 20 -4 46 -12 57 -17 19 -9 212 -317 234 -374 11 -27 206 -319
251 -375 68 -84 157 -172 222 -218 36 -25 78 -56 93 -69 16 -13 33 -23 38 -23
5 0 9 118 9 288 l0 287 -61 70 c-168 193 -279 361 -279 422 0 18 16 27 98 59
53 21 130 52 170 70 l72 33 0 40 c0 45 -5 48 -36 26 -36 -24 -262 -125 -282
-125 -16 0 -20 10 -25 50 -9 76 -39 134 -88 170 -23 17 -47 29 -53 27 -6 -2
-18 15 -27 37 -11 31 -20 40 -35 38 -24 -5 -64 -41 -64 -59 0 -27 -38 6 -70
62 l-31 55 -197 0 -196 0 37 -38z"></path>
<path d="M6780 4372 c0 -25 73 -70 118 -74 17 -1 28 -6 26 -10 -3 -4 1 -8 8
-8 7 0 26 -11 41 -25 l27 -26 0 76 0 75 -110 0 c-60 0 -110 -4 -110 -8z"></path>
<path d="M1440 4350 c0 -5 5 -10 10 -10 6 0 10 -13 10 -30 0 -16 5 -30 10 -30
13 0 13 36 0 61 -11 20 -30 26 -30 9z"></path>
<path d="M3525 4224 l-40 -14 70 5 c39 3 80 5 93 5 12 0 22 5 22 10 0 14 -98
10 -145 -6z"></path>
<path d="M3250 4220 c0 -6 -8 -10 -17 -10 -25 -1 -107 -39 -100 -47 4 -3 29 4
56 16 41 17 66 20 154 18 92 -2 131 4 116 17 -10 9 -209 14 -209 6z"></path>
<path d="M3820 4180 c0 -5 5 -10 10 -10 6 0 10 5 10 10 0 6 -4 10 -10 10 -5 0
-10 -4 -10 -10z"></path>
<path d="M3889 4152 c36 -26 123 -73 127 -70 6 7 -121 88 -136 87 -10 0 -7 -6
9 -17z"></path>
<path d="M3051 4091 c-11 -56 -8 -91 9 -91 13 0 100 39 100 45 0 3 -18 2 -40
-1 -48 -8 -59 9 -43 68 8 29 7 38 -2 38 -7 0 -17 -25 -24 -59z"></path>
<path d="M3397 4139 c-10 -6 -29 -8 -43 -5 -13 4 -24 2 -24 -4 0 -14 45 -23
75 -16 14 4 25 13 25 21 0 18 -8 18 -33 4z"></path>
<path d="M3600 4110 c0 -5 21 -23 46 -41 76 -52 205 -187 278 -291 38 -54 71
-98 73 -98 2 0 -13 30 -33 67 -83 155 -175 266 -277 333 -58 39 -87 49 -87 30z"></path>
<path d="M2950 4058 c-34 -46 -37 -60 -15 -78 18 -15 34 -5 17 12 -8 8 -5 18
13 40 22 26 34 68 20 68 -3 0 -18 -19 -35 -42z"></path>
<path d="M4793 4076 c-15 -13 -25 -27 -22 -30 3 -3 18 8 34 24 35 36 27 40
-12 6z"></path>
<path d="M4945 4032 c-27 -14 -45 -27 -38 -29 7 -3 21 0 32 6 24 14 58 14 66
2 3 -6 -15 -46 -39 -90 -29 -53 -40 -81 -31 -81 12 0 105 160 105 181 0 5 -5
9 -11 9 -7 0 -17 6 -23 14 -9 11 -19 9 -61 -12z"></path>
<path d="M2980 4000 c0 -5 5 -10 10 -10 6 0 10 5 10 10 0 6 -4 10 -10 10 -5 0
-10 -4 -10 -10z"></path>
<path d="M3117 3974 c-26 -21 -47 -45 -47 -55 0 -11 3 -19 8 -19 14 0 102 82
102 96 0 22 -13 17 -63 -22z"></path>
<path d="M4765 3999 c-12 -19 5 -23 22 -6 16 16 16 17 1 17 -9 0 -20 -5 -23
-11z"></path>
<path d="M4823 3980 c-13 -5 -23 -12 -23 -15 0 -11 37 -4 56 10 22 17 4 20
-33 5z"></path>
<path d="M2870 3930 c0 -18 4 -29 10 -25 6 3 10 15 10 25 0 10 -4 22 -10 25
-6 4 -10 -7 -10 -25z"></path>
<path d="M3014 3896 c-7 -19 14 -114 27 -122 16 -10 22 26 13 78 -9 52 -29 73
-40 44z"></path>
<path d="M2923 3857 c-7 -14 -8 -30 -3 -38 7 -10 11 -6 19 14 6 16 11 33 11
38 0 18 -17 9 -27 -14z"></path>
<path d="M4170 3873 c0 -4 18 -42 41 -85 71 -137 136 -356 98 -333 -7 5 -8 -5
-3 -30 5 -28 4 -36 -5 -31 -9 6 -10 -11 -7 -66 7 -98 15 -137 38 -176 11 -18
17 -36 13 -40 -7 -8 -31 20 -81 96 -20 30 -38 51 -41 49 -10 -11 28 -115 58
-156 24 -34 31 -56 35 -104 2 -33 1 -64 -2 -68 -3 -5 -18 7 -35 26 -16 18 -45
39 -62 44 -18 6 -64 43 -102 81 -65 66 -101 88 -89 55 5 -12 0 -12 -40 1 -47
16 -78 42 -38 32 33 -9 16 10 -31 33 -64 33 -191 125 -225 163 -17 19 -50 67
-73 106 -23 40 -55 81 -70 93 -16 11 -31 33 -34 49 -4 15 -11 28 -16 28 -6 0
-8 -8 -5 -17 10 -36 68 -228 72 -242 2 -8 7 -12 9 -9 3 3 -1 33 -9 67 -16 67
-11 75 19 31 11 -16 46 -61 78 -100 33 -39 56 -74 52 -78 -4 -4 -21 -7 -38 -7
-17 0 -32 -6 -35 -14 -4 -11 6 -13 55 -7 65 7 81 2 146 -48 21 -16 36 -35 33
-42 -3 -7 0 -15 7 -18 7 -3 6 -5 -3 -4 -30 2 -116 -45 -144 -79 l-29 -35 36
15 c35 15 36 15 52 -9 13 -21 23 -24 73 -24 65 0 76 5 87 38 7 23 10 23 68 17
34 -4 66 -10 70 -14 12 -11 -12 -143 -28 -155 -7 -6 -23 -60 -35 -121 -31
-161 -63 -212 -190 -308 -30 -23 -76 -58 -101 -79 -25 -20 -73 -49 -107 -64
l-61 -26 -66 27 c-74 29 -116 55 -226 136 -126 94 -152 135 -218 342 -17 54
-43 113 -57 133 -21 27 -25 41 -21 69 3 19 2 35 -3 35 -5 0 -12 -17 -15 -37
-3 -21 -10 -54 -15 -74 -6 -21 -8 -43 -5 -51 3 -8 2 -25 -3 -38 -9 -25 -14
-11 -58 168 -23 89 -39 94 -30 9 7 -67 1 -84 -21 -65 -19 15 -27 4 -19 -29 6
-20 9 -24 16 -13 5 8 11 12 13 10 10 -10 25 -385 17 -401 -5 -9 -19 -40 -30
-69 -24 -62 -5 -55 26 10 10 22 22 40 26 40 15 0 19 -43 8 -96 -7 -31 -9 -66
-6 -80 5 -18 -2 -33 -27 -61 -18 -21 -55 -69 -81 -106 -69 -99 -155 -187 -289
-298 -65 -54 -130 -107 -145 -118 -15 -11 -24 -23 -20 -27 5 -4 16 0 26 9 10
10 22 17 27 17 4 0 26 17 49 38 22 20 102 68 176 106 74 38 129 71 123 73 -6
2 -26 -3 -43 -12 -48 -25 -50 -8 -5 32 22 19 41 30 43 25 2 -7 17 -6 40 0 45
12 188 83 197 97 6 10 49 23 111 34 26 5 33 2 43 -19 19 -42 13 -86 -18 -127
-27 -35 -92 -87 -110 -87 -10 0 -5 -65 8 -118 4 -20 9 -46 9 -57 9 -238 8
-276 -10 -368 -16 -86 -67 -244 -88 -272 -4 -5 -22 -51 -39 -100 -44 -131 -54
-238 -40 -463 6 -103 12 -263 13 -357 l1 -170 766 -3 767 -2 0 162 c0 90 5
206 12 258 13 102 13 368 0 385 -4 6 -13 26 -18 45 -6 19 -21 62 -32 95 -12
33 -26 86 -31 118 -5 32 -18 75 -29 94 -14 27 -17 40 -9 49 8 9 8 22 1 41 -6
15 -11 22 -11 16 -2 -25 -21 -12 -41 27 -13 25 -20 59 -20 97 -1 32 -7 76 -15
98 -12 34 -12 57 1 175 20 168 24 180 66 180 30 0 31 1 12 14 -13 10 -16 18
-9 25 12 12 89 -8 129 -34 14 -9 54 -19 88 -22 44 -4 82 -16 124 -38 94 -50
109 -62 123 -101 9 -25 23 -40 47 -50 21 -9 51 -38 79 -75 42 -57 45 -65 45
-123 0 -33 -4 -68 -10 -76 -11 -17 -11 -17 -35 40 -23 53 -84 147 -114 174
-33 30 -25 8 18 -48 50 -65 89 -144 96 -193 6 -38 -15 -137 -49 -232 -22 -61
-21 -142 3 -172 10 -13 22 -43 26 -66 6 -39 35 -83 35 -54 0 7 6 19 14 27 12
12 15 5 21 -54 13 -139 22 -170 57 -201 37 -34 110 -61 162 -61 19 0 38 -4 41
-10 3 -5 11 -10 17 -10 6 0 7 18 3 50 -4 27 -4 63 0 79 l6 30 22 -22 c18 -18
21 -31 18 -79 -3 -66 14 -79 24 -19 6 37 35 80 35 52 0 -9 5 -9 20 -1 16 9 22
8 27 -5 4 -12 8 -13 13 -5 11 17 76 -27 148 -99 33 -33 84 -73 113 -90 30 -17
70 -46 89 -66 19 -19 38 -35 43 -35 5 0 -30 43 -78 95 -49 53 -85 98 -82 102
4 3 44 6 89 6 62 -1 93 4 121 18 20 11 37 22 37 24 0 3 -12 -1 -27 -9 -57 -29
-87 -29 -139 0 -61 34 -97 59 -71 51 15 -6 17 1 17 57 0 35 7 82 15 105 36
102 155 226 306 321 65 40 109 75 124 99 40 59 74 159 92 263 9 53 19 100 22
105 8 11 90 49 124 57 25 6 27 5 21 -19 -9 -38 10 -30 25 10 6 19 35 67 64
107 51 72 83 140 73 156 -2 4 15 37 40 73 31 44 43 70 39 84 -3 11 -7 59 -9
107 l-2 87 43 42 c24 23 53 59 63 79 11 21 26 40 34 43 19 8 49 65 42 82 -2 7
-27 16 -55 20 -69 9 -88 28 -100 100 -21 124 -70 347 -97 443 -17 57 -41 73
-30 20 4 -18 14 -85 22 -148 8 -63 18 -122 21 -130 12 -30 13 -190 2 -232 -6
-24 -10 -63 -10 -87 1 -26 -4 -50 -13 -60 -22 -25 -38 -98 -31 -145 l7 -42
-79 -4 c-43 -2 -97 -4 -121 -4 -31 -1 -39 -4 -29 -11 10 -7 -18 -11 -90 -12
-96 -3 -110 -1 -175 27 -39 17 -104 57 -146 92 -66 53 -148 99 -216 122 -12 4
-17 13 -13 26 4 16 -3 25 -33 40 -22 11 -53 20 -69 20 -17 0 -68 15 -113 34
-46 18 -114 44 -151 56 -80 26 -236 136 -332 234 -79 81 -212 251 -250 319
-16 30 -47 78 -67 108 -20 30 -42 75 -47 99 -9 39 -8 47 7 60 23 20 39 63 47
129 3 30 15 71 26 93 18 36 19 41 4 72 -14 29 -23 35 -61 41 -24 3 -70 1 -100
-5 -49 -10 -57 -16 -66 -43 l-11 -30 -23 26 c-13 15 -49 70 -80 122 -54 90
-64 104 -64 88z m-240 -812 c0 -13 -27 -21 -71 -21 -42 0 -53 16 -16 23 41 8
87 7 87 -2z m190 -121 c1 11 4 9 10 -5 5 -11 6 -35 3 -54 -4 -24 -2 -32 6 -27
15 10 14 1 -4 -34 -8 -16 -24 -34 -35 -40 -19 -10 -20 -8 -20 33 0 24 5 70 12
103 10 49 13 55 19 34 4 -14 8 -18 9 -10z m108 -12 c8 -8 8 -17 0 -31 -8 -16
-12 -17 -19 -6 -11 18 -12 49 -1 49 4 0 13 -5 20 -12z m-1181 -168 c17 -27 -3
-37 -28 -14 -10 9 -19 21 -19 26 0 16 35 8 47 -12z m788 -367 c-4 -32 2 -92
18 -177 l25 -128 53 -54 c35 -36 67 -58 92 -65 38 -10 38 -10 22 -35 -10 -15
-19 -62 -25 -122 -4 -53 -18 -137 -30 -187 -20 -80 -28 -96 -69 -140 -26 -27
-59 -68 -74 -90 -31 -47 -162 -186 -225 -238 -37 -31 -46 -35 -62 -25 -10 7
-21 20 -23 30 -3 9 -17 20 -31 24 -15 3 -39 18 -54 33 -16 14 -50 44 -76 65
-56 45 -96 122 -122 231 -9 39 -27 108 -40 155 -13 46 -24 110 -24 142 0 54
-18 114 -46 148 -13 15 4 32 124 126 18 15 44 46 58 70 23 40 26 52 20 107 -3
34 -2 77 2 96 l7 34 17 -25 c9 -13 18 -35 20 -48 7 -50 198 -170 270 -170 9 0
21 -7 28 -16 18 -21 50 -37 50 -25 0 13 -65 51 -131 77 -61 24 -184 109 -184
128 0 20 47 18 96 -4 45 -22 48 -22 95 -6 27 9 83 43 124 76 41 32 81 59 88
60 9 0 11 -12 7 -47z m1855 -82 c35 -21 70 -47 78 -59 13 -19 12 -20 -24 -12
-25 6 -54 26 -88 59 -28 28 -46 51 -40 51 6 0 39 -17 74 -39z m740 -181 c13
-9 13 -10 0 -9 -8 0 -24 4 -35 9 l-20 9 20 0 c11 0 27 -4 35 -9z m-1072 -1208
l-11 -27 -10 32 c-5 18 -6 48 -2 70 l8 38 13 -43 c10 -32 10 -50 2 -70z m189
-447 c20 -20 33 -39 29 -42 -4 -4 -26 12 -49 35 -23 23 -36 42 -28 42 7 0 29
-16 48 -35z"></path>
<path d="M3800 2053 c0 -13 72 -79 93 -86 9 -4 17 -5 17 -4 0 2 -25 25 -55 51
-30 26 -55 43 -55 39z"></path>
<path d="M3934 1840 c-20 -13 -58 -23 -100 -27 -58 -5 -73 -11 -103 -39 -45
-40 -33 -56 19 -26 21 12 46 22 54 22 8 0 30 6 48 14 18 8 50 18 70 21 36 6
68 27 68 46 0 15 -23 10 -56 -11z"></path>
<path d="M3225 1830 c-7 -11 52 -50 78 -50 27 0 20 18 -15 40 -37 22 -54 25
-63 10z"></path>
<path d="M3426 1801 c-29 -4 -51 -12 -54 -20 -4 -11 7 -13 52 -9 41 3 60 1 68
-9 18 -22 67 -45 79 -37 14 8 -60 85 -81 82 -8 0 -37 -4 -64 -7z"></path>
<path d="M3301 1549 c-1 -8 12 -36 29 -62 35 -56 197 -227 215 -227 6 0 -27
39 -74 88 -48 48 -100 108 -116 133 -17 26 -35 55 -42 65 -9 15 -12 16 -12 3z"></path>
<path d="M3653 1278 c-13 -6 -23 -15 -23 -20 0 -14 16 -9 41 12 26 21 17 25
-18 8z"></path>
<path d="M217 3823 c-4 -3 -7 -11 -7 -17 0 -6 5 -5 12 2 6 6 9 14 7 17 -3 3
-9 2 -12 -2z"></path>
<path d="M4050 3809 c0 -8 11 -27 25 -44 l25 -30 -11 32 c-12 36 -39 65 -39
42z"></path>
<path d="M2845 3794 c-16 -8 -38 -24 -48 -35 -17 -18 -17 -19 1 -19 10 0 27 9
37 21 l19 20 17 -22 c18 -24 39 -19 39 10 0 16 -18 41 -29 41 -4 0 -19 -7 -36
-16z"></path>
<path d="M2930 3782 c0 -26 11 -34 27 -21 10 9 10 15 2 25 -16 19 -29 17 -29
-4z"></path>
<path d="M2980 3782 c0 -5 9 -17 20 -27 16 -14 20 -15 20 -4 0 16 -19 39 -32
39 -4 0 -8 -4 -8 -8z"></path>
<path d="M5051 3770 c-13 -11 -19 -20 -14 -20 5 0 14 5 20 11 7 7 41 10 92 8
79 -4 104 2 59 15 -51 13 -133 6 -157 -14z"></path>
<path d="M5330 3770 c-8 -5 -12 -11 -9 -14 7 -8 49 5 49 15 0 12 -21 11 -40
-1z"></path>
<path d="M2788 3723 c7 -3 16 -2 19 1 4 3 -2 6 -13 5 -11 0 -14 -3 -6 -6z"></path>
<path d="M3818 3665 c-8 -9 12 -55 24 -55 4 0 8 6 8 13 0 18 -24 50 -32 42z"></path>
<path d="M5603 3658 c-18 -6 -33 -15 -33 -21 0 -5 7 -6 16 -3 9 3 27 9 40 12
13 3 24 10 24 15 0 11 -5 10 -47 -3z"></path>
<path d="M2735 3619 c-9 -17 -15 -37 -13 -46 2 -9 13 5 25 31 25 51 13 65 -12
15z"></path>
<path d="M4020 3630 c6 -11 13 -20 16 -20 2 0 0 9 -6 20 -6 11 -13 20 -16 20
-2 0 0 -9 6 -20z"></path>
<path d="M4085 3640 c3 -5 8 -10 11 -10 2 0 4 5 4 10 0 6 -5 10 -11 10 -5 0
-7 -4 -4 -10z"></path>
<path d="M1540 3600 c0 -22 5 -40 10 -40 6 0 10 18 10 40 0 22 -4 40 -10 40
-5 0 -10 -18 -10 -40z"></path>
<path d="M3116 3597 c-3 -18 -4 -47 0 -63 7 -37 -9 -100 -47 -181 -29 -63 -37
-103 -19 -103 5 0 29 62 53 138 37 113 44 146 40 190 -6 59 -18 68 -27 19z"></path>
<path d="M2887 3486 c-15 -57 -27 -117 -27 -133 0 -16 -5 -34 -12 -41 -9 -9
-9 -18 0 -37 7 -14 12 -37 12 -50 0 -14 4 -25 9 -25 4 0 11 48 14 108 4 59 15
144 27 190 23 96 23 92 12 92 -5 0 -20 -47 -35 -104z"></path>
<path d="M3867 3583 c-9 -2 -15 -8 -12 -12 6 -11 55 -1 55 10 0 9 -13 10 -43
2z"></path>
<path d="M5173 3553 c-33 -4 -44 -18 -21 -25 25 -9 -4 -36 -103 -95 -57 -34
-117 -76 -134 -94 l-30 -32 32 19 c18 10 95 58 171 106 77 48 151 93 166 99
54 25 19 34 -81 22z"></path>
<path d="M2707 3544 c-4 -4 -7 -14 -7 -23 0 -11 3 -12 11 -4 6 6 10 16 7 23
-2 6 -7 8 -11 4z"></path>
<path d="M4110 3523 c0 -12 5 -25 10 -28 13 -8 13 15 0 35 -8 12 -10 11 -10
-7z"></path>
<path d="M2682 3479 c-19 -51 -23 -69 -14 -69 10 0 36 79 28 87 -3 3 -9 -5
-14 -18z"></path>
<path d="M3155 3490 c-3 -5 -1 -17 4 -27 5 -10 22 -43 36 -73 15 -30 38 -73
51 -95 31 -52 30 -63 -3 -68 -23 -3 -22 -4 9 -6 31 -1 46 -11 99 -66 34 -36
69 -65 76 -65 8 0 -11 23 -41 51 -31 28 -56 55 -56 60 0 6 -9 20 -21 32 -24
25 -129 231 -129 253 0 16 -16 19 -25 4z"></path>
<path d="M3040 3450 c0 -5 5 -10 10 -10 6 0 10 5 10 10 0 6 -4 10 -10 10 -5 0
-10 -4 -10 -10z"></path>
<path d="M2671 3365 c-1 -16 -10 -50 -21 -74 -20 -44 -28 -161 -11 -161 11 0
44 208 38 240 -4 23 -4 22 -6 -5z"></path>
<path d="M3930 3374 c0 -10 108 -149 139 -178 58 -55 43 -18 -19 46 -35 35
-74 80 -88 101 -24 35 -32 44 -32 31z"></path>
<path d="M3294 3336 c9 -21 16 -40 16 -42 0 -2 9 -4 20 -4 27 0 26 5 -16 48
l-36 37 16 -39z"></path>
<path d="M3128 3333 c-50 -58 -113 -232 -67 -186 5 5 13 27 16 49 3 21 24 65
45 97 36 53 40 79 6 40z"></path>
<path d="M3192 3319 c18 -24 24 -27 26 -14 4 19 -15 45 -35 45 -10 0 -7 -8 9
-31z"></path>
<path d="M3001 3268 c-11 -34 -19 -64 -16 -66 8 -8 10 -2 33 66 11 34 17 62
12 62 -4 0 -18 -28 -29 -62z"></path>
<path d="M4890 3280 c0 -5 5 -10 10 -10 6 0 10 5 10 10 0 6 -4 10 -10 10 -5 0
-10 -4 -10 -10z"></path>
<path d="M3920 3265 c7 -8 17 -15 22 -15 6 0 5 7 -2 15 -7 8 -17 15 -22 15 -6
0 -5 -7 2 -15z"></path>
<path d="M2807 3253 c-10 -18 -17 -83 -9 -83 8 0 32 57 32 78 0 13 -16 16 -23
5z"></path>
<path d="M3180 3220 c0 -5 7 -10 15 -10 8 0 15 5 15 10 0 6 -7 10 -15 10 -8 0
-15 -4 -15 -10z"></path>
<path d="M3584 3216 c-3 -8 -3 -20 1 -26 4 -6 2 -16 -4 -23 -7 -9 -7 -25 0
-52 25 -98 28 -93 -28 -52 -28 20 -57 37 -66 37 -14 0 -71 57 -93 96 -10 16
-14 17 -25 6 -12 -11 -4 -22 46 -67 33 -30 77 -60 98 -67 26 -8 59 -33 100
-77 33 -36 53 -54 44 -39 -9 15 -17 40 -17 55 0 15 -7 40 -14 55 -8 16 -18 49
-22 75 l-7 48 22 -19 c29 -26 34 -17 12 24 -20 39 -38 49 -47 26z"></path>
<path d="M2942 3208 c-14 -14 -16 -28 -3 -28 9 0 24 30 18 36 -2 2 -9 -2 -15
-8z"></path>
<path d="M4611 3141 c34 -62 130 -148 242 -214 114 -69 201 -134 359 -273 85
-75 122 -102 135 -97 26 10 -41 66 -382 320 -165 123 -317 243 -339 266 l-38
42 23 -44z"></path>
<path d="M4150 3151 c0 -5 7 -15 17 -22 15 -13 15 -12 4 9 -12 23 -21 28 -21
13z"></path>
<path d="M2785 3088 c4 -24 12 -54 18 -68 l11 -25 4 23 c4 28 -19 112 -31 112
-5 0 -6 -19 -2 -42z"></path>
<path d="M3030 3101 c0 -11 -4 -23 -10 -26 -12 -8 -13 -25 -2 -25 9 0 32 44
32 60 0 6 -4 10 -10 10 -5 0 -10 -9 -10 -19z"></path>
<path d="M3130 3113 c-8 -3 -32 -23 -54 -45 -21 -21 -42 -38 -47 -38 -5 0 -9
-4 -9 -10 0 -5 13 -10 29 -10 17 0 33 5 36 10 11 17 25 11 37 -15 6 -14 18
-25 26 -25 11 0 12 3 2 15 -19 23 -5 31 57 30 39 0 58 -4 58 -12 0 -29 20 -16
23 15 3 25 8 32 25 32 15 1 2 11 -38 30 -56 28 -110 36 -145 23z"></path>
<path d="M2620 3100 c0 -5 5 -10 10 -10 6 0 10 5 10 10 0 6 -4 10 -10 10 -5 0
-10 -4 -10 -10z"></path>
<path d="M4190 3090 c6 -11 13 -20 16 -20 2 0 0 9 -6 20 -6 11 -13 20 -16 20
-2 0 0 -9 6 -20z"></path>
<path d="M5187 3089 c7 -7 15 -10 18 -7 3 3 -2 9 -12 12 -14 6 -15 5 -6 -5z"></path>
<path d="M4210 3050 c0 -5 5 -10 11 -10 5 0 7 5 4 10 -3 6 -8 10 -11 10 -2 0
-4 -4 -4 -10z"></path>
<path d="M4007 3044 c-4 -4 -3 -12 2 -18 5 -6 14 -30 20 -53 7 -24 16 -43 21
-43 13 0 13 33 1 46 -5 5 -11 22 -13 38 -3 29 -18 43 -31 30z"></path>
<path d="M3670 2980 c0 -5 5 -10 10 -10 6 0 10 5 10 10 0 6 -4 10 -10 10 -5 0
-10 -4 -10 -10z"></path>
<path d="M2670 2970 c0 -5 5 -10 10 -10 6 0 10 5 10 10 0 6 -4 10 -10 10 -5 0
-10 -4 -10 -10z"></path>
<path d="M2760 2943 c0 -21 -11 -83 -25 -137 -14 -55 -23 -102 -20 -104 8 -8
33 60 44 122 6 32 15 64 21 71 11 13 2 85 -11 85 -5 0 -9 -17 -9 -37z"></path>
<path d="M3530 2930 c0 -5 5 -10 10 -10 6 0 10 5 10 10 0 6 -4 10 -10 10 -5 0
-10 -4 -10 -10z"></path>
<path d="M2561 2866 c-39 -37 -76 -66 -84 -66 -23 0 -91 -92 -107 -145 -2 -5
-10 -15 -19 -22 -9 -7 -12 -13 -7 -13 5 0 36 28 70 63 33 34 94 89 134 122 39
33 75 67 78 77 3 10 10 16 15 13 5 -4 9 1 9 9 0 34 -23 24 -89 -38z"></path>
<path d="M3532 2828 c3 -55 5 -63 23 -63 11 0 21 8 23 18 2 10 -3 17 -12 17
-12 0 -16 11 -16 45 0 25 -5 45 -10 45 -7 0 -10 -24 -8 -62z"></path>
<path d="M2790 2860 c0 -5 5 -10 10 -10 6 0 10 5 10 10 0 6 -4 10 -10 10 -5 0
-10 -4 -10 -10z"></path>
<path d="M3610 2856 c0 -17 14 -29 23 -20 8 8 -3 34 -14 34 -5 0 -9 -6 -9 -14z"></path>
<path d="M2640 2809 c0 -28 -4 -69 -10 -92 -13 -58 -18 -157 -9 -157 11 0 38
93 46 154 5 36 3 47 -5 42 -7 -4 -12 -1 -12 8 0 9 5 16 11 16 11 0 39 24 39
34 0 3 -7 6 -15 6 -8 0 -15 6 -15 14 0 8 -7 16 -15 20 -12 4 -15 -4 -15 -45z"></path>
<path d="M1500 2745 c0 -8 5 -15 10 -15 6 0 10 7 10 15 0 8 -4 15 -10 15 -5 0
-10 -7 -10 -15z"></path>
<path d="M3525 2590 c-4 -6 12 -10 39 -10 25 0 46 5 46 10 0 6 -18 10 -39 10
-22 0 -43 -4 -46 -10z"></path>
<path d="M2573 2479 c-17 -30 -54 -79 -84 -109 -60 -63 -99 -110 -99 -122 0
-21 31 -4 46 25 9 17 40 57 68 87 57 60 110 143 104 162 -2 6 -18 -13 -35 -43z"></path>
<path d="M5870 2447 c0 -3 26 -11 58 -17 31 -6 68 -14 81 -17 15 -4 22 -2 18
4 -4 6 -28 14 -54 17 -27 4 -60 9 -75 12 -16 3 -28 3 -28 1z"></path>
<path d="M729 2373 c-15 -43 -43 -93 -51 -93 -8 0 -21 60 -16 80 2 7 -6 16
-16 18 -16 3 -18 0 -12 -19 3 -13 9 -48 12 -76 6 -44 10 -53 26 -53 11 0 18 5
15 13 -5 13 18 59 58 120 20 29 22 37 10 37 -9 0 -20 -12 -26 -27z"></path>
<path d="M227 2374 c-3 -3 -3 -12 0 -20 3 -8 0 -20 -5 -27 -6 -7 -11 -22 -10
-32 1 -11 -2 -30 -6 -42 -6 -19 -4 -23 13 -23 15 0 21 8 23 31 2 26 9 33 38
43 40 13 52 43 24 63 -18 13 -66 18 -77 7z m63 -24 c13 -9 12 -12 -4 -25 -23
-17 -42 -5 -33 19 7 18 16 20 37 6z"></path>
<path d="M345 2323 c-4 -32 -12 -64 -17 -70 -7 -9 -5 -15 6 -19 24 -9 28 -2
32 57 3 29 9 58 14 64 11 13 3 25 -16 25 -7 0 -15 -23 -19 -57z"></path>
<path d="M420 2375 c0 -4 7 -20 16 -37 16 -32 16 -32 -20 -65 -41 -38 -43 -43
-18 -43 11 0 22 12 29 31 11 27 15 30 28 19 8 -7 15 -21 15 -31 0 -12 7 -19
20 -19 24 0 24 -2 0 46 l-19 39 30 28 c31 29 33 45 4 33 -9 -3 -14 -10 -11
-15 3 -5 -1 -14 -9 -21 -12 -10 -16 -8 -25 14 -8 22 -40 38 -40 21z"></path>
<path d="M569 2378 c0 -2 -2 -25 -5 -52 -3 -27 -9 -57 -14 -67 -14 -26 -12
-31 11 -27 17 2 21 11 24 48 2 25 6 57 10 73 6 21 4 27 -9 27 -9 0 -16 -1 -17
-2z"></path>
<path d="M828 2374 c-4 -3 -4 -12 -1 -20 3 -8 1 -20 -5 -27 -6 -6 -10 -23 -10
-37 1 -14 -2 -33 -7 -43 -6 -16 -4 -18 16 -15 19 2 23 9 24 38 0 30 3 35 23
33 13 -2 22 3 22 11 0 8 -8 13 -17 12 -10 0 -18 6 -18 14 0 10 10 15 32 15 18
0 34 5 35 10 3 11 -84 20 -94 9z"></path>
<path d="M987 2353 c-9 -15 -22 -42 -30 -59 -8 -17 -20 -35 -26 -38 -18 -11
-13 -26 8 -26 13 0 21 8 23 22 2 17 10 23 31 25 23 1 27 -2 27 -23 0 -17 5
-24 20 -24 23 0 24 1 9 34 -9 19 -9 29 0 40 9 11 8 15 -4 20 -10 3 -15 15 -13
28 5 34 -27 35 -45 1z m19 -49 c-4 -12 -10 -14 -17 -7 -5 5 -7 17 -3 27 4 12
10 14 17 7 5 -5 7 -17 3 -27z"></path>
<path d="M1118 2373 c0 -4 -2 -12 -3 -18 -4 -29 -17 -92 -21 -107 -4 -13 0
-18 13 -18 16 0 18 7 15 52 -4 61 9 57 30 -7 7 -22 17 -40 23 -40 5 0 13 18
17 40 17 85 17 85 46 83 15 -1 30 -3 33 -5 6 -3 -3 -60 -17 -105 -4 -13 0 -18
15 -18 18 0 21 6 21 46 0 58 15 87 41 79 13 -5 19 -2 19 10 0 15 -10 16 -77
13 l-78 -4 -5 -33 c-7 -43 -21 -44 -35 -2 -11 32 -33 53 -37 34z"></path>
<path d="M1419 2373 c-1 -4 -1 -11 -1 -14 1 -4 -8 -15 -18 -24 -11 -10 -20
-26 -20 -35 0 -9 -9 -25 -20 -35 -11 -10 -20 -22 -20 -27 0 -4 9 -8 20 -8 15
0 20 7 20 24 0 21 5 25 30 24 25 -1 30 -5 30 -25 0 -16 6 -23 20 -23 23 0 23
0 10 36 -7 18 -7 30 0 39 8 9 6 14 -5 19 -10 3 -15 15 -13 28 2 15 -3 24 -14
26 -10 2 -19 0 -19 -5z m11 -52 c0 -22 -16 -36 -24 -22 -8 12 3 41 15 41 5 0
9 -9 9 -19z"></path>
<path d="M1543 2365 c-34 -24 -29 -52 12 -69 38 -16 43 -27 20 -46 -13 -10
-19 -9 -35 5 -15 13 -24 15 -31 8 -19 -19 0 -33 41 -33 71 0 92 71 27 88 -17
4 -32 13 -35 20 -6 18 28 27 49 14 12 -8 20 -8 25 -1 8 13 5 16 -26 24 -16 3
-34 0 -47 -10z"></path>
<path d="M1659 2378 c0 -2 -2 -25 -5 -52 -3 -27 -9 -57 -14 -67 -14 -26 -13
-29 13 -29 19 0 22 5 22 38 0 20 4 54 8 75 6 30 5 37 -8 37 -8 0 -15 -1 -16
-2z"></path>
<path d="M1770 2366 c0 -9 -9 -25 -21 -37 -11 -11 -18 -23 -15 -26 3 -3 -3
-18 -14 -33 -25 -35 -25 -40 1 -40 15 0 19 4 14 19 -8 25 7 33 39 21 17 -6 24
-14 20 -25 -5 -11 1 -15 20 -15 24 0 26 2 16 21 -6 11 -10 30 -9 42 2 12 -2
31 -8 42 -6 11 -11 25 -11 30 -1 17 -32 18 -32 1z m13 -50 c6 -16 -2 -28 -14
-20 -12 7 -11 34 0 34 5 0 11 -6 14 -14z"></path>
<path d="M1937 2373 c-14 -14 -6 -25 14 -20 20 5 21 3 15 -44 -4 -27 -9 -56
-12 -64 -5 -11 1 -15 18 -15 21 0 24 4 20 28 -2 15 0 43 6 62 7 28 13 34 30
33 14 -2 22 3 22 12 0 11 -13 15 -53 15 -30 0 -57 -3 -60 -7z"></path>
<path d="M2533 2278 c-37 -35 -91 -82 -118 -106 l-50 -43 44 23 c49 26 209
172 200 182 -4 4 -38 -21 -76 -56z"></path>
<path d="M6326 2331 c-6 -8 5 -20 33 -36 9 -5 7 1 -4 19 -19 29 -21 30 -29 17z"></path>
<path d="M2369 2204 c-13 -14 -60 -47 -104 -73 -143 -85 -229 -151 -196 -151
50 0 351 224 329 245 -2 3 -15 -7 -29 -21z"></path>
<path d="M2300 2200 c0 -5 5 -10 10 -10 6 0 10 5 10 10 0 6 -4 10 -10 10 -5 0
-10 -4 -10 -10z"></path>
<path d="M2629 2178 c-7 -18 -63 -81 -123 -140 -60 -60 -106 -108 -102 -108
26 0 266 246 266 272 0 21 -29 4 -41 -24z"></path>
<path d="M1616 2174 c-11 -27 -7 -37 9 -24 16 14 20 40 6 40 -5 0 -12 -7 -15
-16z"></path>
<path d="M2315 2109 c-20 -18 -33 -34 -30 -37 3 -3 13 2 22 10 10 8 26 18 36
21 9 4 17 13 17 22 0 21 -4 19 -45 -16z"></path>
<path d="M2420 2050 c0 -5 5 -10 10 -10 6 0 10 5 10 10 0 6 -4 10 -10 10 -5 0
-10 -4 -10 -10z"></path>
<path d="M6818 2047 c-122 -40 -318 -191 -318 -243 0 -26 19 -14 49 29 32 47
81 89 128 109 15 7 50 27 76 45 67 45 125 53 205 28 13 -5 22 -3 22 3 0 30
-103 49 -162 29z"></path>
<path d="M1580 2014 c-19 -14 -50 -39 -67 -56 -32 -31 -33 -31 -53 -13 -19 18
-20 18 -20 -2 0 -24 37 -60 48 -47 5 5 20 26 36 47 15 20 32 37 37 37 15 0 69
40 69 51 0 14 -11 10 -50 -17z"></path>
<path d="M1794 1980 c-56 -27 -92 -52 -118 -82 l-37 -43 58 -3 c67 -4 123 5
123 18 0 6 -25 10 -55 10 -59 0 -71 13 -37 42 18 16 126 62 175 74 15 3 27 10
27 15 0 19 -58 6 -136 -31z"></path>
<path d="M1997 2001 c-21 -10 -38 -22 -37 -26 1 -4 -4 -12 -12 -16 -9 -6 -6
-9 12 -9 23 -1 23 -2 -7 -15 -18 -8 -33 -19 -33 -24 0 -6 -7 -8 -15 -5 -9 4
-15 1 -15 -7 0 -7 -7 -21 -17 -31 -24 -27 0 -23 73 11 67 32 84 48 63 62 -11
7 -5 17 26 44 32 28 36 35 20 34 -11 0 -37 -9 -58 -18z"></path>
<path d="M6956 1968 c-28 -36 -26 -48 10 -48 20 0 24 4 19 19 -3 11 -1 22 5
26 12 8 13 35 1 35 -5 0 -21 -14 -35 -32z"></path>
<path d="M1655 1960 c-3 -5 -1 -10 4 -10 6 0 11 5 11 10 0 6 -2 10 -4 10 -3 0
-8 -4 -11 -10z"></path>
<path d="M2046 1951 c-17 -19 -17 -19 3 -14 12 3 21 12 21 19 0 18 -4 18 -24
-5z"></path>
<path d="M2355 1950 c-10 -11 -14 -20 -8 -20 5 0 18 9 28 20 10 11 14 20 8 20
-5 0 -18 -9 -28 -20z"></path>
<path d="M1325 1930 c3 -5 11 -10 16 -10 6 0 7 5 4 10 -3 6 -11 10 -16 10 -6
0 -7 -4 -4 -10z"></path>
<path d="M2205 1864 c-49 -42 -113 -98 -140 -125 -28 -27 -56 -49 -62 -49 -6
0 -29 -21 -49 -47 -74 -93 -96 -112 -150 -128 -29 -8 -56 -20 -59 -25 -10 -15
16 -11 63 10 l42 19 -11 -20 c-6 -11 -8 -27 -5 -34 2 -7 1 -26 -4 -42 -42
-127 -53 -183 -63 -308 -18 -236 -15 -311 14 -375 49 -105 155 -195 254 -215
17 -4 5 4 -26 18 -100 42 -153 96 -199 200 -23 52 -37 145 -26 173 6 15 11 11
32 -19 23 -35 44 -41 44 -15 0 6 7 19 15 28 12 13 25 15 67 10 39 -5 59 -3 75
7 27 18 103 23 103 7 0 -6 18 -47 40 -92 22 -44 40 -91 40 -105 0 -13 7 -30
16 -38 16 -13 16 -50 0 -94 -4 -11 2 -4 13 15 l20 35 1 -46 c0 -42 -23 -131
-40 -154 -18 -23 -59 -127 -46 -116 11 9 15 7 19 -10 9 -35 40 -8 83 73 21 40
40 66 41 58 3 -15 -69 -245 -101 -325 l-17 -40 26 30 c14 17 25 33 25 38 0 4
5 7 10 7 6 0 10 -9 10 -19 0 -11 4 -22 9 -26 6 -3 6 -18 0 -38 -15 -54 -12
-87 10 -87 21 0 31 26 31 81 0 20 10 68 21 105 17 53 23 64 29 49 6 -17 10
-14 35 23 16 24 32 39 36 35 10 -10 29 -168 29 -240 0 -29 4 -53 9 -53 13 0
25 157 19 242 -3 38 -1 86 4 106 23 85 30 196 33 527 2 193 6 364 10 380 12
62 17 355 6 355 -6 0 -12 -13 -13 -30 -1 -16 -3 -45 -5 -62 -2 -18 -4 -46 -4
-63 -1 -24 -3 -20 -13 20 -16 63 -31 92 -56 105 -18 10 -26 2 -71 -67 -32 -49
-56 -77 -66 -75 -8 2 -26 -4 -40 -13 -18 -12 -23 -13 -18 -4 4 8 -12 -4 -36
-26 -23 -22 -38 -33 -33 -25 6 8 14 24 18 35 15 46 -46 -45 -95 -140 -28 -55
-53 -102 -56 -105 -14 -13 11 110 33 164 25 60 36 123 24 128 -4 2 -2 35 3 73
l10 71 65 39 c36 21 60 41 53 43 -6 2 -40 -14 -74 -35 -64 -40 -97 -56 -97
-47 0 20 58 102 119 169 10 11 19 23 19 28 4 22 39 76 70 110 58 60 24 42 -73
-39z m285 -1397 c-15 -110 -34 -138 -25 -39 6 72 23 138 32 128 3 -3 0 -43 -7
-89z"></path>
<path d="M1385 1901 c-2 -5 13 -20 35 -35 22 -14 40 -34 40 -44 0 -15 83 -112
96 -112 2 0 4 7 4 15 0 11 7 14 25 9 30 -7 33 6 6 23 -11 7 -52 41 -93 76 -75
65 -104 82 -113 68z"></path>
<path d="M2280 1885 c-13 -14 -21 -27 -18 -30 2 -3 17 9 33 25 16 17 24 30 19
30 -6 0 -21 -11 -34 -25z"></path>
<path d="M2357 1903 c-10 -9 -9 -23 2 -23 5 0 11 7 15 15 5 15 -5 20 -17 8z"></path>
<path d="M1957 1842 c-29 -35 -49 -50 -80 -57 -22 -6 -42 -16 -45 -23 -3 -9 3
-10 22 -2 39 15 43 -8 4 -24 -30 -13 -80 -56 -65 -56 4 0 22 9 41 20 27 14 34
16 29 5 -3 -8 -8 -15 -12 -15 -4 0 -23 -19 -41 -42 -21 -25 -27 -39 -17 -35 9
4 23 10 31 13 11 4 16 -4 18 -28 l4 -33 15 35 c9 19 23 56 33 81 15 42 52 109
100 182 30 45 4 31 -37 -21z"></path>
<path d="M2310 1860 c0 -5 4 -10 9 -10 6 0 13 5 16 10 3 6 -1 10 -9 10 -9 0
-16 -4 -16 -10z"></path>
<path d="M1789 1823 c-76 -38 -159 -93 -215 -142 -61 -53 -52 -63 12 -13 57
45 183 122 199 122 6 0 24 14 40 30 35 37 33 37 -36 3z"></path>
<path d="M6623 1792 c-58 -19 -85 -38 -38 -28 17 3 56 12 88 19 31 6 57 15 57
19 0 13 -51 7 -107 -10z"></path>
<path d="M2618 1772 c-29 -29 -64 -109 -54 -119 9 -9 21 6 36 47 7 19 22 48
33 63 26 38 17 43 -15 9z"></path>
<path d="M1766 1732 c-9 -18 -15 -39 -13 -45 2 -7 12 3 21 21 9 18 15 39 13
45 -2 7 -12 -3 -21 -21z"></path>
<path d="M2471 1682 c-12 -18 -19 -32 -14 -32 4 0 1 -5 -7 -10 -9 -6 -10 -10
-3 -10 6 0 15 5 18 10 4 6 15 8 26 5 20 -7 22 1 10 45 l-7 24 -23 -32z"></path>
<path d="M4285 1700 c-4 -6 5 -10 19 -10 14 0 26 5 26 10 0 6 -9 10 -19 10
-11 0 -23 -4 -26 -10z"></path>
<path d="M1665 1690 c-3 -5 3 -14 14 -19 23 -13 31 -14 31 -3 0 13 -39 32 -45
22z"></path>
<path d="M4250 1680 c-8 -5 -12 -12 -9 -15 4 -3 12 1 19 10 14 17 11 19 -10 5z"></path>
<path d="M1730 1650 c0 -5 5 -10 10 -10 6 0 10 5 10 10 0 6 -4 10 -10 10 -5 0
-10 -4 -10 -10z"></path>
<path d="M1435 1641 c-6 -11 9 -23 19 -14 9 9 7 23 -3 23 -6 0 -12 -4 -16 -9z"></path>
<path d="M4385 1640 c3 -5 8 -10 11 -10 2 0 4 5 4 10 0 6 -5 10 -11 10 -5 0
-7 -4 -4 -10z"></path>
<path d="M1480 1578 c-12 -22 -12 -22 6 -6 10 10 15 20 12 24 -4 3 -12 -5 -18
-18z"></path>
<path d="M0 1581 c0 -12 110 -63 124 -58 6 2 -17 18 -51 35 -68 35 -73 36 -73
23z"></path>
<path d="M4460 1563 c0 -6 9 -21 20 -34 15 -18 19 -20 20 -8 0 9 -9 24 -20 34
-11 10 -20 13 -20 8z"></path>
<path d="M1704 1465 c-10 -8 -14 -15 -8 -15 6 0 17 7 24 15 16 19 9 19 -16 0z"></path>
<path d="M1680 1395 c0 -14 5 -25 10 -25 6 0 10 11 10 25 0 14 -4 25 -10 25
-5 0 -10 -11 -10 -25z"></path>
<path d="M1742 1343 c-11 -11 -17 -11 -28 -2 -22 18 -27 4 -14 -35 11 -35 30
-49 30 -23 0 6 7 25 15 41 17 33 16 41 -3 19z"></path>
<path d="M6680 1301 c0 -5 6 -11 13 -14 8 -3 4 -13 -12 -31 -31 -34 -19 -33
26 1 32 25 34 28 17 40 -21 15 -44 17 -44 4z"></path>
<path d="M4603 1220 c28 -138 37 -191 37 -222 0 -22 5 -38 11 -38 25 0 -14
248 -43 275 -7 7 -9 3 -5 -15z"></path>
<path d="M4270 1186 c0 -8 5 -18 10 -21 6 -3 10 1 10 9 0 8 -4 18 -10 21 -5 3
-10 -1 -10 -9z"></path>
<path d="M976 1160 c14 -14 104 -25 104 -13 0 10 -53 23 -94 23 -13 0 -17 -3
-10 -10z"></path>
<path d="M6565 1130 c-3 -5 -1 -10 4 -10 6 0 11 5 11 10 0 6 -2 10 -4 10 -3 0
-8 -4 -11 -10z"></path>
<path d="M4350 1053 c0 -7 23 -39 51 -70 75 -84 149 -114 195 -78 18 15 17 16
-13 10 -59 -12 -103 10 -170 82 -34 38 -62 62 -63 56z"></path>
<path d="M4785 808 c11 -94 38 -208 52 -226 13 -15 14 -15 8 8 -12 49 -35 176
-41 223 -3 26 -10 47 -16 47 -6 0 -8 -19 -3 -52z"></path>
<path d="M4445 600 c-7 -12 11 -40 26 -40 14 0 10 26 -5 39 -10 9 -16 9 -21 1z"></path>
<path d="M6055 580 c3 -5 28 -22 56 -37 29 -15 56 -38 62 -53 9 -21 11 -22 14
-7 8 31 -36 68 -113 97 -15 6 -23 6 -19 0z"></path>
<path d="M4850 546 c0 -9 5 -16 10 -16 6 0 10 4 10 9 0 6 -4 13 -10 16 -5 3
-10 -1 -10 -9z"></path>
<path d="M2110 478 c-12 -24 -32 -54 -44 -68 -19 -23 -19 -24 -1 -9 11 9 25
14 32 12 12 -4 69 64 61 73 -3 3 -16 -11 -28 -30 -12 -20 -26 -36 -31 -36 -6
0 -2 12 9 28 19 26 37 72 30 72 -3 0 -15 -19 -28 -42z"></path>
<path d="M4860 506 c0 -17 54 -173 62 -181 12 -12 11 -5 -23 108 -13 42 -27
77 -31 77 -4 0 -8 -2 -8 -4z"></path>
<path d="M4437 480 c3 -11 9 -20 14 -20 11 0 11 3 3 24 -9 23 -23 20 -17 -4z"></path>
<path d="M4450 430 c0 -5 5 -10 10 -10 6 0 10 5 10 10 0 6 -4 10 -10 10 -5 0
-10 -4 -10 -10z"></path>
<path d="M6240 431 c0 -5 12 -11 28 -14 30 -7 55 -22 149 -92 35 -25 60 -39
57 -31 -3 8 -38 38 -77 67 -89 65 -157 95 -157 70z"></path>
<path d="M5260 409 c0 -6 18 -34 41 -63 39 -48 40 -51 19 -54 -12 -2 -30 4
-39 12 -19 17 -31 20 -31 8 0 -4 9 -12 20 -17 123 -61 270 -166 343 -244 27
-29 54 -50 60 -48 17 5 -68 92 -160 164 -46 36 -121 107 -168 159 -47 52 -85
89 -85 83z"></path>
<path d="M4470 357 c0 -2 9 -30 20 -62 11 -32 18 -60 16 -63 -4 -4 10 -41 53
-134 11 -26 21 -51 21 -56 0 -5 8 -16 17 -23 15 -12 16 -12 10 6 -3 11 -15 53
-27 94 -11 40 -27 86 -35 101 -8 16 -24 53 -36 84 -11 31 -25 56 -30 56 -5 0
-9 -2 -9 -3z"></path>
<path d="M4930 296 c0 -8 5 -18 10 -21 6 -3 10 1 10 9 0 8 -4 18 -10 21 -5 3
-10 -1 -10 -9z"></path>
<path d="M2112 255 c-30 -62 -27 -71 4 -12 14 27 24 51 22 53 -3 2 -14 -17
-26 -41z"></path>
<path d="M6515 250 c-12 -19 16 -40 51 -40 23 0 34 5 34 15 0 28 -71 48 -85
25z"></path>
<path d="M2070 159 c-11 -26 -11 -32 1 -40 10 -6 19 1 32 27 10 20 16 38 14
41 -3 2 -8 -5 -12 -16 -3 -12 -11 -21 -16 -21 -6 0 -7 9 -4 20 10 31 -1 23
-15 -11z"></path>
<path d="M2362 100 c0 -14 2 -19 5 -12 2 6 2 18 0 25 -3 6 -5 1 -5 -13z"></path>
<path d="M5330 15 c0 -8 5 -15 10 -15 6 0 10 7 10 15 0 8 -4 15 -10 15 -5 0
-10 -7 -10 -15z"></path>
</g>
</svg>