 <svg version="1.0" xmlns="http://www.w3.org/2000/svg" width="700.000000pt" height="438.000000pt" viewBox="0 0 700.000000 438.000000" preserveAspectRatio="xMidYMid meet">
<metadata>
Created by potrace 1.12, written by Peter Selinger 2001-2015
</metadata>
<g transform="translate(0.000000,438.000000) scale(0.100000,-0.100000)" fill="#000000" stroke="none">
<path d="M0 2190 l0 -2190 270 0 270 0 0 2190 0 2190 -270 0 -270 0 0 -2190z"></path>
<path d="M3217 4366 c-10 -8 -45 -22 -78 -32 -60 -18 -77 -34 -37 -34 21 0
168 65 168 75 0 10 -35 4 -53 -9z"></path>
<path d="M4652 4369 c2 -6 8 -10 13 -10 5 0 11 4 13 10 2 6 -4 11 -13 11 -9 0
-15 -5 -13 -11z"></path>
<path d="M4790 4365 c-7 -8 -8 -15 -2 -15 5 0 15 7 22 15 7 8 8 15 2 15 -5 0
-15 -7 -22 -15z"></path>
<path d="M4917 4373 c-10 -9 -9 -23 1 -23 5 0 17 7 28 15 19 14 19 14 -2 15
-11 0 -24 -3 -27 -7z"></path>
<path d="M5170 4371 c0 -4 11 -6 25 -3 14 2 25 6 25 8 0 2 -11 4 -25 4 -14 0
-25 -4 -25 -9z"></path>
<path d="M5428 4373 c6 -2 18 -2 25 0 6 3 1 5 -13 5 -14 0 -19 -2 -12 -5z"></path>
<path d="M6468 3988 l-3 -393 -30 3 c-40 5 -42 8 -17 35 22 24 29 47 14 47 -5
0 -19 -11 -32 -25 -52 -56 -147 -67 -239 -29 -20 8 -38 11 -43 6 -12 -12 53
-60 107 -79 57 -19 63 -29 27 -47 -41 -21 -56 -48 -81 -149 -41 -165 -122
-287 -191 -287 -25 0 -30 -4 -30 -24 0 -14 5 -28 11 -32 18 -11 -11 -24 -54
-24 -21 0 -74 -14 -118 -31 -58 -22 -91 -30 -115 -26 -19 3 -34 2 -34 -3 0
-10 25 -20 50 -20 9 0 23 -6 29 -14 16 -19 -95 -96 -140 -96 -22 0 -42 -9 -60
-26 -31 -30 -112 -55 -152 -47 -16 3 -27 1 -27 -5 0 -14 63 -26 99 -19 39 8
57 -15 66 -80 6 -44 4 -53 -8 -53 -9 0 -19 5 -22 10 -21 34 -121 -13 -173 -82
-18 -24 -51 -67 -73 -96 -50 -66 -115 -108 -191 -124 -32 -7 -58 -16 -58 -21
0 -10 72 -5 155 9 l40 7 -40 -42 c-50 -53 -168 -112 -235 -119 -77 -7 -56 -26
36 -32 l79 -5 -30 -21 c-38 -27 -151 -65 -171 -57 -8 3 -27 0 -42 -6 -20 -8
-36 -9 -55 -2 -35 14 -47 -5 -13 -21 23 -10 37 -38 19 -38 -21 0 -98 57 -137
102 -25 29 -48 49 -52 45 -18 -18 33 -105 98 -169 40 -40 68 -76 68 -88 0 -17
-3 -19 -17 -11 -25 14 -93 80 -121 116 -23 29 -23 29 -19 5 3 -14 10 -45 17
-70 13 -44 7 -121 -8 -119 -7 0 -60 63 -140 168 -58 74 -101 161 -109 216 -3
27 -11 45 -19 45 -14 0 -19 -25 -30 -135 -10 -112 -85 -243 -169 -295 -19 -12
-37 -31 -40 -43 -4 -12 -33 -47 -65 -77 l-58 -55 -6 50 c-3 28 -9 67 -12 87
-5 30 -1 47 21 84 15 25 24 48 21 52 -4 3 -32 -20 -64 -51 -32 -31 -61 -57
-66 -57 -4 0 -5 24 -1 53 6 41 15 61 45 93 38 41 70 93 70 114 0 21 -16 9 -42
-33 -33 -53 -64 -82 -72 -69 -3 5 1 15 9 22 27 22 16 31 -17 13 -26 -13 -65
-18 -178 -21 -127 -3 -152 -6 -201 -28 -84 -36 -104 -28 -53 23 32 32 22 43
-17 20 -38 -21 -59 -22 -59 -2 0 31 42 103 85 145 77 75 50 84 -44 15 -71 -52
-77 -48 -68 41 5 53 5 54 -31 81 -53 39 -62 52 -62 95 0 39 -13 51 -24 22 -3
-9 -6 -29 -6 -45 0 -49 -26 -35 -34 17 -15 113 1 200 46 250 11 12 15 24 10
28 -13 8 -43 -27 -92 -108 -67 -111 -82 -160 -71 -240 11 -81 -5 -102 -34 -46
-24 47 -79 78 -164 91 -66 11 -81 17 -112 48 -20 20 -41 45 -47 56 -6 11 -13
17 -17 13 -3 -3 -1 -15 6 -27 14 -21 8 -38 -9 -27 -19 11 -62 117 -62 151 0
19 -4 35 -10 35 -5 0 -10 -11 -10 -24 0 -38 -17 -40 -36 -4 -29 56 -94 139
-105 133 -5 -4 -1 -18 11 -35 22 -31 25 -40 11 -40 -6 0 -31 28 -57 61 -57 74
-111 102 -229 119 -107 15 -171 37 -199 67 -14 15 -29 22 -36 18 -19 -12 44
-69 116 -106 35 -17 64 -35 63 -38 0 -3 -21 -20 -46 -36 -53 -35 -71 -62 -32
-49 31 11 83 8 137 -7 46 -13 58 -39 17 -39 -34 0 -31 -13 8 -32 49 -25 177
-146 177 -170 0 -25 23 -67 82 -148 30 -40 44 -68 38 -74 -6 -6 -15 -4 -25 4
-25 21 -30 2 -6 -24 l22 -24 -22 -16 c-13 -9 -27 -16 -32 -16 -40 0 -447 -240
-657 -387 -147 -102 -368 -242 -487 -307 -67 -36 -172 -96 -235 -134 -62 -37
-195 -114 -295 -171 -100 -57 -180 -108 -177 -113 8 -12 301 149 534 292 47
29 123 73 170 98 124 66 312 184 577 363 213 143 545 339 574 339 22 0 1 -44
-104 -212 -23 -37 -77 -127 -121 -200 -142 -239 -323 -525 -391 -618 -51 -70
-58 -81 -49 -90 5 -5 68 -35 139 -68 72 -32 151 -74 176 -92 25 -19 55 -40 65
-46 18 -11 18 -13 -10 -43 -34 -36 -32 -40 44 -65 104 -35 104 -35 70 -164
-46 -171 -97 -290 -163 -374 l-29 -38 59 0 60 0 31 93 c31 89 51 156 90 302
19 68 48 105 72 90 17 -10 12 -95 -11 -181 -21 -79 -22 -179 -3 -271 l7 -33
73 0 74 0 0 43 c0 44 34 256 51 319 11 43 59 83 88 73 10 -3 26 -14 36 -25 18
-20 17 -23 -19 -118 -21 -53 -49 -133 -62 -177 -13 -44 -27 -88 -30 -97 -4
-15 1 -18 34 -18 42 0 46 2 255 139 61 40 127 80 145 88 29 12 33 18 27 40 -3
14 -17 42 -31 62 -13 19 -24 40 -24 44 0 22 -64 87 -105 106 -43 20 -182 58
-434 117 -174 41 -230 66 -376 172 -22 16 -71 43 -110 59 -142 61 -155 68
-155 81 0 7 19 39 43 70 100 132 506 796 538 879 11 29 16 27 38 -22 15 -32
206 -215 274 -262 18 -12 49 -34 70 -48 36 -24 38 -29 33 -61 -11 -56 11 -39
24 19 16 75 63 199 78 204 15 6 72 -4 92 -17 13 -8 12 -11 -4 -23 -24 -18 -15
-32 34 -57 30 -16 59 -20 127 -20 95 0 133 -14 133 -50 0 -27 30 -100 41 -100
5 0 9 15 9 34 0 19 4 37 9 41 11 6 61 -44 61 -60 0 -5 11 -37 24 -70 13 -33
34 -91 46 -130 32 -99 101 -239 154 -311 52 -72 189 -190 261 -227 77 -39 114
-84 136 -164 18 -65 22 -72 124 -171 73 -71 105 -109 105 -125 0 -22 -5 -24
-120 -36 -66 -7 -120 -16 -120 -20 0 -4 35 -13 78 -19 114 -18 228 -66 279
-119 36 -36 49 -43 81 -43 31 0 41 5 50 24 27 59 85 107 197 161 61 31 126 70
144 89 33 34 72 124 151 351 80 227 92 258 132 333 61 115 111 184 197 275
120 127 318 316 402 383 90 73 147 139 155 183 12 60 28 50 55 -34 23 -70 69
-191 123 -322 25 -61 46 -118 46 -126 0 -25 -91 -83 -370 -235 -36 -20 -126
-64 -200 -98 -270 -123 -327 -153 -368 -198 -75 -81 -80 -99 -92 -332 -9 -176
-13 -213 -29 -234 -18 -26 -91 -55 -351 -142 -125 -42 -150 -53 -150 -69 0 -5
123 -9 273 -9 l273 0 12 48 c39 145 75 239 107 277 22 26 37 36 44 30 5 -6 15
-88 22 -182 l13 -173 53 0 53 0 0 117 c0 74 -6 140 -16 181 -20 78 -15 203 11
277 23 69 83 185 108 213 11 12 39 27 61 33 156 40 304 99 413 165 40 24 77
44 81 44 5 0 22 10 37 22 25 19 27 26 21 66 -3 25 -10 50 -15 56 -5 6 -12 27
-16 48 -6 32 -4 38 18 53 14 9 28 22 30 29 5 11 -41 132 -97 258 -21 49 -21
121 1 139 25 21 146 189 168 234 11 22 46 80 78 129 31 49 57 92 57 96 0 16
82 81 98 78 10 -2 27 -27 39 -58 l22 -55 -2 -625 -2 -625 -45 -24 c-255 -137
-500 -243 -620 -270 -126 -29 -149 -40 -172 -84 -34 -64 -58 -129 -58 -158 0
-21 19 -41 99 -103 78 -61 221 -156 236 -156 2 0 33 -18 69 -40 l66 -40 160 0
c88 0 160 2 160 4 0 6 -57 274 -71 332 -7 29 -9 59 -6 67 5 14 163 117 179
117 4 0 8 -117 8 -260 l0 -260 265 0 265 0 0 2190 0 2190 -265 0 -265 0 -2
-392z m2 -515 c0 -21 -13 -39 -49 -71 -77 -65 -79 -24 -4 59 42 46 53 49 53
12z m0 -633 c0 -599 1 -591 -42 -557 -9 6 -29 44 -44 82 -15 39 -53 125 -85
193 -48 101 -55 124 -43 129 9 3 31 -1 50 -10 20 -10 36 -12 39 -7 10 16 -5
31 -51 52 -24 10 -44 22 -44 27 0 4 13 17 29 28 34 26 107 170 116 231 4 23 4
42 1 42 -3 0 -19 -29 -36 -65 -17 -36 -35 -63 -40 -60 -5 3 2 37 16 76 13 40
31 122 40 183 16 109 60 226 84 226 7 0 10 -202 10 -570z m-3390 -495 c0 -16
-6 -25 -15 -25 -16 0 -19 9 -9 34 9 25 24 19 24 -9z m1230 -330 c0 -8 -7 -15
-15 -15 -8 0 -15 7 -15 15 0 8 7 15 15 15 8 0 15 -7 15 -15z m640 -675 c28
-16 55 -30 60 -30 13 0 13 27 0 35 -20 12 1 25 41 25 38 0 39 -1 39 -34 0 -42
-44 -132 -71 -147 -52 -27 -124 -92 -209 -187 -56 -62 -98 -101 -106 -98 -8 3
-36 8 -63 12 l-49 6 -80 -76 c-43 -42 -87 -76 -96 -76 -56 0 -76 46 -76 179 0
127 -18 331 -29 345 -6 7 -6 18 -2 25 7 11 23 10 87 -5 44 -10 85 -22 92 -27
32 -24 -6 -77 -55 -77 -13 0 -23 -5 -23 -10 0 -7 20 -10 50 -9 62 3 72 -5 31
-28 -17 -10 -31 -21 -31 -24 0 -4 38 -10 84 -14 103 -8 118 -1 175 91 42 66
68 84 57 39 -4 -16 -2 -25 5 -25 18 0 78 68 94 106 8 19 16 34 19 34 3 0 28
-13 56 -30z m-655 -42 c3 -7 -4 -76 -13 -153 -22 -169 -49 -228 -107 -239 -56
-11 -113 8 -205 68 -56 37 -145 115 -145 128 0 6 -13 21 -30 34 -26 21 -27 24
-10 24 11 0 28 -9 38 -20 14 -17 27 -20 74 -20 4 0 8 8 8 17 0 29 23 25 59
-10 30 -31 44 -36 118 -47 46 -7 94 -11 107 -9 28 5 41 29 16 29 -12 0 -16 6
-12 20 3 13 -1 24 -13 30 -20 11 -34 53 -25 78 2 10 25 25 49 35 25 10 50 25
57 33 14 17 28 18 34 2z m1732 -100 c6 -7 13 -22 17 -33 6 -17 4 -17 -18 4
-15 14 -26 28 -26 33 0 12 16 10 27 -4z m-2142 -19 c3 -4 1 -11 -5 -14 -11 -7
-40 11 -40 25 0 10 38 1 45 -11z m1893 -754 c7 -27 19 -90 27 -140 8 -50 18
-97 21 -107 10 -31 -13 -27 -70 15 l-58 42 6 44 c3 24 6 67 6 95 0 34 7 62 21
85 24 39 31 34 47 -34z"></path>
<path d="M4980 1250 c0 -16 5 -30 10 -30 6 0 10 14 10 30 0 17 -4 30 -10 30
-5 0 -10 -13 -10 -30z"></path>
<path d="M5100 4336 c-19 -13 -43 -33 -54 -44 l-18 -21 33 10 c19 6 42 13 52
16 9 3 17 12 17 21 0 8 8 21 18 28 31 24 -10 15 -48 -10z"></path>
<path d="M4700 4340 c0 -5 5 -10 10 -10 6 0 10 5 10 10 0 6 -4 10 -10 10 -5 0
-10 -4 -10 -10z"></path>
<path d="M3191 4306 c-11 -12 2 -14 88 -13 56 1 101 5 101 8 0 23 -171 27
-189 5z"></path>
<path d="M5366 4311 c14 -15 64 -25 64 -13 0 10 -32 22 -59 22 -10 0 -11 -3
-5 -9z"></path>
<path d="M5230 4301 c0 -9 15 -13 93 -27 46 -8 49 8 4 24 -40 14 -97 16 -97 3z"></path>
<path d="M5180 4290 c0 -5 5 -10 10 -10 6 0 10 5 10 10 0 6 -4 10 -10 10 -5 0
-10 -4 -10 -10z"></path>
<path d="M5380 4270 c0 -5 7 -10 16 -10 8 0 12 5 9 10 -3 6 -10 10 -16 10 -5
0 -9 -4 -9 -10z"></path>
<path d="M5867 4184 c-27 -15 -29 -34 -3 -34 13 0 46 31 46 43 0 10 -12 8 -43
-9z"></path>
<path d="M2950 4175 c-7 -8 -8 -15 -2 -15 5 0 15 7 22 15 7 8 8 15 2 15 -5 0
-15 -7 -22 -15z"></path>
<path d="M5610 4180 c0 -5 5 -10 10 -10 6 0 10 5 10 10 0 6 -4 10 -10 10 -5 0
-10 -4 -10 -10z"></path>
<path d="M5650 4170 c0 -5 5 -10 10 -10 6 0 10 5 10 10 0 6 -4 10 -10 10 -5 0
-10 -4 -10 -10z"></path>
<path d="M5720 4160 c0 -5 18 -10 40 -10 22 0 40 5 40 10 0 6 -18 10 -40 10
-22 0 -40 -4 -40 -10z"></path>
<path d="M3001 4137 c-26 -13 -44 -44 -20 -34 8 3 33 11 57 18 23 6 42 15 42
20 0 13 -51 11 -79 -4z"></path>
<path d="M2845 4095 c-22 -14 -44 -27 -50 -29 -5 -2 -7 -6 -4 -10 9 -10 121
43 114 54 -9 14 -15 12 -60 -15z"></path>
<path d="M5713 4113 c-95 -6 -75 -20 35 -25 109 -5 199 -36 260 -89 18 -16 38
-27 44 -23 23 15 -123 102 -199 118 -18 4 -35 12 -38 17 -4 5 -14 8 -23 7 -9
-1 -45 -3 -79 -5z"></path>
<path d="M2871 4053 c-69 -41 -155 -112 -146 -121 3 -3 15 4 28 15 12 12 61
46 110 78 48 31 87 58 87 61 0 10 -19 2 -79 -33z"></path>
<path d="M5798 4024 c-25 -8 -22 -27 3 -21 11 3 50 1 85 -5 69 -10 77 -9 66 9
-8 12 -126 25 -154 17z"></path>
<path d="M2760 3920 c-19 -10 -42 -17 -51 -14 -21 6 -51 -29 -43 -50 4 -9 9
-16 13 -14 26 12 130 85 131 91 0 11 -12 8 -50 -13z"></path>
<path d="M5950 3920 c0 -5 5 -10 10 -10 6 0 10 5 10 10 0 6 -4 10 -10 10 -5 0
-10 -4 -10 -10z"></path>
<path d="M5990 3912 c0 -5 11 -13 24 -16 13 -3 31 -9 40 -12 11 -4 16 -1 16
10 0 9 -8 16 -17 16 -10 0 -28 3 -40 6 -13 4 -23 2 -23 -4z"></path>
<path d="M6102 3898 c3 -7 13 -15 22 -16 12 -3 17 1 14 10 -3 7 -13 15 -22 16
-12 3 -17 -1 -14 -10z"></path>
<path d="M6110 3850 c0 -5 6 -10 13 -10 8 0 22 -9 32 -20 10 -11 23 -20 28
-20 6 0 24 -11 42 -24 17 -13 49 -29 70 -35 50 -14 135 -14 135 -1 0 6 -23 10
-51 10 -73 0 -125 18 -196 67 -67 46 -73 49 -73 33z"></path>
<path d="M2585 3759 c-84 -85 -181 -157 -224 -165 -29 -6 -44 -24 -19 -24 39
0 142 68 231 152 53 51 97 96 97 101 0 17 -20 3 -85 -64z"></path>
<path d="M2263 3573 c-13 -2 -23 -8 -23 -13 0 -11 53 -20 64 -10 9 9 0 31 -12
29 -4 -1 -17 -4 -29 -6z"></path>
<path d="M2433 3563 c-36 -5 -46 -23 -13 -23 29 0 25 -10 -22 -51 -24 -20 -41
-39 -38 -42 6 -6 130 104 130 116 0 4 -6 6 -12 5 -7 0 -28 -3 -45 -5z"></path>
<path d="M2330 3540 c0 -5 9 -10 20 -10 11 0 20 5 20 10 0 6 -9 10 -20 10 -11
0 -20 -4 -20 -10z"></path>
<path d="M2408 3359 c-44 -32 -68 -56 -68 -69 0 -29 12 -25 37 13 12 17 43 46
68 62 41 28 56 46 38 45 -5 -1 -38 -23 -75 -51z"></path>
<path d="M1325 3339 c-4 -6 -5 -13 -2 -16 8 -7 47 7 47 18 0 13 -37 11 -45 -2z"></path>
<path d="M2243 3215 c-3 -9 -3 -18 0 -21 9 -9 27 6 27 22 0 19 -19 18 -27 -1z"></path>
<path d="M2310 3200 c0 -5 5 -10 10 -10 6 0 10 5 10 10 0 6 -4 10 -10 10 -5 0
-10 -4 -10 -10z"></path>
<path d="M580 3079 c0 -9 27 -19 51 -19 33 0 21 18 -16 22 -19 2 -35 1 -35 -3z"></path>
<path d="M717 3074 c-14 -14 -7 -25 13 -19 16 5 20 2 20 -14 0 -25 13 -27 30
-6 8 10 9 19 4 25 -13 13 -58 22 -67 14z"></path>
<path d="M1201 3019 c-41 -22 -67 -46 -59 -55 4 -3 19 3 35 13 15 10 37 23 47
29 20 11 34 35 19 33 -4 -1 -23 -10 -42 -20z"></path>
<path d="M2300 3025 c-7 -8 -8 -15 -2 -15 5 0 15 7 22 15 7 8 8 15 2 15 -5 0
-15 -7 -22 -15z"></path>
<path d="M2200 3005 c-8 -9 -8 -15 -2 -15 12 0 26 19 19 26 -2 2 -10 -2 -17
-11z"></path>
<path d="M1605 2958 c8 -39 25 -61 25 -32 0 31 -12 64 -22 64 -6 0 -7 -14 -3
-32z"></path>
<path d="M2115 2955 c-16 -7 -38 -16 -49 -19 -29 -9 -1 -35 45 -42 22 -4 39
-10 39 -14 0 -4 -29 -21 -65 -36 -36 -16 -65 -32 -65 -36 0 -12 4 -11 67 17
32 14 79 47 106 73 52 52 64 78 16 38 -21 -18 -42 -26 -70 -26 -47 0 -50 13
-9 30 17 7 30 16 30 21 0 12 -9 11 -45 -6z"></path>
<path d="M753 2941 c-30 -25 -29 -28 10 -23 22 2 38 -2 46 -12 8 -9 20 -16 28
-16 13 0 13 3 3 15 -7 8 -17 15 -22 15 -5 0 -17 9 -26 20 -17 19 -17 19 -39 1z"></path>
<path d="M1130 2915 c0 -14 5 -25 10 -25 6 0 10 11 10 25 0 14 -4 25 -10 25
-5 0 -10 -11 -10 -25z"></path>
<path d="M1030 2915 c-7 -9 -10 -18 -7 -22 8 -7 37 15 37 28 0 14 -16 11 -30
-6z"></path>
<path d="M1612 2880 c-7 -11 -23 -20 -37 -20 -14 0 -25 -5 -25 -11 0 -6 17 -9
43 -7 38 3 42 6 45 31 4 32 -8 35 -26 7z"></path>
<path d="M1490 2805 c-21 -25 -1 -31 23 -7 17 18 18 22 5 22 -8 0 -21 -7 -28
-15z"></path>
<path d="M1980 2800 c0 -5 5 -10 10 -10 6 0 10 5 10 10 0 6 -4 10 -10 10 -5 0
-10 -4 -10 -10z"></path>
<path d="M1409 2744 c-12 -14 -11 -16 5 -13 11 2 21 10 24 17 5 17 -13 15 -29
-4z"></path>
<path d="M1270 2710 c-8 -4 -32 -16 -53 -25 -21 -9 -36 -19 -33 -23 5 -5 28 3
78 29 10 5 25 9 33 9 8 0 15 5 15 10 0 12 -19 12 -40 0z"></path>
<path d="M1080 2640 c0 -5 9 -10 20 -10 11 0 20 5 20 10 0 6 -9 10 -20 10 -11
0 -20 -4 -20 -10z"></path>
<path d="M580 2630 c0 -6 40 -10 100 -10 60 0 100 4 100 10 0 6 -40 10 -100
10 -60 0 -100 -4 -100 -10z"></path>
<path d="M870 2630 c0 -5 25 -10 55 -10 30 0 55 5 55 10 0 6 -25 10 -55 10
-30 0 -55 -4 -55 -10z"></path>
<path d="M2742 1333 c-28 -106 -36 -163 -24 -163 6 0 13 19 17 43 6 38 29 137
41 180 3 9 1 17 -4 17 -5 0 -19 -35 -30 -77z"></path>
<path d="M2710 1097 c0 -15 48 -50 118 -86 l43 -22 -7 -55 c-5 -45 -3 -58 11
-74 10 -11 25 -20 32 -20 8 0 47 -11 86 -24 40 -13 113 -36 162 -51 50 -15
109 -38 133 -52 41 -23 42 -25 42 -76 0 -29 -14 -117 -31 -197 -32 -152 -63
-326 -72 -397 l-5 -43 88 0 88 0 12 73 c6 39 14 88 17 107 l6 35 14 -45 c7
-25 16 -73 20 -108 l6 -62 53 0 54 0 0 186 c0 199 8 224 40 128 31 -89 106
-239 139 -277 l33 -37 207 1 c151 1 193 4 156 10 -27 5 -81 14 -120 20 -85 15
-186 58 -219 94 -28 30 -29 18 12 228 l26 139 -29 55 c-50 92 -103 132 -267
196 -78 31 -168 64 -198 73 -181 53 -505 195 -607 266 -30 20 -43 25 -43 15z"></path>
<path d="M740 595 c22 -41 67 -119 99 -173 31 -53 73 -124 91 -157 30 -53 66
-109 148 -231 12 -19 27 -34 32 -34 14 0 13 7 -9 38 -32 46 -128 195 -149 232
-99 176 -238 400 -248 400 -2 0 14 -34 36 -75z"></path>
<path d="M1410 80 c0 -5 5 -10 10 -10 6 0 10 5 10 10 0 6 -4 10 -10 10 -5 0
-10 -4 -10 -10z"></path>
<path d="M2260 15 c0 -8 5 -15 10 -15 6 0 10 7 10 15 0 8 -4 15 -10 15 -5 0
-10 -7 -10 -15z"></path>
</g>
</svg>