 <svg version="1.0" xmlns="http://www.w3.org/2000/svg" width="700.000000pt" height="933.000000pt" viewBox="0 0 700.000000 933.000000" preserveAspectRatio="xMidYMid meet">
<metadata>
Created by potrace 1.12, written by Peter Selinger 2001-2015
</metadata>
<g transform="translate(0.000000,933.000000) scale(0.100000,-0.100000)" fill="#000000" stroke="none">
<path d="M1210 9315 c0 -8 11 -17 25 -21 14 -3 30 -14 36 -23 7 -12 12 -13 15
-3 3 6 12 12 20 12 8 0 14 4 14 9 0 5 3 16 6 24 4 12 -6 15 -55 16 -47 0 -61
-3 -61 -14z"></path>
<path d="M4148 9158 c-3 -95 -3 -176 -1 -181 3 -4 9 -5 14 -2 12 8 12 355 0
355 -5 0 -11 -78 -13 -172z"></path>
<path d="M4537 9315 c-13 -31 -20 -212 -9 -219 6 -3 13 -2 17 4 9 15 25 12 25
-4 0 -8 17 -25 38 -37 51 -32 52 -33 52 -15 0 9 -18 25 -40 36 -38 19 -40 23
-40 65 0 33 -4 45 -15 45 -11 0 -15 12 -15 50 0 38 4 50 15 50 8 0 15 9 15 20
0 24 -35 28 -43 5z"></path>
<path d="M6436 9252 c-16 -42 -37 -95 -46 -117 -10 -22 -25 -60 -33 -85 -39
-115 -98 -256 -110 -265 -8 -5 -14 -17 -15 -25 -3 -33 -15 -76 -27 -90 -6 -8
-17 -35 -24 -60 -6 -25 -25 -74 -40 -110 -49 -109 -61 -138 -61 -145 0 -17
-53 -115 -62 -115 -6 0 -8 -10 -4 -25 5 -18 1 -27 -13 -34 -13 -7 -17 -18 -14
-35 4 -21 -53 -174 -130 -346 -11 -25 -25 -61 -32 -80 -9 -27 -18 -35 -36 -35
-13 0 -25 -4 -26 -10 -1 -5 5 -9 14 -8 12 1 14 -6 8 -33 -3 -19 -2 -34 3 -34
9 0 52 89 52 105 0 4 13 35 29 69 64 138 81 175 81 181 0 3 9 27 21 52 11 24
34 79 51 121 17 43 34 82 38 87 4 6 20 46 35 90 15 44 44 116 64 160 21 44 48
109 61 145 12 36 34 89 47 119 14 30 36 84 50 120 14 36 28 71 33 76 4 6 13
28 20 50 7 22 26 67 41 99 16 33 29 67 29 76 0 9 4 20 9 26 5 5 14 27 21 49 7
22 19 49 26 60 20 29 17 45 -8 45 -19 0 -28 -13 -52 -78z"></path>
<path d="M6562 9318 c-5 -7 -13 -24 -17 -38 -4 -14 -18 -47 -31 -75 -13 -27
-51 -115 -84 -195 -34 -80 -72 -167 -84 -195 -13 -27 -31 -72 -41 -100 -10
-27 -22 -55 -27 -62 -5 -6 -13 -25 -18 -43 -8 -27 -7 -30 5 -20 8 7 15 17 15
22 0 5 12 35 26 66 15 31 42 93 61 136 36 85 39 91 103 236 24 52 56 124 72
160 16 36 36 77 44 93 13 23 13 27 1 27 -8 0 -19 -6 -25 -12z"></path>
<path d="M4320 9300 c0 -5 11 -10 25 -10 14 0 25 5 25 10 0 6 -11 10 -25 10
-14 0 -25 -4 -25 -10z"></path>
<path d="M4430 9300 c0 -5 11 -10 25 -10 14 0 25 5 25 10 0 6 -11 10 -25 10
-14 0 -25 -4 -25 -10z"></path>
<path d="M1595 9260 c-3 -5 -1 -10 4 -10 6 0 11 5 11 10 0 6 -2 10 -4 10 -3 0
-8 -4 -11 -10z"></path>
<path d="M6597 9253 c-3 -5 -8 -30 -12 -58 -4 -27 -9 -58 -12 -67 -8 -32 15
-19 26 15 18 55 25 117 13 117 -6 0 -13 -3 -15 -7z"></path>
<path d="M1637 9234 c-12 -12 -8 -21 18 -38 14 -9 25 -12 25 -7 0 16 -35 53
-43 45z"></path>
<path d="M6284 9225 c-4 -8 -3 -30 0 -48 4 -17 6 -44 6 -58 0 -14 9 -34 21
-45 l21 -19 -8 40 c-9 48 -9 65 1 88 5 13 3 17 -6 15 -9 -2 -13 5 -12 20 3 25
-14 30 -23 7z"></path>
<path d="M6380 9230 c0 -5 5 -10 10 -10 6 0 10 5 10 10 0 6 -4 10 -10 10 -5 0
-10 -4 -10 -10z"></path>
<path d="M6340 9219 c0 -5 5 -7 10 -4 6 3 10 8 10 11 0 2 -4 4 -10 4 -5 0 -10
-5 -10 -11z"></path>
<path d="M1110 9210 c0 -5 5 -10 10 -10 6 0 10 5 10 10 0 6 -4 10 -10 10 -5 0
-10 -4 -10 -10z"></path>
<path d="M980 9194 c0 -8 5 -12 10 -9 6 4 8 11 5 16 -9 14 -15 11 -15 -7z"></path>
<path d="M1172 9186 c1 -10 8 -17 13 -17 15 1 12 24 -3 29 -9 3 -13 -2 -10
-12z"></path>
<path d="M4333 9186 c-27 -13 -29 -24 -7 -33 19 -7 53 23 39 35 -6 5 -20 4
-32 -2z"></path>
<path d="M1768 9176 c-30 -22 -21 -36 12 -19 17 8 28 19 25 24 -8 12 -17 11
-37 -5z"></path>
<path d="M6356 9181 c-4 -5 -2 -12 3 -15 5 -4 12 -2 15 3 4 5 2 12 -3 15 -5 4
-12 2 -15 -3z"></path>
<path d="M1910 9169 c0 -5 5 -7 10 -4 6 3 10 8 10 11 0 2 -4 4 -10 4 -5 0 -10
-5 -10 -11z"></path>
<path d="M1690 9161 c0 -5 5 -13 10 -16 6 -3 10 -2 10 4 0 5 -4 13 -10 16 -5
3 -10 2 -10 -4z"></path>
<path d="M1980 9146 c0 -14 -4 -26 -10 -26 -5 0 -10 5 -10 10 0 6 -4 10 -9 10
-13 0 -10 -73 3 -82 19 -13 28 -8 21 12 -5 15 -2 20 13 20 15 0 19 7 18 37 -2
42 -26 60 -26 19z"></path>
<path d="M854 9126 c-21 -19 -35 -38 -31 -42 4 -4 24 9 44 29 48 47 38 57 -13
13z"></path>
<path d="M940 9144 c0 -8 5 -12 10 -9 6 3 10 10 10 16 0 5 -4 9 -10 9 -5 0
-10 -7 -10 -16z"></path>
<path d="M990 9150 c0 -5 5 -10 10 -10 6 0 10 5 10 10 0 6 -4 10 -10 10 -5 0
-10 -4 -10 -10z"></path>
<path d="M1405 9130 c3 -5 11 -10 16 -10 6 0 7 5 4 10 -3 6 -11 10 -16 10 -6
0 -7 -4 -4 -10z"></path>
<path d="M1335 9120 c-19 -7 -19 -8 -2 -15 10 -4 23 -3 29 3 14 14 -3 21 -27
12z"></path>
<path d="M665 9061 c6 -59 5 -61 -20 -67 -14 -3 -25 -11 -25 -18 0 -6 -9 -19
-20 -29 -20 -16 -28 -47 -12 -47 4 0 13 9 20 20 6 11 30 29 52 40 l40 20 12
-20 c18 -28 35 -25 43 8 3 15 16 37 27 50 25 25 14 30 -13 6 -16 -14 -23 -15
-48 -4 -25 10 -30 18 -33 53 -2 22 -9 42 -16 45 -11 3 -12 -9 -7 -57z"></path>
<path d="M911 9089 c-13 -11 -21 -22 -18 -26 9 -9 65 17 71 33 8 21 -25 17
-53 -7z"></path>
<path d="M365 9080 c-3 -5 -1 -10 4 -10 6 0 11 5 11 10 0 6 -2 10 -4 10 -3 0
-8 -4 -11 -10z"></path>
<path d="M4470 9081 c0 -10 30 -24 37 -17 3 3 2 9 -2 15 -8 13 -35 15 -35 2z"></path>
<path d="M1035 9059 c-10 -15 3 -25 16 -12 7 7 7 13 1 17 -6 3 -14 1 -17 -5z"></path>
<path d="M4370 9060 c-30 -4 -64 -12 -75 -17 -11 -6 -39 -16 -62 -22 -24 -7
-43 -16 -43 -21 0 -12 -8 -13 75 5 110 24 146 33 152 38 3 3 16 2 29 -3 14 -6
26 -6 29 0 5 8 -40 34 -48 29 -1 -1 -27 -5 -57 -9z"></path>
<path d="M870 9050 c0 -5 5 -10 11 -10 5 0 7 5 4 10 -3 6 -8 10 -11 10 -2 0
-4 -4 -4 -10z"></path>
<path d="M1760 9030 c-12 -23 2 -27 19 -6 8 9 8 16 2 20 -6 4 -15 -3 -21 -14z"></path>
<path d="M4709 9040 c-10 -7 -7 -11 13 -19 14 -5 29 -15 33 -20 7 -13 25 -15
25 -3 0 17 -57 50 -71 42z"></path>
<path d="M6496 9033 c-13 -44 -17 -93 -11 -114 6 -19 9 -20 16 -6 15 25 24
137 11 137 -6 0 -13 -8 -16 -17z"></path>
<path d="M110 9030 c0 -5 5 -10 10 -10 6 0 10 5 10 10 0 6 -4 10 -10 10 -5 0
-10 -4 -10 -10z"></path>
<path d="M4542 9008 c-35 -22 -38 -28 -21 -45 17 -17 -83 -38 -111 -23 -12 6
-28 9 -36 6 -8 -3 -14 1 -14 8 0 26 -31 26 -73 -1 -23 -14 -47 -26 -53 -26 -6
0 -9 -9 -6 -19 3 -13 0 -17 -11 -12 -9 3 -24 0 -34 -6 -16 -10 -16 -11 4 -7
29 6 38 -7 17 -27 -17 -18 -54 -22 -54 -6 0 20 -45 10 -55 -12 -6 -13 -24 -26
-43 -31 -27 -6 -31 -11 -22 -22 9 -11 6 -14 -17 -17 -16 -2 -27 -8 -25 -15 1
-7 -6 -13 -15 -13 -22 0 -122 -108 -129 -140 -19 -81 -26 -101 -42 -112 -9 -7
-25 -29 -35 -48 -10 -19 -15 -27 -13 -17 3 9 1 17 -3 17 -13 0 -18 -79 -6 -84
6 -3 5 -8 -3 -14 -11 -7 -11 -16 2 -47 9 -21 17 -62 19 -90 l2 -52 50 23 c27
13 55 30 61 38 6 8 22 13 38 12 22 -3 30 2 38 23 6 14 19 44 28 66 10 22 35
80 56 129 33 77 47 96 97 138 55 45 61 48 115 48 31 0 75 -5 97 -11 22 -6 60
-14 85 -18 59 -10 184 -65 235 -104 36 -27 134 -139 193 -219 22 -30 28 -71
16 -102 -5 -13 -22 -16 -84 -16 -89 0 -136 -16 -173 -59 -40 -48 -148 -52
-155 -5 -10 65 -46 85 -147 80 -138 -7 -160 -20 -169 -100 -2 -21 -11 -32 -31
-40 l-28 -12 41 -18 c22 -10 55 -33 73 -52 58 -60 122 -66 202 -19 22 12 47
37 58 54 15 25 25 31 52 31 55 0 67 -22 67 -128 0 -100 11 -137 44 -146 11 -3
62 -6 111 -6 103 0 155 -19 166 -60 10 -34 10 -142 1 -156 -11 -18 -206 -104
-234 -104 -36 0 -52 23 -43 62 15 65 11 133 -10 172 -18 34 -23 37 -50 31 -16
-4 -37 -7 -45 -7 -8 0 -32 -5 -52 -10 -30 -9 -40 -8 -53 6 -19 19 -58 21 -73
4 -6 -7 -12 -29 -14 -48 -3 -33 -1 -35 27 -35 29 0 30 -1 30 -49 l0 -50 -66
-12 c-37 -7 -86 -22 -109 -34 -24 -12 -53 -20 -67 -17 -20 4 -27 -1 -38 -27
-8 -19 -10 -37 -4 -47 10 -19 94 -69 115 -69 7 0 26 -11 41 -25 22 -19 24 -24
11 -25 -33 0 -58 -37 -58 -85 0 -44 2 -47 59 -88 83 -58 78 -97 -12 -103 -23
-2 -69 -6 -103 -10 l-60 -6 -46 46 c-55 55 -131 114 -161 125 -12 5 -38 8 -57
7 -35 -1 -35 -2 -35 -46 -1 -25 5 -59 12 -77 7 -18 13 -45 13 -60 0 -77 46
-149 102 -160 15 -3 25 -9 22 -14 -3 -5 -1 -9 5 -9 16 0 41 -55 41 -89 0 -31
-31 -103 -75 -177 -16 -26 -30 -74 -40 -140 -21 -129 -21 -131 -51 -137 -48
-9 -181 48 -212 90 -17 24 -22 25 -27 11 -4 -9 0 -32 9 -50 8 -18 22 -69 31
-113 11 -52 27 -95 46 -125 31 -47 34 -73 14 -167 -6 -25 -4 -33 7 -33 19 0
58 -42 58 -62 0 -16 -67 -115 -107 -159 -15 -17 -32 -25 -43 -22 -10 3 -27 0
-38 -6 -22 -12 -35 -49 -73 -201 -17 -71 -43 -120 -62 -120 -3 0 -8 59 -12
132 -4 73 -12 140 -18 149 -8 13 -8 25 1 44 26 57 7 186 -31 209 -15 9 -20 7
-29 -8 -6 -11 -22 -30 -35 -42 -12 -12 -23 -26 -23 -33 0 -6 -4 -11 -10 -11
-12 0 -59 -80 -65 -110 -2 -13 -11 -30 -20 -40 -8 -9 -15 -24 -15 -33 0 -10
-22 -53 -50 -97 -27 -44 -50 -87 -50 -95 0 -8 -4 -15 -10 -15 -5 0 -10 -9 -10
-19 0 -11 -4 -22 -9 -25 -5 -4 -21 -37 -35 -75 -15 -37 -33 -77 -42 -87 -14
-18 -15 -16 -9 19 3 20 2 37 -2 36 -4 0 -30 -27 -57 -60 -26 -33 -51 -58 -53
-55 -3 3 0 11 6 18 7 7 34 45 62 83 27 39 62 84 76 100 14 17 32 44 39 62 8
17 18 34 24 38 19 12 10 25 -16 25 -18 0 -38 -12 -61 -36 -19 -20 -37 -34 -40
-31 -16 16 118 177 147 177 19 0 53 43 60 76 8 33 7 34 -25 34 -19 0 -37 -4
-40 -10 -3 -5 -14 -10 -24 -10 -10 0 -30 -9 -45 -21 -29 -22 -55 -17 -35 7 18
22 -3 37 -40 29 -25 -5 -31 -12 -32 -33 -1 -52 -29 60 -29 118 0 72 60 276 87
295 19 14 33 59 53 179 6 33 15 63 21 67 7 4 9 15 5 24 -9 25 22 104 55 140
26 28 28 34 18 68 -6 21 -7 51 -4 67 3 16 2 31 -4 35 -7 4 -11 -3 -11 -16 0
-22 0 -22 -15 -3 -19 26 -19 44 2 59 12 9 24 10 35 4 26 -14 138 -22 115 -8
-18 10 -18 12 4 35 26 28 8 34 -27 9 -12 -8 -24 -12 -27 -8 -4 3 -13 0 -22 -7
-26 -21 -45 -5 -39 32 13 68 60 119 80 87 5 -8 10 -6 16 5 11 20 32 21 48 1
17 -21 25 -19 59 14 43 42 96 55 133 33 29 -17 39 -38 13 -28 -17 6 -19 -7 -5
-35 11 -20 6 -23 -39 -19 -16 1 -22 -3 -19 -12 3 -7 14 -12 26 -11 11 1 23 -4
26 -12 3 -8 1 -15 -5 -15 -21 0 -39 -26 -26 -39 8 -8 4 -11 -15 -11 -18 0 -27
-6 -31 -22 -4 -12 -4 -24 -1 -27 10 -10 77 34 87 57 6 14 16 21 25 17 8 -3 23
6 34 20 11 14 36 34 56 43 36 17 61 59 28 46 -12 -5 -15 -2 -10 10 3 9 1 16
-5 16 -6 0 -11 5 -11 11 0 7 10 9 25 5 31 -8 40 9 31 59 -5 26 -12 35 -27 35
-11 0 -28 8 -37 17 -16 15 -15 16 11 9 20 -5 27 -3 27 9 0 8 5 15 10 15 6 0
10 9 10 20 0 14 -7 20 -21 20 -18 0 -21 4 -16 30 5 21 3 28 -7 24 -7 -3 -21
10 -32 31 -10 19 -31 41 -46 48 -28 12 -37 27 -18 27 6 0 10 4 10 10 0 5 -6 7
-14 4 -8 -3 -23 3 -33 13 -39 37 -79 59 -108 58 -19 -1 -36 7 -47 19 -15 19
-18 19 -32 6 -14 -13 -14 -20 -4 -42 13 -28 36 -40 88 -47 10 -2 7 -5 -8 -11
-12 -5 -29 -7 -37 -4 -19 8 -31 -22 -16 -40 10 -11 8 -16 -9 -21 -15 -5 -19
-12 -15 -23 13 -32 10 -47 -10 -47 -21 0 -33 -29 -15 -40 23 -14 71 -7 93 13
l23 22 11 -30 c10 -27 9 -30 -7 -30 -10 0 -21 -4 -24 -8 -3 -5 -26 -9 -52 -10
-26 0 -50 -6 -54 -12 -6 -9 -16 -10 -36 -3 -31 10 -45 33 -20 33 9 0 16 3 16
8 0 6 -89 8 -147 3 -6 -1 -31 -28 -54 -61 -38 -54 -43 -58 -55 -42 -7 9 -14
12 -14 5 0 -6 4 -14 8 -17 5 -3 8 -27 6 -53 -4 -77 5 -109 33 -122 13 -6 29
-9 34 -6 5 4 9 -1 9 -10 0 -13 -5 -15 -17 -10 -41 18 -71 17 -84 -2 -18 -23
-73 -54 -105 -58 -16 -1 -30 5 -39 19 -26 37 -21 39 78 23 23 -4 30 1 42 27
18 38 16 87 -5 103 -12 10 -13 15 -2 32 15 26 15 31 -1 31 -14 0 -17 16 -22
105 -1 33 -6 68 -10 78 -10 24 2 50 20 43 8 -3 15 -1 15 4 0 11 -27 18 -86 22
-41 3 -41 3 -25 -19 9 -12 21 -23 27 -23 6 0 19 -9 29 -20 14 -16 16 -23 7
-32 -9 -9 -19 -5 -40 15 -27 26 -51 35 -53 20 0 -5 -2 -20 -4 -35 -4 -32 -2
-33 25 -16 25 16 33 7 24 -26 -5 -21 -12 -26 -39 -26 -55 0 -93 -19 -104 -52
-6 -17 -9 -33 -6 -36 2 -3 -1 -14 -6 -25 -9 -15 -13 -17 -20 -6 -10 17 -23 5
-16 -16 4 -8 15 -15 26 -15 10 0 27 -12 37 -27 9 -16 26 -34 36 -41 32 -23 19
-34 -15 -13 -29 18 -38 19 -60 8 -15 -6 -27 -17 -27 -24 0 -6 -5 -15 -11 -19
-6 -3 -10 1 -9 12 4 36 0 46 -15 41 -21 -9 -29 12 -12 31 9 9 19 45 23 80 6
59 15 75 29 52 3 -5 10 -10 16 -10 11 0 12 67 0 74 -4 3 -11 31 -14 63 -3 32
-11 59 -17 61 -5 2 -10 10 -10 17 0 7 -7 15 -15 19 -8 3 -15 12 -15 21 0 8 -6
15 -12 15 -7 0 -2 7 10 16 18 13 26 13 38 3 24 -20 28 -2 5 27 -16 20 -18 30
-10 40 6 8 15 11 20 8 5 -3 9 0 9 5 0 6 -4 11 -9 11 -13 0 -23 32 -12 39 6 4
36 6 69 6 58 0 59 0 59 27 0 28 -11 37 -22 18 -10 -17 -25 -11 -25 9 0 11 -9
22 -19 26 -11 3 -22 12 -25 20 -3 8 -10 15 -17 15 -6 0 -9 -6 -6 -13 4 -10 -2
-13 -21 -10 -20 3 -23 2 -13 -5 16 -11 26 -86 11 -77 -6 4 -10 19 -10 34 l0
28 -40 -19 c-34 -17 -39 -23 -34 -44 13 -49 8 -94 -10 -94 -7 0 -17 -10 -20
-22 -6 -22 -7 -22 -20 -5 -8 10 -20 16 -27 15 -8 -2 -14 5 -14 17 0 11 -10 35
-23 52 -19 27 -21 36 -12 53 9 17 8 32 -6 71 -10 27 -23 49 -30 49 -6 0 -14
11 -16 25 -6 29 -7 29 35 11 30 -12 33 -17 29 -50 -2 -20 0 -36 6 -36 11 0 22
33 22 66 0 12 7 27 15 34 17 14 20 50 5 50 -5 0 -10 -4 -10 -10 0 -5 -7 -7
-16 -3 -13 5 -15 2 -9 -15 7 -24 -1 -27 -39 -12 -17 6 -26 17 -26 31 0 19 -4
20 -59 14 -36 -4 -61 -2 -65 4 -4 5 -18 -1 -32 -16 -23 -23 -25 -29 -14 -46 8
-13 8 -23 1 -30 -7 -7 -16 4 -28 32 -15 35 -22 42 -41 38 -20 -4 -23 -1 -18
17 3 11 6 25 6 30 0 5 7 3 15 -4 25 -21 17 5 -10 30 -20 18 -22 26 -13 37 6 8
20 12 30 10 10 -3 18 -1 18 5 0 6 7 8 15 4 8 -3 15 -1 15 4 0 6 -5 10 -12 10
-8 0 -5 7 5 18 17 16 19 16 31 -1 11 -15 15 -15 19 -3 3 8 -1 20 -8 26 -8 7
-13 16 -10 20 7 12 -5 40 -17 40 -6 0 -8 -13 -6 -29 4 -24 1 -29 -15 -28 -11
1 -24 12 -30 24 -21 47 44 80 87 44 23 -20 94 -22 101 -2 4 10 12 6 30 -15 18
-20 25 -24 25 -13 0 9 9 24 19 33 16 15 18 21 8 37 -15 24 -23 24 -30 -1 -7
-28 -24 -25 -30 6 -3 20 1 27 19 34 13 5 24 12 24 15 0 13 -40 43 -45 35 -4
-6 -17 -10 -29 -10 -38 0 -72 -22 -68 -45 4 -17 2 -18 -11 -6 -20 16 -37 7
-30 -18 4 -14 -1 -18 -20 -18 -18 0 -27 8 -38 34 -17 44 -37 62 -49 43 -5 -8
-5 -19 1 -26 10 -12 2 -44 -10 -44 -9 0 -41 55 -41 69 0 6 7 11 15 11 8 0 15
5 15 10 0 14 -13 13 -28 -2 -10 -10 -17 -10 -34 1 -19 12 -20 11 -13 -6 4 -10
7 -30 6 -45 -1 -19 7 -33 30 -48 19 -14 28 -28 24 -37 -3 -9 -1 -21 5 -28 7
-8 7 -22 0 -42 -8 -20 -8 -38 0 -57 13 -34 13 -39 0 -31 -5 3 -10 0 -10 -8 0
-8 -7 -20 -15 -27 -12 -10 -15 -10 -15 2 0 7 -13 19 -30 25 -25 9 -30 9 -30
-3 0 -8 -9 -14 -20 -14 -11 0 -20 -6 -20 -12 0 -10 -2 -10 -8 -1 -8 13 -52 6
-52 -8 0 -5 -4 -9 -10 -9 -14 0 -12 28 3 33 6 2 8 8 4 13 -4 5 -12 2 -16 -5
-7 -11 -21 -10 -74 8 -37 11 -75 21 -86 21 -28 0 -37 -20 -12 -27 27 -7 27 -9
-9 -50 -17 -18 -30 -38 -30 -43 0 -6 -4 -10 -10 -10 -14 0 -12 26 3 42 8 7 19
23 25 35 9 17 9 22 -3 27 -21 8 -19 36 2 36 14 0 15 2 4 13 -10 10 -16 7 -33
-15 -23 -32 -35 -35 -40 -11 -3 16 -6 15 -26 -5 -28 -28 -30 -28 -34 10 -2 25
-8 32 -29 35 -20 2 -25 -1 -24 -15 0 -9 4 -22 8 -28 3 -6 4 -14 0 -18 -14 -14
-31 -5 -43 23 -6 16 -20 31 -31 34 -12 3 -19 14 -19 30 0 14 -4 28 -9 31 -5 3
-7 15 -4 25 3 10 0 22 -6 25 -19 12 -12 25 17 28 34 4 47 48 13 48 -12 0 -21
6 -21 15 0 8 -4 15 -8 15 -12 0 -36 -52 -33 -70 2 -12 0 -12 -10 -3 -10 10 -9
16 2 29 12 16 12 17 -3 11 -10 -3 -18 -2 -18 3 0 13 -49 37 -93 45 -20 4 -37
12 -37 17 0 7 -4 7 -13 1 -13 -10 -52 -11 -77 -1 -8 4 -27 9 -42 12 -31 7 -38
-8 -11 -19 17 -7 16 -8 -2 -15 -25 -9 -35 -4 -35 20 0 27 -18 34 -40 15 -11
-10 -16 -24 -12 -37 5 -20 4 -20 -22 -3 -14 9 -26 25 -27 34 0 9 -3 11 -5 5
-3 -7 -13 -10 -23 -7 -10 2 -26 -3 -36 -13 -16 -17 -18 -17 -30 -1 -12 16 -13
16 -18 -2 -3 -14 -11 -18 -26 -14 -14 4 -21 1 -21 -10 0 -8 -7 -17 -15 -21 -8
-3 -12 -12 -9 -21 3 -8 1 -15 -5 -15 -6 0 -11 -11 -11 -25 0 -57 -81 -140 -97
-99 -3 8 -12 13 -19 10 -10 -4 -14 3 -14 22 0 19 -3 23 -9 13 -13 -20 -33 -3
-25 21 5 16 3 20 -9 15 -9 -3 -18 1 -21 9 -3 9 -10 12 -16 9 -5 -3 -10 -2 -10
3 0 6 6 12 14 15 9 4 14 19 14 37 -1 18 5 36 13 41 9 6 10 9 2 9 -7 0 -10 7
-7 15 9 22 48 20 40 -2 -5 -15 -3 -14 9 2 9 11 13 26 10 33 -4 11 2 13 25 10
16 -3 30 -4 30 -3 0 8 -40 45 -48 45 -5 0 -12 12 -15 26 -5 26 -4 26 44 21 45
-6 49 -4 49 15 0 14 5 18 16 14 9 -3 18 -6 20 -6 3 0 2 -5 -2 -12 -4 -7 -3 -8
5 -4 6 4 23 1 36 -8 30 -20 35 -20 35 -2 0 8 -8 17 -17 22 -14 6 -11 9 16 13
l33 6 -26 27 c-19 18 -23 27 -14 31 26 9 -2 19 -28 10 -34 -11 -40 -26 -19
-47 25 -24 9 -19 -53 17 -31 18 -65 36 -74 40 -10 3 -18 10 -18 14 0 4 -20 8
-45 8 -49 0 -57 -7 -25 -21 18 -8 19 -11 7 -28 -13 -18 -15 -17 -35 16 -12 19
-32 43 -44 54 -12 10 -17 12 -11 4 6 -8 12 -19 13 -25 2 -5 5 -15 7 -22 6 -14
-56 -72 -77 -72 -23 0 -53 26 -40 34 8 5 8 10 0 20 -7 9 -9 23 -4 37 4 13 7
28 6 35 -2 6 10 13 24 15 35 4 41 21 16 46 -18 18 -18 19 0 42 10 12 18 32 18
44 0 13 3 25 6 29 7 7 44 -12 61 -33 10 -12 12 -12 13 -2 0 8 -10 22 -22 33
-14 11 -19 22 -13 26 12 9 12 77 0 111 -4 14 -14 22 -24 20 -18 -4 -28 -45
-13 -60 11 -11 4 -48 -9 -48 -5 0 -9 -7 -9 -15 0 -9 -11 -20 -24 -25 -28 -10
-42 -55 -25 -76 18 -21 3 -29 -26 -14 -21 11 -27 11 -44 -4 -16 -15 -22 -15
-40 -4 -12 7 -21 18 -21 25 0 23 -19 14 -26 -12 -3 -14 -10 -25 -16 -25 -5 0
-7 3 -5 8 3 4 -6 8 -20 8 -17 2 -27 -5 -33 -22 -6 -14 -18 -24 -30 -24 -20 0
-20 -5 -20 -619 l1 -618 27 5 c25 5 26 4 13 -12 -13 -15 -13 -19 0 -27 11 -7
11 -9 -3 -9 -22 0 -23 -13 -3 -30 8 -7 15 -18 15 -25 0 -14 22 -25 51 -25 30
0 71 31 64 48 -3 8 0 21 6 28 9 11 9 14 0 14 -6 0 -17 -11 -23 -25 -13 -29
-26 -31 -54 -11 -19 15 -19 15 1 30 20 15 20 15 -5 16 -20 0 -22 2 -10 11 11
8 12 12 3 16 -7 2 -13 11 -13 18 0 7 -6 16 -12 18 -10 4 -10 6 -1 6 7 1 26 15
43 32 23 25 27 35 19 45 -11 14 -10 15 12 18 6 0 16 9 23 19 7 9 20 17 28 17
9 0 21 7 28 15 10 12 9 15 -4 15 -16 0 -16 1 -2 16 9 8 16 27 16 40 0 21 4 25
22 22 13 -2 27 -13 33 -26 5 -12 14 -21 20 -19 15 5 12 39 -5 47 -76 36 -90
45 -90 57 0 7 -7 13 -15 13 -9 0 -18 8 -22 18 -7 20 -70 82 -84 82 -14 0 1 52
22 74 15 17 21 18 48 6 17 -7 31 -17 31 -21 0 -12 59 -6 86 9 12 6 24 9 27 5
3 -3 4 6 1 21 -3 21 0 27 21 32 16 4 25 13 25 26 0 15 5 19 20 15 15 -4 20 0
21 16 3 44 4 50 16 54 22 8 58 -43 77 -107 15 -48 24 -64 44 -71 14 -6 37 -21
50 -34 13 -14 28 -23 32 -20 4 3 14 -3 21 -12 12 -15 12 -16 -3 -10 -20 7 -24
-3 -7 -20 8 -8 7 -27 -4 -69 -14 -55 -14 -60 4 -83 10 -13 19 -29 19 -36 0 -8
15 -12 40 -12 22 0 40 4 40 8 0 5 -7 9 -16 9 -11 0 -15 6 -11 20 3 11 1 23 -4
26 -5 3 -9 13 -9 24 0 10 -7 20 -15 24 -17 6 -20 32 -5 41 6 3 18 -8 28 -26 9
-17 27 -44 40 -60 13 -16 20 -34 17 -40 -4 -6 2 -20 13 -32 30 -32 36 -68 18
-102 -9 -17 -16 -33 -16 -38 0 -4 -11 -30 -25 -59 -34 -70 -33 -84 5 -56 16
12 30 29 30 39 0 22 27 86 40 94 5 3 10 22 10 42 0 23 8 45 19 57 11 12 21 34
24 50 4 36 23 45 32 16 4 -13 1 -28 -8 -38 -20 -23 -39 -143 -35 -225 5 -105
22 -86 29 33 8 123 13 148 44 215 44 93 85 121 85 59 0 -14 5 -34 11 -45 6
-12 12 -44 13 -72 2 -37 7 -53 18 -55 23 -4 35 68 14 80 -11 6 -16 24 -16 60
l0 51 20 -26 c11 -14 20 -31 20 -39 0 -21 17 -41 28 -34 14 9 -25 117 -50 137
-15 11 -18 22 -13 37 8 26 15 27 41 7 26 -20 34 -19 34 5 0 24 32 27 50 5 19
-23 35 -3 20 25 -15 28 4 53 38 47 18 -3 26 1 33 20 8 22 14 24 56 21 45 -3
48 -5 45 -29 -1 -15 5 -32 13 -39 13 -11 18 -10 29 5 7 10 18 15 24 11 19 -11
14 -34 -8 -41 -17 -5 -19 -14 -18 -58 2 -50 -27 -137 -44 -137 -10 0 -10 8 2
50 10 36 0 53 -27 43 -9 -4 -13 4 -13 27 0 26 -3 30 -19 25 -18 -5 -52 25 -64
58 -2 7 -8 8 -13 4 -4 -4 -3 -17 4 -27 7 -11 12 -26 12 -34 0 -7 9 -16 20 -19
26 -7 26 -27 0 -34 -21 -6 -25 -15 -13 -27 4 -4 6 -43 4 -86 -2 -68 0 -80 13
-80 20 0 39 45 30 72 -3 10 0 26 7 34 9 11 9 18 1 26 -14 14 -16 28 -4 28 4 0
13 -15 21 -32 8 -18 25 -42 39 -54 21 -17 30 -19 53 -10 16 5 32 7 36 2 11
-11 -37 -48 -54 -42 -8 3 -17 -2 -20 -12 -3 -9 -13 -25 -21 -35 -12 -13 -13
-20 -4 -29 14 -14 39 5 44 33 8 51 40 -12 51 -98 3 -24 1 -43 -4 -43 -5 0 -9
-4 -9 -8 0 -14 36 -52 49 -52 13 0 6 -67 -11 -112 -5 -15 -7 -32 -3 -37 8 -14
42 -14 50 -1 4 6 14 5 26 -3 18 -10 23 -9 36 11 18 26 64 30 83 7 7 -8 20 -15
29 -15 9 0 25 -7 35 -15 26 -20 38 -19 34 2 -2 9 -11 17 -22 19 -22 3 -61 42
-51 52 3 3 9 2 13 -3 7 -10 47 -35 56 -35 2 0 6 27 8 60 2 33 8 63 12 67 13
13 26 -21 25 -67 0 -25 0 -49 2 -55 1 -5 2 -19 3 -30 1 -25 33 -32 38 -8 2 10
-1 43 -8 73 -13 56 -7 121 11 127 6 2 10 -16 11 -39 0 -49 12 -159 16 -163 15
-11 91 -34 99 -30 14 9 11 25 -6 25 -8 0 -15 3 -16 8 0 4 -2 15 -4 25 -2 9 2
17 8 17 8 0 7 3 -2 9 -9 6 -10 11 -2 15 6 4 11 18 11 32 0 14 4 22 10 19 6 -3
10 -15 10 -26 0 -15 5 -19 19 -14 22 7 31 -17 31 -82 0 -48 15 -63 36 -37 10
14 12 35 8 74 -4 37 -2 50 4 41 15 -21 112 -32 119 -14 9 22 -15 63 -36 63
-15 0 -18 -5 -14 -22 3 -15 2 -19 -4 -11 -5 6 -20 13 -35 15 -39 5 -42 12 -43
86 -1 50 4 75 18 100 19 31 19 34 2 46 -26 18 0 58 32 50 21 -6 22 -4 19 45
-2 28 0 53 4 56 7 4 11 -4 29 -60 4 -11 11 -20 16 -20 6 -1 20 -4 32 -9 38
-12 48 4 18 29 -23 17 -27 27 -21 48 4 17 13 27 25 27 25 0 32 -10 20 -31 -7
-15 -6 -21 6 -25 8 -3 15 -17 15 -30 0 -32 16 -31 24 1 4 16 13 25 26 25 11 0
20 7 20 15 0 8 5 15 10 15 6 0 10 -9 10 -20 0 -11 -4 -20 -10 -20 -5 0 -10
-11 -10 -24 0 -17 11 -31 35 -46 34 -21 41 -31 29 -43 -10 -9 -54 15 -54 30 0
14 -12 17 -24 6 -4 -5 -11 -8 -14 -9 -4 0 -15 -4 -25 -8 -10 -5 -23 -3 -32 4
-12 10 -16 9 -21 -4 -3 -9 -3 -23 0 -32 5 -14 8 -14 28 0 30 21 51 20 73 -4
10 -11 25 -20 34 -20 13 0 13 -2 3 -9 -11 -7 -11 -11 2 -24 19 -19 21 -80 3
-95 -21 -18 -79 -11 -136 16 -62 30 -166 43 -159 21 3 -8 21 -15 44 -17 41 -3
99 -26 110 -43 3 -6 33 -9 67 -8 40 2 70 -2 84 -11 28 -18 38 -8 23 20 -17 32
3 48 22 18 23 -35 30 -134 12 -176 -10 -26 -11 -38 -3 -48 7 -8 9 -28 5 -49
-6 -31 -5 -35 15 -35 37 0 58 -27 52 -64 -4 -27 0 -37 22 -54 23 -19 25 -24
17 -55 -9 -31 -6 -258 3 -284 2 -7 11 -10 20 -7 13 5 13 2 0 -36 -21 -58 -19
-93 10 -180 29 -87 31 -108 9 -138 -8 -12 -12 -27 -9 -32 10 -16 -4 -47 -24
-53 -12 -3 -20 -18 -25 -46 -3 -22 -11 -41 -16 -41 -6 0 -18 -18 -26 -41 -10
-24 -26 -44 -40 -49 -13 -5 -36 -27 -51 -49 -16 -22 -35 -40 -44 -41 -11 0
-19 -12 -23 -36 -4 -19 -14 -38 -22 -41 -10 -4 -14 -19 -14 -47 2 -54 -10
-135 -21 -142 -5 -3 -9 -14 -9 -24 0 -10 -7 -23 -16 -28 -13 -7 -16 -19 -12
-56 4 -33 1 -49 -9 -58 -18 -15 -11 -94 13 -139 14 -27 25 -89 28 -156 1 -17
5 -35 9 -39 14 -14 7 -61 -13 -87 -11 -14 -20 -33 -20 -42 0 -10 -10 -33 -21
-52 -22 -35 -23 -35 -81 -31 -71 5 -93 23 -90 74 3 33 1 35 -20 28 -22 -7
-102 -29 -143 -40 -25 -6 -135 -7 -142 -1 -2 3 5 22 16 44 39 76 196 220 312
286 27 15 49 36 53 49 9 36 7 118 -4 118 -5 0 -31 -8 -57 -18 -26 -11 -89 -30
-139 -43 -65 -16 -90 -27 -87 -36 3 -8 -2 -13 -14 -13 -10 0 -34 -11 -53 -24
-44 -29 -126 -67 -151 -69 -10 -1 -19 -5 -19 -9 0 -4 -5 -8 -10 -8 -11 0 -9
37 3 56 3 6 -2 19 -13 29 -41 37 -17 79 60 109 25 10 68 28 95 41 110 51 251
103 347 130 73 20 90 43 86 118 l-3 55 -160 -55 c-88 -31 -261 -90 -385 -132
-124 -42 -227 -78 -230 -81 -3 -3 -30 -13 -60 -24 -30 -10 -84 -28 -120 -41
-97 -35 -130 -40 -130 -20 0 8 13 29 30 45 16 16 30 34 30 39 0 6 9 15 20 21
11 6 18 15 15 19 -9 16 45 42 128 62 76 18 175 49 222 70 51 21 387 132 445
145 35 9 102 32 147 51 76 33 84 39 93 72 19 68 12 72 -76 47 -27 -8 -107 -30
-179 -50 -71 -19 -195 -54 -275 -77 -80 -23 -185 -52 -235 -64 -49 -13 -115
-32 -145 -43 -30 -11 -102 -32 -160 -47 -58 -15 -125 -33 -149 -41 -25 -8 -59
-14 -76 -14 -17 0 -35 -4 -41 -9 -5 -5 -38 -17 -74 -26 -36 -10 -94 -26 -130
-35 -36 -10 -107 -32 -158 -49 -84 -28 -162 -42 -137 -23 6 4 10 17 9 29 -2
28 38 73 63 73 12 0 26 7 33 15 7 8 19 15 26 15 8 0 14 5 14 11 0 8 4 8 14 0
8 -7 17 -8 20 -3 3 6 18 13 32 16 15 4 32 13 39 20 7 7 46 18 86 25 41 7 83
17 94 22 11 4 58 18 105 29 47 12 126 32 177 45 50 14 131 29 180 35 134 16
157 20 168 34 19 22 100 39 186 37 66 -1 89 2 99 14 7 8 18 15 24 15 6 0 4 -5
-4 -10 -12 -8 -12 -10 5 -10 12 0 25 11 32 28 17 38 76 61 223 87 8 1 22 5 30
8 8 3 59 15 113 28 87 20 99 25 116 53 11 17 21 40 23 51 4 25 -14 24 -164
-10 -60 -14 -159 -36 -220 -51 -143 -32 -235 -53 -423 -97 -82 -20 -197 -45
-255 -57 -58 -11 -123 -25 -145 -30 -58 -13 -383 -85 -495 -110 -52 -11 -147
-32 -210 -46 -151 -33 -204 -39 -226 -25 -18 10 -18 10 1 11 15 0 17 2 6 9
-11 7 -9 10 7 15 12 4 24 16 27 26 4 11 16 22 28 25 29 6 108 25 127 29 8 2
40 7 70 10 53 7 204 37 285 57 22 6 56 12 75 13 31 3 104 19 260 57 25 7 74
17 110 25 36 7 94 20 130 28 203 49 264 62 410 86 110 17 263 51 275 60 16 12
90 21 215 26 63 3 120 7 126 9 15 5 23 95 9 96 -5 1 -18 0 -29 -1 -10 -1 -22
4 -27 12 -5 8 -27 13 -59 12 -28 -1 -46 2 -39 7 7 4 -9 7 -35 7 -36 0 -53 6
-68 22 -16 17 -22 19 -29 8 -7 -10 -9 -10 -9 0 0 8 -8 10 -25 6 -14 -3 -25 -2
-25 2 0 5 -14 10 -31 11 -17 1 -36 7 -43 12 -8 7 -285 61 -313 61 -2 0 -1 5 2
10 3 6 -1 10 -9 10 -9 0 -16 -5 -16 -11 0 -7 -9 -9 -28 -3 -22 6 -79 11 -162
15 -8 0 -33 -2 -55 -6 -61 -9 -118 -7 -111 4 3 4 -7 14 -21 22 -21 11 -27 11
-30 2 -3 -7 -10 -13 -18 -13 -7 0 -18 -7 -25 -15 -13 -15 -61 -21 -74 -8 -14
14 -104 26 -120 16 -17 -11 -49 -11 -75 1 -19 8 -26 7 -36 -7 -7 -10 -16 -14
-19 -9 -10 17 -85 12 -120 -8 -31 -17 -49 -19 -147 -14 -62 3 -115 6 -118 7
-3 1 -8 -2 -11 -8 -8 -15 53 -21 222 -24 84 -1 167 -4 183 -7 17 -2 79 -6 139
-8 59 -3 111 -7 114 -10 3 -3 10 -2 16 4 7 5 27 5 51 0 22 -5 108 -9 190 -10
83 0 188 -4 235 -10 47 -5 132 -10 190 -11 87 -1 97 -3 60 -9 -113 -21 -665
-102 -712 -105 -20 -2 -78 -10 -130 -19 -184 -31 -346 -56 -498 -76 -311 -41
-386 -52 -422 -61 l-38 -10 0 -58 c0 -44 4 -60 16 -65 8 -3 12 -2 9 4 -3 6 6
11 22 11 32 1 55 4 168 18 44 5 100 8 125 6 80 -8 159 5 187 31 17 15 38 24
59 24 18 0 43 4 56 9 24 10 190 49 243 58 48 7 65 10 160 28 50 9 97 18 105
19 8 1 22 5 30 9 8 3 35 8 58 10 24 2 48 10 54 18 7 11 11 11 15 1 3 -9 22
-11 71 -6 37 4 69 10 72 14 3 4 43 12 90 18 93 12 217 32 240 39 29 8 288 7
279 -1 -4 -5 -499 -100 -679 -131 -77 -13 -242 -43 -420 -75 -36 -6 -117 -20
-180 -30 -63 -11 -151 -26 -195 -35 -44 -8 -136 -24 -205 -36 -69 -11 -143
-24 -165 -29 -22 -5 -69 -14 -105 -20 -123 -22 -110 -9 -110 -110 0 -89 0 -90
25 -90 20 0 24 -4 21 -22 -2 -17 -9 -22 -25 -20 l-21 3 0 -2625 0 -2626 3500
0 3500 0 0 3957 c0 2176 -2 3954 -5 3952 -10 -10 -65 -251 -89 -389 -32 -183
-43 -265 -61 -465 -17 -187 -18 -215 -6 -215 5 0 12 46 16 103 4 56 11 120 15
142 l8 40 1 -50 c1 -84 -18 -256 -30 -271 -6 -7 -8 -17 -5 -23 9 -14 -26 -49
-56 -57 -22 -5 -28 -3 -28 10 0 9 -5 16 -12 16 -6 0 -4 6 5 13 15 10 21 50 37
227 34 369 22 742 -24 788 -16 16 -18 16 -32 -2 -41 -56 -97 -285 -128 -527
-19 -141 -20 -179 -6 -179 6 0 10 19 10 43 0 61 13 75 35 40 53 -79 63 -112
59 -185 -3 -39 -8 -77 -12 -85 -5 -7 -5 -43 -1 -80 8 -79 6 -88 -37 -130 -34
-34 -87 -135 -98 -190 -9 -41 -19 -47 -38 -25 -12 14 -13 33 -7 97 4 44 18
222 30 395 19 273 21 334 11 459 -8 101 -16 149 -26 159 -13 13 -16 10 -30
-23 -27 -64 -45 -147 -71 -322 -28 -189 -29 -203 -15 -203 6 0 10 16 10 35 0
19 3 35 8 35 4 -1 24 -16 45 -34 37 -33 38 -36 33 -87 -3 -30 -10 -137 -16
-239 -5 -102 -13 -196 -15 -208 -3 -13 -1 -30 6 -38 9 -11 9 -14 0 -14 -16 0
-91 -160 -91 -192 0 -26 -29 -74 -30 -49 0 11 -3 11 -15 1 -22 -18 -19 -5 15
67 19 41 30 79 30 108 0 44 -1 45 -32 47 -51 2 -91 -3 -112 -14 -11 -6 -21 -6
-25 -1 -12 18 -74 43 -106 43 -18 0 -45 -10 -60 -22 l-28 -22 -16 21 c-22 26
-56 44 -73 38 -18 -7 -68 -98 -68 -123 0 -23 -35 -52 -62 -52 -12 0 -18 8 -18
23 0 12 -7 34 -14 49 -8 16 -18 48 -21 73 -5 28 -11 43 -19 39 -6 -3 -3 1 6 9
15 12 19 41 24 220 6 190 5 207 -12 231 -23 30 -38 34 -29 6 5 -16 2 -20 -14
-20 -24 0 -25 5 -10 49 8 24 16 30 29 26 10 -3 20 -2 23 2 2 4 8 72 12 151 6
130 5 142 -10 142 -12 0 -16 -6 -12 -20 3 -11 1 -23 -4 -26 -5 -3 -9 -13 -9
-23 0 -10 -10 -25 -22 -33 -20 -13 -21 -17 -9 -46 7 -17 10 -35 7 -41 -9 -14
-36 -2 -36 15 0 15 -12 19 -23 7 -4 -3 -2 -12 5 -20 14 -18 5 -26 -21 -18 -16
5 -22 18 -27 56 -4 32 -11 49 -20 49 -18 0 -18 -41 1 -66 19 -26 19 -34 -4
-34 -10 0 -22 7 -25 16 -12 31 -35 -3 -29 -42 6 -35 -9 -48 -21 -18 -8 20 -26
8 -26 -17 0 -16 -5 -19 -19 -14 -13 4 -23 0 -30 -12 -5 -10 -18 -18 -28 -18
-22 0 -29 -52 -10 -76 15 -20 57 -34 57 -20 0 6 8 11 18 11 10 0 23 5 29 11
19 19 68 19 79 -1 5 -10 17 -32 27 -50 15 -25 17 -38 9 -55 -8 -17 -6 -28 7
-48 23 -35 17 -93 -11 -100 -13 -4 -18 -11 -15 -24 3 -10 8 -28 12 -41 4 -15
2 -24 -10 -28 -23 -9 -24 -5 -29 67 -2 35 -2 58 1 52 7 -18 30 -16 37 2 7 20
-14 65 -30 65 -7 0 -17 -8 -23 -17 -5 -10 -13 -15 -17 -11 -4 5 -13 3 -20 -3
-9 -8 -15 -5 -23 9 -8 15 -7 21 4 26 19 7 19 26 1 26 -22 0 -30 19 -15 36 6 8
9 17 6 21 -4 3 -2 12 5 20 13 17 4 28 -17 20 -9 -4 -15 -19 -15 -37 0 -20 -5
-30 -15 -30 -11 0 -12 -5 -5 -25 8 -20 6 -25 -7 -25 -9 0 -14 3 -11 6 4 3 0
20 -7 39 -8 18 -12 35 -8 38 3 4 3 14 -1 23 -5 14 -9 13 -25 -7 -23 -31 -33
-69 -18 -69 7 0 6 -4 -3 -9 -8 -6 -18 -7 -22 -5 -4 3 -8 -2 -8 -11 0 -9 -4
-13 -10 -10 -16 10 -12 -4 12 -35 24 -34 24 -36 -15 -45 -21 -6 -27 -4 -27 9
0 9 -4 16 -10 16 -5 0 -10 5 -10 11 0 5 5 7 10 4 6 -4 10 5 10 20 0 14 7 28
15 31 8 4 15 17 15 30 0 15 -6 24 -15 24 -8 0 -15 5 -15 10 0 6 10 10 23 10
30 0 50 15 45 31 -3 9 -21 14 -49 14 l-44 0 0 70 c0 68 -1 70 -25 70 -16 0
-25 5 -24 15 13 214 14 301 2 305 -7 3 -65 2 -128 -2 l-115 -8 -8 -150 c-5
-82 -12 -154 -17 -159 -5 -5 -16 -6 -26 -2 -15 6 -16 20 -11 147 4 84 11 146
18 155 9 11 9 17 -1 29 -10 12 -10 28 1 80 l13 65 45 2 c25 1 63 1 84 0 20 -1
37 2 37 8 0 5 -10 10 -21 10 -21 0 -21 1 -14 203 6 188 17 264 43 313 33 60
54 136 49 176 -6 57 11 138 34 164 20 21 25 44 10 44 -5 0 -14 -7 -21 -15 -17
-20 -30 -9 -30 26 0 16 -5 29 -12 29 -13 0 -53 69 -45 76 10 10 67 -62 67 -83
0 -14 6 -23 15 -23 22 0 23 33 3 82 -8 22 -15 27 -32 22 -17 -4 -25 1 -34 21
-7 14 -12 36 -12 48 0 12 -9 28 -20 35 -11 7 -20 21 -20 32 0 46 -26 103 -59
128 -19 16 -45 51 -62 89 -20 43 -37 67 -58 78 -38 19 -51 19 -51 0 0 -8 6
-15 13 -15 20 0 46 -32 78 -97 l28 -58 -38 40 c-45 47 -97 79 -113 69 -6 -4
-8 -3 -4 4 10 17 -59 46 -80 34 -16 -9 -38 -1 -135 48 -10 5 -27 1 -47 -12z
m-632 -368 c0 -5 -5 -10 -11 -10 -5 0 -7 5 -4 10 3 6 8 10 11 10 2 0 4 -4 4
-10z m-3305 -610 c3 -5 -1 -10 -10 -10 -9 0 -13 5 -10 10 3 6 8 10 10 10 2 0
7 -4 10 -10z m-321 -51 c-3 -5 -10 -7 -15 -3 -5 3 -7 10 -3 15 3 5 10 7 15 3
5 -3 7 -10 3 -15z m206 5 c0 -2 -7 -4 -15 -4 -8 0 -15 4 -15 10 0 5 7 7 15 4
8 -4 15 -8 15 -10z m-275 -4 c3 -5 1 -10 -4 -10 -6 0 -11 5 -11 10 0 6 2 10 4
10 3 0 8 -4 11 -10z m-60 -40 c-3 -5 -11 -10 -16 -10 -6 0 -7 5 -4 10 3 6 11
10 16 10 6 0 7 -4 4 -10z m945 -110 c0 -5 -4 -10 -10 -10 -5 0 -10 5 -10 10 0
6 5 10 10 10 6 0 10 -4 10 -10z m-390 -51 c0 -5 -4 -9 -10 -9 -5 0 -10 7 -10
16 0 8 5 12 10 9 6 -3 10 -10 10 -16z m280 11 c0 -5 -7 -10 -15 -10 -8 0 -15
5 -15 10 0 6 7 10 15 10 8 0 15 -4 15 -10z m340 0 c0 -5 -5 -10 -11 -10 -5 0
-7 5 -4 10 3 6 8 10 11 10 2 0 4 -4 4 -10z m-420 -90 c0 -5 -4 -10 -10 -10 -5
0 -10 5 -10 10 0 6 5 10 10 10 6 0 10 -4 10 -10z m220 -41 c11 -8 7 -9 -17 -4
-22 4 -33 3 -33 -5 0 -6 -5 -8 -10 -5 -6 4 -8 11 -5 16 8 12 46 11 65 -2z m64
-18 c3 -4 -6 -6 -19 -3 -14 2 -25 6 -25 8 0 8 39 4 44 -5z m-867 -17 c-3 -3
-12 -4 -19 -1 -8 3 -5 6 6 6 11 1 17 -2 13 -5z m1003 -14 c0 -5 -2 -10 -4 -10
-3 0 -8 5 -11 10 -3 6 -1 10 4 10 6 0 11 -4 11 -10z m-1215 -10 c-3 -5 -10
-10 -16 -10 -5 0 -9 5 -9 10 0 6 7 10 16 10 8 0 12 -4 9 -10z m795 6 c0 -11
-19 -15 -25 -6 -3 5 1 10 9 10 9 0 16 -2 16 -4z m-170 -16 c0 -5 -5 -10 -11
-10 -5 0 -7 5 -4 10 3 6 8 10 11 10 2 0 4 -4 4 -10z m-645 -39 c-3 -6 -11 -8
-17 -5 -6 4 -5 9 3 15 16 10 23 4 14 -10z m1155 -11 c0 -29 -15 -31 -39 -6
-21 23 -22 24 -4 28 27 6 43 -2 43 -22z m220 20 c0 -5 -5 -10 -11 -10 -5 0 -7
5 -4 10 3 6 8 10 11 10 2 0 4 -4 4 -10z m3485 0 c-3 -5 -11 -10 -16 -10 -6 0
-7 5 -4 10 3 6 11 10 16 10 6 0 7 -4 4 -10z m-3635 -10 c0 -5 -4 -10 -9 -10
-6 0 -13 5 -16 10 -3 6 1 10 9 10 9 0 16 -4 16 -10z m-561 -13 c7 -15 -8 -49
-19 -42 -8 5 -8 11 1 21 9 11 8 14 -5 14 -9 0 -16 4 -16 8 0 10 34 9 39 -1z
m421 -2 c16 -19 3 -40 -16 -24 -7 6 -21 8 -30 5 -10 -4 -14 -2 -11 6 2 7 10
12 16 11 6 -2 11 2 11 7 0 15 16 12 30 -5z m330 -1 c0 -8 -5 -12 -10 -9 -6 4
-8 11 -5 16 9 14 15 11 15 -7z m284 -27 c-4 -12 -12 -25 -18 -29 -6 -4 -11
-31 -11 -59 0 -30 -5 -54 -11 -56 -16 -5 -37 58 -24 71 5 5 10 20 10 32 0 12
3 30 6 38 6 15 8 15 20 -1 12 -16 13 -16 14 10 0 17 4 26 10 22 6 -4 8 -16 4
-28z m-335 7 c7 -6 -2 -12 -24 -16 -12 -2 -21 3 -23 15 -3 16 0 18 20 12 12
-4 25 -9 27 -11z m-483 -19 c8 -33 -2 -44 -20 -20 -12 17 -13 17 -18 -8 -3
-14 0 -28 6 -30 7 -2 4 -13 -7 -31 -10 -14 -22 -24 -27 -21 -9 5 -7 58 4 88 3
9 8 24 11 32 8 25 44 18 51 -10z m-186 5 c0 -5 -4 -10 -10 -10 -5 0 -10 5 -10
10 0 6 5 10 10 10 6 0 10 -4 10 -10z m620 -10 c0 -5 -4 -10 -10 -10 -5 0 -10
5 -10 10 0 6 5 10 10 10 6 0 10 -4 10 -10z m258 -19 c3 -8 -1 -12 -9 -9 -7 2
-15 10 -17 17 -3 8 1 12 9 9 7 -2 15 -10 17 -17z m302 -3 c0 -16 -3 -19 -11
-11 -6 6 -8 16 -5 22 11 17 16 13 16 -11z m-1910 8 c0 -11 -19 -15 -25 -6 -3
5 1 10 9 10 9 0 16 -2 16 -4z m2030 -32 c0 -8 -4 -14 -10 -14 -5 0 -10 2 -10
4 0 2 -3 12 -6 20 -5 12 -2 15 10 10 9 -3 16 -12 16 -20z m100 16 c0 -5 -4
-10 -10 -10 -5 0 -10 5 -10 10 0 6 5 10 10 10 6 0 10 -4 10 -10z m-160 -30 c0
-5 -4 -10 -10 -10 -5 0 -10 5 -10 10 0 6 5 10 10 10 6 0 10 -4 10 -10z m-546
-6 c13 -5 14 -9 5 -20 -9 -11 -9 -21 0 -40 6 -14 11 -34 11 -46 0 -18 4 -20
38 -15 46 8 71 -5 54 -26 -8 -10 -10 -29 -6 -56 5 -33 13 -45 36 -57 16 -8 26
-20 22 -26 -4 -6 -1 -9 7 -6 8 3 14 19 14 39 0 38 10 59 28 59 20 0 18 -39 -6
-117 -22 -71 -39 -88 -45 -45 -2 12 -8 22 -13 22 -5 0 -7 11 -3 25 5 20 2 25
-13 25 -26 0 -49 27 -58 68 -10 46 -29 41 -21 -5 11 -63 16 -72 39 -75 15 -2
24 -12 28 -33 4 -16 7 -25 8 -20 2 8 41 -61 41 -72 0 -11 -22 0 -27 15 -7 18
-32 41 -45 42 -5 0 -8 -8 -9 -17 0 -15 -2 -14 -11 4 -7 15 -21 23 -47 25 l-36
3 3 70 c3 55 8 75 25 93 l22 24 -30 -4 c-29 -3 -29 -2 -26 40 2 33 -1 42 -13
42 -12 0 -15 8 -11 35 6 53 12 59 39 49z m-1404 -14 c0 -5 -4 -10 -10 -10 -5
0 -10 5 -10 10 0 6 5 10 10 10 6 0 10 -4 10 -10z m2020 0 c0 -5 6 -7 13 -5 8
4 12 -9 13 -45 1 -51 -1 -56 -25 -41 -9 6 -11 18 -6 40 4 20 2 37 -5 46 -9 11
-9 15 -1 15 6 0 11 -4 11 -10z m-1371 -19 c14 -9 23 -79 11 -86 -12 -7 -37 28
-45 63 -7 33 5 41 34 23z m801 -11 c0 -5 -4 -10 -10 -10 -5 0 -10 5 -10 10 0
6 5 10 10 10 6 0 10 -4 10 -10z m550 -22 c0 -19 -16 -5 -17 14 -2 18 0 20 7 8
5 -8 10 -18 10 -22z m177 -25 c12 -39 9 -53 -7 -37 -13 13 -25 74 -14 74 5 0
14 -17 21 -37z m-554 2 c7 -17 -9 -30 -18 -15 -13 22 -23 9 -15 -20 10 -35 -6
-52 -18 -19 -14 37 -3 69 23 69 13 0 25 -7 28 -15z m73 -24 c-8 -13 -36 -15
-36 -3 0 4 5 13 12 20 14 14 34 0 24 -17z m-1616 9 c0 -5 -2 -10 -4 -10 -3 0
-8 5 -11 10 -3 6 -1 10 4 10 6 0 11 -4 11 -10z m880 0 c0 -5 -5 -10 -11 -10
-5 0 -7 5 -4 10 3 6 8 10 11 10 2 0 4 -4 4 -10z m4154 1 c3 -5 -4 -11 -15 -14
-12 -3 -18 -10 -15 -16 4 -6 13 -8 21 -4 8 3 15 0 15 -6 0 -7 -33 -11 -102
-10 -57 1 -90 4 -74 6 22 4 26 7 15 14 -11 7 -11 9 4 9 9 0 17 5 17 10 0 6 14
10 30 10 17 0 30 -4 30 -10 0 -5 7 -10 15 -10 8 0 15 7 15 15 0 16 35 21 44 6z
m-3751 -17 c9 -9 -4 -35 -14 -28 -5 3 -9 12 -9 20 0 14 12 19 23 8z m597 -20
c0 -8 -4 -12 -10 -9 -5 3 -10 10 -10 16 0 5 5 9 10 9 6 0 10 -7 10 -16z m110
1 c0 -12 -19 -12 -23 0 -4 9 -1 12 9 8 7 -3 14 -7 14 -8z m-106 -40 c-21 -16
-54 -20 -54 -7 0 16 13 22 44 22 28 0 29 -1 10 -15z m2794 -178 c-7 -54 -17
-99 -23 -100 -6 -1 -11 38 -13 99 -2 87 0 107 20 150 l23 49 2 -50 c2 -27 -2
-94 -9 -148z m317 158 c0 -27 -3 -30 -32 -29 -18 1 -33 -2 -33 -7 0 -5 6 -9
14 -9 23 0 27 -29 6 -42 -28 -18 -27 -43 1 -28 31 17 46 6 41 -29 -4 -31 -5
-31 -63 -31 -67 0 -81 14 -59 55 9 16 11 43 6 84 l-7 60 28 3 c15 2 44 3 63 3
32 0 35 -2 35 -30z m-3505 15 c0 -5 -5 -10 -11 -10 -5 0 -7 5 -4 10 3 6 8 10
11 10 2 0 4 -4 4 -10z m195 -23 c0 -15 -4 -28 -9 -29 -11 -3 -27 48 -18 57 12
12 27 -3 27 -28z m68 -20 c-3 -20 -10 -37 -14 -37 -11 0 -12 74 -2 83 14 14
22 -10 16 -46z m415 26 c-2 -10 -10 -18 -18 -18 -8 0 -16 8 -18 18 -2 12 3 17
18 17 15 0 20 -5 18 -17z m-248 -13 c0 -5 -2 -10 -4 -10 -3 0 -8 5 -11 10 -3
6 -1 10 4 10 6 0 11 -4 11 -10z m470 -20 c0 -5 -7 -10 -15 -10 -8 0 -15 5 -15
10 0 6 7 10 15 10 8 0 15 -4 15 -10z m-544 -36 c-3 -9 -6 -20 -6 -25 0 -6 -4
-8 -9 -5 -12 8 -2 46 11 46 6 0 7 -7 4 -16z m-112 -36 c15 -49 16 -68 1 -68
-9 0 -15 9 -15 21 0 15 -5 19 -15 15 -11 -4 -15 1 -15 19 0 18 5 25 20 25 11
0 22 -6 24 -12z m46 -33 c0 -14 -4 -25 -10 -25 -11 0 -14 33 -3 43 11 11 13 8
13 -18z m1430 15 c0 -6 -7 -13 -15 -16 -8 -4 -15 -15 -15 -25 0 -10 -4 -19
-10 -19 -5 0 -10 2 -10 4 0 2 -3 11 -6 20 -4 10 -1 16 9 16 8 0 17 7 21 15 6
17 26 20 26 5z m87 4 c-3 -3 -12 -4 -19 -1 -8 3 -5 6 6 6 11 1 17 -2 13 -5z
m-1627 -24 c0 -5 -2 -10 -4 -10 -3 0 -8 5 -11 10 -3 6 -1 10 4 10 6 0 11 -4
11 -10z m3820 -30 c0 -5 -4 -10 -10 -10 -5 0 -10 5 -10 10 0 6 5 10 10 10 6 0
10 -4 10 -10z m-3734 -46 c-4 -9 -9 -15 -11 -12 -3 3 -3 13 1 22 4 9 9 15 11
12 3 -3 3 -13 -1 -22z m3607 2 c20 -6 18 -33 -2 -28 -6 1 -28 -5 -47 -13 -20
-8 -43 -15 -50 -15 -22 0 -16 28 9 41 12 7 26 18 30 25 5 9 13 11 25 5 9 -5
25 -12 35 -15z m-3632 -39 c-13 -13 -26 -3 -16 12 3 6 11 8 17 5 6 -4 6 -10
-1 -17z m-313 -35 c2 -11 -2 -30 -8 -42 -9 -16 -15 -18 -30 -10 -23 12 -56 70
-40 70 5 0 10 -7 10 -15 0 -22 17 -18 30 6 14 25 34 20 38 -9z m3440 -23 c-1
-13 -7 -23 -13 -22 -13 3 -18 30 -11 50 10 24 29 1 24 -28z m77 -55 c1 -186
-20 -214 -27 -36 -5 122 -4 136 15 129 8 -2 12 -35 12 -93z m-3375 48 c0 -39
-20 -66 -53 -68 -13 -1 -17 6 -17 30 0 43 24 71 63 75 4 1 7 -16 7 -37z m3497
-9 l2 -44 -42 3 c-40 3 -42 4 -39 33 4 48 9 53 44 53 32 0 33 -1 35 -45z
m-397 2 c0 -22 -6 -38 -14 -41 -19 -7 -56 30 -56 56 0 16 7 20 35 20 33 0 35
-2 35 -35z m118 -7 c2 -39 1 -40 -13 -22 -15 20 -19 46 -8 57 14 15 20 5 21
-35z m-3049 -20 c-1 -55 -5 -50 -11 15 -2 20 0 37 4 37 4 0 7 -24 7 -52z
m3801 12 c9 -17 8 -20 -14 -20 -19 0 -23 4 -19 20 3 11 9 20 14 20 4 0 13 -9
19 -20z m-2870 0 c0 -5 -4 -10 -10 -10 -5 0 -10 5 -10 10 0 6 5 10 10 10 6 0
10 -4 10 -10z m2187 -72 c-3 -8 -6 -5 -6 6 -1 11 2 17 5 13 3 -3 4 -12 1 -19z
m-1827 -24 c0 -8 -5 -12 -10 -9 -6 4 -8 11 -5 16 9 14 15 11 15 -7z m1968 -40
c-5 -42 -28 -43 -28 -1 0 18 3 37 7 40 12 13 25 -10 21 -39z m246 35 c-2 -4 0
-10 6 -14 5 -3 10 -1 10 4 0 6 5 11 11 11 5 0 7 -4 4 -10 -3 -5 -2 -10 4 -10
5 0 12 6 14 13 4 7 6 6 6 -4 2 -28 -68 -40 -97 -17 -10 8 -9 13 4 23 18 13 46
16 38 4z m-164 -14 c0 -9 -9 -15 -25 -15 -31 0 -33 17 -2 23 12 2 23 5 25 6 1
0 2 -6 2 -14z m-447 -20 c20 -10 37 -22 37 -26 0 -18 -23 -20 -41 -3 -21 19
-40 11 -21 -8 15 -15 16 -42 1 -32 -27 16 -47 105 -21 92 4 -2 24 -12 45 -23z
m947 11 c0 -3 -4 -8 -10 -11 -5 -3 -10 -1 -10 4 0 6 5 11 10 11 6 0 10 -2 10
-4z m-575 -66 c4 -6 18 -9 32 -8 14 2 28 -3 30 -9 3 -8 -4 -13 -17 -13 -16 0
-20 -4 -16 -16 3 -9 6 -29 6 -45 0 -22 5 -29 19 -29 31 0 42 22 31 61 -6 18
-10 35 -10 36 0 0 13 -11 30 -25 16 -14 26 -31 22 -36 -4 -6 -7 -20 -7 -31 0
-15 6 -19 23 -17 27 4 29 -14 3 -28 -28 -14 -44 -12 -38 5 4 8 2 17 -3 20 -11
6 -31 -38 -27 -57 5 -26 -22 -15 -52 22 -17 22 -40 40 -50 40 -15 0 -17 7 -14
58 3 31 6 63 8 70 5 15 21 16 30 2z m241 -1 c3 -6 1 -15 -5 -19 -7 -4 -10 -19
-7 -36 4 -16 3 -22 0 -14 -4 8 -13 20 -21 27 -12 9 -12 15 -1 32 14 24 24 26
34 10z m-2880 -36 c-11 -11 -19 6 -11 24 8 17 8 17 12 0 3 -10 2 -21 -1 -24z
m2373 8 c30 -6 60 -19 66 -28 11 -15 14 -14 25 6 9 18 9 22 0 16 -8 -5 -11 -1
-8 11 2 11 10 19 18 19 11 0 15 -11 15 -40 0 -22 4 -46 8 -52 11 -18 37 -16
37 3 0 22 20 55 29 49 5 -2 5 -23 1 -44 -6 -32 -4 -44 10 -56 9 -8 19 -12 23
-9 8 9 47 -6 47 -18 0 -5 -7 -8 -15 -4 -26 10 -16 -3 15 -19 17 -9 30 -22 30
-30 0 -8 10 -19 22 -26 18 -10 20 -9 15 5 -8 21 -4 20 42 -8 21 -14 67 -38
102 -54 35 -16 87 -48 115 -71 42 -35 53 -51 59 -84 4 -23 10 -51 12 -62 6
-30 -7 -86 -18 -80 -5 4 -28 32 -51 63 -72 98 -159 192 -179 192 -20 0 -27
-34 -9 -45 6 -3 10 -11 10 -17 0 -7 -13 1 -30 17 -16 16 -30 33 -30 38 0 20
-143 177 -161 177 -12 0 -16 -5 -13 -15 4 -8 10 -15 15 -15 15 0 43 -72 43
-113 1 -56 -24 -57 -113 -4 -50 30 -74 51 -82 72 -6 17 -17 45 -25 63 -8 18
-14 46 -14 62 0 17 -5 30 -12 30 -7 0 -30 23 -50 50 -21 29 -30 47 -20 41 9
-5 41 -14 71 -20z m191 9 c0 -5 -2 -10 -4 -10 -3 0 -8 5 -11 10 -3 6 -1 10 4
10 6 0 11 -4 11 -10z m567 -166 c-3 -3 -12 -4 -19 -1 -8 3 -5 6 6 6 11 1 17
-2 13 -5z m-293 -287 l29 -42 -37 39 c-38 42 -41 46 -28 46 4 0 20 -19 36 -43z
m-114 -112 c4 -11 40 -57 79 -103 40 -46 71 -90 69 -99 -4 -20 -90 -42 -193
-49 -38 -3 -84 -12 -102 -20 -65 -29 -106 -16 -138 47 -18 33 -43 49 -81 49
-36 0 -107 70 -102 102 5 36 47 45 114 24 67 -21 94 -16 133 27 25 25 39 32
71 33 28 0 48 7 62 22 21 20 23 20 51 4 16 -9 33 -26 37 -37z m195 15 c8 -13
-5 -13 -25 0 -13 8 -13 10 2 10 9 0 20 -4 23 -10z m1144 -21 c17 -16 20 -24
10 -35 -9 -11 -7 -14 12 -15 24 0 24 0 3 -11 -12 -5 -27 -21 -33 -35 -20 -44
-65 -94 -120 -134 -57 -41 -73 -43 -63 -6 5 19 4 20 -11 9 -9 -8 -25 -11 -37
-7 -11 3 -20 2 -20 -4 0 -12 -28 -41 -39 -41 -16 0 -19 55 -7 122 12 70 36
115 36 67 0 -36 12 -44 27 -17 l12 23 1 -27 c0 -18 5 -28 15 -28 8 0 15 8 15
18 0 25 95 122 120 122 11 0 20 5 20 10 0 17 35 11 59 -11z m-2525 -456 c-8
-34 -22 -53 -39 -53 -7 0 -29 -11 -50 -25 -20 -15 -40 -24 -43 -21 -7 8 18 36
34 36 7 0 30 20 51 45 43 52 56 57 47 18z m-124 -143 c0 -5 -7 -10 -16 -10 -8
0 -12 5 -9 10 3 6 10 10 16 10 5 0 9 -4 9 -10z m-1027 -255 c-3 -9 -8 -14 -10
-11 -3 3 -2 9 2 15 9 16 15 13 8 -4z m767 -61 c19 -40 19 -46 5 -60 -8 -9 -15
-23 -15 -31 0 -18 -46 -83 -67 -96 -7 -5 -11 -12 -9 -16 3 -4 -4 -12 -15 -19
-16 -10 -19 -9 -19 5 0 21 -29 53 -48 53 -11 0 -8 6 8 20 13 11 28 20 35 20
24 0 53 47 69 108 9 35 16 66 16 68 0 16 23 -14 40 -52z m-365 -32 c-5 -46 -3
-61 9 -71 20 -17 1 -61 -26 -61 -32 0 -64 -43 -83 -112 -10 -37 -24 -69 -32
-73 -11 -4 -13 -1 -8 12 4 10 12 44 18 75 12 66 2 88 -43 88 -34 0 -43 -10
-124 -146 -83 -141 -91 -196 -16 -119 19 19 37 32 42 27 4 -4 1 -48 -7 -97
-14 -89 -15 -90 -67 -138 -66 -61 -87 -60 -109 7 -15 45 -15 55 -2 100 8 28
23 62 34 76 11 14 25 37 32 53 6 15 15 27 19 27 7 0 49 73 54 93 1 4 3 10 4
15 1 4 1 16 1 28 -1 12 9 35 23 52 15 16 26 35 26 42 0 21 33 39 62 33 15 -3
39 -2 53 1 26 7 31 15 75 124 7 16 18 22 41 22 l31 0 -7 -58z m1745 -37 c20
-24 -5 -45 -56 -45 -53 0 -62 12 -28 39 31 25 67 27 84 6z m-130 -10 c0 -8 -6
-15 -14 -15 -8 0 -16 7 -20 15 -4 10 1 15 14 15 11 0 20 -7 20 -15z m-1996
-95 c-16 -32 -34 -48 -34 -31 0 9 39 61 46 61 1 0 -4 -13 -12 -30z m-755 -645
c23 -14 49 -25 56 -25 8 0 20 -6 27 -13 7 -7 32 -19 56 -26 23 -8 42 -17 42
-21 0 -4 17 -10 38 -14 70 -11 151 -53 158 -81 8 -33 -2 -118 -27 -225 -50
-211 -61 -286 -62 -415 0 -109 3 -140 21 -195 30 -87 46 -232 39 -356 -5 -102
-5 -104 -61 -207 -49 -92 -57 -114 -65 -189 -14 -122 -28 -151 -96 -189 -57
-32 -74 -53 -85 -104 -3 -16 -12 -30 -20 -30 -17 0 -37 85 -45 200 -3 44 -11
98 -16 120 -5 22 -11 124 -12 226 -1 118 -6 191 -13 200 -11 14 -28 242 -25
334 1 28 9 73 17 101 8 30 15 94 15 155 0 57 1 147 1 201 1 120 -5 146 -35
150 -22 3 -22 4 -22 176 0 96 4 176 9 179 4 3 14 21 22 39 17 40 26 41 83 9z
m-131 -957 c4 -30 -28 -58 -67 -58 -13 0 -39 -10 -58 -21 -38 -23 -51 -20 -37
10 12 25 124 102 144 99 8 -2 16 -15 18 -30z m-264 -194 c20 -20 21 -53 1 -60
-8 -4 -30 -3 -49 0 -45 9 -55 41 -18 61 35 19 47 18 66 -1z m751 -1260 c26
-27 41 -83 31 -109 -18 -49 -106 35 -106 102 0 29 3 33 25 33 15 0 36 -11 50
-26z m41 -372 c23 -16 31 -48 27 -107 -5 -54 -2 -69 26 -126 35 -73 33 -102
-10 -124 -42 -22 -82 -18 -125 13 -57 42 -67 57 -61 94 3 18 11 69 17 113 15
99 18 106 61 127 37 20 49 21 65 10z m-846 -552 c0 -5 -5 -10 -11 -10 -6 0 -8
-8 -5 -17 3 -10 8 -34 10 -53 3 -19 7 -42 11 -51 3 -10 1 -20 -5 -24 -9 -6 -9
-10 1 -16 11 -7 10 -9 -3 -9 -19 0 -24 -15 -9 -25 14 -8 -26 -72 -72 -117 -21
-20 -36 -41 -33 -46 7 -11 -46 -63 -69 -66 -9 -1 -20 -7 -23 -12 -4 -6 -15
-14 -26 -17 -15 -6 -17 -14 -12 -52 10 -66 -27 -122 -111 -171 -18 -10 -33
-22 -33 -26 0 -4 -11 -8 -25 -8 -36 0 -94 -30 -88 -46 3 -8 0 -14 -6 -14 -6 0
-11 -6 -11 -14 0 -7 -7 -19 -15 -26 -8 -7 -18 -30 -21 -51 -5 -32 -11 -39 -29
-39 -13 0 -26 -7 -29 -16 -8 -22 -17 -13 -21 22 -1 16 5 35 15 46 22 24 34
110 25 183 -5 38 -4 55 4 55 6 0 11 11 11 25 0 14 4 25 10 25 9 0 45 60 43 71
-1 3 9 18 23 34 13 15 24 38 24 51 0 31 -28 57 -56 51 -23 -4 -41 17 -24 28 6
4 10 17 10 31 0 36 38 69 76 65 22 -2 39 4 53 18 11 11 39 30 63 42 60 30 87
57 98 100 12 44 35 55 135 64 39 3 72 10 73 15 5 13 52 13 52 0z"></path>
<path d="M5070 7295 c-10 -12 -10 -15 3 -15 8 0 17 7 21 15 3 8 2 15 -3 15 -5
0 -14 -7 -21 -15z"></path>
<path d="M5108 7283 c7 -3 16 -2 19 1 4 3 -2 6 -13 5 -11 0 -14 -3 -6 -6z"></path>
<path d="M5035 6540 c10 -11 28 -20 39 -20 20 0 20 1 -4 20 -34 27 -59 27 -35
0z"></path>
<path d="M5240 6396 c0 -2 7 -7 16 -10 8 -3 12 -2 9 4 -6 10 -25 14 -25 6z"></path>
<path d="M1655 959 c-10 -15 1 -23 20 -15 9 3 13 10 10 16 -8 13 -22 13 -30
-1z"></path>
<path d="M150 9009 c0 -5 5 -7 10 -4 6 3 10 8 10 11 0 2 -4 4 -10 4 -5 0 -10
-5 -10 -11z"></path>
<path d="M1440 9005 c7 -9 15 -13 17 -11 7 7 -7 26 -19 26 -6 0 -6 -6 2 -15z"></path>
<path d="M1960 9003 c1 -24 60 -93 60 -71 0 19 -41 87 -52 88 -5 0 -8 -8 -8
-17z"></path>
<path d="M1350 8990 c0 -5 5 -10 10 -10 6 0 10 5 10 10 0 6 -4 10 -10 10 -5 0
-10 -4 -10 -10z"></path>
<path d="M1915 8970 c-7 -34 -1 -50 15 -34 14 14 17 56 3 61 -6 2 -14 -10 -18
-27z"></path>
<path d="M777 8976 c-12 -9 -14 -16 -8 -21 6 -3 11 -1 11 4 0 6 7 11 15 11 8
0 15 5 15 10 0 14 -11 12 -33 -4z"></path>
<path d="M214 8962 c-23 -18 -49 -61 -41 -68 2 -3 21 16 41 41 38 46 38 58 0
27z"></path>
<path d="M1315 8961 c-6 -11 20 -33 28 -24 4 3 7 10 7 14 0 11 -29 19 -35 10z"></path>
<path d="M788 8943 c-19 -5 -25 -23 -9 -23 17 0 41 12 41 21 0 9 -4 10 -32 2z"></path>
<path d="M4097 8943 c-4 -3 -7 -14 -7 -24 0 -25 -40 -50 -84 -53 -28 -3 -46
-14 -79 -50 -24 -25 -50 -46 -58 -46 -22 0 -73 -58 -98 -112 -12 -25 -28 -51
-36 -58 -7 -6 -16 -23 -20 -38 -4 -15 -12 -34 -19 -42 -21 -24 -28 -66 -12
-79 15 -13 26 -5 26 20 0 50 152 289 184 289 7 0 30 15 52 34 21 18 59 42 84
54 56 26 133 92 108 92 -10 0 -18 5 -18 10 0 11 -13 13 -23 3z"></path>
<path d="M480 8895 c0 -14 4 -25 9 -25 12 0 23 29 15 41 -10 18 -24 9 -24 -16z"></path>
<path d="M1016 8904 c-4 -10 -1 -14 6 -12 15 5 23 28 10 28 -5 0 -13 -7 -16
-16z"></path>
<path d="M2095 8899 c-4 -13 -1 -27 9 -38 9 -10 16 -23 16 -29 0 -7 5 -12 10
-12 11 0 7 70 -5 89 -10 17 -23 13 -30 -10z"></path>
<path d="M2027 8886 c-6 -16 2 -28 14 -20 12 7 11 34 0 34 -5 0 -11 -6 -14
-14z"></path>
<path d="M1740 8881 c0 -6 5 -13 10 -16 6 -3 10 1 10 9 0 9 -4 16 -10 16 -5 0
-10 -4 -10 -9z"></path>
<path d="M630 8860 c0 -5 5 -10 10 -10 6 0 10 5 10 10 0 6 -4 10 -10 10 -5 0
-10 -4 -10 -10z"></path>
<path d="M1567 8853 c-4 -3 -7 -11 -7 -17 0 -6 5 -5 12 2 6 6 9 14 7 17 -3 3
-9 2 -12 -2z"></path>
<path d="M534 8836 c-13 -10 -23 -11 -31 -4 -10 8 -13 4 -13 -15 0 -31 9 -57
21 -57 9 0 59 70 59 82 0 12 -14 10 -36 -6z"></path>
<path d="M1727 8844 c-14 -14 -6 -24 19 -24 16 0 24 5 22 13 -5 14 -31 21 -41
11z"></path>
<path d="M6410 8825 c0 -14 5 -25 10 -25 6 0 10 11 10 25 0 14 -4 25 -10 25
-5 0 -10 -11 -10 -25z"></path>
<path d="M6500 8835 c0 -8 5 -15 10 -15 6 0 10 7 10 15 0 8 -4 15 -10 15 -5 0
-10 -7 -10 -15z"></path>
<path d="M6194 8829 c-3 -5 1 -15 8 -23 11 -11 16 -11 26 0 7 7 12 15 12 17 0
10 -40 15 -46 6z"></path>
<path d="M1975 8820 c-3 -6 5 -10 19 -10 14 0 28 5 31 10 3 6 -5 10 -19 10
-14 0 -28 -4 -31 -10z"></path>
<path d="M1350 8801 c0 -22 16 -36 24 -22 8 12 -3 41 -15 41 -5 0 -9 -9 -9
-19z"></path>
<path d="M308 8803 c7 -3 16 -2 19 1 4 3 -2 6 -13 5 -11 0 -14 -3 -6 -6z"></path>
<path d="M1486 8794 c-8 -22 -7 -34 3 -34 5 0 11 11 13 25 6 28 -6 34 -16 9z"></path>
<path d="M2118 8783 c-16 -30 -14 -53 6 -53 13 0 38 58 30 71 -9 15 -19 10
-36 -18z"></path>
<path d="M1535 8791 c-6 -11 1 -16 37 -25 36 -8 46 11 13 24 -33 12 -42 13
-50 1z"></path>
<path d="M1920 8784 c0 -8 5 -12 10 -9 6 3 10 10 10 16 0 5 -4 9 -10 9 -5 0
-10 -7 -10 -16z"></path>
<path d="M6150 8777 c0 -18 28 -42 37 -33 9 8 -9 38 -25 44 -7 2 -12 -3 -12
-11z"></path>
<path d="M1727 8763 c-12 -11 -8 -23 8 -23 8 0 15 7 15 15 0 16 -12 20 -23 8z"></path>
<path d="M2010 8760 c0 -5 5 -10 10 -10 6 0 10 5 10 10 0 6 -4 10 -10 10 -5 0
-10 -4 -10 -10z"></path>
<path d="M1860 8746 c0 -9 5 -16 10 -16 6 0 10 4 10 9 0 6 -4 13 -10 16 -5 3
-10 -1 -10 -9z"></path>
<path d="M1975 8750 c3 -5 8 -10 11 -10 2 0 4 5 4 10 0 6 -5 10 -11 10 -5 0
-7 -4 -4 -10z"></path>
<path d="M6484 8705 c-3 -20 -4 -39 0 -42 9 -9 13 -2 19 40 7 47 -10 49 -19 2z"></path>
<path d="M1512 8708 c-14 -14 -16 -68 -4 -68 5 0 14 11 20 25 21 46 12 71 -16
43z"></path>
<path d="M1600 8700 c0 -5 5 -10 10 -10 6 0 10 5 10 10 0 6 -4 10 -10 10 -5 0
-10 -4 -10 -10z"></path>
<path d="M6159 8693 c-39 -47 -42 -53 -28 -53 8 0 22 14 32 31 20 36 18 48 -4
22z"></path>
<path d="M105 8681 c4 -13 0 -20 -15 -24 -14 -4 -18 -10 -13 -23 4 -10 2 -15
-3 -11 -6 3 -17 -3 -24 -14 -8 -10 -23 -19 -33 -19 -15 0 -16 -3 -6 -22 7 -13
18 -27 25 -31 8 -4 14 -15 14 -22 0 -8 5 -15 11 -15 7 0 9 -10 7 -25 -3 -13 0
-26 6 -29 6 -2 -8 -7 -31 -11 -41 -7 -58 -28 -30 -38 9 -3 9 -9 0 -26 -17 -28
-16 -58 2 -65 8 -3 12 -12 9 -21 -7 -17 11 -21 21 -5 4 6 7 24 7 40 1 36 1 36
44 9 19 -11 34 -19 35 -17 1 2 2 26 3 54 1 39 -2 50 -11 47 -7 -3 -13 2 -13
12 0 12 5 15 23 9 12 -4 24 -10 27 -15 3 -5 19 1 35 11 17 11 25 20 18 20 -6
0 -14 8 -16 18 -4 14 -6 14 -12 -5 -9 -28 -25 -30 -32 -3 -3 11 -9 17 -14 14
-5 -3 -7 -10 -4 -15 4 -5 -3 -9 -14 -9 l-21 0 20 20 c11 11 26 20 33 20 8 0
16 3 20 6 6 6 -12 45 -26 55 -5 3 1 9 12 12 24 6 29 27 6 27 -11 0 -13 8 -8
31 7 37 -13 79 -39 79 -14 0 -18 -5 -13 -19z"></path>
<path d="M477 8693 c-4 -3 -7 -11 -7 -17 0 -6 5 -5 12 2 6 6 9 14 7 17 -3 3
-9 2 -12 -2z"></path>
<path d="M2126 8678 c15 -27 47 -57 56 -52 12 8 -30 64 -48 64 -9 0 -12 -5 -8
-12z"></path>
<path d="M2261 8674 c0 -11 3 -14 6 -6 3 7 2 16 -1 19 -3 4 -6 -2 -5 -13z"></path>
<path d="M6340 8675 c0 -8 5 -15 10 -15 6 0 10 7 10 15 0 8 -4 15 -10 15 -5 0
-10 -7 -10 -15z"></path>
<path d="M1652 8668 c-7 -9 -4 -21 13 -42 28 -35 51 -30 57 14 5 35 -7 51 -15
19 -7 -25 -43 -22 -41 4 2 20 0 21 -14 5z"></path>
<path d="M2286 8652 c-4 -7 -6 -31 -5 -54 1 -24 0 -50 -2 -58 -2 -8 3 -15 11
-15 11 0 14 9 12 33 -1 18 2 41 8 51 11 21 -12 62 -24 43z"></path>
<path d="M5817 8609 c-4 -14 -11 -20 -20 -16 -25 10 -37 -14 -30 -62 7 -58 13
-64 48 -51 l29 11 -29 23 -28 23 24 16 c15 11 27 13 33 7 16 -16 26 -12 26 11
0 16 -4 19 -21 14 -19 -6 -21 -4 -15 19 3 14 2 26 -3 26 -5 0 -11 -10 -14 -21z"></path>
<path d="M6480 8610 c0 -5 5 -10 10 -10 6 0 10 5 10 10 0 6 -4 10 -10 10 -5 0
-10 -4 -10 -10z"></path>
<path d="M6040 8595 c-6 -8 -22 -17 -33 -21 -42 -13 -49 -25 -29 -48 28 -32
47 -85 34 -98 -15 -15 -32 -1 -32 28 0 13 -5 24 -11 24 -6 0 -9 -14 -7 -32 2
-23 11 -37 31 -48 24 -13 29 -13 37 0 12 19 13 73 1 86 -14 14 -17 57 -5 61 6
2 21 -6 34 -17 13 -11 27 -20 32 -20 16 0 8 19 -13 31 -15 8 -20 18 -16 35 5
29 -6 39 -23 19z"></path>
<path d="M666 8573 c-9 -22 29 -62 44 -47 8 8 7 19 -1 37 -14 31 -34 35 -43
10z"></path>
<path d="M6117 8572 c-20 -22 -21 -32 -6 -32 12 0 38 29 39 43 0 13 -17 7 -33
-11z"></path>
<path d="M590 8570 c0 -5 9 -10 20 -10 11 0 20 5 20 10 0 6 -9 10 -20 10 -11
0 -20 -4 -20 -10z"></path>
<path d="M450 8555 c-7 -8 -8 -15 -2 -15 5 0 15 7 22 15 7 8 8 15 2 15 -5 0
-15 -7 -22 -15z"></path>
<path d="M1650 8560 c0 -5 5 -10 11 -10 5 0 7 5 4 10 -3 6 -8 10 -11 10 -2 0
-4 -4 -4 -10z"></path>
<path d="M6237 8564 c-4 -4 -7 -14 -7 -23 0 -11 3 -12 11 -4 6 6 10 16 7 23
-2 6 -7 8 -11 4z"></path>
<path d="M6400 8525 c0 -25 5 -45 10 -45 6 0 10 20 10 45 0 25 -4 45 -10 45
-5 0 -10 -20 -10 -45z"></path>
<path d="M1587 8544 c-4 -4 -4 -10 -1 -15 6 -10 34 0 34 12 0 10 -24 12 -33 3z"></path>
<path d="M5885 8530 c-3 -6 2 -13 12 -17 10 -4 23 -14 30 -22 11 -15 12 -14
13 0 0 15 -29 49 -43 49 -3 0 -9 -5 -12 -10z"></path>
<path d="M230 8510 c0 -5 5 -10 10 -10 6 0 10 5 10 10 0 6 -4 10 -10 10 -5 0
-10 -4 -10 -10z"></path>
<path d="M1937 8503 c-12 -11 -8 -23 8 -23 8 0 15 7 15 15 0 16 -12 20 -23 8z"></path>
<path d="M2290 8480 c0 -5 5 -10 10 -10 6 0 10 5 10 10 0 6 -4 10 -10 10 -5 0
-10 -4 -10 -10z"></path>
<path d="M2446 8474 c-21 -21 -20 -27 10 -53 30 -26 45 -20 20 8 -11 13 -15
27 -11 40 8 25 2 27 -19 5z"></path>
<path d="M6080 8475 c0 -8 5 -15 10 -15 6 0 10 7 10 15 0 8 -4 15 -10 15 -5 0
-10 -7 -10 -15z"></path>
<path d="M6470 8450 c0 -16 5 -30 10 -30 6 0 10 14 10 30 0 17 -4 30 -10 30
-5 0 -10 -13 -10 -30z"></path>
<path d="M315 8460 c3 -5 8 -10 11 -10 2 0 4 5 4 10 0 6 -5 10 -11 10 -5 0 -7
-4 -4 -10z"></path>
<path d="M5837 8463 c-4 -3 -7 -10 -7 -13 0 -16 67 -78 98 -91 24 -10 32 -20
32 -39 0 -36 15 -57 24 -34 10 26 -4 84 -24 94 -10 6 -20 20 -22 32 -2 17 -9
22 -26 21 -13 -2 -27 5 -34 17 -13 20 -29 25 -41 13z m73 -53 c0 -5 -4 -10
-10 -10 -5 0 -10 5 -10 10 0 6 5 10 10 10 6 0 10 -4 10 -10z"></path>
<path d="M1732 8448 c6 -18 28 -21 28 -4 0 9 -7 16 -16 16 -9 0 -14 -5 -12
-12z"></path>
<path d="M2323 8425 c31 -27 36 -29 56 -16 20 13 5 29 -23 24 -13 -3 -27 0
-30 6 -4 6 -13 11 -19 11 -7 0 1 -12 16 -25z"></path>
<path d="M320 8429 c0 -5 5 -7 10 -4 6 3 10 8 10 11 0 2 -4 4 -10 4 -5 0 -10
-5 -10 -11z"></path>
<path d="M3590 8432 c0 -6 7 -12 15 -16 13 -4 15 -38 15 -220 0 -138 -4 -225
-11 -243 -7 -15 -18 -43 -26 -62 -24 -53 -19 -138 12 -214 20 -52 26 -81 24
-130 l-3 -62 38 -3 38 -3 -4 -90 c-3 -65 -1 -89 8 -89 18 0 24 25 24 105 0 69
-2 75 -28 94 -24 17 -29 27 -29 65 0 29 -6 53 -16 64 -9 10 -17 21 -17 24 0 3
-7 23 -16 44 -24 57 -27 141 -5 157 17 11 41 48 41 62 0 3 -9 1 -20 -5 -34
-18 -24 13 22 72 22 29 45 59 51 66 14 18 -18 16 -37 -3 -8 -8 -16 -12 -18 -8
-4 9 9 344 14 378 2 17 -3 21 -34 23 -21 2 -38 -1 -38 -6z"></path>
<path d="M1520 8419 c0 -5 5 -7 10 -4 6 3 10 8 10 11 0 2 -4 4 -10 4 -5 0 -10
-5 -10 -11z"></path>
<path d="M6220 8420 c0 -5 5 -10 10 -10 6 0 10 5 10 10 0 6 -4 10 -10 10 -5 0
-10 -4 -10 -10z"></path>
<path d="M510 8410 c0 -5 5 -10 10 -10 6 0 10 5 10 10 0 6 -4 10 -10 10 -5 0
-10 -4 -10 -10z"></path>
<path d="M555 8399 c-4 -6 -5 -13 -2 -16 7 -7 27 6 27 18 0 12 -17 12 -25 -2z"></path>
<path d="M2554 8395 c6 -18 -8 -48 -43 -87 -31 -35 -18 -58 16 -26 46 42 67
128 31 128 -5 0 -7 -7 -4 -15z"></path>
<path d="M6167 8404 c-4 -4 -7 -14 -7 -23 0 -11 3 -12 11 -4 6 6 10 16 7 23
-2 6 -7 8 -11 4z"></path>
<path d="M2510 8385 c0 -8 5 -15 10 -15 6 0 10 7 10 15 0 8 -4 15 -10 15 -5 0
-10 -7 -10 -15z"></path>
<path d="M6460 8340 c0 -28 -5 -43 -16 -47 -13 -5 -13 -7 -2 -14 30 -19 38 -9
38 46 0 30 -4 55 -10 55 -5 0 -10 -18 -10 -40z"></path>
<path d="M730 8320 c0 -5 5 -10 10 -10 6 0 10 5 10 10 0 6 -4 10 -10 10 -5 0
-10 -4 -10 -10z"></path>
<path d="M6390 8320 c0 -5 5 -10 10 -10 6 0 10 5 10 10 0 6 -4 10 -10 10 -5 0
-10 -4 -10 -10z"></path>
<path d="M6877 8197 c-64 -72 -190 -211 -278 -307 -189 -206 -267 -292 -489
-540 -91 -101 -204 -226 -252 -278 -48 -52 -85 -99 -82 -103 9 -15 27 1 140
121 59 63 207 216 328 340 122 124 302 310 401 413 99 104 219 230 268 279
l87 91 0 58 c0 33 -1 59 -2 59 -2 0 -56 -60 -121 -133z"></path>
<path d="M2038 8302 c-7 -10 -22 -24 -33 -30 -24 -14 -3 -16 23 -3 9 5 25 12
35 15 21 6 23 36 3 36 -8 0 -21 -8 -28 -18z"></path>
<path d="M5899 8309 c-10 -6 -11 -9 -1 -9 7 0 17 -11 22 -25 5 -14 15 -25 21
-25 6 0 8 7 5 16 -3 9 -6 22 -6 29 0 17 -23 25 -41 14z"></path>
<path d="M696 8283 c-3 -3 -3 -10 0 -14 7 -12 34 -11 34 0 0 11 -26 22 -34 14z"></path>
<path d="M5626 8238 c-36 -35 -40 -37 -56 -23 -15 13 -19 14 -29 1 -9 -11 -9
-16 1 -23 19 -12 48 -68 48 -92 0 -19 26 -41 48 -41 6 0 9 33 7 80 -2 44 1 82
6 85 14 9 30 43 22 48 -5 2 -26 -14 -47 -35z"></path>
<path d="M1560 8252 c0 -15 38 -44 43 -34 4 4 -3 16 -14 25 -21 19 -29 21 -29
9z"></path>
<path d="M2225 8230 c-3 -11 -2 -27 3 -36 8 -14 10 -11 14 15 5 36 -7 52 -17
21z"></path>
<path d="M2475 8231 c-3 -5 -1 -12 5 -16 12 -7 30 2 30 16 0 12 -27 12 -35 0z"></path>
<path d="M5692 8231 c2 -7 7 -12 11 -12 12 1 9 15 -3 20 -7 2 -11 -2 -8 -8z"></path>
<path d="M6450 8205 c0 -19 5 -35 10 -35 6 0 10 16 10 35 0 19 -4 35 -10 35
-5 0 -10 -16 -10 -35z"></path>
<path d="M1765 8220 c-4 -6 -16 -8 -28 -4 -20 6 -19 5 4 -24 28 -37 55 -38 51
-2 -3 30 -17 46 -27 30z"></path>
<path d="M1830 8220 c0 -5 5 -10 10 -10 6 0 10 5 10 10 0 6 -4 10 -10 10 -5 0
-10 -4 -10 -10z"></path>
<path d="M770 8210 c0 -5 5 -10 10 -10 6 0 10 5 10 10 0 6 -4 10 -10 10 -5 0
-10 -4 -10 -10z"></path>
<path d="M2195 8210 c-4 -6 -11 -7 -17 -4 -7 5 -8 2 -4 -5 5 -8 0 -14 -13 -18
-24 -6 -25 -14 -10 -63 6 -19 11 -51 11 -70 0 -19 2 -29 5 -22 7 17 31 15 35
-3 4 -20 31 -3 33 22 1 10 5 29 9 41 6 18 2 30 -14 47 -12 12 -22 37 -22 54
-1 33 -3 37 -13 21z m16 -143 c-1 -12 -15 -9 -19 4 -3 6 1 10 8 8 6 -3 11 -8
11 -12z"></path>
<path d="M5886 8193 c9 -35 13 -43 25 -43 18 0 9 49 -11 60 -19 10 -20 9 -14
-17z"></path>
<path d="M690 8200 c0 -5 7 -10 16 -10 8 0 12 5 9 10 -3 6 -10 10 -16 10 -5 0
-9 -4 -9 -10z"></path>
<path d="M2881 8192 c-15 -28 -14 -52 3 -52 17 0 31 49 17 63 -6 6 -13 2 -20
-11z"></path>
<path d="M630 8185 c0 -8 -4 -15 -9 -15 -10 0 -24 -30 -17 -38 7 -7 55 52 49
60 -8 14 -23 9 -23 -7z"></path>
<path d="M2016 8191 c-4 -7 -5 -15 -2 -18 9 -9 19 4 14 18 -4 11 -6 11 -12 0z"></path>
<path d="M2720 8190 c0 -5 5 -10 11 -10 5 0 7 5 4 10 -3 6 -8 10 -11 10 -2 0
-4 -4 -4 -10z"></path>
<path d="M6374 8175 c-4 -14 -4 -29 0 -32 3 -4 6 3 6 15 0 12 5 22 10 22 6 0
10 5 10 10 0 21 -20 9 -26 -15z"></path>
<path d="M2455 8181 c-10 -18 17 -23 33 -7 15 15 15 16 -5 16 -12 0 -24 -4
-28 -9z"></path>
<path d="M5950 8180 c0 -5 5 -10 10 -10 6 0 10 5 10 10 0 6 -4 10 -10 10 -5 0
-10 -4 -10 -10z"></path>
<path d="M2510 8159 c0 -18 2 -19 15 -9 8 7 15 16 15 21 0 5 -7 9 -15 9 -9 0
-15 -9 -15 -21z"></path>
<path d="M5770 8166 c-21 -19 -77 -28 -83 -13 -3 7 -8 -1 -12 -16 -10 -37 -5
-40 36 -23 37 15 101 66 84 66 -6 0 -17 -6 -25 -14z"></path>
<path d="M2639 8143 c-6 -6 -9 -20 -7 -29 2 -12 -7 -23 -24 -32 -28 -13 -37
-36 -19 -47 13 -7 71 65 71 89 0 16 3 17 12 8 19 -19 60 -15 56 5 -2 13 -13
18 -41 18 -21 0 -43 -5 -48 -12z"></path>
<path d="M660 8138 c0 -9 -6 -19 -12 -21 -7 -3 -8 -6 -3 -6 6 0 17 4 25 9 12
7 12 12 2 22 -9 9 -12 9 -12 -4z"></path>
<path d="M5804 8114 c-21 -49 -13 -67 22 -53 15 5 34 7 42 4 15 -5 42 11 42
25 0 4 -15 7 -32 6 -29 -1 -33 2 -36 27 -5 37 -20 34 -38 -9z"></path>
<path d="M2115 8130 c-3 -5 -16 -10 -28 -10 -21 0 -20 -1 6 -27 23 -24 29 -26
37 -13 5 9 5 19 0 24 -4 4 -6 15 -3 22 6 16 -3 19 -12 4z"></path>
<path d="M2555 8110 c3 -5 15 -10 26 -10 11 0 17 5 14 10 -3 6 -15 10 -26 10
-11 0 -17 -4 -14 -10z"></path>
<path d="M2831 8111 c-9 -6 -11 -18 -7 -38 5 -22 2 -34 -14 -48 -23 -21 -26
-35 -7 -35 15 0 77 58 77 71 0 5 5 9 10 9 6 0 10 -9 10 -20 0 -11 2 -20 5 -20
9 0 45 40 45 50 0 6 -15 10 -34 10 -18 0 -39 7 -46 15 -14 17 -20 18 -39 6z"></path>
<path d="M1810 8100 c0 -5 5 -10 11 -10 5 0 7 5 4 10 -3 6 -8 10 -11 10 -2 0
-4 -4 -4 -10z"></path>
<path d="M1925 8100 c3 -5 11 -10 16 -10 6 0 7 5 4 10 -3 6 -11 10 -16 10 -6
0 -7 -4 -4 -10z"></path>
<path d="M5750 8095 c0 -8 5 -15 10 -15 6 0 10 7 10 15 0 8 -4 15 -10 15 -5 0
-10 -7 -10 -15z"></path>
<path d="M2710 8090 c0 -5 5 -10 10 -10 6 0 10 5 10 10 0 6 -4 10 -10 10 -5 0
-10 -4 -10 -10z"></path>
<path d="M2982 8055 c-22 -25 -36 -47 -31 -50 14 -9 89 56 89 77 0 28 -13 22
-58 -27z"></path>
<path d="M2296 8058 c-8 -33 -7 -40 4 -33 6 4 8 11 4 16 -3 6 3 13 15 16 26 7
28 23 2 23 -11 0 -21 -9 -25 -22z"></path>
<path d="M2420 8061 c0 -12 5 -21 10 -21 6 0 10 6 10 14 0 8 -4 18 -10 21 -5
3 -10 -3 -10 -14z"></path>
<path d="M6440 8070 c0 -5 5 -10 10 -10 6 0 10 5 10 10 0 6 -4 10 -10 10 -5 0
-10 -4 -10 -10z"></path>
<path d="M1945 8051 c-3 -5 -1 -12 5 -16 5 -3 10 1 10 9 0 18 -6 21 -15 7z"></path>
<path d="M5750 8050 c0 -5 5 -10 10 -10 6 0 10 5 10 10 0 6 -4 10 -10 10 -5 0
-10 -4 -10 -10z"></path>
<path d="M2675 8021 c-3 -5 -1 -12 4 -15 12 -8 41 3 41 15 0 12 -37 12 -45 0z"></path>
<path d="M2860 7998 c0 -7 7 -26 15 -42 8 -15 15 -37 15 -48 0 -30 -27 -75
-50 -81 -12 -3 -20 -13 -20 -26 0 -33 37 -27 55 9 9 17 27 35 41 40 21 8 23
13 14 30 -6 11 -8 25 -4 31 3 6 0 18 -8 27 -8 9 -20 29 -28 45 -14 28 -30 36
-30 15z"></path>
<path d="M750 7970 c0 -11 4 -20 9 -20 17 0 19 15 5 28 -12 11 -14 9 -14 -8z"></path>
<path d="M2610 7978 c0 -17 18 -44 24 -37 8 7 -5 49 -15 49 -5 0 -9 -6 -9 -12z"></path>
<path d="M2952 7978 c-14 -14 -16 -44 -3 -53 11 -6 31 26 31 49 0 19 -11 21
-28 4z"></path>
<path d="M2714 7969 c-10 -16 18 -30 34 -17 11 9 11 13 0 19 -18 12 -26 11
-34 -2z"></path>
<path d="M6430 7970 c0 -5 5 -10 10 -10 6 0 10 5 10 10 0 6 -4 10 -10 10 -5 0
-10 -4 -10 -10z"></path>
<path d="M1605 7930 c3 -5 8 -10 11 -10 2 0 4 5 4 10 0 6 -5 10 -11 10 -5 0
-7 -4 -4 -10z"></path>
<path d="M1956 7926 c3 -8 14 -16 26 -19 19 -5 19 -5 2 14 -20 22 -36 25 -28
5z"></path>
<path d="M3707 7908 c-8 -18 -12 -37 -9 -42 6 -11 53 45 49 58 -8 23 -27 15
-40 -16z"></path>
<path d="M2040 7920 c0 -5 5 -10 10 -10 6 0 10 5 10 10 0 6 -4 10 -10 10 -5 0
-10 -4 -10 -10z"></path>
<path d="M2661 7916 c-10 -12 -8 -17 10 -26 17 -9 23 -9 29 1 19 30 -16 53
-39 25z"></path>
<path d="M6360 7920 c0 -5 5 -10 10 -10 6 0 10 5 10 10 0 6 -4 10 -10 10 -5 0
-10 -4 -10 -10z"></path>
<path d="M990 7910 c0 -5 7 -10 15 -10 8 0 15 5 15 10 0 6 -7 10 -15 10 -8 0
-15 -4 -15 -10z"></path>
<path d="M2836 7904 c-15 -40 3 -47 21 -9 9 20 8 25 -2 25 -7 0 -16 -7 -19
-16z"></path>
<path d="M1174 7876 c11 -9 24 -16 30 -16 12 0 7 5 -24 19 -24 11 -24 11 -6
-3z"></path>
<path d="M2629 7880 c-5 -28 -4 -50 2 -50 13 0 20 33 9 44 -5 5 -10 8 -11 6z"></path>
<path d="M545 7850 c-3 -5 -1 -10 4 -10 6 0 11 5 11 10 0 6 -2 10 -4 10 -3 0
-8 -4 -11 -10z"></path>
<path d="M1760 7830 c0 -5 5 -10 10 -10 6 0 10 5 10 10 0 6 -4 10 -10 10 -5 0
-10 -4 -10 -10z"></path>
<path d="M1950 7829 c0 -5 5 -7 10 -4 6 3 10 8 10 11 0 2 -4 4 -10 4 -5 0 -10
-5 -10 -11z"></path>
<path d="M2766 7802 c-3 -5 2 -20 12 -33 24 -29 36 -11 13 20 -11 14 -21 19
-25 13z"></path>
<path d="M1860 7750 c0 -13 40 -53 47 -47 6 7 -27 57 -38 57 -5 0 -9 -4 -9
-10z"></path>
<path d="M2812 7733 c-7 -3 -19 -18 -28 -35 -14 -27 -14 -32 0 -47 12 -13 13
-21 3 -40 -17 -34 -35 -37 -46 -8 -5 13 -17 27 -27 31 -23 9 -28 2 -9 -14 8
-7 15 -23 15 -36 0 -20 5 -23 28 -22 37 2 62 26 62 58 0 28 24 85 41 95 23 15
-9 30 -39 18z"></path>
<path d="M2484 7689 c-3 -6 -2 -15 4 -21 7 -7 14 -3 21 11 10 17 9 21 -3 21
-8 0 -18 -5 -22 -11z"></path>
<path d="M2586 7693 c-12 -12 -5 -23 14 -23 11 0 20 4 20 9 0 11 -26 22 -34
14z"></path>
<path d="M1997 7683 c-7 -11 10 -40 18 -31 4 4 3 14 -3 24 -5 9 -12 12 -15 7z"></path>
<path d="M2547 7647 c-5 -36 -3 -42 12 -32 13 8 15 52 2 59 -5 3 -11 -9 -14
-27z"></path>
<path d="M2650 7670 c0 -5 5 -10 10 -10 6 0 10 5 10 10 0 6 -4 10 -10 10 -5 0
-10 -4 -10 -10z"></path>
<path d="M1561 7660 c-13 -7 -13 -11 -1 -25 12 -15 14 -15 23 0 11 21 -3 37
-22 25z"></path>
<path d="M2599 7638 c-1 -2 -2 -29 -4 -60 -1 -31 -7 -63 -13 -70 -7 -9 -8 -19
-2 -28 6 -8 10 -25 10 -37 0 -13 5 -23 11 -23 8 0 9 13 5 39 -4 27 -2 42 8 50
12 10 15 7 18 -16 3 -32 25 -37 42 -11 8 13 8 23 -2 39 -11 18 -11 24 4 40 19
21 13 49 -11 49 -8 0 -21 -12 -27 -27 -12 -28 -12 -28 -16 15 -2 23 -7 42 -13
42 -5 0 -10 -1 -10 -2z"></path>
<path d="M1500 7615 c0 -8 5 -15 10 -15 6 0 10 7 10 15 0 8 -4 15 -10 15 -5 0
-10 -7 -10 -15z"></path>
<path d="M5754 7545 c-9 -22 1 -29 15 -11 8 10 9 16 1 21 -5 3 -13 -1 -16 -10z"></path>
<path d="M5790 7495 c0 -8 5 -15 10 -15 6 0 10 7 10 15 0 8 -4 15 -10 15 -5 0
-10 -7 -10 -15z"></path>
<path d="M1280 7471 c-22 -42 -10 -52 29 -22 l24 19 -21 11 c-18 9 -23 8 -32
-8z"></path>
<path d="M215 7460 c3 -5 13 -10 21 -10 8 0 12 5 9 10 -3 6 -13 10 -21 10 -8
0 -12 -4 -9 -10z"></path>
<path d="M2516 7461 c-4 -5 -2 -12 3 -15 5 -4 12 -2 15 3 4 5 2 12 -3 15 -5 4
-12 2 -15 -3z"></path>
<path d="M2750 7455 c0 -9 5 -15 11 -13 6 2 11 8 11 13 0 5 -5 11 -11 13 -6 2
-11 -4 -11 -13z"></path>
<path d="M2805 7461 c-3 -5 -2 -16 1 -25 3 -9 2 -16 -4 -16 -19 0 -61 -41 -56
-55 9 -24 35 -26 61 -5 21 16 53 62 53 75 0 9 -50 33 -55 26z"></path>
<path d="M5752 7458 c6 -18 28 -21 28 -4 0 9 -7 16 -16 16 -9 0 -14 -5 -12
-12z"></path>
<path d="M442 7418 c3 -7 13 -15 22 -16 12 -3 17 1 14 10 -3 7 -13 15 -22 16
-12 3 -17 -1 -14 -10z"></path>
<path d="M523 7413 c-12 -35 -22 -40 -63 -33 -37 7 -53 -1 -30 -15 19 -11 10
-24 -25 -36 -31 -11 -35 -17 -35 -47 0 -25 -8 -42 -31 -63 -31 -29 -32 -49 -2
-49 14 0 14 -2 -2 -20 -9 -10 -15 -26 -12 -34 10 -26 -13 -29 -44 -7 -29 22
-43 9 -17 -17 10 -10 8 -19 -6 -43 -21 -35 -13 -53 10 -21 20 29 69 30 84 2 8
-15 8 -20 -1 -20 -6 0 -9 -9 -6 -20 3 -11 1 -23 -4 -26 -14 -8 -10 -24 6 -24
8 0 15 -4 15 -8 0 -14 -24 -32 -42 -32 -20 0 -35 -26 -23 -38 4 -4 10 -1 12 6
5 14 33 16 33 2 0 -5 5 -10 10 -10 6 0 10 7 10 15 0 8 9 19 20 25 25 13 26 36
2 49 -21 11 -22 45 -4 63 16 16 15 37 -3 44 -8 3 -21 19 -28 34 -13 26 -13 30
10 54 13 14 29 26 35 26 6 0 3 9 -7 20 -18 20 -18 21 3 50 12 16 22 36 22 45
0 9 12 18 30 21 16 4 35 13 41 20 6 8 17 14 23 14 7 0 23 11 35 24 15 15 29
22 40 18 14 -5 14 -4 -1 12 -10 9 -18 22 -18 27 0 16 -30 10 -37 -8z"></path>
<path d="M2642 7411 c2 -14 9 -26 16 -29 17 -5 15 10 -3 34 -15 18 -15 18 -13
-5z"></path>
<path d="M3415 7404 c-19 -21 -30 -25 -51 -20 -22 6 -25 4 -19 -12 4 -13 0
-22 -11 -26 -13 -5 -14 -9 -4 -21 10 -13 10 -19 -4 -33 -18 -20 -20 -40 -7
-60 8 -13 16 -11 60 16 3 1 -3 8 -11 15 -11 8 -14 22 -11 45 4 25 10 32 28 32
14 0 25 7 28 20 7 28 67 28 74 0 6 -23 23 -17 23 9 0 20 -40 61 -59 61 -6 0
-23 -12 -36 -26z"></path>
<path d="M5717 7423 c-11 -10 -8 -41 4 -49 6 -3 18 1 27 9 13 13 13 19 2 31
-14 17 -23 20 -33 9z"></path>
<path d="M2695 7410 c4 -6 11 -8 16 -5 14 9 11 15 -7 15 -8 0 -12 -5 -9 -10z"></path>
<path d="M6336 7410 c-18 -52 -37 -138 -50 -220 -24 -162 -27 -200 -16 -200 5
0 10 11 10 23 0 31 4 34 40 29 l30 -4 1 -97 c2 -136 16 -56 19 104 4 248 1
340 -14 361 -12 16 -15 16 -20 4z"></path>
<path d="M2700 7355 c0 -8 4 -15 10 -15 5 0 7 7 4 15 -4 8 -8 15 -10 15 -2 0
-4 -7 -4 -15z"></path>
<path d="M3534 7346 c-9 -24 12 -44 28 -28 10 10 8 16 -5 29 -15 15 -17 15
-23 -1z"></path>
<path d="M1130 7335 c0 -8 5 -15 10 -15 6 0 10 7 10 15 0 8 -4 15 -10 15 -5 0
-10 -7 -10 -15z"></path>
<path d="M1215 7331 c-3 -5 -1 -12 4 -15 5 -3 11 1 15 9 6 16 -9 21 -19 6z"></path>
<path d="M2385 7331 c-6 -11 9 -23 19 -14 9 9 7 23 -3 23 -6 0 -12 -4 -16 -9z"></path>
<path d="M2426 7332 c-3 -5 2 -19 11 -31 20 -29 40 -13 24 18 -12 22 -26 27
-35 13z"></path>
<path d="M492 7307 c-16 -16 -23 -40 -26 -84 -3 -34 -12 -73 -21 -87 -17 -26
-13 -46 9 -46 8 0 16 14 20 30 9 49 23 34 28 -29 4 -58 24 -100 39 -84 4 4 10
23 14 41 6 29 4 34 -14 39 -24 6 -29 33 -7 33 8 0 22 -7 31 -16 9 -9 17 -15
18 -13 1 2 8 14 15 26 16 31 16 73 -2 73 -8 0 -16 -7 -20 -15 -8 -23 -40 -18
-67 11 -22 24 -23 26 -6 38 9 7 17 23 17 35 0 13 5 21 13 19 15 -3 19 10 11
35 -7 23 -26 21 -52 -6z"></path>
<path d="M1183 7297 c-29 -13 -29 -25 1 -62 l24 -30 11 28 c21 54 4 83 -36 64z"></path>
<path d="M3615 7300 c-4 -6 -16 -9 -28 -8 -12 2 -24 -1 -27 -7 -3 -5 9 -11 27
-13 34 -3 73 12 73 28 0 13 -37 13 -45 0z"></path>
<path d="M317 7294 c-8 -8 1 -24 14 -24 5 0 9 7 9 15 0 15 -12 20 -23 9z"></path>
<path d="M2730 7293 c0 -5 4 -15 10 -23 11 -18 25 -7 17 15 -6 15 -27 21 -27
8z"></path>
<path d="M5868 7260 c-4 -40 5 -53 16 -24 9 24 7 64 -3 64 -5 0 -11 -18 -13
-40z"></path>
<path d="M6205 7278 c-8 -24 -34 -163 -40 -220 -5 -40 -4 -58 4 -58 6 0 11 6
11 14 0 7 9 16 20 19 16 4 20 0 20 -19 0 -13 5 -24 10 -24 11 0 14 164 4 248
-6 49 -19 67 -29 40z"></path>
<path d="M555 7250 c-3 -6 1 -13 10 -16 19 -8 30 0 20 15 -8 14 -22 14 -30 1z"></path>
<path d="M2452 7249 c2 -7 10 -15 17 -17 8 -3 12 1 9 9 -2 7 -10 15 -17 17 -8
3 -12 -1 -9 -9z"></path>
<path d="M2390 7239 c0 -5 5 -7 10 -4 6 3 10 8 10 11 0 2 -4 4 -10 4 -5 0 -10
-5 -10 -11z"></path>
<path d="M2620 7223 c1 -10 10 -29 21 -43 19 -23 22 -23 47 -9 15 8 27 24 27
34 0 17 -6 19 -37 17 -23 -2 -38 1 -38 7 0 6 -4 11 -10 11 -5 0 -10 -8 -10
-17z"></path>
<path d="M1127 7198 c-6 -40 -2 -45 18 -28 18 15 17 51 -1 57 -7 2 -14 -11
-17 -29z"></path>
<path d="M3443 7199 c14 -8 22 -8 30 0 8 8 3 11 -18 11 -26 -1 -28 -2 -12 -11z"></path>
<path d="M2860 7190 c-8 -5 -24 -10 -36 -10 -18 0 -84 -49 -84 -62 0 -15 51 7
65 28 12 19 21 22 44 18 17 -4 32 -1 36 6 10 17 -7 31 -25 20z"></path>
<path d="M6106 7183 c-19 -63 -38 -253 -26 -253 6 0 10 9 10 20 0 11 5 20 10
20 6 0 10 -9 10 -20 0 -11 5 -20 10 -20 6 0 10 52 10 135 0 77 -4 135 -9 135
-5 0 -12 -8 -15 -17z"></path>
<path d="M3540 7185 c0 -5 5 -26 10 -47 9 -30 14 -35 33 -31 49 11 49 12 21
42 -15 17 -32 27 -37 24 -5 -3 -13 1 -18 8 -5 8 -9 10 -9 4z"></path>
<path d="M2905 7155 c3 -8 7 -23 10 -32 4 -11 9 -13 16 -6 7 7 7 17 -3 32 -15
24 -30 28 -23 6z"></path>
<path d="M5842 7145 c2 -14 8 -26 13 -26 6 0 11 12 13 26 2 18 -1 25 -13 25
-12 0 -15 -7 -13 -25z"></path>
<path d="M906 7144 c-4 -9 -4 -19 -2 -21 8 -8 26 8 26 23 0 19 -16 18 -24 -2z"></path>
<path d="M170 7140 c0 -5 5 -10 11 -10 5 0 7 5 4 10 -3 6 -8 10 -11 10 -2 0
-4 -4 -4 -10z"></path>
<path d="M636 7134 c-8 -20 3 -64 15 -64 5 0 12 14 16 31 l6 32 17 -23 c17
-23 18 -23 28 -3 8 14 8 23 0 31 -18 18 -75 15 -82 -4z"></path>
<path d="M1162 7126 c2 -15 8 -26 13 -26 15 0 12 43 -3 48 -10 3 -13 -4 -10
-22z"></path>
<path d="M2625 7130 c-10 -16 38 -52 73 -56 28 -3 32 -1 32 20 0 13 -7 27 -16
30 -24 9 -27 8 -21 -14 7 -28 -9 -25 -29 5 -17 27 -29 31 -39 15z"></path>
<path d="M6026 7108 c-11 -44 -19 -208 -9 -208 26 0 33 28 33 127 0 97 -10
131 -24 81z"></path>
<path d="M2166 7112 c-3 -6 -1 -14 5 -17 15 -10 25 3 12 16 -7 7 -13 7 -17 1z"></path>
<path d="M185 7091 c-3 -6 3 -15 14 -20 24 -14 31 -14 31 -1 0 14 -38 32 -45
21z"></path>
<path d="M2926 7085 c-3 -8 -1 -15 4 -15 6 0 10 7 10 15 0 8 -2 15 -4 15 -2 0
-6 -7 -10 -15z"></path>
<path d="M1050 7079 c0 -5 -5 -7 -11 -3 -19 11 -29 -19 -23 -66 9 -71 13 -78
29 -56 10 13 12 33 8 62 -4 29 -1 49 7 59 9 10 9 15 1 15 -6 0 -11 -5 -11 -11z"></path>
<path d="M1199 7052 c-5 -12 -20 -33 -33 -45 -22 -21 -23 -26 -12 -48 7 -14
20 -23 31 -22 11 1 23 -4 27 -10 4 -6 11 -8 15 -3 4 4 -2 16 -14 26 -29 23
-29 32 3 69 30 37 73 42 81 11 6 -22 43 -28 43 -7 0 28 -41 52 -87 52 -38 0
-47 -4 -54 -23z"></path>
<path d="M2992 7059 c2 -7 10 -15 17 -17 8 -3 12 1 9 9 -2 7 -10 15 -17 17 -8
3 -12 -1 -9 -9z"></path>
<path d="M2692 7029 c-7 -11 -11 -23 -9 -25 7 -7 29 24 25 36 -2 6 -9 1 -16
-11z"></path>
<path d="M5955 6978 c-8 -84 -4 -133 10 -133 6 0 11 43 13 103 3 118 -13 139
-23 30z"></path>
<path d="M1385 7031 c-3 -5 -1 -12 5 -16 31 -19 -7 -53 -40 -35 -13 7 -21 6
-30 -5 -13 -16 -11 -18 43 -29 16 -4 27 -2 27 5 0 6 6 17 14 24 7 8 11 25 9
39 -5 26 -17 34 -28 17z"></path>
<path d="M2947 7033 c-12 -11 -8 -23 8 -23 8 0 15 7 15 15 0 16 -12 20 -23 8z"></path>
<path d="M6580 7030 c0 -5 5 -10 10 -10 6 0 10 5 10 10 0 6 -4 10 -10 10 -5 0
-10 -4 -10 -10z"></path>
<path d="M180 7011 c6 -12 17 -21 25 -21 21 0 19 5 -11 25 -25 16 -25 16 -14
-4z"></path>
<path d="M2298 7025 c-6 -7 13 -80 25 -91 4 -4 7 0 7 9 0 8 2 21 5 29 5 15
-27 62 -37 53z"></path>
<path d="M570 6996 c0 -33 25 -53 45 -36 13 11 12 16 -10 36 -32 30 -35 30
-35 0z"></path>
<path d="M3008 7006 c-30 -11 -35 -21 -17 -32 10 -6 58 32 48 39 -2 2 -16 -1
-31 -7z"></path>
<path d="M2904 6995 c-4 -9 1 -24 10 -34 9 -10 16 -32 16 -49 0 -35 17 -52 26
-25 3 10 10 26 15 35 14 27 12 31 -26 61 -30 24 -36 26 -41 12z"></path>
<path d="M5905 6925 c-4 -47 -5 -89 -1 -92 14 -14 21 13 25 93 4 112 -15 111
-24 -1z"></path>
<path d="M647 6964 c-15 -15 -7 -44 13 -44 11 0 20 4 20 8 0 15 -26 43 -33 36z"></path>
<path d="M2254 6959 c-8 -14 11 -33 25 -25 6 4 11 11 11 16 0 13 -29 20 -36 9z"></path>
<path d="M2675 6950 c-3 -5 -1 -10 4 -10 6 0 11 5 11 10 0 6 -2 10 -4 10 -3 0
-8 -4 -11 -10z"></path>
<path d="M5860 6895 c0 -30 5 -55 10 -55 6 0 10 25 10 55 0 30 -4 55 -10 55
-5 0 -10 -25 -10 -55z"></path>
<path d="M223 6903 c6 -35 22 -62 31 -52 3 2 2 23 -1 47 -4 28 -11 42 -21 42
-11 0 -13 -8 -9 -37z"></path>
<path d="M2865 6930 c-3 -5 1 -10 9 -10 9 0 16 5 16 10 0 6 -4 10 -9 10 -6 0
-13 -4 -16 -10z"></path>
<path d="M1171 6904 c0 -11 3 -14 6 -6 3 7 2 16 -1 19 -3 4 -6 -2 -5 -13z"></path>
<path d="M616 6903 c-9 -9 -7 -33 3 -33 12 0 22 28 12 34 -5 3 -11 3 -15 -1z"></path>
<path d="M659 6875 c-21 -45 -13 -51 79 -57 75 -6 86 -1 76 26 -7 18 -31 21
-36 5 -5 -15 -78 -1 -78 15 0 7 -6 20 -12 28 -12 15 -15 13 -29 -17z"></path>
<path d="M5820 6880 c0 -16 5 -30 10 -30 6 0 10 14 10 30 0 17 -4 30 -10 30
-5 0 -10 -13 -10 -30z"></path>
<path d="M2 6888 c5 -15 28 -23 28 -10 0 5 -7 13 -16 16 -10 4 -14 1 -12 -6z"></path>
<path d="M870 6885 c-19 -23 -7 -39 13 -17 10 11 14 23 9 26 -5 3 -15 -1 -22
-9z"></path>
<path d="M1223 6883 c-7 -2 -13 -13 -13 -24 0 -12 5 -16 15 -13 8 4 27 -1 41
-11 23 -15 28 -15 42 -2 10 8 28 17 42 19 40 5 29 22 -17 24 -32 2 -43 -2 -45
-14 -3 -15 -6 -14 -23 6 -20 23 -22 24 -42 15z"></path>
<path d="M5556 6848 c8 -27 12 -33 19 -27 7 8 -7 49 -17 49 -5 0 -6 -10 -2
-22z"></path>
<path d="M380 6832 c0 -5 7 -13 16 -16 25 -10 74 -7 74 4 0 6 -13 10 -29 10
-16 0 -36 3 -45 6 -9 3 -16 2 -16 -4z"></path>
<path d="M340 6820 c0 -5 5 -10 10 -10 6 0 10 5 10 10 0 6 -4 10 -10 10 -5 0
-10 -4 -10 -10z"></path>
<path d="M1367 6823 c-10 -9 -9 -61 1 -67 5 -3 18 -2 30 1 25 6 31 43 7 43 -8
0 -15 7 -15 15 0 16 -12 20 -23 8z"></path>
<path d="M490 6810 c0 -5 25 -10 55 -10 30 0 55 5 55 10 0 6 -25 10 -55 10
-30 0 -55 -4 -55 -10z"></path>
<path d="M2400 6785 c0 -25 4 -35 13 -32 6 2 12 16 12 32 0 16 -6 30 -12 33
-9 2 -13 -8 -13 -33z"></path>
<path d="M850 6803 c0 -19 46 -32 123 -35 42 -2 77 0 77 4 0 13 -45 21 -108
19 -38 -2 -69 2 -78 10 -8 6 -14 7 -14 2z"></path>
<path d="M1066 6802 c-13 -12 -5 -22 19 -22 14 0 25 4 25 9 0 10 -36 21 -44
13z"></path>
<path d="M1987 6786 c-4 -10 -5 -21 -2 -24 9 -9 17 6 13 25 -3 17 -4 17 -11
-1z"></path>
<path d="M1180 6760 c0 -5 5 -10 10 -10 6 0 10 5 10 10 0 6 -4 10 -10 10 -5 0
-10 -4 -10 -10z"></path>
<path d="M1270 6752 c0 -5 7 -13 16 -16 24 -9 54 -7 54 4 0 6 -9 10 -19 10
-11 0 -26 3 -35 6 -9 3 -16 2 -16 -4z"></path>
<path d="M1613 6753 c-7 -2 -13 -9 -13 -15 0 -12 41 -6 41 7 1 12 -11 15 -28
8z"></path>
<path d="M2110 6750 c0 -5 11 -10 25 -10 14 0 25 5 25 10 0 6 -11 10 -25 10
-14 0 -25 -4 -25 -10z"></path>
<path d="M1 6373 c-1 -193 2 -354 7 -357 4 -2 85 -7 180 -11 130 -5 172 -4
172 5 0 8 -15 11 -42 9 -35 -2 -238 10 -238 15 0 0 11 23 25 50 14 27 25 62
25 77 0 15 4 30 8 33 4 2 7 53 6 113 -1 103 -2 108 -25 118 -56 24 -69 41 -84
111 -8 38 -15 85 -16 104 0 19 -5 46 -9 60 -4 14 -8 -133 -9 -327z"></path>
<path d="M2390 6693 c0 -16 -3 -39 -7 -53 -6 -22 -5 -24 10 -11 19 15 24 91 7
91 -5 0 -10 -12 -10 -27z"></path>
<path d="M2242 6698 c5 -15 37 -18 41 -3 1 6 -9 12 -22 13 -16 3 -22 -1 -19
-10z"></path>
<path d="M3230 6690 c0 -19 3 -21 12 -12 9 9 9 15 0 24 -9 9 -12 7 -12 -12z"></path>
<path d="M1790 6690 c0 -5 5 -10 11 -10 5 0 7 5 4 10 -3 6 -8 10 -11 10 -2 0
-4 -4 -4 -10z"></path>
<path d="M3166 6675 c-4 -10 1 -15 14 -15 11 0 20 7 20 15 0 8 -6 15 -14 15
-8 0 -16 -7 -20 -15z"></path>
<path d="M3556 6658 c-3 -7 -9 -28 -15 -45 -13 -44 -2 -41 29 5 34 51 34 52
11 52 -12 0 -23 -6 -25 -12z"></path>
<path d="M1055 6650 c3 -5 8 -10 11 -10 2 0 4 5 4 10 0 6 -5 10 -11 10 -5 0
-7 -4 -4 -10z"></path>
<path d="M2310 6644 c0 -9 33 -33 44 -34 6 0 0 9 -12 20 -22 21 -32 25 -32 14z"></path>
<path d="M3341 6637 c-9 -11 -8 -17 4 -27 12 -10 16 -9 21 5 9 23 -10 40 -25
22z"></path>
<path d="M3257 6626 c-3 -8 -2 -18 4 -22 16 -9 22 2 11 21 -8 15 -10 16 -15 1z"></path>
<path d="M80 6562 c0 -5 19 -13 43 -19 55 -14 146 -40 226 -64 36 -10 67 -16
70 -13 9 9 -18 21 -88 39 -36 9 -102 28 -145 41 -85 26 -106 29 -106 16z"></path>
<path d="M3235 6555 c-40 -18 -69 -52 -82 -98 -11 -35 -10 -37 8 -32 23 8 148
80 163 95 7 7 6 10 -2 10 -7 0 -12 9 -12 20 0 24 -29 26 -75 5z"></path>
<path d="M3530 6530 c0 -22 5 -40 10 -40 6 0 10 18 10 40 0 22 -4 40 -10 40
-5 0 -10 -18 -10 -40z"></path>
<path d="M80 6511 c0 -6 27 -18 61 -28 36 -10 64 -24 70 -35 7 -14 14 -16 23
-9 8 7 25 7 51 0 79 -20 85 -21 85 -11 0 11 -85 37 -115 34 -10 0 -26 5 -35
11 -8 7 -35 18 -60 24 -25 7 -53 15 -62 18 -11 4 -18 3 -18 -4z"></path>
<path d="M1400 6500 c0 -5 5 -10 10 -10 6 0 10 5 10 10 0 6 -4 10 -10 10 -5 0
-10 -4 -10 -10z"></path>
<path d="M460 6461 c0 -10 42 -23 49 -15 7 6 -20 24 -36 24 -7 0 -13 -4 -13
-9z"></path>
<path d="M3540 6450 c0 -5 5 -10 10 -10 6 0 10 5 10 10 0 6 -4 10 -10 10 -5 0
-10 -4 -10 -10z"></path>
<path d="M390 6421 c0 -9 122 -43 129 -35 8 8 -6 14 -63 29 -67 18 -66 18 -66
6z"></path>
<path d="M620 6410 c0 -5 5 -10 10 -10 6 0 10 5 10 10 0 6 -4 10 -10 10 -5 0
-10 -4 -10 -10z"></path>
<path d="M540 6382 c0 -6 14 -15 31 -21 40 -14 39 -14 39 4 0 8 -9 15 -19 15
-11 0 -26 3 -35 6 -9 3 -16 2 -16 -4z"></path>
<path d="M720 6381 c0 -10 50 -25 58 -16 8 7 1 11 -30 19 -16 3 -28 2 -28 -3z"></path>
<path d="M800 6360 c0 -5 9 -10 21 -10 11 0 17 5 14 10 -3 6 -13 10 -21 10 -8
0 -14 -4 -14 -10z"></path>
<path d="M636 6351 c-3 -5 11 -11 32 -13 42 -6 53 -1 32 12 -19 12 -57 13 -64
1z"></path>
<path d="M860 6340 c0 -5 5 -10 10 -10 6 0 10 5 10 10 0 6 -4 10 -10 10 -5 0
-10 -4 -10 -10z"></path>
<path d="M730 6331 c0 -12 66 -34 83 -28 7 3 4 7 -8 12 -11 3 -28 11 -37 16
-23 12 -38 12 -38 0z"></path>
<path d="M900 6330 c0 -5 9 -10 21 -10 11 0 17 5 14 10 -3 6 -13 10 -21 10 -8
0 -14 -4 -14 -10z"></path>
<path d="M970 6311 c0 -6 2 -11 5 -11 5 0 36 -8 220 -59 60 -17 89 -20 74 -8
-9 8 -197 65 -232 71 -21 4 -45 10 -53 13 -8 3 -14 0 -14 -6z"></path>
<path d="M985 6250 c3 -5 15 -10 26 -10 10 0 19 5 19 10 0 6 -12 10 -26 10
-14 0 -23 -4 -19 -10z"></path>
<path d="M1070 6240 c0 -9 55 -30 78 -30 24 0 4 14 -39 26 -21 7 -39 8 -39 4z"></path>
<path d="M1290 6221 c0 -10 50 -25 58 -16 8 7 1 11 -30 19 -16 3 -28 2 -28 -3z"></path>
<path d="M1383 6197 c3 -10 35 -21 182 -62 55 -15 127 -35 160 -45 142 -43
180 -53 208 -56 16 -2 33 -7 39 -10 7 -4 8 -2 4 4 -5 8 2 12 19 12 22 0 24 2
15 20 -16 30 -80 46 -114 28 -24 -12 -37 -12 -94 -1 -37 8 -77 21 -89 29 -12
7 -34 14 -49 14 -31 0 -136 31 -144 42 -9 11 -141 36 -137 25z"></path>
<path d="M1436 6095 c19 -29 27 -31 44 -10 10 13 9 15 -8 15 -12 0 -24 5 -27
10 -3 6 -11 10 -16 10 -5 0 -2 -11 7 -25z"></path>
<path d="M2252 6078 c7 -19 38 -22 38 -4 0 10 -9 16 -21 16 -12 0 -19 -5 -17
-12z"></path>
<path d="M2477 6062 c-23 -24 -36 -29 -78 -30 -31 0 -58 -7 -68 -16 -22 -20
-32 -20 -25 -1 7 18 0 19 -27 4 -15 -7 -24 -7 -34 1 -8 7 -19 9 -24 6 -5 -4
-12 -2 -15 2 -3 5 -16 7 -30 5 -13 -3 -26 0 -30 5 -4 7 -18 7 -42 0 -28 -7
-39 -7 -45 4 -8 12 -13 4 -10 -14 0 -5 -3 -8 -9 -8 -22 0 -8 -19 22 -29 21 -8
35 -8 42 -1 13 13 27 13 23 -1 -1 -6 42 -23 97 -39 157 -46 153 -46 169 -13 8
15 43 56 77 91 34 34 56 62 48 62 -8 0 -26 -13 -41 -28z"></path>
<path d="M1990 6020 c0 -5 5 -10 10 -10 6 0 10 5 10 10 0 6 -4 10 -10 10 -5 0
-10 -4 -10 -10z"></path>
<path d="M3100 6000 c0 -5 7 -10 15 -10 8 0 15 5 15 10 0 6 -7 10 -15 10 -8 0
-15 -4 -15 -10z"></path>
<path d="M3041 5938 c-22 -24 -41 -51 -41 -61 0 -10 -5 -28 -11 -40 -9 -16 -9
-22 0 -25 6 -2 11 -10 11 -18 0 -8 3 -14 6 -14 11 0 52 49 59 70 3 11 10 20
15 20 13 0 40 59 40 87 0 37 -33 29 -79 -19z"></path>
<path d="M935 5930 c3 -5 8 -10 11 -10 2 0 4 5 4 10 0 6 -5 10 -11 10 -5 0 -7
-4 -4 -10z"></path>
<path d="M3010 5744 c0 -9 5 -14 12 -12 18 6 21 28 4 28 -9 0 -16 -7 -16 -16z"></path>
<path d="M2986 5702 c-3 -3 -6 -9 -6 -14 0 -11 37 -10 44 1 6 10 -30 22 -38
13z"></path>
<path d="M2940 5646 c0 -25 12 -46 26 -46 9 0 14 11 14 30 0 23 -4 30 -20 30
-11 0 -20 -6 -20 -14z"></path>
<path d="M1823 5473 c9 -2 23 -2 30 0 6 3 -1 5 -18 5 -16 0 -22 -2 -12 -5z"></path>
<path d="M1488 5413 c7 -3 16 -2 19 1 4 3 -2 6 -13 5 -11 0 -14 -3 -6 -6z"></path>
<path d="M2200 5061 c0 -24 10 -51 19 -51 4 0 5 16 3 35 -4 37 -22 49 -22 16z"></path>
</g>
</svg>