 <svg version="1.0" xmlns="http://www.w3.org/2000/svg" width="700.000000pt" height="530.000000pt" viewBox="0 0 700.000000 530.000000" preserveAspectRatio="xMidYMid meet">
<metadata>
Created by potrace 1.12, written by Peter Selinger 2001-2015
</metadata>
<g transform="translate(0.000000,530.000000) scale(0.100000,-0.100000)" fill="#000000" stroke="none">
<path d="M1718 5192 c32 -59 98 -185 147 -280 80 -153 92 -172 111 -167 16 4
23 -1 28 -18 10 -37 7 -57 -9 -57 -8 0 -15 -4 -15 -10 0 -5 7 -10 15 -10 9 0
20 -11 25 -25 10 -26 24 -32 35 -15 9 15 45 12 51 -5 4 -8 3 -31 0 -51 -7 -33
-9 -35 -39 -29 l-32 6 31 -28 c17 -15 55 -75 86 -133 31 -58 165 -312 298
-565 223 -423 300 -560 255 -450 -9 22 -27 59 -40 82 -26 47 -13 59 22 21 30
-34 111 -191 106 -205 -6 -18 12 -16 27 2 15 19 39 19 64 0 19 -14 14 -35 -8
-35 -8 0 -24 -9 -37 -19 l-24 -20 49 -50 c48 -49 69 -57 64 -23 -5 26 70 37
100 15 27 -20 29 -39 4 -36 -27 3 -81 -36 -88 -63 -3 -13 -21 -33 -40 -45 -37
-23 -40 -29 -22 -47 17 -17 25 -15 33 11 6 19 8 16 14 -18 6 -37 92 -205 322
-636 80 -148 92 -166 111 -161 18 4 11 -10 -35 -76 l-56 -82 15 -38 c51 -125
206 -407 269 -490 10 -14 26 -46 35 -71 21 -62 108 -209 130 -221 39 -21 50
-41 50 -93 0 -90 97 -463 116 -445 1 2 -8 37 -22 78 -34 105 -76 297 -72 334
3 30 4 30 29 -24 15 -30 39 -93 54 -140 15 -47 35 -107 45 -135 16 -44 38
-201 24 -167 -3 6 -10 10 -14 7 -5 -3 -12 0 -16 6 -4 8 -3 9 4 5 16 -10 15 0
-9 64 -18 50 -20 32 -3 -29 5 -17 4 -22 -4 -17 -23 14 -10 -20 33 -89 33 -54
49 -70 67 -71 28 0 50 -12 44 -23 -7 -11 38 -49 61 -52 10 -2 28 3 41 10 33
18 160 -3 170 -28 4 -9 20 -35 35 -56 87 -125 147 -222 147 -240 0 -41 12 -46
101 -43 l84 3 -51 52 c-41 42 -56 67 -79 136 -27 79 -28 87 -15 126 14 42 26
58 37 47 4 -3 -1 -14 -10 -24 -10 -10 -14 -22 -11 -25 9 -9 83 74 84 93 0 8
29 45 64 82 l63 67 62 -63 c35 -37 61 -73 61 -85 0 -22 44 -71 123 -135 l48
-39 36 36 37 36 -96 93 c-88 86 -138 156 -138 192 0 9 19 28 42 43 33 22 52
28 90 26 53 -2 64 13 28 38 -20 14 -20 14 5 63 14 27 23 51 21 53 -10 10 -47
-25 -60 -57 -8 -19 -25 -45 -38 -57 -12 -12 -40 -38 -60 -57 -20 -20 -39 -36
-42 -36 -3 0 -10 9 -16 20 -9 16 -4 29 24 70 30 44 51 98 84 219 4 13 16 29
27 35 11 6 25 18 32 26 8 10 15 12 21 5 16 -16 74 -214 76 -257 1 -21 11 -50
22 -66 11 -15 35 -61 53 -102 39 -85 57 -110 81 -110 26 0 90 29 90 40 0 13
-7 13 -33 -2 -29 -15 -77 -20 -77 -7 0 6 3 8 8 5 12 -7 72 22 72 35 0 8 3 9
14 0 7 -6 -11 38 -40 98 -30 61 -54 115 -54 122 0 7 -6 20 -14 28 -8 9 -18 52
-23 95 l-10 79 34 50 c38 57 43 80 10 49 -24 -23 -47 -29 -47 -13 0 6 5 13 11
17 8 4 9 25 5 59 -5 47 -4 53 14 58 26 7 26 27 0 27 -16 0 -20 7 -21 38 -2
155 -9 233 -21 267 -13 33 -13 46 -2 75 7 19 13 51 13 71 1 19 19 87 41 149
22 62 40 115 40 117 0 2 4 3 8 3 5 0 31 -48 58 -107 26 -60 63 -133 80 -163
45 -77 51 -100 25 -100 -13 0 -18 -5 -15 -13 3 -8 -2 -20 -11 -27 -17 -14 -21
-50 -5 -50 6 0 10 4 10 9 0 5 10 11 23 13 17 2 21 9 20 28 l-2 25 12 -26 c6
-14 27 -45 46 -69 l35 -43 -28 -22 c-16 -13 -24 -25 -18 -29 6 -3 22 7 35 24
14 16 28 30 30 30 10 0 87 -150 87 -169 0 -47 32 -86 108 -132 103 -62 113
-65 142 -34 l23 25 -66 69 c-37 38 -67 74 -67 81 0 6 -11 21 -24 33 -32 28
-80 185 -73 233 4 22 -1 47 -14 73 -10 22 -19 44 -19 49 0 12 29 24 41 16 5
-3 9 2 9 10 0 16 -22 42 -41 48 -14 5 -16 109 -4 172 4 21 4 41 -1 45 -5 3
-15 14 -23 24 -12 15 -11 20 4 37 13 14 14 20 5 20 -10 0 -10 4 2 18 24 27 72
121 103 197 16 39 41 83 57 100 l28 30 0 -95 c0 -52 7 -124 16 -160 8 -36 17
-90 21 -120 5 -52 3 -57 -20 -67 -17 -8 -26 -22 -30 -45 -6 -40 -4 -43 22 -28
12 6 26 8 31 5 15 -9 12 -41 -5 -55 -8 -7 -15 -20 -15 -30 0 -10 -30 -50 -66
-89 -67 -73 -81 -105 -24 -57 50 41 63 31 22 -16 -14 -16 -13 -18 1 -18 10 0
17 -4 17 -10 0 -5 -7 -7 -15 -4 -23 9 -18 -13 7 -30 12 -9 26 -16 30 -16 4 0
42 32 84 70 43 39 83 70 89 70 7 0 20 -9 30 -20 14 -15 21 -17 32 -9 11 10 8
14 -14 26 -16 8 -34 16 -41 17 -22 4 -30 26 -22 61 4 18 5 45 3 59 -4 18 6 42
36 87 23 34 41 64 41 66 0 3 25 32 55 65 52 55 65 78 48 78 -9 0 -35 -32 -114
-137 -62 -82 -58 -77 -64 -72 -5 6 20 186 35 244 5 22 10 65 10 95 0 54 27
187 59 290 14 42 23 56 39 58 19 3 22 -1 22 -28 0 -17 9 -76 21 -132 18 -87
20 -124 16 -284 -5 -162 -3 -192 14 -251 10 -38 19 -88 19 -113 1 -36 3 -41
11 -27 6 9 16 14 22 11 8 -5 8 -3 0 7 -24 25 -15 39 26 39 22 0 43 5 46 10 3
6 12 10 20 10 19 0 7 -38 -18 -55 -18 -12 -18 -15 -5 -15 14 0 16 -7 11 -35
-3 -21 -1 -35 5 -35 5 0 10 10 10 23 0 26 29 154 38 169 16 26 46 218 54 353
10 153 39 328 54 323 5 -2 13 7 17 20 5 13 13 21 18 18 12 -8 0 -58 -13 -53
-8 3 -10 -6 -8 -27 3 -26 8 -31 32 -33 16 -1 32 2 35 7 4 6 -3 10 -15 10 -15
0 -19 4 -13 13 4 6 8 29 8 51 1 34 5 40 35 55 35 16 35 17 51 121 8 58 18 112
22 120 7 19 24 206 33 363 6 104 4 120 -11 137 -17 19 -17 21 14 52 32 33 46
73 16 48 -8 -7 -15 -18 -15 -25 0 -8 -12 -23 -26 -34 -17 -14 -24 -26 -20 -37
4 -10 -1 -25 -10 -35 -22 -25 -99 -27 -108 -3 -11 28 -7 31 43 26 31 -3 51 0
56 7 5 9 -3 10 -29 6 -36 -7 -46 1 -25 22 8 8 8 22 0 49 -6 22 -11 59 -11 84
-1 91 -26 193 -64 258 -21 34 -41 60 -46 57 -5 -3 -11 -1 -15 5 -10 16 67 110
90 110 27 0 90 -79 109 -138 9 -26 22 -87 31 -137 17 -100 37 -180 48 -191 12
-13 8 22 -12 87 -11 35 -22 89 -26 121 -6 54 -31 131 -60 187 -7 14 -38 52
-68 85 l-55 58 -7 84 c-4 46 -11 87 -16 90 -4 2 -4 16 1 30 12 31 13 74 2 74
-4 0 -13 -5 -20 -12 -9 -9 -18 -9 -37 0 -21 10 -25 9 -25 -6 -1 -16 -1 -16
-14 1 -7 9 -16 17 -19 17 -3 0 -33 -16 -66 -35 -66 -39 -91 -44 -92 -17 0 13
-2 12 -9 -5 -10 -24 -27 -27 -92 -17 -22 4 -38 12 -38 20 0 17 23 31 28 16 6
-20 22 -3 22 24 0 30 -16 31 -41 2 l-18 -23 -1 33 c0 29 -2 33 -21 27 -19 -6
-21 -4 -16 14 3 11 1 24 -4 27 -5 3 -9 -4 -9 -15 0 -23 -16 -28 -23 -8 -2 6
-8 9 -12 5 -4 -4 -3 -14 3 -21 7 -8 10 -16 7 -19 -3 -3 2 -11 11 -18 13 -12
17 -11 24 0 5 8 12 11 17 7 4 -5 1 -12 -7 -17 -10 -6 -11 -12 -3 -22 5 -7 13
-22 15 -33 3 -11 9 -29 14 -39 6 -15 4 -17 -7 -11 -7 5 -4 -4 9 -19 12 -16 19
-32 16 -37 -2 -5 -25 -18 -51 -29 -54 -24 -122 -80 -97 -80 29 0 7 -69 -38
-118 -61 -67 -91 -141 -96 -241 -5 -81 -5 -84 -33 -95 -33 -12 -35 -18 -14
-36 24 -20 18 -26 -22 -22 -38 5 -38 4 -20 -16 22 -24 14 -45 -14 -37 -23 8
-25 -11 -4 -39 21 -27 19 -36 -7 -36 -17 0 -19 -3 -10 -12 19 -19 14 -28 -13
-28 -24 0 -24 -1 11 -33 28 -25 35 -38 30 -54 -6 -20 -7 -20 -45 -1 -21 10
-55 21 -75 25 -35 5 -36 5 -36 -26 0 -33 33 -93 69 -125 11 -11 21 -22 21 -26
0 -7 -73 -23 -235 -51 -93 -16 -123 -31 -235 -120 -52 -42 -109 -83 -125 -91
-17 -9 -39 -26 -49 -37 -11 -12 -34 -29 -51 -37 -17 -8 -44 -34 -59 -58 -25
-39 -32 -44 -75 -50 -30 -4 -64 -18 -88 -35 -69 -50 -142 -159 -148 -221 -16
-172 3 -258 68 -316 39 -35 45 -47 79 -168 l36 -129 -20 -17 -21 -17 31 -114
c26 -94 37 -119 62 -140 35 -30 38 -39 9 -39 -12 0 -71 45 -145 113 -101 90
-124 116 -119 132 26 87 8 165 -68 289 -24 39 -50 87 -57 106 -25 64 -68 146
-102 191 -31 41 -33 46 -21 79 l12 35 2 -30 c1 -16 1 -36 0 -44 -2 -7 2 -10 7
-7 20 12 32 98 31 224 -1 71 1 134 4 139 3 5 2 63 -3 128 -18 250 -120 428
-301 525 -50 26 -71 32 -137 33 -67 2 -85 -2 -137 -27 -73 -36 -164 -124 -197
-192 -63 -124 -73 -175 -73 -367 0 -103 -4 -177 -9 -177 -6 0 -20 10 -33 22
l-23 21 0 -21 c0 -25 -63 -77 -84 -69 -9 4 -17 -2 -21 -14 -8 -24 -20 -24 -46
2 -16 16 -18 23 -8 35 6 8 19 14 29 14 14 0 18 9 18 40 1 35 -2 40 -22 40 -13
0 -29 7 -36 15 -11 13 -9 20 10 40 13 14 29 25 36 25 6 0 19 12 29 26 14 22
15 31 5 55 -14 32 -25 37 -34 14 -11 -30 -50 -15 -84 31 -31 43 -36 78 -7 54
7 -6 20 -8 29 -4 9 3 23 1 31 -6 20 -17 20 2 -1 41 -14 28 -17 29 -28 13 -9
-12 -15 -14 -20 -5 -5 7 -20 9 -44 5 -42 -7 -59 -19 -43 -28 19 -12 12 -45
-14 -62 -14 -9 -25 -22 -25 -30 0 -24 -21 -26 -45 -2 -14 13 -25 33 -25 45 0
22 24 53 41 53 5 0 9 13 9 28 0 16 9 37 20 47 17 15 22 16 36 4 16 -13 116
-21 110 -9 -2 3 -13 27 -25 54 -21 47 -23 48 -41 31 -15 -13 -23 -15 -33 -7
-7 6 -22 9 -33 7 -10 -3 -30 4 -44 14 l-25 20 24 25 25 26 22 -21 c13 -12 30
-19 38 -16 19 7 20 21 5 48 -8 16 -13 18 -25 8 -8 -6 -27 -9 -44 -6 -16 4 -32
2 -35 -4 -4 -5 -15 -7 -26 -4 -15 5 -19 1 -19 -15 0 -12 -4 -18 -11 -15 -6 4
-8 14 -5 22 3 8 1 11 -4 8 -21 -13 -9 16 19 47 24 27 32 31 42 21 20 -19 47
-15 60 8 8 17 8 24 -3 35 -11 11 -18 11 -42 -1 -15 -8 -35 -15 -42 -15 -8 0
-19 -11 -24 -25 -5 -14 -14 -25 -19 -25 -6 0 -8 7 -5 15 4 8 1 15 -6 15 -8 0
-10 9 -6 26 4 14 2 32 -4 39 -8 9 -8 15 0 20 15 9 12 25 -4 25 -22 0 -26 26
-7 46 9 11 15 28 13 39 -2 14 -1 16 6 7 5 -7 15 -14 23 -15 34 -6 40 -18 17
-37 -19 -15 -21 -20 -9 -34 8 -9 20 -15 27 -12 18 7 25 -4 14 -24 -7 -13 -5
-21 5 -30 12 -10 15 -9 15 7 0 10 5 24 10 29 8 8 -10 54 -56 150 -36 76 -77
164 -91 194 -14 30 -67 142 -119 247 -52 106 -94 198 -94 205 0 34 -24 92 -49
121 -16 17 -41 57 -56 87 -34 68 -31 65 -50 50 -35 -29 -61 16 -28 52 19 21
35 -16 -227 528 l-167 345 -37 3 -37 3 69 -138 c38 -76 82 -169 97 -208 15
-38 50 -114 76 -167 27 -54 49 -102 49 -107 0 -5 27 -55 60 -110 56 -96 85
-165 75 -182 -3 -4 -19 -2 -37 4 -30 12 -88 78 -88 102 0 22 -108 230 -164
315 -33 50 -56 96 -56 111 0 18 -12 38 -35 60 -19 18 -37 46 -41 61 -3 16 -14
34 -25 41 -10 6 -19 19 -19 29 0 9 -4 20 -10 23 -6 4 -4 17 6 36 8 17 14 32
12 33 -2 1 -18 9 -36 16 -29 11 -35 11 -43 -1 -5 -8 -7 -23 -5 -34 4 -18 3
-18 -14 4 -11 12 -18 27 -15 31 3 5 2 10 -2 12 -5 1 -16 17 -25 33 -17 30 -17
30 -117 33 -67 2 -101 -1 -101 -8 0 -6 41 -94 91 -196 49 -102 89 -192 87
-200 -2 -7 -52 81 -112 196 -60 116 -115 210 -122 210 -7 0 12 -46 44 -108z
m462 -586 c0 -26 -24 -51 -40 -41 -11 7 -14 48 -3 58 3 4 15 7 25 7 12 0 18
-7 18 -24z m99 -91 c3 -17 -22 -45 -41 -45 -13 0 -9 45 4 58 16 16 32 10 37
-13z m269 -155 c35 -22 39 -32 18 -49 -11 -9 -17 -8 -28 4 -7 9 -21 24 -30 33
-38 35 -12 43 40 12z m92 -127 c16 -27 30 -58 30 -70 0 -12 5 -25 10 -28 22
-14 52 -88 46 -116 -5 -29 32 -131 53 -144 15 -9 14 -38 -1 -33 -7 3 -22 29
-33 59 -12 30 -40 81 -63 114 -23 33 -42 72 -42 86 0 14 -18 51 -40 82 -50 70
-52 97 -8 97 11 0 30 -19 48 -47z m202 -345 c-5 -5 -20 -8 -33 -6 l-24 5 25
10 c28 12 47 6 32 -9z m-29 -85 c8 -7 -21 -43 -35 -43 -13 0 -9 38 5 43 18 8
23 8 30 0z m30 -95 c-20 -20 -23 -20 -29 -4 -8 21 26 50 41 35 6 -6 1 -17 -12
-31z m-19 -99 c-9 -15 -44 -10 -51 7 -9 24 18 36 39 17 10 -9 15 -20 12 -24z
m66 22 c0 -19 -25 -29 -37 -16 -10 11 -10 15 0 18 20 9 37 8 37 -2z m24 -110
c3 -5 -1 -14 -8 -20 -16 -13 -32 2 -21 19 8 12 22 13 29 1z m3381 -417 c122
-17 131 -20 115 -39 -8 -9 -8 -15 0 -20 17 -10 11 -25 -10 -25 -21 0 -27 -15
-10 -25 21 -13 -19 -35 -63 -35 -46 0 -62 14 -51 44 7 19 -16 32 -27 15 -4 -8
-4 -16 2 -20 6 -3 -4 -9 -22 -13 -36 -7 -52 6 -45 37 4 15 1 15 -25 -4 -16
-11 -29 -25 -29 -30 0 -18 -42 -9 -47 11 -3 11 -12 20 -19 20 -8 0 -14 10 -14
24 0 32 21 85 27 69 7 -18 23 -16 23 3 0 17 -10 17 195 -12z m435 -23 c0 -54
-14 -101 -29 -101 -12 0 -9 120 3 138 15 25 26 10 26 -37z m-956 -48 l37 -41
-3 -89 c-2 -70 -6 -88 -18 -88 -9 0 -17 13 -21 35 -4 19 -7 27 -8 18 -2 -26
-16 -22 -36 9 -23 35 -33 166 -15 188 16 20 18 19 64 -32z m-2644 12 c22 -23
22 -25 4 -31 -50 -17 -72 -29 -67 -37 9 -14 -7 -57 -21 -57 -7 0 -19 -7 -26
-15 -19 -23 -28 -18 -45 21 -21 51 -6 77 41 68 35 -6 49 8 18 20 -25 10 -12
40 21 47 48 11 50 10 75 -16z m2821 -41 c119 -44 441 -81 472 -56 17 14 27 6
27 -21 0 -13 -5 -17 -15 -14 -8 4 -17 2 -20 -3 -4 -6 -49 -10 -101 -10 -56 0
-94 -4 -94 -10 0 -5 7 -10 16 -10 11 0 14 -6 9 -20 -8 -25 -1 -25 33 0 32 24
102 38 102 22 0 -6 -4 -23 -10 -39 -8 -24 -8 -25 3 -9 49 75 69 67 32 -13 -24
-51 -54 -67 -47 -25 4 21 3 20 -22 -20 l-18 -29 31 5 c44 6 48 -8 9 -28 -24
-12 -48 -15 -100 -12 -37 3 -68 1 -68 -3 0 -10 12 -12 52 -9 44 3 50 -7 29
-48 -24 -46 -42 -63 -108 -96 -95 -47 -146 -30 -238 82 -52 64 -76 78 -31 19
14 -19 26 -37 26 -42 0 -8 -75 -1 -101 9 -10 4 -18 2 -21 -6 -4 -9 7 -14 35
-15 22 -2 42 -4 44 -6 2 -2 -2 -22 -9 -43 -10 -29 -19 -40 -37 -42 -15 -2 -28
3 -33 12 -5 9 -15 16 -22 16 -17 0 -68 55 -105 114 -26 42 -31 60 -31 112 0
34 3 69 6 78 8 20 24 21 24 1 0 -17 21 -20 37 -4 7 7 21 1 48 -22 l37 -33 19
23 c25 30 34 21 31 -29 -2 -24 2 -40 8 -40 7 0 9 8 5 20 -11 35 5 41 39 15 18
-14 37 -25 41 -25 4 0 -11 14 -33 30 l-42 30 0 82 c0 70 3 85 22 105 12 13 22
23 23 23 2 0 22 -7 46 -16z m-301 -35 c-22 -18 -23 -21 -9 -31 15 -10 14 -15
-3 -60 -23 -61 -24 -180 -2 -223 15 -29 15 -31 -16 -58 -17 -15 -37 -26 -43
-24 -18 5 -46 99 -49 161 -2 46 4 67 40 140 29 57 52 91 70 101 37 20 41 18
12 -6z m1060 -73 c0 -50 -17 -86 -34 -69 -6 6 1 93 10 121 9 30 24 -3 24 -52z
m-2598 -70 c-2 -9 4 -16 12 -16 19 0 29 -50 17 -83 -6 -15 -13 -27 -16 -27 -4
0 -3 5 0 10 3 6 -1 10 -9 10 -9 0 -16 -6 -16 -14 0 -18 -22 -26 -74 -26 -52 0
-64 10 -34 27 22 12 22 12 -12 13 -20 0 -42 6 -49 13 -11 9 -12 9 -7 0 5 -9 2
-11 -8 -7 -12 5 -10 10 11 28 35 30 22 55 -14 26 -14 -11 -31 -20 -38 -20 -18
0 -48 -37 -36 -44 5 -4 14 2 20 11 6 10 11 13 11 6 0 -6 11 -13 25 -15 46 -6
26 -23 -30 -26 -49 -3 -56 -1 -53 15 2 10 -2 17 -9 16 -16 -4 -17 27 -1 64 6
15 12 33 12 38 1 6 52 10 133 10 72 0 135 3 139 8 12 12 29 1 26 -17z m-843
-17 c44 -15 57 -79 16 -79 -7 0 -15 -7 -19 -15 -7 -19 -36 -20 -36 -1 0 8 -7
16 -15 20 -18 7 -20 57 -3 74 15 15 17 15 57 1z m3414 -41 c-3 -24 -10 -50
-15 -58 -7 -11 -8 -8 -4 10 3 14 6 40 6 58 0 17 4 32 9 32 5 0 7 -19 4 -42z
m-1657 -99 c-20 -71 -36 -211 -36 -329 0 -65 -3 -90 -10 -80 -27 42 0 371 37
443 22 43 26 26 9 -34z m-36 21 c0 -6 -8 -25 -17 -43 l-18 -32 -3 28 c-3 28
12 57 29 57 5 0 9 -5 9 -10z m-1012 -20 c75 1 155 3 178 6 40 6 42 5 69 -41
28 -49 29 -65 9 -162 -9 -48 10 -41 32 10 11 27 19 36 21 25 2 -9 -3 -31 -12
-48 -16 -31 -24 -33 -66 -16 -11 5 -24 -5 -42 -31 -21 -31 -25 -46 -21 -74 5
-32 3 -39 -22 -56 -41 -28 -122 -63 -149 -63 -28 0 -91 26 -128 53 -23 16 -28
25 -23 47 3 19 -1 33 -14 45 -10 9 -24 30 -31 47 -12 30 -13 30 -21 9 -11 -31
-25 -18 -33 32 -3 23 -9 50 -11 59 -6 21 50 86 60 70 4 -7 2 -12 -3 -12 -21 0
-11 -30 13 -41 35 -16 70 5 62 37 -8 28 0 30 28 7 20 -18 20 -18 5 7 -13 20
-26 26 -63 28 -29 2 -54 -2 -63 -10 -14 -11 -15 -9 -8 22 11 51 23 63 62 55
18 -3 95 -6 171 -5z m2682 -45 c-17 -20 -44 -19 -36 1 3 9 6 19 6 24 0 5 8 10
18 12 21 4 28 -18 12 -37z m-1760 -33 c0 -5 -9 -17 -20 -27 -22 -20 -49 -74
-100 -200 -18 -44 -34 -81 -36 -83 -1 -2 -20 8 -43 22 l-40 26 -16 -22 c-14
-22 -15 -21 -15 22 0 90 102 228 188 254 55 17 82 19 82 8z m-1296 -64 c16
-56 8 -62 -18 -14 -12 23 -16 42 -10 57 4 13 9 20 10 14 2 -5 10 -31 18 -57z
m1285 -9 c-6 -24 -12 -82 -13 -129 -1 -74 2 -91 26 -135 26 -50 55 -83 93
-103 30 -17 -2 -14 -35 3 -37 19 -75 70 -95 126 -26 73 -18 207 17 272 16 31
20 12 7 -34z m-1309 -21 c16 -22 30 -46 30 -51 0 -6 11 -25 25 -43 14 -18 25
-35 25 -38 0 -3 -11 -6 -25 -6 -25 0 -29 8 -26 43 3 23 -10 22 -43 -4 -31 -25
-31 -25 -43 21 -7 24 -15 34 -26 32 -24 -4 -28 13 -12 52 22 51 55 49 95 -6z
m740 -148 c0 -43 -6 -47 -34 -27 -16 12 -16 14 4 40 12 15 23 27 26 27 2 0 4
-18 4 -40z m393 -82 c18 -13 18 -16 -3 -77 -12 -34 -20 -76 -18 -92 6 -39 -13
-37 -32 4 -14 30 -16 168 -3 190 4 7 25 -2 56 -25z m-796 -44 c48 -23 60 -25
91 -16 44 14 48 11 28 -20 -9 -14 -13 -27 -10 -31 10 -10 24 2 24 22 0 10 9
26 19 35 18 17 20 16 26 -4 4 -12 4 -24 1 -27 -3 -4 -2 -11 3 -17 13 -16 31
-121 31 -184 0 -54 0 -54 -27 -47 -34 8 -129 50 -161 71 l-24 16 23 24 c27 29
17 32 -13 4 -12 -11 -25 -20 -28 -20 -12 0 -110 122 -110 136 0 8 11 26 25 40
14 14 25 29 25 34 0 16 17 12 77 -16z m-425 -90 c4 -16 10 -46 13 -66 3 -21
18 -50 35 -68 17 -18 30 -35 30 -38 0 -3 -10 -19 -23 -36 -40 -53 -41 -63 -2
-18 20 23 40 40 44 38 4 -3 8 -69 8 -146 0 -79 -3 -138 -8 -133 -5 5 -24 44
-43 88 -22 49 -41 81 -52 84 -19 4 -157 92 -162 104 -2 4 -10 7 -18 7 -23 0
-16 38 16 84 35 52 129 138 144 133 6 -2 14 -17 18 -33z m868 23 c14 -7 26
-21 28 -32 2 -11 9 -25 16 -30 50 -39 156 -267 156 -333 0 -44 -23 -82 -50
-82 -37 0 -66 42 -85 120 -19 82 -17 117 6 112 8 -2 -5 12 -27 32 -23 20 -49
55 -59 78 -9 24 -23 50 -30 58 -8 9 -21 32 -30 53 l-15 37 32 0 c18 0 44 -6
58 -13z m1670 -190 c0 -17 -34 -59 -59 -72 -14 -8 -21 -14 -15 -15 5 0 19 7
30 15 32 24 37 18 32 -40 -3 -40 -11 -63 -29 -82 -13 -15 -16 -21 -6 -14 19
15 37 7 20 -10 -5 -5 -22 -7 -37 -3 -21 5 -26 12 -26 35 0 21 5 29 17 29 15 0
16 1 0 13 -10 8 -18 35 -23 83 l-6 71 51 -1 c28 -1 51 -5 51 -9z m-2245 -33
c9 -9 29 -45 45 -81 24 -51 27 -69 19 -90 -5 -14 -7 -33 -4 -43 3 -9 -1 -22
-8 -28 -10 -9 -17 -6 -28 10 -8 11 -23 33 -34 47 -61 78 -118 178 -110 191 10
17 102 12 120 -6z m1828 -1 c-7 -2 -19 -2 -25 0 -7 3 -2 5 12 5 14 0 19 -2 13
-5z m-2184 -74 c76 -51 79 -54 116 -138 21 -47 49 -105 62 -128 13 -23 26 -64
29 -90 l6 -48 -26 28 c-31 31 -48 35 -44 10 6 -36 -28 -16 -64 37 -52 77 -188
345 -188 371 0 27 10 23 109 -42z m2242 4 c0 -16 2 -38 5 -50 2 -13 -1 -23 -7
-23 -5 0 -15 -13 -20 -30 -16 -43 -27 -37 -24 13 1 23 0 29 -2 12 -7 -48 -23
-54 -23 -9 0 21 -3 48 -6 59 -4 16 2 25 28 37 45 23 48 22 49 -9z m-111 -38
c0 -5 -5 -3 -10 5 -5 8 -10 20 -10 25 0 6 5 3 10 -5 5 -8 10 -19 10 -25z
m-1614 -95 l57 -64 -7 -249 c-3 -137 -10 -256 -15 -264 -6 -11 -13 -7 -33 19
-55 72 -59 89 -48 190 17 165 17 165 -45 231 -57 59 -64 85 -20 65 14 -6 28
-8 33 -4 4 4 7 39 7 77 0 38 3 68 7 66 3 -1 32 -31 64 -67z m1034 -15 c9 6 25
-13 17 -21 -7 -7 -129 14 -139 24 -5 5 18 5 53 0 33 -4 65 -6 69 -3z m-516
-71 c27 -10 15 -104 -14 -104 -13 0 -22 53 -14 84 7 29 6 28 28 20z m81 -34
c4 -6 15 -8 25 -5 35 11 244 -176 311 -279 67 -102 81 -153 79 -296 -2 -215
-28 -279 -175 -432 -58 -59 -121 -130 -140 -157 -44 -60 -77 -71 -221 -71
-165 0 -314 44 -362 105 -49 62 -125 229 -172 376 l-17 56 46 0 c74 0 92 5
103 33 15 40 26 221 15 253 -5 15 -7 30 -4 33 3 3 37 10 76 14 38 5 87 16 107
25 20 8 40 15 45 15 9 0 29 -66 78 -251 35 -132 49 -174 57 -166 3 2 -4 36
-15 73 -43 149 -111 402 -111 413 0 9 6 8 21 -3 12 -8 43 -65 70 -128 63 -146
74 -169 137 -300 28 -60 52 -111 52 -114 0 -18 -103 9 -134 35 -16 13 -18 14
-14 1 6 -21 66 -49 121 -56 38 -5 47 -4 47 8 0 9 -27 70 -60 137 -33 68 -78
164 -99 214 -22 51 -47 106 -55 122 -23 43 -20 61 14 85 26 19 33 20 47 8 20
-16 172 -330 197 -406 10 -29 15 -60 12 -68 -4 -10 -1 -14 6 -12 11 4 48 94
62 151 12 49 -9 28 -24 -25 -8 -28 -20 -53 -26 -55 -6 -2 -16 14 -22 35 -14
47 -118 260 -172 351 -21 36 -41 82 -45 101 l-6 35 30 -35 c38 -44 162 -227
196 -288 8 -15 26 -40 41 -57 l26 -30 -27 45 c-15 25 -34 58 -43 73 -10 15
-52 78 -95 140 -42 61 -80 119 -83 129 -3 9 4 34 14 55 11 21 25 57 32 81 13
41 40 57 55 32z m-155 -90 c-6 -11 -16 -20 -22 -20 -6 0 -3 9 7 20 10 11 20
20 22 20 2 0 -1 -9 -7 -20z m31 -33 c-16 -16 -26 20 -10 40 13 15 14 14 17 -7
2 -12 -1 -27 -7 -33z m743 12 c-10 -11 -28 -25 -39 -31 -11 -5 -4 4 15 21 41
36 51 40 24 10z m-774 -75 c0 -24 -19 -47 -51 -65 -16 -8 -26 -5 -50 15 -17
14 -24 26 -17 26 8 0 32 18 53 40 36 37 41 39 52 23 7 -9 13 -27 13 -39z m820
-70 c0 -62 -14 -98 -36 -90 -7 3 -18 -2 -23 -12 -17 -29 -25 -4 -12 38 8 28 9
46 2 58 -9 14 -10 13 -11 -10 0 -36 -30 -109 -41 -102 -5 3 -5 13 1 24 13 24
13 110 0 110 -5 0 -12 -10 -14 -22 -3 -13 -7 -32 -9 -43 -3 -11 -5 1 -6 28
l-1 47 44 0 c28 0 52 7 67 19 13 11 27 17 31 14 5 -2 8 -29 8 -59z m495 -10
c-9 -14 -24 -24 -33 -22 -22 4 -29 38 -7 38 10 0 13 5 9 12 -5 8 -2 9 9 5 9
-3 20 -1 24 5 5 9 8 9 11 0 2 -7 -4 -24 -13 -38z m-1445 6 c0 -20 -63 -60 -94
-60 -34 0 -20 27 28 51 63 33 66 34 66 9z m1490 -2 c0 -7 3 -23 6 -35 6 -20 3
-23 -25 -23 -35 0 -38 10 -15 45 18 27 34 33 34 13z m-1620 -47 c16 -40 7 -51
-45 -51 -64 0 -75 7 -75 46 l0 34 54 0 c50 0 54 -2 66 -29z m130 5 c0 -3 -4
-8 -10 -11 -5 -3 -10 -1 -10 4 0 6 5 11 10 11 6 0 10 -2 10 -4z m1514 -47 c15
-13 -24 -23 -52 -13 -14 5 -27 15 -30 22 -3 10 5 12 34 6 22 -3 43 -10 48 -15z
m16 -33 c0 -7 -10 -16 -22 -19 -23 -6 -38 -1 -38 13 0 7 10 11 53 19 4 0 7 -5
7 -13z m135 -155 c-3 -6 -11 -11 -17 -11 -6 0 -6 6 2 15 14 17 26 13 15 -4z
m-885 -71 c0 -6 -13 -10 -30 -10 -29 0 -30 2 -30 43 l1 42 29 -33 c17 -18 30
-37 30 -42z m154 -91 c-24 -27 -59 -24 -83 7 -20 25 -28 54 -16 54 4 0 20 -7
38 -16 31 -17 32 -16 52 10 l20 28 3 -32 c2 -20 -3 -39 -14 -51z m23 -35 c3
-8 1 -26 -5 -40 -22 -46 -92 -25 -92 29 0 10 8 13 24 10 13 -3 27 0 30 6 10
16 36 13 43 -5z m9 -109 c14 -26 15 -38 7 -46 -18 -18 -35 0 -29 30 6 26 6 26
-10 -3 l-16 -29 -14 24 c-19 34 -17 47 9 52 12 2 25 5 28 6 3 0 14 -15 25 -34z
m-6 -79 c-6 -6 -15 -4 -24 4 -22 17 -9 32 14 18 12 -8 16 -16 10 -22z m-140
-406 c0 -5 -5 -10 -11 -10 -5 0 -7 5 -4 10 3 6 8 10 11 10 2 0 4 -4 4 -10z"></path>
<path d="M6325 3069 c-4 -6 -13 -8 -21 -5 -8 3 -14 1 -14 -4 0 -6 -5 -10 -11
-10 -5 0 -7 5 -4 10 4 6 -8 10 -29 10 -19 0 -37 -4 -40 -8 -3 -5 8 -9 25 -9
31 0 84 -43 61 -51 -7 -2 -12 -8 -12 -14 0 -6 6 -6 15 2 8 7 15 19 15 26 0 7
11 21 25 30 14 9 22 20 19 25 -7 12 -21 11 -29 -2z"></path>
<path d="M6090 3050 c0 -5 7 -10 15 -10 8 0 15 5 15 10 0 6 -7 10 -15 10 -8 0
-15 -4 -15 -10z"></path>
<path d="M5722 2945 c0 -16 2 -22 5 -12 2 9 2 23 0 30 -3 6 -5 -1 -5 -18z"></path>
<path d="M5922 2958 c-14 -14 -16 -38 -3 -38 5 0 11 7 14 14 4 11 17 14 44 10
l38 -4 -35 14 c-44 18 -44 18 -58 4z"></path>
<path d="M6082 2894 c21 -21 41 -34 45 -30 4 5 2 11 -4 13 -31 11 -9 22 34 16
30 -4 44 -3 40 4 -4 6 -28 13 -54 16 -26 4 -59 9 -73 13 -23 6 -22 4 12 -32z"></path>
<path d="M5915 2853 c7 -47 12 -61 18 -52 8 10 -6 99 -15 99 -7 0 -8 -17 -3
-47z"></path>
<path d="M5974 2872 c6 -11 97 -44 103 -38 2 2 -7 10 -19 18 -29 19 -93 34
-84 20z"></path>
<path d="M6230 2810 c20 -13 90 -13 90 0 0 6 -24 10 -52 10 -38 0 -49 -3 -38
-10z"></path>
<path d="M5994 2782 c8 -13 108 -36 127 -30 8 3 -8 10 -36 16 -27 7 -61 15
-74 18 -16 5 -22 4 -17 -4z"></path>
<path d="M6145 2760 c-4 -6 6 -10 24 -10 16 0 38 -3 48 -7 16 -6 16 -5 4 10
-15 18 -66 23 -76 7z"></path>
<path d="M6000 2732 c0 -12 51 -22 99 -21 34 1 34 2 -11 9 -25 5 -56 11 -67
15 -12 3 -21 2 -21 -3z"></path>
<path d="M6178 2672 c-10 -2 -18 -8 -18 -13 0 -13 27 -11 35 2 9 13 4 16 -17
11z"></path>
<path d="M5990 2652 c0 -15 13 -22 54 -31 30 -7 56 -17 58 -23 5 -13 68 -1 68
13 0 5 -20 9 -45 9 -47 0 -95 16 -108 37 -12 19 -27 16 -27 -5z"></path>
<path d="M6050 2580 c0 -5 5 -10 10 -10 6 0 10 5 10 10 0 6 -4 10 -10 10 -5 0
-10 -4 -10 -10z"></path>
<path d="M3952 2801 c2 -7 7 -12 11 -12 12 1 9 15 -3 20 -7 2 -11 -2 -8 -8z"></path>
<path d="M4028 2803 c-10 -2 -18 -11 -18 -19 0 -8 -7 -14 -15 -14 -8 0 -15 -4
-15 -10 0 -5 9 -10 20 -10 11 0 20 5 20 11 0 5 5 7 12 3 7 -4 8 -3 4 4 -4 8 3
16 18 22 44 16 24 26 -26 13z"></path>
<path d="M3815 2771 c-3 -5 -1 -12 5 -16 5 -3 10 1 10 9 0 18 -6 21 -15 7z"></path>
<path d="M4095 2760 c4 -6 11 -8 16 -5 14 9 11 15 -7 15 -8 0 -12 -5 -9 -10z"></path>
<path d="M4101 2603 c-23 -21 -29 -34 -25 -50 14 -50 84 -35 84 17 0 34 6 36
38 14 13 -9 26 -13 29 -10 9 9 -16 33 -40 39 -12 2 -29 8 -39 11 -11 5 -27 -2
-47 -21z"></path>
<path d="M4040 2330 c0 -5 4 -10 9 -10 6 0 13 5 16 10 3 6 -1 10 -9 10 -9 0
-16 -4 -16 -10z"></path>
<path d="M3950 2320 c0 -5 14 -10 30 -10 17 0 30 5 30 10 0 6 -13 10 -30 10
-16 0 -30 -4 -30 -10z"></path>
<path d="M3936 2097 c3 -10 9 -15 12 -12 3 3 0 11 -7 18 -10 9 -11 8 -5 -6z"></path>
<path d="M4045 2029 c-12 -19 5 -23 22 -6 16 16 16 17 1 17 -9 0 -20 -5 -23
-11z"></path>
<path d="M4310 2126 c0 -3 9 -10 20 -16 11 -6 20 -8 20 -6 0 3 -9 10 -20 16
-11 6 -20 8 -20 6z"></path>
<path d="M4047 1199 c7 -7 15 -10 18 -7 3 3 -2 9 -12 12 -14 6 -15 5 -6 -5z"></path>
<path d="M4740 980 c0 -5 5 -10 10 -10 6 0 10 5 10 10 0 6 -4 10 -10 10 -5 0
-10 -4 -10 -10z"></path>
<path d="M4750 915 c0 -8 5 -15 10 -15 6 0 10 7 10 15 0 8 -4 15 -10 15 -5 0
-10 -7 -10 -15z"></path>
<path d="M4528 625 c17 -32 103 -105 124 -105 5 0 8 5 8 10 0 6 -9 10 -21 10
-11 0 -42 23 -71 53 -28 28 -46 43 -40 32z"></path>
<path d="M5170 1340 c0 -16 5 -30 10 -30 6 0 10 14 10 30 0 17 -4 30 -10 30
-5 0 -10 -13 -10 -30z"></path>
<path d="M2604 5266 c4 -18 18 -61 31 -95 14 -33 25 -67 25 -74 0 -8 7 -28 16
-46 12 -23 14 -45 9 -78 -4 -31 -3 -43 4 -38 6 3 11 13 11 21 0 8 7 17 15 20
21 8 19 22 -10 60 -14 18 -22 39 -19 48 3 8 -8 51 -25 95 -17 44 -31 89 -31
101 0 12 -7 20 -16 20 -13 0 -15 -7 -10 -34z"></path>
<path d="M3012 5228 c16 -40 40 -109 53 -153 13 -44 29 -93 35 -110 7 -16 50
-140 96 -275 l83 -245 65 0 c55 0 66 3 70 18 6 24 -16 32 -53 19 -22 -8 -32
-7 -39 1 -7 10 -76 206 -259 734 -26 76 -30 83 -54 83 l-27 0 30 -72z"></path>
<path d="M4480 5233 c-17 -37 -44 -106 -61 -153 -16 -47 -39 -104 -49 -127
-11 -24 -20 -53 -20 -65 0 -25 -19 -80 -39 -117 -12 -21 -7 -42 42 -195 77
-240 87 -278 81 -302 -6 -21 18 -40 36 -29 5 3 26 -1 46 -10 43 -18 44 -18 44
-6 0 5 -17 26 -39 47 -33 34 -43 56 -78 174 -75 251 -75 286 12 552 36 108 74
220 85 247 l20 51 -24 0 c-20 0 -30 -12 -56 -67z"></path>
<path d="M5243 5262 c-46 -41 -65 -95 -78 -222 -4 -36 -15 -121 -26 -190 -10
-69 -19 -132 -19 -140 0 -19 43 -45 88 -54 40 -7 41 15 1 24 -24 6 -24 8 -22
106 1 106 13 189 44 324 18 80 23 88 73 138 l54 52 -36 0 c-28 -1 -47 -10 -79
-38z"></path>
<path d="M6248 5260 l-33 -31 32 15 c33 16 49 33 40 42 -3 3 -20 -9 -39 -26z"></path>
<path d="M6590 5276 c0 -9 5 -16 10 -16 6 0 10 4 10 9 0 6 -4 13 -10 16 -5 3
-10 -1 -10 -9z"></path>
<path d="M6680 5274 c0 -8 5 -12 10 -9 6 3 10 10 10 16 0 5 -4 9 -10 9 -5 0
-10 -7 -10 -16z"></path>
<path d="M6600 5230 c0 -5 5 -10 10 -10 6 0 10 5 10 10 0 6 -4 10 -10 10 -5 0
-10 -4 -10 -10z"></path>
<path d="M6075 5134 c-39 -20 -53 -34 -34 -34 13 0 81 49 69 50 -3 0 -18 -7
-35 -16z"></path>
<path d="M5955 5040 c-43 -54 -52 -70 -38 -69 10 0 95 119 85 119 -4 0 -25
-23 -47 -50z"></path>
<path d="M6402 4998 c-7 -7 -12 -19 -12 -28 0 -9 -11 -27 -25 -40 -34 -32 -32
-40 10 -40 39 0 47 14 14 23 -21 6 -21 7 10 46 17 22 28 42 23 45 -5 3 -14 0
-20 -6z"></path>
<path d="M6117 4980 c-3 -11 -1 -23 4 -26 5 -3 9 -1 9 5 0 5 3 16 6 25 3 9 2
16 -4 16 -5 0 -12 -9 -15 -20z"></path>
<path d="M2734 4933 c4 -16 20 -49 36 -76 16 -26 34 -66 41 -90 18 -68 64
-161 107 -218 22 -30 53 -79 68 -109 48 -97 134 -213 134 -181 0 6 -4 11 -10
11 -5 0 -10 4 -10 10 0 5 -20 41 -45 79 -25 38 -45 74 -45 80 0 14 -66 125
-82 139 -8 6 -29 44 -47 84 -18 40 -37 81 -42 90 -5 10 -9 29 -9 42 0 13 -10
37 -23 53 -13 15 -31 47 -41 71 -21 47 -42 57 -32 15z"></path>
<path d="M6283 4950 c-13 -5 -23 -12 -23 -16 0 -8 53 5 65 17 12 12 -12 11
-42 -1z"></path>
<path d="M6035 4900 c-17 -33 -20 -64 -5 -55 6 3 7 -1 4 -9 -3 -9 -11 -13 -16
-10 -6 4 -9 1 -6 -6 2 -8 10 -16 16 -18 16 -5 32 40 20 55 -7 8 -5 22 5 43 9
16 11 30 6 30 -4 0 -15 -13 -24 -30z"></path>
<path d="M6195 4910 c-3 -5 1 -10 9 -10 8 0 18 5 21 10 3 6 -1 10 -9 10 -8 0
-18 -4 -21 -10z"></path>
<path d="M6453 4894 c-13 -14 -23 -30 -23 -36 0 -5 10 -8 23 -6 13 2 22 10 22
20 0 9 9 24 20 32 l20 15 -20 1 c-11 0 -30 -12 -42 -26z"></path>
<path d="M6122 4898 c-20 -20 -14 -29 16 -22 39 10 46 15 31 25 -19 12 -33 11
-47 -3z"></path>
<path d="M6510 4860 c0 -5 16 -10 35 -10 19 0 35 5 35 10 0 6 -16 10 -35 10
-19 0 -35 -4 -35 -10z"></path>
<path d="M6615 4860 c-3 -5 -2 -10 4 -10 5 0 13 5 16 10 3 6 2 10 -4 10 -5 0
-13 -4 -16 -10z"></path>
<path d="M5790 4850 c0 -5 9 -10 20 -10 11 0 20 5 20 10 0 6 -9 10 -20 10 -11
0 -20 -4 -20 -10z"></path>
<path d="M5660 4835 c-21 -25 -1 -31 23 -7 17 18 18 22 5 22 -8 0 -21 -7 -28
-15z"></path>
<path d="M6556 4803 c-24 -21 -45 -41 -45 -45 -1 -3 13 -11 30 -17 39 -13 39
-13 39 -1 0 6 -6 10 -14 10 -30 0 -26 20 11 54 50 47 36 46 -21 -1z"></path>
<path d="M5977 4760 c-6 -25 -27 -26 -27 -2 -1 12 -5 9 -16 -11 -14 -26 -14
-31 1 -53 19 -30 36 -27 45 7 18 66 20 79 11 79 -5 0 -11 -9 -14 -20z"></path>
<path d="M5877 4752 c3 -12 11 -23 19 -26 20 -8 17 8 -5 28 -19 17 -19 17 -14
-2z"></path>
<path d="M1490 4726 c0 -7 -12 -22 -27 -32 -16 -9 -87 -75 -159 -146 -72 -70
-133 -128 -136 -128 -3 0 -20 36 -38 80 -18 44 -36 80 -40 80 -4 0 -10 -17
-13 -37 -7 -55 -37 -153 -46 -153 -18 0 -91 215 -91 268 0 12 -4 22 -10 22 -5
0 -10 -12 -10 -27 0 -16 -9 -65 -20 -111 -11 -46 -23 -114 -26 -153 -4 -38
-11 -69 -17 -69 -5 0 -7 7 -3 15 3 8 1 15 -4 15 -6 0 -10 -19 -10 -42 0 -54
-19 -92 -47 -96 -12 -2 -70 8 -130 23 -79 19 -115 33 -135 51 -43 42 -52 18
-8 -26 46 -46 190 -325 174 -339 -16 -16 -116 -41 -189 -47 -45 -4 -74 -12
-82 -22 -7 -8 -35 -17 -63 -20 -27 -2 -50 -7 -50 -11 0 -3 28 -22 62 -41 113
-64 169 -110 163 -130 -4 -13 15 -54 56 -122 34 -57 77 -133 95 -169 27 -53
47 -76 109 -125 43 -34 75 -66 75 -76 0 -11 -22 -33 -52 -53 -29 -19 -80 -53
-112 -76 -68 -48 -68 -49 -1 99 27 58 44 107 39 112 -5 4 -74 29 -154 55 -80
26 -147 49 -150 51 -2 3 2 10 10 15 18 12 -17 4 -65 -16 -30 -11 -30 -12 25
-17 30 -4 114 -26 185 -50 155 -51 151 -39 67 -210 -32 -65 -56 -118 -54 -118
3 0 58 36 123 80 65 44 120 80 122 80 10 0 -8 -106 -20 -118 -25 -26 -83 -150
-103 -224 l-20 -73 25 -95 c14 -52 38 -122 54 -155 l28 -61 -18 -54 c-11 -30
-30 -120 -45 -200 -18 -100 -35 -162 -54 -200 -79 -155 -79 -282 0 -365 24
-25 35 -57 70 -205 23 -96 45 -185 50 -197 49 -120 62 -181 65 -308 1 -71 10
-170 20 -220 9 -49 23 -144 30 -210 12 -106 26 -166 69 -295 7 -20 25 -43 43
-55 18 -11 37 -32 44 -47 l11 -28 229 0 228 0 -5 160 c-6 158 -6 161 -40 226
-19 36 -34 77 -34 91 0 34 28 90 48 98 22 8 141 -115 207 -215 28 -41 68 -94
91 -117 22 -24 39 -45 37 -47 -2 -2 16 -21 42 -42 25 -22 66 -65 91 -96 l45
-58 840 0 839 0 -20 43 c-10 23 -21 54 -24 68 -3 15 -25 53 -49 86 -25 33 -50
77 -57 99 -7 21 -46 106 -87 188 -65 130 -74 154 -68 185 10 56 5 132 -10 160
-8 14 -20 42 -28 61 -43 102 -70 157 -92 186 -14 18 -25 37 -25 43 0 6 -9 15
-20 21 -11 6 -20 17 -20 24 0 7 -8 17 -18 22 -11 5 -47 41 -82 79 -47 52 -77
99 -115 180 -29 61 -66 134 -84 163 -17 29 -31 63 -31 76 0 12 -7 31 -15 42
-8 10 -15 37 -15 60 0 48 -22 75 -93 116 -34 20 -47 34 -47 50 0 36 -51 240
-70 278 -36 74 -90 355 -90 472 0 122 -23 230 -62 296 -62 102 -143 168 -235
191 -21 6 -63 18 -93 29 l-55 19 -12 74 c-7 41 -15 92 -19 114 -5 34 -2 47 20
79 43 63 36 82 -38 101 -22 6 -41 16 -44 23 -4 14 64 15 141 3 26 -4 50 -5 52
-1 2 4 -32 26 -75 49 -44 23 -80 46 -80 51 0 15 162 60 190 53 46 -11 7 14
-50 32 -30 10 -83 30 -117 46 -54 24 -62 30 -55 47 8 23 57 64 156 130 l70 47
-162 3 c-89 1 -162 6 -162 11 0 5 7 14 15 21 9 7 13 20 10 30 -3 11 13 34 50
69 31 30 54 56 51 59 -3 3 -12 0 -19 -6 -17 -15 -233 -52 -298 -52 -28 0 -49
5 -49 11 0 6 28 65 63 132 34 67 64 125 65 129 6 13 -17 9 -63 -12 -59 -27
-296 -110 -313 -110 -20 0 -11 63 27 188 36 118 47 182 32 182 -6 0 -11 -6
-11 -14z m-21 -114 c-41 -141 -69 -256 -68 -281 0 -25 0 -26 9 -3 5 12 16 22
24 22 15 0 276 93 313 112 13 6 26 8 30 4 5 -4 -22 -66 -59 -138 l-66 -130 96
7 c53 4 129 13 167 20 39 7 72 11 74 9 3 -3 -31 -41 -75 -85 -43 -45 -69 -76
-57 -70 12 6 25 16 28 21 3 6 11 10 17 10 6 0 4 -8 -5 -18 -20 -22 -22 -33 -4
-27 28 9 307 14 307 6 0 -5 -15 -19 -34 -30 -19 -12 -62 -43 -96 -71 -34 -27
-70 -52 -81 -55 -33 -11 -7 -29 96 -72 52 -21 95 -41 95 -44 0 -4 -40 -19 -90
-35 -82 -26 -113 -44 -75 -44 19 0 125 -52 125 -62 0 -4 -36 -5 -80 -1 l-79 6
4 -34 c11 -91 13 -139 6 -139 -4 0 -16 18 -26 40 -10 22 -22 40 -27 40 -12 0
-11 -5 26 -78 18 -37 43 -105 55 -152 11 -46 26 -89 32 -95 9 -7 10 -3 5 15
-18 65 -19 93 -5 85 8 -5 5 6 -8 27 -26 45 -40 133 -23 153 9 11 9 23 2 44 -6
16 -8 31 -6 34 8 8 79 -21 88 -36 7 -11 6 -25 -4 -44 -24 -48 -31 -54 -46 -42
-10 8 -8 -5 5 -48 11 -32 25 -92 31 -133 7 -41 18 -102 25 -135 6 -34 8 -70 4
-80 -7 -20 -8 -20 -9 0 -1 11 -4 15 -6 9 -3 -6 12 -57 32 -115 52 -147 65
-191 54 -184 -5 3 -58 63 -119 133 -61 70 -126 139 -145 154 -19 16 -61 61
-92 102 -32 41 -67 77 -79 80 -14 4 -32 27 -51 66 -16 33 -32 60 -36 60 -14 0
-9 -14 22 -60 16 -25 30 -51 30 -57 0 -7 -39 19 -87 57 -48 39 -93 70 -100 70
-28 0 -103 45 -103 61 0 20 -16 34 -24 21 -3 -5 -1 -50 5 -101 16 -141 10
-150 -38 -54 -22 44 -43 91 -46 104 -3 13 -9 20 -13 17 -3 -4 -2 -21 4 -37 9
-25 7 -40 -13 -88 -13 -32 -47 -118 -75 -190 -29 -73 -55 -133 -59 -133 -12 0
-20 59 -28 188 -3 61 -10 112 -15 112 -4 0 -8 -15 -8 -32 -1 -30 -2 -31 -14
-15 -12 16 -14 15 -20 -14 -3 -17 -6 -47 -6 -65 0 -19 -4 -34 -9 -34 -10 0
-21 48 -21 91 0 29 -13 38 -25 19 -3 -5 -13 -10 -22 -10 -12 0 -13 3 -4 14 7
8 8 17 3 20 -5 3 -14 25 -20 48 -27 104 -216 273 -352 315 -32 10 -75 34 -102
57 -26 22 -71 54 -99 71 -29 17 -54 35 -56 41 -4 13 86 24 193 24 43 0 74 4
74 10 0 6 -16 10 -35 10 -46 0 -45 16 2 25 20 3 61 16 92 27 41 16 51 23 38
27 -22 8 -182 311 -164 311 7 0 35 -7 62 -15 50 -15 213 -45 248 -45 10 0 15
5 12 10 -3 6 -16 10 -29 10 -12 0 -25 3 -29 6 -9 9 4 34 18 34 9 0 17 29 25
88 17 126 42 262 50 262 3 0 16 -33 27 -72 29 -97 61 -168 76 -168 7 0 18 21
25 48 7 26 17 64 23 85 5 20 13 37 18 37 5 0 18 -26 29 -58 12 -31 28 -66 36
-77 15 -20 15 -20 16 1 0 24 284 309 299 300 6 -4 2 -33 -10 -74z m-939 -762
c0 -5 -9 -10 -20 -10 -11 0 -20 5 -20 10 0 6 9 10 20 10 11 0 20 -4 20 -10z
m938 -518 c2 -45 -1 -82 -5 -82 -17 0 -33 56 -33 113 0 50 2 58 18 55 14 -3
17 -16 20 -86z m42 48 c0 -5 -4 -10 -10 -10 -5 0 -10 5 -10 10 0 6 5 10 10 10
6 0 10 -4 10 -10z m47 -32 c4 -7 9 -21 10 -31 5 -28 59 -131 88 -165 23 -28
25 -33 10 -38 -10 -4 -27 3 -43 18 -15 13 -36 31 -47 39 -18 13 -19 13 -6 -3
22 -29 -3 -21 -31 10 -26 27 -47 92 -31 92 5 0 15 -16 22 -35 7 -19 19 -35 27
-35 19 0 18 6 -11 65 -14 28 -25 60 -25 73 0 24 24 30 37 10z m86 -58 c19 -16
38 -26 42 -22 5 4 5 2 2 -4 -8 -14 67 -86 186 -178 48 -37 87 -71 87 -74 -1
-4 -24 -18 -53 -32 -47 -23 -53 -29 -58 -65 -3 -22 -22 -71 -42 -108 -20 -38
-37 -75 -37 -82 0 -27 -44 -39 -140 -39 -78 0 -116 6 -210 32 -63 18 -119 37
-124 42 -5 5 18 37 56 76 l66 68 63 -51 c35 -28 75 -63 88 -77 25 -26 53 -38
33 -13 -19 22 -59 179 -72 277 -9 72 -17 98 -31 108 -20 14 -25 37 -10 46 5 3
24 -9 44 -28 38 -35 115 -76 145 -76 11 0 27 -9 37 -20 18 -20 35 -26 35 -12
0 4 -23 32 -51 62 -28 30 -64 82 -80 115 -44 92 -37 109 24 55z m172 -101 c26
-33 45 -63 42 -66 -10 -9 -77 49 -77 67 0 10 -7 23 -15 30 -8 7 -15 16 -15 21
0 22 22 4 65 -52z m-328 -87 c18 -59 37 -129 42 -157 5 -27 14 -63 20 -78 6
-16 11 -35 11 -44 0 -26 -37 13 -72 75 -17 28 -34 52 -39 52 -13 0 -11 -12 6
-34 24 -32 17 -42 -10 -16 l-25 24 -48 -47 c-26 -26 -52 -47 -56 -47 -5 0 -6
23 -3 50 4 29 2 50 -3 50 -6 0 -10 -11 -10 -25 0 -33 -8 -32 -41 8 l-28 32 -1
-27 c0 -31 -14 -37 -25 -10 -10 26 -20 1 -36 -86 -16 -94 -29 -76 -36 54 -4
70 -9 94 -19 94 -8 0 -14 8 -14 18 0 9 -5 24 -11 32 -8 11 -9 6 -5 -23 4 -31
2 -38 -9 -33 -10 4 -15 -7 -17 -42 l-3 -47 -14 30 c-15 36 -37 133 -30 139 2
2 24 5 49 7 25 1 52 6 61 10 14 7 19 -2 29 -57 7 -36 16 -62 20 -57 4 4 20 41
36 81 28 73 28 74 91 102 35 16 76 38 91 48 15 11 33 17 40 15 6 -3 12 0 12 6
0 6 3 11 8 11 4 0 22 -48 39 -108z m-587 36 c0 -26 -16 -55 -25 -47 -8 8 6 69
16 69 5 0 9 -10 9 -22z m26 -57 c-4 -6 -16 -16 -27 -22 -20 -10 -20 -10 -4 21
12 22 20 29 27 22 6 -6 7 -15 4 -21z m164 -198 c0 -15 2 -16 10 -3 16 26 21 4
5 -26 -8 -16 -15 -34 -15 -41 0 -6 -4 -15 -10 -18 -6 -4 -10 15 -10 49 0 31 5
56 10 56 6 0 10 -8 10 -17z m184 -8 c18 -27 21 -72 7 -94 -8 -12 -13 -12 -35
3 -29 18 -32 34 -14 83 14 39 21 41 42 8z m-64 -35 c0 -16 -4 -30 -10 -30 -5
0 -10 14 -10 30 0 17 5 30 10 30 6 0 10 -13 10 -30z m-279 -1747 c71 -79 108
-163 121 -277 8 -73 7 -99 -5 -131 -28 -79 -78 -46 -131 86 -26 64 -36 159
-17 159 10 0 16 -25 27 -110 7 -63 22 -95 58 -129 23 -21 26 -22 32 -7 13 33
-3 151 -30 215 -32 80 -75 139 -87 120 -9 -15 -7 -18 -34 60 -31 90 -9 95 66
14z m43 -205 c13 -35 26 -78 29 -96 11 -54 -11 -27 -29 36 -9 31 -24 66 -34
77 -17 19 -24 42 -21 75 2 24 29 -22 55 -92z m2399 -43 c0 -9 10 -39 23 -66
14 -27 22 -54 19 -60 -7 -11 -25 9 -51 59 -7 15 -14 20 -14 13 0 -8 12 -32 26
-52 15 -22 24 -47 22 -61 -3 -19 -9 -12 -36 40 -25 49 -30 67 -22 82 5 10 10
31 10 45 0 17 5 25 13 22 6 -2 11 -12 10 -22z m-2413 -51 c0 -8 -4 -12 -10 -9
-5 3 -10 13 -10 21 0 8 5 12 10 9 6 -3 10 -13 10 -21z m39 -60 c6 -15 9 -29 6
-32 -9 -10 -48 35 -41 47 11 18 22 13 35 -15z"></path>
<path d="M2067 3210 c3 -14 9 -40 14 -58 4 -19 11 -37 15 -40 11 -11 -3 52
-20 89 -10 22 -13 25 -9 9z"></path>
<path d="M5850 4731 c0 -5 5 -13 10 -16 6 -3 10 -2 10 4 0 5 -4 13 -10 16 -5
3 -10 2 -10 -4z"></path>
<path d="M6600 4730 c0 -5 5 -10 10 -10 6 0 10 5 10 10 0 6 -4 10 -10 10 -5 0
-10 -4 -10 -10z"></path>
<path d="M4865 4720 c3 -5 12 -10 19 -10 8 0 19 -7 26 -15 7 -9 15 -13 18 -10
9 9 -31 45 -50 45 -11 0 -16 -4 -13 -10z"></path>
<path d="M4735 4710 c-3 -5 1 -10 9 -10 9 0 16 5 16 10 0 6 -4 10 -9 10 -6 0
-13 -4 -16 -10z"></path>
<path d="M6655 4710 c-3 -5 1 -10 9 -10 9 0 16 5 16 10 0 6 -4 10 -9 10 -6 0
-13 -4 -16 -10z"></path>
<path d="M5510 4678 c-21 -35 -25 -48 -12 -48 4 0 17 18 30 40 27 48 10 54
-18 8z"></path>
<path d="M6587 4683 c-13 -3 -17 -11 -14 -23 3 -11 0 -21 -7 -23 -14 -6 23
-36 44 -36 12 0 11 3 -4 14 -21 16 -15 45 10 45 8 0 14 5 12 12 -5 14 -17 17
-41 11z"></path>
<path d="M4970 4660 c0 -5 7 -10 15 -10 8 0 15 5 15 10 0 6 -7 10 -15 10 -8 0
-15 -4 -15 -10z"></path>
<path d="M5900 4625 c0 -8 9 -19 20 -25 23 -12 25 -7 10 21 -13 22 -30 25 -30
4z"></path>
<path d="M2600 4596 c0 -20 5 -36 10 -36 6 0 10 13 10 29 0 17 -4 33 -10 36
-6 4 -10 -8 -10 -29z"></path>
<path d="M5851 4604 c17 -18 19 -23 6 -18 -30 11 -17 -10 31 -50 40 -34 46
-44 48 -82 3 -39 -1 -46 -34 -74 -20 -16 -47 -30 -59 -30 -27 0 -33 -9 -22
-37 11 -29 59 -53 108 -53 21 0 41 -5 43 -11 2 -7 10 -4 18 7 9 11 10 15 3 10
-10 -5 -13 6 -13 43 0 39 4 51 15 51 9 0 20 -10 25 -22 6 -17 9 -18 9 -6 1 22
20 33 34 19 6 -6 47 -11 92 -12 107 -1 177 -11 183 -26 3 -10 -12 -13 -52 -13
-31 0 -56 -4 -56 -10 0 -5 13 -10 29 -10 16 0 34 -7 41 -15 12 -14 17 -12 43
16 26 29 27 34 13 44 -25 19 -20 22 42 28 31 4 68 9 82 12 14 3 19 3 13 -1 -7
-3 -13 -13 -13 -22 0 -12 6 -9 18 11 10 15 22 24 27 20 4 -5 5 -2 1 5 -5 9 2
17 23 25 20 7 32 20 36 37 5 23 10 26 35 22 22 -3 30 0 30 11 0 20 -40 33 -50
17 -6 -10 -26 -9 -91 3 -46 8 -92 18 -101 22 -13 5 -18 3 -18 -9 0 -18 -26
-15 -89 10 -19 8 -36 12 -38 10 -3 -2 3 -18 12 -35 18 -36 11 -39 -25 -11 -22
17 -41 20 -166 20 -127 0 -143 2 -158 19 -10 11 -15 25 -11 31 4 7 -2 18 -14
26 -12 9 -19 19 -16 23 2 5 -7 13 -21 20 -37 17 -40 14 -13 -15z m508 -123
c23 -15 5 -44 -21 -36 -35 11 -45 24 -28 35 19 12 31 12 49 1z m131 -26 c0
-45 -82 -61 -88 -17 -4 25 13 30 22 7 8 -22 21 -18 36 10 17 32 30 32 30 0z
m40 -8 c0 -26 -17 -47 -39 -47 -12 0 -11 3 2 18 10 10 17 26 17 35 0 9 5 17
10 17 6 0 10 -10 10 -23z m-229 -13 c19 -10 29 -21 25 -30 -4 -10 2 -14 18
-14 14 0 26 4 28 9 2 5 9 3 16 -5 11 -12 5 -14 -38 -14 -35 0 -49 4 -47 13 1
6 -6 11 -15 11 -10 -1 -18 2 -18 6 0 5 -3 15 -6 24 -8 20 -1 20 37 0z"></path>
<path d="M4936 4591 c-14 -5 -16 -10 -7 -15 15 -9 41 -1 41 14 0 11 -7 12 -34
1z"></path>
<path d="M6635 4592 c6 -6 24 -14 40 -18 21 -4 27 -3 20 4 -5 6 -23 14 -40 18
-21 4 -27 3 -20 -4z"></path>
<path d="M3880 4576 c0 -8 -31 -35 -68 -61 -87 -58 -125 -96 -116 -118 9 -24
38 -22 31 2 -3 14 6 28 34 50 21 17 41 31 44 31 4 0 26 16 51 36 41 34 47 36
91 29 139 -21 213 -64 213 -126 0 -16 5 -29 10 -29 6 0 10 15 10 34 0 53 -36
88 -117 113 -196 61 -183 58 -183 39z"></path>
<path d="M6704 4560 c-16 -16 -165 -33 -177 -21 -6 6 -15 11 -20 11 -17 0 38
-37 64 -43 18 -5 31 -2 39 8 7 8 23 15 35 15 44 0 85 13 85 26 0 16 -12 18
-26 4z"></path>
<path d="M5440 4520 c0 -5 5 -10 10 -10 6 0 10 5 10 10 0 6 -4 10 -10 10 -5 0
-10 -4 -10 -10z"></path>
<path d="M5405 4447 c-4 -10 -5 -21 -1 -24 10 -10 18 4 13 24 -4 17 -4 17 -12
0z"></path>
<path d="M3500 4432 c0 -5 7 -13 16 -16 10 -4 14 -1 12 6 -5 15 -28 23 -28 10z"></path>
<path d="M5400 4380 c0 -11 5 -20 10 -20 6 0 10 9 10 20 0 11 -4 20 -10 20 -5
0 -10 -9 -10 -20z"></path>
<path d="M3669 4316 c-10 -24 -22 -58 -25 -75 -8 -38 -22 -46 -94 -55 -250
-29 -237 -28 -286 -7 -82 37 -106 21 -26 -16 41 -19 60 -22 132 -18 102 5 258
29 270 41 5 5 20 38 33 74 13 36 28 73 32 83 4 10 3 17 -4 17 -7 0 -21 -20
-32 -44z"></path>
<path d="M6506 4331 c-12 -13 -14 -21 -6 -26 6 -4 12 -5 13 -4 1 2 8 14 15 27
15 27 2 29 -22 3z"></path>
<path d="M6554 4339 c-9 -16 2 -22 21 -11 15 8 16 10 1 15 -8 3 -18 2 -22 -4z"></path>
<path d="M6605 4340 c3 -5 11 -10 16 -10 6 0 7 5 4 10 -3 6 -11 10 -16 10 -6
0 -7 -4 -4 -10z"></path>
<path d="M6465 4310 c3 -5 8 -10 11 -10 2 0 4 5 4 10 0 6 -5 10 -11 10 -5 0
-7 -4 -4 -10z"></path>
<path d="M5380 4300 c0 -5 5 -10 10 -10 6 0 10 5 10 10 0 6 -4 10 -10 10 -5 0
-10 -4 -10 -10z"></path>
<path d="M6186 4293 c-6 -14 -5 -15 5 -6 7 7 10 15 7 18 -3 3 -9 -2 -12 -12z"></path>
<path d="M4160 4260 c0 -22 5 -40 10 -40 6 0 10 18 10 40 0 22 -4 40 -10 40
-5 0 -10 -18 -10 -40z"></path>
<path d="M6380 4291 c0 -5 5 -13 10 -16 6 -3 10 -2 10 4 0 5 -4 13 -10 16 -5
3 -10 2 -10 -4z"></path>
<path d="M6550 4286 c0 -2 7 -7 16 -10 8 -3 12 -2 9 4 -6 10 -25 14 -25 6z"></path>
<path d="M6590 4266 c0 -9 5 -16 10 -16 6 0 10 4 10 9 0 6 -4 13 -10 16 -5 3
-10 -1 -10 -9z"></path>
<path d="M5367 4248 c-6 -21 -2 -36 7 -27 10 11 16 49 8 49 -5 0 -12 -10 -15
-22z"></path>
<path d="M4365 4210 c-3 -5 1 -10 9 -10 9 0 16 5 16 10 0 6 -4 10 -9 10 -6 0
-13 -4 -16 -10z"></path>
<path d="M5850 4213 c0 -6 16 -21 36 -34 22 -13 31 -24 25 -29 -7 -4 -2 -11
14 -18 15 -7 30 -10 35 -7 5 3 11 -1 13 -7 4 -10 6 -10 6 0 1 6 13 12 29 13
19 0 7 7 -40 23 -37 12 -79 33 -93 46 -14 13 -25 19 -25 13z"></path>
<path d="M4200 4173 c0 -14 24 -63 31 -63 4 0 9 9 12 21 5 20 7 20 31 4 18
-12 36 -15 60 -11 19 4 37 3 40 -2 3 -5 34 -17 70 -26 36 -10 70 -24 77 -32
13 -16 29 -18 29 -4 0 14 -61 50 -85 50 -12 0 -39 9 -60 20 -28 15 -50 19 -73
15 -23 -4 -42 -1 -58 10 -14 9 -29 13 -35 10 -5 -4 -16 -1 -24 5 -8 7 -15 8
-15 3z"></path>
<path d="M6053 4163 c9 -9 19 -14 23 -11 10 10 -6 28 -24 28 -15 0 -15 -1 1
-17z"></path>
<path d="M4660 4006 c0 -1 11 -34 25 -72 14 -38 25 -86 25 -106 0 -39 13 -51
24 -22 13 35 4 87 -26 144 -17 33 -35 60 -40 60 -4 0 -8 -2 -8 -4z"></path>
<path d="M4585 3990 c3 -5 11 -10 16 -10 6 0 7 5 4 10 -3 6 -11 10 -16 10 -6
0 -7 -4 -4 -10z"></path>
<path d="M5901 3925 c-38 -35 -71 -90 -71 -117 1 -7 8 3 16 22 8 19 36 56 62
83 54 55 50 63 -7 12z"></path>
<path d="M4765 3842 c6 -6 24 -14 40 -18 21 -4 27 -3 20 4 -5 6 -23 14 -40 18
-21 4 -27 3 -20 -4z"></path>
<path d="M4970 3810 c0 -5 9 -10 20 -10 11 0 20 5 20 10 0 6 -9 10 -20 10 -11
0 -20 -4 -20 -10z"></path>
<path d="M5131 3813 c0 -5 13 -18 30 -31 21 -17 29 -20 29 -9 0 8 -8 21 -18
30 -19 18 -42 23 -41 10z"></path>
<path d="M5230 3786 c0 -20 5 -36 10 -36 6 0 10 13 10 29 0 17 -4 33 -10 36
-6 4 -10 -8 -10 -29z"></path>
<path d="M5816 3768 c-3 -13 -7 -41 -10 -63 -2 -22 -7 -62 -10 -90 l-6 -50 14
50 c17 56 32 175 23 175 -4 0 -9 -10 -11 -22z"></path>
<path d="M5230 3675 c1 -17 29 -49 37 -41 4 3 -3 16 -15 29 -12 12 -22 17 -22
12z"></path>
<path d="M6677 3543 c-11 -13 -17 -26 -14 -29 2 -3 12 7 21 22 23 33 17 39 -7
7z"></path>
<path d="M5780 3551 c0 -5 6 -14 14 -20 12 -10 13 -8 9 8 -5 21 -23 30 -23 12z"></path>
<path d="M5330 3471 c0 -5 7 -14 15 -21 13 -10 15 -9 15 9 0 12 -6 21 -15 21
-8 0 -15 -4 -15 -9z"></path>
<path d="M450 3440 c0 -5 7 -10 16 -10 8 0 12 5 9 10 -3 6 -10 10 -16 10 -5 0
-9 -4 -9 -10z"></path>
<path d="M535 3404 c-38 -19 -59 -32 -45 -28 29 8 140 63 125 63 -5 -1 -41
-16 -80 -35z"></path>
<path d="M2720 3282 c0 -14 46 -53 53 -45 4 3 -3 17 -15 30 -22 23 -38 30 -38
15z"></path>
<path d="M2784 3139 c-3 -6 8 -24 26 -41 25 -23 35 -26 41 -16 14 21 11 28
-12 28 -12 0 -23 8 -26 20 -6 22 -18 26 -29 9z"></path>
<path d="M2830 3011 c0 -5 5 -13 10 -16 6 -3 10 -2 10 4 0 5 -4 13 -10 16 -5
3 -10 2 -10 -4z"></path>
<path d="M6933 3013 c-12 -2 -27 -10 -33 -18 -9 -11 -4 -12 26 -5 20 5 41 13
47 19 12 12 3 12 -40 4z"></path>
<path d="M6874 2960 c-13 -21 -34 -62 -34 -66 0 -15 22 2 35 27 17 32 16 65
-1 39z"></path>
<path d="M6826 2851 c-4 -7 -5 -15 -2 -18 9 -9 19 4 14 18 -4 11 -6 11 -12 0z"></path>
<path d="M6757 2812 c-10 -10 -14 -21 -11 -25 10 -10 44 12 44 28 0 20 -13 19
-33 -3z"></path>
<path d="M4821 2754 c0 -11 3 -14 6 -6 3 7 2 16 -1 19 -3 4 -6 -2 -5 -13z"></path>
<path d="M6817 2723 c-4 -3 -7 -11 -7 -17 0 -6 5 -5 12 2 6 6 9 14 7 17 -3 3
-9 2 -12 -2z"></path>
<path d="M3414 2675 c-7 -29 -7 -30 23 -39 21 -7 21 -5 12 26 -5 18 -9 34 -9
35 0 2 -4 3 -10 3 -5 0 -12 -11 -16 -25z"></path>
<path d="M6715 2615 c-26 -31 -45 -58 -42 -61 5 -5 86 77 100 101 19 34 -14
11 -58 -40z"></path>
<path d="M6636 2518 c-9 -35 -7 -41 8 -29 15 13 96 -5 203 -45 41 -16 63 -20
61 -12 -2 6 -16 15 -29 19 -14 3 -41 13 -60 21 -19 9 -53 21 -76 27 -23 6 -49
18 -57 26 -21 22 -43 18 -50 -7z"></path>
<path d="M6154 2199 c-19 -21 -19 -21 6 -18 14 2 26 12 28 22 5 23 -11 22 -34
-4z"></path>
<path d="M6948 2075 c-63 -79 -61 -93 3 -29 33 33 50 58 47 70 -2 14 -14 4
-50 -41z"></path>
<path d="M6100 2077 c0 -15 49 -41 59 -32 7 7 -36 45 -50 45 -5 0 -9 -6 -9
-13z"></path>
<path d="M5795 1850 c3 -5 8 -10 11 -10 2 0 4 5 4 10 0 6 -5 10 -11 10 -5 0
-7 -4 -4 -10z"></path>
<path d="M6550 1820 c12 -16 30 -30 41 -30 19 0 19 1 -3 30 -12 17 -30 30 -41
30 -17 0 -17 -2 3 -30z"></path>
<path d="M5783 1822 c1 -24 42 -69 50 -55 8 14 -12 53 -27 53 -8 0 -16 6 -19
13 -3 6 -4 2 -4 -11z"></path>
<path d="M6626 1752 c-2 -4 -2 -19 1 -33 4 -20 11 -26 33 -27 25 -1 27 2 21
25 -7 25 -46 50 -55 35z"></path>
<path d="M5773 1713 c-7 -15 -11 -29 -8 -31 9 -9 35 20 35 39 0 27 -13 23 -27
-8z"></path>
<path d="M6276 1651 c-4 -7 -5 -15 -2 -18 9 -9 19 4 14 18 -4 11 -6 11 -12 0z"></path>
<path d="M6370 1610 c0 -5 5 -10 10 -10 6 0 10 5 10 10 0 6 -4 10 -10 10 -5 0
-10 -4 -10 -10z"></path>
<path d="M6134 1595 c24 -18 39 -20 34 -2 -3 6 -15 13 -29 15 -23 2 -23 2 -5
-13z"></path>
<path d="M6280 1596 c0 -8 5 -18 10 -21 6 -3 10 1 10 9 0 8 -4 18 -10 21 -5 3
-10 -1 -10 -9z"></path>
<path d="M6262 1523 c-6 -21 -13 -61 -16 -89 -3 -30 -17 -73 -33 -102 -27 -49
-28 -50 -9 -71 11 -12 25 -21 33 -21 7 0 13 -3 13 -6 0 -4 -34 -42 -75 -85
-41 -43 -75 -83 -75 -89 0 -20 20 -9 34 19 19 36 82 91 104 91 10 0 65 -25
122 -55 58 -31 116 -58 130 -61 14 -3 37 -14 50 -24 20 -15 22 -20 11 -34 -15
-18 -47 -21 -56 -6 -4 7 -13 6 -26 -1 -16 -8 -25 -7 -40 7 -10 9 -22 14 -26
10 -10 -9 9 -57 27 -68 23 -14 98 9 125 38 16 18 33 24 62 24 49 0 58 -8 37
-31 -30 -33 -4 -40 34 -10 35 28 80 44 165 56 20 3 37 10 37 16 0 5 -11 27
-24 48 -19 29 -33 40 -60 45 -20 4 -36 11 -36 17 0 5 -11 14 -25 19 -30 11
-31 20 -6 49 13 15 20 18 24 9 2 -7 8 -10 11 -6 12 10 -59 82 -72 74 -7 -4
-12 -27 -12 -52 0 -24 -4 -52 -9 -62 -5 -9 -12 -25 -15 -35 -3 -9 -17 -22 -31
-27 -20 -8 -25 -15 -20 -30 6 -18 2 -20 -34 -20 -30 0 -43 5 -51 21 -9 16 -17
19 -40 14 -22 -5 -48 4 -117 40 -119 63 -123 67 -85 95 16 12 37 39 45 59 63
155 68 183 43 241 -13 32 -32 28 -20 -4 7 -18 -20 -66 -38 -66 -20 0 -36 34
-31 67 8 45 -11 42 -25 -4z m28 -253 c0 -5 -7 -10 -16 -10 -8 0 -12 5 -9 10 3
6 10 10 16 10 5 0 9 -4 9 -10z"></path>
<path d="M6475 1510 c-3 -5 -17 -10 -31 -10 -13 0 -24 -4 -24 -10 0 -5 9 -10
20 -10 11 0 20 -4 20 -10 0 -5 -4 -10 -8 -10 -12 0 -55 -61 -48 -68 8 -7 66
48 66 63 0 7 9 20 20 30 11 10 20 22 20 27 0 11 -27 10 -35 -2z"></path>
<path d="M6755 1388 c2 -31 15 -61 45 -106 52 -77 78 -98 99 -78 14 15 17 60
6 96 -5 15 -15 20 -45 20 -31 0 -43 6 -58 28 -10 15 -22 39 -26 55 -10 42 -25
32 -21 -15z"></path>
<path d="M5379 1367 c-25 -21 -29 -47 -8 -47 6 0 8 4 5 9 -4 5 6 18 20 29 15
10 23 21 18 25 -5 3 -21 -5 -35 -16z"></path>
<path d="M6975 1380 c-3 -5 -3 -16 2 -22 4 -7 6 -21 5 -30 -2 -10 1 -26 7 -35
8 -14 10 -4 9 40 -1 53 -9 70 -23 47z"></path>
<path d="M6920 1356 c0 -9 7 -16 16 -16 17 0 14 22 -4 28 -7 2 -12 -3 -12 -12z"></path>
<path d="M5465 1290 c3 -5 8 -10 11 -10 2 0 4 5 4 10 0 6 -5 10 -11 10 -5 0
-7 -4 -4 -10z"></path>
<path d="M6930 1270 c0 -11 3 -20 8 -20 4 0 13 9 20 20 11 18 10 20 -8 20 -13
0 -20 -7 -20 -20z"></path>
<path d="M5446 1246 c-23 -36 -20 -44 5 -12 12 15 19 29 16 32 -2 2 -12 -7
-21 -20z"></path>
<path d="M6590 1259 c0 -5 5 -7 10 -4 6 3 10 8 10 11 0 2 -4 4 -10 4 -5 0 -10
-5 -10 -11z"></path>
<path d="M6325 1220 c-3 -5 1 -10 9 -10 9 0 16 5 16 10 0 6 -4 10 -9 10 -6 0
-13 -4 -16 -10z"></path>
<path d="M5400 1010 c0 -5 5 -10 10 -10 6 0 10 5 10 10 0 6 -4 10 -10 10 -5 0
-10 -4 -10 -10z"></path>
<path d="M6745 942 c-11 -2 -25 -10 -31 -18 -13 -16 -32 -17 -121 -10 -35 3
-63 2 -63 -3 0 -13 27 -21 70 -21 21 0 42 -4 45 -10 3 -5 14 -10 24 -10 22 0
35 -38 20 -56 -6 -7 -25 -16 -42 -20 -18 -3 -36 -10 -42 -14 -5 -5 -23 -10
-40 -12 -17 -2 -31 -10 -33 -18 -2 -12 7 -15 40 -14 24 1 55 7 70 12 23 10 28
8 42 -13 9 -13 16 -29 16 -34 0 -5 4 -12 9 -16 6 -3 10 11 9 33 -1 60 36 120
85 142 24 11 53 33 65 49 22 31 16 44 -8 16 -9 -11 -17 -12 -31 -4 -11 5 -24
7 -29 4 -6 -3 -10 -2 -10 3 0 13 -20 19 -45 14z"></path>
<path d="M5936 860 c-35 -39 -45 -60 -28 -60 8 0 82 85 82 94 0 16 -21 2 -54
-34z"></path>
<path d="M6306 865 c-19 -10 -59 -15 -127 -15 -55 0 -99 -4 -99 -9 0 -6 15
-11 33 -13 24 -2 33 -8 35 -25 4 -28 10 -28 42 -3 14 11 32 20 40 20 8 0 33 9
55 20 22 11 46 19 53 20 13 0 18 20 5 20 -5 0 -21 -7 -37 -15z"></path>
<path d="M5825 750 c-18 -20 -15 -38 4 -25 15 9 33 45 23 45 -5 0 -17 -9 -27
-20z"></path>
<path d="M6734 666 c-10 -8 -16 -18 -11 -22 4 -4 13 -2 19 4 7 7 21 12 33 12
16 0 17 2 5 10 -20 13 -23 12 -46 -4z"></path>
<path d="M0 651 c0 -21 533 -400 605 -430 21 -8 121 -90 155 -126 44 -47 119
-99 128 -90 4 4 -11 21 -32 39 -22 17 -66 55 -98 84 -32 29 -159 119 -281 199
-207 137 -306 207 -417 297 -46 36 -60 43 -60 27z"></path>
<path d="M6811 626 c-9 -11 -9 -20 -2 -35 21 -38 12 -56 -59 -114 -38 -31 -74
-57 -80 -57 -5 0 -14 -9 -20 -20 -6 -11 -25 -27 -43 -35 -32 -14 -46 -23 -100
-58 -15 -10 -33 -16 -40 -14 -7 3 -5 8 8 13 11 4 38 20 59 36 21 15 45 28 53
28 7 0 13 5 13 10 0 20 -31 9 -89 -30 -32 -22 -65 -40 -73 -40 -17 0 -38 -20
-38 -36 0 -6 9 -14 20 -17 26 -7 17 -32 -18 -49 -23 -11 -53 -14 -105 -9 -4 1
-7 9 -5 19 4 22 -31 18 -84 -9 -48 -24 -53 -24 -66 6 -6 14 -17 25 -23 25 -6
0 -39 29 -72 65 -64 69 -93 80 -115 44 -10 -16 -19 -19 -42 -14 -16 4 -46 1
-67 -6 -49 -17 -68 -34 -28 -25 101 21 95 22 95 -17 0 -28 6 -40 25 -53 14 -9
23 -19 20 -23 -2 -4 5 -20 15 -36 14 -21 16 -34 9 -53 -11 -27 -3 -65 12 -57
5 4 9 2 9 -3 0 -6 -7 -12 -15 -16 -27 -10 -16 -34 18 -39 17 -2 109 -5 204 -6
l171 -2 14 28 c7 15 22 32 33 38 35 17 123 121 130 154 7 35 71 91 103 91 30
0 131 97 156 149 21 44 23 46 61 42 23 -2 52 -13 68 -27 29 -24 77 -33 77 -14
0 6 -7 10 -16 10 -8 0 -32 11 -52 25 -20 14 -42 25 -49 25 -6 0 -17 16 -23 36
-7 20 -18 47 -25 60 -10 21 -14 22 -24 10z"></path>
<path d="M6770 610 c0 -5 5 -10 10 -10 6 0 10 5 10 10 0 6 -4 10 -10 10 -5 0
-10 -4 -10 -10z"></path>
<path d="M5697 593 c-4 -3 -7 -11 -7 -17 0 -6 5 -5 12 2 6 6 9 14 7 17 -3 3
-9 2 -12 -2z"></path>
<path d="M5604 479 c-62 -65 -113 -100 -139 -93 -20 5 -22 2 -17 -21 3 -20 -7
-43 -43 -96 -47 -66 -55 -100 -17 -66 11 10 35 17 60 17 43 0 57 14 22 23 -19
5 -19 6 4 52 13 25 59 84 101 131 78 86 102 128 29 53z"></path>
<path d="M6120 490 c-9 -16 -6 -22 19 -35 38 -19 41 -19 41 3 0 18 -29 52 -43
52 -3 0 -11 -9 -17 -20z"></path>
<path d="M5990 490 c0 -5 5 -10 11 -10 5 0 7 5 4 10 -3 6 -8 10 -11 10 -2 0
-4 -4 -4 -10z"></path>
<path d="M6077 493 c-12 -11 -8 -23 8 -23 8 0 15 7 15 15 0 16 -12 20 -23 8z"></path>
<path d="M4714 410 c-21 -16 -46 -30 -55 -30 -11 0 -15 -8 -14 -27 0 -16 3
-28 6 -28 3 0 30 26 58 58 29 31 51 57 49 57 -3 0 -22 -13 -44 -30z"></path>
<path d="M5870 380 c0 -21 16 -26 39 -11 18 11 5 31 -20 31 -12 0 -19 -7 -19
-20z"></path>
<path d="M6125 299 c-8 -36 0 -48 20 -28 9 8 12 23 9 37 -9 31 -21 27 -29 -9z"></path>
<path d="M6330 220 c0 -5 5 -10 10 -10 6 0 10 5 10 10 0 6 -4 10 -10 10 -5 0
-10 -4 -10 -10z"></path>
<path d="M5867 178 c-13 -18 -29 -47 -36 -64 -7 -17 -35 -48 -64 -70 -49 -37
-50 -39 -26 -42 30 -4 99 54 99 82 0 10 16 40 35 66 19 26 35 50 35 54 0 16
-21 3 -43 -26z"></path>
<path d="M4130 151 c0 -12 5 -21 10 -21 6 0 10 6 10 14 0 8 -4 18 -10 21 -5 3
-10 -3 -10 -14z"></path>
<path d="M4360 155 c-7 -8 -19 -15 -26 -15 -8 0 -14 -4 -14 -10 0 -14 43 -13
58 2 14 14 16 38 3 38 -5 0 -14 -7 -21 -15z"></path>
<path d="M5326 161 c-4 -7 -5 -15 -2 -18 9 -9 19 4 14 18 -4 11 -6 11 -12 0z"></path>
<path d="M4176 133 c-6 -14 -5 -15 5 -6 7 7 10 15 7 18 -3 3 -9 -2 -12 -12z"></path>
<path d="M4122 108 c-14 -14 -16 -48 -3 -48 13 0 25 20 26 42 2 21 -6 23 -23
6z"></path>
<path d="M4266 95 c-9 -14 -23 -25 -30 -25 -13 0 -26 -20 -26 -40 0 -14 59 20
75 43 17 24 20 47 6 47 -5 0 -16 -11 -25 -25z"></path>
<path d="M4171 86 c-14 -17 -1 -28 19 -16 11 7 12 12 4 20 -8 8 -14 7 -23 -4z"></path>
<path d="M4401 63 c-12 -14 -19 -28 -16 -31 6 -7 34 17 46 40 15 28 -6 22 -30
-9z"></path>
</g>
</svg>