 <svg version="1.0" xmlns="http://www.w3.org/2000/svg" width="700.000000pt" height="394.000000pt" viewBox="0 0 700.000000 394.000000" preserveAspectRatio="xMidYMid meet">
<metadata>
Created by potrace 1.12, written by Peter Selinger 2001-2015
</metadata>
<g transform="translate(0.000000,394.000000) scale(0.100000,-0.100000)" fill="#000000" stroke="none">
<path d="M480 3381 c-22 -6 -25 -12 -22 -52 2 -39 1 -42 -11 -26 -8 9 -27 17
-42 17 -24 0 -26 -3 -20 -22 20 -68 25 -102 25 -191 0 -59 -5 -105 -12 -117
-10 -15 -9 -24 2 -45 11 -21 12 -30 2 -43 -23 -32 -24 -43 -8 -61 20 -22 20
-40 -1 -63 -13 -14 -14 -21 -5 -30 15 -15 15 -53 0 -78 -10 -15 -9 -22 5 -38
9 -10 17 -24 17 -30 0 -19 35 -14 55 8 25 27 45 9 45 -40 0 -44 -17 -61 -68
-69 l-37 -6 -2 -95 c-1 -52 3 -105 9 -117 8 -16 8 -26 1 -35 -6 -7 -11 -53
-12 -102 0 -49 -3 -109 -7 -134 -6 -42 -6 -45 15 -39 25 6 27 0 4 -25 -11 -12
-17 -40 -19 -81 -2 -34 -8 -111 -15 -170 -10 -98 -8 -130 6 -115 8 8 27 130
26 171 -1 42 7 46 33 16 10 -12 25 -19 36 -16 16 4 17 2 8 -18 -6 -13 -19 -27
-30 -32 -16 -7 -21 -21 -24 -68 -10 -144 -9 -180 4 -181 22 -3 23 -4 12 -25
-16 -28 -52 -21 -60 11 -3 14 -12 25 -20 25 -11 0 -17 -19 -22 -70 -4 -38 -12
-101 -18 -140 -6 -38 -13 -88 -16 -110 -3 -22 -10 -50 -16 -62 -9 -19 -8 -27
8 -44 16 -18 27 -20 66 -16 26 3 50 2 53 -4 8 -12 82 -11 147 2 29 6 132 46
228 89 215 95 282 124 340 145 117 42 199 65 238 65 44 0 52 9 27 30 -9 7 -26
9 -45 5 -41 -9 -38 7 9 39 56 39 126 58 184 51 63 -9 61 10 -3 25 -39 9 -54 9
-65 0 -9 -8 -20 -8 -32 -2 -19 10 -78 -6 -168 -47 -27 -12 -75 -27 -106 -33
-78 -14 -88 -21 -64 -49 l20 -22 -45 7 c-50 8 -55 8 -123 0 -39 -5 -48 -10
-53 -30 -3 -13 -11 -24 -16 -24 -6 0 -8 10 -4 23 4 12 9 34 13 50 5 26 49 67
72 67 15 0 14 -23 -1 -38 -13 -13 -1 -16 26 -6 18 7 22 39 6 49 -6 4 -10 16
-8 28 3 19 -1 22 -27 19 -16 -2 -35 -11 -42 -20 -21 -27 -11 68 10 98 21 30
21 44 2 60 -11 9 -14 22 -9 46 4 19 2 40 -4 47 -8 9 -5 20 12 41 20 26 29 29
87 30 35 1 69 6 74 12 14 16 333 96 370 92 17 -1 35 1 41 5 25 15 124 20 139
7 13 -11 18 -10 28 2 8 10 21 12 42 7 24 -5 25 -7 8 -8 -21 -1 -34 -20 -15
-22 72 -5 109 -12 117 -20 7 -7 0 -10 -20 -9 -71 5 -78 -3 -50 -56 8 -16 15
-37 15 -46 0 -32 12 -48 36 -48 13 0 24 -4 24 -10 0 -5 -9 -10 -20 -10 -31 0
-24 -18 10 -25 17 -4 30 -11 30 -16 0 -8 -58 -14 -102 -11 -11 1 -18 -7 -20
-26 -4 -32 -21 -33 -28 0 -8 33 -38 35 -50 4 -12 -34 -34 -34 -28 -1 3 14 2
25 -2 25 -15 0 -31 -30 -28 -52 3 -22 7 -23 81 -22 42 1 77 -2 77 -7 0 -5 29
-7 65 -5 57 3 64 2 53 -11 -9 -11 -9 -16 2 -23 7 -4 19 -6 27 -3 7 3 20 0 28
-7 8 -6 18 -9 23 -6 11 6 76 -14 69 -21 -3 -2 -41 1 -85 7 -43 6 -122 12 -175
15 -52 2 -107 7 -121 11 -15 4 -26 2 -26 -4 0 -6 26 -16 58 -22 31 -6 100 -20
152 -30 52 -10 128 -22 169 -25 40 -4 79 -9 87 -12 8 -3 14 1 14 11 0 23 21
20 27 -4 5 -19 19 -20 71 -4 21 6 13 25 -10 22 -21 -3 -23 1 -23 47 l0 50 65
11 c36 6 75 16 87 22 25 14 106 5 97 -9 -3 -5 -1 -9 4 -9 6 0 12 7 16 15 4 10
18 15 43 15 21 -1 53 1 71 3 19 2 65 1 104 -3 54 -5 71 -3 77 8 6 11 13 12 30
3 24 -13 315 -10 364 4 18 5 43 3 66 -5 42 -13 81 -2 81 24 0 8 7 16 15 20 8
3 15 1 15 -4 0 -6 7 -10 15 -10 9 0 18 -7 21 -15 4 -10 20 -15 44 -15 34 0 39
4 50 33 7 17 12 38 11 45 -2 15 11 16 26 1 8 -8 13 -8 18 1 8 13 45 -15 45
-34 0 -40 99 -63 119 -28 10 16 12 16 41 0 44 -25 97 -24 105 2 7 22 45 28 45
6 0 -15 30 -26 72 -26 29 0 48 23 48 59 0 12 4 21 9 21 22 0 41 -13 41 -30 0
-43 82 -68 111 -34 8 10 15 56 19 122 l5 107 95 0 c88 0 95 -1 95 -20 0 -18
-7 -20 -68 -20 -49 0 -70 -4 -77 -15 -17 -26 -11 -30 50 -30 33 0 60 -4 60 -8
0 -19 -27 -32 -67 -32 -41 0 -50 -8 -40 -37 1 -5 34 -8 72 -8 63 0 70 -2 70
-20 0 -18 -8 -20 -95 -25 -71 -4 -95 -8 -95 -19 0 -16 189 -24 218 -9 12 6 23
6 30 0 21 -18 65 -2 76 27 8 22 10 23 10 5 1 -28 11 -36 28 -23 9 8 17 8 26 1
6 -6 79 -13 160 -16 137 -5 149 -4 168 15 26 26 25 69 -1 76 -11 3 -21 10 -21
17 -1 6 -2 18 -3 26 0 8 7 23 16 33 22 22 23 65 2 95 -14 20 -23 22 -110 22
-69 0 -101 -4 -119 -16 -21 -14 -26 -14 -55 1 -25 13 -50 15 -113 11 -45 -3
-89 -5 -97 -6 -8 0 -57 3 -107 6 -75 5 -97 3 -117 -9 -21 -14 -26 -14 -45 -1
-26 19 -54 11 -80 -22 -21 -27 -30 -26 -68 9 -17 15 -39 21 -93 23 -64 2 -71
0 -89 -22 l-19 -25 -26 26 c-29 29 -57 32 -97 8 -27 -16 -31 -16 -58 0 -37 22
-128 23 -159 2 -19 -14 -25 -14 -53 1 -20 10 -43 14 -63 10 -17 -4 -40 -6 -51
-5 -25 3 -545 1 -565 -2 -33 -4 -124 11 -131 22 -4 7 -17 9 -31 6 -13 -3 -28
-3 -34 1 -15 9 -44 78 -44 104 0 36 29 76 59 83 16 3 37 15 47 26 10 11 25 17
35 14 10 -4 35 5 58 20 22 14 45 25 51 25 6 0 13 7 16 15 4 11 11 12 24 5 12
-6 23 -5 36 5 14 10 22 11 32 2 11 -8 16 -7 24 7 14 26 48 35 203 57 196 28
417 39 555 27 204 -17 450 -48 472 -59 11 -6 45 -13 75 -15 31 -2 74 -9 97
-16 22 -6 50 -13 61 -15 41 -6 192 -55 260 -83 39 -16 84 -32 100 -36 17 -4
35 -11 41 -16 6 -4 36 -15 65 -24 73 -22 145 -59 153 -80 4 -10 13 -14 26 -11
20 5 74 -30 93 -60 4 -7 15 -13 23 -13 8 0 12 -5 9 -10 -4 -6 -1 -18 6 -26 15
-19 20 -134 6 -152 -13 -17 5 -58 30 -67 10 -3 29 -20 42 -36 34 -43 19 -68
-69 -113 -39 -20 -77 -36 -83 -36 -7 0 -46 -14 -87 -31 -41 -17 -86 -36 -99
-41 -18 -7 -21 -12 -12 -17 17 -11 58 -2 72 15 6 8 18 14 26 14 26 0 187 60
233 87 35 21 107 75 158 118 2 2 -2 13 -8 25 -10 19 -18 22 -53 17 -23 -3 -50
-8 -59 -12 -27 -11 -23 19 5 38 27 18 17 33 -11 18 -26 -14 -59 -14 -67 -1 -7
11 58 40 91 40 13 0 24 2 24 3 0 5 -28 66 -41 89 -5 10 -9 26 -9 37 0 10 -7
24 -15 31 -22 18 -19 29 10 36 40 10 52 55 59 219 5 141 6 148 31 171 14 12
25 29 25 36 0 15 56 62 94 80 14 6 26 15 26 20 0 11 -43 10 -73 -1 -17 -7 -37
-5 -63 4 -36 12 -39 16 -38 49 0 20 1 80 2 134 l2 98 45 2 c24 1 66 -2 92 -7
29 -6 54 -6 66 0 35 19 4 29 -96 30 -84 1 -97 3 -74 12 35 14 35 25 0 29 -25
3 -29 8 -35 53 -4 32 -14 56 -28 67 -11 9 -20 19 -20 22 0 13 206 54 385 76
50 6 113 16 142 21 29 6 101 14 160 19 59 5 160 16 223 23 63 8 121 12 128 9
22 -8 12 -31 -15 -34 -24 -3 -28 -7 -25 -32 2 -22 -4 -36 -27 -57 -19 -17 -31
-38 -31 -53 0 -16 -6 -26 -15 -26 -8 0 -15 4 -15 10 0 11 -48 38 -97 56 -37
13 -53 3 -53 -33 0 -18 6 -23 24 -23 14 0 28 5 31 10 12 19 25 10 20 -13 -4
-15 0 -29 14 -41 22 -20 46 -12 36 13 -5 14 -4 14 9 1 17 -18 10 -70 -9 -70
-14 0 -29 -45 -20 -60 4 -6 -3 -10 -14 -10 -25 0 -26 -6 -5 -27 25 -26 1 -37
-37 -18 -31 17 -32 18 -14 31 24 18 18 23 -23 17 -43 -7 -51 -28 -22 -58 20
-21 21 -25 7 -31 -8 -3 -25 0 -37 6 -15 8 -25 9 -32 2 -20 -20 31 -35 93 -28
45 5 59 4 59 -6 -1 -21 -26 -48 -44 -48 -9 0 -19 -7 -22 -15 -9 -22 -24 -18
-24 5 0 11 -3 20 -8 20 -4 0 -13 -9 -20 -20 -16 -26 -32 -25 -29 2 2 18 -3 22
-33 22 -31 1 -35 -2 -38 -26 -4 -31 12 -38 23 -10 7 15 9 14 14 -7 6 -22 12
-24 71 -25 90 -1 98 -10 54 -51 -29 -27 -35 -40 -31 -61 4 -21 0 -27 -22 -35
-43 -17 -78 -58 -101 -118 -12 -31 -26 -66 -31 -78 -9 -24 -33 -31 -44 -13 -3
6 -17 10 -31 10 -37 0 -40 26 -8 72 39 56 121 138 139 138 8 0 22 16 31 35 9
20 26 40 36 46 14 8 17 14 10 21 -14 14 -60 -15 -71 -45 -6 -14 -27 -28 -61
-40 -37 -13 -70 -36 -116 -83 -63 -63 -76 -84 -51 -84 14 0 41 -39 33 -48 -3
-3 -14 2 -24 11 -10 10 -24 17 -31 17 -7 0 -11 9 -9 19 2 12 -13 39 -36 66
-35 42 -37 49 -27 72 7 14 10 28 7 30 -8 8 -26 -8 -26 -23 0 -8 -12 -19 -26
-24 -21 -8 -29 -7 -39 7 -11 15 -15 16 -30 3 -16 -14 -17 -13 -11 8 5 14 3 22
-4 22 -16 0 -65 -27 -79 -43 -16 -20 2 -32 26 -18 13 7 23 5 35 -6 16 -14 66
-19 112 -11 10 2 21 -3 23 -9 3 -7 -2 -13 -11 -13 -27 0 -18 -13 34 -50 27
-19 50 -39 50 -45 1 -5 14 -25 29 -43 28 -33 29 -33 65 -18 23 10 38 11 42 5
4 -6 21 -8 40 -5 31 6 35 4 51 -31 9 -21 18 -49 19 -63 1 -14 7 -67 13 -118 6
-52 9 -97 6 -102 -3 -4 -6 -40 -7 -79 -1 -55 -6 -75 -20 -88 -29 -26 -57 -76
-73 -129 -27 -88 -13 -99 34 -30 17 25 37 51 43 58 18 19 51 68 68 102 15 29
37 49 99 89 20 13 47 48 68 87 38 69 61 100 75 100 17 0 7 -22 -12 -27 -11 -3
-20 -8 -21 -12 0 -3 -2 -17 -5 -30 -4 -22 -3 -22 31 8 20 17 44 31 53 31 10 0
23 5 30 12 8 8 12 8 12 1 0 -6 -7 -16 -15 -23 -8 -7 -15 -18 -15 -25 0 -7 -19
-28 -42 -47 -36 -28 -73 -65 -183 -183 -12 -12 -36 -45 -54 -74 -18 -28 -44
-60 -57 -70 -48 -37 -38 -47 196 -196 165 -105 293 -196 306 -216 12 -20 -11
-7 -156 84 -74 48 -163 103 -197 123 -33 20 -93 61 -133 90 -39 30 -73 54 -76
54 -13 0 -85 -53 -93 -69 -10 -17 -5 -22 37 -42 26 -12 49 -25 52 -29 3 -3 20
-12 38 -19 17 -8 32 -17 32 -22 0 -5 7 -9 14 -9 8 0 36 -11 62 -25 26 -14 52
-25 57 -25 18 0 46 -31 41 -45 -7 -16 25 -28 41 -15 9 7 16 6 25 -5 7 -8 22
-15 35 -15 12 0 25 -3 28 -6 10 -10 195 -74 247 -86 25 -5 94 -11 154 -11
l108 -2 -7 122 c-3 67 -13 146 -21 175 -17 67 -17 78 0 78 16 0 60 -73 97
-162 46 -110 47 -52 2 77 -29 81 -62 281 -63 374 0 52 -3 62 -15 57 -9 -3 -33
2 -55 10 l-40 16 0 62 c-1 34 -7 72 -15 86 -8 14 -14 30 -15 36 0 18 27 25 55
14 27 -10 33 -2 13 18 -19 19 22 15 44 -5 21 -19 27 -16 30 17 2 19 -3 26 -31
34 -24 7 -37 19 -45 39 -10 27 -14 29 -52 23 -41 -5 -41 -5 -57 36 -18 43 -15
58 9 58 24 0 11 24 -16 30 -13 3 -26 14 -30 25 -7 19 -7 19 -19 -3 -6 -12 -16
-22 -21 -22 -6 0 -28 -19 -50 -41 -34 -36 -46 -61 -41 -91 0 -4 -8 -12 -20
-18 -16 -9 -20 -19 -17 -52 3 -43 -16 -64 -33 -37 -14 23 -10 95 6 109 8 7 15
16 15 21 0 18 -25 8 -57 -23 -29 -28 -33 -29 -39 -13 -4 10 -2 41 5 69 7 28
14 69 14 91 2 29 11 52 35 83 38 47 34 78 -3 37 -24 -25 -45 -33 -45 -16 0 5
7 14 15 21 8 7 15 18 15 26 0 7 11 25 23 40 27 32 50 25 41 -12 -3 -13 -2 -24
4 -24 14 0 33 26 25 33 -3 4 1 15 11 26 16 17 16 20 1 35 -9 9 -20 16 -24 16
-18 0 -72 -33 -86 -53 -15 -21 -15 -21 -31 -2 -15 20 -15 19 -10 -3 4 -19 -2
-26 -29 -38 -19 -8 -37 -14 -40 -14 -10 0 -5 27 12 61 19 38 24 148 9 214 -8
34 -7 38 5 29 18 -14 89 -6 89 10 0 7 -5 17 -12 24 -9 9 -7 18 9 41 20 26 20
30 6 50 -8 12 -12 25 -9 28 3 3 0 13 -6 21 -18 21 16 42 70 42 30 0 42 4 39
13 -2 6 -12 12 -23 13 -10 1 -31 2 -46 3 -21 1 -28 6 -28 21 0 11 6 20 14 20
26 0 28 20 3 29 -25 10 -41 34 -30 45 11 11 23 6 23 -8 0 -8 15 -20 33 -27 17
-7 36 -15 41 -17 5 -3 6 1 2 7 -4 7 0 23 9 38 12 18 14 28 6 36 -7 7 -13 3
-20 -14 -7 -16 -10 -19 -10 -7 -1 9 -9 21 -18 27 -18 10 -17 11 54 36 7 2 61
9 119 15 58 6 126 18 151 26 25 9 47 13 50 11 2 -3 -1 -23 -8 -46 -12 -41 -13
-41 -61 -41 -26 0 -48 -4 -48 -10 0 -5 12 -10 28 -10 33 0 49 -10 52 -30 5
-30 0 -40 -19 -40 -11 0 -23 -4 -26 -10 -3 -5 -17 -10 -30 -10 -14 0 -29 -8
-35 -19 -9 -18 -7 -19 27 -14 21 3 45 12 55 20 23 21 28 5 14 -51 -9 -34 -23
-57 -47 -77 -19 -16 -38 -29 -44 -29 -5 0 -25 -15 -45 -34 -40 -38 -85 -56
-141 -56 -21 0 -41 -5 -44 -11 -4 -6 -13 -8 -20 -5 -14 5 -30 -22 -20 -32 3
-4 19 -1 34 5 16 6 35 7 41 3 15 -9 158 53 180 78 31 36 69 64 78 58 6 -3 4
-28 -4 -63 -10 -44 -11 -71 -3 -118 6 -33 12 -78 14 -100 2 -22 3 -44 4 -49 1
-5 7 -3 15 3 10 8 16 53 21 158 4 81 11 172 16 203 5 30 13 86 19 124 5 38 23
109 40 157 16 49 30 97 30 106 0 10 7 27 15 37 14 18 11 61 -5 79 -9 11 -286
11 -340 0 -63 -13 -87 -28 -115 -73 -24 -38 -47 -50 -60 -31 -3 5 -48 10 -100
10 -52 0 -100 3 -105 6 -6 4 -26 -3 -45 -15 -19 -12 -35 -17 -35 -12 0 17 -42
21 -69 8 -14 -8 -53 -16 -86 -20 -95 -11 -288 -57 -315 -76 -58 -40 -150 -52
-186 -25 -22 17 -54 20 -54 5 0 -5 9 -10 20 -10 12 0 20 -7 20 -16 0 -12 -6
-15 -22 -10 -67 21 -208 -6 -208 -39 0 -18 -11 -19 -45 -3 -19 8 -31 9 -43 1
-10 -5 -31 -8 -48 -6 -18 3 -35 0 -38 -6 -4 -6 -17 -11 -28 -11 -12 0 -32 -10
-46 -22 l-24 -23 -551 -1 c-304 -1 -869 3 -1257 8 -852 13 -784 11 -801 23
-46 34 -96 52 -132 48 -20 -3 -40 -9 -43 -14 -8 -14 -40 -10 -55 7 -8 9 -25
14 -45 12 -21 -1 -40 4 -52 16 -17 15 -33 17 -94 13 -67 -4 -74 -7 -90 -33
-14 -22 -18 -25 -23 -12 -4 9 -5 24 -3 33 2 13 -5 18 -30 20 -39 3 -45 -5 -32
-39 15 -40 -3 -30 -24 13 -13 28 -26 40 -45 43 -41 6 -63 -2 -57 -19 3 -8 6
-28 6 -44 0 -29 1 -30 35 -23 22 4 41 2 50 -6 8 -6 19 -9 26 -5 6 4 15 2 19
-5 6 -9 13 -9 28 -1 31 17 58 13 73 -9 9 -13 36 -24 79 -33 49 -10 64 -16 60
-27 -2 -8 -7 -58 -10 -110 l-5 -95 -40 -8 c-22 -5 -67 -18 -101 -28 -33 -10
-67 -19 -76 -19 -9 0 -50 -12 -92 -26 -42 -14 -93 -24 -114 -23 -20 1 -90 2
-155 1 -111 -2 -119 -4 -142 -27 -16 -15 -25 -36 -25 -54 0 -30 -12 -44 -40
-46 -8 -1 -58 -5 -110 -9 l-95 -7 -28 30 c-32 35 -51 40 -42 12 10 -32 -21
-46 -104 -47 l-76 -2 -3 -36 c-2 -23 -8 -36 -18 -36 -21 0 -19 86 2 98 13 7
14 13 6 29 -9 17 -7 24 12 42 12 11 30 21 39 21 21 0 21 8 1 31 -9 10 -14 25
-11 34 8 19 37 20 37 0 0 -22 7 -19 41 20 42 47 59 46 59 -4 0 -22 -5 -43 -11
-46 -14 -9 27 -30 74 -38 33 -5 44 -1 87 31 42 31 50 42 50 70 0 45 -1 47 -34
43 -16 -1 -32 3 -36 9 -6 10 -25 10 -90 -1 -70 -11 -84 -17 -101 -41 -24 -33
-39 -36 -39 -8 0 23 -3 24 -30 8 -18 -11 -23 -9 -44 17 -20 24 -22 31 -10 38
14 8 20 48 8 59 -3 3 -21 1 -40 -5 -26 -8 -37 -7 -47 2 -10 10 0 24 46 66 32
29 63 52 70 51 7 0 12 4 12 9 0 6 -7 9 -15 8 -35 -4 -66 38 -44 60 9 9 18 82
17 140 0 47 1 48 26 42 14 -3 59 -9 99 -14 41 -5 81 -16 90 -25 12 -10 34 -14
72 -12 30 2 65 -1 77 -7 16 -7 31 -5 57 7 43 20 48 46 10 46 -23 0 -25 2 -14
15 14 17 63 12 88 -7 8 -7 12 -7 12 1 0 6 -16 21 -35 32 -19 12 -35 27 -35 33
0 36 -91 64 -123 38 -18 -15 -41 -7 -89 31 -34 27 -40 29 -68 17 -20 -8 -34
-9 -43 -3 -6 6 -25 13 -42 17 -63 14 -86 28 -83 50 3 20 9 21 108 20 112 0
150 -11 150 -44 0 -11 5 -20 10 -20 6 0 10 9 10 20 0 24 13 26 30 5 7 -8 20
-15 30 -15 10 0 23 -7 30 -15 7 -8 21 -15 33 -15 11 0 51 -29 88 -65 38 -36
87 -77 109 -91 l39 -26 108 17 c124 20 330 24 708 12 138 -4 595 -9 1018 -12
422 -2 771 -6 775 -8 4 -3 196 -8 427 -12 231 -3 427 -8 435 -10 13 -4 185
-16 448 -31 97 -6 130 9 45 19 -162 20 -631 45 -973 52 -173 4 -418 9 -545 12
-126 2 -504 6 -840 7 -335 1 -731 8 -880 16 -281 14 -535 6 -668 -21 l-57 -12
-78 71 c-110 99 -229 165 -339 188 -70 15 -199 17 -243 5z m6080 -137 c0 -1
-5 -15 -12 -29 -10 -22 -17 -26 -39 -21 -15 3 -34 -1 -45 -9 -29 -22 -41 -18
-46 15 -3 20 0 34 10 39 13 8 132 13 132 5z m124 -3 c5 -7 -11 -46 -32 -80 -1
-3 -7 0 -13 6 -8 8 -7 21 2 47 12 34 31 46 43 27z m-814 -132 c0 -16 -4 -19
-19 -14 -13 4 -23 0 -29 -11 -7 -13 -26 -19 -68 -21 -33 -2 -90 -10 -129 -19
-38 -8 -77 -15 -85 -14 -8 1 -30 2 -47 3 -36 2 -48 20 -17 25 76 10 312 55
324 62 8 5 27 9 43 9 21 1 27 -4 27 -20z m-4960 -13 c0 -2 -7 -7 -16 -10 -8
-3 -12 -2 -9 4 6 10 25 14 25 6z m570 -110 c0 -11 -19 -15 -25 -6 -3 5 1 10 9
10 9 0 16 -2 16 -4z m180 -52 c0 -16 -16 -19 -25 -4 -8 13 4 32 16 25 5 -4 9
-13 9 -21z m810 -59 c124 -3 765 -7 1425 -11 804 -4 1209 -9 1228 -16 15 -6
32 -18 37 -28 11 -20 12 -476 2 -726 -10 -234 -17 -241 -169 -165 -54 27 -127
61 -163 76 -36 14 -79 33 -97 41 -17 8 -34 14 -38 14 -4 0 -21 6 -38 14 -39
17 -132 48 -247 83 -347 103 -634 145 -980 144 -190 0 -280 -6 -465 -27 -108
-12 -322 -59 -535 -118 -100 -27 -329 -111 -465 -171 -16 -8 -37 -16 -45 -20
-8 -3 -26 -12 -40 -20 -35 -20 -74 -18 -95 5 -18 20 -18 122 1 725 7 231 -11
217 257 210 111 -3 303 -7 427 -10z m-740 -276 c0 -8 -24 -20 -126 -64 -33
-14 -69 -5 -42 11 8 5 17 15 19 23 9 25 149 54 149 30z m4356 -96 c3 -47 -5
-86 -33 -150 -11 -27 -11 -38 2 -75 8 -24 15 -62 15 -85 0 -47 1 -49 30 -31
10 7 22 9 26 5 4 -4 7 -47 6 -95 -2 -72 -5 -90 -21 -102 -22 -18 -91 -118 -91
-132 0 -5 -5 -8 -12 -6 -9 3 -12 29 -10 89 2 46 -2 107 -8 134 -20 93 -27 120
-39 148 -10 25 -13 26 -33 15 -13 -7 -38 -25 -56 -41 -42 -35 -56 -27 -37 21
17 40 36 59 76 73 20 8 28 19 35 57 5 26 14 47 19 47 6 0 13 -38 18 -85 8 -95
12 -110 27 -110 18 0 43 71 31 83 -8 8 -11 6 -11 -6 0 -9 -4 -17 -10 -17 -13
0 -13 17 1 26 6 3 8 16 4 28 -4 11 -8 44 -10 73 -2 44 1 55 21 74 17 16 24 33
24 60 0 84 30 86 36 2z m-4338 -5 l-3 -63 -137 -3 c-92 -2 -138 1 -138 8 0 6
8 13 18 16 9 3 31 11 47 19 17 7 48 21 70 30 22 9 58 25 80 35 64 30 66 28 63
-42z m-460 -47 c29 -19 52 -42 52 -51 0 -10 -14 -43 -31 -75 l-31 -59 16 -58
c25 -91 18 -226 -13 -236 -11 -4 -13 4 -7 37 7 47 3 50 -30 19 -57 -55 -61
-57 -76 -41 -8 8 -33 14 -56 15 -39 0 -40 2 -41 32 0 17 0 40 0 51 -2 108 6
203 19 223 14 21 13 24 -2 36 -27 20 -21 36 12 36 19 0 30 5 30 14 0 17 -27
29 -35 15 -10 -16 -23 0 -18 21 4 15 14 20 39 20 18 0 36 -5 39 -10 5 -8 11
-7 21 1 11 9 17 9 29 -1 20 -17 19 -40 -2 -38 -46 3 -53 -1 -47 -31 4 -20 1
-30 -10 -34 -14 -6 -14 -10 0 -42 15 -37 25 -233 12 -241 -10 -7 2 -34 16 -34
6 0 31 18 56 39 45 39 45 39 31 72 -7 19 -16 50 -18 69 -3 19 -11 42 -18 50
-7 8 -15 34 -19 58 -5 33 -3 44 9 49 9 3 22 -2 30 -13 13 -18 14 -18 39 5 14
14 26 33 26 42 0 23 -32 53 -81 77 -21 11 -36 22 -33 25 8 8 32 -3 92 -42z
m89 -103 c-3 -8 -6 -5 -6 6 -1 11 2 17 5 13 3 -3 4 -12 1 -19z m4743 -108
c-25 -35 -30 -37 -30 -10 0 11 7 20 15 20 8 0 15 5 15 10 0 6 5 10 11 10 6 0
1 -13 -11 -30z m-485 -60 c-10 -11 -20 -18 -23 -15 -7 6 18 35 31 35 5 0 2 -9
-8 -20z m306 -16 c7 -21 6 -31 -7 -45 -23 -26 -33 -24 -45 7 -7 21 -6 31 7 45
23 26 33 24 45 -7z m-5426 -4 c11 -12 15 -24 9 -28 -17 -14 -84 -33 -94 -27
-9 5 -5 47 7 68 9 15 61 6 78 -13z m5345 -40 c15 -28 4 -41 -28 -34 -43 11
-46 16 -21 35 31 24 36 23 49 -1z m102 -65 c4 -22 9 -81 12 -131 4 -73 2 -100
-13 -140 -11 -27 -22 -48 -25 -46 -8 3 -8 8 -1 67 7 56 -10 217 -26 247 -7 14
-7 24 2 34 21 25 43 12 51 -31z m-5522 -34 c-10 -20 -30 -29 -30 -13 0 4 8 18
17 32 19 27 30 12 13 -19z m5447 -26 c9 -39 13 -104 11 -187 -3 -110 -6 -130
-24 -155 -12 -15 -29 -30 -38 -31 -16 -3 -16 -1 -5 20 17 30 17 266 0 328 -27
97 -27 92 9 88 32 -3 34 -6 47 -63z m-4412 25 c13 -20 -6 -50 -31 -50 -26 0
-40 20 -30 45 6 17 51 20 61 5z m1023 -225 c-3 -18 -12 -20 -76 -23 -63 -2
-73 -5 -70 -20 2 -13 16 -18 56 -20 44 -3 53 -6 50 -20 -2 -13 -16 -18 -56
-20 -48 -3 -53 -5 -50 -25 3 -20 8 -22 78 -22 68 0 75 -2 75 -20 0 -18 -8 -20
-102 -23 l-103 -3 0 104 c0 57 3 107 6 110 4 4 49 6 101 4 87 -2 94 -3 91 -22z
m86 13 c12 -45 40 -124 47 -132 8 -9 43 60 58 114 5 17 15 26 34 28 36 4 35
-6 -13 -102 -21 -45 -42 -89 -45 -99 -3 -13 -13 -17 -31 -15 -21 2 -29 12 -41
46 -8 24 -25 64 -39 89 -32 60 -31 83 1 83 14 0 27 -6 29 -12z m401 -14 c0
-17 -9 -20 -75 -24 -58 -4 -75 -8 -75 -20 0 -11 13 -15 52 -15 58 0 72 -8 53
-30 -8 -9 -29 -15 -56 -15 -41 0 -44 -2 -44 -26 0 -25 1 -25 73 -23 65 2 72 1
72 -17 0 -17 -8 -19 -95 -19 l-95 0 -5 100 c-3 55 -5 102 -4 105 1 3 46 5 101
4 90 0 98 -2 98 -20z m229 5 c34 -27 33 -63 -1 -95 l-26 -24 33 -35 c27 -28
30 -35 17 -41 -26 -10 -51 0 -63 24 -20 41 -47 63 -73 60 -23 -3 -26 -8 -26
-43 0 -35 -3 -40 -25 -43 l-25 -3 2 108 c1 59 2 108 2 108 1 1 37 1 80 2 66 2
84 -1 105 -18z m130 -19 c16 -49 37 -49 58 0 l18 40 63 0 63 0 13 -60 c20 -90
32 -89 62 5 14 44 19 50 44 50 25 0 29 -5 42 -55 16 -63 29 -82 39 -54 3 10
10 28 14 39 5 11 10 31 12 45 3 25 26 37 53 26 12 -4 7 -22 -21 -88 -20 -46
-40 -93 -45 -105 -12 -31 -37 -29 -50 5 -6 15 -15 35 -20 44 -5 10 -9 29 -9
43 0 47 -27 27 -46 -32 -9 -32 -22 -64 -27 -70 -14 -19 -37 -16 -43 5 -24 72
-70 172 -80 172 -7 0 -30 -21 -51 -46 -31 -38 -38 -55 -38 -93 -1 -42 -3 -46
-26 -46 -22 0 -24 3 -21 43 3 39 -1 50 -42 101 -25 32 -42 61 -38 65 3 4 19 6
35 4 24 -2 32 -10 41 -38z m574 -8 l3 -42 60 0 61 0 -4 43 c-3 39 -1 42 21 42
l25 0 -2 -105 c-1 -102 -2 -105 -24 -105 -21 0 -23 4 -20 43 l4 42 -61 0 -60
0 -3 -42 c-2 -35 -7 -43 -23 -43 -18 0 -20 8 -23 94 -3 107 1 124 25 119 13
-2 19 -15 21 -46z m660 21 c21 -29 15 -69 -15 -91 l-28 -21 33 -33 c39 -42 40
-48 3 -48 -24 0 -34 8 -53 43 -19 35 -28 42 -53 42 -28 0 -30 -3 -33 -43 -3
-38 -6 -43 -24 -40 -20 3 -22 10 -24 103 -1 55 0 104 3 109 3 5 45 5 92 2 62
-5 89 -12 99 -23z m257 2 c0 -18 -7 -20 -68 -21 -38 -1 -73 -6 -79 -12 -19
-19 3 -32 58 -32 30 0 54 -4 54 -9 0 -17 -26 -30 -70 -33 -37 -2 -45 -6 -45
-23 0 -18 7 -20 73 -21 74 -2 106 -14 86 -34 -7 -7 -50 -10 -108 -8 l-97 3 0
100 c0 55 0 102 0 105 1 3 45 6 99 5 90 0 97 -1 97 -20z m1475 -44 c13 -26 13
-31 -4 -31 -13 0 -26 20 -26 41 0 16 19 10 30 -10z m-5817 -73 c2 -7 1 -22 -4
-33 -4 -11 -8 -43 -8 -72 -1 -58 -17 -111 -30 -97 -10 10 19 214 30 214 4 0 9
-6 12 -12z m6087 -48 c8 -5 12 -12 8 -15 -9 -9 -48 4 -48 16 0 12 21 11 40 -1z
m-5600 -339 c0 -5 -7 -11 -15 -15 -15 -5 -20 5 -8 17 9 10 23 9 23 -2z m-99
-53 c10 -18 8 -24 -12 -39 -26 -20 -59 -25 -59 -9 0 6 7 13 15 16 8 4 15 14
15 23 0 36 24 41 41 9z"></path>
<path d="M2757 2824 c-4 -4 -4 -23 -1 -43 5 -30 0 -45 -28 -88 -18 -28 -36
-52 -40 -52 -5 -1 -8 26 -8 59 0 49 3 61 20 70 11 6 20 20 20 31 0 18 -6 20
-52 17 -46 -3 -53 -6 -56 -25 -2 -14 4 -26 17 -32 19 -11 20 -19 16 -127 -3
-90 -8 -120 -20 -134 -9 -10 -15 -27 -13 -37 3 -15 11 -17 48 -14 55 4 60 7
60 33 0 11 -8 22 -20 25 -17 4 -20 14 -20 54 0 26 4 50 9 53 5 3 25 -14 45
-38 33 -40 35 -47 24 -71 -16 -36 -2 -46 47 -33 22 6 65 12 95 15 30 2 62 7
70 10 8 4 39 5 67 4 43 -2 54 1 60 15 4 12 0 22 -15 32 -19 13 -22 24 -22 88
0 73 12 96 26 52 4 -13 24 -60 46 -106 29 -61 44 -82 56 -80 15 3 17 21 20
133 2 115 5 132 23 151 29 31 16 44 -42 44 -58 0 -76 -22 -41 -49 17 -13 21
-28 24 -93 1 -42 -1 -80 -4 -84 -4 -3 -16 16 -28 43 -53 124 -86 178 -109 181
-12 2 -28 -2 -36 -8 -9 -7 -15 -8 -20 0 -3 5 -26 10 -51 10 -53 0 -71 -24 -36
-48 20 -13 22 -23 22 -122 0 -91 -3 -109 -18 -124 -33 -29 -78 -11 -123 49
-21 28 -39 56 -39 62 0 5 14 29 30 51 17 23 30 46 30 52 0 5 9 14 21 20 32 17
22 54 -16 58 -17 2 -34 0 -38 -4z m273 -166 c0 -92 -1 -98 -24 -113 -19 -13
-29 -14 -45 -5 -19 10 -21 20 -21 119 0 101 1 110 23 124 20 14 24 13 45 -6
20 -19 22 -30 22 -119z"></path>
<path d="M3322 2810 c-38 -24 -72 -89 -72 -140 0 -51 33 -116 69 -134 34 -18
88 -21 125 -6 23 8 26 15 26 59 0 39 4 51 22 63 14 10 19 20 15 32 -10 25
-110 19 -115 -6 -2 -12 6 -21 23 -28 25 -10 27 -20 10 -77 -5 -14 -62 -11 -92
6 -32 16 -43 42 -43 96 0 40 5 52 34 81 41 41 64 43 104 9 39 -32 44 -32 40 6
-3 28 -8 33 -48 45 -58 18 -59 18 -98 -6z"></path>
<path d="M3692 2810 c-48 -30 -72 -75 -72 -140 0 -118 99 -190 184 -135 30 20
37 52 9 39 -10 -4 -36 -9 -58 -12 -33 -3 -46 1 -68 22 -24 22 -27 32 -27 86 0
51 4 65 25 85 30 31 84 34 108 7 10 -10 17 -24 17 -30 0 -7 7 -12 16 -12 12 0
15 6 10 23 -3 12 -6 33 -6 46 0 17 -4 22 -16 17 -9 -3 -25 1 -37 9 -28 20 -46
19 -85 -5z"></path>
<path d="M3875 2821 c-2 -5 2 -14 10 -21 12 -10 15 -37 15 -118 0 -94 -2 -108
-21 -128 -32 -34 -19 -54 36 -54 55 0 71 23 36 49 -17 13 -22 25 -19 52 2 19
7 34 13 34 5 0 27 -31 50 -69 42 -71 84 -101 107 -78 8 8 -5 25 -39 59 -63 62
-71 83 -43 121 30 40 25 108 -10 133 -27 18 -126 33 -135 20z m107 -53 c27
-21 30 -53 9 -72 -30 -27 -55 -17 -59 23 -6 58 14 77 50 49z"></path>
<path d="M2435 2789 c-57 -51 -85 -197 -54 -290 16 -48 57 -89 89 -89 31 0
110 67 110 93 0 23 -6 21 -44 -8 -42 -32 -79 -32 -104 0 -28 35 -36 94 -22
159 14 70 42 106 81 106 28 0 69 -30 69 -50 0 -5 5 -10 10 -10 6 0 10 25 10
55 0 30 -4 55 -10 55 -5 0 -10 -4 -10 -10 0 -15 -26 -12 -40 5 -19 23 -46 18
-85 -16z"></path>
<path d="M4104 2805 c-4 -9 2 -25 14 -38 17 -19 21 -38 24 -134 3 -106 5 -114
29 -139 16 -15 41 -28 66 -31 35 -5 43 -2 61 22 20 25 22 40 22 145 0 102 2
119 19 134 18 17 20 16 40 -1 19 -16 21 -28 21 -140 0 -112 -2 -123 -20 -133
-20 -10 -27 -44 -12 -53 4 -3 28 -8 55 -12 41 -6 47 -5 47 11 0 9 -6 25 -14
33 -17 20 -33 231 -17 231 5 0 13 -15 16 -32 6 -35 16 -86 37 -185 12 -59 25
-79 32 -50 2 6 8 28 15 47 7 19 23 70 35 113 37 123 46 120 46 -16 0 -107 -2
-117 -21 -127 -30 -17 -23 -64 11 -68 14 -2 64 -15 112 -28 143 -41 178 -26
178 79 0 48 -22 107 -40 107 -17 0 -11 18 15 44 45 45 26 160 -32 189 -17 9
-68 16 -133 18 l-105 4 -40 -122 c-22 -67 -43 -123 -47 -123 -4 0 -10 10 -12
23 -2 12 -15 69 -28 127 l-24 105 -105 0 c-91 0 -104 -2 -107 -18 -2 -11 5
-20 19 -25 22 -9 23 -13 20 -118 -2 -91 -5 -112 -21 -128 -18 -18 -20 -18 -45
-2 -36 24 -45 54 -45 150 0 75 2 85 23 99 18 12 20 19 11 34 -15 25 -92 31
-100 8z m597 -75 c17 -10 19 -23 19 -156 0 -155 -5 -168 -49 -144 -20 10 -21
19 -21 148 0 94 4 142 12 150 15 15 15 15 39 2z m140 -26 c26 -24 32 -62 14
-91 -14 -20 -23 -24 -58 -21 l-42 3 -1 60 c-1 33 1 64 4 69 6 12 63 -1 83 -20z
m-12 -193 c36 -25 47 -66 27 -96 -17 -26 -39 -31 -78 -16 -21 8 -23 14 -21 72
1 35 2 65 3 67 0 7 46 -11 69 -27z"></path>
<path d="M1857 2803 c-15 -15 -7 -63 13 -73 19 -10 20 -21 20 -234 0 -210 -1
-224 -20 -241 -22 -20 -27 -63 -7 -71 7 -2 30 2 52 9 48 17 57 47 25 82 -18
20 -21 32 -18 111 l3 89 30 0 c25 0 31 -5 35 -30 3 -18 11 -30 20 -30 12 0 15
18 15 100 0 82 -3 100 -15 100 -10 0 -16 -12 -18 -32 -3 -35 -32 -59 -58 -49
-11 4 -14 28 -14 101 0 94 0 96 27 106 15 5 43 9 62 7 28 -2 39 -9 49 -30 18
-38 36 -36 28 3 -3 17 -6 44 -6 60 l0 29 -108 0 c-60 0 -112 -3 -115 -7z"></path>
<path d="M2117 2804 c-13 -13 -7 -63 8 -72 13 -7 16 -37 19 -168 3 -171 10
-200 51 -210 39 -10 69 2 95 38 23 31 25 44 30 184 4 129 8 155 23 172 29 32
18 56 -26 60 -21 2 -45 -2 -53 -9 -20 -17 -17 -47 7 -59 19 -11 20 -18 17
-145 -3 -125 -4 -135 -27 -159 -31 -33 -59 -33 -71 0 -6 14 -10 86 -10 159 0
125 1 135 21 145 14 8 19 19 17 38 -3 24 -7 27 -48 30 -25 2 -49 0 -53 -4z"></path>
<path d="M4967 2762 c-18 -18 -29 -44 -33 -74 -11 -80 1 -109 77 -194 73 -82
99 -128 99 -173 0 -35 -26 -71 -52 -71 -37 0 -91 33 -102 62 -17 45 -27 32
-24 -29 2 -44 7 -58 18 -58 8 0 34 -10 57 -23 23 -12 51 -22 61 -22 34 0 63
43 69 104 9 89 -9 133 -93 227 -80 90 -95 127 -72 176 23 49 106 38 123 -17
13 -40 25 -18 25 45 0 37 -4 65 -10 65 -5 0 -10 -6 -10 -14 0 -27 -22 -28 -49
-2 -35 33 -51 33 -84 -2z"></path>
<path d="M3367 2393 c-13 -12 -7 -44 8 -49 8 -4 22 -1 31 6 11 10 18 10 26 2
17 -17 38 -15 61 5 18 17 19 17 28 0 13 -23 46 -22 59 2 5 11 7 22 3 24 -20
11 -60 15 -72 8 -9 -6 -21 -5 -32 2 -14 9 -22 7 -37 -6 -17 -16 -21 -16 -32
-2 -13 16 -32 20 -43 8z"></path>
<path d="M3054 2375 c-9 -24 3 -45 27 -45 15 0 19 4 15 16 -3 9 -6 22 -6 30 0
19 -29 18 -36 -1z"></path>
<path d="M3131 2368 c-11 -28 -6 -38 20 -38 14 0 19 7 19 30 0 36 -26 41 -39
8z"></path>
<path d="M3252 2378 c-19 -19 -14 -38 11 -38 31 0 38 9 26 31 -11 22 -20 24
-37 7z"></path>
<path d="M3610 2360 c0 -24 4 -30 21 -30 13 0 19 5 15 13 -3 6 -9 20 -12 30
-10 27 -24 20 -24 -13z"></path>
<path d="M3726 2382 c-3 -5 -2 -22 3 -38 7 -29 8 -29 19 -7 16 30 15 53 -2 53
-8 0 -17 -4 -20 -8z"></path>
<path d="M2935 2368 c-8 -20 12 -61 28 -55 18 6 18 21 -3 47 -16 21 -20 23
-25 8z"></path>
<path d="M3002 2355 c2 -14 8 -26 13 -26 6 0 11 12 13 26 2 18 -1 25 -13 25
-12 0 -15 -7 -13 -25z"></path>
<path d="M3791 2366 c-20 -24 -6 -48 26 -44 22 2 28 8 28 28 0 30 -35 40 -54
16z"></path>
<path d="M3909 2343 c-11 -30 1 -49 25 -40 21 8 22 67 1 67 -9 0 -20 -12 -26
-27z"></path>
<path d="M2820 2330 c0 -28 3 -31 28 -28 21 2 27 8 27 28 0 20 -6 26 -27 28
-25 3 -28 0 -28 -28z"></path>
<path d="M2757 2343 c-11 -10 -8 -51 4 -59 19 -11 38 18 28 44 -8 22 -20 28
-32 15z"></path>
<path d="M3987 2329 c-18 -26 -10 -43 19 -37 23 4 27 20 11 42 -13 18 -15 18
-30 -5z"></path>
<path d="M4067 2343 c-12 -12 -7 -63 6 -63 18 0 37 46 24 59 -13 13 -21 14
-30 4z"></path>
<path d="M2686 2331 c-8 -12 11 -61 23 -61 17 0 21 17 11 44 -10 26 -24 33
-34 17z"></path>
<path d="M2605 2310 c-6 -10 11 -50 21 -50 21 0 42 22 37 40 -6 21 -47 28 -58
10z"></path>
<path d="M4174 2305 c-4 -8 -3 -23 1 -32 6 -16 8 -15 25 7 10 13 16 28 14 32
-9 13 -34 9 -40 -7z"></path>
<path d="M4242 2298 c-19 -19 -14 -45 10 -51 27 -8 38 -1 38 23 0 25 -33 43
-48 28z"></path>
<path d="M2490 2290 c-21 -14 0 -45 31 -45 19 0 24 5 24 25 0 27 -28 38 -55
20z"></path>
<path d="M4314 2277 c-3 -9 -4 -24 -2 -34 3 -16 5 -15 17 6 9 16 10 26 2 34
-7 7 -12 6 -17 -6z"></path>
<path d="M2410 2265 c-10 -12 -10 -18 0 -30 20 -25 55 -15 55 15 0 30 -35 40
-55 15z"></path>
<path d="M4367 2274 c-4 -4 -7 -20 -7 -36 0 -23 4 -29 18 -26 11 2 17 13 17
32 0 29 -14 43 -28 30z"></path>
<path d="M2335 2251 c-3 -5 6 -22 20 -37 14 -15 25 -25 26 -23 1 2 2 19 4 37
2 28 0 32 -21 32 -12 0 -25 -4 -29 -9z"></path>
<path d="M4464 2224 c-13 -20 -14 -28 -5 -37 10 -9 16 -8 27 7 16 23 19 56 4
56 -5 0 -17 -11 -26 -26z"></path>
<path d="M4521 2208 c-10 -28 -7 -34 19 -41 30 -8 49 31 24 50 -25 18 -33 16
-43 -9z"></path>
<path d="M4597 2178 c-7 -25 -3 -33 12 -23 13 8 15 45 2 45 -5 0 -11 -10 -14
-22z"></path>
<path d="M4650 2164 c-12 -31 -13 -44 -2 -44 12 0 52 57 45 64 -14 14 -34 4
-43 -20z"></path>
<path d="M6020 2157 c0 -13 -5 -28 -11 -34 -9 -9 -8 -16 5 -28 9 -9 16 -27 16
-41 0 -37 18 -29 29 13 7 24 7 41 1 47 -6 6 -10 23 -10 38 0 18 -5 28 -15 28
-9 0 -15 -9 -15 -23z"></path>
<path d="M6040 1994 c0 -8 5 -12 10 -9 6 3 10 10 10 16 0 5 -4 9 -10 9 -5 0
-10 -7 -10 -16z"></path>
<path d="M1096 2254 c-8 -21 13 -49 27 -35 10 10 0 51 -13 51 -4 0 -11 -7 -14
-16z"></path>
<path d="M1105 2170 c-8 -13 3 -50 16 -50 12 0 12 47 0 55 -5 3 -12 1 -16 -5z"></path>
<path d="M1105 2080 c-4 -6 -3 -16 3 -22 6 -6 12 -6 17 2 4 6 3 16 -3 22 -6 6
-12 6 -17 -2z"></path>
<path d="M3073 1764 c-11 -30 4 -41 58 -40 43 1 54 5 57 19 4 19 -5 23 -66 30
-32 4 -45 1 -49 -9z"></path>
<path d="M4435 1772 c-3 -3 -5 -15 -5 -27 0 -20 5 -22 50 -20 52 2 82 18 65
34 -12 10 -102 21 -110 13z"></path>
<path d="M395 3371 c-7 -12 12 -24 25 -16 11 7 4 25 -10 25 -5 0 -11 -4 -15
-9z"></path>
<path d="M6147 3221 c-73 -8 -71 -27 3 -23 65 4 90 10 90 23 0 5 -8 8 -17 7
-10 -1 -44 -4 -76 -7z"></path>
<path d="M980 3090 c0 -5 5 -10 10 -10 6 0 10 5 10 10 0 6 -4 10 -10 10 -5 0
-10 -4 -10 -10z"></path>
<path d="M982 3062 c-60 -4 -68 -25 -12 -30 49 -5 78 -28 82 -65 2 -18 8 -31
13 -29 6 2 9 14 7 27 -4 30 35 72 51 56 9 -9 13 -27 16 -68 1 -7 17 -15 36
-19 47 -9 65 7 58 52 -8 46 9 43 33 -6 20 -42 38 -51 48 -24 6 15 8 15 26 -1
19 -17 20 -17 30 9 14 38 13 56 -5 63 -22 8 -30 -4 -15 -22 10 -12 9 -16 -4
-21 -21 -8 -31 2 -31 29 0 17 -8 23 -40 29 -89 16 -215 25 -293 20z m220 -104
c-16 -16 -42 8 -40 37 l2 23 25 -24 c18 -18 21 -28 13 -36z"></path>
<path d="M1540 3054 c0 -8 5 -12 10 -9 6 4 8 11 5 16 -9 14 -15 11 -15 -7z"></path>
<path d="M1720 3060 c0 -5 7 -10 15 -10 8 0 15 5 15 10 0 6 -7 10 -15 10 -8 0
-15 -4 -15 -10z"></path>
<path d="M945 2980 c-18 -35 -11 -58 11 -39 11 9 19 8 34 -6 24 -22 27 -7 9
44 -14 39 -34 40 -54 1z m25 0 c0 -5 -5 -10 -11 -10 -5 0 -7 5 -4 10 3 6 8 10
11 10 2 0 4 -4 4 -10z"></path>
<path d="M574 2988 c-3 -4 6 -14 20 -23 19 -13 29 -14 45 -6 11 6 34 11 52 11
26 0 30 -3 21 -12 -14 -14 -16 -42 -2 -33 6 3 14 -5 20 -19 10 -27 24 -33 35
-16 3 6 15 10 26 10 33 0 68 28 62 50 -5 21 11 28 22 10 9 -15 25 -12 25 4 0
22 -23 34 -57 29 -25 -4 -33 -10 -33 -27 0 -20 -1 -20 -20 4 -18 24 -24 25
-115 25 -53 0 -99 -3 -101 -7z"></path>
<path d="M522 2978 c5 -15 28 -18 29 -3 0 6 -7 12 -17 13 -10 3 -15 -1 -12
-10z"></path>
<path d="M1100 2964 c0 -8 5 -12 10 -9 6 3 10 10 10 16 0 5 -4 9 -10 9 -5 0
-10 -7 -10 -16z"></path>
<path d="M6015 2970 c-9 -15 3 -30 20 -24 7 3 22 1 33 -5 14 -7 25 -6 40 5 12
8 22 19 22 25 0 12 -107 12 -115 -1z"></path>
<path d="M5858 2963 c-20 -5 -24 -23 -5 -23 24 0 57 12 57 21 0 9 -22 10 -52
2z"></path>
<path d="M5950 2940 c0 -5 5 -10 10 -10 6 0 10 5 10 10 0 6 -4 10 -10 10 -5 0
-10 -4 -10 -10z"></path>
<path d="M1572 2900 c-21 -22 -23 -23 -41 -6 -24 22 -40 3 -18 -22 7 -9 17
-25 20 -35 7 -19 27 -15 27 5 0 7 9 22 21 34 12 12 19 28 17 35 -3 8 -11 4
-26 -11z"></path>
<path d="M1094 2896 c-3 -8 -4 -29 -2 -48 3 -31 5 -33 42 -33 25 0 41 5 44 14
3 10 -2 12 -22 7 -24 -6 -26 -4 -26 24 0 27 2 30 25 24 19 -5 25 -2 25 10 0
21 -78 23 -86 2z"></path>
<path d="M1227 2903 c-8 -7 -9 -83 -2 -83 3 0 14 6 26 13 17 10 22 9 30 -5 16
-28 26 -21 33 24 5 29 3 44 -6 50 -16 9 -72 11 -81 1z m56 -28 c1 -5 -6 -11
-15 -13 -11 -2 -18 3 -18 13 0 17 30 18 33 0z"></path>
<path d="M1364 2896 c-3 -8 -4 -27 -2 -43 3 -25 7 -28 44 -31 27 -2 45 2 53
12 16 18 6 36 -19 36 -13 0 -17 -5 -13 -21 5 -17 2 -20 -18 -17 -18 2 -24 9
-24 28 0 22 5 25 38 28 52 4 46 22 -8 22 -30 0 -47 -5 -51 -14z"></path>
<path d="M6290 2900 c0 -5 7 -10 16 -10 8 0 12 5 9 10 -3 6 -10 10 -16 10 -5
0 -9 -4 -9 -10z"></path>
<path d="M897 2893 c-14 -13 -7 -84 8 -90 23 -8 28 2 14 25 -11 18 -10 24 4
40 17 19 14 32 -8 32 -6 0 -15 -3 -18 -7z"></path>
<path d="M977 2894 c-10 -10 -9 -84 2 -84 5 0 11 10 15 23 l6 22 18 -23 c22
-29 32 -20 32 30 0 42 -14 51 -24 16 l-6 -23 -18 23 c-10 13 -21 20 -25 16z"></path>
<path d="M5760 2886 c-28 -7 -49 -20 -56 -34 -8 -15 -14 -18 -21 -11 -11 11
-33 5 -33 -9 0 -4 9 -18 18 -30 l18 -24 39 26 c21 14 44 26 51 26 8 0 14 7 14
15 0 8 4 15 9 15 5 0 11 -7 15 -15 3 -9 18 -15 36 -15 29 0 31 2 28 32 -3 35
-28 52 -28 19 0 -27 -16 -27 -23 -1 -6 23 -5 22 -67 6z"></path>
<path d="M593 2883 c-28 -5 -30 -23 -4 -23 26 0 51 10 51 21 0 9 -8 10 -47 2z"></path>
<path d="M708 2848 c-6 -52 -4 -109 3 -114 11 -7 16 8 23 74 4 41 2 52 -9 52
-8 0 -16 -6 -17 -12z"></path>
<path d="M1480 2805 c-7 -8 -28 -15 -46 -15 -25 0 -34 -4 -34 -16 0 -15 9 -16
66 -10 37 4 94 13 128 21 33 8 78 15 99 15 20 0 37 5 37 10 0 18 -141 12 -161
-6 -17 -15 -20 -15 -43 0 -31 20 -31 20 -46 1z"></path>
<path d="M5600 2802 c-8 -9 -14 -20 -12 -24 1 -5 -4 -8 -11 -8 -18 0 -53 -39
-66 -72 -7 -18 -18 -28 -31 -28 -18 0 -110 -46 -110 -55 0 -1 11 -10 24 -19
22 -14 27 -14 54 0 22 11 36 12 57 4 34 -13 41 -8 49 35 5 24 22 50 55 82 47
45 48 47 34 75 -17 32 -22 34 -43 10z"></path>
<path d="M5830 2800 c0 -5 5 -10 10 -10 6 0 10 5 10 10 0 6 -4 10 -10 10 -5 0
-10 -4 -10 -10z"></path>
<path d="M5880 2800 c0 -5 5 -10 10 -10 6 0 10 5 10 10 0 6 -4 10 -10 10 -5 0
-10 -4 -10 -10z"></path>
<path d="M6465 2784 c-22 -13 -46 -21 -54 -19 -8 3 -25 -4 -37 -16 -21 -20
-30 -21 -94 -15 -74 7 -89 -1 -41 -22 36 -16 106 -11 148 11 18 10 41 17 51
17 19 0 72 45 72 61 0 11 3 12 -45 -17z"></path>
<path d="M1235 2790 c-8 -13 3 -50 16 -50 5 0 9 9 9 20 0 11 0 23 1 27 1 12
-19 15 -26 3z"></path>
<path d="M5754 2785 c-10 -8 -14 -15 -7 -15 19 0 43 11 43 21 0 13 -14 11 -36
-6z"></path>
<path d="M5920 2793 c0 -15 79 -53 85 -42 4 6 5 11 4 12 -11 7 -80 37 -84 37
-3 0 -5 -3 -5 -7z"></path>
<path d="M1042 2783 c-20 -4 -23 -9 -20 -46 3 -42 3 -42 43 -42 38 0 39 1 41
35 2 36 -10 61 -30 59 -6 -1 -21 -4 -34 -6z m33 -22 c3 -5 1 -12 -5 -16 -5 -3
-10 1 -10 9 0 18 6 21 15 7z m5 -41 c0 -5 -7 -10 -15 -10 -8 0 -15 5 -15 10 0
6 7 10 15 10 8 0 15 -4 15 -10z"></path>
<path d="M1292 2778 c-13 -13 -17 -78 -4 -78 4 0 13 5 20 12 9 9 16 8 30 -5
10 -9 23 -17 28 -17 12 0 13 70 1 88 -10 15 -59 16 -75 0z m51 -23 c1 -5 -6
-11 -15 -13 -11 -2 -18 3 -18 13 0 17 30 18 33 0z"></path>
<path d="M1133 2768 c2 -7 10 -12 17 -10 19 4 51 -8 45 -18 -3 -5 -12 -7 -20
-4 -7 3 -18 -4 -25 -16 -15 -28 -8 -35 19 -18 17 10 25 10 41 0 35 -21 40 -4
13 38 -22 34 -32 40 -61 40 -23 0 -32 -4 -29 -12z"></path>
<path d="M5343 2767 c-30 -10 -45 -27 -24 -27 19 0 71 23 71 31 0 10 -3 10
-47 -4z"></path>
<path d="M5659 2731 c-19 -16 -31 -32 -27 -36 3 -3 21 7 40 23 43 39 32 50
-13 13z"></path>
<path d="M5823 2743 c-6 -15 -30 -18 -35 -3 -4 12 -68 -7 -68 -20 0 -4 26 -11
57 -15 49 -6 59 -4 70 12 13 17 15 17 33 -7 10 -14 20 -23 22 -20 18 28 28 52
23 60 -8 14 -96 8 -102 -7z"></path>
<path d="M917 2733 c-2 -4 -1 -17 3 -28 4 -11 5 -37 2 -59 -4 -30 -2 -38 9
-34 20 7 25 101 5 117 -8 7 -16 8 -19 4z"></path>
<path d="M5460 2720 c0 -5 5 -10 10 -10 6 0 10 5 10 10 0 6 -4 10 -10 10 -5 0
-10 -4 -10 -10z"></path>
<path d="M6207 2689 c-17 -10 -24 -49 -8 -49 5 0 19 8 31 18 18 15 20 20 8 29
-9 8 -19 8 -31 2z"></path>
<path d="M5600 2665 c-8 -9 -8 -15 -2 -15 12 0 26 19 19 26 -2 2 -10 -2 -17
-11z"></path>
<path d="M5696 2649 c-42 -50 -31 -73 41 -85 39 -6 44 -4 73 27 40 43 53 66
41 73 -5 4 -24 -12 -41 -34 -21 -26 -40 -40 -55 -40 -35 0 -38 14 -10 40 32
30 32 50 1 50 -15 0 -34 -12 -50 -31z"></path>
<path d="M1063 2645 c-7 -19 3 -45 17 -45 5 0 10 9 10 20 0 17 3 18 25 8 19
-8 28 -8 40 2 21 18 12 23 -41 26 -32 2 -47 -1 -51 -11z"></path>
<path d="M1195 2650 c-8 -13 6 -18 66 -28 30 -5 62 -13 72 -17 15 -6 17 -3 14
21 -3 27 -5 28 -75 30 -40 1 -74 -2 -77 -6z"></path>
<path d="M5559 2583 c-12 -28 -22 -73 -23 -108 l-2 -60 -46 0 c-57 0 -71 -11
-32 -25 16 -5 37 -15 46 -20 10 -6 20 -10 23 -10 12 0 36 65 32 88 -5 24 6 78
23 117 16 39 19 54 9 60 -5 4 -19 -15 -30 -42z"></path>
<path d="M5610 2591 c0 -11 -4 -22 -9 -25 -13 -8 -19 -77 -7 -73 6 2 12 15 14
30 2 14 10 31 18 37 19 16 18 50 -1 50 -8 0 -15 -9 -15 -19z"></path>
<path d="M6150 2560 c0 -5 5 -10 10 -10 6 0 10 5 10 10 0 6 -4 10 -10 10 -5 0
-10 -4 -10 -10z"></path>
<path d="M6456 2541 c-14 -5 -16 -10 -7 -15 6 -4 11 -15 10 -24 -4 -48 15 -59
25 -14 4 15 9 35 12 45 6 18 -7 21 -40 8z"></path>
<path d="M5335 2530 c-3 -5 -1 -10 4 -10 6 0 11 5 11 10 0 6 -2 10 -4 10 -3 0
-8 -4 -11 -10z"></path>
<path d="M5642 2517 c-6 -6 -12 -21 -14 -32 -2 -16 3 -20 30 -20 23 0 37 6 43
18 6 10 14 15 20 12 5 -4 7 -11 4 -16 -4 -5 -2 -9 4 -9 15 0 33 38 21 45 -5 3
-24 5 -42 3 -19 -1 -39 1 -45 5 -6 4 -15 1 -21 -6z"></path>
<path d="M5448 2492 c-32 -19 -36 -32 -10 -32 17 1 62 32 62 44 0 11 -25 6
-52 -12z"></path>
<path d="M6385 2490 c-10 -11 -23 -20 -30 -20 -15 0 -55 -42 -55 -58 0 -19 35
-14 55 8 22 24 34 25 49 4 7 -9 18 -12 29 -8 24 9 15 30 -12 27 -25 -3 -27 9
-5 42 14 21 14 25 2 25 -8 0 -23 -9 -33 -20z"></path>
<path d="M5276 2478 c-9 -12 -13 -24 -11 -27 6 -5 45 29 45 41 0 15 -19 8 -34
-14z"></path>
<path d="M5330 2445 c-7 -9 -10 -18 -7 -21 6 -7 47 18 47 28 0 14 -27 9 -40
-7z"></path>
<path d="M5568 2381 c-21 -33 -38 -62 -38 -65 0 -12 22 -5 47 14 15 11 49 22
84 26 49 5 59 10 59 25 0 13 7 19 23 19 26 0 54 16 45 26 -4 3 -46 8 -95 10
l-88 4 -37 -59z m102 20 c0 -9 -60 -24 -68 -16 -5 5 36 23 56 24 6 1 12 -3 12
-8z"></path>
<path d="M6423 2351 c-13 -11 -23 -26 -23 -34 0 -8 -7 -20 -15 -27 -8 -7 -15
-20 -15 -28 0 -11 17 1 48 31 26 26 54 47 61 47 20 0 7 25 -15 27 -10 2 -29
-6 -41 -16z"></path>
<path d="M6540 2345 c-10 -12 -10 -19 -2 -27 13 -13 42 6 42 28 0 19 -24 18
-40 -1z"></path>
<path d="M6343 2323 c-3 -10 -29 -42 -57 -70 -49 -52 -47 -73 4 -33 14 11 30
20 35 20 10 0 27 33 40 78 8 26 -13 31 -22 5z"></path>
<path d="M6458 2278 c-53 -28 -37 -42 17 -16 55 27 67 18 71 -49 3 -60 17
-118 28 -118 5 0 14 8 20 17 8 13 6 22 -12 41 -26 28 -27 35 -6 58 16 17 15
21 -10 54 -31 40 -53 43 -108 13z"></path>
<path d="M6370 2201 c0 -5 -19 -27 -42 -50 -35 -36 -68 -82 -68 -97 0 -2 6 -4
14 -4 7 0 16 9 19 21 3 11 15 23 26 26 12 3 21 9 21 14 0 5 11 27 25 49 28 44
30 50 15 50 -5 0 -10 -4 -10 -9z"></path>
<path d="M6310 2184 c0 -8 5 -12 10 -9 6 4 8 11 5 16 -9 14 -15 11 -15 -7z"></path>
<path d="M5240 2125 c0 -23 93 -105 119 -105 5 0 14 -7 21 -15 18 -22 32 -18
28 7 -2 16 -12 25 -30 28 -14 3 -50 26 -79 53 -28 26 -53 47 -55 47 -2 0 -4
-7 -4 -15z"></path>
<path d="M6575 2059 c-4 -6 2 -21 14 -33 12 -12 21 -28 21 -34 0 -7 5 -12 10
-12 17 0 11 56 -8 73 -22 20 -28 21 -37 6z"></path>
<path d="M5711 2016 c-7 -8 -8 -17 -3 -20 6 -3 15 1 21 8 7 8 8 17 3 20 -6 3
-15 -1 -21 -8z"></path>
<path d="M5580 2016 c0 -14 21 -58 26 -54 8 8 -7 58 -17 58 -5 0 -9 -2 -9 -4z"></path>
<path d="M5661 1966 c-9 -11 -10 -24 -1 -56 17 -64 15 -222 -5 -263 -22 -47
-83 -102 -128 -117 -21 -7 -41 -19 -44 -27 -4 -10 -14 -12 -33 -8 -22 5 -30 1
-43 -19 -21 -31 -6 -42 27 -21 15 10 33 14 50 9 21 -5 27 -2 34 17 l9 23 12
-22 c15 -28 24 -28 36 0 6 12 17 25 25 29 8 3 28 13 43 20 33 15 57 51 38 57
-19 6 -12 20 12 24 35 5 47 56 41 173 -7 154 -36 225 -73 181z"></path>
<path d="M5410 1951 c0 -5 11 -32 25 -60 29 -58 43 -144 27 -164 -6 -7 -7 -18
-3 -25 12 -20 30 8 37 59 5 38 1 56 -31 122 -33 68 -55 95 -55 68z"></path>
<path d="M6631 1851 c-8 -13 -8 -28 -1 -46 10 -27 14 -85 5 -85 -2 0 -17 12
-32 28 -23 23 -28 24 -31 10 -2 -9 5 -29 14 -45 10 -15 19 -29 20 -31 5 -9 54
24 55 37 0 9 2 41 4 73 3 40 0 60 -10 68 -11 9 -16 7 -24 -9z"></path>
<path d="M5162 1848 c-15 -15 -16 -45 -1 -50 6 -2 12 -16 12 -31 0 -16 7 -32
17 -37 15 -8 19 -4 25 26 5 28 2 41 -13 58 -11 11 -21 27 -23 34 -3 10 -7 10
-17 0z"></path>
<path d="M1520 1826 c-33 -9 -40 -14 -28 -19 13 -5 16 -14 12 -34 -11 -54 30
-113 43 -63 6 23 23 27 23 6 0 -22 19 -30 36 -16 9 9 11 16 4 24 -5 7 -7 30
-3 51 5 30 2 41 -12 51 -11 8 -21 14 -24 13 -3 -1 -26 -6 -51 -13z m50 -48 c0
-16 -3 -19 -11 -11 -6 6 -8 16 -5 22 11 17 16 13 16 -11z"></path>
<path d="M1665 1819 c3 -13 -1 -44 -9 -68 -19 -52 -11 -73 15 -40 l19 24 19
-25 c16 -20 21 -22 35 -11 20 17 20 28 1 65 -8 15 -15 37 -15 47 0 12 -7 19
-19 19 -11 0 -27 3 -36 6 -13 5 -15 2 -10 -17z"></path>
<path d="M1635 1821 c-3 -5 -1 -12 5 -16 5 -3 10 1 10 9 0 18 -6 21 -15 7z"></path>
<path d="M1449 1815 c-1 -6 -3 -28 -4 -50 -4 -62 -4 -65 -15 -65 -5 0 -10 22
-10 49 0 53 -10 70 -29 47 -14 -17 -11 -92 4 -113 15 -20 61 -11 69 15 11 33
9 103 -2 114 -7 7 -13 8 -13 3z"></path>
<path d="M1310 1783 c-8 -2 -21 -7 -29 -9 -11 -4 -11 -7 2 -22 9 -11 13 -27
10 -44 -7 -36 2 -59 21 -52 9 3 16 24 18 52 3 26 8 55 12 65 8 17 -3 21 -34
10z"></path>
<path d="M1196 1752 c-3 -5 -10 -26 -15 -48 -5 -21 -13 -49 -16 -61 -6 -17 -3
-23 9 -23 9 0 16 6 16 14 0 24 20 29 40 11 25 -23 30 -8 18 50 -12 56 -36 82
-52 57z"></path>
<path d="M1110 1706 c0 -26 -14 -35 -25 -16 -3 6 -13 10 -21 10 -11 0 -14 -14
-14 -59 0 -33 5 -63 10 -66 6 -4 10 9 10 32 l1 38 22 -28 c13 -15 26 -24 30
-21 11 11 8 122 -3 129 -6 4 -10 -5 -10 -19z"></path>
<path d="M1680 1670 c0 -5 7 -10 15 -10 8 0 15 5 15 10 0 6 -7 10 -15 10 -8 0
-15 -4 -15 -10z"></path>
<path d="M1465 1650 c-3 -5 3 -10 14 -10 12 0 21 5 21 10 0 6 -6 10 -14 10 -8
0 -18 -4 -21 -10z"></path>
<path d="M1530 1650 c0 -5 13 -8 30 -7 39 3 39 17 0 17 -16 0 -30 -4 -30 -10z"></path>
<path d="M1750 1650 c0 -5 7 -10 15 -10 8 0 15 5 15 10 0 6 -7 10 -15 10 -8 0
-15 -4 -15 -10z"></path>
<path d="M5212 1634 c1 -9 9 -19 16 -22 9 -3 13 2 10 14 -1 9 -9 19 -16 22 -9
3 -13 -2 -10 -14z"></path>
<path d="M5497 1644 c-11 -11 -8 -64 3 -64 14 0 24 50 13 61 -5 5 -12 6 -16 3z"></path>
<path d="M3970 1620 c0 -5 5 -10 10 -10 6 0 10 5 10 10 0 6 -4 10 -10 10 -5 0
-10 -4 -10 -10z"></path>
<path d="M1539 1605 c-1 -3 -2 -8 -3 -12 -1 -5 -7 -17 -14 -28 -11 -19 -12
-19 -9 5 2 20 -3 26 -25 28 -15 2 -48 -6 -73 -17 -42 -19 -45 -22 -39 -48 4
-15 8 -29 9 -31 1 -1 26 2 55 8 29 5 71 10 93 10 30 0 38 3 30 11 -6 6 -9 26
-6 45 4 22 2 34 -6 34 -6 0 -12 -2 -12 -5z"></path>
<path d="M5886 1571 c-4 -7 -5 -15 -2 -18 9 -9 19 4 14 18 -4 11 -6 11 -12 0z"></path>
<path d="M364 1545 c-8 -20 3 -48 16 -40 13 8 13 55 0 55 -6 0 -13 -7 -16 -15z"></path>
<path d="M1105 1550 c-3 -5 -1 -10 4 -10 6 0 11 5 11 10 0 6 -2 10 -4 10 -3 0
-8 -4 -11 -10z"></path>
<path d="M1300 1532 c0 -34 15 -51 41 -45 37 10 17 73 -23 73 -13 0 -18 -8
-18 -28z"></path>
<path d="M1230 1542 c-48 -8 -59 -28 -40 -78 8 -21 13 -25 23 -15 9 9 9 16 -1
32 -20 32 -3 38 20 6 24 -33 38 -27 38 18 0 38 -5 43 -40 37z"></path>
<path d="M5290 1531 c0 -11 26 -22 34 -14 3 3 3 10 0 14 -7 12 -34 11 -34 0z"></path>
<path d="M1010 1520 c0 -5 4 -10 9 -10 6 0 13 5 16 10 3 6 -1 10 -9 10 -9 0
-16 -4 -16 -10z"></path>
<path d="M1117 1478 c11 -59 42 -61 35 -4 -3 27 -9 36 -23 36 -16 0 -17 -5
-12 -32z"></path>
<path d="M1037 1483 c-10 -9 -8 -71 2 -77 4 -3 16 3 26 14 15 16 21 18 33 7
13 -10 15 -9 9 13 -4 14 -7 31 -7 38 0 12 -51 17 -63 5z"></path>
<path d="M5237 1474 c-32 -18 -27 -37 9 -28 13 3 31 1 39 -6 12 -10 11 -17 -5
-48 -11 -20 -32 -46 -47 -58 -25 -20 -26 -23 -10 -30 33 -13 64 12 85 68 36
98 36 98 8 98 -14 0 -28 5 -31 10 -8 13 -14 12 -48 -6z"></path>
<path d="M5655 1475 c-3 -8 -7 -22 -10 -30 -8 -25 11 -17 23 10 15 32 15 35 2
35 -6 0 -13 -7 -15 -15z"></path>
<path d="M1625 1430 c3 -5 15 -10 26 -10 10 0 19 5 19 10 0 6 -12 10 -26 10
-14 0 -23 -4 -19 -10z"></path>
<path d="M2230 1414 c0 -14 72 -33 103 -27 38 7 34 23 -5 22 -18 -1 -48 2 -65
6 -18 4 -33 4 -33 -1z"></path>
<path d="M2790 1410 c0 -5 9 -10 20 -10 11 0 20 5 20 10 0 6 -9 10 -20 10 -11
0 -20 -4 -20 -10z"></path>
<path d="M2396 1401 c-4 -5 -2 -12 3 -15 5 -4 12 -2 15 3 4 5 2 12 -3 15 -5 4
-12 2 -15 -3z"></path>
<path d="M2933 1403 c-24 -9 -13 -24 15 -21 15 2 26 8 25 13 -2 12 -23 16 -40
8z"></path>
<path d="M2995 1401 c-7 -13 2 -18 48 -26 25 -5 37 -4 37 4 0 6 -11 11 -24 11
-14 0 -28 5 -31 10 -8 13 -22 13 -30 1z"></path>
<path d="M2600 1390 c0 -5 7 -10 15 -10 8 0 15 5 15 10 0 6 -7 10 -15 10 -8 0
-15 -4 -15 -10z"></path>
<path d="M5356 1393 c-3 -3 -6 -13 -6 -21 0 -7 -9 -26 -20 -42 -11 -15 -17
-30 -13 -34 13 -13 43 -5 53 13 19 37 8 106 -14 84z"></path>
<path d="M3145 1380 c-3 -5 1 -10 10 -10 9 0 13 5 10 10 -3 6 -8 10 -10 10 -2
0 -7 -4 -10 -10z"></path>
<path d="M3205 1370 c3 -5 8 -10 11 -10 2 0 4 5 4 10 0 6 -5 10 -11 10 -5 0
-7 -4 -4 -10z"></path>
<path d="M5159 1376 c-3 -3 -39 -12 -81 -21 -42 -8 -93 -22 -112 -30 -20 -8
-49 -15 -66 -15 -19 0 -30 -5 -30 -14 0 -11 10 -13 38 -10 20 2 70 6 110 8 54
4 87 12 129 34 62 31 78 52 41 52 -14 0 -27 -2 -29 -4z"></path>
<path d="M1435 1360 c3 -5 8 -10 11 -10 2 0 4 5 4 10 0 6 -5 10 -11 10 -5 0
-7 -4 -4 -10z"></path>
<path d="M1468 1338 c-48 -17 -31 -26 60 -32 48 -3 134 -11 192 -17 171 -19
270 -22 270 -10 0 6 -18 11 -43 11 -24 0 -48 5 -54 11 -13 13 -32 15 -221 25
-67 4 -125 11 -128 16 -7 11 -42 9 -76 -4z"></path>
<path d="M4230 1330 c0 -5 7 -10 15 -10 8 0 15 5 15 10 0 6 -7 10 -15 10 -8 0
-15 -4 -15 -10z"></path>
<path d="M3380 1321 c0 -10 128 -19 168 -12 12 2 22 7 22 12 0 5 -43 9 -95 9
-52 0 -95 -4 -95 -9z"></path>
<path d="M3770 1320 c0 -5 6 -10 14 -10 8 0 18 5 21 10 3 6 -3 10 -14 10 -12
0 -21 -4 -21 -10z"></path>
<path d="M4000 1320 c0 -5 14 -10 31 -10 17 0 28 4 24 10 -3 6 -17 10 -31 10
-13 0 -24 -4 -24 -10z"></path>
<path d="M4100 1320 c-8 -5 -12 -11 -9 -14 9 -9 99 5 99 15 0 12 -71 11 -90
-1z"></path>
<path d="M4326 1323 c-11 -11 -6 -23 9 -23 8 0 15 4 15 9 0 13 -16 22 -24 14z"></path>
<path d="M4430 1320 c-11 -7 -5 -10 23 -10 20 0 37 5 37 10 0 13 -40 13 -60 0z"></path>
<path d="M4505 1321 c-7 -12 31 -25 45 -16 6 4 8 11 5 16 -8 12 -42 12 -50 0z"></path>
<path d="M3708 1313 c7 -3 16 -2 19 1 4 3 -2 6 -13 5 -11 0 -14 -3 -6 -6z"></path>
<path d="M3955 1310 c3 -5 10 -10 16 -10 5 0 9 5 9 10 0 6 -7 10 -16 10 -8 0
-12 -4 -9 -10z"></path>
<path d="M4585 1311 c-3 -5 -1 -12 4 -15 12 -8 41 3 41 15 0 12 -37 12 -45 0z"></path>
<path d="M4663 1296 c5 -14 47 -21 47 -7 0 5 10 11 23 14 12 2 0 3 -26 4 -30
0 -46 -4 -44 -11z"></path>
<path d="M2255 1290 c-4 -6 7 -10 24 -10 17 0 31 5 31 10 0 6 -11 10 -24 10
-14 0 -28 -4 -31 -10z"></path>
<path d="M2130 1280 c0 -5 9 -10 20 -10 11 0 20 5 20 10 0 6 -9 10 -20 10 -11
0 -20 -4 -20 -10z"></path>
<path d="M2420 1280 c0 -5 16 -10 35 -10 19 0 35 5 35 10 0 6 -16 10 -35 10
-19 0 -35 -4 -35 -10z"></path>
<path d="M3010 1280 c0 -5 5 -10 10 -10 6 0 10 5 10 10 0 6 -4 10 -10 10 -5 0
-10 -4 -10 -10z"></path>
<path d="M3110 1280 c0 -5 5 -10 10 -10 6 0 10 5 10 10 0 6 -4 10 -10 10 -5 0
-10 -4 -10 -10z"></path>
<path d="M3210 1280 c0 -5 5 -10 10 -10 6 0 10 5 10 10 0 6 -4 10 -10 10 -5 0
-10 -4 -10 -10z"></path>
<path d="M5560 1255 c-14 -8 -42 -14 -62 -15 -21 0 -38 -4 -38 -10 0 -5 7 -10
15 -10 9 0 35 -9 58 -21 23 -11 65 -23 92 -26 28 -3 62 -12 77 -19 15 -8 38
-14 51 -14 13 0 26 -3 30 -6 7 -7 126 -48 170 -58 54 -13 26 13 -35 33 -124
39 -164 53 -196 67 -18 8 -41 14 -50 14 -10 0 -27 6 -37 14 -16 11 -17 16 -6
29 10 13 9 17 -8 26 -25 14 -30 13 -61 -4z m45 -24 c7 -12 -12 -24 -25 -16
-11 7 -4 25 10 25 5 0 11 -4 15 -9z"></path>
<path d="M6665 1093 c3 -15 22 -44 41 -65 44 -49 45 -70 4 -61 -23 4 -30 2
-30 -11 0 -13 11 -16 50 -16 46 0 50 2 50 24 0 14 -17 44 -40 71 -22 25 -45
55 -50 66 -16 29 -33 24 -25 -8z"></path>
</g>
</svg>