 <svg version="1.0" xmlns="http://www.w3.org/2000/svg" width="700.000000pt" height="700.000000pt" viewBox="0 0 700.000000 700.000000" preserveAspectRatio="xMidYMid meet">
<metadata>
Created by potrace 1.12, written by Peter Selinger 2001-2015
</metadata>
<g transform="translate(0.000000,700.000000) scale(0.100000,-0.100000)" fill="#000000" stroke="none">
<path d="M4205 6495 c-5 -2 -57 -9 -115 -14 -156 -15 -282 -48 -393 -103 -31
-15 -63 -28 -70 -28 -7 0 -62 -32 -122 -71 -81 -53 -141 -103 -232 -195 -68
-69 -123 -129 -123 -135 0 -16 -43 -69 -56 -69 -13 0 -31 36 -64 128 -13 34
-27 65 -31 68 -5 3 -9 12 -9 21 0 28 -101 182 -158 242 -40 41 -69 63 -97 70
-78 21 -204 7 -238 -27 -19 -20 -20 -22 -3 -28 10 -4 27 -2 37 4 10 7 36 12
56 12 102 -1 212 -100 291 -263 49 -100 94 -214 108 -270 4 -16 17 -51 31 -78
13 -28 21 -54 18 -60 -4 -5 -42 -9 -86 -9 -85 0 -100 -5 -172 -66 -85 -71
-187 -310 -229 -539 -5 -27 -14 -61 -21 -74 -9 -18 -12 -134 -11 -450 1 -399
2 -432 23 -526 44 -203 64 -273 103 -352 36 -73 128 -180 146 -169 16 10 15
37 -3 60 -16 22 -21 106 -6 106 5 0 19 -20 32 -44 46 -94 171 -223 255 -266
81 -41 81 -40 88 -152 9 -170 26 -236 88 -339 16 -25 28 -50 28 -55 0 -13 112
-114 145 -131 17 -9 48 -28 70 -43 23 -16 59 -33 81 -39 57 -15 68 -41 61
-138 -4 -43 -11 -157 -17 -253 -6 -96 -13 -189 -16 -207 -5 -37 -39 -64 -144
-119 -41 -21 -101 -55 -132 -76 -31 -21 -60 -38 -64 -38 -3 0 -40 -23 -81 -50
-41 -28 -78 -50 -81 -50 -4 0 -27 -14 -51 -30 -40 -27 -51 -30 -125 -29 -45 0
-115 4 -156 9 -450 52 -680 31 -869 -78 -35 -20 -72 -42 -84 -49 -11 -6 -60
-47 -109 -90 -118 -103 -216 -215 -361 -413 -34 -47 -97 -121 -139 -164 -66
-69 -79 -78 -92 -67 -9 8 -16 19 -16 25 0 6 -12 45 -26 86 -14 41 -29 91 -34
110 -5 19 -27 86 -49 149 -23 62 -41 120 -41 128 0 8 -7 29 -15 46 -16 35 -73
204 -85 252 -5 17 -22 70 -40 119 -17 49 -37 112 -45 140 -7 28 -23 76 -35
106 -23 61 -33 90 -110 330 -29 91 -63 192 -75 225 -12 33 -32 89 -43 125 -12
36 -40 119 -62 185 -23 66 -48 140 -55 165 -7 25 -43 133 -79 240 -37 107 -76
224 -87 260 -12 36 -33 101 -49 145 -15 44 -36 105 -45 135 -10 30 -33 97 -51
149 -19 51 -34 103 -34 116 0 12 -7 28 -15 35 -13 11 -15 -46 -15 -503 0 -295
4 -517 9 -519 5 -1 30 -64 55 -138 91 -263 545 -1627 581 -1742 20 -65 40
-120 44 -123 5 -2 11 -20 15 -38 3 -18 33 -116 66 -217 34 -102 59 -196 58
-210 -2 -20 -36 -47 -168 -137 -91 -62 -185 -124 -210 -139 -25 -15 -61 -40
-81 -56 -20 -15 -40 -28 -43 -28 -13 0 -214 -160 -220 -175 -5 -13 11 -15 104
-15 l109 0 64 45 c36 25 69 45 73 45 5 0 52 27 104 60 52 33 115 71 140 85 25
14 57 33 71 43 15 9 54 35 88 57 197 128 423 332 620 559 46 53 87 96 92 96 8
0 114 -134 167 -212 12 -18 38 -55 57 -83 64 -90 165 -245 165 -251 0 -3 13
-24 29 -47 15 -23 39 -62 53 -87 75 -134 113 -197 139 -233 16 -22 29 -48 29
-59 0 -16 10 -18 114 -18 86 0 115 3 119 13 3 8 8 85 12 173 3 87 10 217 16
289 10 138 -1 339 -20 358 -14 14 -19 -2 -30 -93 -4 -41 -20 -151 -35 -245
-15 -93 -34 -215 -42 -270 -18 -119 -25 -147 -40 -152 -10 -3 -25 17 -129 187
-32 52 -73 118 -92 145 -18 28 -33 55 -33 61 0 7 -7 18 -16 25 -9 7 -40 49
-70 94 -29 44 -71 105 -93 135 -23 30 -52 72 -66 93 -14 20 -49 65 -78 100
-88 104 -109 135 -101 149 38 63 209 221 307 285 63 40 182 87 291 115 92 23
199 35 401 44 127 7 139 6 127 -9 -15 -17 -123 -83 -194 -116 -56 -27 -76 -47
-60 -63 8 -8 19 -8 39 0 15 7 64 19 108 27 129 24 228 56 370 120 68 30 96 44
120 58 11 7 71 41 133 77 63 36 146 84 185 107 108 63 121 57 96 -43 -11 -42
-17 -48 -139 -129 -208 -138 -273 -206 -305 -324 -16 -56 -17 -73 -6 -159 23
-177 106 -382 215 -535 136 -190 305 -385 395 -455 31 -24 58 -48 59 -53 5
-12 222 -12 222 0 0 9 31 29 135 87 44 24 117 77 210 151 17 14 42 34 58 46
62 49 323 322 398 417 69 86 109 192 125 330 5 40 -30 333 -42 352 -3 4 -9 35
-15 67 -11 69 -53 169 -104 246 -41 61 -118 124 -208 170 l-62 32 0 54 c0 49
3 55 27 67 38 18 181 42 250 42 75 0 145 -30 154 -65 4 -15 3 -109 -1 -209 -6
-157 -4 -187 10 -223 15 -38 104 -133 125 -133 18 0 22 23 10 61 -21 63 -13
65 157 44 348 -43 563 -82 702 -130 165 -56 300 -154 356 -259 l30 -56 -25
-47 c-109 -209 -326 -458 -550 -636 -41 -33 -91 -73 -110 -91 -93 -82 -159
-135 -170 -138 -10 -2 -14 26 -16 122 -4 176 -21 450 -27 456 -15 15 -27 -12
-27 -59 0 -28 -7 -92 -14 -141 -17 -101 -41 -277 -56 -406 -6 -47 -13 -102
-16 -123 l-6 -38 64 3 c63 3 63 3 66 35 4 37 81 111 310 298 34 28 62 53 62
57 0 5 19 22 43 38 101 74 361 348 444 471 47 68 59 75 77 47 27 -43 126 -452
156 -648 5 -30 16 -95 25 -145 9 -50 19 -105 22 -123 l5 -32 134 0 c74 0 134
3 134 6 0 4 -31 43 -69 88 -37 44 -73 90 -78 101 -6 11 -14 63 -18 115 -4 52
-13 157 -21 234 -8 76 -14 163 -14 194 0 31 -7 83 -15 116 -9 34 -25 97 -36
141 -31 118 -103 258 -171 330 -129 138 -325 239 -543 278 -149 28 -302 47
-368 47 -34 0 -93 7 -132 15 -38 8 -111 15 -162 15 -152 0 -158 7 -123 135 11
39 20 101 20 139 0 58 -5 77 -32 128 -36 67 -83 105 -173 139 -47 17 -71 20
-138 16 -45 -3 -111 -13 -147 -22 -122 -30 -126 -30 -133 -4 -9 31 -7 302 1
356 7 39 13 46 91 100 70 48 92 71 128 128 41 66 86 170 104 239 4 17 15 56
24 86 9 30 21 72 26 94 5 21 22 51 37 65 15 15 40 42 57 61 16 19 57 67 90
105 138 159 245 306 281 385 68 149 94 247 94 359 0 76 -6 106 -63 315 -7 27
-7 78 2 175 13 165 13 452 0 576 -6 50 -13 111 -16 137 -5 46 4 72 66 185 23
43 66 142 83 193 34 103 23 141 -77 265 -150 186 -279 273 -575 390 -38 16
-134 36 -280 60 -83 13 -317 20 -345 10z m336 -169 c63 -8 128 -17 144 -21
112 -25 333 -104 366 -132 8 -7 21 -13 27 -13 6 0 26 -13 44 -28 18 -15 44
-35 58 -44 56 -35 157 -139 184 -188 42 -77 33 -116 -71 -295 -101 -173 -166
-244 -269 -291 -71 -32 -127 -31 -206 5 -94 42 -198 122 -198 153 0 6 25 34
55 64 51 50 53 54 34 64 -15 9 -30 6 -67 -10 -153 -70 -222 -117 -299 -201
-32 -35 -60 -66 -63 -69 -37 -36 -137 -202 -170 -282 -13 -32 -29 -58 -35 -58
-14 0 -25 67 -25 150 0 86 29 300 46 337 16 35 19 79 5 88 -11 6 -61 -87 -61
-113 0 -9 -7 -26 -15 -36 -8 -11 -15 -28 -15 -38 0 -32 -34 -128 -45 -125 -10
4 -31 94 -41 177 -11 88 21 327 49 372 24 38 30 78 12 78 -21 0 -105 -141
-153 -257 -21 -51 -109 -127 -236 -204 -119 -72 -162 -83 -320 -86 -140 -2
-170 -9 -147 -36 18 -23 38 -156 52 -355 10 -147 10 -248 0 -515 -7 -183 -15
-335 -18 -340 -7 -11 -58 35 -103 92 -41 52 -86 135 -114 209 -21 56 -21 200
-1 249 16 37 19 75 9 86 -4 3 -26 -14 -51 -39 -48 -50 -80 -55 -76 -14 9 94
17 139 29 167 8 17 14 40 14 52 0 29 -28 27 -40 -3 -5 -13 -14 -27 -19 -31 -6
-3 -11 -16 -11 -28 0 -13 -6 -31 -14 -42 -23 -34 -39 -162 -32 -259 8 -104 21
-130 46 -95 24 31 37 18 42 -43 5 -65 45 -154 101 -227 l42 -54 0 -146 c1
-131 3 -150 23 -186 42 -78 88 -111 136 -99 38 9 45 -12 32 -101 -10 -74 -13
-80 -36 -83 -31 -3 -122 78 -173 153 -37 56 -137 260 -137 280 0 23 -20 28
-41 9 -10 -9 -19 -22 -19 -28 -1 -19 -47 -69 -59 -62 -27 17 -49 202 -57 496
-8 269 20 535 81 795 32 138 110 345 148 394 32 42 85 67 157 73 34 3 48 18
120 128 53 81 73 107 125 162 115 121 262 231 410 307 95 49 269 106 367 120
40 6 100 15 133 20 94 13 220 12 346 -3z m-721 -953 c0 -66 49 -264 83 -333
26 -54 102 -167 131 -195 12 -11 28 -31 37 -44 19 -29 39 -21 39 16 0 24 78
191 103 222 6 7 16 21 22 31 52 88 166 226 237 288 27 23 51 42 53 42 1 0 40
-37 86 -82 46 -44 113 -100 149 -124 37 -23 71 -49 76 -56 6 -7 11 -134 13
-298 2 -267 1 -295 -24 -455 -43 -270 -55 -394 -64 -648 -6 -156 -13 -242 -21
-252 -6 -8 -9 -23 -5 -35 13 -40 -58 -386 -97 -477 -21 -49 -99 -143 -140
-171 -23 -15 -52 -35 -67 -44 -14 -10 -48 -22 -76 -28 -63 -13 -134 6 -176 46
-38 36 -59 22 -39 -26 12 -28 11 -33 -9 -53 -20 -21 -23 -21 -49 -6 -21 12
-27 22 -26 47 2 40 -16 42 -58 7 -16 -14 -38 -25 -49 -25 -19 0 -19 1 -3 32 9
17 29 49 45 71 35 49 36 65 5 77 -38 14 -156 -6 -183 -32 -34 -32 -14 -45 39
-25 91 35 99 17 32 -72 l-46 -61 -68 0 c-114 0 -236 63 -340 177 -118 129
-151 269 -150 649 0 126 -1 242 -3 259 -3 38 -33 47 -46 12 -11 -29 -61 -52
-96 -43 -17 4 -31 19 -41 41 -16 39 -19 161 -4 170 5 3 32 -15 60 -41 29 -27
55 -44 64 -41 8 3 24 36 35 74 55 185 72 731 32 1034 -11 86 -25 169 -31 184
-6 15 -8 31 -4 34 3 3 61 6 128 6 75 0 128 4 137 11 18 14 69 27 69 17 0 -5
-17 -19 -37 -33 -21 -14 -56 -45 -80 -69 -33 -34 -43 -51 -43 -77 0 -32 28
-64 56 -64 6 0 45 25 87 55 74 54 153 95 185 95 8 0 24 -8 34 -17 11 -10 22
-13 28 -7 16 16 14 78 -3 111 -24 45 -46 54 -104 44 -59 -11 -67 -5 -29 23 17
11 46 36 65 53 46 42 81 44 81 6z m-183 -99 c-3 -3 -12 -4 -19 -1 -8 3 -5 6 6
6 11 1 17 -2 13 -5z m1619 -31 c10 -37 -2 -310 -21 -480 -19 -175 -36 -252
-82 -370 -55 -143 -87 -157 -88 -38 0 53 -2 60 -20 60 -13 0 -22 -10 -28 -30
-5 -16 -16 -43 -24 -60 -9 -16 -26 -51 -39 -76 -23 -45 -48 -67 -58 -50 -3 5
1 44 8 87 8 43 19 110 26 148 16 101 31 434 23 558 -7 120 -2 132 50 142 18 4
75 36 127 71 52 35 101 64 107 64 7 1 16 -11 19 -26z m-2 -959 c14 -35 1 -198
-24 -317 -14 -70 -41 -126 -108 -225 -243 -361 -255 -372 -250 -225 l3 87 49
18 c71 25 90 45 130 138 25 58 36 109 51 236 8 67 19 133 25 148 11 30 101
155 111 156 4 0 10 -7 13 -16z m-242 -186 c9 -113 -10 -266 -40 -328 -22 -43
-33 -56 -54 -58 -24 -3 -27 1 -37 48 -6 28 -11 100 -11 159 l0 108 51 64 c78
98 84 98 91 7z m-665 -2014 c2 -461 9 -615 38 -804 36 -239 39 -254 55 -248 7
2 12 93 15 243 6 306 15 478 25 494 14 24 66 1 120 -52 74 -74 130 -200 160
-362 4 -22 12 -53 19 -68 14 -35 14 -248 0 -302 -5 -22 -14 -57 -20 -78 -14
-58 -51 -109 -179 -251 -185 -206 -367 -375 -545 -507 -130 -97 -141 -99 -216
-32 -248 217 -499 579 -556 802 -8 31 -19 74 -24 96 -16 59 -4 172 25 236 26
59 90 126 175 183 66 45 87 44 84 -4 -1 -19 -5 -105 -9 -190 -3 -85 -11 -163
-16 -173 -5 -9 -6 -22 -2 -28 10 -17 54 31 54 60 0 14 12 60 26 101 38 111 55
169 64 225 4 28 15 88 23 135 8 47 20 126 27 175 7 50 16 115 22 145 6 30 12
87 15 125 2 39 9 113 14 165 5 52 14 153 19 225 6 71 14 132 18 136 12 12 34
13 130 5 83 -7 94 -10 108 -32 22 -32 43 -30 55 6 10 27 16 30 51 30 32 0 46
-6 69 -31 31 -34 49 -31 49 7 0 30 51 57 85 44 20 -7 20 -13 22 -476z"></path>
<path d="M4433 5238 c-29 -22 -53 -47 -53 -55 0 -21 26 -26 52 -9 19 12 28 13
54 2 29 -13 142 -130 192 -201 29 -41 38 -42 68 -14 33 31 21 77 -41 170 -104
155 -176 183 -272 107z"></path>
<path d="M3665 5061 c-85 -15 -188 -89 -225 -162 -24 -47 -27 -131 -5 -149 8
-7 15 -20 15 -29 0 -10 11 -28 24 -40 36 -34 64 -9 33 28 -7 9 -21 35 -30 59
-33 88 23 159 169 213 65 24 122 21 163 -8 48 -35 90 -150 61 -168 -15 -9 -12
-45 3 -45 31 0 47 35 47 102 0 59 -3 69 -39 119 -31 43 -49 58 -87 72 -51 18
-64 19 -129 8z"></path>
<path d="M4400 4988 c-78 -19 -140 -75 -170 -153 -6 -15 -19 -29 -30 -32 -26
-7 -34 -53 -27 -171 8 -144 47 -233 175 -402 40 -53 40 -76 3 -127 -35 -49
-67 -71 -146 -103 -77 -31 -215 -35 -258 -7 -14 9 -33 17 -41 17 -24 0 -78 52
-97 95 -10 22 -19 59 -19 83 0 49 -11 53 -39 13 -16 -22 -21 -44 -21 -91 l0
-62 62 -64 c33 -35 66 -64 72 -64 6 0 25 -8 41 -17 44 -24 270 -25 342 0 134
45 233 154 233 257 0 41 -5 57 -24 78 -149 163 -215 281 -241 426 l-14 81 30
23 c16 13 29 28 29 34 0 21 74 101 106 114 77 32 159 8 206 -61 75 -110 76
-231 3 -279 -21 -14 -24 -20 -14 -32 39 -47 120 38 136 143 12 76 -61 215
-142 270 -43 29 -109 42 -155 31z"></path>
<path d="M3675 4793 c-12 -2 -34 -14 -49 -27 -24 -19 -29 -30 -30 -70 -1 -43
3 -51 36 -82 60 -54 115 -44 173 32 l26 34 -21 40 c-21 41 -72 81 -100 79 -8
-1 -24 -4 -35 -6z"></path>
<path d="M4319 4707 c-44 -38 -54 -70 -39 -118 18 -54 69 -80 131 -69 52 10
79 37 89 89 7 37 4 44 -27 81 -31 36 -39 40 -81 40 -34 0 -54 -6 -73 -23z"></path>
<path d="M3859 4557 c-82 -56 -144 -77 -223 -77 -58 0 -76 -3 -76 -14 0 -31
155 -36 221 -6 61 27 137 95 123 109 -8 8 -20 5 -45 -12z"></path>
<path d="M4357 4474 c-8 -8 26 -52 54 -72 27 -19 131 -43 144 -32 5 4 25 11
43 15 59 12 30 30 -59 35 -70 4 -91 10 -126 33 -47 30 -47 30 -56 21z"></path>
<path d="M4524 3948 c-4 -6 1 -17 11 -24 21 -16 16 -29 -42 -116 -98 -148
-170 -198 -285 -198 -35 0 -84 7 -109 17 -44 15 -49 15 -82 0 -19 -10 -43 -17
-54 -17 -10 -1 -29 -7 -43 -15 -14 -8 -52 -14 -88 -15 -77 0 -129 26 -215 109
-64 62 -115 147 -97 165 18 18 11 35 -21 51 -30 16 -31 15 -69 -17 -44 -38
-50 -58 -17 -58 31 0 43 -10 60 -52 24 -58 96 -146 146 -181 25 -17 50 -37 54
-44 4 -7 21 -13 37 -13 16 0 32 -4 35 -10 10 -16 148 -12 188 5 28 12 74 14
209 12 192 -2 169 -9 281 77 37 28 124 144 156 209 12 24 22 32 41 30 48 -3
53 4 29 39 -12 18 -29 39 -37 46 -20 15 -78 16 -88 0z"></path>
<path d="M4391 3531 c-6 -11 -11 -28 -11 -38 0 -10 -20 -41 -45 -70 -49 -56
-52 -65 -31 -82 11 -9 20 -6 44 14 46 38 70 84 74 139 3 53 -13 72 -31 37z"></path>
<path d="M3808 3144 c-12 -11 12 -34 35 -34 11 0 28 -6 36 -14 25 -22 105 -30
120 -12 10 12 9 17 -8 25 -11 6 -30 11 -43 11 -13 0 -28 4 -34 10 -13 13 -97
24 -106 14z"></path>
<path d="M4308 3109 c-135 -14 -162 -52 -42 -57 54 -2 81 2 117 18 48 21 58
44 21 46 -10 1 -54 -2 -96 -7z"></path>
<path d="M3764 3009 c-12 -20 13 -30 87 -32 70 -2 74 -1 77 21 3 21 1 22 -77
22 -47 0 -83 -5 -87 -11z"></path>
<path d="M4214 2979 c-10 -17 7 -27 61 -32 28 -3 64 -9 81 -12 37 -8 50 5 34
35 -9 17 -21 20 -90 20 -46 0 -82 -5 -86 -11z"></path>
<path d="M4196 2862 c-8 -13 9 -25 64 -45 81 -30 160 -18 160 23 0 18 -7 20
-64 20 -35 0 -83 3 -108 6 -27 4 -48 2 -52 -4z"></path>
<path d="M0 1850 c0 -258 3 -327 14 -339 7 -9 18 -34 24 -56 28 -106 64 -227
86 -295 13 -41 32 -102 41 -135 9 -33 23 -78 30 -100 8 -22 17 -57 21 -78 l6
-37 -111 0 -111 0 0 -125 0 -125 26 -6 c14 -4 73 -4 132 -2 113 6 200 30 253
72 15 12 35 26 45 32 17 10 17 13 2 55 -23 63 -65 206 -78 262 -5 26 -15 55
-20 65 -5 9 -23 64 -40 122 -48 163 -109 367 -134 450 -13 41 -37 120 -54 175
-17 55 -47 152 -66 215 -20 63 -36 122 -36 131 0 9 -7 22 -15 29 -13 11 -15
-25 -15 -310z"></path>
</g>
</svg>