 <svg version="1.0" xmlns="http://www.w3.org/2000/svg" width="700.000000pt" height="438.000000pt" viewBox="0 0 700.000000 438.000000" preserveAspectRatio="xMidYMid meet">
<metadata>
Created by potrace 1.12, written by Peter Selinger 2001-2015
</metadata>
<g transform="translate(0.000000,438.000000) scale(0.100000,-0.100000)" fill="#000000" stroke="none">
<path d="M0 4265 l0 -115 983 0 982 -1 -50 -45 c-27 -25 -68 -57 -90 -71 -67
-43 -105 -84 -152 -171 -46 -85 -66 -96 -62 -34 4 64 -1 112 -11 112 -5 0 -10
-8 -10 -17 0 -10 -10 -38 -21 -63 -18 -39 -22 -42 -29 -25 l-8 20 -7 -20 c-3
-11 -13 -35 -21 -53 -8 -18 -14 -47 -14 -64 0 -42 -13 -27 -35 40 -21 64 -34
67 -27 6 2 -25 -1 -77 -8 -115 -13 -67 -12 -70 13 -120 32 -60 32 -59 10 -59
-32 0 -163 -33 -163 -42 0 -4 9 -8 20 -8 33 0 124 -38 158 -67 l33 -28 -20
-40 c-56 -112 -72 -148 -67 -153 3 -3 16 8 28 24 33 44 85 94 96 94 5 0 17
-28 26 -63 16 -59 16 -66 0 -112 -9 -28 -23 -63 -31 -78 -14 -29 -12 -44 4
-34 5 3 27 42 48 86 35 73 55 98 55 72 0 -5 15 -13 33 -16 39 -9 67 -32 67
-57 0 -10 5 -18 10 -18 14 0 13 15 -5 55 -13 33 -13 35 4 26 20 -11 31 -67 31
-153 0 -27 5 -58 11 -70 9 -17 8 -19 -8 -16 -10 2 -17 10 -15 17 1 7 -3 11
-10 9 -7 -3 -13 -13 -13 -24 0 -15 7 -19 35 -17 37 2 57 -17 75 -72 10 -29 12
-30 61 -27 29 2 55 -1 58 -6 7 -12 -30 -27 -56 -23 -9 1 -19 -3 -23 -9 -9 -14
-35 -13 -30 3 4 9 -14 12 -72 12 -43 0 -84 -4 -91 -8 -14 -10 -16 -57 -2 -57
6 0 10 6 10 14 0 7 7 19 15 26 19 16 19 7 0 -30 -9 -17 -23 -30 -31 -30 -10 0
-14 -6 -10 -15 7 -20 -30 -101 -50 -109 -25 -9 -27 -2 -13 38 11 31 11 38 -5
55 -11 12 -26 48 -35 82 -9 35 -22 64 -30 67 -11 4 -12 0 -6 -14 4 -11 11 -35
15 -56 4 -20 17 -53 28 -72 20 -34 21 -40 8 -89 -8 -30 -17 -88 -21 -130 l-7
-76 49 5 49 6 32 -63 c17 -35 34 -76 38 -91 12 -54 26 -55 142 -15 92 32 119
37 194 37 121 0 123 -1 93 -60 -13 -27 -39 -58 -56 -71 -17 -12 -40 -41 -51
-63 -23 -49 -40 -79 -54 -97 -6 -8 -14 -23 -18 -34 -6 -15 -4 -17 5 -8 14 14
36 51 45 76 3 9 13 17 21 17 14 0 13 -3 0 -22 -9 -13 -29 -42 -44 -65 -15 -24
-32 -43 -36 -43 -5 0 -5 6 -1 13 5 8 2 8 -9 -2 -9 -7 -17 -18 -17 -23 0 -5
-10 -22 -21 -38 -12 -15 -22 -41 -22 -56 1 -40 -132 -308 -163 -333 -18 -14
-34 -18 -55 -14 -33 6 -59 -10 -59 -39 0 -16 -3 -17 -21 -8 -27 15 -53 5 -45
-16 5 -13 1 -15 -19 -11 -23 4 -21 0 19 -38 47 -46 80 -98 73 -118 -2 -7 -13
6 -25 29 -23 45 -84 104 -107 104 -8 0 -33 16 -55 36 -33 30 -43 34 -55 24
-24 -20 -31 -2 -8 21 l21 21 48 -36 c43 -33 49 -35 55 -19 12 30 10 33 -19 33
-16 0 -37 9 -47 20 -19 21 -50 26 -60 10 -10 -15 -35 -12 -35 5 0 8 -4 15 -10
15 -16 0 -12 -29 8 -58 22 -32 65 -174 60 -199 -2 -10 -14 11 -27 47 -27 76
-48 113 -61 105 -4 -3 -11 34 -14 82 -3 49 -8 116 -11 151 -3 50 -1 62 10 62
20 0 19 20 -2 50 -12 17 -13 25 -5 28 17 5 15 22 -3 22 -12 0 -15 13 -15 57 0
45 6 65 30 102 19 31 27 54 23 69 -6 26 -23 29 -23 5 0 -15 -2 -16 -10 -3 -13
20 -13 107 0 115 6 3 10 1 10 -4 0 -6 5 -11 11 -11 8 0 10 13 6 37 -6 34 -3
39 60 97 171 156 154 133 163 216 12 99 12 247 1 254 -7 5 -22 70 -25 111 -1
5 -9 11 -18 13 -22 4 -44 -31 -61 -98 l-14 -54 -67 -1 c-46 0 -66 4 -66 13 0
6 -3 12 -7 12 -15 -1 -48 -31 -48 -43 0 -7 -11 -11 -27 -9 -33 3 -90 -27 -103
-56 -5 -12 -15 -22 -22 -22 -7 0 -13 -8 -13 -18 0 -25 -7 -31 -31 -25 -18 5
-19 7 -4 29 10 15 11 25 4 29 -6 4 -8 13 -5 21 3 8 -1 14 -8 14 -18 0 -46 -33
-46 -55 0 -10 -18 -36 -40 -57 -22 -22 -40 -44 -40 -49 0 -5 -4 -9 -10 -9 -5
0 -10 5 -10 11 0 7 -19 8 -57 3 -66 -7 -73 -11 -53 -25 12 -9 11 -9 -5 -4 -39
15 -75 17 -75 6 0 -7 -9 -9 -25 -5 -17 4 -25 2 -25 -6 0 -9 -11 -11 -34 -7
-18 3 -38 2 -42 -3 -8 -7 -74 0 -150 15 -28 6 -35 2 -87 -57 -31 -34 -57 -68
-57 -75 0 -15 122 -119 150 -128 13 -4 31 1 50 15 16 11 42 25 57 30 45 16
407 70 415 62 4 -4 16 -35 26 -68 14 -47 18 -80 14 -137 -2 -43 2 -128 11
-194 9 -65 19 -200 22 -299 3 -100 10 -210 16 -245 32 -219 37 -264 29 -269
-4 -3 -11 -16 -14 -30 -52 -243 -105 -480 -116 -521 -15 -55 -12 -67 17 -84
l28 -16 -40 6 c-22 3 -62 13 -88 22 -33 10 -52 12 -59 5 -11 -11 -6 -15 45
-31 32 -11 37 -17 37 -42 0 -16 -7 -45 -14 -64 l-15 -35 -195 0 -194 0 -7 108
c-13 185 -19 235 -33 240 -6 2 -16 -7 -21 -20 l-10 -23 0 23 c-1 25 -26 29
-55 7 -17 -13 -17 -22 -7 -146 6 -72 11 -145 11 -160 l0 -29 -165 0 -165 0 0
-110 0 -110 3500 0 3500 0 0 110 0 109 -157 3 -158 3 4 100 c2 55 8 106 13
113 6 7 27 11 49 10 21 -2 38 2 39 7 0 6 -18 11 -40 13 l-40 3 0 57 c1 31 7
71 14 87 9 21 10 36 3 53 -7 16 -7 26 0 33 16 16 35 1 28 -22 -4 -11 -2 -19 4
-19 18 0 12 35 -9 63 -17 22 -20 35 -14 75 4 31 2 52 -4 56 -12 7 -26 -11 -27
-34 0 -10 -12 -16 -32 -18 -32 -3 -44 10 -23 23 6 3 10 18 10 33 0 47 11 72
31 72 12 0 23 -10 29 -25 11 -28 28 -33 37 -10 8 21 -23 53 -56 57 -18 2 -27
10 -29 26 -4 28 23 40 51 23 14 -10 22 -10 31 -1 17 18 -22 41 -64 38 -29 -2
-36 -7 -38 -28 -2 -14 -8 -30 -14 -37 -5 -7 -7 -25 -3 -41 3 -16 -1 -48 -9
-73 -8 -24 -21 -82 -29 -129 -12 -70 -13 -89 -2 -110 15 -29 9 -116 -9 -128
-6 -4 -23 -7 -38 -7 -36 0 -37 -18 -1 -26 74 -16 73 -14 73 -99 0 -115 -6
-136 -38 -135 -24 0 -34 13 -90 123 -68 132 -86 146 -119 96 -16 -25 -16 -28
30 -120 35 -70 44 -96 34 -100 -7 -2 -60 -3 -117 -2 l-103 3 -34 90 c-68 175
-85 220 -94 251 -12 40 -32 57 -59 49 -28 -9 -25 -25 4 -25 27 0 47 -21 27
-28 -7 -2 -23 -14 -36 -26 l-23 -21 54 -140 c30 -77 54 -143 54 -148 0 -4
-247 -6 -550 -5 -542 3 -550 3 -570 24 -18 17 -19 25 -10 45 6 13 32 105 59
204 27 99 54 194 61 210 20 45 23 9 5 -55 -36 -129 -95 -365 -95 -377 0 -24
20 -13 26 15 12 52 74 298 100 392 l25 95 -21 17 c-47 38 -79 15 -99 -72 -14
-62 -102 -373 -108 -379 -2 -2 -13 1 -26 8 -17 9 -30 9 -62 -2 -38 -13 -40
-16 -41 -59 0 -24 -4 -50 -8 -56 -4 -8 -37 -12 -87 -12 -78 0 -80 1 -77 23 3
19 8 22 46 19 50 -4 56 11 10 24 -29 9 -33 14 -30 39 8 76 35 249 54 340 28
138 37 205 32 220 -8 19 -57 26 -72 11 -7 -7 -33 -111 -58 -232 -66 -325 -65
-311 -40 -328 32 -21 12 -30 -39 -17 -46 12 -70 8 -60 -10 4 -5 16 -9 29 -9
26 0 56 -28 56 -52 0 -9 -10 -18 -22 -22 -30 -8 -413 -8 -421 0 -3 3 19 78 49
166 53 154 59 194 23 172 -8 -4 -25 -8 -39 -8 -19 -1 -26 -7 -28 -26 -2 -14
-12 -54 -22 -90 -11 -36 -29 -98 -40 -137 -25 -87 -21 -85 -175 -81 -104 3
-110 4 -107 23 7 35 20 44 55 34 47 -13 58 6 13 25 -20 8 -36 19 -36 24 0 20
54 278 86 409 19 79 34 152 34 164 0 16 4 19 18 14 22 -9 379 -42 545 -51 196
-11 154 10 -50 24 -241 18 -471 42 -544 58 -31 7 -69 -27 -69 -60 0 -11 -4
-33 -9 -50 -5 -17 -23 -92 -41 -166 -18 -74 -38 -155 -45 -180 -8 -25 -17 -64
-20 -87 -6 -35 -4 -43 9 -43 9 0 16 -7 16 -15 0 -17 -21 -20 -35 -6 -14 13
-69 18 -75 6 -3 -5 11 -15 30 -21 42 -14 55 -33 46 -67 -4 -17 -14 -27 -33
-31 -16 -3 -146 -5 -291 -5 -242 1 -263 2 -257 17 21 51 9 226 -31 441 -11 61
-13 111 -8 187 4 57 10 104 14 104 4 0 10 -42 13 -92 3 -53 20 -157 40 -243
35 -145 54 -261 60 -355 3 -44 3 -45 15 -17 14 32 -5 191 -39 322 -47 182 -60
268 -58 380 2 104 5 118 52 250 82 233 87 254 94 370 6 124 -6 240 -41 378
-38 150 -174 477 -198 477 -5 0 -8 -6 -5 -12 159 -358 209 -524 224 -741 8
-126 -8 -207 -82 -427 -104 -308 -143 -429 -180 -564 -19 -71 -37 -131 -40
-134 -20 -20 16 186 45 252 37 87 101 307 136 471 19 88 41 189 49 225 22 99
16 283 -10 284 -5 1 -29 -64 -53 -144 -24 -80 -52 -163 -63 -185 -21 -44 -21
-42 17 115 13 58 27 148 31 200 5 86 3 101 -19 155 -13 33 -56 110 -96 172
-40 61 -72 120 -72 131 0 25 32 117 59 170 17 33 21 57 19 104 -2 36 -8 63
-15 65 -6 2 -131 -114 -277 -258 -146 -144 -266 -257 -266 -250 0 17 131 162
258 288 l114 112 -21 64 c-25 73 -105 218 -162 293 -30 39 -41 64 -46 104 l-6
52 39 -17 c21 -9 42 -19 45 -23 3 -4 23 -32 45 -62 21 -30 62 -82 90 -115 27
-33 66 -89 85 -125 18 -36 35 -67 36 -69 5 -8 73 50 84 71 10 18 8 24 -11 40
-25 20 -22 22 14 8 14 -5 26 -16 26 -24 0 -8 5 -27 10 -42 8 -20 14 -24 22
-16 8 8 8 15 0 24 -5 7 -12 26 -14 43 -3 26 -8 30 -47 38 -33 7 -46 5 -53 -5
-7 -10 -11 -10 -21 4 -9 11 -21 15 -35 12 -26 -7 -85 50 -170 166 -74 101 -83
153 -21 119 18 -9 19 -7 13 15 -5 23 -3 26 19 26 14 0 37 -4 51 -10 32 -12 45
5 16 20 -29 15 -14 33 21 25 47 -11 33 10 -18 26 -26 8 -48 19 -49 24 -2 6 29
26 69 46 39 20 73 42 75 49 3 9 -2 10 -19 4 -43 -16 -112 -10 -141 11 -37 27
-30 39 26 43 52 3 60 25 12 30 -15 2 -26 6 -24 10 2 4 35 37 73 74 72 69 113
87 193 88 17 0 32 5 32 10 0 13 -97 60 -122 60 -24 0 -23 -17 2 -25 22 -7 26
-20 9 -30 -5 -4 -18 0 -28 9 -9 9 -31 21 -48 26 -24 9 -30 17 -29 36 1 24 19
33 31 14 9 -15 88 -13 83 3 -5 14 -115 39 -140 31 -23 -7 -33 14 -16 34 8 9
28 48 43 86 16 38 42 86 57 107 15 21 24 40 20 43 -4 2 -29 -6 -55 -19 -46
-22 -79 -17 -37 5 35 19 13 28 -57 23 -67 -5 -86 0 -215 52 -11 4 -18 3 -18
-4 0 -7 28 -25 63 -41 46 -22 77 -30 119 -30 67 0 82 -14 34 -30 -45 -14 -97
-4 -144 28 -20 14 -62 37 -92 51 -53 25 -54 26 -25 29 17 2 35 8 40 12 6 5 34
12 63 16 97 13 62 29 -102 49 -153 18 -278 17 -298 -3 -6 -6 45 -11 151 -14
143 -3 184 -9 170 -22 -2 -3 -84 -2 -182 1 -135 5 -175 9 -167 18 5 6 7 15 3
18 -3 4 7 24 24 45 16 20 32 45 36 55 6 16 129 17 2392 17 l2385 0 0 115 0
115 -3500 0 -3500 0 0 -115z m2210 -120 c0 -12 -83 -45 -131 -51 -30 -4 -71
-13 -93 -20 -56 -20 -58 -18 -34 31 l23 44 118 1 c64 0 117 -2 117 -5z m-540
-897 c29 -60 41 -113 21 -92 -16 17 -69 154 -60 154 6 0 23 -28 39 -62z m224
-421 c15 -34 15 -38 1 -44 -9 -3 -21 -1 -28 6 -14 14 -22 131 -11 168 7 24 9
20 14 -32 4 -33 14 -77 24 -98z m424 -139 c17 -35 40 -69 51 -76 40 -24 22
-32 -69 -32 -53 0 -90 -4 -90 -10 0 -6 43 -10 110 -10 81 0 110 3 110 13 0 8
3 7 10 -3 6 -10 5 -17 -4 -22 -7 -4 -98 -12 -202 -18 -104 -5 -236 -13 -293
-17 -87 -5 -103 -4 -99 8 3 10 25 15 71 17 37 2 67 7 67 12 0 12 -118 12 -177
1 -61 -12 -70 -3 -55 56 7 26 20 54 29 61 10 7 46 12 84 12 72 0 85 -8 91 -54
3 -30 31 -56 45 -42 4 4 0 12 -10 17 -9 6 -17 18 -17 29 0 10 -11 32 -25 48
-14 17 -22 33 -17 36 17 10 52 -25 62 -64 13 -50 31 -51 67 -4 15 20 29 31 31
25 3 -8 16 -4 39 10 54 34 126 68 144 68 11 1 28 -22 47 -61z m256 -155 c1
-45 -4 -77 -11 -84 -11 -10 -13 8 -13 92 1 84 3 100 12 84 7 -11 12 -52 12
-92z m-1603 -105 c-5 -13 -17 -25 -27 -27 -17 -3 -16 0 5 23 30 32 33 32 22 4z
m1345 -29 c3 -6 -9 -27 -29 -47 -19 -21 -47 -59 -62 -85 -18 -32 -30 -44 -35
-36 -18 28 -184 37 -270 14 -111 -30 -133 -20 -146 63 -8 50 -18 47 236 77
213 26 296 30 306 14z m-1453 -16 c-7 -2 -21 -2 -30 0 -10 3 -4 5 12 5 17 0
24 -2 18 -5z m1687 -153 c-8 -5 -24 -10 -35 -10 -17 0 -17 2 -5 10 8 5 24 10
35 10 17 0 17 -2 5 -10z m-596 -425 c-4 -8 -11 -15 -16 -15 -6 0 -5 6 2 15 7
8 14 15 16 15 2 0 1 -7 -2 -15z m164 -64 c-8 -79 -175 -367 -315 -543 -86
-108 -81 -86 12 57 94 143 236 408 276 513 16 41 32 25 27 -27z m162 -1 c-5
-22 -8 -27 -9 -13 -1 21 9 56 14 51 2 -2 0 -19 -5 -38z m-13 -77 c-3 -10 -5
-4 -5 12 0 17 2 24 5 18 2 -7 2 -21 0 -30z m-557 -348 c-40 -41 -70 -57 -70
-37 1 7 100 82 109 82 3 0 -15 -20 -39 -45z m-290 -297 c0 -26 -4 -50 -10 -53
-6 -4 -10 19 -10 62 0 48 3 63 10 53 5 -8 10 -36 10 -62z m-282 -205 c5 -16
16 -46 24 -68 l14 -40 72 2 c40 1 72 -1 72 -5 0 -9 -303 -312 -312 -312 -9 0
-3 35 33 190 39 163 68 260 78 260 5 0 13 -12 19 -27z m3982 -38 c13 -16 6
-35 -15 -35 -18 0 -28 17 -21 35 7 19 20 19 36 0z m1585 -35 c0 -9 -11 -16
-27 -18 -30 -4 -31 -2 -22 23 8 20 49 16 49 -5z m-1635 -55 c0 -8 -4 -15 -10
-15 -5 0 -10 7 -10 15 0 8 5 15 10 15 6 0 10 -7 10 -15z m1621 -58 c-6 -8 -8
-17 -4 -20 3 -4 -2 -9 -11 -13 -9 -4 -19 -4 -22 -1 -9 8 20 47 35 47 10 0 11
-3 2 -13z m-1641 -17 c0 -5 -4 -10 -10 -10 -5 0 -10 5 -10 10 0 6 5 10 10 10
6 0 10 -4 10 -10z m1630 -60 c0 -11 -4 -20 -9 -20 -5 0 -11 9 -14 20 -3 13 0
20 9 20 8 0 14 -9 14 -20z m-1654 -27 c-11 -11 -19 6 -11 24 8 17 8 17 12 0 3
-10 2 -21 -1 -24z m1604 -28 c0 -8 -4 -15 -10 -15 -5 0 -10 7 -10 15 0 8 5 15
10 15 6 0 10 -7 10 -15z m-1613 -9 c-8 -20 -67 -225 -67 -232 0 -3 -4 -3 -9 0
-9 6 -3 37 24 121 8 28 20 67 26 88 5 20 15 37 20 37 6 0 9 -6 6 -14z m1653 4
c0 -5 -4 -10 -10 -10 -5 0 -10 5 -10 10 0 6 5 10 10 10 6 0 10 -4 10 -10z
m-6260 -39 c0 -17 -5 -33 -10 -36 -7 -4 -7 -11 -2 -18 11 -14 23 -87 15 -87
-4 0 -19 14 -34 32 -24 25 -28 40 -27 79 1 48 6 54 46 58 7 1 12 -11 12 -28z
m1625 -71 c-9 -28 -19 -49 -22 -46 -3 2 3 28 12 56 9 28 19 49 22 46 3 -2 -3
-28 -12 -56z m4390 30 c-3 -5 -10 -10 -16 -10 -5 0 -9 5 -9 10 0 6 7 10 16 10
8 0 12 -4 9 -10z m30 -67 c8 -21 7 -23 -2 -22 -5 1 -7 5 -5 10 1 5 -2 9 -8 9
-5 0 -10 5 -10 10 0 17 17 11 25 -7z m-1555 -27 c19 -24 8 -61 -19 -64 -45 -7
-69 51 -28 68 31 12 33 12 47 -4z m1580 -26 c0 -5 -4 -10 -10 -10 -5 0 -10 5
-10 10 0 6 5 10 10 10 6 0 10 -4 10 -10z m20 -24 c0 -11 -19 -15 -25 -6 -3 5
1 10 9 10 9 0 16 -2 16 -4z m10 -30 c0 -3 -4 -8 -10 -11 -5 -3 -10 -1 -10 4 0
6 5 11 10 11 6 0 10 -2 10 -4z"></path>
<path d="M2180 2693 c-18 -7 -120 -82 -120 -88 0 -10 38 11 88 48 28 22 52 41
52 43 0 4 1 5 -20 -3z"></path>
<path d="M2030 2560 c0 -6 32 -10 75 -10 43 0 75 4 75 10 0 6 -32 10 -75 10
-43 0 -75 -4 -75 -10z"></path>
<path d="M2249 2348 c-27 -37 -51 -79 -46 -84 1 -1 13 14 27 34 13 20 33 47
44 60 11 12 15 22 10 22 -6 0 -21 -15 -35 -32z"></path>
<path d="M5 3105 c0 -550 1 -776 2 -503 2 273 2 723 0 1000 -1 277 -2 53 -2
-497z"></path>
<path d="M1740 2980 c0 -5 5 -10 10 -10 6 0 10 5 10 10 0 6 -4 10 -10 10 -5 0
-10 -4 -10 -10z"></path>
<path d="M3410 2613 c0 -10 440 -27 449 -17 12 12 -24 15 -228 21 -145 4 -221
3 -221 -4z"></path>
<path d="M1092 2577 c-12 -13 -22 -27 -22 -31 0 -10 59 36 59 47 2 14 -16 7
-37 -16z"></path>
<path d="M3900 2590 c0 -5 23 -10 50 -10 28 0 50 5 50 10 0 6 -22 10 -50 10
-27 0 -50 -4 -50 -10z"></path>
<path d="M3034 2566 c-3 -12 -4 -42 -2 -66 l3 -43 75 1 c41 1 143 5 225 8 196
8 594 -10 898 -41 133 -13 303 -29 377 -35 208 -17 537 -66 845 -125 154 -30
372 -71 485 -90 113 -20 210 -37 215 -38 6 -1 11 3 13 8 1 6 -21 22 -50 38
-39 21 -53 24 -60 15 -5 -9 -8 -7 -9 7 0 11 -3 15 -5 9 -3 -8 -36 -1 -101 22
-285 102 -805 196 -1541 279 -123 13 -227 27 -231 30 -15 9 -588 36 -863 40
l-268 4 -6 -23z"></path>
<path d="M4050 2580 c0 -5 18 -10 40 -10 22 0 40 5 40 10 0 6 -18 10 -40 10
-22 0 -40 -4 -40 -10z"></path>
<path d="M4170 2574 c0 -5 118 -22 263 -38 298 -32 614 -76 765 -107 89 -18
128 -20 111 -5 -19 16 -532 94 -864 131 -232 26 -275 28 -275 19z"></path>
<path d="M2867 2532 c-38 -39 -34 -48 8 -16 33 25 45 44 27 44 -5 0 -20 -13
-35 -28z"></path>
<path d="M5330 2410 c0 -5 7 -10 15 -10 8 0 15 5 15 10 0 6 -7 10 -15 10 -8 0
-15 -4 -15 -10z"></path>
<path d="M5380 2400 c0 -5 7 -10 15 -10 8 0 15 5 15 10 0 6 -7 10 -15 10 -8 0
-15 -4 -15 -10z"></path>
<path d="M5430 2390 c0 -5 7 -10 15 -10 8 0 15 5 15 10 0 6 -7 10 -15 10 -8 0
-15 -4 -15 -10z"></path>
<path d="M5480 2380 c0 -5 5 -10 10 -10 6 0 10 5 10 10 0 6 -4 10 -10 10 -5 0
-10 -4 -10 -10z"></path>
<path d="M5520 2370 c0 -5 7 -10 15 -10 8 0 15 5 15 10 0 6 -7 10 -15 10 -8 0
-15 -4 -15 -10z"></path>
<path d="M5650 2340 c0 -5 5 -10 10 -10 6 0 10 5 10 10 0 6 -4 10 -10 10 -5 0
-10 -4 -10 -10z"></path>
<path d="M5690 2330 c0 -5 9 -10 19 -10 11 0 72 -16 135 -35 125 -38 135 -40
121 -26 -11 11 -238 81 -261 81 -8 0 -14 -4 -14 -10z"></path>
<path d="M1536 2304 c-9 -24 -7 -28 9 -14 17 14 20 30 6 30 -5 0 -12 -7 -15
-16z"></path>
<path d="M1445 2210 c-10 -11 -14 -20 -8 -20 5 0 18 9 28 20 10 11 14 20 8 20
-5 0 -18 -9 -28 -20z"></path>
<path d="M1390 2165 c-7 -8 -8 -15 -2 -15 5 0 15 7 22 15 7 8 8 15 2 15 -5 0
-15 -7 -22 -15z"></path>
<path d="M2115 2119 c-4 -6 -5 -12 -2 -15 2 -3 7 2 10 11 7 17 1 20 -8 4z"></path>
<path d="M0 2057 c1 -27 898 -427 957 -427 31 0 8 17 -60 44 -172 68 -409 168
-497 208 -36 17 -90 42 -120 56 -30 13 -91 42 -135 64 -122 60 -145 69 -145
55z"></path>
<path d="M1290 1995 c0 -8 5 -15 10 -15 6 0 10 7 10 15 0 8 -4 15 -10 15 -5 0
-10 -7 -10 -15z"></path>
<path d="M4 1815 c0 -66 1 -92 3 -57 2 34 2 88 0 120 -2 31 -3 3 -3 -63z"></path>
<path d="M1847 1668 c-17 -29 -57 -93 -87 -143 -52 -85 -57 -90 -93 -93 -27
-2 -42 -10 -53 -28 -10 -15 -23 -23 -33 -20 -18 6 -58 -20 -48 -30 4 -4 13 -2
20 5 8 6 22 9 31 5 11 -4 23 3 37 20 13 17 30 26 49 26 15 0 37 8 49 18 20 16
145 224 162 270 14 37 1 25 -34 -30z"></path>
<path d="M1304 1539 c3 -17 6 -47 6 -65 0 -19 5 -34 10 -34 6 0 10 11 10 25 0
14 2 25 5 25 3 0 52 -16 109 -35 106 -35 136 -41 136 -27 0 4 -57 26 -127 48
-120 37 -128 41 -131 67 -2 15 -8 27 -14 27 -6 0 -8 -12 -4 -31z"></path>
<path d="M3172 1038 c5 -14 40 -21 391 -74 220 -33 273 -37 255 -19 -3 3 -113
21 -244 40 -132 20 -274 42 -318 50 -94 18 -89 18 -84 3z"></path>
<path d="M6848 937 c-72 -11 -92 -27 -33 -27 56 0 185 22 185 31 0 11 -63 9
-152 -4z"></path>
<path d="M6505 899 c-247 -28 -579 -39 -1137 -39 -345 0 -588 -4 -588 -9 0
-25 1133 -22 1475 4 285 21 338 28 343 43 2 6 -2 11 -10 11 -7 -1 -44 -5 -83
-10z"></path>
<path d="M3381 669 c-20 -8 -23 -14 -18 -42 2 -17 15 -107 28 -199 13 -93 27
-168 32 -168 4 0 7 14 7 30 0 17 5 30 10 30 6 0 10 -9 10 -19 0 -35 12 -51 36
-51 13 0 24 5 24 10 0 6 -9 10 -20 10 -11 0 -20 5 -20 10 0 6 7 10 15 10 18 0
18 5 0 105 -8 44 -20 121 -26 170 -7 60 -16 94 -27 103 -18 14 -19 14 -51 1z
m39 -29 c0 -19 -20 -27 -33 -13 -8 7 11 33 24 33 5 0 9 -9 9 -20z m-10 -67 c0
-5 7 -48 15 -98 17 -103 18 -135 7 -135 -5 0 -14 42 -21 93 -7 50 -15 104 -18
120 -3 16 -1 27 6 27 6 0 11 -3 11 -7z m70 -243 c0 -5 -4 -10 -10 -10 -5 0
-10 5 -10 10 0 6 5 10 10 10 6 0 10 -4 10 -10z"></path>
<path d="M5985 577 c-4 -10 -5 -21 -1 -24 10 -10 18 4 13 24 -4 17 -4 17 -12
0z"></path>
<path d="M900 470 c0 -5 5 -10 10 -10 6 0 10 5 10 10 0 6 -4 10 -10 10 -5 0
-10 -4 -10 -10z"></path>
</g>
</svg>