 <svg version="1.0" xmlns="http://www.w3.org/2000/svg" width="700.000000pt" height="490.000000pt" viewBox="0 0 700.000000 490.000000" preserveAspectRatio="xMidYMid meet">
<metadata>
Created by potrace 1.12, written by Peter Selinger 2001-2015
</metadata>
<g transform="translate(0.000000,490.000000) scale(0.100000,-0.100000)" fill="#000000" stroke="none">
<path d="M3296 4865 c-9 -19 -21 -37 -26 -40 -10 -6 -70 -93 -70 -102 0 -3
-14 -23 -31 -44 -17 -22 -44 -66 -60 -99 -21 -44 -34 -60 -49 -60 -11 0 -75
11 -143 24 -67 13 -178 31 -247 40 -69 9 -156 22 -195 28 -47 8 -227 12 -550
12 -557 0 -530 4 -565 -91 -11 -32 -27 -71 -34 -88 -8 -16 -44 -106 -81 -200
-37 -93 -73 -183 -80 -200 -8 -16 -39 -95 -70 -175 -31 -80 -62 -158 -69 -175
-7 -16 -19 -46 -26 -65 -7 -19 -24 -59 -37 -88 -12 -29 -23 -56 -23 -61 0 -7
-12 -38 -50 -126 -5 -11 -16 -39 -26 -62 -19 -47 -30 -53 -144 -78 -401 -89
-720 -178 -720 -201 0 -18 8 -18 61 2 24 8 87 26 139 40 52 13 111 29 130 34
41 11 355 86 448 106 14 3 22 0 22 -9 0 -10 20 -16 66 -21 78 -8 124 -29 124
-55 0 -27 -25 -35 -115 -36 l-80 0 -42 -42 c-36 -36 -49 -43 -82 -43 -42 0
-63 -16 -40 -31 15 -10 62 -7 91 5 15 7 15 4 2 -34 -29 -83 -40 -96 -96 -113
-146 -44 -266 -80 -293 -87 -16 -4 -75 -22 -130 -40 -55 -17 -124 -38 -152
-47 -30 -9 -53 -22 -53 -29 0 -18 20 -18 67 0 21 8 85 29 143 47 58 17 144 44
192 60 128 41 248 72 255 66 3 -3 -11 -50 -32 -104 -41 -107 -121 -306 -135
-338 -5 -11 -34 -85 -65 -165 -31 -80 -60 -154 -65 -165 -5 -11 -19 -45 -30
-75 -11 -30 -25 -64 -30 -75 -5 -11 -27 -65 -48 -120 -22 -55 -64 -161 -93
-235 l-54 -135 -43 -1 c-49 -1 -67 -12 -34 -21 29 -7 28 -26 -3 -80 -23 -38
-25 -52 -23 -127 l3 -85 34 82 c19 45 56 134 82 197 26 63 73 180 104 260 65
168 84 217 96 245 33 78 116 283 139 345 31 85 146 374 159 405 5 11 24 58 42
105 18 47 43 109 56 138 12 29 23 57 23 62 0 6 4 18 9 28 5 9 17 40 28 67 l19
50 96 5 c101 5 138 21 138 61 0 30 -56 68 -111 75 -27 4 -52 10 -55 15 -4 7
17 64 76 204 5 11 23 56 40 100 18 44 36 89 41 100 4 11 47 119 94 240 47 121
90 229 95 240 35 76 173 425 177 447 7 37 28 52 77 55 177 11 726 14 869 4
313 -21 603 -69 862 -144 106 -30 400 -161 665 -295 242 -124 238 -119 199
-209 -11 -26 -41 -102 -66 -168 -25 -66 -51 -133 -59 -150 -7 -16 -27 -66 -44
-110 -17 -44 -35 -89 -39 -100 -5 -11 -23 -56 -41 -100 -17 -44 -35 -89 -40
-100 -5 -11 -20 -49 -33 -85 -57 -148 -119 -306 -127 -325 -5 -11 -23 -56 -40
-100 -17 -44 -35 -89 -40 -100 -5 -11 -30 -74 -55 -140 -25 -66 -50 -129 -55
-140 -5 -11 -29 -72 -54 -135 -108 -279 -177 -456 -186 -475 -5 -11 -23 -56
-40 -100 -18 -44 -36 -89 -41 -100 -5 -11 -36 -92 -69 -179 -87 -228 -110
-288 -121 -311 -5 -11 -47 -121 -94 -245 -95 -250 -113 -293 -123 -288 -319
156 -586 257 -902 342 -52 15 -111 31 -130 36 -19 6 -55 14 -80 19 -25 5 -79
16 -120 24 -180 37 -407 65 -715 86 -193 14 -745 15 -745 1 0 -5 16 -10 35
-10 19 0 35 -4 35 -10 0 -5 -16 -10 -35 -10 -34 0 -35 -1 -35 -40 l0 -40 268
0 c396 -1 879 -40 1097 -90 22 -5 87 -16 145 -25 58 -9 159 -29 225 -45 66
-16 172 -41 235 -55 63 -15 123 -31 132 -36 10 -5 24 -9 31 -9 18 0 258 -79
271 -89 6 -5 25 -11 41 -15 17 -4 62 -22 100 -41 55 -25 92 -35 170 -43 112
-12 262 -8 345 9 75 15 659 16 885 1 226 -15 479 -48 665 -87 41 -8 98 -19
125 -25 165 -31 211 -43 440 -112 77 -24 344 -122 363 -134 2 -1 -5 -23 -17
-48 l-20 -46 39 0 38 0 26 81 c27 84 33 129 16 129 -5 0 -10 -5 -10 -12 0 -6
-2 -9 -5 -6 -7 7 46 167 96 293 23 55 48 118 56 140 9 22 19 49 24 60 5 11 29
72 54 135 25 63 50 124 55 135 5 11 30 74 55 140 46 122 50 131 79 197 9 20
16 43 16 51 0 9 4 18 9 22 5 3 12 18 16 33 3 15 14 38 25 52 l18 24 109 -109
c143 -146 285 -303 390 -435 82 -102 331 -490 315 -490 -4 0 -215 0 -468 0
-419 0 -463 -1 -475 -16 -26 -31 -24 -424 2 -424 5 0 10 93 11 208 l3 207 459
2 c252 1 461 4 463 7 3 3 14 1 25 -5 20 -11 58 -3 58 12 0 5 -9 9 -19 9 -13 0
-33 24 -64 78 -25 42 -67 110 -94 150 -26 41 -52 81 -58 90 -22 36 -145 201
-199 267 -102 124 -178 207 -318 350 l-137 140 25 60 c14 33 34 79 45 103 12
24 18 46 15 49 -4 4 -43 19 -88 33 -91 29 -115 52 -83 76 24 18 113 11 187
-14 50 -17 69 -12 48 13 -9 11 -10 15 0 15 19 0 205 -167 335 -302 156 -161
255 -272 349 -393 57 -72 56 -72 56 -44 0 64 -446 547 -673 729 -31 25 -56 52
-56 60 0 8 8 33 19 55 11 22 19 46 20 53 0 7 4 20 10 30 5 9 16 35 25 57 22
52 38 93 56 133 l14 33 95 -1 c52 -1 159 -4 238 -7 168 -7 177 -12 142 -87
-11 -25 -20 -48 -20 -51 0 -8 -26 -70 -42 -99 -11 -21 -48 -158 -53 -198 -2
-16 -1 -28 3 -28 10 0 44 52 87 135 41 75 68 124 109 195 22 39 26 56 26 133
l0 87 -202 1 c-112 1 -212 3 -223 4 -11 1 -41 2 -67 3 -42 2 -48 5 -48 23 0
12 6 35 14 52 8 18 29 68 46 112 18 44 36 89 40 100 5 11 23 56 40 100 18 44
36 89 40 100 5 11 30 74 55 140 49 128 120 307 135 340 5 11 23 56 41 100 17
44 37 94 45 112 8 17 14 41 14 54 0 13 14 37 31 55 37 38 31 55 -19 52 -23 -2
-37 2 -40 12 -10 30 -51 58 -132 89 -179 69 -361 133 -475 165 -33 10 -71 22
-85 27 -64 23 -302 72 -510 104 -58 10 -106 18 -108 19 -8 9 489 15 798 11
201 -3 420 -3 488 1 l122 6 0 27 0 27 -337 -2 c-1356 -10 -1782 -15 -1948 -25
-104 -6 -323 -9 -485 -7 l-295 3 -185 91 c-216 106 -267 130 -375 174 -120 48
-146 58 -190 71 -58 19 -63 27 -19 34 22 3 64 10 94 15 30 5 84 11 120 15 65
6 175 28 239 47 64 20 9 28 -186 28 -105 0 -198 3 -207 6 -25 9 -19 51 8 69
15 10 71 22 138 29 62 8 99 14 82 15 -55 2 -144 23 -155 37 -16 20 -2 82 21
97 23 14 26 27 6 27 -7 0 -21 -16 -30 -35z m2154 -776 c180 -18 440 -56 535
-79 22 -5 72 -17 110 -26 77 -17 294 -83 395 -119 36 -12 88 -30 115 -40 28
-9 64 -23 80 -29 17 -7 57 -23 90 -36 87 -33 90 -38 66 -91 -29 -65 -45 -105
-76 -189 -15 -41 -33 -88 -40 -105 -7 -16 -20 -50 -28 -75 -15 -44 -59 -154
-77 -195 -5 -11 -32 -83 -60 -160 -28 -77 -61 -162 -72 -190 -31 -77 -34 -84
-68 -175 -17 -47 -38 -98 -45 -115 -7 -16 -20 -50 -28 -75 -8 -25 -21 -58 -27
-75 -21 -50 -125 -323 -155 -405 l-13 -35 -59 3 c-48 3 -63 0 -86 -18 -15 -12
-27 -30 -27 -41 0 -28 44 -69 75 -69 47 0 47 -3 -42 -230 -13 -36 -32 -83 -40
-105 -9 -22 -19 -49 -24 -60 -17 -38 -61 -160 -66 -183 -3 -12 -9 -25 -14 -28
-5 -3 -9 -12 -9 -21 0 -8 -6 -29 -14 -46 -8 -18 -31 -77 -51 -132 -20 -55 -46
-122 -57 -150 -11 -27 -27 -68 -35 -90 -9 -22 -21 -53 -28 -70 -7 -16 -23 -59
-35 -95 -13 -36 -42 -116 -66 -178 -24 -63 -44 -120 -44 -127 0 -23 -19 -28
-53 -14 -45 17 -139 58 -159 70 -10 5 -23 9 -29 9 -6 0 -25 6 -42 14 -31 14
-139 47 -262 82 -33 9 -71 20 -85 24 -14 5 -83 23 -155 40 -71 17 -148 35
-170 40 -36 9 -198 35 -365 60 -214 31 -649 41 -848 20 -348 -38 -463 -55
-555 -82 -38 -11 -71 -17 -74 -14 -3 3 3 27 15 53 11 26 56 142 101 258 159
416 445 1145 472 1202 10 24 19 45 19 48 0 6 86 230 100 260 6 11 30 74 55
140 25 66 50 129 55 140 5 11 30 74 55 140 25 66 52 134 60 150 7 17 25 62 39
100 15 39 30 79 35 90 5 11 15 36 21 55 7 19 19 49 26 65 12 29 42 103 105
263 16 42 34 86 38 97 5 11 16 40 26 65 10 25 21 54 26 65 4 11 34 85 65 165
31 80 63 152 70 160 27 28 320 67 759 100 126 9 435 4 575 -11z m-1285 -43
c-25 -8 -47 -9 -57 -4 -29 14 -21 18 40 17 l57 -1 -40 -12z m2710 -403 c-4
-21 -10 -42 -14 -48 -4 -5 -23 -46 -41 -90 -39 -92 -50 -109 -50 -74 0 14 4
29 8 34 5 6 26 56 47 113 39 103 63 135 50 65z m48 -18 c-35 -42 -63 -48 -38
-7 22 34 45 53 57 46 5 -3 -4 -21 -19 -39z m-16 -67 c-87 -200 -167 -398 -321
-793 -37 -93 -70 -179 -75 -190 -5 -11 -16 -40 -26 -65 -10 -25 -28 -69 -41
-98 -13 -29 -24 -57 -24 -62 0 -5 -13 -37 -29 -72 -40 -88 -141 -344 -141
-358 0 -22 -31 -70 -45 -70 -23 0 -27 18 -11 62 28 81 66 183 75 203 33 74 41
95 41 107 0 8 4 18 8 23 5 6 23 51 41 100 18 50 37 99 41 110 4 11 14 38 23
60 8 22 22 58 30 80 118 301 277 722 289 763 5 17 14 32 19 32 9 0 7 -17 -9
-59 -3 -8 0 -12 8 -9 7 2 21 26 30 54 31 90 91 194 112 194 5 0 8 -6 5 -12z
m-751 -1842 c3 -8 -3 -34 -14 -58 -11 -23 -29 -70 -41 -103 -13 -33 -29 -73
-36 -90 -32 -70 -54 -125 -80 -195 -15 -41 -31 -84 -36 -95 -4 -11 -22 -56
-39 -100 -18 -44 -36 -89 -41 -100 -4 -11 -29 -74 -54 -140 -26 -66 -50 -129
-55 -140 -5 -11 -23 -56 -40 -100 -17 -44 -37 -93 -44 -110 -8 -16 -32 -82
-56 -145 -62 -170 -62 -170 -71 -170 -5 0 -9 7 -9 15 0 12 70 209 110 310 4
11 27 70 50 130 23 61 50 130 60 155 10 25 35 90 55 145 38 103 59 158 80 210
7 17 20 50 28 75 14 43 23 64 52 135 7 17 20 50 28 75 14 43 29 80 48 125 7
17 50 131 64 173 6 16 34 15 41 -2z m-5606 -736 c0 -5 -20 -10 -45 -10 -25 0
-45 5 -45 10 0 6 20 10 45 10 25 0 45 -4 45 -10z m110 0 c0 -5 -16 -10 -35
-10 -19 0 -35 5 -35 10 0 6 16 10 35 10 19 0 35 -4 35 -10z m-81 -31 c168 -12
181 -12 181 6 0 11 11 15 37 15 49 0 322 -27 403 -40 218 -35 315 -52 390 -71
47 -11 96 -22 110 -25 37 -8 302 -88 415 -126 78 -26 323 -123 400 -158 33
-14 79 -35 103 -45 42 -19 55 -35 28 -35 -8 0 -43 13 -78 29 -129 59 -314 126
-453 165 -33 9 -73 21 -90 25 -16 5 -59 16 -95 24 -36 9 -102 25 -147 36 -116
29 -226 51 -303 61 -36 5 -103 16 -150 25 -119 22 -198 33 -325 45 -60 6 -157
15 -215 20 -58 6 -252 10 -431 10 -269 0 -329 2 -338 14 -17 21 -1 27 88 36
82 9 273 4 470 -11z m3370 -389 c47 -5 151 -17 231 -25 132 -15 197 -25 360
-56 86 -16 376 -88 470 -116 47 -14 108 -32 135 -40 80 -23 252 -93 334 -136
27 -13 49 -43 39 -52 -3 -3 -25 3 -49 13 -80 36 -193 79 -254 96 -33 10 -69
21 -80 26 -35 14 -197 58 -280 75 -44 10 -107 23 -141 31 -33 8 -72 14 -87 14
-15 0 -35 4 -45 9 -9 5 -69 16 -132 25 -63 9 -131 18 -150 21 -112 18 -467 44
-593 45 -127 0 -149 2 -154 16 -5 15 -22 16 -147 10 -163 -8 -397 -31 -475
-46 -68 -13 -131 -13 -131 0 0 6 2 10 4 10 2 0 55 9 117 19 344 58 814 86
1028 61z"></path>
<path d="M4088 3281 c-149 -48 -255 -242 -206 -376 12 -34 9 -42 -189 -555
-70 -183 -75 -194 -84 -212 -5 -10 -9 -23 -9 -30 0 -7 -6 -25 -14 -39 -7 -14
-16 -38 -20 -53 -4 -16 -15 -47 -26 -70 -27 -60 -84 -209 -152 -396 -33 -91
-66 -178 -73 -195 -36 -82 -85 -230 -81 -242 5 -11 37 -12 178 -7 174 6 428
-4 763 -31 222 -17 331 -33 550 -77 55 -12 118 -24 140 -28 22 -4 67 -15 100
-23 33 -9 103 -27 155 -40 52 -14 157 -46 232 -71 75 -25 142 -46 148 -46 6 0
14 10 19 23 27 66 111 295 111 301 0 5 6 22 14 39 22 52 40 99 141 372 53 143
101 268 106 277 5 10 9 23 9 29 0 6 6 25 14 42 7 18 19 48 26 67 7 19 19 49
25 65 7 17 38 100 70 185 31 85 62 171 70 190 7 19 31 83 54 143 22 59 59 155
81 213 45 115 45 122 -13 144 -18 7 -41 16 -52 20 -36 15 -127 39 -300 79
-306 71 -286 67 -560 102 -49 6 -133 15 -185 19 -52 5 -165 16 -250 25 -132
14 -401 21 -505 12 -26 -2 -30 2 -33 25 -2 15 -22 48 -45 74 -42 46 -43 46
-112 50 -39 2 -82 0 -97 -5z m165 -38 c33 -17 67 -68 67 -103 0 -37 -35 -127
-67 -173 -50 -73 -176 -136 -248 -124 -51 8 -82 31 -100 73 -21 51 -19 95 9
158 70 159 216 231 339 169z m622 -144 c50 -6 137 -14 195 -19 171 -14 486
-57 617 -84 224 -46 528 -129 551 -151 14 -12 14 -12 -23 -100 -7 -16 -20 -50
-28 -75 -15 -44 -27 -75 -53 -137 -8 -17 -14 -36 -14 -42 0 -6 -4 -19 -9 -29
-5 -9 -53 -134 -106 -277 -53 -143 -103 -276 -110 -295 -7 -19 -30 -80 -50
-135 -21 -55 -43 -113 -50 -130 -7 -16 -32 -82 -55 -145 -24 -63 -48 -128 -55
-145 -7 -16 -31 -82 -54 -145 -23 -63 -49 -132 -57 -152 -8 -21 -20 -55 -28
-75 -8 -21 -20 -56 -27 -78 -22 -70 -19 -70 -189 -14 -85 27 -180 56 -210 64
-30 7 -93 23 -140 35 -151 37 -243 56 -405 84 -179 30 -232 36 -370 47 -77 5
-198 14 -270 20 -71 5 -250 9 -397 10 -147 0 -269 3 -272 7 -3 5 101 290 173
477 5 11 22 56 38 100 53 141 144 378 170 445 13 36 32 83 40 105 9 22 21 54
28 70 7 17 20 50 28 75 14 42 21 59 52 135 7 17 34 86 60 155 57 152 60 156
93 134 36 -23 144 -15 207 17 61 31 139 116 160 176 28 80 25 77 111 84 95 8
324 1 449 -12z"></path>
<path d="M4068 3159 c-31 -17 -20 -27 28 -26 29 1 49 -3 51 -10 6 -15 -82
-110 -120 -129 -15 -8 -26 -18 -23 -22 7 -12 186 -9 186 3 0 6 -25 11 -55 13
-30 2 -55 4 -55 6 0 1 23 26 50 54 28 29 50 61 50 71 0 40 -70 65 -112 40z"></path>
<path d="M4612 3004 c-23 -16 -29 -48 -12 -59 6 -3 10 -13 10 -21 0 -11 -7
-13 -26 -8 -20 5 -25 3 -22 -7 2 -8 19 -15 36 -17 37 -4 52 19 34 49 -18 28
-15 38 14 49 14 6 22 14 19 20 -9 14 -27 12 -53 -6z"></path>
<path d="M4522 2998 c6 -18 22 -20 43 -3 19 14 18 14 -13 15 -22 0 -32 -4 -30
-12z"></path>
<path d="M4705 2980 c4 -11 0 -34 -8 -50 -23 -46 -1 -46 29 0 15 22 31 40 35
40 5 0 9 7 9 15 0 11 -11 15 -36 15 -31 0 -35 -3 -29 -20z"></path>
<path d="M4801 2976 c-32 -34 -26 -80 11 -84 35 -4 77 26 78 55 0 21 -33 53
-55 53 -7 0 -22 -11 -34 -24z m56 -22 c6 -16 -19 -44 -39 -44 -15 0 -20 30 -8
45 16 20 39 19 47 -1z"></path>
<path d="M4929 2973 c-24 -30 -40 -63 -35 -72 9 -14 89 6 103 25 8 11 12 28
11 39 -4 27 -58 33 -79 8z m47 -15 c9 -15 -27 -41 -40 -28 -6 6 -5 15 4 25 15
18 26 19 36 3z"></path>
<path d="M5077 2928 c-20 -22 -37 -45 -37 -50 0 -11 17 -10 25 2 9 15 41 12
55 -5 18 -22 30 -9 30 34 0 33 -14 61 -30 61 -3 0 -22 -19 -43 -42z m43 -8 c0
-5 -2 -10 -4 -10 -3 0 -8 5 -11 10 -3 6 -1 10 4 10 6 0 11 -4 11 -10z"></path>
<path d="M5244 2884 c-20 -33 -24 -48 -16 -56 9 -9 16 -2 27 25 16 40 35 49
35 18 0 -27 17 -35 29 -14 13 25 25 9 12 -16 -7 -13 -8 -22 -1 -26 14 -9 63
96 50 109 -6 6 -18 2 -34 -13 l-24 -23 -11 21 c-18 33 -38 25 -67 -25z"></path>
<path d="M5405 2860 c-39 -40 -39 -44 2 -40 13 1 26 -7 33 -20 8 -14 15 -19
22 -12 12 12 6 104 -7 109 -6 2 -28 -15 -50 -37z m45 -4 c0 -3 -4 -8 -10 -11
-5 -3 -10 -1 -10 4 0 6 5 11 10 11 6 0 10 -2 10 -4z"></path>
<path d="M5506 2833 c-27 -43 -23 -69 5 -32 l18 24 10 -28 c13 -33 28 -35 41
-4 6 12 15 30 22 39 19 26 -1 36 -21 10 -18 -24 -31 -20 -31 10 0 29 -18 21
-44 -19z"></path>
<path d="M5636 2851 c-4 -5 -2 -12 3 -15 5 -4 12 -2 15 3 4 5 2 12 -3 15 -5 4
-12 2 -15 -3z"></path>
<path d="M5688 2849 c-22 -13 -23 -27 -1 -51 21 -23 9 -36 -19 -19 -14 9 -24
9 -31 2 -13 -13 55 -46 77 -38 19 8 21 48 4 66 -11 10 -9 14 5 22 18 11 14 29
-6 29 -7 0 -20 -5 -29 -11z"></path>
<path d="M4747 2802 c-24 -55 -22 -70 7 -43 25 23 46 21 46 -4 0 -33 20 -22
40 21 23 53 18 71 -9 35 -21 -28 -51 -23 -51 9 0 32 -15 24 -33 -18z"></path>
<path d="M4880 2801 c-11 -22 -20 -47 -20 -56 0 -19 43 -40 65 -31 21 8 10 26
-16 26 -37 0 -21 29 19 32 l37 4 -28 12 c-32 13 -27 34 6 30 12 -2 24 2 27 7
3 6 -12 11 -32 13 -34 3 -39 0 -58 -37z"></path>
<path d="M5006 2774 c-47 -51 -51 -70 -11 -52 18 8 32 8 49 0 20 -9 25 -8 30
4 11 28 6 71 -9 84 -12 10 -22 4 -59 -36z m52 -6 c-6 -18 -28 -21 -28 -4 0 9
7 16 16 16 9 0 14 -5 12 -12z"></path>
<path d="M5126 2776 c-9 -14 -23 -38 -32 -52 -22 -37 -2 -56 21 -20 14 21 20
24 31 15 8 -6 14 -20 14 -30 0 -11 5 -19 10 -19 6 0 10 13 10 29 0 16 7 34 15
41 27 22 14 55 -22 58 -25 3 -35 -2 -47 -22z m54 -11 c0 -8 -7 -15 -15 -15
-16 0 -20 12 -8 23 11 12 23 8 23 -8z"></path>
<path d="M5260 2774 c0 -4 7 -12 15 -18 14 -10 14 -15 -1 -44 -16 -33 -13 -69
6 -57 5 3 10 15 10 25 0 10 11 32 25 48 14 17 22 33 18 35 -16 9 -73 18 -73
11z"></path>
<path d="M5373 2745 c-3 -9 -3 -19 1 -22 8 -9 37 18 30 28 -8 14 -24 11 -31
-6z"></path>
<path d="M5421 2716 c-7 -8 -8 -17 -3 -20 6 -3 15 1 21 8 7 8 8 17 3 20 -6 3
-15 -1 -21 -8z"></path>
<path d="M4796 2441 c-13 -20 15 -293 34 -337 11 -24 16 -45 12 -47 -7 -4
-232 43 -241 49 -2 2 12 21 32 43 20 22 39 52 43 66 9 37 -2 90 -27 131 -25
41 -112 94 -154 94 -35 0 -106 -23 -141 -47 -52 -34 -73 -116 -49 -188 9 -26
14 -49 11 -53 -3 -3 -37 1 -75 8 -115 22 -184 2 -260 -72 -69 -69 -37 -104 44
-48 79 54 107 62 178 50 91 -16 97 -21 71 -67 -40 -72 -167 -268 -209 -323
-23 -30 -77 -87 -119 -127 -78 -74 -87 -89 -60 -100 36 -13 184 89 299 206 46
48 52 51 100 51 67 0 161 -23 185 -45 23 -21 26 -72 9 -141 -9 -34 -9 -47 1
-59 12 -14 15 -14 31 0 29 27 62 117 67 186 4 61 3 67 -19 82 -13 9 -46 24
-74 33 -27 9 -54 20 -58 24 -13 12 94 204 119 214 16 6 79 -4 212 -36 79 -19
92 -25 92 -43 0 -11 -22 -65 -50 -120 -38 -77 -77 -132 -166 -238 -77 -91
-114 -143 -110 -153 3 -8 12 -14 20 -12 7 2 73 60 146 131 74 70 140 127 147
127 18 0 -7 -48 -82 -159 -55 -82 -72 -130 -49 -138 21 -7 74 48 162 171 87
119 212 315 212 331 0 4 11 23 25 41 21 28 33 34 82 40 32 3 96 20 143 37 77
27 92 37 158 103 71 73 88 108 57 120 -10 4 -44 -17 -91 -57 -92 -76 -136 -99
-186 -99 -36 0 -38 1 -27 21 17 32 14 115 -5 143 -27 42 -83 78 -130 83 -64 8
-109 -12 -161 -69 -53 -59 -49 -63 -79 91 -18 93 -24 106 -43 109 -11 2 -24
-1 -27 -7z"></path>
<path d="M6660 4840 c0 -5 5 -10 10 -10 6 0 10 5 10 10 0 6 -4 10 -10 10 -5 0
-10 -4 -10 -10z"></path>
<path d="M6700 4840 c0 -5 5 -10 10 -10 6 0 10 5 10 10 0 6 -4 10 -10 10 -5 0
-10 -4 -10 -10z"></path>
<path d="M890 4765 c0 -8 5 -15 10 -15 6 0 10 7 10 15 0 8 -4 15 -10 15 -5 0
-10 -7 -10 -15z"></path>
<path d="M4180 4720 c0 -5 9 -10 20 -10 11 0 20 5 20 10 0 6 -9 10 -20 10 -11
0 -20 -4 -20 -10z"></path>
<path d="M812 4649 c-19 -30 -8 -34 12 -4 9 14 13 25 9 25 -5 0 -14 -9 -21
-21z"></path>
<path d="M215 4500 c-3 -5 -1 -10 4 -10 6 0 11 5 11 10 0 6 -2 10 -4 10 -3 0
-8 -4 -11 -10z"></path>
<path d="M1951 4243 c-33 -52 -31 -76 3 -44 28 27 45 27 55 0 7 -21 9 -20 29
13 12 20 22 40 22 47 0 16 -17 14 -24 -4 -3 -8 -15 -15 -27 -15 -16 0 -20 5
-16 20 10 39 -13 30 -42 -17z"></path>
<path d="M2106 4249 c-21 -16 -26 -29 -24 -52 4 -42 30 -56 65 -37 39 22 52
63 28 90 -23 25 -36 25 -69 -1z m49 -34 c0 -25 -31 -43 -46 -28 -10 10 -8 17
6 33 21 24 40 21 40 -5z"></path>
<path d="M2226 4238 c-21 -66 -13 -88 24 -68 17 9 22 7 31 -17 l11 -28 38 44
c44 51 43 77 -1 35 -30 -28 -30 -28 -36 -6 -6 23 -18 29 -28 12 -11 -18 -27
-11 -20 9 3 11 1 22 -5 26 -5 3 -12 0 -14 -7z"></path>
<path d="M2520 4224 c0 -4 8 -12 17 -19 16 -12 16 -14 0 -38 -9 -15 -17 -31
-17 -37 0 -21 18 -9 44 30 14 22 33 40 42 40 9 0 14 6 12 13 -5 12 -98 24 -98
11z"></path>
<path d="M2656 4179 c-32 -25 -33 -53 -4 -73 44 -31 108 -9 108 37 0 17 -45
57 -65 57 -7 0 -24 -9 -39 -21z m64 -24 c16 -19 4 -35 -25 -35 -13 0 -27 5
-30 10 -8 13 13 40 30 40 7 0 18 -7 25 -15z"></path>
<path d="M2963 4130 c-28 -12 -29 -18 -1 -47 25 -27 19 -40 -11 -22 -24 16
-39 5 -21 -16 16 -19 90 -21 90 -2 0 8 -9 22 -20 32 -28 25 -25 37 8 35 43 -3
48 0 28 15 -22 17 -41 18 -73 5z"></path>
<path d="M1766 4064 c-35 -46 -40 -80 -7 -50 22 20 30 20 53 0 16 -16 18 -15
24 1 9 22 -7 87 -23 92 -6 2 -27 -17 -47 -43z"></path>
<path d="M3080 4100 c0 -7 8 -19 18 -26 16 -12 15 -14 -10 -41 -30 -31 -35
-43 -18 -43 12 0 90 79 90 91 0 4 -11 10 -24 13 -13 3 -31 9 -40 12 -9 4 -16
1 -16 -6z"></path>
<path d="M2000 4039 c-34 -48 -29 -78 6 -34 22 28 24 28 42 11 13 -11 22 -14
27 -6 9 15 25 2 18 -15 -3 -8 -1 -15 3 -15 11 0 54 87 47 94 -3 3 -19 -5 -35
-17 l-30 -22 -15 23 c-21 30 -28 28 -63 -19z"></path>
<path d="M2170 4031 c-25 -21 -42 -43 -37 -47 4 -4 13 -2 19 4 20 20 59 15 65
-8 3 -11 10 -20 15 -20 12 0 6 103 -7 107 -5 1 -30 -15 -55 -36z"></path>
<path d="M2287 4009 c-35 -77 -23 -91 19 -22 11 17 13 16 23 -9 6 -16 15 -28
21 -28 15 0 62 79 57 98 -2 12 -9 7 -26 -20 -22 -36 -41 -42 -41 -14 0 7 -6
21 -14 31 -13 18 -15 15 -39 -36z"></path>
<path d="M3178 4039 c-27 -15 -22 -54 8 -73 33 -23 62 -17 87 16 20 27 20 28
2 48 -20 22 -68 26 -97 9z m78 -30 c10 -18 -13 -32 -40 -25 -37 9 -34 36 3 36
17 0 33 -5 37 -11z"></path>
<path d="M2444 4026 c-8 -22 3 -33 18 -18 9 9 9 15 0 24 -9 9 -13 7 -18 -6z"></path>
<path d="M2503 4004 c-4 -12 1 -22 15 -32 12 -8 22 -18 22 -23 0 -13 -34 -11
-47 2 -7 7 -13 7 -17 1 -8 -14 18 -33 49 -35 38 -3 55 25 32 51 -22 24 -22 34
3 30 10 -2 20 2 22 7 2 6 -14 11 -35 13 -28 2 -39 -1 -44 -14z"></path>
<path d="M3296 3976 c-20 -25 -32 -47 -27 -50 5 -4 12 -2 16 4 4 6 22 7 44 4
70 -11 109 36 59 70 -35 25 -53 19 -92 -28z m79 4 c8 -13 -20 -24 -41 -16 -20
8 -9 26 16 26 10 0 22 -5 25 -10z"></path>
<path d="M2726 3971 c-25 -48 -21 -58 22 -57 30 1 37 -3 37 -18 0 -11 7 -20
15 -22 8 -1 36 -9 62 -17 26 -8 49 -12 52 -9 4 3 6 18 6 34 0 23 -4 28 -25 28
-14 0 -25 4 -25 9 0 19 21 23 51 11 22 -10 33 -10 41 -2 8 8 4 14 -16 22 -50
18 -73 13 -96 -25 -12 -19 -26 -35 -31 -35 -12 0 -11 6 7 41 19 37 11 49 -15
25 -25 -23 -56 -17 -56 11 -1 35 -12 37 -29 4z m164 -91 c0 -5 -6 -10 -14 -10
-8 0 -18 5 -21 10 -3 6 3 10 14 10 12 0 21 -4 21 -10z"></path>
<path d="M2987 3884 c-51 -40 -54 -59 -7 -42 29 10 63 -2 57 -20 -1 -4 3 -8 8
-9 14 -4 13 99 -1 104 -5 2 -31 -13 -57 -33z m48 -4 c3 -5 1 -10 -4 -10 -6 0
-11 5 -11 10 0 6 2 10 4 10 3 0 8 -4 11 -10z"></path>
<path d="M255 3901 c-6 -11 9 -23 19 -14 9 9 7 23 -3 23 -6 0 -12 -4 -16 -9z"></path>
<path d="M1800 3885 c-15 -39 -12 -75 4 -75 8 0 18 5 21 10 11 18 32 11 38
-12 6 -21 8 -20 41 17 35 40 45 65 26 65 -5 0 -17 -11 -26 -25 -15 -24 -18
-24 -34 -10 -12 11 -20 13 -25 6 -12 -21 -27 -11 -21 13 8 34 -12 43 -24 11z"></path>
<path d="M1978 3872 c-32 -36 -50 -88 -28 -80 16 5 61 86 51 92 -4 3 -15 -2
-23 -12z"></path>
<path d="M2050 3880 c0 -5 7 -10 15 -10 20 0 19 -12 -5 -54 -11 -21 -15 -38
-10 -41 13 -8 30 3 30 20 0 8 13 30 30 48 16 19 27 37 23 41 -10 10 -83 7 -83
-4z"></path>
<path d="M3100 3844 c-18 -28 -28 -50 -22 -56 5 -5 14 -3 22 7 18 21 29 19 40
-10 12 -33 30 -32 30 1 0 15 10 34 23 44 18 15 20 22 11 37 -6 10 -25 19 -41
21 -27 3 -35 -3 -63 -44z m74 17 c9 -15 -23 -36 -36 -23 -5 5 -7 15 -4 21 9
13 33 14 40 2z"></path>
<path d="M2181 3831 c-22 -43 -17 -60 10 -35 20 18 41 11 33 -10 -3 -8 -1 -17
4 -20 6 -3 22 16 36 44 27 51 22 74 -9 40 -23 -25 -35 -25 -35 0 0 32 -18 23
-39 -19z"></path>
<path d="M2433 3848 c-16 -27 -43 -83 -43 -91 0 -4 9 -5 21 -2 14 5 25 1 33
-11 8 -10 18 -14 25 -10 9 6 8 13 -5 27 -16 17 -15 19 20 40 20 11 36 25 36
30 0 13 -14 11 -36 -6 -27 -20 -37 -19 -31 5 6 23 -8 36 -20 18z"></path>
<path d="M3250 3840 c0 -5 5 -10 10 -10 16 0 11 -33 -10 -60 -24 -30 -25 -40
-5 -40 8 0 24 18 36 41 18 37 24 41 50 37 35 -5 48 7 22 20 -29 15 -103 24
-103 12z"></path>
<path d="M215 3830 c-3 -5 -1 -10 4 -10 6 0 11 5 11 10 0 6 -2 10 -4 10 -3 0
-8 -4 -11 -10z"></path>
<path d="M2557 3798 c-37 -45 -40 -66 -6 -45 18 10 23 8 43 -17 13 -15 26 -24
29 -19 9 14 -7 116 -19 120 -7 2 -28 -15 -47 -39z m38 -7 c3 -5 1 -12 -5 -16
-5 -3 -10 1 -10 9 0 18 6 21 15 7z"></path>
<path d="M2695 3785 c-8 -14 -22 -37 -31 -51 -11 -17 -13 -29 -6 -36 7 -7 14
-3 21 11 15 28 39 27 50 -3 12 -31 40 -40 61 -21 24 22 47 19 66 -10 23 -35
37 -20 31 32 -7 67 -18 71 -72 28 -34 -29 -49 -35 -57 -27 -9 9 -6 18 10 35
29 30 28 45 -4 57 -39 15 -52 12 -69 -15z m55 -14 c0 -14 -18 -23 -30 -16 -6
4 -8 11 -5 16 8 12 35 12 35 0z"></path>
<path d="M2930 3743 c0 -5 5 -14 12 -21 10 -10 8 -19 -5 -42 -23 -39 -11 -62
14 -29 10 13 19 30 19 37 0 7 12 17 27 23 15 6 23 13 17 19 -13 13 -84 24 -84
13z"></path>
<path d="M3025 3670 c-15 -23 -24 -48 -21 -56 8 -21 76 -48 89 -35 6 6 -3 15
-27 25 -46 19 -39 39 10 30 39 -7 48 10 9 20 -39 10 -31 30 10 23 19 -3 37 -2
40 3 7 11 -3 17 -47 25 -35 7 -38 5 -63 -35z"></path>
<path d="M1325 3621 c-58 -28 -104 -69 -135 -121 -10 -17 -15 -57 -16 -130 -2
-99 -4 -111 -43 -205 -23 -55 -46 -109 -51 -120 -5 -11 -23 -56 -40 -100 -17
-44 -35 -89 -40 -100 -5 -11 -23 -56 -41 -100 -17 -44 -37 -93 -44 -110 -7
-16 -43 -106 -79 -200 -37 -93 -71 -179 -76 -190 -16 -34 -177 -447 -196 -501
-27 -79 -26 -80 128 -88 145 -7 177 -11 468 -59 36 -6 374 -75 445 -91 33 -8
87 -19 120 -26 33 -7 94 -22 135 -33 41 -10 89 -22 105 -26 17 -4 46 -13 65
-19 73 -24 187 -60 240 -76 30 -9 64 -21 75 -26 11 -5 49 -18 85 -30 104 -34
193 -71 223 -93 16 -11 32 -16 36 -11 4 5 81 203 171 439 89 237 168 444 175
460 16 39 36 89 79 200 76 197 171 439 238 607 57 143 68 180 59 192 -13 15
-95 57 -201 101 -36 15 -83 35 -105 45 -22 10 -87 35 -145 55 -199 69 -256 86
-360 110 -41 9 -120 27 -175 40 -93 22 -210 46 -280 59 -16 4 -66 13 -110 21
-108 21 -271 42 -378 51 -76 6 -90 10 -103 29 -19 29 -104 75 -140 75 -16 0
-56 -13 -89 -29z m151 -20 c58 -27 84 -63 84 -120 -1 -101 -56 -183 -155 -232
-79 -39 -123 -36 -169 11 -28 28 -31 37 -34 110 -5 97 9 131 73 188 70 61 131
75 201 43z m314 -96 c130 -14 264 -38 485 -84 22 -5 67 -14 100 -20 33 -7 71
-16 85 -21 14 -4 61 -16 105 -25 129 -28 296 -76 360 -105 11 -5 47 -18 80
-29 33 -11 87 -31 120 -46 33 -15 69 -30 80 -35 11 -4 56 -25 100 -46 71 -35
80 -42 77 -64 -1 -14 -6 -34 -12 -45 -16 -36 -79 -192 -130 -328 -28 -72 -55
-141 -60 -152 -5 -11 -33 -81 -61 -155 -29 -74 -64 -166 -79 -205 -15 -38
-101 -261 -190 -495 -89 -234 -167 -430 -172 -437 -8 -10 -19 -8 -48 7 -39 20
-68 31 -180 69 -36 12 -74 26 -85 31 -25 11 -350 112 -430 134 -33 9 -73 21
-90 26 -26 7 -74 18 -210 45 -16 3 -57 12 -90 19 -120 27 -321 68 -375 77 -66
11 -150 25 -228 40 -31 6 -127 14 -212 17 -129 6 -155 9 -153 22 1 14 146 392
178 465 7 17 106 264 220 550 114 286 213 526 220 534 11 11 15 10 24 -8 15
-27 62 -51 102 -51 39 0 124 42 168 83 55 53 82 104 88 166 2 31 6 62 9 69 4
15 47 15 204 -3z"></path>
<path d="M1347 3528 c-25 -13 -35 -24 -29 -30 6 -6 17 -6 30 1 10 6 22 8 24 5
6 -5 -35 -130 -46 -141 -4 -5 -18 -8 -29 -8 -12 0 -22 -6 -22 -14 0 -10 17
-14 63 -15 68 -2 89 8 48 24 -14 5 -26 12 -26 14 0 3 11 40 25 83 24 72 26
104 8 102 -4 0 -25 -10 -46 -21z"></path>
<path d="M1788 3353 c-36 -43 -60 -95 -50 -105 8 -8 14 -4 21 15 8 20 18 27
36 27 29 0 32 8 8 26 -20 14 -22 12 33 29 8 3 12 9 9 15 -10 16 -40 12 -57 -7z"></path>
<path d="M1726 3351 c-4 -5 -2 -12 3 -15 5 -4 12 -2 15 3 4 5 2 12 -3 15 -5 4
-12 2 -15 -3z"></path>
<path d="M1871 3331 c-37 -52 -23 -101 29 -101 51 0 88 74 55 110 -26 29 -60
25 -84 -9z m76 -17 c3 -10 -4 -26 -20 -42 -22 -21 -28 -23 -41 -12 -20 16 -20
29 1 52 20 22 52 23 60 2z"></path>
<path d="M2005 3316 c-14 -14 -25 -36 -25 -50 0 -43 75 -76 88 -38 2 7 -6 12
-22 12 -48 0 -46 58 3 70 29 7 32 24 4 28 -14 2 -32 -6 -48 -22z"></path>
<path d="M2111 3289 c-35 -58 -23 -99 29 -99 27 0 67 35 90 78 16 32 2 43 -19
13 -26 -38 -59 -71 -71 -71 -20 0 -23 33 -6 63 25 44 3 59 -23 16z"></path>
<path d="M2260 3280 c-13 -25 -6 -38 27 -51 13 -5 21 -13 18 -19 -8 -13 -38
-13 -52 1 -7 7 -13 7 -17 0 -4 -5 5 -18 19 -27 20 -13 33 -15 53 -8 37 13 42
50 8 66 -35 15 -35 42 0 34 19 -5 25 -3 22 6 -3 7 -19 14 -36 16 -23 2 -33 -2
-42 -18z"></path>
<path d="M2462 3227 c-27 -28 -28 -58 -4 -80 20 -18 72 -23 72 -7 0 6 -8 10
-19 10 -10 0 -24 7 -32 16 -18 22 1 49 37 51 16 0 33 2 38 2 5 1 3 8 -4 16
-19 22 -63 18 -88 -8z"></path>
<path d="M2599 3209 c-7 -13 -21 -39 -31 -58 -22 -39 -17 -52 12 -26 16 14 22
15 35 5 8 -7 13 -16 10 -20 -3 -5 -1 -11 5 -15 6 -3 13 2 17 12 4 10 17 32 31
50 34 46 17 66 -19 22 -23 -28 -30 -32 -41 -21 -10 10 -10 16 1 33 8 14 9 25
3 31 -7 7 -14 2 -23 -13z"></path>
<path d="M2712 3146 c-18 -33 -26 -59 -20 -62 12 -8 19 0 48 54 17 30 21 45
13 53 -8 8 -19 -6 -41 -45z"></path>
<path d="M2805 3171 c-7 -12 12 -24 25 -16 11 7 4 25 -10 25 -5 0 -11 -4 -15
-9z"></path>
<path d="M2850 3139 c0 -5 5 -7 10 -4 6 3 10 8 10 11 0 2 -4 4 -10 4 -5 0 -10
-5 -10 -11z"></path>
<path d="M1515 2926 c-10 -7 -28 -33 -39 -57 -18 -37 -27 -44 -66 -54 -95 -24
-146 -70 -157 -140 -4 -26 1 -49 22 -91 l27 -56 -34 -36 c-65 -69 -131 -157
-150 -201 -17 -38 -18 -49 -8 -90 l12 -46 -46 -40 c-25 -22 -70 -56 -101 -75
-100 -62 -140 -95 -140 -115 0 -11 8 -21 19 -23 23 -5 154 62 263 135 l82 54
55 -35 c60 -38 61 -41 71 -150 6 -75 18 -106 39 -106 21 0 35 50 42 148 7 98
7 97 -86 174 l-45 37 35 43 c76 96 164 189 184 193 11 3 58 9 102 14 70 7 90
14 138 45 53 36 116 98 116 115 0 5 -7 14 -15 21 -12 10 -34 2 -119 -40 -105
-53 -146 -59 -109 -16 32 36 44 70 46 127 1 60 -20 102 -67 133 -32 20 -24 46
13 46 15 0 57 -9 94 -21 51 -16 70 -18 86 -9 30 15 26 35 -11 64 -74 56 -210
84 -253 52z"></path>
<path d="M2430 2651 c-47 -15 -88 -41 -109 -67 -25 -32 -28 -114 -6 -158 8
-15 15 -32 15 -37 0 -12 -102 -11 -134 1 -36 13 -33 32 19 90 47 53 55 77 30
86 -59 23 -175 -102 -175 -188 0 -18 4 -38 8 -45 14 -22 92 -43 158 -43 34 0
65 -3 67 -8 8 -11 -30 -181 -43 -198 -9 -10 -34 -14 -86 -14 -93 0 -148 -24
-209 -92 -54 -60 -103 -154 -87 -170 18 -18 51 2 94 60 27 35 61 66 88 80 42
22 52 23 155 17 61 -4 114 -9 118 -12 4 -2 -10 -26 -31 -51 -50 -60 -62 -84
-62 -121 0 -44 15 -75 55 -115 42 -43 80 -55 102 -34 13 14 13 19 -2 49 -10
19 -29 49 -43 68 -32 43 -27 51 69 116 40 28 82 64 92 82 10 19 24 76 32 135
7 57 18 116 25 132 l11 29 66 -7 c83 -9 131 -35 166 -90 37 -59 64 -83 78 -69
26 26 -38 185 -85 217 -15 9 -60 24 -99 32 -39 8 -73 17 -75 18 -2 2 11 25 27
52 52 81 37 165 -42 228 -32 25 -48 31 -100 33 -34 1 -73 -1 -87 -6z"></path>
<path d="M5 2159 c-4 -6 -5 -12 -2 -15 2 -3 7 2 10 11 7 17 1 20 -8 4z"></path>
<path d="M6075 330 c-4 -6 -2 -16 3 -23 16 -20 19 -112 4 -130 -19 -23 -6 -37
33 -37 40 0 53 15 32 38 -15 17 -30 102 -19 102 4 0 24 -30 46 -65 45 -77 54
-84 73 -59 11 14 13 35 9 74 -4 41 -1 59 10 72 22 23 9 38 -31 38 -40 0 -53
-15 -32 -38 15 -18 28 -92 16 -92 -4 0 -25 29 -48 65 -32 52 -45 65 -65 65
-14 0 -28 -5 -31 -10z"></path>
<path d="M6304 325 c-4 -8 -1 -22 6 -30 11 -13 10 -68 -1 -128 -4 -16 4 -19
60 -20 50 -1 67 3 75 16 17 26 -7 44 -39 29 -15 -7 -31 -10 -36 -7 -17 11 -9
36 16 45 32 12 31 18 -1 30 -29 11 -27 37 2 32 10 -2 26 -4 34 -5 10 -1 15 7
15 23 0 24 -3 25 -63 28 -49 2 -64 0 -68 -13z"></path>
<path d="M6477 332 c-7 -10 47 -170 61 -184 20 -20 41 11 48 73 8 76 26 73 36
-6 9 -68 18 -81 45 -67 12 7 23 32 32 74 8 34 20 71 28 80 20 22 8 38 -27 38
-34 0 -45 -13 -32 -37 11 -22 1 -103 -13 -106 -5 -1 -13 26 -17 60 -8 71 -13
83 -34 83 -17 0 -29 -28 -38 -92 -4 -27 -11 -48 -15 -48 -15 0 -24 90 -11 105
7 8 9 19 5 25 -7 12 -61 14 -68 2z"></path>
<path d="M6864 329 c-3 -6 -1 -16 5 -22 15 -15 14 -120 -1 -135 -21 -21 4 -30
70 -25 57 5 62 7 62 29 0 25 -18 32 -37 13 -15 -15 -43 -4 -43 16 0 8 11 20
25 25 14 5 25 12 25 15 0 3 -11 10 -25 15 -14 5 -25 14 -25 20 0 16 30 24 43
11 20 -20 37 -12 37 19 l0 30 -64 0 c-36 0 -68 -5 -72 -11z"></path>
<path d="M5007 211 c-9 -17 -12 -31 -8 -31 11 0 36 49 29 56 -3 3 -13 -9 -21
-25z"></path>
<path d="M4950 84 c0 -8 5 -12 10 -9 6 3 10 10 10 16 0 5 -4 9 -10 9 -5 0 -10
-7 -10 -16z"></path>
<path d="M6177 74 c-4 -4 -7 -22 -7 -41 0 -26 4 -33 19 -33 10 0 21 9 24 20 7
29 91 29 109 0 18 -28 36 -25 40 7 3 28 4 28 68 24 75 -4 80 -6 80 -32 0 -10
6 -19 13 -19 7 0 12 14 12 38 l0 37 -176 3 c-96 1 -178 -1 -182 -4z"></path>
<path d="M6904 65 c-9 -22 4 -65 20 -65 8 0 16 9 19 20 3 14 14 20 31 20 19 0
26 5 26 20 0 17 -7 20 -45 20 -31 0 -47 -5 -51 -15z"></path>
</g>
</svg>