 <svg version="1.0" xmlns="http://www.w3.org/2000/svg" width="700.000000pt" height="798.000000pt" viewBox="0 0 700.000000 798.000000" preserveAspectRatio="xMidYMid meet">
<metadata>
Created by potrace 1.12, written by Peter Selinger 2001-2015
</metadata>
<g transform="translate(0.000000,798.000000) scale(0.100000,-0.100000)" fill="#000000" stroke="none">
<path d="M1245 7765 c-22 -8 -52 -14 -67 -14 -16 -1 -28 -5 -28 -11 0 -15 56
-12 97 5 19 8 55 15 79 15 24 0 44 5 44 10 0 14 -77 11 -125 -5z"></path>
<path d="M1390 7762 c0 -5 7 -13 16 -16 24 -9 54 -7 54 4 0 6 -9 10 -19 10
-11 0 -26 3 -35 6 -9 3 -16 2 -16 -4z"></path>
<path d="M1480 7742 c0 -9 180 -56 187 -48 7 7 -1 10 -97 36 -83 22 -90 23
-90 12z"></path>
<path d="M1685 7680 c4 -6 73 -10 176 -10 106 0 169 4 169 10 0 6 -65 10 -176
10 -114 0 -173 -3 -169 -10z"></path>
<path d="M2180 7680 c0 -6 30 -10 70 -10 40 0 70 4 70 10 0 6 -30 10 -70 10
-40 0 -70 -4 -70 -10z"></path>
<path d="M2360 7673 c0 -5 23 -15 51 -21 61 -14 69 -15 69 -3 0 5 -17 11 -37
15 -21 3 -48 9 -60 12 -13 4 -23 2 -23 -3z"></path>
<path d="M2500 7640 c0 -10 88 -25 97 -16 10 9 2 13 -49 19 -27 4 -48 3 -48
-3z"></path>
<path d="M2620 7620 c0 -11 68 -25 77 -16 9 9 2 13 -39 19 -21 3 -38 2 -38 -3z"></path>
<path d="M2720 7602 c0 -15 52 -22 156 -22 56 0 94 4 94 10 0 6 -41 10 -102
10 -57 0 -113 3 -125 6 -13 4 -23 2 -23 -4z"></path>
<path d="M3263 7592 c-397 -4 -349 -21 70 -24 188 -2 344 -2 346 -1 9 6 -49
21 -94 24 -27 2 -173 3 -322 1z"></path>
<path d="M3676 7492 c-12 -20 -114 -41 -221 -47 -60 -3 -209 -9 -330 -14 -211
-9 -358 -25 -600 -65 -16 -3 -72 -10 -122 -17 -51 -7 -93 -16 -93 -20 0 -5 6
-9 13 -9 20 1 236 29 302 40 168 28 311 42 515 51 340 14 461 25 502 43 36 16
55 33 45 42 -3 3 -8 1 -11 -4z"></path>
<path d="M2080 7320 c0 -5 7 -10 15 -10 8 0 15 5 15 10 0 6 -7 10 -15 10 -8 0
-15 -4 -15 -10z"></path>
<path d="M2130 7320 c0 -5 11 -10 25 -10 14 0 25 5 25 10 0 6 -11 10 -25 10
-14 0 -25 -4 -25 -10z"></path>
<path d="M2000 7310 c0 -5 13 -10 29 -10 17 0 33 5 36 10 4 6 -8 10 -29 10
-20 0 -36 -4 -36 -10z"></path>
<path d="M1848 7303 c-16 -2 -28 -9 -28 -15 0 -6 12 -8 31 -4 17 3 51 6 75 6
24 0 44 5 44 10 0 10 -67 11 -122 3z"></path>
<path d="M1720 7280 c0 -5 18 -10 40 -10 22 0 40 5 40 10 0 6 -18 10 -40 10
-22 0 -40 -4 -40 -10z"></path>
<path d="M1553 7262 c-68 -8 -123 -19 -123 -23 0 -12 6 -12 145 6 66 8 121 15
123 15 1 0 2 5 2 10 0 6 -6 9 -12 9 -7 -1 -68 -8 -135 -17z"></path>
<path d="M1320 7230 c0 -5 20 -10 45 -10 25 0 45 5 45 10 0 6 -20 10 -45 10
-25 0 -45 -4 -45 -10z"></path>
<path d="M1270 7220 c0 -5 5 -10 10 -10 6 0 10 5 10 10 0 6 -4 10 -10 10 -5 0
-10 -4 -10 -10z"></path>
<path d="M1180 7208 c0 -7 5 -20 10 -28 9 -13 12 -13 21 3 5 9 17 17 24 17 8
0 15 5 15 10 0 6 -16 10 -35 10 -21 0 -35 -5 -35 -12z"></path>
<path d="M1170 7075 c-29 -16 -153 -45 -191 -45 -31 0 -171 -32 -264 -60 -101
-30 -329 -90 -405 -105 -36 -7 -85 -20 -110 -29 -25 -9 -54 -16 -65 -16 -28 0
-135 -33 -135 -42 0 -11 17 -10 84 8 170 44 223 57 358 89 81 19 198 51 261
70 63 19 154 41 203 50 226 41 258 49 283 72 29 25 20 29 -19 8z"></path>
<path d="M868 6873 c-88 -4 -126 -23 -45 -23 96 0 257 14 257 22 0 8 -22 8
-212 1z"></path>
<path d="M1100 6870 c0 -5 5 -10 10 -10 6 0 10 5 10 10 0 6 -4 10 -10 10 -5 0
-10 -4 -10 -10z"></path>
<path d="M970 6794 c-14 -2 -65 -6 -114 -9 -56 -5 -85 -10 -78 -17 11 -11 352
11 352 24 0 7 -103 9 -160 2z"></path>
<path d="M5310 5690 c-73 -40 -135 -105 -172 -181 -52 -105 -68 -166 -86 -324
-8 -68 6 -63 -132 -50 -41 4 -88 11 -105 16 -16 5 -154 15 -305 22 -274 14
-346 12 -840 -13 -293 -15 -565 -41 -690 -66 -41 -8 -102 -19 -135 -24 -33 -4
-91 -16 -130 -25 -38 -9 -88 -19 -110 -21 -22 -3 -49 -9 -60 -14 -48 -19 -225
-59 -239 -54 -9 3 -16 18 -16 31 0 14 -4 42 -10 62 -5 20 -17 67 -26 104 -9
37 -21 70 -26 73 -4 3 -8 13 -8 23 0 16 -59 139 -96 198 -7 11 -38 35 -69 53
-71 40 -149 44 -210 10 -128 -71 -232 -247 -274 -465 -7 -33 -16 -80 -22 -105
-12 -57 -22 -250 -22 -400 1 -178 33 -646 47 -680 3 -8 11 -53 17 -100 6 -47
15 -114 19 -150 5 -36 15 -108 24 -160 59 -376 57 -360 85 -505 6 -33 25 -127
41 -210 16 -82 31 -175 32 -205 l3 -55 -45 -6 c-134 -20 -176 -41 -288 -148
-104 -100 -144 -211 -136 -371 5 -88 29 -174 69 -247 13 -24 20 -45 15 -48 -4
-3 -66 -4 -138 -4 -150 2 -284 -19 -387 -60 -39 -16 -210 -104 -225 -116 -8
-7 -37 -25 -64 -41 -118 -68 -252 -227 -348 -414 -29 -57 -59 -105 -65 -107
-6 -2 -19 13 -29 34 -17 37 -88 141 -131 192 l-22 26 -1 -28 c0 -26 33 -87 71
-132 9 -11 29 -42 45 -70 15 -27 31 -57 36 -65 4 -8 12 -27 18 -42 15 -43 40
-36 40 10 0 21 4 42 9 48 5 5 26 43 47 84 77 155 181 300 256 362 24 19 75 55
114 79 38 24 79 49 90 56 23 15 164 83 171 83 3 0 19 6 36 14 33 15 49 18 177
37 89 13 372 6 445 -11 138 -33 196 -51 270 -86 28 -12 70 -32 95 -43 25 -12
59 -30 75 -40 17 -11 41 -26 55 -34 57 -31 77 -43 113 -70 34 -26 67 -31 67
-9 0 15 -111 92 -250 171 -45 25 -211 99 -245 109 -121 34 -156 42 -188 42
-65 0 -115 61 -159 194 -40 123 -34 241 18 349 28 56 72 117 86 117 6 0 28 18
50 41 48 49 117 81 215 99 211 38 437 -87 603 -335 70 -105 110 -166 110 -171
0 -9 183 -299 204 -322 21 -24 65 -29 85 -10 14 15 228 15 270 0 14 -5 46 -16
71 -23 40 -11 78 -29 150 -70 80 -46 210 -158 210 -182 0 -4 9 -21 21 -36 12
-16 19 -36 17 -45 -3 -15 -5 -15 -33 0 -86 48 -128 64 -162 64 -40 0 -76 -22
-86 -52 -4 -10 -16 -18 -27 -18 -33 0 -75 -26 -88 -54 -6 -14 -18 -26 -25 -26
-8 0 -26 -9 -41 -21 -63 -49 -7 -156 154 -293 25 -22 111 -102 193 -178 143
-136 147 -141 147 -181 0 -55 -64 -183 -173 -349 -75 -114 -82 -128 -62 -128
20 0 75 55 75 75 0 4 15 27 32 53 18 26 38 56 44 67 6 11 28 49 48 83 20 35
36 68 36 73 0 5 4 17 9 27 5 9 13 30 17 46 5 16 15 31 23 34 8 3 107 -92 240
-228 185 -189 231 -231 250 -228 20 2 -25 51 -295 324 -353 354 -450 448 -565
544 -120 100 -180 190 -145 219 14 12 85 2 140 -18 28 -11 108 -64 195 -129
32 -24 47 -30 55 -22 8 9 0 21 -29 46 -68 58 -159 121 -224 154 -68 35 -74 53
-19 58 52 4 179 -74 295 -181 32 -30 73 -32 56 -3 -14 24 -188 164 -234 188
-29 16 -44 30 -44 43 0 30 85 33 139 5 126 -65 748 -635 1225 -1123 73 -75
112 -107 128 -107 13 0 23 3 23 6 0 17 -754 753 -917 895 -229 200 -303 279
-303 325 0 13 -33 78 -52 101 -6 7 -8 19 -5 26 5 14 33 17 332 37 159 10 353
28 390 36 27 5 112 15 260 29 28 3 82 10 120 15 39 6 153 19 255 30 200 22
263 31 410 56 52 9 122 20 155 24 77 11 155 26 178 35 30 12 20 -19 -38 -111
-31 -48 -58 -100 -62 -114 -3 -14 -9 -29 -13 -35 -4 -5 -10 -19 -13 -30 -3
-11 -15 -54 -28 -95 -18 -63 -22 -99 -22 -225 -1 -157 9 -217 55 -335 25 -64
139 -237 195 -296 50 -53 158 -133 205 -152 21 -8 40 -23 43 -33 3 -9 -3 -52
-15 -95 -24 -95 -24 -94 -1 -94 14 0 21 10 25 35 10 51 43 69 108 61 28 -4 64
-14 79 -22 15 -7 38 -14 50 -14 12 0 51 -14 85 -31 37 -18 75 -29 91 -27 l28
3 -40 24 c-96 59 -202 103 -275 115 l-75 11 1 40 c2 62 34 316 45 351 15 49
11 210 -7 271 -19 66 -14 116 23 223 31 91 119 218 183 264 78 57 141 88 167
81 28 -7 69 -89 83 -168 5 -28 14 -80 20 -115 13 -72 12 -687 -1 -755 -4 -23
-15 -103 -24 -177 -9 -74 -19 -143 -21 -152 -4 -14 1 -18 20 -18 18 0 25 6 28
22 3 21 8 23 63 23 33 0 66 4 73 8 24 16 0 27 -59 27 -72 0 -77 8 -61 94 7 34
17 169 23 301 5 132 12 246 14 252 3 10 37 13 121 13 64 0 135 5 158 11 22 6
59 15 81 21 73 19 95 30 95 48 0 20 7 21 -138 -17 -76 -19 -112 -23 -205 -21
l-112 3 2 55 c4 76 -23 334 -42 406 -8 32 -26 81 -40 108 -16 31 -22 53 -16
59 5 5 34 10 65 11 64 3 85 16 62 36 -23 18 -166 -7 -246 -43 -110 -51 -202
-128 -268 -227 -20 -30 -52 -95 -71 -145 -29 -75 -35 -103 -34 -166 0 -49 6
-86 17 -107 20 -39 21 -150 2 -218 -8 -27 -20 -100 -27 -162 -15 -143 -23
-153 -88 -116 -122 71 -169 117 -259 254 -70 106 -75 115 -102 187 -42 108
-63 333 -41 422 5 20 15 61 21 91 21 96 90 238 166 342 36 49 172 168 239 210
81 50 136 78 155 78 10 0 22 5 25 10 3 6 16 10 29 10 12 0 26 4 32 9 5 5 36
16 69 26 33 9 69 21 80 26 11 5 63 12 115 16 81 7 95 11 98 26 4 17 -3 19 -84
16 l-89 -3 -7 44 c-4 25 -12 96 -18 160 -5 63 -15 156 -22 205 -6 50 -12 115
-12 145 l-1 55 70 3 c83 4 249 -14 320 -34 126 -37 118 -33 275 -108 25 -11
53 -27 63 -35 15 -13 17 -12 17 10 0 18 -12 31 -45 52 -25 15 -48 27 -50 27
-3 0 -39 16 -81 35 -41 19 -83 35 -93 35 -9 0 -21 4 -26 9 -30 26 -302 66
-407 59 l-53 -3 -6 65 c-4 36 -12 121 -18 190 -13 143 -23 216 -45 350 -18
105 -32 200 -46 305 -8 64 -27 193 -51 350 -5 33 -13 96 -18 140 -6 44 -17
132 -27 195 -9 63 -20 142 -25 175 -10 72 -21 134 -44 240 -9 44 -21 98 -25
120 -5 22 -20 85 -35 140 -15 55 -31 116 -35 135 -18 78 -41 148 -65 205 -7
17 -22 55 -33 86 -39 111 -183 288 -275 335 -46 24 -146 26 -187 4z m168 -45
c47 -20 132 -102 185 -180 54 -79 110 -210 146 -345 7 -25 16 -58 21 -75 5
-16 16 -59 25 -95 9 -36 20 -81 25 -100 7 -28 38 -164 66 -285 10 -47 56 -367
64 -445 4 -47 11 -103 14 -125 36 -216 60 -382 76 -520 4 -39 15 -111 25 -160
27 -147 35 -209 74 -605 33 -343 42 -420 52 -486 5 -33 9 -85 9 -115 0 -30 4
-68 9 -86 12 -40 7 -44 -89 -72 -41 -12 -83 -27 -92 -32 -10 -5 -23 -9 -28 -9
-10 0 -80 -30 -148 -63 -12 -6 -69 -47 -125 -92 -116 -92 -122 -95 -197 -106
-30 -4 -92 -14 -138 -23 -46 -9 -115 -21 -155 -26 -40 -5 -97 -14 -127 -19
-30 -5 -134 -19 -230 -31 -96 -11 -200 -25 -231 -30 -30 -6 -79 -10 -108 -10
-29 0 -71 -4 -94 -9 -43 -10 -263 -37 -372 -46 -89 -8 -271 -22 -435 -34 -80
-6 -161 -15 -180 -21 -51 -15 -51 -15 -131 50 -40 33 -87 67 -103 75 -17 9
-53 28 -81 43 -53 29 -130 53 -230 72 -58 11 -139 9 -230 -5 -45 -7 -58 2 -91
65 -11 19 -29 49 -41 67 -13 17 -23 34 -23 37 0 4 -52 89 -118 191 -31 50 -33
67 -12 107 11 21 20 45 20 53 0 9 4 23 9 33 5 9 26 54 47 100 21 45 41 82 44
82 4 0 38 -14 76 -31 105 -48 272 -95 424 -118 41 -7 98 -16 125 -22 120 -23
458 -34 593 -20 166 18 396 65 444 92 10 5 23 9 30 9 11 0 101 31 173 59 100
40 292 143 347 187 173 139 224 199 313 367 79 151 89 185 105 387 15 191 -5
369 -56 487 -8 17 -14 36 -14 41 0 13 -85 177 -113 217 -43 62 -153 179 -220
234 -88 70 -116 88 -247 152 -127 62 -129 62 -210 85 -36 9 -69 21 -75 25 -5
4 -28 9 -50 12 -22 3 -80 13 -130 23 -112 21 -486 30 -613 15 -97 -12 -248
-38 -302 -51 -109 -28 -269 -78 -325 -100 -17 -7 -41 -17 -55 -23 -99 -40
-257 -140 -346 -218 -95 -85 -193 -201 -240 -285 -15 -27 -35 -62 -44 -79 -9
-16 -29 -64 -44 -105 -15 -41 -32 -84 -36 -95 -5 -11 -16 -54 -25 -95 -9 -41
-20 -89 -25 -106 -13 -41 -13 -321 0 -329 6 -3 10 -16 10 -27 0 -77 62 -227
136 -331 19 -26 34 -51 34 -56 0 -6 25 -37 56 -70 30 -33 53 -65 49 -71 -3 -6
-29 -22 -56 -36 -27 -13 -74 -40 -104 -60 -42 -26 -59 -32 -72 -25 -55 30
-130 54 -205 66 -21 3 -39 9 -42 13 -2 4 -10 46 -16 92 -6 47 -15 99 -20 115
-5 17 -21 98 -35 180 -14 83 -30 164 -35 181 -6 17 -10 46 -10 65 0 19 -5 53
-10 76 -10 41 -21 107 -41 243 -5 36 -13 92 -19 125 -39 252 -56 394 -70 595
-6 80 -12 151 -15 159 -10 26 -6 437 4 511 6 41 16 109 22 150 43 288 190 510
337 510 43 0 93 -19 129 -47 33 -26 101 -156 128 -243 20 -67 65 -239 65 -251
0 -5 -22 -18 -50 -30 -27 -12 -55 -27 -61 -35 -20 -24 17 -28 64 -7 23 11 71
27 107 36 36 8 121 30 190 47 69 18 152 36 185 42 80 13 133 22 240 43 171 32
168 32 700 74 388 31 997 22 1222 -18 117 -21 208 -38 222 -42 11 -3 14 18 16
101 3 134 20 203 78 330 62 134 193 201 305 155z m-1473 -1113 c121 -16 251
-43 300 -62 11 -4 40 -13 65 -20 100 -27 254 -104 370 -187 58 -42 162 -144
223 -219 41 -50 119 -194 148 -271 5 -13 13 -33 18 -45 12 -27 25 -100 41
-223 17 -125 -5 -383 -40 -470 -59 -150 -143 -276 -257 -386 -123 -117 -213
-174 -418 -264 -72 -32 -200 -75 -220 -75 -12 0 -25 -4 -30 -9 -6 -4 -44 -16
-85 -25 -262 -59 -357 -70 -571 -62 -103 4 -238 14 -300 22 -63 8 -143 19
-179 24 -36 4 -90 16 -120 25 -30 9 -67 19 -83 22 -15 3 -30 9 -33 14 -3 5
-15 9 -27 9 -40 0 -196 62 -209 83 -13 21 -9 33 27 86 19 28 35 57 35 66 0 24
-46 48 -82 42 -61 -10 -133 -29 -143 -38 -5 -5 -24 -9 -42 -9 -27 0 -40 9 -84
63 -105 126 -175 253 -209 379 -16 64 -20 108 -20 248 0 93 5 191 11 217 60
255 157 447 306 604 126 132 296 246 458 306 22 8 49 19 60 24 56 24 223 71
315 88 30 5 82 15 115 22 33 7 104 15 158 19 53 4 101 10 105 14 9 10 303 0
397 -12z m-1395 -1976 c0 -36 -247 -336 -277 -336 -14 0 -163 144 -163 158 0
21 176 117 270 147 30 10 64 21 75 26 20 8 95 12 95 5z m-159 -354 c-31 -69
-37 -77 -52 -77 -7 0 -18 12 -23 28 -9 25 -6 32 40 78 56 58 69 47 35 -29z"></path>
<path d="M3563 3886 c21 -19 48 -36 60 -39 12 -3 47 -13 77 -22 83 -24 154
-29 169 -11 20 24 3 36 -51 36 -56 0 -141 21 -203 51 -22 10 -51 19 -65 19
-24 -1 -24 -2 13 -34z"></path>
<path d="M2495 3740 c-9 -28 -88 -95 -143 -119 -65 -30 -73 -35 -75 -46 -4
-21 46 -15 96 10 59 31 133 88 146 114 11 19 4 61 -9 61 -5 0 -11 -9 -15 -20z"></path>
<path d="M3620 3290 c-29 -29 -31 -136 -2 -157 49 -39 122 4 122 71 0 88 -69
137 -120 86z"></path>
<path d="M2424 3175 c-9 -13 -18 -42 -21 -64 -5 -33 -1 -44 20 -65 33 -33 61
-33 92 -1 34 33 33 84 -1 124 -32 38 -67 41 -90 6z"></path>
<path d="M2774 2895 c-40 -18 -74 -60 -74 -91 0 -13 16 -42 36 -64 30 -33 43
-40 75 -40 21 0 40 -4 43 -9 3 -5 -7 -26 -23 -48 -15 -21 -34 -56 -42 -76 -12
-33 -11 -41 3 -65 24 -40 79 -56 126 -36 39 16 152 128 152 150 0 35 -27 22
-84 -38 -34 -35 -76 -70 -94 -78 -29 -11 -35 -10 -52 5 -11 10 -20 24 -20 32
0 21 45 95 75 123 14 13 25 34 25 47 0 21 -4 23 -50 23 -95 0 -166 68 -115
110 28 23 110 30 171 14 64 -16 94 -18 94 -4 0 24 -104 60 -170 59 -25 0 -59
-7 -76 -14z"></path>
<path d="M6827 2623 c-9 -8 25 -33 36 -26 4 3 3 11 -4 19 -13 15 -22 18 -32 7z"></path>
<path d="M1885 2210 c-18 -35 -19 -53 -3 -83 6 -12 14 -29 18 -37 10 -22 93
-26 114 -5 21 21 21 98 0 130 -14 21 -24 25 -65 25 -44 0 -50 -3 -64 -30z"></path>
<path d="M1089 1215 c-58 -6 -112 -16 -120 -20 -7 -5 -31 -12 -54 -16 -73 -14
-109 -26 -198 -68 -71 -34 -94 -51 -122 -89 -55 -75 -47 -149 27 -244 48 -61
204 -129 351 -153 49 -8 47 -21 -4 -29 -23 -4 -54 -15 -68 -24 -14 -10 -39
-24 -55 -32 -33 -17 -56 -63 -56 -114 0 -39 34 -72 102 -101 20 -8 39 -18 42
-23 3 -5 31 -14 63 -21 32 -7 69 -17 83 -23 l25 -10 -25 -18 c-79 -60 -80 -61
-80 -100 0 -31 6 -43 33 -66 49 -41 91 -55 186 -60 l86 -4 -65 18 c-36 9 -75
23 -87 30 -12 6 -27 12 -34 12 -7 0 -27 12 -46 26 -52 39 -44 71 26 105 50 24
114 37 281 57 48 5 65 11 65 22 0 12 -11 14 -55 12 -173 -9 -245 -5 -326 21
-158 49 -234 94 -234 138 0 31 62 84 126 108 30 12 99 26 152 33 53 6 101 15
107 20 20 18 -17 31 -97 33 -50 1 -98 9 -120 19 -21 9 -48 16 -60 16 -44 0
-200 66 -265 112 -42 31 -83 103 -83 149 0 32 86 138 113 139 4 0 26 9 50 19
23 11 59 24 80 30 20 6 52 15 70 21 95 28 205 38 414 36 210 -2 309 -11 383
-36 60 -20 73 -25 130 -53 36 -18 57 -24 64 -17 18 18 -35 56 -114 83 -209 70
-440 91 -691 62z"></path>
<path d="M6160 1162 c0 -5 9 -35 20 -67 11 -32 20 -70 20 -85 0 -41 11 -90 21
-90 5 0 6 21 3 48 -7 63 -46 202 -56 202 -4 0 -8 -4 -8 -8z"></path>
<path d="M2869 839 c-42 -22 -86 -72 -254 -284 -65 -82 -139 -172 -165 -200
-104 -112 -321 -315 -357 -334 l-38 -20 36 -1 c46 0 109 46 253 188 115 113
209 222 363 419 99 129 174 203 203 203 10 0 23 -7 30 -15 12 -14 11 -22 -12
-100 -14 -46 -67 -140 -103 -183 -30 -35 -32 -52 -7 -52 11 0 35 24 59 59 44
64 113 201 113 224 0 23 31 29 51 11 37 -34 20 -108 -49 -218 -24 -38 -41 -75
-38 -82 6 -16 36 -19 36 -4 0 5 17 34 38 64 33 46 57 97 78 165 4 11 7 11 20
0 12 -10 15 -24 10 -57 -10 -75 -87 -190 -324 -482 -93 -114 -107 -136 -90
-138 23 -4 27 0 142 138 102 122 237 304 262 354 10 21 27 52 36 70 9 17 17
52 18 78 0 41 -4 49 -31 70 -17 13 -48 40 -68 61 -21 22 -46 37 -60 37 -13 0
-36 11 -53 25 -35 30 -51 30 -99 4z"></path>
<path d="M0 763 c0 -33 25 -52 44 -33 7 7 2 19 -17 37 l-27 28 0 -32z"></path>
<path d="M6206 634 c-7 -123 -5 -156 8 -143 10 10 19 279 9 279 -6 0 -13 -57
-17 -136z"></path>
<path d="M6190 416 c-12 -33 -13 -56 -1 -56 10 0 25 69 17 77 -3 3 -10 -6 -16
-21z"></path>
<path d="M6170 306 c0 -19 -4 -38 -10 -41 -5 -3 -10 -28 -10 -56 0 -27 5 -49
10 -49 6 0 10 24 10 54 0 30 5 58 10 61 6 3 10 19 10 36 0 16 -4 29 -10 29 -5
0 -10 -15 -10 -34z"></path>
<path d="M0 90 c0 -36 49 -93 77 -89 20 4 17 9 -27 59 -45 50 -49 53 -50 30z"></path>
<path d="M1795 10 c-15 -7 -10 -9 23 -9 26 -1 41 3 37 9 -7 12 -32 12 -60 0z"></path>
</g>
</svg>