 <svg version="1.0" xmlns="http://www.w3.org/2000/svg" width="700.000000pt" height="520.000000pt" viewBox="0 0 700.000000 520.000000" preserveAspectRatio="xMidYMid meet">
<metadata>
Created by potrace 1.12, written by Peter Selinger 2001-2015
</metadata>
<g transform="translate(0.000000,520.000000) scale(0.100000,-0.100000)" fill="#000000" stroke="none">
<path d="M0 5153 l1 -48 24 30 c13 16 34 37 47 47 23 18 23 18 -24 18 l-48 0
0 -47z"></path>
<path d="M92 5164 c-85 -57 -86 -61 -85 -394 0 -157 3 -548 6 -870 4 -374 2
-703 -5 -911 -9 -253 -9 -379 1 -565 10 -194 14 -1056 8 -1754 -4 -471 21
-604 126 -653 31 -15 313 -16 3263 -16 1777 0 3277 4 3335 8 153 12 212 48
241 145 15 48 14 1455 -1 2336 -5 289 -9 536 -9 550 0 14 -5 250 -11 525 -5
275 -10 715 -11 978 0 320 -4 493 -11 523 -14 55 -68 104 -133 122 -36 9 -766
12 -3354 12 l-3307 0 -53 -36z m4433 16 c164 0 295 -4 290 -8 -6 -5 -50 -23
-100 -42 -207 -75 -380 -188 -565 -371 -190 -188 -309 -389 -358 -608 -25
-112 -25 -115 -8 -185 20 -87 20 -132 1 -170 -8 -15 -15 -39 -15 -51 0 -40 55
-194 131 -365 l74 -165 -1 -95 c0 -103 -3 -113 -88 -293 -35 -74 -52 -100 -72
-108 -15 -5 -29 -8 -31 -5 -3 2 2 29 11 59 33 114 12 188 -64 228 -41 23 -120
25 -158 5 -31 -16 -123 -110 -141 -144 -6 -12 -16 -22 -22 -22 -5 0 -49 26
-97 58 -48 31 -104 65 -124 75 -21 9 -38 20 -38 24 0 5 20 33 45 63 25 30 85
113 132 183 94 139 85 133 163 111 26 -7 103 39 128 76 35 52 28 132 -16 188
-54 67 -38 102 17 35 25 -31 32 -34 45 -23 22 18 20 27 -14 70 -34 43 -37 60
-14 95 18 28 13 55 -11 55 -8 0 -20 -9 -27 -20 -16 -25 -32 -25 -75 1 -33 20
-35 20 -53 4 -27 -24 -25 -30 15 -54 34 -20 46 -41 23 -41 -6 0 -27 12 -47 28
-32 24 -45 27 -108 27 -70 0 -74 -1 -108 -35 -30 -30 -36 -44 -41 -97 -5 -41
-3 -72 6 -92 12 -30 11 -32 -91 -147 -57 -64 -133 -153 -168 -198 -35 -44 -68
-80 -75 -79 -11 1 -250 103 -293 125 -25 12 -29 23 -13 33 6 4 8 49 4 118 -3
62 -5 165 -4 230 1 125 7 153 60 257 78 158 133 296 137 349 2 30 7 58 11 61
4 3 8 19 9 35 2 55 22 199 36 261 20 83 88 185 133 198 50 15 82 -62 63 -156
-6 -29 -13 -75 -16 -103 -3 -27 -9 -70 -14 -95 -6 -25 -10 -52 -11 -60 0 -8
-7 -22 -14 -31 -8 -8 -17 -50 -20 -92 -6 -65 -5 -77 8 -77 17 0 47 71 55 130
5 35 9 40 38 46 18 3 42 1 53 -5 23 -12 56 -72 45 -80 -5 -3 -9 -17 -10 -31 0
-14 -6 -63 -12 -110 -21 -164 -24 -217 -13 -224 11 -6 52 43 52 64 0 6 8 25
17 43 9 18 20 48 24 67 4 19 14 61 23 93 9 32 16 75 16 96 0 21 3 41 8 45 7 8
9 20 13 104 1 28 5 52 8 52 3 0 7 20 8 44 1 42 45 189 63 211 4 6 27 46 50 90
41 76 133 213 189 281 14 17 34 41 45 54 l19 23 291 -6 c160 -4 426 -7 591 -7z
m2170 1 c157 -21 207 -51 218 -131 4 -25 9 -432 12 -905 3 -500 9 -901 15
-958 6 -53 9 -101 6 -106 -3 -5 -32 -11 -63 -15 -32 -3 -83 -18 -112 -32 -54
-25 -55 -25 -80 -6 -22 16 -51 57 -77 110 -4 8 -1 38 6 67 28 117 -6 274 -93
424 l-44 76 -6 190 c-7 206 -30 371 -73 519 -33 116 -71 225 -89 253 -11 16
-15 64 -17 180 l-3 158 -78 3 c-72 3 -79 1 -84 -18 -3 -11 -8 -20 -11 -20 -3
0 -38 32 -78 70 -51 50 -93 80 -145 104 -39 18 -67 35 -60 37 30 10 783 10
856 0z m-847 -44 c35 -17 75 -42 89 -55 23 -21 24 -26 11 -33 -36 -20 -178
-30 -419 -28 -141 1 -260 -1 -266 -4 -6 -4 -13 -32 -15 -62 -6 -75 -18 -86
-66 -58 -142 83 -239 113 -367 113 -87 0 -260 -27 -318 -49 -54 -21 -49 -11
14 32 73 48 164 91 294 138 80 29 105 34 225 39 74 3 274 3 445 1 l310 -3 63
-31z m410 -214 c3 -43 3 -43 -30 -43 -41 0 -58 15 -58 50 0 36 8 41 50 38 34
-3 35 -5 38 -45z m-757 18 c22 -18 25 -18 43 -3 13 12 41 18 96 20 70 4 79 2
98 -18 l21 -22 27 21 c20 16 41 21 83 21 80 0 94 -13 99 -92 6 -99 -2 -108
-96 -108 -51 1 -83 5 -96 15 -16 12 -21 12 -40 0 -28 -21 -164 -20 -193 0 -18
13 -22 13 -33 0 -16 -20 -169 -22 -175 -2 -2 6 -6 40 -10 74 -5 58 -4 65 19
88 21 21 35 25 79 25 39 0 62 -6 78 -19z m749 -121 c0 -5 -4 -10 -10 -10 -5 0
-10 5 -10 10 0 6 5 10 10 10 6 0 10 -4 10 -10z m-100 -145 c14 -4 36 -8 50 -9
63 -8 77 -17 99 -64 83 -180 145 -563 139 -858 l-2 -110 41 -41 c73 -73 104
-164 104 -305 0 -131 -33 -226 -108 -309 -33 -37 -37 -38 -54 -23 -13 11 -26
14 -50 9 -85 -19 -201 12 -302 79 -82 55 -191 187 -242 293 -69 144 -73 166
-67 346 4 144 3 157 -13 163 -32 13 -55 -29 -55 -100 0 -34 -9 -105 -20 -156
-11 -51 -20 -98 -20 -102 0 -5 -5 -6 -11 -3 -7 5 -9 48 -5 134 4 69 2 214 -4
321 -15 266 -42 373 -154 610 -31 66 -31 71 -7 101 19 24 21 24 288 30 273 6
348 5 393 -6z m-1502 -228 c84 -172 218 -308 445 -450 47 -29 114 -65 150 -81
l66 -28 17 -71 c21 -93 30 -347 15 -452 -6 -44 -20 -127 -31 -185 -25 -130
-56 -309 -65 -374 -6 -43 -9 -47 -28 -43 -111 26 -181 38 -292 51 -71 9 -166
27 -210 40 -202 63 -412 253 -500 452 -52 118 -95 353 -95 525 l0 77 64 47
c158 116 315 343 399 578 4 9 8 17 11 17 2 0 26 -46 54 -103z m-3691 -412 c30
-9 74 -34 108 -62 64 -53 222 -238 343 -401 131 -178 315 -413 363 -466 42
-46 53 -52 108 -63 114 -21 302 -136 288 -176 -7 -21 -53 -10 -162 42 -60 28
-110 51 -113 51 -2 0 -2 -22 2 -48 23 -175 16 -203 -34 -142 -19 23 -32 31
-44 27 -12 -5 -27 8 -57 51 -124 176 -206 294 -294 423 -54 79 -107 156 -119
171 -11 15 -31 42 -44 60 -13 18 -46 65 -75 105 -29 39 -71 98 -94 130 -23 32
-77 93 -120 135 -84 81 -128 102 -200 96 -54 -5 -55 -28 -1 -28 145 0 204 -68
780 -900 164 -237 188 -266 212 -257 10 4 30 -11 58 -43 50 -58 75 -63 145
-29 24 12 47 19 50 15 12 -12 -19 -52 -61 -79 -84 -53 -116 -37 -291 144 -120
124 -196 211 -241 275 -16 23 -62 88 -103 145 -41 57 -103 145 -138 194 -71
101 -115 155 -189 233 -45 46 -56 53 -84 50 -31 -3 -34 -7 -47 -58 -25 -98
-52 -442 -53 -676 0 -91 -3 -114 -17 -125 -25 -21 -173 -25 -210 -5 -28 14
-30 20 -35 83 -9 116 -1 381 17 536 18 162 81 411 115 459 11 15 20 36 20 47
0 24 61 79 98 87 15 3 32 7 37 9 19 6 32 5 82 -10z m909 -201 c19 -9 47 -32
64 -50 25 -29 30 -43 30 -87 0 -60 -40 -180 -70 -212 -24 -26 -17 -38 14 -23
85 38 866 -267 1221 -477 83 -49 181 -110 219 -137 77 -53 86 -56 86 -29 0 10
33 53 73 94 57 60 80 77 110 83 55 9 106 -4 139 -36 25 -26 28 -35 28 -97 -1
-38 -8 -89 -18 -117 -19 -53 -19 -53 -162 -97 -41 -12 -93 -31 -115 -40 -22
-10 -70 -29 -107 -43 l-67 -25 -41 77 c-49 91 -94 150 -164 215 -137 128 -273
210 -471 286 -165 63 -296 91 -456 98 -112 5 -135 3 -199 -16 -40 -13 -96 -36
-125 -52 -28 -16 -54 -29 -58 -29 -8 0 -284 343 -310 386 -7 12 76 149 118
194 13 14 32 41 42 60 13 24 36 44 73 63 61 31 98 34 146 11z m-504 -677 c26
-34 77 -100 113 -147 37 -47 69 -90 71 -96 3 -6 -11 -38 -29 -71 -122 -215
-128 -493 -15 -716 76 -153 222 -328 338 -407 195 -132 424 -202 660 -202 206
1 299 24 449 114 35 21 66 36 69 34 5 -6 -150 -306 -220 -423 -51 -87 -54 -93
-38 -93 9 0 47 53 76 105 111 203 201 377 213 415 6 19 36 62 67 95 98 107
194 316 194 426 0 34 5 42 38 64 48 31 209 98 221 91 7 -5 -311 -645 -411
-826 -49 -90 -92 -168 -151 -280 -27 -52 -54 -101 -60 -107 -16 -22 -196 -16
-360 12 -212 35 -460 122 -661 232 -164 90 -451 284 -625 423 -137 110 -142
116 -137 145 26 125 14 261 -30 363 -28 64 -102 161 -155 204 -21 17 -39 36
-39 42 0 47 338 666 363 666 7 0 33 -28 59 -63z m953 28 c193 -32 442 -128
613 -239 79 -50 222 -179 257 -231 44 -64 97 -175 91 -190 -14 -38 -86 -3 -86
43 0 30 -29 134 -41 146 -19 21 -19 -6 0 -70 11 -37 19 -70 17 -72 -2 -2 -19
3 -37 11 -19 8 -58 19 -86 26 l-53 13 42 22 c48 25 65 53 27 43 -141 -37 -204
-56 -207 -66 -2 -7 10 -11 30 -11 l33 -1 -31 -13 c-38 -17 -65 -52 -57 -75 3
-9 15 -24 27 -33 21 -17 21 -18 -9 -18 -17 0 -41 -7 -53 -16 -33 -23 -32 -132
3 -200 29 -57 29 -58 13 -76 -28 -29 -75 -105 -86 -136 -13 -37 -7 -61 20 -80
10 -7 18 -22 18 -32 0 -27 32 -42 64 -30 14 5 67 46 117 90 51 44 100 85 110
91 12 6 -6 -34 -49 -108 -55 -98 -84 -135 -167 -218 -55 -55 -124 -116 -153
-135 -51 -35 -64 -50 -39 -50 23 0 186 131 252 203 68 75 180 258 191 315 8
38 27 56 79 72 22 7 57 21 78 32 22 11 42 17 45 14 13 -14 -31 -167 -74 -254
-37 -76 -62 -111 -129 -181 -70 -73 -101 -96 -184 -139 -139 -73 -220 -92
-394 -92 -213 0 -343 31 -532 127 -145 73 -270 184 -364 323 -73 106 -101 163
-137 270 -25 76 -28 99 -28 215 0 120 2 136 31 215 34 94 82 182 97 177 6 -2
32 -29 60 -61 l50 -57 -23 -132 c-34 -191 -34 -190 -18 -212 14 -18 19 -18 49
-7 19 6 51 12 71 12 41 0 61 22 103 114 18 40 31 56 45 56 28 0 100 30 137 57
61 45 78 118 33 143 -13 6 -17 17 -14 30 5 18 11 20 47 15 36 -6 47 -3 74 20
18 15 32 34 32 42 0 25 -52 162 -65 173 -19 16 -28 -20 -15 -54 5 -15 10 -31
10 -36 0 -5 -44 14 -97 41 -58 30 -124 55 -161 62 -34 6 -61 16 -59 20 5 17
115 79 163 92 66 18 210 18 319 0z m-1779 -313 c1 -158 9 -309 23 -452 11
-118 21 -236 21 -262 0 -47 0 -47 -25 -34 -81 42 -234 168 -397 329 l-98 96
-1 53 c0 29 -4 78 -9 108 -5 30 -10 101 -12 157 l-3 103 55 24 c93 42 162 66
246 86 91 22 187 38 194 32 3 -2 6 -110 6 -240z m518 213 c54 -13 100 -26 103
-29 3 -3 -5 -26 -17 -51 -20 -42 -26 -46 -49 -41 -14 3 -62 11 -106 17 -105
15 -110 17 -110 70 0 24 1 47 3 52 6 13 77 7 176 -18z m5567 -13 c10 -33 8
-44 -15 -92 -15 -30 -42 -73 -60 -95 l-34 -40 -31 29 -30 29 39 51 c21 28 52
75 70 104 17 28 36 52 40 52 5 0 14 -17 21 -38z m-2108 -143 c37 -24 67 -46
67 -50 0 -4 -12 -15 -27 -25 -16 -10 -51 -39 -79 -66 l-51 -48 -44 20 c-33 15
-66 20 -135 20 -50 0 -93 3 -97 6 -3 3 10 26 28 50 35 46 117 201 128 243 6
23 9 22 75 -41 38 -35 99 -84 135 -109z m1118 74 c30 -67 30 -68 13 -106 -21
-45 -129 -165 -140 -155 -4 5 3 45 16 90 12 46 31 118 42 161 11 42 25 77 30
77 5 0 22 -30 39 -67z m1054 -3 c14 -16 17 -30 12 -69 -9 -79 -61 -181 -92
-181 -6 0 -26 18 -44 40 l-32 40 36 42 c19 23 47 66 61 95 13 29 28 53 33 53
4 0 16 -9 26 -20z m247 -163 l3 -147 -50 6 c-27 3 -66 10 -85 14 -19 5 -61 12
-93 15 -31 4 -60 11 -63 16 -3 5 0 9 5 9 19 0 70 117 77 175 8 64 24 79 73 65
21 -6 45 -5 74 4 29 9 44 9 48 2 4 -6 9 -77 11 -159z m-5924 117 c45 -4 82 -8
82 -9 0 -11 -39 -88 -92 -185 -35 -63 -70 -130 -77 -148 -27 -66 -36 -32 -39
153 -1 99 0 185 3 193 3 7 13 11 22 8 10 -3 55 -8 101 -12z m5375 -35 c44 -23
119 -93 175 -163 66 -81 107 -165 127 -263 18 -82 20 -370 4 -476 -28 -191
-108 -519 -130 -532 -5 -4 -25 6 -44 20 -19 15 -67 40 -107 56 -78 32 -91 44
-78 70 18 33 71 267 90 394 25 166 26 392 4 501 -24 115 -64 186 -156 278 -81
81 -85 94 -28 97 19 0 96 19 118 28 2 0 13 -4 25 -10z m-5539 -135 c3 -9 6
-78 6 -155 0 -76 7 -206 16 -289 8 -83 14 -158 12 -168 -3 -15 -6 -14 -25 5
-47 47 -73 208 -73 455 0 130 2 148 18 157 25 15 39 13 46 -5z m3543 -53 c74
-43 120 -136 110 -223 -8 -64 -87 -229 -161 -338 -86 -125 -166 -220 -312
-369 -139 -143 -146 -147 -199 -107 -19 15 -18 17 35 63 226 193 412 436 470
615 25 78 18 117 -28 160 -54 51 -89 61 -216 66 -159 6 -257 -11 -461 -80
-139 -48 -239 -97 -380 -190 -135 -88 -216 -128 -259 -128 -14 0 -26 -4 -26
-10 0 -19 -39 -10 -70 16 -35 30 -74 99 -64 115 4 6 2 14 -3 18 -6 3 -13 27
-17 54 -6 37 -4 47 7 47 21 0 31 -16 62 -95 35 -89 54 -110 103 -109 49 0 92
12 92 25 0 9 -44 6 -92 -8 -36 -9 -16 18 55 73 84 67 137 115 137 126 0 17
-47 30 -173 48 -73 11 -133 20 -134 20 -2 0 -3 6 -3 14 0 7 16 22 37 31 71 34
206 7 305 -61 l37 -26 53 25 c164 77 515 196 685 233 87 19 133 23 238 21 117
-2 134 -5 172 -26z m-2638 -51 c20 -28 21 -35 10 -68 -19 -58 -79 -185 -85
-179 -3 3 2 40 10 83 33 164 39 194 40 194 1 0 12 -14 25 -30z m5011 4 c47 -9
108 -22 137 -28 l52 -11 5 -217 c3 -120 3 -218 1 -218 -3 0 -13 4 -23 9 -9 5
-53 22 -97 37 -44 15 -85 31 -92 36 -6 5 -14 44 -17 86 -10 124 -34 217 -71
272 -34 51 -34 65 0 56 11 -4 58 -13 105 -22z m-4915 -112 c-15 -62 -73 -138
-91 -120 -7 7 9 59 38 125 17 39 21 42 39 32 16 -8 19 -17 14 -37z m2395 -32
c29 -16 51 -38 63 -62 18 -36 18 -41 2 -95 -40 -139 -193 -353 -376 -525 -65
-62 -119 -118 -119 -125 0 -39 -50 14 -73 77 -9 25 -17 53 -17 62 0 8 30 42
67 74 90 80 186 181 280 294 147 177 174 243 113 275 -41 21 -66 19 -225 -20
-234 -57 -568 -174 -647 -227 -15 -11 -48 -28 -73 -39 -69 -31 -104 -9 -46 28
15 10 68 45 117 77 133 89 286 153 472 201 136 34 132 33 282 32 124 -2 139
-4 180 -27z m-3246 -92 c125 -117 163 -217 153 -399 -11 -194 -73 -314 -214
-415 -60 -43 -84 -54 -155 -68 -97 -21 -176 -18 -191 5 -15 23 1 88 28 114 12
13 42 29 66 35 110 27 239 100 239 135 0 7 8 15 18 17 30 8 84 132 95 219 9
64 7 93 -6 156 -9 43 -13 91 -10 107 4 22 2 27 -8 24 -15 -5 -16 -35 -4 -198
6 -80 4 -105 -13 -157 -21 -67 -71 -154 -86 -150 -26 8 -30 37 -9 75 38 71 48
134 34 205 -40 203 -52 367 -28 367 8 0 49 -33 91 -72z m3167 42 c41 -22 19
-65 -126 -244 -121 -151 -291 -310 -720 -675 -33 -28 -66 -51 -73 -51 -7 0
-17 12 -22 26 -9 22 -2 42 49 139 33 62 64 121 70 132 6 10 46 90 89 178 44
88 104 207 133 264 l54 105 84 28 c46 15 87 25 91 23 5 -3 11 -23 15 -44 6
-39 29 -70 38 -54 2 4 10 32 18 61 7 29 20 59 29 67 15 13 180 53 228 54 13 1
32 -4 43 -9z m-1281 -347 c0 -7 -112 -144 -116 -141 -2 2 1 21 6 42 10 44 75
117 96 109 8 -3 14 -7 14 -10z m108 -39 c-4 -22 -176 -179 -185 -170 -12 12
35 90 84 139 34 35 54 47 75 47 22 0 29 -4 26 -16z m1852 -90 c33 -42 60 -86
60 -96 0 -13 5 -18 14 -15 8 3 20 -1 28 -10 24 -29 149 -125 212 -162 98 -59
254 -119 386 -149 25 -6 92 -14 150 -18 58 -3 108 -8 112 -10 3 -2 -7 -36 -23
-74 -41 -97 -70 -236 -74 -357 -3 -86 -7 -107 -25 -133 -29 -40 -95 -176 -132
-270 -76 -195 -103 -463 -58 -585 12 -33 23 -71 23 -85 l2 -25 -675 -3 c-371
-1 -691 0 -710 4 l-35 7 34 9 c65 18 89 46 130 151 8 20 27 36 69 54 111 51
236 212 293 376 28 82 79 299 79 338 0 11 13 39 29 62 74 109 99 203 111 417
6 107 13 161 29 204 25 71 57 233 48 242 -12 13 -19 -3 -33 -78 -20 -105 -45
-197 -58 -207 -7 -6 -31 9 -68 43 l-57 51 20 58 c30 90 57 237 51 290 -2 26
-1 47 2 47 3 0 33 -34 66 -76z m-710 -186 c0 -21 -13 -51 -39 -88 -65 -94
-109 -230 -129 -399 -16 -140 -18 -148 -52 -193 -91 -121 -202 -396 -230 -570
-15 -97 3 -206 42 -257 11 -15 18 -40 18 -68 0 -52 12 -79 50 -113 25 -22 28
-29 22 -65 l-7 -40 -239 0 c-229 0 -239 1 -250 20 -6 11 -22 40 -37 65 -34 58
-94 223 -118 325 -19 79 -61 177 -93 215 -47 55 -74 109 -62 125 5 7 34 44 65
81 57 71 139 201 139 222 0 6 12 19 28 29 175 112 643 502 792 661 41 44 81
80 88 81 7 1 12 -11 12 -31z m-307 -158 c15 -7 27 -19 27 -25 0 -10 -177 -167
-265 -234 -19 -14 -76 -60 -127 -101 -102 -83 -206 -156 -212 -149 -2 2 3 36
11 74 11 52 22 76 41 92 15 13 30 23 34 23 3 0 55 35 115 78 59 42 121 86 136
97 16 11 50 38 76 60 112 95 124 104 130 102 3 -2 18 -9 34 -17z m952 -71 l48
-51 -7 -122 c-4 -66 -14 -150 -22 -186 -17 -69 -75 -203 -92 -214 -5 -3 -17 6
-27 20 -9 14 -35 44 -57 66 -34 34 -39 44 -30 57 59 82 110 248 119 389 3 50
9 92 13 92 4 0 29 -23 55 -51z m2192 -196 c-1 -115 -1 -408 1 -653 3 -530 -5
-627 -55 -672 -46 -42 -93 -48 -425 -55 -204 -4 -318 -3 -318 4 0 5 13 22 30
38 101 97 195 376 220 653 7 77 13 98 35 128 39 51 70 127 100 249 25 100 27
121 22 235 -7 168 0 185 79 194 33 4 109 24 169 45 61 21 118 39 127 40 17 1
18 -14 15 -206z m-533 123 c40 -19 80 -44 90 -55 35 -38 42 -194 15 -331 -16
-84 -68 -236 -90 -264 l-20 -25 -70 58 c-38 33 -85 67 -104 76 -36 17 -41 25
-26 41 6 5 26 47 45 92 44 103 76 254 76 361 0 45 3 81 6 81 4 0 39 -15 78
-34z m-3216 -28 c25 -64 26 -195 3 -290 -25 -108 -96 -250 -147 -295 -49 -44
-130 -23 -149 38 -14 44 33 153 194 446 33 62 61 117 61 123 0 23 26 8 38 -22z
m1395 -410 c68 -83 71 -96 47 -222 -64 -329 -206 -564 -369 -609 -45 -12 -48
-16 -72 -95 -15 -51 -70 -105 -102 -100 -17 2 -21 9 -19 28 2 14 10 30 18 36
8 6 14 14 14 18 0 4 9 19 19 34 11 15 24 52 31 82 11 57 28 87 139 251 62 92
141 244 141 273 0 8 4 17 9 20 11 7 58 203 67 281 4 35 11 55 20 55 7 0 32
-24 57 -52z m-1688 0 c3 -3 -13 -61 -36 -129 -22 -68 -51 -158 -64 -199 -13
-41 -41 -122 -63 -180 -40 -109 -45 -127 -87 -370 -14 -80 -28 -153 -31 -162
-5 -16 -19 -18 -108 -18 -56 0 -105 2 -107 5 -3 2 3 51 13 107 10 57 25 148
33 203 17 108 26 125 60 125 39 0 85 12 85 23 0 5 -14 7 -33 4 -19 -3 -40 -1
-48 4 -9 6 -10 9 -2 9 19 0 104 166 140 272 39 115 66 242 60 275 -2 14 1 27
9 31 15 9 171 9 179 0z m3386 -166 l84 -68 3 -65 c3 -70 -28 -281 -60 -399
-32 -120 -97 -247 -159 -312 l-54 -56 -110 -6 c-60 -3 -116 -2 -123 2 -18 12
0 56 47 112 109 132 165 233 223 405 55 166 70 284 48 395 -15 79 -7 79 101
-8z m-6207 -200 c6 -10 -17 -102 -32 -128 -9 -15 -11 -3 -12 59 0 70 2 77 19
77 11 0 22 -4 25 -8z m3910 -532 c36 -11 67 -24 70 -29 3 -4 -1 -37 -8 -72
-11 -55 -16 -64 -34 -63 -12 0 -65 1 -117 2 l-95 2 0 28 c0 29 23 123 34 141
11 17 78 13 150 -9z m-832 -111 c26 -17 45 -35 42 -40 -14 -24 -140 -5 -155
23 -29 55 38 65 113 17z"></path>
<path d="M6337 5003 c-3 -4 -7 -71 -8 -148 -4 -135 -3 -140 16 -140 18 0 20 7
20 57 0 31 2 59 5 61 3 3 21 2 40 -2 35 -7 35 -7 35 -61 0 -48 2 -55 20 -55
19 0 20 7 20 145 l0 145 -72 3 c-39 2 -73 -1 -76 -5z m108 -83 l0 -45 -40 0
c-38 0 -40 2 -43 33 -5 53 3 64 45 60 38 -3 38 -3 38 -48z"></path>
<path d="M6525 5000 c-10 -16 4 -30 30 -30 24 0 24 0 27 -127 3 -119 4 -128
22 -128 19 0 20 8 20 125 l1 125 30 5 c18 3 30 11 30 20 0 12 -17 16 -77 18
-45 2 -79 -1 -83 -8z"></path>
<path d="M5016 3744 c-23 -22 -20 -71 4 -84 42 -23 85 33 60 79 -13 25 -42 27
-64 5z"></path>
<path d="M4262 3674 c-35 -24 -22 -94 16 -94 27 0 42 20 42 57 0 41 -27 59
-58 37z"></path>
<path d="M4756 3521 c-9 -16 -29 -40 -46 -55 -26 -21 -42 -26 -89 -26 -36 0
-65 6 -79 16 -29 20 -45 8 -17 -12 32 -24 91 -37 130 -30 41 8 135 91 135 119
0 26 -18 20 -34 -12z"></path>
<path d="M836 3657 c-13 -13 -33 -50 -46 -83 -20 -52 -23 -88 -32 -316 -11
-307 -8 -410 10 -416 10 -3 13 12 10 69 -1 41 1 187 6 324 9 276 23 360 71
405 14 13 25 27 25 32 0 15 -21 8 -44 -15z"></path>
<path d="M1770 2995 c0 -3 9 -19 21 -34 12 -16 24 -50 26 -75 3 -25 10 -46 16
-46 19 0 0 111 -24 136 -21 22 -39 31 -39 19z"></path>
<path d="M1697 3773 c-15 -14 -6 -23 23 -23 64 0 75 -79 29 -209 -22 -65 -24
-94 -6 -110 8 -6 54 -18 103 -26 209 -36 497 -131 827 -271 155 -66 446 -222
648 -346 45 -28 69 -35 69 -20 -2 25 -486 290 -705 384 -22 9 -94 40 -160 69
-216 93 -639 219 -735 219 -40 0 -44 13 -22 73 23 61 45 193 36 210 -26 47
-84 74 -107 50z"></path>
<path d="M3570 2941 c0 -6 6 -11 14 -11 8 0 28 -12 45 -26 39 -32 40 -66 6
-149 -33 -79 -15 -96 20 -19 38 83 42 142 13 177 -24 29 -98 51 -98 28z"></path>
<path d="M2059 2410 c-140 -17 -231 -108 -171 -168 17 -17 193 -78 277 -98 31
-7 155 -57 189 -75 122 -69 222 -103 266 -92 41 11 52 100 21 168 -20 45 -54
88 -123 156 -49 49 -133 89 -186 89 -15 0 -43 4 -62 9 -57 15 -141 19 -211 11z
m128 -37 c6 -18 -42 -63 -66 -63 -25 0 -56 43 -47 65 4 12 18 15 58 13 29 -2
53 -8 55 -15z m151 -17 c13 -12 11 -18 -11 -40 -44 -44 -91 -28 -103 33 l-7
34 53 -6 c30 -4 60 -13 68 -21z m-343 -6 c-3 -5 -14 -10 -23 -10 -15 0 -15 2
-2 10 20 13 33 13 25 0z m-61 -66 c11 -28 7 -44 -9 -38 -8 4 -15 17 -15 30 0
27 15 32 24 8z m615 -49 c38 -44 39 -53 4 -61 -40 -11 -77 14 -81 55 -7 72 17
74 77 6z m-459 31 c6 -8 10 -25 8 -38 -2 -19 -9 -23 -33 -21 -36 3 -85 22 -85
34 0 12 51 38 76 39 12 0 27 -7 34 -14z m170 -16 c20 -20 29 -93 12 -104 -5
-3 -32 2 -60 11 -61 20 -66 36 -23 82 34 36 44 38 71 11z m197 -98 c20 -13 26
-65 10 -86 -13 -18 -15 -18 -60 9 -26 15 -47 30 -47 33 0 3 10 16 22 29 22 23
53 29 75 15z m157 -18 c11 -28 6 -54 -9 -54 -10 0 -15 11 -15 35 0 36 13 47
24 19z m-46 -76 c7 -7 12 -23 12 -36 0 -22 -3 -24 -32 -18 -49 10 -62 25 -42
47 20 22 45 24 62 7z"></path>
<path d="M1847 2389 c-42 -24 -66 -122 -42 -169 18 -35 89 -90 117 -90 29 0
21 18 -22 45 -56 35 -74 66 -67 116 3 23 16 52 28 65 25 27 16 50 -14 33z"></path>
<path d="M440 2951 c-117 -32 -342 -144 -365 -182 -16 -24 7 -19 64 15 83 51
222 115 305 141 39 11 72 27 74 33 5 15 1 15 -78 -7z"></path>
<path d="M3128 2344 c-30 -16 -53 -50 -39 -58 4 -3 18 5 31 19 12 13 35 27 51
30 16 4 29 11 29 16 0 14 -42 10 -72 -7z"></path>
<path d="M950 1809 c0 -8 58 -39 75 -39 17 0 0 19 -30 33 -42 20 -45 20 -45 6z"></path>
<path d="M2970 1010 c0 -5 17 -14 38 -19 46 -13 52 -13 52 -1 0 5 -17 14 -37
19 -47 13 -53 13 -53 1z"></path>
<path d="M4006 104 c-6 -24 -2 -43 8 -33 11 10 17 59 8 59 -5 0 -13 -12 -16
-26z"></path>
<path d="M6912 5173 c14 -16 32 -39 41 -53 22 -35 39 -268 32 -439 -3 -75 -1
-343 3 -596 l9 -460 1 788 2 787 -57 0 -57 0 26 -27z"></path>
<path d="M0 80 l0 -80 40 0 c22 0 40 2 40 5 0 2 -11 21 -25 41 -14 20 -30 54
-35 75 -6 22 -13 39 -15 39 -3 0 -5 -36 -5 -80z"></path>
<path d="M6990 111 c0 -16 -52 -73 -85 -92 l-30 -19 63 0 62 0 0 60 c0 33 -2
60 -5 60 -3 0 -5 -4 -5 -9z"></path>
</g>
</svg>