 <svg version="1.0" xmlns="http://www.w3.org/2000/svg" width="700.000000pt" height="438.000000pt" viewBox="0 0 700.000000 438.000000" preserveAspectRatio="xMidYMid meet">
<metadata>
Created by potrace 1.12, written by Peter Selinger 2001-2015
</metadata>
<g transform="translate(0.000000,438.000000) scale(0.100000,-0.100000)" fill="#000000" stroke="none">
<path d="M5594 4354 c-25 -38 -30 -163 -10 -240 9 -34 16 -78 16 -98 0 -20 4
-36 9 -36 22 0 43 -73 39 -143 l-3 -71 33 -13 c18 -7 38 -24 44 -38 6 -14 15
-25 19 -25 17 0 59 -77 69 -127 7 -29 13 -53 14 -53 9 0 78 41 107 63 43 32
62 34 89 7 l20 -20 40 20 c117 59 114 43 -2 -20 -43 -23 -81 -46 -84 -52 -3
-5 6 -22 21 -38 24 -25 27 -33 19 -67 -9 -41 -11 -53 -13 -67 0 -5 -8 -2 -17
5 -15 12 -22 8 -56 -31 -122 -140 -241 -381 -263 -532 -7 -45 -6 -48 14 -48
16 0 26 10 37 38 41 97 152 307 209 393 62 93 246 299 267 299 11 0 -6 -21
-140 -172 -46 -51 -106 -130 -133 -175 -68 -113 -191 -362 -184 -373 4 -6 21
-10 39 -10 76 0 182 -44 275 -115 71 -54 124 -145 125 -217 1 -64 -16 -79 -97
-85 -87 -7 -137 17 -242 117 -86 82 -128 114 -161 122 -20 5 -22 2 -22 -43 0
-46 3 -51 53 -94 29 -25 58 -59 64 -76 9 -27 9 -30 -4 -19 -8 6 -27 10 -42 9
-15 -2 -38 2 -49 9 -12 6 -24 8 -28 5 -3 -4 -17 4 -31 17 -19 18 -25 20 -25 8
0 -35 -57 -32 -97 5 -21 19 -23 19 -23 2 0 -17 -1 -17 -18 -2 -10 10 -23 17
-28 17 -6 0 -23 13 -38 29 l-29 30 27 7 c83 20 246 -27 293 -84 19 -24 22 -25
28 -9 10 25 -17 51 -87 86 -75 38 -125 45 -243 36 l-95 -7 -45 -46 c-40 -41
-60 -73 -36 -57 5 3 12 1 16 -5 10 -16 45 -12 39 4 -8 22 14 56 43 67 40 15
47 -4 13 -36 -16 -16 -30 -34 -30 -39 0 -20 -45 -40 -86 -37 l-41 2 -32 -89
-32 -89 15 -67 c9 -37 16 -83 16 -102 0 -19 5 -34 10 -34 6 0 10 19 10 43 0
23 11 65 25 95 27 59 51 70 41 20 -8 -43 10 -74 19 -35 8 32 25 36 25 6 0 -12
5 -19 13 -16 19 7 9 68 -15 94 -11 12 -25 20 -29 17 -5 -3 -9 2 -9 10 0 9 4
16 9 16 5 0 24 24 41 53 18 28 40 62 49 73 17 21 17 21 19 -15 1 -20 7 -101
13 -181 12 -137 16 -417 8 -469 -2 -13 1 -26 8 -28 8 -3 12 6 11 24 -1 24 52
176 66 190 9 9 58 -28 63 -48 4 -14 11 -17 29 -13 19 5 26 1 34 -21 5 -14 10
-35 10 -46 0 -11 11 -35 24 -52 12 -18 30 -50 39 -72 9 -22 16 -34 16 -27 1 6
5 12 10 12 11 0 34 -100 26 -108 -9 -10 -35 -11 -30 -2 9 14 -56 82 -92 96
-18 8 -46 14 -63 14 -36 0 -148 -54 -211 -102 -24 -19 -52 -37 -61 -41 -10 -3
-18 -12 -18 -18 0 -8 7 -7 23 3 150 97 233 138 279 138 32 0 78 -21 97 -44 18
-21 8 -20 -31 4 -64 39 -102 26 -296 -102 -59 -38 -109 -72 -111 -74 -2 -2 5
-11 17 -21 11 -10 32 -52 46 -95 l26 -76 -25 -44 c-14 -23 -25 -51 -25 -60 0
-34 -23 -29 -66 13 -38 37 -44 40 -44 22 0 -12 -5 -23 -11 -25 -16 -5 6 -86
29 -106 15 -13 23 -39 31 -107 15 -126 14 -165 -4 -165 -8 0 -15 -4 -15 -10 0
-5 4 -10 9 -10 5 0 9 -15 9 -32 -1 -37 19 -212 28 -244 3 -13 -4 -41 -19 -70
-15 -30 -27 -76 -32 -121 l-7 -72 30 -19 c62 -37 231 -8 240 42 3 16 0 15 -36
-3 -52 -27 -141 -38 -172 -21 -21 11 -22 17 -17 74 3 33 17 86 31 116 20 46
23 62 17 98 -8 39 -7 42 8 28 41 -38 89 -48 169 -36 43 6 91 15 108 21 38 12
88 63 106 109 l15 35 13 -40 c7 -22 23 -62 36 -90 32 -70 84 -215 84 -236 0
-9 -7 -22 -15 -29 -8 -7 -15 -19 -15 -27 0 -12 3 -12 22 1 12 9 26 16 29 16 4
0 28 -36 54 -80 26 -44 53 -80 61 -80 22 0 17 18 -26 92 -27 48 -40 82 -40
108 0 21 -12 78 -26 126 -23 77 -25 95 -15 132 6 23 11 59 11 80 0 21 9 55 20
77 l20 39 -6 -62 c-6 -72 7 -105 39 -100 30 4 42 45 26 83 l-14 30 -3 -47 c-6
-86 -22 -51 -22 47 0 52 4 95 9 95 9 0 61 113 61 134 0 20 32 51 67 65 44 18
66 3 93 -64 17 -41 33 -63 64 -83 l41 -28 -3 -60 c-4 -74 5 -133 23 -157 16
-23 144 -51 197 -44 20 3 50 14 67 26 l29 21 6 -63 c12 -116 26 -232 43 -340
13 -92 18 -107 34 -107 21 0 22 8 9 66 -21 93 -52 401 -46 465 8 86 17 129 27
129 4 0 22 -20 40 -45 17 -24 36 -42 40 -39 13 8 51 96 54 124 2 14 11 80 21
148 19 136 14 208 -26 322 -29 82 -26 100 35 200 30 50 55 95 55 101 0 6 43
87 95 181 l95 170 0 141 c-1 115 -5 160 -24 237 -24 97 -104 383 -133 476 -12
39 -14 70 -9 127 l7 75 -32 23 -32 23 6 168 c8 197 9 193 -83 283 -65 64 -120
137 -120 160 0 8 -19 27 -43 44 -37 25 -45 37 -53 78 -9 46 -10 48 -44 48 -28
0 -37 5 -50 30 -20 41 -18 192 4 264 23 79 21 209 -6 299 -19 65 -39 95 -54
80 -2 -3 4 -33 15 -68 l20 -62 -27 25 c-15 14 -53 38 -84 52 -60 27 -79 26
-108 -9 -8 -11 -29 -16 -61 -16 -26 0 -59 -4 -73 -10 l-25 -9 15 41 c8 22 14
44 14 49 0 5 -53 9 -117 9 l-118 -1 -45 -54 c-59 -72 -91 -136 -99 -199 l-7
-51 -13 68 c-13 67 -11 127 7 200 12 45 -8 52 -34 11z m541 -95 c10 -15 -32
-57 -70 -69 -22 -7 -41 -7 -59 -1 -29 11 -29 12 -20 36 14 35 132 62 149 34z
m-718 -1925 c8 -21 -13 -42 -28 -27 -13 13 -5 43 11 43 6 0 13 -7 17 -16z
m-163 -51 c-7 -30 -33 -92 -46 -108 -4 -5 -17 -21 -27 -35 -18 -23 -20 -23
-27 -7 -8 22 23 142 42 157 7 7 18 9 23 6 5 -4 12 -2 16 4 13 21 25 9 19 -17z
m572 -28 c4 -20 3 -27 -3 -20 -6 6 -14 24 -17 40 -5 20 -4 27 3 20 5 -5 13
-23 17 -40z m-176 9 c0 -3 -8 -18 -19 -32 -29 -42 -63 -154 -70 -234 -1 -4
-14 -2 -31 3 -40 14 -39 38 3 131 37 79 80 138 103 138 8 0 14 -3 14 -6z m183
-74 c3 -11 1 -20 -4 -20 -5 0 -9 9 -9 20 0 11 2 20 4 20 2 0 6 -9 9 -20z m-33
-55 c0 -26 -7 -30 -28 -17 -16 10 -5 42 14 42 8 0 14 -10 14 -25z m34 3 c3
-13 6 -27 6 -33 -1 -15 -30 27 -30 42 0 22 17 15 24 -9z m-219 -28 c-4 -12 -9
-19 -12 -17 -3 3 -2 15 2 27 4 12 9 19 12 17 3 -3 2 -15 -2 -27z m232 -52 c-3
-7 -5 -2 -5 12 0 14 2 19 5 13 2 -7 2 -19 0 -25z m-191 -197 c12 -70 13 -96 4
-105 -20 -20 -38 21 -45 102 -8 98 -9 110 -6 152 l3 35 15 -45 c8 -25 21 -87
29 -139z m-126 106 c0 -13 -7 -32 -15 -43 -16 -21 -18 -12 -9 35 8 36 24 42
24 8z m378 -60 c24 -24 42 -52 42 -65 0 -33 -16 -27 -48 21 -65 95 -63 114 6
44z m-432 -23 c-3 -8 -10 -14 -15 -14 -10 0 -9 9 6 48 6 16 6 16 10 -1 3 -10
2 -25 -1 -33z m340 -318 l15 -31 -31 35 c-32 36 -41 62 -14 39 8 -7 22 -26 30
-43z m44 -83 c0 -13 -20 -19 -20 -5 0 4 -3 18 -6 32 -5 24 -5 24 10 6 9 -11
16 -26 16 -33z m-338 -365 c-15 -15 -26 -4 -18 18 5 13 9 15 18 6 9 -9 9 -15
0 -24z m-322 -208 c0 -11 -4 -20 -10 -20 -5 0 -10 9 -10 20 0 11 5 20 10 20 6
0 10 -9 10 -20z m30 -96 c0 -8 -4 -12 -10 -9 -5 3 -10 10 -10 16 0 5 5 9 10 9
6 0 10 -7 10 -16z m1463 -101 c-3 -21 -10 -46 -15 -56 -9 -18 -11 -18 -35 5
l-25 23 39 32 c21 18 39 33 40 33 1 0 -1 -17 -4 -37z m-923 -155 c0 -13 -6
-49 -14 -81 -13 -56 -13 -61 20 -162 36 -110 40 -135 24 -135 -5 0 -10 10 -10
23 0 12 -25 94 -55 182 -31 88 -58 168 -61 178 -6 15 1 17 45 17 46 0 51 -2
51 -22z"></path>
<path d="M3157 4033 c-4 -16 -40 -73 -82 -127 -89 -117 -90 -118 -80 -86 7 24
6 24 -27 -7 -19 -18 -38 -33 -42 -33 -5 0 -6 41 -4 90 5 88 -3 120 -16 59 -3
-17 -37 -77 -75 -134 -44 -66 -71 -118 -76 -144 -8 -51 -26 -52 -50 -3 -10 20
-19 32 -22 26 -5 -14 44 -124 56 -124 5 0 17 24 25 53 9 30 26 69 39 88 13 19
27 43 31 54 6 14 10 16 13 7 3 -7 -2 -21 -10 -30 -27 -32 -69 -182 -50 -182 4
0 18 16 31 35 22 35 75 75 100 75 24 0 11 -16 -23 -29 -19 -7 -35 -18 -35 -25
0 -7 -11 -25 -25 -40 -26 -28 -32 -46 -15 -46 18 0 10 -18 -10 -23 -11 -3 -20
-14 -20 -24 0 -21 64 -221 74 -231 3 -3 16 4 29 16 22 20 47 29 47 17 0 -3 -7
-22 -15 -42 -8 -20 -13 -38 -11 -41 8 -7 26 9 26 23 0 51 89 143 124 129 19
-7 42 -54 56 -114 l13 -55 10 35 9 35 29 -35 c18 -21 26 -27 22 -15 -6 18 -5
18 10 6 9 -7 17 -20 17 -27 0 -8 4 -14 10 -14 5 0 7 21 3 50 -6 56 -1 60 35
28 24 -22 24 -22 18 -2 -3 11 1 35 10 52 8 17 14 46 12 64 -3 29 -7 33 -35 36
-32 3 -33 2 -33 -35 0 -28 -3 -34 -10 -23 -14 22 -12 63 4 85 13 18 15 17 59
-4 63 -31 72 -43 57 -83 -22 -61 -30 -151 -17 -180 15 -36 24 -35 32 3 l7 31
45 -43 c25 -24 43 -36 40 -26 -9 23 0 22 35 -8 37 -31 53 -32 37 -2 -11 20
-11 21 5 8 16 -13 17 -12 10 14 l-7 29 46 -39 c26 -22 47 -45 47 -51 0 -7 -27
-35 -60 -64 -79 -69 -77 -84 3 -19 94 76 207 129 273 129 30 0 54 -4 54 -10 0
-5 -15 -10 -32 -10 -84 0 -200 -50 -238 -102 -20 -27 -20 -31 -6 -47 15 -16
15 -19 -2 -35 -11 -9 -30 -15 -43 -14 -20 3 -28 -6 -53 -56 -29 -60 -32 -92
-20 -180 5 -38 3 -47 -7 -44 -20 7 -32 104 -19 157 14 54 41 109 76 150 14 18
24 34 22 36 -7 7 -112 -85 -120 -104 -3 -9 -11 -29 -17 -45 -11 -27 -12 -28
-31 -11 -10 9 -22 31 -26 48 -3 17 -18 49 -33 71 l-26 39 -10 -44 c-9 -36 -18
-48 -52 -66 -39 -22 -40 -25 -47 -85 -3 -34 -12 -71 -20 -83 -16 -24 -7 -49
28 -77 30 -24 16 -30 -25 -10 l-34 17 0 115 c0 141 -15 200 -50 200 -14 0 -29
8 -35 20 -6 11 -19 20 -30 20 -10 0 -23 6 -27 14 -4 8 -26 16 -48 18 l-40 3
-7 60 c-14 124 -40 147 -174 146 -46 0 -99 -4 -117 -10 -17 -6 -49 -13 -69
-16 -29 -4 -48 -18 -88 -62 -65 -73 -65 -97 0 -33 62 63 81 64 34 3 -20 -27
-41 -61 -46 -76 -8 -21 -15 -26 -29 -22 -14 5 -23 -4 -42 -42 -22 -43 -57
-144 -57 -165 0 -4 4 -8 9 -8 5 0 12 16 15 35 11 55 26 52 26 -5 0 -43 3 -50
18 -48 13 2 18 -6 22 -35 6 -44 23 -50 31 -10 13 63 57 97 51 39 -1 -14 2 -26
8 -26 5 0 10 22 10 49 0 28 4 53 10 56 14 9 48 -12 55 -35 8 -24 25 -27 25 -4
0 9 -14 29 -32 46 -31 28 -31 31 -17 56 12 21 22 27 49 27 l35 0 0 -70 c0 -38
4 -78 9 -88 5 -11 4 -48 -2 -90 -18 -117 -24 -167 -18 -167 3 0 27 36 52 80
26 44 49 80 51 80 3 0 2 -24 -2 -52 -10 -71 6 -53 26 30 8 36 20 67 26 69 6 2
13 -14 17 -36 9 -59 30 -66 24 -7 -3 25 -2 46 2 46 13 0 30 -51 30 -90 0 -31
-5 -43 -30 -60 -28 -20 -30 -25 -27 -83 2 -71 8 -68 -96 -41 l-68 17 -28 -27
c-28 -27 -29 -27 -61 -11 -50 26 -73 17 -82 -30 -5 -33 -3 -43 14 -57 11 -10
29 -18 40 -18 27 0 67 -46 61 -70 -3 -11 -9 -20 -14 -20 -5 0 -9 -11 -9 -23 0
-13 -9 -32 -20 -42 -11 -10 -20 -26 -20 -36 0 -19 -12 -25 -82 -34 -39 -6 -49
-4 -67 14 -17 17 -20 30 -16 54 3 20 0 39 -9 51 -14 18 -16 18 -44 -5 -36 -29
-66 -76 -53 -83 4 -3 16 3 26 14 22 24 38 25 55 5 11 -13 8 -22 -21 -53 -56
-59 -97 -125 -104 -166 -10 -51 -29 -55 -72 -15 -55 54 -65 79 -57 157 7 71
-6 79 -23 13 -12 -48 -37 -55 -28 -8 5 26 3 36 -9 40 -12 5 -16 20 -15 69 2
108 23 141 31 48 l3 -35 28 30 c25 26 28 35 23 72 -5 36 -2 44 14 53 24 13 25
36 4 149 -43 235 -145 400 -279 452 -49 19 -80 23 -165 23 -98 1 -110 -1 -172
-31 -137 -65 -230 -199 -232 -335 -1 -38 -4 -68 -8 -68 -15 0 -8 -23 13 -41
18 -16 21 -26 16 -64 -4 -25 -3 -45 2 -45 4 0 11 -20 14 -44 8 -59 65 -234 79
-242 7 -5 9 1 5 18 -13 51 -27 165 -27 223 0 36 -8 82 -21 114 -24 64 -38 214
-20 225 8 5 11 -9 11 -46 1 -75 21 -144 56 -186 16 -20 31 -50 34 -66 7 -43
31 -47 28 -4 -2 24 1 33 12 33 9 0 14 -8 13 -22 -3 -24 49 -69 67 -58 13 8 3
51 -22 93 -16 26 -26 32 -53 32 -29 0 -34 4 -40 30 -4 16 -4 39 0 50 4 12 2
26 -3 33 -13 16 -26 117 -15 117 5 0 19 -21 33 -47 32 -63 69 -113 81 -113 6
0 2 12 -9 28 -38 54 -35 68 6 28 35 -33 44 -37 71 -31 17 4 31 7 31 8 -1 10
-30 80 -44 107 l-19 35 22 -19 c11 -11 21 -24 21 -30 0 -6 9 -17 20 -24 11 -7
20 -18 20 -25 0 -8 7 -14 15 -14 8 0 15 4 15 9 0 5 5 6 10 3 6 -4 4 -12 -5
-21 -21 -21 -38 -55 -31 -61 3 -3 13 3 23 15 15 17 23 19 43 11 24 -10 24 -11
6 -25 -20 -14 -20 -14 1 -42 38 -51 73 -38 80 32 3 25 10 46 15 46 17 0 -3 20
-40 40 -23 12 -30 19 -19 20 15 0 16 3 7 21 -21 38 -4 43 19 6 12 -20 25 -37
28 -37 3 0 3 18 1 39 -2 22 0 37 4 35 5 -3 8 -11 8 -19 0 -7 6 -20 13 -27 7
-7 19 -28 26 -45 14 -34 31 -44 31 -19 0 41 47 24 79 -28 l22 -34 -35 -64
c-25 -47 -35 -79 -38 -125 -2 -34 -1 -60 3 -57 10 6 21 -28 12 -37 -4 -4 -32
-17 -62 -29 -30 -12 -90 -46 -133 -77 -85 -60 -87 -67 -26 -99 39 -20 35 -55
-7 -68 -82 -24 -128 -51 -142 -83 -7 -18 -13 -40 -13 -49 0 -15 4 -14 27 7 33
30 21 8 -28 -51 -49 -60 -69 -101 -76 -159 -7 -57 6 -98 53 -177 30 -49 34
-62 25 -82 -9 -18 -8 -28 4 -45 8 -12 15 -31 15 -42 1 -12 18 -33 44 -52 43
-31 44 -34 39 -75 -9 -73 -23 -119 -40 -125 -9 -4 -39 6 -68 21 -35 18 -58 24
-71 19 -16 -6 -15 -8 11 -13 27 -5 31 -10 39 -53 6 -35 4 -65 -8 -112 -9 -35
-16 -75 -16 -89 0 -18 -6 -26 -22 -28 -36 -5 -113 -205 -124 -322 -9 -97 0
-112 75 -127 l59 -13 5 -44 c3 -24 14 -56 25 -71 11 -15 29 -59 39 -97 13 -46
25 -70 36 -72 11 -2 17 3 17 15 0 31 -30 126 -52 160 -25 42 -37 81 -49 168
-5 39 -12 87 -15 108 -8 50 45 337 62 337 7 0 15 -4 19 -10 23 -36 203 -21
238 21 9 12 17 27 17 35 0 10 12 12 53 7 28 -3 54 -7 56 -10 3 -2 -9 -17 -25
-34 -27 -28 -28 -31 -13 -57 12 -22 23 -28 57 -30 48 -4 62 -24 62 -87 0 -19
4 -45 10 -60 7 -19 6 -34 -5 -55 -8 -16 -15 -39 -15 -51 0 -12 -12 -36 -27
-54 -16 -18 -39 -51 -52 -73 -13 -23 -58 -76 -99 -119 -71 -75 -142 -175 -142
-200 0 -26 21 -12 53 34 17 27 48 64 68 83 60 58 168 196 175 223 3 14 17 33
30 42 16 10 24 25 24 45 0 16 4 32 10 35 5 3 14 24 20 45 6 22 15 40 19 40 15
0 21 -31 10 -52 -6 -11 -8 -31 -5 -44 8 -31 36 -32 36 -1 0 13 6 31 13 42 13
16 16 14 37 -29 30 -63 81 -116 111 -116 14 0 58 16 99 36 73 35 77 36 131 25
78 -16 100 -14 174 13 l65 24 0 -37 c0 -35 -22 -236 -36 -332 -7 -53 7 -89 36
-89 24 0 25 8 4 31 -14 16 -15 24 -1 81 13 52 25 165 40 353 2 28 6 31 124 70
68 23 126 44 129 48 16 16 -35 214 -87 334 -30 71 -22 103 49 177 67 69 77 75
78 43 1 -12 2 -26 3 -32 0 -5 18 7 39 27 20 20 51 43 68 51 49 25 57 42 61
130 4 104 35 258 78 395 49 157 112 531 131 780 3 50 10 92 15 92 12 0 10 -72
-4 -197 -8 -64 -9 -109 -3 -122 6 -15 5 -26 -6 -39 -9 -9 -21 -55 -28 -102 -7
-47 -23 -141 -36 -210 -13 -69 -24 -142 -24 -163 0 -20 -6 -46 -12 -57 -11
-17 -10 -22 2 -30 8 -5 11 -12 7 -17 -5 -4 -12 -1 -17 7 -15 24 -24 3 -24 -53
0 -38 -4 -56 -17 -68 -27 -24 -43 -139 -34 -253 4 -53 11 -96 15 -96 5 0 11
-13 15 -30 4 -17 11 -30 16 -30 6 0 8 8 5 18 -35 117 -43 302 -15 353 28 53
35 -50 7 -108 -8 -15 -7 -35 1 -67 6 -24 8 -52 5 -61 -4 -9 -2 -20 4 -24 8 -5
13 -51 15 -127 2 -109 5 -124 32 -179 41 -82 41 -83 15 -60 -12 11 -29 33 -38
50 -8 16 -33 54 -54 83 l-39 52 -53 -37 c-32 -23 -62 -53 -73 -76 l-18 -38
-23 30 -23 31 74 75 c46 46 83 75 96 75 16 0 21 6 21 25 0 29 -16 32 -42 8
-10 -9 -28 -21 -40 -27 -12 -6 -33 -27 -46 -46 -13 -19 -43 -47 -68 -62 -24
-16 -44 -31 -44 -34 0 -4 16 -29 36 -57 33 -46 36 -55 31 -101 -2 -28 -1 -58
4 -68 5 -10 14 -27 19 -38 6 -11 10 -29 10 -41 0 -12 18 -37 43 -60 47 -43 39
-52 -13 -14 -19 14 -35 25 -35 25 -1 0 0 -24 3 -53 3 -44 1 -55 -17 -71 -12
-11 -21 -26 -21 -35 0 -9 -7 -25 -16 -36 -17 -23 -63 -163 -98 -302 -31 -121
-31 -123 -8 -123 14 0 24 28 54 151 25 104 50 178 82 244 26 52 50 95 55 95 4
0 14 -12 21 -26 21 -38 84 -67 135 -61 l42 4 6 -84 c7 -99 36 -264 48 -278 5
-5 9 -17 9 -27 0 -12 7 -18 21 -18 16 0 19 4 14 18 -4 9 -16 57 -28 107 -18
76 -21 119 -20 271 0 99 6 230 13 290 13 110 16 147 19 217 2 53 21 46 21 -8
0 -55 15 -59 24 -7 9 59 7 70 -18 95 -20 20 -25 37 -29 98 -3 41 -8 87 -12
102 -5 19 -3 33 7 45 11 12 17 54 22 152 9 190 21 249 71 376 41 102 44 117
39 171 -4 38 -2 68 5 81 9 18 9 22 -2 22 -7 0 -18 -5 -25 -12 -22 -22 -24 1
-4 30 24 33 123 112 141 112 6 0 -4 -16 -24 -35 -19 -20 -35 -39 -36 -43 -1
-13 -8 -136 -13 -211 -2 -40 -9 -77 -15 -80 -6 -4 -9 -15 -6 -23 4 -11 -1 -18
-14 -23 -12 -3 -21 -13 -21 -21 0 -7 -14 -41 -32 -74 -31 -59 -32 -95 -2 -52
25 36 32 25 26 -45 -3 -44 -2 -64 5 -60 25 16 37 -28 46 -176 5 -84 10 -186
11 -227 2 -80 13 -130 27 -130 5 0 9 14 9 30 0 17 5 30 10 30 6 0 10 -23 10
-52 0 -73 32 -308 42 -308 12 0 9 95 -7 180 -11 64 -11 77 1 91 19 22 17 49
-5 73 -16 17 -21 42 -27 132 -6 100 -5 111 11 118 14 5 16 13 10 44 -4 20 -13
44 -22 54 -11 12 -14 38 -11 108 2 68 0 94 -9 97 -10 4 -13 -14 -13 -66 0 -39
-3 -71 -8 -71 -4 0 -17 26 -30 58 -31 80 -29 154 4 212 42 73 55 115 43 149
-9 26 -5 40 30 112 22 45 38 85 35 90 -10 18 -24 8 -38 -26 -21 -49 -28 -44
-20 13 5 37 14 54 44 82 21 19 51 42 67 51 26 14 28 20 25 58 -4 39 -9 45 -76
90 -39 27 -77 58 -84 70 -19 33 -50 175 -45 204 4 20 1 27 -11 27 -23 0 -48
56 -49 109 0 27 8 66 21 94 17 38 26 47 46 47 33 0 77 20 69 33 -3 5 1 13 8
18 11 7 10 11 -6 23 -20 14 -20 15 3 39 35 37 106 64 204 78 104 15 167 4 231
-40 54 -37 129 -118 125 -134 -2 -7 -24 -22 -48 -34 -25 -13 -52 -32 -61 -42
-16 -20 -16 -19 -28 3 -7 12 -25 27 -41 33 -18 7 -34 24 -44 47 -8 20 -22 36
-30 36 -8 0 -29 -18 -48 -40 -22 -27 -42 -41 -62 -42 -19 -2 -31 -10 -37 -26
-9 -24 -11 -77 -2 -54 2 6 9 12 15 12 15 0 1 -74 -20 -110 -11 -16 -22 -27
-25 -23 -4 3 -7 0 -7 -8 -1 -10 -3 -9 -11 3 -10 19 -39 14 -39 -7 0 -17 17
-22 59 -19 40 2 45 9 61 83 6 31 21 76 33 101 20 41 26 45 61 48 21 2 42 0 47
-5 4 -4 13 -44 20 -89 12 -78 14 -81 40 -82 21 0 33 8 53 38 14 22 26 51 26
65 0 26 3 28 50 39 14 4 38 17 54 30 37 31 31 49 -47 132 -76 82 -129 114
-202 121 -34 4 -59 11 -62 19 -3 8 -18 14 -33 14 -37 0 -44 13 -20 35 27 24
25 36 -8 68 -26 25 -28 32 -24 83 6 72 -6 84 -134 145 -76 35 -106 55 -116 76
-8 15 -24 43 -34 61 l-19 33 41 38 c22 21 47 40 55 43 7 3 10 9 6 14 -5 5 -36
-1 -70 -13 -34 -12 -63 -20 -65 -18 -2 2 15 16 39 32 29 19 38 29 26 31 -14 3
-10 12 18 54 58 84 47 88 -46 19 -57 -44 -119 -73 -119 -58 0 3 17 16 37 28
47 29 27 37 -26 10 -22 -12 -44 -21 -48 -21 -4 0 26 34 67 75 65 65 71 74 45
67 -16 -6 -66 -15 -110 -22 -68 -10 -102 -21 -179 -58 -5 -3 2 11 16 29 30 40
61 99 55 105 -2 2 -22 -12 -44 -31 -50 -43 -58 -44 -38 -6 8 17 11 32 6 35 -7
5 -34 -24 -78 -83 -2 -2 -6 -1 -9 2 -4 4 -2 12 4 19 9 11 42 123 42 142 0 19
-18 2 -23 -21z m123 -758 c7 -9 8 -15 2 -15 -5 0 -12 7 -16 15 -3 8 -4 15 -2
15 2 0 9 -7 16 -15z m505 -4 c-12 -11 -83 -51 -92 -51 -3 0 11 14 32 30 34 27
84 45 60 21z m29 -142 c-7 -12 -61 -11 -69 0 -3 5 5 17 17 25 20 14 24 14 40
-1 10 -8 15 -20 12 -24z m-1191 -47 c13 -14 14 -21 5 -30 -7 -7 -18 -12 -25
-12 -16 0 -54 41 -47 52 9 14 50 9 67 -10z m225 -15 c3 -15 -2 -18 -30 -14
-18 3 -34 6 -36 6 -1 1 3 8 10 16 17 20 52 15 56 -8z m-183 -89 c0 -53 -9 -65
-35 -48 -12 8 -11 15 8 54 12 26 23 46 25 46 2 0 3 -23 2 -52z m767 -243 c-2
-14 -9 -25 -14 -25 -6 0 -7 7 -4 16 3 9 6 20 6 25 0 5 4 9 9 9 4 0 6 -11 3
-25z m-1531 -52 c-9 -16 -10 -16 -11 4 0 12 3 30 7 40 7 16 8 16 11 -4 2 -12
-1 -30 -7 -40z m59 -3 c0 -16 -4 -30 -10 -30 -11 0 -14 43 -3 53 11 12 13 8
13 -23z m1460 3 c0 -5 -5 -15 -10 -23 -8 -12 -10 -11 -10 8 0 12 5 22 10 22 6
0 10 -3 10 -7z m-1473 -65 c-3 -8 -6 -5 -6 6 -1 11 2 17 5 13 3 -3 4 -12 1
-19z m1129 -64 c-12 -30 -25 -13 -13 19 8 23 12 27 15 14 2 -10 1 -25 -2 -33z
m-1289 -100 c-3 -3 -12 -4 -19 -1 -8 3 -5 6 6 6 11 1 17 -2 13 -5z m1069 -61
c-11 -11 -19 6 -11 24 8 17 8 17 12 0 3 -10 2 -21 -1 -24z m-211 -34 c11 -17
-1 -21 -15 -4 -8 9 -8 15 -2 15 6 0 14 -5 17 -11z m986 -45 c5 -15 8 -29 5
-31 -2 -2 -8 10 -14 26 -13 38 -5 41 9 5z m95 -142 c-8 -8 -47 31 -70 68 -15
27 -11 24 29 -15 25 -26 44 -50 41 -53z m9 78 c10 -11 16 -20 13 -20 -3 0 -13
9 -23 20 -10 11 -16 20 -13 20 3 0 13 -9 23 -20z m-597 -191 c12 -5 22 -15 22
-24 0 -8 9 -41 19 -72 30 -86 41 -195 41 -381 -1 -117 -5 -179 -15 -207 -17
-47 -10 -59 15 -27 23 27 30 28 30 1 0 -37 -17 -57 -45 -51 -27 5 -37 27 -33
77 2 32 -7 75 -78 360 -31 128 -44 200 -44 251 0 95 9 102 88 73z m-1076 -84
c3 -14 1 -23 -6 -22 -15 3 -20 -48 -8 -82 10 -29 -3 -110 -32 -198 -15 -46
-15 -52 3 -104 10 -31 26 -70 36 -88 26 -51 -4 -34 -38 20 -39 64 -45 130 -18
218 14 46 22 99 22 149 1 99 29 173 41 107z m-423 -224 c-31 -56 -60 -85 -44
-43 9 23 69 111 74 107 1 -2 -12 -31 -30 -64z m-43 -89 c-5 -8 24 -164 39
-211 3 -12 2 -21 -3 -21 -6 0 -20 40 -31 89 -22 92 -26 133 -14 144 9 10 15 9
9 -1z m1688 -126 c-9 -36 -20 -66 -25 -66 -5 0 -9 26 -9 58 0 50 3 59 23 68
12 5 23 9 25 8 2 -1 -5 -31 -14 -68z m115 -58 c1 -21 -3 -38 -9 -38 -6 0 -10
25 -9 58 0 41 3 51 9 37 5 -11 9 -37 9 -57z m-410 23 c16 -10 6 -31 -14 -31
-29 0 -72 -56 -95 -125 -35 -107 -90 -168 -106 -117 -3 9 -9 24 -14 34 -14 26
4 114 33 157 43 64 152 110 196 82z m-736 -109 c-6 -52 -23 -73 -23 -28 0 25
20 89 26 83 2 -2 1 -27 -3 -55z m-569 22 c3 -8 2 -12 -4 -9 -6 3 -10 10 -10
16 0 14 7 11 14 -7z m495 -96 c13 -37 20 -72 16 -77 -7 -12 -83 -36 -90 -29
-5 4 20 143 31 177 7 22 19 2 43 -71z m172 5 c7 -18 9 -76 5 -167 l-6 -138 27
5 c16 3 39 9 53 13 23 7 24 6 11 -9 -7 -9 -18 -17 -23 -17 -5 0 -16 -7 -25
-15 -8 -9 -28 -19 -44 -22 -38 -7 -43 -17 -26 -45 8 -13 25 -58 37 -101 22
-75 22 -78 5 -97 -16 -17 -16 -24 -6 -44 12 -22 11 -69 -2 -141 -5 -23 -9 -23
-127 1 -117 24 -123 31 -71 90 35 40 52 74 36 74 -9 0 -92 -86 -104 -108 -19
-36 -31 -16 -17 30 10 35 18 44 44 52 18 5 32 15 32 22 0 19 -5 18 -57 -8 -31
-16 -46 -19 -54 -11 -16 16 -4 30 43 54 28 15 37 24 30 31 -11 11 -40 3 -98
-24 -29 -14 -79 -6 -79 12 0 20 75 60 138 74 66 15 70 37 8 50 -30 6 -58 6
-88 -2 -57 -16 -95 -15 -118 1 -26 20 -14 32 52 52 73 22 89 36 37 32 -57 -3
-54 28 5 60 55 29 99 29 146 2 20 -12 37 -20 38 -18 32 58 67 130 67 138 0 17
-28 13 -40 -6 -10 -16 -11 -16 -5 2 4 11 7 24 8 30 1 5 14 18 30 27 15 10 27
25 27 33 0 8 6 15 14 15 8 0 16 15 19 36 11 67 58 89 78 37z m1079 -43 c0 -11
-4 -20 -10 -20 -5 0 -10 9 -10 20 0 11 5 20 10 20 6 0 10 -9 10 -20z m-1739
-71 c19 -16 20 -19 6 -15 -10 3 -25 6 -33 6 -8 0 -14 7 -14 15 0 21 14 19 41
-6z m1969 -9 c0 -16 -4 -30 -10 -30 -5 0 -10 14 -10 30 0 17 5 30 10 30 6 0
10 -13 10 -30z m-1905 -10 c3 -5 1 -10 -4 -10 -6 0 -11 5 -11 10 0 6 2 10 4
10 3 0 8 -4 11 -10z m1915 -100 c0 -16 -4 -30 -10 -30 -5 0 -10 14 -10 30 0
17 5 30 10 30 6 0 10 -13 10 -30z m-1530 -5 c-7 -8 -17 -15 -23 -15 -6 0 -2 7
9 15 25 19 30 19 14 0z m1120 -199 c0 -11 -19 -15 -25 -6 -3 5 1 10 9 10 9 0
16 -2 16 -4z m-30 -119 c0 -7 -12 -20 -25 -30 -23 -17 -25 -17 -35 2 -5 11
-10 40 -10 65 l0 45 35 -35 c19 -19 35 -40 35 -47z m-1730 -49 c0 -7 -9 -57
-20 -111 -24 -117 -25 -159 -6 -195 9 -18 12 -40 8 -60 -7 -35 -28 -41 -25 -7
1 11 -5 43 -14 70 -14 48 -14 56 13 182 16 73 32 133 37 133 4 0 7 -6 7 -12z
m910 -169 c0 -11 -4 -18 -10 -14 -5 3 -7 12 -3 20 7 21 13 19 13 -6z m27 -9
c1 -11 -2 -20 -8 -20 -5 0 -9 9 -9 20 0 11 4 20 8 20 4 0 8 -9 9 -20z m-1019
-122 c7 -7 12 -27 12 -46 0 -26 -4 -33 -17 -30 -13 2 -19 15 -21 46 -3 43 4
52 26 30z"></path>
<path d="M2237 1133 c-4 -3 -7 -14 -7 -23 0 -10 -9 -38 -21 -64 -11 -25 -17
-51 -14 -56 9 -15 45 -12 39 3 -2 7 2 32 11 56 22 65 18 111 -8 84z"></path>
<path d="M2033 983 c-49 -9 -11 -33 52 -33 l30 1 -24 19 c-13 11 -26 19 -30
19 -3 -1 -16 -4 -28 -6z"></path>
<path d="M3615 3760 c-3 -5 1 -10 9 -10 9 0 16 5 16 10 0 6 -4 10 -9 10 -6 0
-13 -4 -16 -10z"></path>
<path d="M4938 3598 c-2 -16 -11 -24 -32 -28 -16 -3 -31 -11 -34 -18 -3 -10 3
-11 25 -6 15 5 36 8 46 8 11 0 17 8 17 23 0 13 0 26 1 30 2 20 -20 11 -23 -9z"></path>
<path d="M4930 3516 c-11 -14 -24 -17 -52 -13 -32 4 -38 2 -38 -13 0 -15 7
-17 48 -13 54 6 65 13 60 38 -3 17 -4 17 -18 1z"></path>
<path d="M2720 3466 c0 -8 4 -17 8 -20 4 -2 21 -50 37 -105 28 -94 44 -125 45
-83 1 33 -65 221 -77 222 -7 0 -13 -6 -13 -14z"></path>
<path d="M5443 3451 c-19 -8 -33 -22 -33 -32 0 -10 -4 -21 -10 -24 -5 -3 -10
-15 -10 -26 0 -10 5 -19 10 -19 6 0 10 6 10 14 0 7 10 26 22 41 18 23 26 26
57 22 23 -4 43 -1 55 8 25 19 14 30 -12 14 -17 -11 -24 -11 -39 2 -16 13 -22
13 -50 0z"></path>
<path d="M5280 3405 c0 -8 5 -15 10 -15 6 0 10 7 10 15 0 8 -4 15 -10 15 -5 0
-10 -7 -10 -15z"></path>
<path d="M5220 3381 c0 -18 18 -21 30 -6 10 13 9 15 -9 15 -11 0 -21 -4 -21
-9z"></path>
<path d="M5907 3356 c-11 -17 -22 -23 -37 -19 -24 6 -26 -9 -4 -27 13 -11 20
-9 44 16 19 19 27 34 21 42 -6 10 -12 7 -24 -12z"></path>
<path d="M5357 3319 c-10 -6 -33 -8 -51 -5 -34 7 -66 0 -66 -14 0 -4 19 -8 43
-8 45 0 107 17 107 30 0 11 -11 10 -33 -3z"></path>
<path d="M5205 3271 c-6 -11 9 -23 19 -14 9 9 7 23 -3 23 -6 0 -12 -4 -16 -9z"></path>
<path d="M2972 3238 c-16 -16 -15 -28 3 -28 8 0 15 9 15 20 0 23 -2 24 -18 8z"></path>
<path d="M5416 3111 c-7 -10 43 -46 51 -37 7 7 -26 46 -38 46 -4 0 -10 -4 -13
-9z"></path>
<path d="M2427 3083 c-4 -3 -7 -11 -7 -17 0 -6 5 -5 12 2 6 6 9 14 7 17 -3 3
-9 2 -12 -2z"></path>
<path d="M3134 3039 c-14 -22 -23 -44 -20 -47 8 -7 17 3 45 51 31 51 8 47 -25
-4z"></path>
<path d="M4510 3071 c0 -13 29 -35 37 -28 7 8 -15 37 -28 37 -5 0 -9 -4 -9 -9z"></path>
<path d="M5491 3071 c-11 -7 -10 -11 6 -20 22 -11 33 -6 33 16 0 15 -18 17
-39 4z"></path>
<path d="M5625 3060 c4 -6 11 -8 16 -5 14 9 11 15 -7 15 -8 0 -12 -5 -9 -10z"></path>
<path d="M3179 3013 c-33 -53 -34 -56 -12 -44 20 10 50 67 41 77 -3 3 -16 -12
-29 -33z"></path>
<path d="M4810 3010 c0 -5 7 -10 16 -10 8 0 12 5 9 10 -3 6 -10 10 -16 10 -5
0 -9 -4 -9 -10z"></path>
<path d="M3747 2923 c-13 -26 -29 -64 -35 -83 -13 -42 -22 -190 -12 -190 7 0
29 91 50 205 5 27 15 62 21 78 20 48 1 41 -24 -10z"></path>
<path d="M3247 2910 c-19 -16 -44 -30 -56 -30 -19 0 -20 -3 -11 -20 6 -11 16
-20 23 -20 13 0 97 80 97 93 0 15 -20 6 -53 -23z"></path>
<path d="M3865 2920 c-4 -6 -16 -8 -28 -4 -12 3 -19 3 -15 -1 12 -13 -11 -33
-31 -28 -15 4 -19 -4 -24 -49 -10 -76 -8 -158 2 -158 9 0 21 72 21 131 0 30 6
42 28 57 19 14 33 17 44 11 13 -7 17 -3 20 21 4 30 -5 40 -17 20z"></path>
<path d="M4493 2909 c-57 -7 -169 -56 -220 -95 -18 -14 -48 -31 -67 -39 -35
-15 -33 -10 -68 -151 -16 -65 4 -162 52 -255 22 -44 40 -86 40 -94 0 -25 19
-17 26 11 4 16 0 46 -9 73 -9 25 -20 93 -23 151 -3 58 -10 118 -16 133 -9 23
-8 31 5 45 14 13 19 14 29 3 11 -10 10 -15 -4 -25 -24 -18 -23 -23 15 -66 17
-20 37 -45 43 -56 10 -17 12 -15 29 19 21 46 39 38 31 -14 -5 -31 -1 -46 24
-86 25 -39 30 -57 30 -109 0 -52 3 -62 19 -67 21 -5 46 -73 57 -157 6 -46 5
-49 -24 -64 -17 -9 -38 -16 -46 -16 -17 0 -161 137 -169 160 -2 8 -7 12 -11 9
-11 -10 15 -112 40 -155 29 -49 30 -57 7 -51 -10 2 -30 -3 -45 -10 -16 -7 -28
-9 -28 -4 0 5 6 11 13 14 9 3 9 9 0 25 -8 14 -10 42 -6 86 5 56 3 66 -10 66
-8 0 -17 -3 -20 -7 -2 -5 -2 -1 1 7 18 59 13 110 -14 169 -30 63 -51 81 -39
34 3 -16 9 -39 12 -52 11 -45 -15 -13 -32 40 -17 51 -17 159 1 233 6 26 5 27
-15 17 -18 -10 -21 -21 -21 -69 0 -64 -32 -131 -92 -194 -18 -20 -32 -42 -30
-50 2 -8 -15 -32 -36 -54 -21 -21 -51 -63 -67 -92 -27 -51 -29 -52 -69 -50
-31 2 -41 -1 -41 -12 0 -11 9 -14 32 -12 43 4 48 -10 25 -71 -11 -29 -23 -61
-27 -72 -5 -16 -8 -17 -16 -5 -8 13 -12 12 -24 -4 -16 -22 -20 -56 -6 -56 5 0
12 10 16 23 14 47 15 -4 1 -60 -8 -32 -17 -98 -21 -148 -7 -97 10 -302 26
-321 6 -7 7 -28 3 -48 -4 -26 0 -51 16 -92 l23 -55 15 31 c8 17 23 35 33 41
25 13 24 26 -10 122 -63 180 -72 293 -32 406 l17 49 33 -74 c18 -41 36 -74 40
-74 15 0 -2 140 -26 218 -28 89 -27 110 10 244 21 78 102 142 148 117 11 -5
24 -7 29 -4 6 4 10 3 9 -2 -1 -4 5 -25 14 -45 10 -21 17 -41 17 -46 0 -5 18
-37 41 -72 40 -63 41 -65 35 -129 -4 -37 -7 -75 -8 -86 -1 -11 1 -32 5 -46 6
-25 3 -28 -53 -53 -63 -29 -90 -56 -90 -94 0 -30 -73 -254 -116 -354 -28 -67
-80 -149 -106 -168 -4 -3 -10 -31 -14 -63 -5 -45 -3 -62 10 -83 23 -35 30 -25
16 23 -11 35 -9 46 13 99 28 66 56 88 102 79 42 -8 108 -74 101 -101 -4 -14 0
-24 9 -28 13 -5 15 8 13 82 -3 84 -2 90 35 161 21 41 57 102 80 135 l42 61 22
-45 c52 -106 69 -102 42 10 -18 75 -18 75 3 93 11 9 33 17 49 17 28 0 29 -1
29 -55 0 -39 10 -82 34 -143 25 -65 36 -116 45 -202 15 -142 29 -238 47 -311
19 -78 18 -131 -7 -251 -36 -176 -36 -160 -3 -152 16 4 37 13 46 21 15 14 18
13 24 -13 13 -51 44 -92 77 -103 77 -24 120 -23 237 7 141 36 183 53 204 83
23 33 20 48 -11 55 -16 4 -36 13 -47 20 -17 11 -15 14 20 31 52 24 97 24 102
-1 2 -10 -2 -22 -9 -27 -11 -7 -10 -11 5 -22 16 -12 17 -17 6 -37 -9 -18 -10
-25 -1 -28 14 -5 14 -39 0 -48 -6 -4 -9 -20 -6 -39 3 -18 -1 -50 -8 -71 -8
-22 -11 -49 -8 -61 4 -16 1 -23 -10 -23 -13 0 -15 -10 -10 -53 4 -42 0 -64
-21 -114 -31 -74 -31 -73 -8 -73 19 0 69 103 64 134 -1 11 7 65 17 120 11 56
23 140 27 187 6 78 4 95 -21 170 -34 104 -68 187 -106 261 -16 31 -29 68 -29
82 0 14 -5 28 -11 31 -26 16 -30 61 -18 192 7 73 15 133 18 133 3 0 12 -9 19
-20 17 -28 34 -25 26 4 -7 31 12 43 35 22 24 -22 30 -20 41 10 6 14 19 28 30
31 26 7 26 53 0 112 -17 37 -19 57 -14 145 l5 102 -49 42 c-45 37 -53 51 -79
129 -29 85 -30 87 -70 100 -58 20 -95 56 -91 91 2 15 8 25 13 22 6 -3 9 -13 7
-23 -4 -31 21 -13 34 24 7 19 13 53 13 77 1 57 21 54 21 -3 0 -56 13 -58 29
-5 10 33 8 51 -9 119 -22 86 -27 159 -9 129 5 -10 15 -48 22 -85 7 -38 17 -67
22 -65 6 1 9 33 8 70 -1 59 -9 95 -39 191 -7 24 -6 24 39 -7 25 -18 47 -32 49
-32 2 0 -19 24 -47 53 -29 30 -72 87 -96 128 -62 104 -150 191 -219 216 -69
25 -120 31 -187 22z m178 -40 c23 -12 16 -29 -11 -29 -21 0 -34 15 -25 30 8
13 12 12 36 -1z m-171 -84 c14 -17 7 -31 -20 -38 -23 -6 -36 13 -26 38 7 19
30 19 46 0z m-90 -55 c0 -5 -5 -10 -11 -10 -5 0 -7 5 -4 10 3 6 8 10 11 10 2
0 4 -4 4 -10z m200 -331 c0 -32 -18 -30 -31 4 -7 17 -15 36 -17 40 -2 5 7 1
22 -8 14 -10 26 -26 26 -36z m-23 -171 c3 -16 10 -28 16 -28 5 0 7 13 3 32 -9
46 9 22 21 -28 12 -47 3 -121 -21 -178 -14 -33 -14 -37 -1 -26 20 16 20 1 0
-47 -8 -20 -13 -38 -11 -40 7 -7 76 80 109 137 l31 55 13 -44 12 -43 -48 -58
c-27 -32 -55 -68 -64 -80 -11 -16 -29 -23 -71 -27 -70 -7 -78 7 -42 79 30 59
33 94 11 125 -11 16 -13 28 -5 48 5 14 10 63 10 108 1 76 2 80 16 62 8 -11 18
-32 21 -47z m-197 -260 c0 -5 -7 -8 -16 -8 -13 0 -44 54 -44 77 0 9 59 -59 60
-69z m140 28 c0 -8 -4 -17 -9 -21 -12 -7 -24 12 -16 25 9 15 25 12 25 -4z
m-45 -6 c9 -15 -43 -36 -56 -23 -6 6 -8 16 -5 22 9 14 53 14 61 1z m-164 -15
c0 -6 -10 -12 -23 -13 -19 -4 -20 -2 -9 12 15 17 33 18 32 1z m-60 -41 c10
-46 10 -94 -1 -94 -11 0 -30 64 -30 103 0 37 23 31 31 -9z m-31 -84 c0 -5 -4
-10 -10 -10 -5 0 -10 5 -10 10 0 6 5 10 10 10 6 0 10 -4 10 -10z m260 -189 c0
-6 -4 -13 -10 -16 -5 -3 -10 1 -10 9 0 9 5 16 10 16 6 0 10 -4 10 -9z m477
-696 c9 -25 -4 -29 -17 -6 -7 15 -7 21 0 21 6 0 13 -7 17 -15z m-417 -170 c13
-16 6 -35 -15 -35 -18 0 -28 17 -21 35 7 19 20 19 36 0z m-10 -105 c8 -5 11
-10 5 -10 -5 0 -4 -4 3 -9 11 -6 9 -9 -7 -14 -22 -5 -47 16 -36 33 8 12 16 13
35 0z m544 -7 c9 -23 -7 -36 -49 -39 -39 -3 -45 9 -18 38 20 23 59 23 67 1z
m-527 -107 c-7 -17 -62 -22 -71 -7 -12 18 50 46 68 30 5 -4 6 -15 3 -23z m93
27 c-8 -3 -21 -12 -27 -21 -11 -14 -13 -13 -13 6 0 18 6 22 28 21 15 0 20 -3
12 -6z"></path>
<path d="M710 2850 c-8 -5 -12 -11 -9 -14 3 -3 14 1 25 9 21 16 8 20 -16 5z"></path>
<path d="M5170 2850 c0 -5 5 -10 10 -10 6 0 10 5 10 10 0 6 -4 10 -10 10 -5 0
-10 -4 -10 -10z"></path>
<path d="M770 2836 c0 -8 14 -22 32 -30 43 -22 44 -20 10 14 -34 34 -42 37
-42 16z"></path>
<path d="M3610 2800 c0 -5 11 -10 25 -10 14 0 25 5 25 10 0 6 -11 10 -25 10
-14 0 -25 -4 -25 -10z"></path>
<path d="M1250 2755 c-18 -19 -30 -38 -27 -42 8 -7 77 55 77 69 0 16 -17 7
-50 -27z"></path>
<path d="M3613 2763 c-22 -8 -14 -23 12 -23 16 0 25 6 25 15 0 15 -14 18 -37
8z"></path>
<path d="M550 2745 c-7 -9 -21 -13 -34 -9 -14 3 -28 -1 -35 -10 -8 -9 -22 -16
-33 -16 -10 0 -34 -7 -54 -15 -29 -12 -34 -18 -28 -39 3 -14 -1 -37 -10 -54
-18 -36 -19 -42 -7 -42 5 0 17 21 27 48 21 57 41 79 74 84 25 3 27 -1 14 -37
-6 -18 -4 -17 19 4 15 14 27 31 27 38 0 7 11 18 24 23 24 9 42 28 33 36 -2 2
-10 -2 -17 -11z"></path>
<path d="M670 2732 c-40 -10 -87 -33 -118 -56 -73 -53 -122 -122 -102 -142 5
-5 2 -34 -6 -64 -19 -73 -18 -86 11 -177 39 -123 50 -130 51 -31 1 71 4 84 23
99 11 9 21 28 21 41 0 12 6 46 14 73 13 49 13 49 21 20 4 -16 13 -55 21 -86
20 -81 19 -86 -22 -92 -37 -6 -64 -22 -64 -39 0 -5 9 -7 19 -3 25 8 46 -26 28
-44 -16 -16 10 -33 32 -21 9 5 25 12 36 16 18 7 17 8 -7 12 -19 2 -28 9 -28
22 0 26 22 30 43 7 14 -17 17 -18 17 -4 0 10 5 17 10 17 6 0 10 -6 10 -13 0
-20 111 -9 126 12 10 13 15 10 33 -19 11 -19 21 -44 21 -54 0 -18 -46 -96 -57
-96 -2 0 -3 15 -2 33 2 17 2 45 1 61 l-2 28 -60 -4 c-33 -2 -62 -6 -64 -9 -2
-2 0 -87 5 -189 5 -102 10 -215 11 -252 1 -38 5 -68 9 -68 8 0 19 52 19 90 0
35 10 61 20 55 4 -2 11 23 14 56 12 101 25 115 25 27 1 -45 5 -78 11 -78 6 0
10 26 10 59 0 32 3 73 6 90 l7 32 18 -27 c10 -15 21 -45 24 -67 6 -31 10 -37
23 -32 18 8 42 12 80 14 17 1 22 7 22 30 0 45 20 49 21 4 1 -21 5 -49 9 -63
l8 -25 1 27 c1 39 47 180 66 203 15 19 16 18 10 -20 -3 -22 -8 -52 -11 -67 -3
-16 -1 -28 4 -28 13 0 72 199 72 243 0 53 14 46 34 -18 9 -30 21 -55 27 -55 9
0 6 22 -11 85 -5 17 -11 56 -14 88 -7 64 -49 201 -71 231 -11 15 -18 16 -28 8
-10 -9 -22 -9 -45 0 -38 15 -41 30 -7 48 33 17 32 24 -8 54 -92 70 -238 94
-367 58z m16 -126 c19 -15 19 -15 -3 -37 -18 -19 -24 -20 -37 -9 -9 7 -16 20
-16 30 0 33 24 39 56 16z m-184 -38 c-15 -15 -26 -4 -18 18 5 13 9 15 18 6 9
-9 9 -15 0 -24z m378 22 c0 -5 -5 -10 -11 -10 -5 0 -7 5 -4 10 3 6 8 10 11 10
2 0 4 -4 4 -10z"></path>
<path d="M5100 2739 c0 -5 5 -7 10 -4 6 3 10 8 10 11 0 2 -4 4 -10 4 -5 0 -10
-5 -10 -11z"></path>
<path d="M2340 2720 c0 -5 5 -10 10 -10 6 0 10 5 10 10 0 6 -4 10 -10 10 -5 0
-10 -4 -10 -10z"></path>
<path d="M6955 2720 c-4 -6 5 -10 19 -10 14 0 26 5 26 10 0 6 -9 10 -19 10
-11 0 -23 -4 -26 -10z"></path>
<path d="M5506 2688 c-27 -39 -18 -51 14 -20 34 34 37 42 16 42 -8 0 -22 -10
-30 -22z"></path>
<path d="M3637 2688 c-3 -9 -1 -19 6 -22 9 -3 9 -5 0 -5 -26 -2 -7 -61 18 -61
5 0 7 23 7 50 -1 28 -5 45 -9 39 -5 -8 -8 -8 -11 2 -3 9 -6 9 -11 -3z"></path>
<path d="M1160 2670 c0 -5 7 -10 15 -10 8 0 15 5 15 10 0 6 -7 10 -15 10 -8 0
-15 -4 -15 -10z"></path>
<path d="M2400 2620 c0 -16 5 -30 10 -30 6 0 10 14 10 30 0 17 -4 30 -10 30
-5 0 -10 -13 -10 -30z"></path>
<path d="M5248 2639 c-7 -4 -6 -9 2 -14 13 -8 60 2 60 13 0 9 -48 9 -62 1z"></path>
<path d="M430 2619 c0 -5 5 -7 10 -4 6 3 10 8 10 11 0 2 -4 4 -10 4 -5 0 -10
-5 -10 -11z"></path>
<path d="M5490 2621 c0 -5 5 -13 10 -16 6 -3 10 -2 10 4 0 5 -4 13 -10 16 -5
3 -10 2 -10 -4z"></path>
<path d="M5140 2610 c0 -5 5 -10 10 -10 6 0 10 5 10 10 0 6 -4 10 -10 10 -5 0
-10 -4 -10 -10z"></path>
<path d="M5560 2600 c0 -12 50 -34 58 -25 8 8 -9 22 -35 30 -14 4 -23 2 -23
-5z"></path>
<path d="M3673 2560 c-35 -14 -28 -17 32 -16 55 0 70 8 39 20 -21 8 -44 7 -71
-4z"></path>
<path d="M2410 2531 c0 -24 27 -88 41 -96 6 -4 15 -3 21 3 7 7 3 14 -11 22
-12 6 -21 16 -20 23 3 19 -12 67 -22 67 -5 0 -9 -8 -9 -19z"></path>
<path d="M1912 2514 c-12 -26 -2 -64 18 -64 15 0 23 42 10 50 -7 4 -10 15 -7
24 10 26 -9 18 -21 -10z"></path>
<path d="M3945 2530 c-3 -6 5 -10 19 -10 13 0 36 -4 50 -10 28 -10 34 -2 14
18 -15 15 -74 16 -83 2z"></path>
<path d="M426 2521 c-4 -7 -5 -15 -2 -18 9 -9 19 4 14 18 -4 11 -6 11 -12 0z"></path>
<path d="M5271 2519 c-32 -13 -121 -79 -121 -90 0 -12 29 1 98 46 74 48 85 69
23 44z"></path>
<path d="M5370 2520 c0 -5 7 -10 15 -10 8 0 15 5 15 10 0 6 -7 10 -15 10 -8 0
-15 -4 -15 -10z"></path>
<path d="M1470 2480 c0 -5 5 -10 10 -10 6 0 10 5 10 10 0 6 -4 10 -10 10 -5 0
-10 -4 -10 -10z"></path>
<path d="M4283 2444 c-35 -27 -42 -44 -18 -44 8 0 21 -16 29 -35 24 -58 27
-45 14 60 -2 14 2 20 15 19 10 -1 16 3 14 9 -6 20 -22 17 -54 -9z"></path>
<path d="M2450 2391 c0 -11 -16 -32 -35 -47 -25 -19 -33 -30 -25 -38 7 -7 19
-2 40 19 31 32 50 85 31 85 -6 0 -11 -9 -11 -19z"></path>
<path d="M5105 2390 c-3 -5 -2 -10 4 -10 5 0 13 5 16 10 3 6 2 10 -4 10 -5 0
-13 -4 -16 -10z"></path>
<path d="M5159 2366 c-42 -49 -90 -153 -96 -208 -5 -41 -3 -50 8 -46 7 2 17
23 21 45 7 43 59 172 84 211 23 35 13 33 -17 -2z"></path>
<path d="M3777 2363 c-4 -3 0 -15 10 -25 28 -31 93 -18 93 19 0 14 -90 19
-103 6z"></path>
<path d="M2183 2342 c-13 -11 -20 -26 -18 -42 1 -14 3 -31 4 -37 2 -19 26 -15
46 7 10 11 13 20 7 20 -6 0 -14 -4 -17 -10 -8 -13 -25 -13 -25 0 0 6 14 13 30
17 17 3 30 9 30 14 0 5 11 9 24 9 38 0 40 18 4 25 -18 4 -40 8 -48 10 -8 3
-25 -3 -37 -13z"></path>
<path d="M2352 2348 c-5 -7 -12 -22 -14 -33 -2 -11 -21 -29 -43 -41 -39 -20
-76 -66 -63 -79 3 -3 17 4 29 17 13 13 43 33 67 44 35 16 41 23 37 41 -3 12
-1 25 5 28 12 8 13 35 1 35 -5 0 -13 -6 -19 -12z"></path>
<path d="M345 2340 c-3 -5 -12 -7 -20 -3 -8 3 -15 1 -15 -5 0 -13 27 -23 45
-16 8 4 15 12 15 20 0 16 -16 19 -25 4z"></path>
<path d="M536 2333 c-6 -14 -5 -15 5 -6 7 7 10 15 7 18 -3 3 -9 -2 -12 -12z"></path>
<path d="M1390 2335 c0 -8 5 -15 10 -15 6 0 10 7 10 15 0 8 -4 15 -10 15 -5 0
-10 -7 -10 -15z"></path>
<path d="M360 2280 c0 -5 5 -10 10 -10 6 0 10 5 10 10 0 6 -4 10 -10 10 -5 0
-10 -4 -10 -10z"></path>
<path d="M1683 2263 c-42 -29 -23 -73 32 -73 53 0 73 41 37 73 -23 21 -40 21
-69 0z m47 -28 c0 -8 -7 -15 -15 -15 -16 0 -20 12 -8 23 11 12 23 8 23 -8z"></path>
<path d="M3969 2223 c-32 -39 -67 -100 -74 -131 -3 -17 -11 -34 -16 -37 -5 -4
-9 -15 -9 -27 0 -32 26 -5 47 50 20 55 72 142 84 142 5 0 9 5 9 10 0 16 -26
11 -41 -7z"></path>
<path d="M536 2215 c4 -8 8 -15 10 -15 2 0 4 7 4 15 0 8 -4 15 -10 15 -5 0 -7
-7 -4 -15z"></path>
<path d="M2130 2196 c0 -19 -4 -46 -10 -60 -7 -20 -6 -26 4 -26 8 0 17 7 20
16 10 26 7 104 -4 104 -5 0 -10 -15 -10 -34z"></path>
<path d="M521 2178 c-1 -16 4 -28 9 -28 12 0 12 8 0 35 -8 18 -9 17 -9 -7z"></path>
<path d="M1456 2177 c3 -10 9 -15 12 -12 3 3 0 11 -7 18 -10 9 -11 8 -5 -6z"></path>
<path d="M1540 2162 c0 -5 7 -13 16 -16 10 -4 14 -1 12 6 -5 15 -28 23 -28 10z"></path>
<path d="M75 2140 c3 -5 8 -10 11 -10 2 0 4 5 4 10 0 6 -5 10 -11 10 -5 0 -7
-4 -4 -10z"></path>
<path d="M1680 2132 c0 -12 24 -22 52 -22 11 0 18 5 16 13 -5 14 -68 23 -68 9z"></path>
<path d="M4231 2084 c0 -11 3 -14 6 -6 3 7 2 16 -1 19 -3 4 -6 -2 -5 -13z"></path>
<path d="M1 1991 c-1 -27 2 -32 11 -23 8 8 8 17 0 34 -10 22 -11 21 -11 -11z"></path>
<path d="M1140 2000 c0 -5 5 -10 10 -10 6 0 10 5 10 10 0 6 -4 10 -10 10 -5 0
-10 -4 -10 -10z"></path>
<path d="M1663 1975 c-3 -9 -3 -18 0 -21 9 -9 48 16 42 27 -9 14 -35 11 -42
-6z"></path>
<path d="M5060 1935 c0 -8 -7 -15 -15 -15 -9 0 -18 -6 -21 -13 -6 -17 23 -87
36 -87 13 0 13 4 -1 34 -15 33 4 60 38 53 24 -4 27 1 17 27 -8 21 -54 21 -54
1z"></path>
<path d="M642 1900 c0 -14 2 -19 5 -12 2 6 2 18 0 25 -3 6 -5 1 -5 -13z"></path>
<path d="M5173 1884 c-8 -21 10 -36 38 -32 16 2 25 11 27 26 3 19 -1 22 -28
22 -19 0 -33 -6 -37 -16z"></path>
<path d="M1435 1840 c-3 -5 1 -10 10 -10 9 0 13 5 10 10 -3 6 -8 10 -10 10 -2
0 -7 -4 -10 -10z"></path>
<path d="M875 1813 c-38 -25 -55 -41 -55 -54 0 -6 35 -10 111 -12 53 -2 86 17
68 39 -9 11 -5 14 25 14 55 0 35 17 -26 22 -29 3 -60 8 -68 12 -9 3 -32 -5
-55 -21z"></path>
<path d="M3916 1818 c13 -43 23 -63 45 -88 l21 -25 -15 26 c-8 14 -21 44 -28
67 -7 23 -16 42 -21 42 -5 0 -6 -10 -2 -22z"></path>
<path d="M1062 1773 c2 -9 9 -18 16 -21 18 -6 15 25 -4 32 -11 4 -14 1 -12
-11z"></path>
<path d="M5300 1725 c0 -19 5 -35 10 -35 6 0 10 16 10 35 0 19 -4 35 -10 35
-5 0 -10 -16 -10 -35z"></path>
<path d="M741 1733 c-1 -12 -13 -30 -28 -41 -21 -15 -27 -28 -28 -59 -1 -22
-9 -57 -19 -78 -20 -42 -21 -58 -15 -501 2 -197 0 -224 -16 -255 -67 -126 -68
-128 -49 -156 33 -52 -10 -191 -90 -285 -42 -50 -71 -89 -83 -113 -16 -31 -25
-93 -14 -99 5 -4 8 -27 6 -53 -4 -48 7 -73 32 -73 10 0 11 5 5 18 -5 9 -9 51
-10 93 -2 73 0 79 35 130 20 30 52 72 70 94 40 47 88 144 98 197 4 21 2 59 -6
88 -13 49 -12 52 22 118 l34 67 -1 180 c0 99 -2 234 -5 300 -3 89 0 129 10
153 12 28 12 35 1 42 -11 7 -9 19 8 65 12 31 22 66 22 78 0 11 10 31 22 44 17
19 19 27 10 45 l-11 23 0 -22z"></path>
<path d="M5520 1740 c0 -13 28 -25 38 -16 3 4 0 11 -8 16 -20 13 -30 12 -30 0z"></path>
<path d="M3661 1661 c-13 -23 -14 -61 -3 -79 15 -22 44 21 40 59 -4 38 -22 48
-37 20z"></path>
<path d="M1140 1646 c0 -9 5 -16 10 -16 6 0 10 4 10 9 0 6 -4 13 -10 16 -5 3
-10 -1 -10 -9z"></path>
<path d="M5356 1584 c-31 -31 -56 -61 -56 -67 0 -6 29 18 65 53 36 35 65 66
65 67 0 13 -27 -6 -74 -53z"></path>
<path d="M5281 1564 c-55 -60 -85 -108 -78 -127 2 -6 31 26 65 71 34 44 67 84
72 87 12 8 13 25 1 25 -5 0 -32 -25 -60 -56z"></path>
<path d="M1150 1606 c0 -2 7 -23 15 -46 8 -23 15 -63 15 -89 0 -64 -27 -276
-49 -391 -11 -52 -22 -116 -26 -143 -4 -31 -15 -55 -30 -70 -31 -29 -42 -88
-21 -106 12 -11 16 -11 16 -1 0 10 3 10 15 0 10 -8 15 -30 15 -61 0 -27 9 -72
20 -101 11 -29 20 -66 20 -83 0 -16 7 -51 15 -78 10 -35 13 -82 10 -179 -3
-72 -1 -136 4 -142 4 -6 11 -27 14 -48 4 -30 2 -37 -14 -41 -32 -9 -21 -27 16
-27 32 0 35 2 35 30 0 17 -7 47 -15 67 -11 25 -12 40 -5 48 7 9 7 27 0 59 -5
25 -8 77 -4 114 4 51 0 84 -15 137 -11 39 -17 73 -13 77 4 3 49 8 100 10 69 2
95 7 102 18 23 36 40 164 42 315 l3 160 -25 3 c-48 6 -54 11 -37 30 8 9 21 46
28 82 6 36 16 70 21 77 16 20 1 31 -60 43 -70 15 -92 26 -92 46 0 9 -13 59
-29 112 -17 54 -35 116 -41 140 -6 23 -15 42 -20 42 -6 0 -10 -2 -10 -4z m200
-1005 c-6 -12 -18 -21 -26 -21 -12 0 -10 6 8 28 25 31 36 26 18 -7z"></path>
<path d="M4316 1587 c3 -10 9 -15 12 -12 3 3 0 11 -7 18 -10 9 -11 8 -5 -6z"></path>
<path d="M5200 1508 c-12 -22 -12 -22 6 -6 10 10 15 20 12 24 -4 3 -12 -5 -18
-18z"></path>
<path d="M957 1512 c-13 -19 -19 -126 -10 -167 l9 -40 27 68 c15 37 27 74 27
82 0 21 -46 70 -53 57z"></path>
<path d="M3500 1470 c0 -16 5 -30 10 -30 6 0 10 14 10 30 0 17 -4 30 -10 30
-5 0 -10 -13 -10 -30z"></path>
<path d="M0 1480 c0 -5 7 -10 15 -10 8 0 15 5 15 10 0 6 -7 10 -15 10 -8 0
-15 -4 -15 -10z"></path>
<path d="M560 1426 c-12 -33 -13 -46 -1 -46 9 0 24 60 16 68 -2 3 -9 -7 -15
-22z"></path>
<path d="M3530 1435 c0 -8 -3 -15 -7 -15 -5 0 -9 -20 -10 -44 -1 -24 -6 -53
-12 -65 -8 -14 -8 -27 0 -44 8 -19 8 -31 -4 -53 -19 -38 -23 -178 -5 -172 7 3
17 27 21 54 4 27 12 72 17 99 13 68 19 255 8 255 -4 0 -8 -7 -8 -15z"></path>
<path d="M1270 1420 c0 -8 24 -20 41 -20 6 0 8 4 5 9 -8 12 -46 21 -46 11z"></path>
<path d="M5180 1410 c0 -5 5 -10 10 -10 6 0 10 5 10 10 0 6 -4 10 -10 10 -5 0
-10 -4 -10 -10z"></path>
<path d="M584 1324 c-4 -21 -4 -106 0 -191 4 -94 3 -153 -3 -153 -5 0 -12 56
-16 125 -4 69 -10 125 -14 125 -4 0 -34 -10 -66 -23 -59 -23 -60 -24 -59 -60
1 -20 18 -130 39 -244 39 -209 54 -250 80 -221 21 24 45 137 45 213 0 41 4 75
8 75 13 0 34 279 25 334 -10 61 -29 71 -39 20z"></path>
<path d="M4370 1335 c0 -8 5 -15 10 -15 6 0 10 7 10 15 0 8 -4 15 -10 15 -5 0
-10 -7 -10 -15z"></path>
<path d="M4385 1181 c-3 -6 -1 -36 4 -67 6 -31 8 -60 5 -65 -11 -19 -22 -7
-33 36 -8 33 -16 45 -30 45 -10 0 -21 9 -24 20 -3 11 -11 20 -17 20 -8 0 -10
-8 -6 -22 4 -13 12 -49 19 -81 9 -42 15 -56 26 -52 31 12 71 -62 42 -79 -5 -3
-7 -22 -4 -41 3 -20 0 -42 -7 -50 -12 -14 -3 -115 10 -115 4 0 10 28 14 63 3
34 11 112 17 172 16 154 16 217 2 222 -6 2 -14 -1 -18 -6z m-45 -96 c0 -14 -4
-25 -10 -25 -5 0 -10 11 -10 25 0 14 5 25 10 25 6 0 10 -11 10 -25z"></path>
<path d="M3940 1119 c-6 -11 -8 -33 -5 -50 6 -26 11 -29 45 -29 42 0 55 11 46
37 -6 14 -8 14 -26 -2 -38 -35 -69 8 -33 47 15 16 15 18 0 18 -9 0 -21 -9 -27
-21z"></path>
<path d="M5064 1129 c-3 -6 -17 -8 -32 -4 -21 5 -24 4 -14 -8 15 -17 62 -10
62 9 0 17 -6 18 -16 3z"></path>
<path d="M1415 1100 c-4 -6 12 -10 39 -10 25 0 46 5 46 10 0 6 -18 10 -39 10
-22 0 -43 -4 -46 -10z"></path>
<path d="M3290 1076 c0 -8 5 -18 10 -21 6 -3 10 3 10 14 0 12 -4 21 -10 21 -5
0 -10 -6 -10 -14z"></path>
<path d="M3557 948 c-18 -73 -45 -212 -46 -235 -1 -7 -5 -13 -11 -13 -5 0 -10
20 -10 45 0 25 -4 45 -9 45 -11 0 -25 -232 -25 -420 0 -142 10 -218 40 -319
16 -54 38 -71 28 -22 -3 16 -1 37 4 48 6 10 8 38 5 61 -5 35 -9 41 -23 37 -16
-5 -19 4 -26 72 -7 75 2 342 11 352 3 2 18 -7 33 -21 15 -14 51 -38 79 -53 58
-30 96 -69 119 -123 20 -49 27 -35 12 27 -10 44 -17 54 -45 68 -18 8 -33 20
-33 25 0 5 -4 7 -9 4 -4 -3 -16 3 -26 14 -10 11 -23 20 -29 20 -6 0 -27 14
-45 31 -30 27 -33 34 -28 71 3 22 10 44 15 47 6 3 16 51 23 106 6 55 16 104
21 110 10 11 11 95 0 95 -4 0 -15 -33 -25 -72z"></path>
<path d="M5124 898 c3 -13 6 -40 6 -60 0 -21 5 -38 10 -38 11 0 13 62 4 98 -4
12 -11 22 -16 22 -6 0 -8 -10 -4 -22z"></path>
<path d="M4421 815 c-7 -47 -19 -92 -27 -100 -16 -16 -19 -45 -4 -45 6 0 10
-9 10 -20 0 -11 -7 -20 -15 -20 -15 0 -20 -22 -16 -70 3 -32 29 -72 42 -64 7
4 6 10 -1 19 -16 19 -18 104 -3 113 7 4 21 29 33 54 17 40 19 58 14 132 -4 47
-10 86 -14 86 -4 0 -12 -38 -19 -85z"></path>
<path d="M5140 755 c0 -14 5 -25 10 -25 6 0 10 11 10 25 0 14 -4 25 -10 25 -5
0 -10 -11 -10 -25z"></path>
<path d="M3661 724 c0 -11 3 -14 6 -6 3 7 2 16 -1 19 -3 4 -6 -2 -5 -13z"></path>
<path d="M5981 718 c-13 -21 -13 -22 1 -10 13 10 17 10 21 0 3 -7 6 -3 6 10 1
12 -2 22 -7 22 -4 0 -13 -10 -21 -22z"></path>
<path d="M6104 701 c4 -6 3 -11 -2 -11 -15 0 -33 -51 -39 -111 -6 -61 11 -133
30 -126 21 7 48 53 62 107 18 68 19 101 3 122 -15 19 -64 36 -54 19z"></path>
<path d="M3720 619 c0 -40 21 -76 38 -65 17 10 15 61 -3 76 -8 7 -15 9 -15 4
0 -5 -5 -2 -10 6 -7 11 -10 6 -10 -21z"></path>
<path d="M3744 494 c4 -15 10 -39 13 -55 6 -32 23 -40 23 -11 0 9 -5 34 -11
55 -11 42 -35 53 -25 11z"></path>
<path d="M4410 414 l-22 -66 24 -26 c44 -49 58 -80 58 -130 0 -32 5 -54 15
-62 10 -8 15 -31 15 -71 0 -44 4 -59 14 -59 20 0 26 95 9 145 -7 22 -13 53
-13 69 0 24 -15 66 -50 136 -4 8 -13 15 -21 15 -8 0 -14 7 -14 15 0 8 9 15 20
15 13 0 21 8 23 23 2 12 8 22 13 22 5 0 9 6 9 14 0 9 -7 12 -20 9 -11 -3 -20
0 -20 6 0 6 -4 11 -9 11 -5 0 -19 -30 -31 -66z"></path>
<path d="M2073 422 c5 -24 2 -31 -13 -35 -11 -3 -28 -20 -37 -37 -10 -18 -44
-66 -75 -106 -32 -41 -58 -80 -58 -89 0 -8 -17 -23 -38 -34 -48 -25 -111 -114
-85 -120 10 -2 31 13 52 36 20 22 48 47 63 57 15 9 36 33 47 54 11 20 39 62
63 93 23 31 51 70 60 85 10 16 27 42 40 57 17 21 20 32 12 44 -20 31 -38 29
-31 -5z"></path>
<path d="M4361 411 c-19 -34 -13 -89 14 -129 39 -59 63 -87 70 -80 7 7 -12 44
-50 97 -27 37 -30 56 -15 95 11 31 -4 45 -19 17z"></path>
<path d="M3565 362 c-2 -2 -1 -11 2 -19 4 -11 15 -13 42 -8 43 7 151 -35 151
-60 0 -8 -17 -25 -37 -39 -49 -31 -77 -62 -64 -70 6 -4 24 0 41 9 24 12 35 13
53 4 39 -20 63 -56 77 -115 12 -49 31 -76 46 -62 2 3 -23 84 -57 181 -56 162
-63 176 -83 172 -11 -3 -54 -1 -94 3 -40 5 -74 6 -77 4z m215 -148 c0 -8 -4
-12 -10 -9 -5 3 -10 10 -10 16 0 5 5 9 10 9 6 0 10 -7 10 -16z"></path>
<path d="M3531 301 c-13 -23 -14 -51 -3 -51 12 0 31 59 22 65 -5 3 -14 -3 -19
-14z"></path>
<path d="M3564 265 c-3 -13 -4 -30 -1 -37 2 -7 0 -21 -5 -32 -12 -22 -1 -126
14 -126 6 0 8 27 6 70 -2 39 -1 70 2 70 3 0 6 18 6 40 2 44 -12 54 -22 15z"></path>
<path d="M5480 141 c0 -6 15 -21 33 -35 32 -25 35 -25 86 -12 28 7 54 16 58
20 13 13 -3 14 -48 4 -42 -10 -51 -8 -82 11 -38 23 -47 26 -47 12z"></path>
<path d="M3755 101 c-11 -68 -21 -74 -88 -56 -32 8 -60 15 -62 15 -3 0 -5 -13
-5 -30 0 -20 5 -30 15 -30 8 0 15 7 15 16 0 12 5 15 23 9 12 -4 38 -8 56 -9
29 -1 39 5 58 33 26 38 31 91 9 91 -9 0 -17 -15 -21 -39z"></path>
<path d="M1080 84 c-14 -8 -38 -12 -54 -9 -16 3 -36 0 -44 -7 -10 -9 -45 -13
-99 -12 -45 1 -83 0 -83 -3 0 -6 48 -53 55 -53 3 0 5 6 5 14 0 13 76 27 167
30 23 0 45 4 49 8 4 4 18 5 30 2 21 -5 24 -2 24 20 0 29 -12 31 -50 10z"></path>
<path d="M5815 53 c18 -42 32 -60 41 -51 5 6 -42 88 -51 88 -3 0 2 -17 10 -37z"></path>
<path d="M582 53 c3 -12 12 -17 26 -16 13 2 26 -5 32 -17 14 -25 27 -25 48 0
19 22 62 18 62 -6 0 -8 7 -14 15 -14 8 0 15 8 15 19 0 13 -10 21 -32 26 -18 4
-37 7 -42 6 -5 -1 -21 2 -36 7 -16 6 -33 6 -43 1 -10 -6 -18 -5 -22 1 -10 17
-27 11 -23 -7z"></path>
<path d="M5111 39 c-14 -40 -14 -39 4 -39 8 0 15 9 15 19 0 11 3 26 6 35 3 9
2 16 -4 16 -6 0 -15 -14 -21 -31z"></path>
<path d="M360 30 c0 -17 4 -30 9 -30 10 0 22 40 15 52 -11 18 -24 6 -24 -22z"></path>
<path d="M2288 49 c-21 -12 -24 -49 -5 -49 7 0 19 6 26 13 11 10 14 9 18 -1 6
-16 43 -16 43 1 0 18 -32 47 -51 47 -8 0 -22 -5 -31 -11z"></path>
<path d="M5180 25 c0 -14 5 -25 10 -25 6 0 10 11 10 25 0 14 -4 25 -10 25 -5
0 -10 -11 -10 -25z"></path>
<path d="M530 10 c0 -5 5 -10 10 -10 6 0 10 5 10 10 0 6 -4 10 -10 10 -5 0
-10 -4 -10 -10z"></path>
</g>
</svg>