 <svg version="1.0" xmlns="http://www.w3.org/2000/svg" width="700.000000pt" height="438.000000pt" viewBox="0 0 700.000000 438.000000" preserveAspectRatio="xMidYMid meet">
<metadata>
Created by potrace 1.12, written by Peter Selinger 2001-2015
</metadata>
<g transform="translate(0.000000,438.000000) scale(0.100000,-0.100000)" fill="#000000" stroke="none">
<path d="M0 4270 l0 -110 3500 0 3500 0 0 110 0 110 -3500 0 -3500 0 0 -110z"></path>
<path d="M5370 4031 c-18 -10 -376 -93 -500 -115 -47 -8 -161 -29 -255 -46
-205 -36 -649 -107 -725 -114 -270 -28 -474 -48 -630 -61 -102 -9 -237 -21
-300 -26 -228 -22 -426 -29 -1115 -39 -513 -8 -768 -8 -954 0 -181 8 -257 8
-264 1 -17 -17 5 -200 67 -571 31 -178 54 -326 52 -328 -7 -6 -118 60 -121 72
-44 175 -85 271 -155 361 -54 67 -98 102 -175 136 -40 18 -74 24 -172 27 -80
3 -123 1 -123 -6 0 -6 50 -11 128 -13 116 -4 132 -7 185 -33 146 -71 262 -264
298 -493 6 -43 20 -121 31 -173 11 -52 29 -143 40 -203 12 -62 26 -106 32
-106 14 3 46 -10 66 -26 22 -16 72 -37 66 -26 -3 5 -20 16 -38 25 -92 47 -89
42 -113 161 -13 61 -33 157 -44 214 -12 57 -19 106 -16 109 14 14 101 -47 165
-115 55 -59 72 -85 86 -131 34 -115 28 -279 -10 -275 -30 2 19 -32 104 -73 19
-10 42 -23 50 -30 8 -7 28 -17 43 -23 41 -16 24 6 -21 27 -35 16 -37 20 -43
79 -6 61 -21 95 -64 143 -16 17 -24 43 -28 82 -6 67 -42 140 -105 215 l-44 53
-24 161 c-13 88 -28 177 -33 197 -6 21 -17 84 -25 142 -9 58 -22 150 -31 205
-8 55 -15 126 -15 159 l0 59 37 -7 c101 -17 502 -27 818 -20 187 4 480 8 650
9 394 0 760 24 1460 95 105 10 222 22 260 25 39 4 153 20 255 36 102 16 203
32 225 35 51 7 391 68 555 99 69 13 195 40 280 60 85 20 169 39 185 41 l30 5
39 -128 c66 -219 212 -618 403 -1103 115 -289 237 -557 388 -850 18 -36 87
-175 153 -310 66 -135 170 -348 232 -475 62 -126 146 -302 187 -390 41 -88 80
-167 87 -175 7 -8 25 -40 40 -70 44 -91 71 -134 74 -118 2 8 -7 30 -18 49 -49
78 -88 151 -139 259 -122 260 -273 571 -591 1215 -108 220 -203 416 -210 435
-8 19 -30 69 -50 110 -37 74 -152 360 -291 720 -39 102 -120 329 -180 505 -59
176 -114 328 -121 337 -9 12 -18 15 -28 9z m-4394 -1748 c8 -18 14 -49 14 -68
0 -33 -2 -36 -22 -29 -46 13 -57 32 -52 88 8 77 12 85 31 61 8 -11 21 -34 29
-52z"></path>
<path d="M4818 3797 c-87 -25 -150 -89 -169 -174 -10 -41 -9 -59 6 -109 23
-80 107 -165 186 -188 84 -25 167 -21 230 12 78 40 112 94 117 180 5 83 -9
119 -71 188 -76 84 -194 120 -299 91z m83 -34 c6 -16 32 -89 58 -163 26 -74
59 -158 73 -187 27 -58 25 -68 -14 -78 -32 -8 -30 -12 -136 258 -68 174 -69
179 -48 187 38 16 56 11 67 -17z m119 -5 c55 -23 105 -69 133 -123 26 -49 28
-145 5 -190 -22 -41 -76 -91 -86 -79 -20 22 -163 410 -154 419 7 7 49 -4 102
-27z m-210 -14 c0 -7 36 -102 80 -211 45 -113 75 -202 70 -207 -4 -4 -20 -4
-37 1 -37 12 -65 66 -58 114 3 25 0 41 -10 49 -8 7 -15 23 -15 35 0 23 -64
115 -80 115 -17 0 -12 -136 5 -150 9 -8 13 -21 9 -36 -5 -19 -1 -26 19 -33 23
-9 45 -56 33 -69 -7 -6 -53 23 -89 57 -65 59 -92 160 -63 235 30 77 136 156
136 100z m-10 -169 c7 -9 10 -18 6 -22 -3 -3 -6 -1 -6 5 0 7 -4 12 -10 12 -5
0 -10 -7 -10 -15 0 -8 -4 -15 -10 -15 -11 0 -14 33 -3 43 10 11 19 8 33 -8z
m10 -50 c0 -8 -5 -15 -11 -15 -5 0 -7 -5 -3 -11 4 -8 9 -7 15 2 4 7 11 10 15
6 4 -4 3 -12 -2 -17 -15 -15 -46 -1 -40 17 3 8 6 19 6 24 0 5 5 9 10 9 6 0 10
-7 10 -15z m50 -59 c0 -2 -6 -15 -13 -29 -13 -24 -13 -24 -35 -7 -28 23 -28
28 1 33 34 6 47 7 47 3z m8 -114 c6 -18 -15 -14 -22 4 -4 10 -1 14 6 12 6 -2
14 -10 16 -16z"></path>
<path d="M5030 3570 c-8 -5 -12 -11 -9 -14 7 -8 49 5 49 15 0 12 -21 11 -40
-1z"></path>
<path d="M2850 3780 c0 -5 7 -10 15 -10 8 0 15 5 15 10 0 6 -7 10 -15 10 -8 0
-15 -4 -15 -10z"></path>
<path d="M1365 3409 c-99 -5 -205 -13 -235 -17 -53 -7 -55 -8 -54 -38 1 -17
14 -57 30 -90 l29 -59 55 0 c139 1 492 30 497 40 2 7 -13 47 -34 91 -45 93
-17 86 -288 73z m179 -41 c31 -68 46 -111 41 -116 -8 -8 -12 -1 -44 69 -25 56
-30 79 -16 79 2 0 11 -15 19 -32z m92 -33 c33 -80 33 -80 3 -83 -23 -3 -30 3
-47 40 -47 96 -47 111 -4 106 18 -2 29 -16 48 -63z m-291 45 c5 -8 11 -8 20 0
8 6 33 10 56 8 42 -3 43 -3 70 -71 31 -75 28 -81 -33 -75 -29 3 -36 10 -62 62
-34 68 -48 60 -17 -10 12 -25 18 -50 15 -55 -3 -5 -25 -9 -49 -9 -35 0 -48 5
-63 25 -11 14 -26 25 -33 25 -11 0 -11 2 0 9 12 8 12 13 0 38 -14 29 -49 41
-49 18 0 -8 11 -35 24 -61 14 -27 22 -52 20 -56 -3 -4 -25 -8 -50 -8 -44 0
-44 0 -69 56 -37 83 -36 87 10 95 22 4 45 4 50 0 12 -7 33 -7 55 2 44 17 97
21 105 7z m161 -7 c4 -10 12 -31 19 -48 22 -52 27 -75 16 -75 -6 0 -11 2 -11
4 0 2 -11 33 -25 70 -14 36 -20 66 -15 66 6 0 13 -8 16 -17z"></path>
<path d="M5960 3360 c0 -5 5 -10 10 -10 6 0 10 5 10 10 0 6 -4 10 -10 10 -5 0
-10 -4 -10 -10z"></path>
<path d="M1995 3320 c-10 -16 15 -41 39 -38 32 5 28 42 -6 46 -14 2 -29 -2
-33 -8z m45 -15 c0 -8 -4 -15 -9 -15 -13 0 -22 16 -14 24 11 11 23 6 23 -9z"></path>
<path d="M1824 3305 c-9 -22 7 -41 18 -21 5 9 14 14 19 10 6 -4 6 -10 -1 -19
-13 -16 1 -27 20 -15 11 7 12 14 2 34 -13 29 -49 35 -58 11z"></path>
<path d="M1960 3308 c0 -9 5 -20 10 -23 13 -8 13 5 0 25 -8 13 -10 13 -10 -2z"></path>
<path d="M1756 3302 c-3 -6 3 -12 15 -15 12 -3 19 -1 16 6 -5 15 -24 20 -31 9z"></path>
<path d="M1920 3296 c0 -9 5 -16 10 -16 6 0 10 4 10 9 0 6 -4 13 -10 16 -5 3
-10 -1 -10 -9z"></path>
<path d="M1760 3260 c0 -5 6 -10 14 -10 8 0 18 5 21 10 3 6 -3 10 -14 10 -12
0 -21 -4 -21 -10z"></path>
<path d="M460 3250 c0 -5 9 -10 20 -10 11 0 20 5 20 10 0 6 -9 10 -20 10 -11
0 -20 -4 -20 -10z"></path>
<path d="M2336 3082 c-3 -6 1 -15 10 -22 8 -7 13 -19 10 -27 -3 -7 -1 -13 4
-13 6 0 10 11 10 24 0 26 -25 53 -34 38z"></path>
<path d="M2998 3069 c-26 -15 -23 -61 6 -88 26 -24 56 -25 64 -2 3 9 -1 11
-15 7 -23 -7 -59 16 -49 32 4 7 18 12 32 12 29 0 32 25 5 40 -23 12 -22 12
-43 -1z"></path>
<path d="M2870 3060 c-25 -4 -48 -6 -52 -3 -16 9 -29 -9 -17 -23 6 -8 14 -28
18 -46 4 -17 13 -34 20 -36 11 -4 12 2 6 24 -12 47 -11 58 7 62 12 2 20 -8 29
-37 16 -53 28 -52 26 2 -2 31 2 42 13 42 10 0 18 -16 24 -42 12 -52 31 -58 23
-7 -6 34 -32 76 -46 73 -3 -1 -26 -5 -51 -9z"></path>
<path d="M3086 3062 c-3 -6 -1 -14 5 -17 15 -10 25 3 12 16 -7 7 -13 7 -17 1z"></path>
<path d="M2595 3043 c-32 -8 -36 -18 -20 -49 8 -16 12 -37 9 -46 -4 -13 0 -18
15 -18 25 0 25 -2 6 44 -16 39 -13 56 10 56 18 0 35 -31 35 -64 0 -27 17 -44
30 -30 11 12 -36 114 -52 113 -7 -1 -22 -3 -33 -6z"></path>
<path d="M2697 3044 c-4 -4 -7 -14 -7 -22 0 -12 3 -12 15 -2 8 7 22 9 32 6 15
-6 13 -10 -11 -29 -40 -32 -27 -56 30 -54 41 2 61 20 32 29 -6 2 -17 20 -23
39 -9 25 -18 35 -36 37 -14 2 -28 0 -32 -4z m47 -75 c-3 -5 -10 -7 -15 -3 -5
3 -7 10 -3 15 3 5 10 7 15 3 5 -3 7 -10 3 -15z"></path>
<path d="M2422 3028 c-21 -21 -13 -38 23 -55 19 -9 35 -23 35 -30 0 -16 -12
-17 -28 -1 -13 13 -27 5 -17 -11 10 -16 51 -13 66 5 11 14 10 19 -10 35 -13
11 -29 19 -37 19 -8 0 -14 5 -14 10 0 6 10 10 23 10 21 1 22 1 3 15 -24 18
-29 18 -44 3z"></path>
<path d="M2068 3006 c-3 -15 0 -27 8 -30 8 -3 14 -16 14 -29 0 -28 17 -47 42
-47 25 0 23 16 -3 23 -16 4 -20 12 -17 39 2 21 -3 39 -14 51 -23 22 -25 22
-30 -7z"></path>
<path d="M2172 3004 c-29 -20 -28 -49 3 -79 29 -30 39 -31 66 -4 22 22 19 50
-9 82 -19 21 -31 21 -60 1z m58 -29 c16 -20 6 -45 -19 -45 -22 0 -46 34 -36
50 9 15 41 12 55 -5z"></path>
<path d="M2265 3010 c-3 -6 3 -22 15 -37 12 -15 18 -34 15 -45 -5 -14 -1 -18
19 -18 30 0 32 7 11 34 -17 23 -20 56 -5 56 6 0 10 5 10 10 0 13 -57 13 -65 0z"></path>
<path d="M1250 2993 c0 -5 5 -14 11 -20 18 -18 49 -112 42 -129 -3 -9 2 -14
16 -14 24 0 24 0 11 36 -10 24 -8 30 17 50 27 22 27 24 13 51 -13 24 -23 28
-63 31 -26 2 -47 -1 -47 -5z m89 -32 c8 -14 7 -22 -3 -30 -11 -9 -18 -7 -30
10 -8 12 -13 26 -10 31 9 14 33 9 43 -11z"></path>
<path d="M1805 2990 c-3 -5 6 -34 20 -65 18 -41 29 -56 41 -53 10 2 19 9 22
17 3 8 0 11 -6 7 -18 -11 -48 43 -35 63 8 13 6 19 -13 28 -13 6 -26 7 -29 3z"></path>
<path d="M1977 2994 c-14 -14 -7 -25 12 -19 30 9 35 -14 6 -25 -20 -7 -26 -16
-23 -33 2 -18 9 -22 43 -22 22 -1 43 0 47 2 6 3 -8 38 -31 83 -9 16 -43 25
-54 14z m48 -63 c7 -12 -12 -24 -25 -16 -11 7 -4 25 10 25 5 0 11 -4 15 -9z"></path>
<path d="M3115 2991 c-3 -5 -1 -12 5 -16 5 -3 10 1 10 9 0 18 -6 21 -15 7z"></path>
<path d="M1888 2985 c-4 -4 19 -86 29 -104 1 -2 9 -1 17 2 14 5 13 11 -5 42
l-22 36 22 6 c11 3 21 9 21 14 0 10 -53 13 -62 4z"></path>
<path d="M1710 2961 c-23 -43 39 -113 80 -91 29 15 25 27 -8 22 -18 -2 -33 2
-41 12 -11 13 -9 17 14 26 34 13 30 44 -7 48 -19 2 -30 -3 -38 -17z m40 -11
c0 -5 -4 -10 -10 -10 -5 0 -10 5 -10 10 0 6 5 10 10 10 6 0 10 -4 10 -10z"></path>
<path d="M1583 2960 c19 -33 40 -92 42 -118 3 -39 9 -47 30 -38 12 4 14 10 5
25 -8 16 -6 22 10 31 24 13 27 56 5 87 -12 17 -25 22 -55 20 -22 -1 -39 -4
-37 -7z m76 -34 c13 -24 8 -46 -10 -46 -12 0 -31 49 -23 61 9 15 20 10 33 -15z"></path>
<path d="M1401 2946 c-14 -17 -5 -63 17 -88 19 -22 55 -23 72 -3 11 13 8 14
-17 9 -20 -4 -33 -1 -42 10 -16 19 -6 36 20 36 24 0 24 12 1 33 -23 21 -36 21
-51 3z m39 -16 c0 -5 -4 -10 -10 -10 -5 0 -10 5 -10 10 0 6 5 10 10 10 6 0 10
-4 10 -10z"></path>
<path d="M1493 2952 c21 -39 36 -85 32 -93 -7 -10 22 -25 32 -15 3 3 1 11 -4
18 -18 24 -22 59 -7 65 27 10 14 29 -22 30 -19 1 -33 -2 -31 -5z"></path>
<path d="M2378 2862 c-4 -12 -22 -23 -52 -32 -50 -14 -64 -26 -48 -42 7 -7 25
-5 57 8 50 18 64 12 65 -28 0 -9 7 -43 15 -76 13 -49 13 -65 3 -97 -18 -54
-36 -62 -98 -46 -59 15 -75 8 -42 -20 54 -43 128 -33 162 23 25 42 25 93 -1
185 -11 40 -18 77 -15 82 3 5 21 12 41 15 19 4 37 11 41 17 12 20 -11 29 -50
18 -27 -8 -42 -7 -49 0 -16 16 -24 14 -29 -7z"></path>
<path d="M2846 2872 c-8 -14 30 -124 70 -200 19 -37 34 -71 34 -78 0 -15 29
-39 37 -30 3 3 1 23 -5 43 -6 20 -10 39 -8 40 2 2 27 -5 55 -17 66 -25 104
-27 99 -3 -2 10 -12 19 -23 21 -11 2 -46 12 -77 23 l-56 21 39 60 c21 34 39
67 39 75 0 27 -20 11 -60 -47 -22 -33 -45 -60 -50 -60 -12 0 -34 43 -51 98
-13 45 -33 70 -43 54z"></path>
<path d="M3216 2819 c-14 -17 -26 -35 -26 -41 0 -6 -7 -19 -15 -28 -13 -15
-13 -21 5 -57 15 -31 27 -42 51 -47 50 -10 112 -7 138 7 43 22 23 32 -61 32
-69 0 -83 3 -86 17 -2 11 8 20 35 29 84 27 106 57 68 95 -35 34 -77 32 -109
-7z m84 -23 c0 -13 -66 -43 -75 -34 -3 2 2 14 11 26 17 25 64 30 64 8z"></path>
<path d="M40 2801 c0 -5 7 -28 15 -51 16 -44 12 -68 -8 -52 -7 5 -21 12 -31
16 -16 5 -17 4 -6 -9 7 -8 18 -15 25 -15 21 0 45 -35 66 -101 21 -61 39 -96
39 -73 0 6 -11 42 -23 80 -13 38 -32 102 -42 142 -9 39 -21 72 -26 72 -5 0 -9
-4 -9 -9z"></path>
<path d="M2605 2726 c-34 -32 -36 -38 -33 -87 3 -45 7 -56 29 -68 32 -18 68
-9 103 25 25 26 27 26 46 9 15 -13 24 -15 31 -8 8 8 0 25 -26 58 -20 26 -43
61 -51 76 -20 40 -53 38 -99 -5z m73 -31 c7 -14 12 -34 12 -44 0 -26 -34 -53
-62 -49 -32 4 -37 54 -8 91 27 34 44 34 58 2z"></path>
<path d="M4920 2695 c-157 -19 -355 -38 -440 -44 -85 -6 -225 -18 -310 -26
-85 -8 -243 -21 -350 -30 -107 -9 -310 -27 -450 -40 -140 -13 -331 -29 -425
-35 -214 -13 -254 -16 -450 -34 -178 -17 -524 -34 -862 -43 -167 -5 -223 -9
-223 -18 0 -9 18 -12 63 -9 34 2 186 8 337 14 348 14 596 28 730 40 58 6 175
15 260 20 185 11 525 38 560 45 14 3 86 9 160 15 74 6 232 19 350 30 206 19
489 42 670 55 47 4 222 22 390 41 168 19 313 34 323 34 9 0 17 5 17 10 0 14
-25 12 -350 -25z"></path>
<path d="M4357 2554 c-4 -4 -7 -31 -7 -61 l0 -53 230 0 231 0 -3 58 -3 57
-221 3 c-121 1 -223 -1 -227 -4z m103 -44 c14 -26 5 -40 -25 -40 -13 0 -27 4
-30 10 -9 14 13 50 30 50 8 0 19 -9 25 -20z m166 -1 c55 -2 105 0 111 4 13 8
27 -8 19 -21 -6 -10 -205 -8 -228 2 -10 5 -18 12 -18 18 0 5 3 7 8 4 4 -2 53
-6 108 -7z"></path>
<path d="M140 2489 c0 -8 7 -24 15 -35 11 -15 14 -16 15 -3 0 8 -7 24 -15 35
-11 15 -14 16 -15 3z"></path>
<path d="M200 2364 c6 -14 23 -44 39 -67 32 -46 111 -126 111 -112 0 4 9 0 19
-9 11 -10 26 -16 33 -13 9 3 7 7 -7 12 -42 17 -110 81 -152 147 -47 72 -59 84
-43 42z"></path>
<path d="M0 2341 c0 -11 22 -25 65 -41 39 -15 21 6 -26 30 -21 11 -39 16 -39
11z"></path>
<path d="M2302 2328 c-15 -15 -16 -80 -1 -95 6 -6 14 -25 18 -43 6 -33 27 -38
24 -5 -6 49 -11 67 -21 77 -15 15 -16 45 -2 53 12 7 13 25 2 25 -4 0 -13 -5
-20 -12z"></path>
<path d="M3100 2334 c0 -26 40 -109 54 -112 18 -4 22 13 5 23 -17 11 -27 49
-17 68 5 10 5 17 -1 17 -5 0 -16 3 -25 6 -9 3 -16 2 -16 -2z"></path>
<path d="M2937 2312 c-22 -25 -21 -44 4 -76 23 -30 50 -34 70 -9 13 15 11 16
-10 10 -24 -6 -51 7 -51 24 0 5 9 9 19 9 29 0 36 18 15 41 -21 24 -27 24 -47
1z"></path>
<path d="M3015 2320 c-12 -19 6 -49 35 -62 35 -15 40 -32 8 -23 -22 7 -22 6
-6 -10 20 -22 48 -13 48 14 0 13 -12 27 -30 36 -35 18 -39 35 -9 35 11 0 17 5
14 10 -8 13 -52 13 -60 0z"></path>
<path d="M3186 2321 c-4 -7 -5 -15 -2 -18 9 -9 19 4 14 18 -4 11 -6 11 -12 0z"></path>
<path d="M2772 2303 c-13 -3 -22 -10 -19 -16 2 -7 10 -30 18 -52 17 -50 16
-48 28 -41 6 4 5 19 -5 41 -13 31 -13 36 1 41 15 6 22 35 8 33 -5 -1 -18 -4
-31 -6z"></path>
<path d="M2840 2304 c0 -23 37 -104 47 -104 17 0 16 5 -3 42 -15 29 -15 32 0
43 24 18 20 25 -14 25 -16 0 -30 -3 -30 -6z"></path>
<path d="M2649 2284 c-12 -15 -12 -16 8 -10 39 12 48 -4 17 -30 -24 -19 -27
-26 -18 -41 9 -13 21 -17 50 -15 21 2 40 5 42 6 1 2 -5 19 -14 37 -10 19 -20
41 -24 49 -10 22 -44 24 -61 4z m52 -67 c-13 -13 -26 -3 -16 12 3 6 11 8 17 5
6 -4 6 -10 -1 -17z"></path>
<path d="M700 2254 c0 -46 -42 -90 -96 -99 -21 -4 -52 -11 -69 -16 -24 -7 -20
-8 25 -6 74 5 129 32 146 73 16 39 18 84 4 84 -5 0 -10 -16 -10 -36z"></path>
<path d="M120 2275 c0 -7 101 -57 106 -53 2 2 -21 16 -51 31 -30 15 -55 25
-55 22z"></path>
<path d="M2398 2269 c-20 -11 -23 -50 -7 -80 14 -27 57 -43 75 -28 22 18 17
73 -9 97 -26 24 -34 26 -59 11z m44 -26 c20 -18 24 -58 7 -68 -26 -16 -65 56
-42 78 9 10 15 9 35 -10z"></path>
<path d="M2517 2273 c-14 -4 -17 -10 -12 -26 4 -12 9 -34 12 -49 4 -22 11 -28
31 -28 22 0 24 2 10 13 -24 18 -31 52 -13 67 8 7 12 16 9 21 -5 9 -8 10 -37 2z"></path>
<path d="M1517 2263 c-4 -3 -1 -13 7 -22 18 -20 57 -122 50 -132 -6 -10 14
-22 26 -14 6 3 5 15 -2 30 -18 39 -1 42 36 6 20 -20 39 -30 46 -26 8 5 0 17
-23 36 -31 26 -35 34 -30 63 4 27 1 36 -18 50 -23 16 -80 22 -92 9z m74 -23
c21 -12 25 -35 8 -46 -13 -8 -51 35 -43 48 7 10 11 10 35 -2z"></path>
<path d="M2139 2249 l-27 -10 17 -43 c9 -24 21 -43 26 -42 6 1 9 5 7 10 -2 6
-6 23 -9 39 -5 25 -3 28 13 25 12 -2 22 -16 28 -41 5 -20 15 -37 23 -37 17 0
16 7 -10 59 -25 50 -31 54 -68 40z"></path>
<path d="M3210 2246 c0 -9 5 -16 10 -16 6 0 10 4 10 9 0 6 -4 13 -10 16 -5 3
-10 -1 -10 -9z"></path>
<path d="M1918 2229 c-27 -15 -22 -37 12 -54 31 -16 43 -42 14 -31 -10 4 -14
1 -12 -6 7 -20 47 -22 54 -3 7 18 -22 55 -43 55 -7 0 -13 7 -13 16 0 11 5 14
16 10 10 -4 14 -1 12 6 -6 17 -20 19 -40 7z"></path>
<path d="M1998 2215 c-9 -19 -8 -29 5 -49 33 -49 97 -41 97 13 0 57 -79 86
-102 36z m70 -7 c14 -14 16 -45 2 -53 -15 -9 -50 14 -50 34 0 31 25 42 48 19z"></path>
<path d="M1810 2215 c-16 -20 -5 -32 14 -16 11 9 16 9 22 0 4 -7 -3 -19 -17
-30 -20 -15 -22 -21 -13 -36 11 -16 67 -24 80 -10 9 8 -34 94 -51 101 -22 8
-21 8 -35 -9z m58 -67 c-6 -18 -28 -21 -28 -4 0 9 7 16 16 16 9 0 14 -5 12
-12z"></path>
<path d="M1707 2213 c-12 -12 -7 -58 9 -81 8 -12 26 -22 40 -22 30 0 32 17 2
22 -30 4 -37 38 -9 38 26 0 36 17 21 35 -13 15 -51 20 -63 8z m40 -19 c-3 -3
-12 -4 -19 -1 -8 3 -5 6 6 6 11 1 17 -2 13 -5z"></path>
<path d="M308 2178 c5 -5 34 -21 63 -34 46 -21 50 -21 29 -4 -14 11 -30 20
-35 20 -6 0 -16 5 -23 12 -6 6 -19 13 -28 14 -11 2 -13 -1 -6 -8z"></path>
<path d="M445 2145 c35 -16 55 -19 55 -6 0 5 -14 11 -31 15 -48 9 -57 6 -24
-9z"></path>
<path d="M430 2107 c0 -8 -10 -18 -22 -22 -14 -4 -18 -8 -10 -12 7 -2 27 0 44
6 41 14 180 14 228 0 54 -16 130 -77 154 -124 14 -27 21 -59 21 -97 0 -31 3
-54 7 -52 5 3 8 18 8 35 0 36 15 37 81 4 28 -15 62 -30 76 -36 57 -21 2 18
-75 54 -72 34 -80 41 -99 85 -25 55 -59 89 -128 128 -45 26 -60 28 -157 30
-59 1 -112 5 -117 9 -6 3 -11 0 -11 -8z"></path>
<path d="M1160 2066 c8 -8 33 -22 55 -31 35 -15 38 -15 25 -1 -8 8 -33 22 -55
31 -35 15 -38 15 -25 1z"></path>
<path d="M334 2055 c-15 -11 -16 -14 -3 -15 8 0 24 7 35 15 15 11 16 14 3 15
-8 0 -24 -7 -35 -15z"></path>
<path d="M1269 2006 c7 -8 26 -19 43 -25 26 -9 28 -9 19 3 -7 8 -26 19 -43 25
-26 9 -28 9 -19 -3z"></path>
<path d="M215 1996 c-45 -20 -214 -145 -215 -159 0 -5 21 7 48 27 26 20 73 54
106 74 60 38 105 71 96 71 -3 0 -18 -6 -35 -13z"></path>
<path d="M5605 1979 c-66 -18 -592 -81 -870 -104 -93 -8 -235 -21 -315 -29
-80 -9 -242 -25 -360 -36 -118 -11 -282 -28 -365 -36 -212 -22 -323 -32 -540
-49 -104 -8 -256 -21 -336 -30 -148 -15 -314 -26 -699 -44 -118 -6 -250 -13
-293 -16 l-78 -4 -107 100 c-114 108 -218 194 -267 223 -26 15 -27 15 -7 1 29
-23 28 -39 -4 -60 -14 -9 -32 -32 -40 -50 -22 -54 -17 -98 20 -186 6 -13 -1
-17 -35 -22 -71 -9 -69 -26 2 -20 35 3 65 7 66 8 2 1 -7 21 -19 46 -12 24 -23
69 -26 99 -3 45 0 61 20 89 44 65 62 60 180 -48 57 -53 149 -136 204 -184 115
-103 134 -128 134 -180 0 -90 -66 -157 -155 -157 -62 0 -350 26 -464 42 -100
14 -121 29 -121 88 0 57 24 107 72 152 24 22 34 36 23 32 -62 -22 -118 -115
-114 -189 2 -25 1 -47 -2 -50 -6 -6 -308 106 -351 130 -34 19 -60 20 -34 0 24
-18 16 -50 -26 -106 -43 -55 -99 -84 -163 -83 -48 0 -74 11 -133 56 l-24 17
47 50 c68 72 151 135 171 127 12 -4 15 -2 11 9 -4 10 18 32 71 70 100 71 125
94 148 130 12 20 -9 4 -61 -43 -44 -41 -118 -99 -165 -130 -47 -31 -131 -100
-187 -155 -107 -104 -176 -199 -258 -352 -26 -49 -72 -135 -102 -189 -29 -55
-53 -103 -53 -108 0 -25 27 15 79 120 50 101 87 171 135 257 39 68 53 78 76
50 28 -33 100 -14 152 39 32 32 40 36 89 36 78 1 129 27 178 94 23 30 41 60
41 65 0 5 5 13 10 16 11 7 267 -91 291 -112 9 -7 22 -39 29 -71 7 -31 43 -151
80 -267 38 -116 89 -277 115 -360 26 -82 69 -209 96 -282 27 -72 49 -136 49
-142 0 -8 -209 -11 -710 -11 l-710 0 0 -110 0 -110 3500 0 3500 0 0 110 0 110
-2777 2 -2777 3 -49 125 c-27 69 -73 206 -103 305 -30 99 -75 239 -99 310 -51
150 -118 376 -112 381 2 2 28 -2 58 -10 77 -20 186 -33 404 -51 105 -9 251
-22 325 -30 74 -8 176 -18 225 -21 l90 -6 -60 62 c-33 34 -107 103 -165 154
-154 135 -180 159 -180 166 0 4 73 10 163 13 331 13 728 38 912 56 105 11 235
22 290 26 55 4 231 19 390 35 160 16 326 31 370 35 44 3 134 12 200 20 66 7
156 16 200 20 44 3 139 12 210 20 72 7 193 19 270 25 257 21 824 94 854 110
22 12 -1 18 -34 9z m-5205 -635 c8 -7 26 -21 39 -31 l23 -19 -41 -37 c-32 -29
-49 -37 -79 -37 -73 0 -79 31 -21 101 40 48 46 50 79 23z m-130 -1270 c11 -12
10 -18 -3 -32 -21 -20 -39 -6 -31 26 7 26 17 28 34 6z m157 2 c-3 -8 -1 -17 6
-19 9 -3 9 -7 0 -17 -16 -17 -30 -5 -27 22 3 30 2 28 15 28 6 0 9 -6 6 -14z
m181 -14 c3 -16 -2 -22 -15 -22 -31 0 -45 21 -25 36 22 17 36 12 40 -14z
m6156 -2 c-6 -6 -15 -6 -24 0 -13 9 -13 11 0 20 18 11 39 -5 24 -20z m-6666 2
c2 -7 -3 -12 -12 -12 -9 0 -16 7 -16 16 0 17 22 14 28 -4z m3803 -6 c-12 -15
-3191 -11 -3191 4 0 9 3156 20 3188 11 8 -2 9 -7 3 -15z m2649 3 c0 -5 -4 -9
-10 -9 -5 0 -10 7 -10 16 0 8 5 12 10 9 6 -3 10 -10 10 -16z m30 9 c0 -9 4 -8
11 2 9 13 10 13 6 0 -5 -21 -37 -26 -37 -6 0 9 5 16 10 16 6 0 10 -6 10 -12z
m360 -12 c0 -3 -4 -8 -10 -11 -5 -3 -10 -1 -10 4 0 6 5 11 10 11 6 0 10 -2 10
-4z"></path>
<path d="M1149 1740 c13 -11 30 -20 38 -20 23 0 6 17 -29 29 l-33 11 24 -20z"></path>
<path d="M5362 1690 c-26 -16 -37 -18 -48 -9 -23 19 -29 -16 -10 -64 19 -50
61 -105 72 -95 4 5 2 25 -4 47 -25 80 -10 101 72 101 48 0 59 12 27 30 -30 16
-73 12 -109 -10z"></path>
<path d="M4444 1689 c-10 -17 13 -36 27 -22 12 12 4 33 -11 33 -5 0 -12 -5
-16 -11z"></path>
<path d="M5133 1658 c-34 -38 -44 -64 -34 -91 16 -40 40 -57 82 -57 59 0 120
36 91 54 -4 2 -29 -2 -56 -11 -46 -15 -48 -15 -69 6 -19 19 -20 23 -7 31 8 5
25 10 37 10 24 0 53 24 53 44 0 39 -65 48 -97 14z"></path>
<path d="M4657 1654 c-32 -17 -47 -50 -47 -99 0 -47 46 -85 105 -85 50 0 98
31 79 50 -9 9 -19 8 -43 -4 -35 -19 -71 -13 -96 14 -22 24 -11 40 26 40 69 0
110 48 73 84 -19 20 -60 20 -97 0z m73 -28 c0 -15 -21 -26 -52 -26 -27 0 -18
23 13 31 36 10 39 10 39 -5z"></path>
<path d="M4845 1648 c-6 -15 37 -139 58 -166 21 -26 30 5 16 57 -11 46 -11 52
6 71 30 33 53 25 87 -30 17 -27 37 -50 44 -50 17 0 17 3 0 43 -34 80 -96 108
-149 67 l-25 -20 -15 23 c-13 19 -16 20 -22 5z"></path>
<path d="M4470 1613 c0 -5 13 -44 29 -88 18 -50 35 -81 45 -83 20 -4 20 1 1
58 -27 79 -48 120 -62 120 -7 0 -13 -3 -13 -7z"></path>
<path d="M4380 1546 c0 -81 -13 -91 -55 -41 -37 43 -55 40 -55 -11 0 -19 -4
-34 -10 -34 -5 0 -24 20 -42 45 -31 42 -58 58 -58 35 0 -22 30 -68 65 -99 29
-25 40 -29 55 -21 10 5 20 15 23 22 3 10 9 11 26 1 31 -19 59 -16 71 7 15 28
9 152 -7 158 -10 3 -13 -14 -13 -62z"></path>
<path d="M2557 1593 c-3 -5 -8 -62 -11 -128 -4 -66 -9 -139 -13 -162 -4 -35
-2 -44 13 -50 10 -4 19 -2 22 5 3 9 18 11 51 6 117 -15 186 104 99 169 -27 20
-59 18 -120 -8 -16 -6 -18 1 -18 84 0 79 -8 109 -23 84z m151 -195 c20 -20 14
-65 -10 -82 -23 -16 -73 -21 -102 -10 -25 10 -19 43 13 75 31 31 77 39 99 17z"></path>
<path d="M3087 1574 c-14 -14 -7 -35 11 -32 9 2 17 10 17 17 0 16 -18 25 -28
15z"></path>
<path d="M3856 1530 c-84 -75 -34 -176 60 -121 29 17 39 19 51 10 10 -9 17 -9
25 -1 7 7 4 19 -11 40 -11 17 -21 36 -21 44 0 23 -30 58 -50 58 -11 0 -35 -14
-54 -30z m64 -39 c0 -36 -25 -63 -54 -59 -15 2 -20 9 -18 23 6 33 31 65 52 65
15 0 20 -7 20 -29z"></path>
<path d="M620 1545 c0 -9 61 -36 73 -32 7 2 -2 11 -20 20 -32 17 -53 22 -53
12z"></path>
<path d="M3482 1530 c-62 -38 -82 -105 -40 -134 27 -19 71 -21 98 -3 25 15 34
4 51 -66 8 -33 8 -52 1 -59 -5 -5 -61 -14 -124 -20 -62 -5 -205 -19 -318 -29
-302 -30 -395 -37 -715 -54 -446 -23 -485 -26 -479 -36 3 -6 44 -7 92 -4 48 3
249 14 447 25 198 11 419 27 490 35 72 8 186 19 255 25 69 6 174 15 233 21 59
5 112 7 117 4 18 -11 10 -36 -19 -66 -24 -23 -38 -29 -75 -29 -51 0 -67 -14
-35 -31 60 -32 151 20 171 97 l12 42 70 5 c39 3 134 12 211 21 77 8 255 27
395 41 140 14 336 34 435 45 99 10 216 21 260 25 70 5 410 46 625 75 132 18
265 43 274 52 15 12 -9 10 -140 -12 -170 -28 -645 -87 -804 -100 -74 -6 -164
-15 -200 -20 -36 -5 -123 -14 -195 -20 -71 -6 -209 -19 -305 -30 -235 -26
-568 -61 -605 -63 -27 -2 -30 1 -36 40 -9 52 -88 230 -104 237 -7 2 -26 -4
-43 -14z m38 -49 c15 -30 12 -49 -10 -61 -14 -8 -26 -8 -40 0 -24 13 -25 23
-4 55 20 30 40 32 54 6z"></path>
<path d="M3097 1503 c-11 -10 -8 -181 2 -188 17 -10 31 32 31 92 0 84 -12 118
-33 96z"></path>
<path d="M3184 1485 c-3 -11 -4 -50 -2 -85 2 -50 7 -65 18 -65 11 0 16 15 20
56 10 117 77 118 96 2 4 -29 12 -43 22 -43 21 0 11 94 -15 128 -18 24 -27 27
-77 27 -49 1 -57 -2 -62 -20z"></path>
<path d="M2872 1480 c-100 -61 -66 -200 50 -200 36 0 98 33 98 51 0 7 -10 9
-27 5 -80 -19 -108 -18 -127 3 -27 30 -15 45 45 59 29 7 58 17 66 23 20 17 16
46 -9 63 -30 21 -56 20 -96 -4z m78 -30 c0 -5 -4 -10 -9 -10 -5 0 -24 -3 -42
-6 -32 -5 -33 -5 -15 10 22 18 66 22 66 6z"></path>
<path d="M6010 1054 c-69 -13 -197 -33 -285 -44 -88 -12 -207 -27 -265 -35
-58 -8 -190 -24 -295 -34 -416 -43 -786 -82 -1035 -111 -216 -25 -423 -46
-645 -65 -99 -9 -232 -23 -295 -31 -118 -15 -627 -50 -893 -61 -82 -3 -150
-10 -154 -16 -9 -14 174 -6 757 33 85 6 234 19 330 30 96 11 249 26 340 34
279 26 382 36 465 47 44 5 145 16 225 24 80 8 199 21 265 29 66 9 190 22 275
31 368 36 545 55 690 74 337 44 448 60 515 75 39 8 96 17 128 21 31 4 57 11
57 16 0 14 -43 10 -180 -17z"></path>
</g>
</svg>