 <svg version="1.0" xmlns="http://www.w3.org/2000/svg" width="700.000000pt" height="438.000000pt" viewBox="0 0 700.000000 438.000000" preserveAspectRatio="xMidYMid meet">
<metadata>
Created by potrace 1.12, written by Peter Selinger 2001-2015
</metadata>
<g transform="translate(0.000000,438.000000) scale(0.100000,-0.100000)" fill="#000000" stroke="none">
<path d="M83 4323 c-90 -107 -84 -66 -81 -485 3 -314 5 -367 15 -333 17 55 95
166 132 188 35 21 74 83 90 143 6 23 27 58 46 78 19 21 35 44 35 51 0 8 27 71
60 141 33 70 60 137 60 150 0 13 11 33 24 46 13 13 26 35 30 51 l6 27 -184 0
-184 0 -49 -57z"></path>
<path d="M4360 4376 c0 -2 11 -29 25 -60 36 -83 65 -168 60 -177 -5 -8 -165
-62 -292 -99 -40 -11 -74 -24 -77 -29 -6 -9 92 -98 179 -161 33 -24 63 -49 68
-56 6 -10 19 -5 52 18 25 18 42 35 38 39 -5 4 -60 31 -123 59 -63 28 -132 59
-152 68 -21 9 -38 20 -38 24 0 4 26 14 58 23 120 35 302 96 306 104 7 11 -85
251 -95 251 -5 0 -9 -2 -9 -4z m-80 -486 c44 -22 80 -44 80 -49 0 -5 -7 -14
-15 -21 -15 -12 -44 6 -149 92 -36 30 0 20 84 -22z"></path>
<path d="M4490 4374 c0 -5 32 -40 71 -80 79 -79 78 -80 -8 -108 -49 -16 -71
-31 -61 -42 7 -6 161 47 176 61 11 10 -2 27 -73 91 -85 78 -105 93 -105 78z"></path>
<path d="M5899 4303 c-46 -42 -85 -80 -87 -84 -2 -4 16 -13 40 -19 93 -24 168
-50 271 -93 59 -25 117 -49 130 -52 l22 -7 -21 16 c-11 8 -41 22 -65 32 -77
29 -127 53 -134 65 -4 6 -2 23 5 37 12 26 20 44 43 102 5 14 13 33 18 42 5 10
9 23 9 30 0 24 -17 -8 -50 -92 -18 -47 -38 -90 -44 -97 -8 -9 -27 -6 -79 12
-38 12 -74 28 -80 34 -8 8 6 27 56 72 63 57 79 79 58 79 -4 0 -46 -35 -92 -77z"></path>
<path d="M949 4338 c-1 -2 -3 -21 -5 -43 -3 -42 9 -65 35 -65 20 0 61 40 61
58 0 19 -85 65 -91 50z"></path>
<path d="M1070 4320 c0 -5 5 -10 10 -10 6 0 10 5 10 10 0 6 -4 10 -10 10 -5 0
-10 -4 -10 -10z"></path>
<path d="M882 4228 c-13 -13 -16 -48 -4 -48 4 0 13 14 19 30 12 31 6 39 -15
18z"></path>
<path d="M3220 4150 c0 -5 5 -10 10 -10 6 0 10 5 10 10 0 6 -4 10 -10 10 -5 0
-10 -4 -10 -10z"></path>
<path d="M5060 4111 c0 -40 13 -61 25 -41 3 5 12 10 20 10 27 0 263 -291 280
-345 4 -11 -66 54 -154 145 -150 155 -160 163 -161 134 0 -30 35 -331 46 -391
7 -39 -12 -46 -22 -8 -3 14 -19 35 -34 48 -35 28 -220 282 -220 301 0 51 57
-14 150 -173 24 -41 46 -69 48 -62 8 23 -186 331 -209 331 -5 0 -9 -19 -9 -42
0 -80 -43 -523 -51 -532 -5 -6 -9 1 -9 16 0 83 -97 458 -118 458 -15 0 -66
-115 -147 -332 -46 -120 -85 -222 -89 -225 -3 -4 -6 78 -6 180 0 118 -4 187
-10 187 -6 0 -10 -28 -10 -64 l0 -63 -112 -108 c-62 -59 -125 -117 -139 -128
l-27 -19 53 -102 c30 -55 61 -130 70 -166 9 -36 26 -84 36 -108 15 -32 20 -66
20 -137 1 -51 -1 -97 -4 -102 -3 -4 -10 -58 -16 -119 -10 -99 -9 -119 8 -186
23 -92 65 -172 108 -207 18 -14 33 -32 33 -39 0 -7 5 -10 11 -7 20 13 39 -28
34 -75 l-4 -45 14 30 c8 17 14 36 15 43 0 16 7 15 56 -9 49 -23 46 -16 74
-174 23 -124 30 -149 30 -99 0 33 -37 250 -47 274 -3 8 -5 19 -4 24 1 5 -4 4
-11 -2 -10 -8 -26 -3 -66 19 -28 17 -52 36 -52 42 0 7 9 41 20 77 21 67 25
110 13 110 -24 -1 -34 -23 -39 -93 -4 -42 -10 -77 -14 -77 -4 0 -12 93 -17
208 l-10 207 -1 -197 c-1 -109 -6 -198 -10 -198 -22 0 -81 106 -106 189 -14
49 -14 67 -1 185 16 150 21 273 12 283 -4 3 -7 18 -7 33 0 15 -3 29 -6 33 -3
3 -24 59 -45 124 -22 65 -56 146 -74 181 -19 34 -35 68 -35 75 0 7 28 28 62
47 34 19 77 45 96 58 l35 23 -7 -111 c-3 -61 -9 -139 -11 -173 -4 -40 -2 -55
3 -42 10 22 36 334 29 341 -3 3 -28 -9 -56 -27 -29 -17 -54 -30 -56 -27 -4 4
130 128 139 128 3 0 6 -30 6 -67 0 -99 12 -203 21 -197 5 3 9 15 9 27 0 37 18
-1 25 -56 5 -31 15 -56 30 -70 13 -12 28 -44 34 -72 6 -27 29 -119 51 -204 37
-144 40 -163 40 -292 0 -86 4 -139 10 -139 6 0 10 35 10 85 0 47 4 85 8 85 4
0 14 -17 21 -37 17 -45 79 -139 115 -172 26 -24 26 -26 26 -173 0 -84 -4 -148
-9 -148 -5 0 -12 8 -15 18 -2 9 -2 1 1 -19 3 -27 1 -38 -11 -42 -8 -3 -17 -3
-19 1 -8 13 5 82 15 82 5 0 7 8 4 18 -3 9 -2 43 3 75 4 32 5 54 1 50 -4 -4
-15 -57 -24 -118 -10 -60 -29 -171 -43 -244 -19 -97 -23 -136 -15 -139 7 -2
15 -21 18 -43 4 -21 10 -39 14 -39 3 0 15 48 26 107 11 59 25 108 31 110 6 2
24 -22 40 -54 25 -53 28 -68 28 -163 0 -168 -35 -215 -173 -232 -43 -5 -123
-16 -180 -24 -57 -8 -108 -12 -113 -8 -5 3 4 22 22 41 28 32 31 42 27 83 -6
62 -27 88 -122 152 -148 99 -176 125 -210 197 -28 60 -31 75 -30 156 1 50 7
116 14 149 12 60 31 204 33 265 2 25 13 47 44 80 l43 46 20 -25 c20 -25 12 -7
-58 123 -19 37 -21 38 -16 12 4 -16 7 -33 8 -36 0 -4 -16 -21 -37 -37 l-38
-31 -28 32 c-42 50 -97 139 -105 170 -3 15 -36 58 -72 96 -36 38 -77 87 -92
109 -28 41 -121 148 -107 122 5 -8 23 -37 40 -65 78 -126 74 -172 -5 -65 -71
96 -292 320 -316 320 -12 0 -29 9 -39 20 -22 24 -37 26 -28 4 3 -9 -6 -27 -25
-47 -17 -18 -45 -63 -62 -102 -18 -38 -63 -111 -101 -161 -38 -51 -69 -94 -69
-97 0 -4 -17 -33 -38 -66 -22 -32 -45 -73 -52 -90 -18 -46 -30 -38 -32 22 -1
30 -4 7 -8 -53 -8 -112 11 -241 51 -362 26 -77 24 -79 -17 -33 -30 34 -28 29
14 -35 55 -83 82 -133 82 -151 0 -6 17 -50 39 -98 58 -130 98 -328 87 -433 -7
-73 -47 -210 -61 -215 -7 -2 -9 35 -8 104 l3 108 -19 -55 c-48 -141 -109 -238
-214 -342 -124 -122 -298 -208 -477 -237 -84 -14 -190 -14 -190 -1 0 12 0 12
81 34 58 16 209 107 209 127 0 6 18 31 39 57 22 26 53 74 69 107 30 62 67 174
59 182 -3 2 -17 -17 -31 -42 -69 -117 -189 -212 -315 -249 -61 -18 -151 -21
-151 -6 0 6 13 10 29 10 132 0 384 230 476 436 28 60 44 184 24 184 -5 0 -9
12 -9 27 0 14 -7 34 -15 43 -9 10 -22 52 -29 95 -9 51 -19 81 -30 87 -35 20
-76 137 -76 221 0 49 25 125 37 113 4 -4 8 -44 10 -89 3 -97 15 -182 32 -217
10 -21 11 -16 6 35 -13 122 -24 313 -26 415 -1 58 -3 96 -6 85 -27 -122 -182
-584 -205 -613 -7 -8 -22 -11 -37 -7 -67 15 -210 -37 -283 -102 -97 -87 -99
-93 63 149 81 120 188 302 213 362 8 20 18 36 22 36 4 0 4 -35 0 -77 -11 -115
0 -84 18 51 9 65 20 124 25 130 5 6 16 72 25 146 21 173 30 220 72 364 39 133
77 215 137 296 104 139 229 231 393 286 94 32 125 38 224 42 183 7 303 -19
465 -99 114 -57 260 -170 326 -251 28 -35 30 -43 20 -65 -10 -22 -9 -25 4 -19
9 3 19 6 21 6 3 0 2 4 -1 10 -3 5 30 62 73 127 89 134 125 193 120 193 -3 0
-42 -58 -89 -130 -46 -71 -87 -130 -91 -130 -5 0 -43 35 -86 78 -195 192 -415
296 -659 309 -262 14 -490 -73 -664 -254 -175 -181 -258 -400 -299 -793 -12
-110 -18 -132 -71 -245 -34 -72 -36 -76 -38 -97 -1 -9 -4 -9 -12 2 -9 13 -10
12 -5 -2 3 -10 1 -18 -5 -18 -6 0 -8 -4 -5 -9 3 -5 -1 -11 -9 -15 -9 -3 -12
-12 -8 -22 4 -12 3 -15 -5 -10 -8 5 -10 1 -5 -10 4 -11 3 -15 -5 -10 -7 4 -18
-6 -27 -24 -8 -16 -13 -30 -10 -30 3 0 -4 -9 -15 -20 -12 -12 -18 -25 -15 -30
4 -6 1 -10 -5 -10 -6 0 -8 -4 -5 -10 3 -5 1 -10 -5 -10 -6 0 -9 -4 -6 -9 4 -5
-9 -24 -26 -42 -18 -18 -33 -35 -33 -38 0 -11 -42 -73 -49 -72 -3 1 -5 0 -3
-2 1 -1 -3 -9 -10 -17 -7 -8 -46 -57 -88 -107 -94 -116 -180 -204 -225 -232
-19 -11 -32 -22 -27 -22 4 -1 13 -2 20 -3 6 -1 21 8 32 19 11 12 48 45 82 74
34 29 79 75 100 103 48 66 54 48 8 -27 -19 -32 -35 -66 -35 -75 0 -24 -28 -47
-195 -157 -188 -125 -225 -147 -232 -140 -14 15 109 119 147 123 5 1 16 2 24
3 17 1 76 49 76 61 0 9 -8 8 -52 -5 -16 -4 -26 -11 -23 -15 5 -8 -17 -20 -45
-26 -8 -2 -23 -13 -32 -25 -10 -11 -18 -17 -18 -13 0 5 -7 1 -14 -9 -8 -10
-16 -17 -18 -16 -1 1 -13 -1 -26 -5 -16 -6 -22 -13 -18 -24 4 -12 2 -11 -10 3
-9 12 -13 31 -10 47 3 17 -2 35 -14 51 -11 14 -20 35 -20 46 0 17 6 21 33 21
36 0 57 15 57 39 0 34 14 41 55 29 22 -6 46 -11 53 -9 6 1 12 -7 12 -17 0 -12
7 -18 18 -17 26 2 117 82 148 130 72 109 168 225 189 225 16 1 63 75 75 119
17 65 2 83 -64 78 -29 -2 -57 -6 -63 -10 -6 -4 -18 12 -28 38 -16 43 -31 62
-41 52 -3 -2 11 -39 31 -82 19 -43 35 -83 35 -89 0 -7 -14 -25 -31 -42 -17
-16 -35 -39 -40 -52 -10 -25 -73 -57 -95 -48 -17 6 -18 80 -3 146 5 24 12 65
14 90 5 45 20 90 56 165 11 23 19 61 19 89 0 56 16 149 36 215 8 25 14 55 14
68 0 24 -4 27 -52 37 -17 4 -29 16 -36 36 -14 37 -34 38 -61 3 -18 -25 -22
-27 -41 -15 -19 11 -25 11 -39 -2 -40 -36 -76 -6 -47 39 19 28 21 81 4 91 -7
4 -18 -2 -26 -14 -27 -40 -46 -26 -56 42 -2 15 -18 28 -64 52 -6 3 -23 -1 -35
-9 -21 -13 -26 -13 -49 1 -29 17 -55 11 -65 -15 -3 -10 -15 -29 -25 -42 -10
-13 -18 -34 -18 -47 0 -16 -6 -24 -17 -24 -29 0 -50 -17 -37 -30 8 -8 24 -6
59 5 37 13 54 14 72 6 20 -9 23 -17 23 -68 -1 -32 -7 -69 -15 -83 -17 -29 -20
-90 -5 -90 6 0 22 -11 36 -25 13 -13 33 -29 44 -35 11 -6 20 -19 20 -29 0 -11
7 -21 15 -25 26 -9 17 -44 -14 -61 -27 -13 -29 -19 -24 -50 4 -27 2 -36 -12
-41 -11 -5 -22 -1 -30 10 -8 11 -24 16 -46 14 l-34 -3 -3 56 c-4 71 -18 84
-99 93 l-62 7 -12 -43 c-6 -24 -15 -71 -19 -105 -4 -34 -15 -74 -23 -90 -8
-15 -23 -46 -32 -68 -10 -22 -25 -49 -35 -60 -10 -11 -20 -45 -24 -78 -3 -32
-14 -73 -23 -90 -9 -18 -19 -70 -23 -117 -5 -47 -22 -152 -40 -235 -17 -82
-32 -175 -33 -206 -1 -46 -5 -56 -17 -51 -52 18 -93 105 -93 197 0 37 9 70 29
111 39 82 39 83 4 44 -18 -19 -45 -62 -61 -95 -24 -51 -29 -72 -29 -139 0 -43
5 -96 12 -118 13 -42 78 -123 107 -133 16 -5 17 -12 9 -63 -5 -31 -11 -81 -14
-110 -3 -41 -15 -72 -48 -125 -43 -71 -62 -137 -82 -282 -3 -27 -17 -77 -31
-110 -14 -36 -19 -61 -13 -63 5 -2 10 -8 10 -13 0 -6 -4 -8 -9 -4 -5 3 -12 1
-16 -5 -16 -26 -118 0 -163 43 -55 51 -65 113 -32 207 16 47 19 73 6 59 -32
-35 -90 -135 -107 -186 -31 -95 -25 -205 15 -257 15 -21 39 -42 52 -48 45 -21
13 -27 -39 -8 -61 23 -123 85 -157 157 -34 72 -39 199 -11 291 11 39 21 74 21
78 0 13 -100 -88 -125 -126 -38 -59 -76 -179 -82 -259 -11 -145 41 -272 143
-352 45 -36 64 -59 74 -89 l13 -40 687 0 687 0 14 100 c11 74 12 99 3 96 -27
-10 -243 251 -228 276 3 5 19 7 35 4 91 -18 94 -18 83 -7 -6 6 -34 14 -63 18
-28 3 -54 10 -57 15 -8 13 18 108 30 108 6 0 48 -10 94 -21 94 -25 101 -23
109 39 5 37 3 42 -23 55 -16 8 -54 22 -84 32 -30 10 -59 21 -64 25 -11 11 57
164 127 283 62 104 168 227 197 227 14 0 18 13 24 78 27 293 121 534 255 654
122 109 320 135 476 64 83 -38 95 -53 110 -134 16 -81 12 -99 -43 -208 -70
-139 -222 -289 -357 -354 -56 -27 -69 -30 -82 -18 -13 10 -17 10 -20 1 -7 -20
-23 -15 -23 7 0 11 -5 20 -11 20 -6 0 -9 -12 -7 -27 3 -27 1 -28 -52 -35 -30
-4 -65 -5 -77 -3 -13 3 -23 1 -23 -4 0 -5 26 -15 57 -21 121 -24 119 -22 118
-93 l0 -62 -95 -5 -95 -5 60 -19 c33 -10 75 -20 93 -23 18 -3 34 -9 37 -12 2
-4 9 -81 15 -171 10 -150 43 -386 55 -398 12 -12 13 7 4 48 -19 84 -38 245
-45 379 l-7 134 69 -9 c129 -17 279 -8 379 21 144 42 234 95 339 199 51 50
101 104 112 120 l20 30 31 -50 c17 -27 44 -67 61 -89 l30 -39 -97 -62 c-210
-135 -374 -284 -444 -403 -27 -46 -14 -38 18 12 78 117 292 300 495 422 121
73 339 235 366 272 29 40 40 64 14 31 -30 -39 -42 -35 -34 10 11 63 31 102 52
102 11 0 22 7 26 15 6 18 37 20 53 4 12 -12 5 -43 -23 -102 l-18 -38 27 -27
c36 -36 56 -23 82 52 17 50 24 57 55 66 56 16 136 12 196 -10 56 -19 144 -82
144 -102 0 -11 -89 -6 -122 7 -10 4 -18 3 -18 -2 0 -10 147 -83 168 -83 35 0
-1 -32 -101 -92 l-112 -66 -77 4 c-74 5 -78 4 -112 -26 -19 -17 -44 -51 -56
-75 -12 -24 -29 -47 -39 -50 -10 -3 -27 -15 -37 -27 -19 -22 -19 -22 10 0 39
30 52 16 38 -40 -10 -39 -9 -58 3 -47 2 3 11 42 19 88 13 76 18 88 55 125 39
39 44 41 101 41 33 0 60 -3 60 -7 0 -13 -49 -40 -63 -35 -12 4 -12 -1 -2 -31
8 -21 11 -60 7 -95 -6 -76 24 -146 73 -170 l34 -16 7 32 c3 18 12 40 19 50 10
14 8 26 -11 64 -37 72 -30 100 16 71 15 -10 22 -10 32 0 9 9 6 12 -15 12 -32
0 -43 20 -27 50 16 30 43 21 56 -19 6 -19 25 -46 42 -60 32 -26 32 -26 43
-171 14 -182 10 -224 -35 -335 -20 -49 -36 -98 -36 -110 0 -21 56 -72 67 -62
8 9 -7 27 -23 27 -9 0 -14 6 -12 13 7 20 50 19 84 -2 28 -17 32 -25 38 -86 8
-82 30 -187 57 -278 l20 -67 387 0 387 0 -5 120 c-3 66 -3 120 0 120 3 0 22
-17 42 -37 23 -24 48 -68 68 -121 l31 -82 344 0 343 0 -5 62 c-2 35 -8 107
-13 161 l-9 98 85 192 c58 131 94 200 114 217 15 14 39 48 53 75 63 128 374
981 385 1058 5 29 12 51 18 50 5 -1 18 -5 29 -8 16 -6 17 -5 5 4 -31 23 -138
49 -228 56 -76 6 -92 10 -88 22 18 46 18 65 -2 86 -18 20 -19 29 -12 112 13
139 13 143 -14 160 -12 8 -50 19 -82 23 l-59 7 -3 53 c-3 60 11 69 28 17 18
-54 30 -42 32 33 1 37 2 78 2 92 1 14 4 30 7 35 4 6 3 55 -2 110 -4 55 -8 111
-8 125 l-1 25 20 -25 c11 -14 33 -51 50 -82 32 -59 55 -77 45 -35 -2 12 -16
93 -30 180 -15 87 -30 170 -36 184 -12 33 -12 35 11 28 19 -6 19 -5 3 38 -9
24 -22 44 -28 43 -12 -1 -105 110 -105 125 0 5 7 6 16 2 15 -5 15 -3 0 23 -22
41 -45 68 -51 62 -3 -3 -1 -27 5 -53 25 -113 81 -482 76 -507 -3 -15 -2 -28 3
-30 10 -4 24 -118 14 -118 -5 0 -19 25 -32 56 -20 46 -22 57 -10 64 11 7 11
21 1 80 -7 39 -12 82 -12 95 0 14 -3 25 -7 25 -5 0 -8 -82 -9 -182 -1 -123 -8
-234 -22 -338 -20 -151 -41 -265 -47 -258 -10 11 -35 238 -30 270 10 56 25 36
25 -33 0 -33 4 -59 10 -59 13 0 13 247 0 400 -13 154 -30 270 -41 270 -5 0 -9
-43 -9 -94 0 -132 -44 -448 -87 -623 -3 -13 -1 -23 4 -23 10 0 64 229 84 358
6 39 14 72 19 72 21 0 27 -207 6 -224 -8 -6 -33 -72 -55 -146 -44 -143 -126
-358 -143 -375 -7 -7 -8 10 -3 50 5 33 9 227 10 430 1 204 5 387 9 408 5 22 4
37 -1 37 -6 0 -15 -24 -22 -52 -18 -82 -78 -261 -84 -251 -3 4 1 55 9 113 22
166 28 426 15 620 -7 96 -14 183 -17 193 -10 32 15 18 38 -22 22 -39 68 -63
68 -35 0 7 -5 14 -10 16 -6 2 -15 32 -21 68 -5 36 -23 110 -38 165 -16 55 -34
126 -41 158 -7 31 -17 57 -23 57 -5 0 -7 -10 -3 -23 3 -13 21 -97 41 -188 20
-90 38 -172 41 -181 3 -10 2 -18 -3 -18 -15 0 -272 356 -275 381 -7 51 20 29
89 -77 40 -60 79 -118 88 -129 14 -19 14 -19 5 8 -21 59 -134 238 -204 322
l-25 30 -1 -25 c0 -14 16 -81 35 -150 32 -111 85 -323 85 -337 0 -18 -36 30
-62 81 -53 106 -167 263 -265 366 -52 55 -99 100 -104 100 -5 0 -9 -18 -9 -39z
m113 -188 c34 -37 79 -85 99 -107 21 -21 35 -43 31 -49 -4 -6 -11 -3 -19 8 -8
10 -17 16 -21 12 -13 -14 29 -47 52 -41 18 4 34 -8 86 -66 94 -105 95 -104
-98 -105 l-163 -1 0 61 c0 33 -5 94 -11 135 -6 41 -13 95 -14 118 -2 24 -8 49
-14 55 -14 14 -14 47 -1 47 6 0 39 -30 73 -67z m-313 -18 c16 -19 10 -45 -15
-61 -19 -13 -20 -11 -17 31 4 47 12 54 32 30z m-186 -87 c35 -115 40 -138 29
-138 -8 0 -84 194 -83 213 0 4 7 7 15 7 9 0 23 -28 39 -82z m-33 -30 c5 -21
32 -97 59 -169 28 -73 48 -134 45 -137 -3 -3 -26 -13 -52 -23 -27 -10 -69 -26
-95 -36 -45 -17 -47 -17 -66 0 -11 10 -25 39 -31 63 -10 38 -9 51 4 76 8 17
15 37 15 45 0 7 6 13 13 14 6 1 23 2 37 2 17 2 25 8 25 21 0 11 -6 21 -12 24
-7 2 -13 -3 -13 -12 0 -9 -7 -16 -15 -16 -16 0 -20 12 -9 23 14 14 43 114 44
148 0 20 3 39 7 43 11 10 32 -22 44 -66z m232 40 c-10 -11 -19 -15 -21 -8 -5
15 18 41 30 34 5 -3 1 -15 -9 -26z m39 6 c4 -3 -5 -22 -18 -42 -32 -46 -29
-88 8 -115 22 -17 33 -19 55 -11 14 5 28 15 31 23 3 8 0 11 -7 7 -6 -4 -11 -2
-11 3 0 13 10 14 28 3 31 -20 -25 -62 -81 -62 -38 0 -67 39 -67 89 0 62 40
128 62 105z m7 -50 c-14 -18 -24 -11 -15 11 3 9 11 13 16 10 8 -5 7 -11 -1
-21z m38 -14 c17 -26 0 -73 -24 -68 -22 4 -27 26 -14 61 12 32 22 34 38 7z
m153 -209 c0 -3 -22 -7 -48 -8 -27 -1 -82 -9 -123 -18 -41 -9 -91 -19 -113
-22 -37 -6 -38 -5 -26 16 6 13 9 25 6 28 -15 15 20 33 63 33 59 0 113 15 143
40 l23 19 -25 -6 c-23 -6 -24 -5 -10 12 14 17 18 14 62 -36 27 -29 48 -55 48
-58z m-270 68 c0 -5 -7 -9 -15 -9 -9 0 -15 9 -15 21 0 18 2 19 15 9 8 -7 15
-16 15 -21z m719 -159 c40 -5 80 -15 87 -21 23 -19 19 -450 -6 -674 -11 -99
-22 -190 -25 -202 -7 -31 11 -29 19 2 4 16 13 25 25 25 14 0 25 14 37 45 9 25
21 45 25 45 5 0 9 -72 9 -160 0 -159 0 -160 -22 -160 -13 0 -63 -11 -113 -24
-49 -14 -91 -20 -93 -15 -2 5 -28 -5 -59 -22 -66 -37 -167 -76 -234 -90 -40
-9 -54 -7 -86 7 -84 40 -224 145 -325 244 -110 109 -127 136 -167 260 -33 104
-133 483 -135 510 -1 21 8 29 54 52 64 31 110 34 211 13 40 -9 74 -13 77 -10
6 5 -8 11 -86 35 l-57 18 85 26 c146 44 380 93 380 78 0 -4 -18 -26 -40 -47
-58 -56 -49 -64 13 -12 74 63 92 70 187 77 130 10 159 10 239 0z m-2123 -152
c76 -65 95 -97 75 -129 -6 -10 -11 -27 -12 -36 0 -11 -3 -13 -6 -5 -2 6 -10 9
-15 6 -13 -8 -2 13 20 38 8 9 12 22 10 29 -5 16 -112 -150 -112 -176 -1 -24
40 -33 166 -37 75 -2 91 0 105 16 10 10 12 16 5 12 -7 -4 -15 -1 -17 7 -4 9
-16 12 -35 9 -50 -7 -79 6 -97 43 -15 31 -15 40 -2 80 11 35 17 43 28 35 12
-7 13 -13 3 -35 -15 -33 -15 -78 0 -93 17 -17 75 -15 82 3 7 20 35 8 31 -15
-2 -11 6 -22 20 -30 22 -12 34 -34 55 -102 8 -26 7 -26 -18 -16 -64 25 -154
41 -247 44 -55 2 -121 6 -147 9 -40 6 -225 -15 -275 -30 -19 -6 -16 12 5 33 9
10 18 25 20 33 2 7 7 16 11 19 24 16 139 187 177 262 56 111 66 113 170 26z
m2647 -94 c17 -25 38 -71 45 -102 24 -107 62 -334 56 -343 -3 -5 -25 20 -48
55 -43 61 -44 67 -70 232 -15 93 -29 177 -32 187 -10 32 16 17 49 -29z m-2463
-90 c13 -34 13 -34 -9 -34 -24 0 -43 23 -35 44 9 24 33 19 44 -10z m-111 -52
c1 -7 -3 -10 -9 -7 -5 3 -10 18 -9 33 0 24 1 25 9 7 5 -11 9 -26 9 -33z m-25
-7 c16 -25 16 -25 -14 -25 -31 0 -35 6 -24 34 9 22 19 20 38 -9z m96 -50 c0
-15 -41 -2 -50 16 -11 20 -11 20 19 4 17 -8 31 -18 31 -20z m299 -110 c31 -44
44 -75 33 -75 -4 0 -29 13 -56 28 -43 24 -51 34 -66 80 -10 29 -13 55 -9 58 5
3 7 11 3 17 -10 21 67 -67 95 -108z m-92 -27 c-3 -8 -6 -5 -6 6 -1 11 2 17 5
13 3 -3 4 -12 1 -19z m-287 -19 c47 -5 126 -20 175 -33 l90 -22 2 -83 c2 -97
-12 -151 -46 -168 -14 -6 -25 -21 -26 -32 -2 -20 -1 -20 17 -4 10 9 21 13 25
9 15 -14 -79 -236 -105 -248 -4 -2 -16 -21 -28 -44 l-20 -40 23 10 c12 6 23
16 23 22 0 7 18 42 41 80 23 37 46 80 51 96 13 36 24 35 43 -1 8 -17 19 -32
25 -36 19 -12 122 -35 131 -29 16 10 10 24 -8 17 -12 -4 -6 7 15 30 42 49 45
110 7 151 -30 33 -11 34 37 1 49 -33 55 -57 27 -102 -20 -32 -21 -36 -5 -30
10 4 21 7 26 7 4 0 10 10 14 22 3 15 9 19 15 13 5 -6 2 -45 -10 -100 -10 -49
-19 -114 -19 -143 0 -100 -82 -296 -161 -386 -81 -92 -343 -236 -430 -236 -16
0 -61 16 -100 36 -39 19 -83 39 -97 45 l-27 9 25 -21 c42 -36 158 -89 193 -89
19 0 48 5 66 11 18 6 34 9 36 7 6 -6 -24 -151 -33 -160 -21 -20 -127 -98 -133
-98 -7 0 -105 116 -152 180 -17 24 -17 24 0 -8 10 -19 44 -65 76 -104 32 -39
56 -76 54 -82 -2 -5 -11 -14 -21 -20 -21 -13 -48 15 -128 133 -45 65 -49 76
-39 98 7 15 17 23 26 19 11 -4 12 -1 3 18 -8 18 -6 36 5 72 12 37 15 77 12
159 -5 153 -38 293 -93 402 -50 98 -128 355 -152 500 -15 93 -4 120 60 145 89
34 240 13 371 -52 61 -30 62 -30 34 -6 -34 29 -126 76 -149 76 -9 0 -16 5 -16
10 0 13 141 13 250 -1z m350 -89 c0 -5 -9 -10 -20 -10 -11 0 -20 5 -20 10 0 6
9 10 20 10 11 0 20 -4 20 -10z m-2135 -10 c8 -13 -14 -42 -25 -35 -4 3 -10 14
-13 25 -4 15 0 20 13 20 11 0 22 -5 25 -10z m2251 -39 c36 -21 55 -40 63 -63
7 -18 20 -49 28 -69 9 -21 12 -46 8 -59 -6 -20 -8 -21 -26 -4 -10 9 -19 22
-19 28 0 22 -140 60 -188 51 l-33 -6 7 63 c7 71 9 75 44 81 51 9 66 6 116 -22z
m1754 10 c0 -6 -4 -13 -10 -16 -5 -3 -10 1 -10 9 0 9 5 16 10 16 6 0 10 -4 10
-9z m354 -48 c17 -51 22 -198 7 -208 -6 -3 -15 3 -20 14 -6 11 -17 25 -24 33
-10 10 -11 34 -4 111 5 53 13 97 17 97 5 0 15 -21 24 -47z m-4359 -3 l16 -31
30 26 c63 52 93 15 35 -44 -31 -32 -37 -45 -42 -101 -7 -67 -21 -90 -57 -90
-10 0 -32 -13 -47 -30 -32 -34 -77 -41 -86 -12 -3 9 -10 25 -15 35 -5 10 -7
22 -4 27 9 14 79 12 93 -2 7 -7 12 -9 12 -5 0 4 0 10 0 15 0 4 -6 7 -12 7 -7
0 -14 10 -16 23 -3 17 1 22 19 22 27 0 59 27 59 49 0 9 -14 24 -30 33 -37 21
-38 44 -3 80 15 15 28 28 30 28 1 0 10 -14 18 -30z m-105 -13 c0 -16 -47 -43
-57 -34 -8 9 27 47 44 47 7 0 13 -6 13 -13z m2214 -153 c7 -19 -1 -34 -19 -34
-18 0 -28 17 -21 35 7 20 32 19 40 -1z m246 -29 c0 -8 -4 -15 -8 -15 -5 0 -9
7 -9 15 0 8 4 15 9 15 4 0 8 -7 8 -15z m804 -183 c37 -119 36 -125 -24 -144
l-50 -16 0 146 0 147 24 -25 c14 -14 36 -61 50 -108z m1046 87 c0 -5 -7 -9
-15 -9 -15 0 -20 12 -9 23 8 8 24 -1 24 -14z m100 -5 c0 -8 -4 -12 -10 -9 -5
3 -10 10 -10 16 0 5 5 9 10 9 6 0 10 -7 10 -16z m-987 -132 c9 -8 17 -27 17
-41 0 -25 -1 -24 -40 14 l-39 38 -22 -49 -22 -49 -18 70 c-10 39 -22 83 -25
99 l-7 29 69 -48 c38 -27 77 -55 87 -63z m436 32 c-17 -21 -16 -85 7 -294 16
-155 17 -172 2 -202 -8 -18 -18 -47 -22 -65 -10 -46 -89 -75 -206 -76 -131 -1
-214 45 -214 118 0 38 39 89 61 81 7 -3 13 2 14 12 3 64 -5 150 -22 231 -22
110 -24 134 -6 128 6 -2 11 -14 10 -25 -3 -28 54 -72 92 -72 48 0 264 137 279
177 4 9 9 13 13 10 3 -4 0 -14 -8 -23z m21 -11 c0 -5 -5 -15 -10 -23 -8 -12
-10 -11 -10 8 0 12 5 22 10 22 6 0 10 -3 10 -7z m-496 -42 c3 -5 -1 -14 -8
-20 -16 -13 -32 2 -21 19 8 12 22 13 29 1z m496 -78 c0 -24 -4 -43 -10 -43 -6
0 -10 26 -10 58 0 40 3 53 10 42 5 -8 10 -34 10 -57z m-200 42 c-32 -39 -122
-59 -148 -33 -21 21 -13 28 36 29 26 1 58 5 72 9 43 14 54 12 40 -5z m-3730
-43 c0 -26 -7 -45 -20 -57 -26 -23 -54 -117 -44 -147 4 -13 16 -35 27 -49 18
-25 18 -32 7 -78 -18 -78 -30 -80 -81 -15 -41 53 -42 57 -30 87 7 18 17 57 21
87 5 30 18 74 29 97 12 23 21 46 21 50 0 12 49 63 60 63 6 0 10 -17 10 -38z
m3940 -103 c0 -16 -4 -29 -10 -29 -5 0 -10 16 -10 36 0 21 4 33 10 29 6 -3 10
-19 10 -36z m10 -85 c0 -13 -4 -24 -10 -24 -5 0 -10 14 -10 31 0 17 4 28 10
24 6 -3 10 -17 10 -31z m650 -19 c0 -2 -20 -35 -44 -72 -24 -37 -55 -91 -69
-118 -36 -71 -125 -328 -187 -535 -29 -96 -55 -178 -58 -181 -4 -4 -19 -9 -33
-13 -36 -8 -41 16 -24 113 8 42 21 123 30 180 10 57 26 129 36 159 20 59 20
98 -1 47 -19 -47 -50 -174 -57 -232 -10 -93 -23 -57 -23 67 0 73 -4 120 -10
120 -6 0 -10 -52 -10 -135 0 -74 -4 -135 -8 -135 -5 0 -16 25 -26 56 -20 63
-69 123 -131 160 -48 28 -55 48 -55 172 0 57 -3 72 -15 72 -8 0 -15 7 -15 15
0 18 20 20 21 3 0 -14 22 41 33 85 5 21 4 27 -5 21 -7 -4 -9 -3 -6 3 3 5 30
10 59 12 94 3 164 21 295 73 70 28 151 54 178 58 60 9 125 12 125 5z m130 -9
c0 -2 -27 -55 -59 -118 -77 -147 -114 -242 -235 -598 -99 -288 -102 -294 -131
-302 -23 -6 -36 -19 -54 -55 -25 -52 -34 -48 -45 23 -7 49 10 70 49 60 32 -8
49 17 70 109 20 87 139 444 195 585 39 101 115 246 148 283 13 14 62 25 62 13z
m117 -22 c9 -24 -19 -124 -92 -325 -166 -457 -312 -809 -335 -809 -11 0 -140
-258 -140 -280 0 -18 -20 -11 -21 8 0 9 -4 41 -8 71 -7 48 -4 64 28 149 34 89
39 96 69 104 40 11 38 7 132 277 114 330 199 550 257 665 80 159 95 178 110
140z m-887 -40 c0 -19 -4 -34 -10 -34 -5 0 -10 18 -10 41 0 24 4 38 10 34 6
-3 10 -22 10 -41z m-1135 -228 c4 -26 2 -59 -5 -80 -14 -44 -34 -60 -23 -19 4
15 7 54 7 86 1 68 12 75 21 13z m-2640 -143 c-63 -116 -74 -130 -112 -145 -33
-12 -48 -32 -37 -49 3 -5 10 -6 16 -3 7 4 8 2 4 -5 -4 -6 -11 -9 -16 -6 -5 3
-14 -4 -20 -15 -6 -11 -8 -20 -5 -20 4 0 -8 -18 -25 -40 -17 -22 -35 -38 -40
-35 -9 6 -27 -14 -32 -35 -2 -7 -15 -25 -30 -38 -15 -13 -27 -26 -26 -30 2 -4
-16 -26 -39 -48 -23 -23 -39 -45 -35 -48 3 -4 -1 -4 -11 0 -24 9 -15 83 23
189 15 44 34 102 41 129 10 35 21 52 41 62 32 16 32 15 16 -37 -9 -31 -8 -44
2 -64 l13 -24 31 32 c58 59 83 103 77 140 0 4 -10 3 -21 -3 -16 -8 -20 -8 -20
4 0 18 59 68 71 60 5 -3 12 2 15 10 3 9 10 16 16 16 5 0 39 23 75 50 36 28 68
48 71 46 2 -3 -17 -45 -43 -93z m80 27 c-7 -30 -19 -98 -26 -150 l-12 -95 -62
-60 c-72 -70 -126 -147 -184 -262 -32 -65 -67 -110 -164 -215 -295 -317 -530
-493 -723 -542 -125 -32 -328 -15 -425 35 -106 54 -198 189 -184 271 15 86
102 257 125 243 4 -2 3 -28 -2 -57 -11 -67 6 -177 37 -238 24 -48 108 -134
141 -143 92 -28 308 -35 389 -13 l50 14 -71 1 c-136 2 -254 64 -300 156 -20
43 -24 64 -22 116 3 72 15 79 34 22 16 -46 74 -99 127 -115 76 -23 234 32 425
148 40 24 76 44 80 44 25 0 300 259 302 283 0 5 18 29 40 54 21 25 38 48 37
52 -1 3 1 6 4 6 15 0 49 40 45 51 -3 7 3 18 12 26 16 12 16 11 2 -6 -8 -11
-10 -17 -4 -13 19 11 89 108 86 119 -1 5 1 7 6 4 11 -7 55 52 47 64 -3 5 0 12
6 16 8 5 9 3 4 -7 -30 -51 92 107 140 182 26 39 48 69 50 67 2 -2 -2 -28 -10
-58z m3655 0 c0 -16 -4 -30 -10 -30 -5 0 -10 14 -10 30 0 17 5 30 10 30 6 0
10 -13 10 -30z m-690 -36 c0 -8 -7 -14 -15 -14 -15 0 -21 21 -9 33 10 9 24 -2
24 -19z m-4020 1 c0 -25 53 -71 108 -94 33 -14 86 -24 140 -28 77 -5 101 -13
102 -34 0 -14 -121 -19 -186 -9 -81 13 -131 35 -155 70 -21 31 -36 110 -20
110 6 0 11 -7 11 -15z m1745 -224 c-3 -6 -39 -32 -80 -60 -78 -52 -158 -86
-225 -97 l-40 -7 0 46 c0 25 -2 52 -6 60 -4 11 10 15 78 16 86 2 205 22 235
40 23 13 46 14 38 2z m3225 -96 c0 -25 -4 -45 -10 -45 -5 0 -10 20 -10 45 0
25 5 45 10 45 6 0 10 -20 10 -45z m-4434 -213 c-12 -11 -18 7 -10 30 l8 23 4
-23 c2 -13 1 -26 -2 -30z m3764 -661 c0 -5 -3 -17 -6 -26 -5 -12 -9 -14 -14
-4 -5 7 -6 18 -3 26 6 15 23 18 23 4z"></path>
<path d="M5390 3643 c0 -12 -8 -23 -17 -26 -17 -4 -17 -4 0 -12 12 -5 24 -2
35 9 15 15 15 17 -1 33 -16 16 -17 16 -17 -4z"></path>
<path d="M4594 3575 c-3 -20 -4 -39 0 -42 9 -9 13 -2 19 40 7 47 -10 49 -19 2z"></path>
<path d="M4579 3497 c-1 -4 -3 -11 -4 -17 -1 -5 -3 -13 -4 -16 0 -4 -8 -1 -16
6 -20 17 -32 5 -15 -15 7 -9 23 -15 34 -13 23 3 34 34 17 51 -6 6 -12 8 -12 4z"></path>
<path d="M5302 3390 c-30 -19 -92 -102 -92 -124 0 -5 14 9 31 32 26 35 73 72
93 72 2 0 -9 -13 -25 -29 -17 -18 -29 -40 -29 -56 0 -35 27 -85 46 -85 9 0 12
-5 8 -11 -11 -19 83 -4 105 15 41 37 33 112 -17 153 l-27 23 33 -10 c49 -13
62 -28 62 -69 0 -27 3 -32 10 -21 5 8 10 33 10 56 0 36 -3 42 -35 57 -49 24
-132 22 -173 -3z m126 -76 c28 -18 28 -53 1 -88 -25 -31 -77 -36 -101 -8 -15
16 -32 94 -24 103 12 11 104 6 124 -7z"></path>
<path d="M5355 3281 c-3 -5 -1 -12 5 -16 12 -7 30 2 30 16 0 12 -27 12 -35 0z"></path>
<path d="M5128 3347 c-27 -22 -39 -67 -18 -67 6 0 10 4 10 9 0 4 11 25 25 45
28 41 22 45 -17 13z"></path>
<path d="M4670 3260 c0 -5 5 -10 10 -10 6 0 10 5 10 10 0 6 -4 10 -10 10 -5 0
-10 -4 -10 -10z"></path>
<path d="M4740 3260 c0 -5 7 -10 16 -10 8 0 12 5 9 10 -3 6 -10 10 -16 10 -5
0 -9 -4 -9 -10z"></path>
<path d="M4670 3233 c-39 -12 -65 -30 -81 -57 -17 -28 -17 -31 2 -68 11 -21
21 -38 23 -38 2 0 1 22 -2 49 -4 48 -3 51 29 70 32 20 69 28 69 15 0 -3 -13
-17 -30 -31 -43 -35 -41 -81 4 -129 33 -35 34 -35 75 -24 33 9 44 18 55 45 14
34 15 102 1 124 -4 7 -16 9 -28 6 -16 -5 -18 -4 -8 3 11 8 10 12 -5 20 -25 12
-85 22 -104 15z m120 -91 c18 -15 21 -24 16 -49 -4 -18 -14 -37 -22 -44 -21
-17 -72 -15 -91 4 -14 14 -26 80 -17 97 1 3 23 6 47 8 31 1 52 -4 67 -16z"></path>
<path d="M4724 3119 c-3 -6 -2 -15 2 -19 12 -12 38 5 30 19 -9 14 -23 14 -32
0z"></path>
<path d="M4810 3230 c0 -5 5 -10 11 -10 5 0 7 5 4 10 -3 6 -8 10 -11 10 -2 0
-4 -4 -4 -10z"></path>
<path d="M5190 3232 c0 -19 32 -70 47 -76 27 -11 27 3 0 25 -15 11 -27 29 -27
40 0 10 -4 19 -10 19 -5 0 -10 -4 -10 -8z"></path>
<path d="M4630 3030 c0 -5 5 -10 11 -10 5 0 7 5 4 10 -3 6 -8 10 -11 10 -2 0
-4 -4 -4 -10z"></path>
<path d="M4940 2915 c0 -8 5 -15 10 -15 6 0 10 7 10 15 0 8 -4 15 -10 15 -5 0
-10 -7 -10 -15z"></path>
<path d="M5086 2871 c-3 -5 3 -11 14 -14 13 -3 20 0 20 9 0 15 -26 19 -34 5z"></path>
<path d="M4950 2856 c0 -2 8 -10 18 -17 15 -13 16 -12 3 4 -13 16 -21 21 -21
13z"></path>
<path d="M5030 2820 c0 -5 9 -10 20 -10 11 0 20 5 20 10 0 6 -9 10 -20 10 -11
0 -20 -4 -20 -10z"></path>
<path d="M5320 2660 c0 -5 4 -10 9 -10 6 0 13 5 16 10 3 6 -1 10 -9 10 -9 0
-16 -4 -16 -10z"></path>
<path d="M5250 2650 c0 -5 9 -10 20 -10 11 0 20 5 20 10 0 6 -9 10 -20 10 -11
0 -20 -4 -20 -10z"></path>
<path d="M5170 2640 c0 -5 9 -10 20 -10 11 0 20 5 20 10 0 6 -9 10 -20 10 -11
0 -20 -4 -20 -10z"></path>
<path d="M5120 2630 c0 -5 5 -10 10 -10 6 0 10 5 10 10 0 6 -4 10 -10 10 -5 0
-10 -4 -10 -10z"></path>
<path d="M5050 2610 c0 -5 5 -10 10 -10 6 0 10 5 10 10 0 6 -4 10 -10 10 -5 0
-10 -4 -10 -10z"></path>
<path d="M5515 2489 c-4 -6 -5 -12 -2 -15 2 -3 7 2 10 11 7 17 1 20 -8 4z"></path>
<path d="M5477 2443 c-4 -3 -7 -11 -7 -17 0 -6 5 -5 12 2 6 6 9 14 7 17 -3 3
-9 2 -12 -2z"></path>
<path d="M3411 3199 c-29 -79 -19 -88 14 -14 27 62 30 75 16 75 -4 0 -18 -27
-30 -61z"></path>
<path d="M3250 3183 c0 -20 62 -113 75 -113 9 0 3 17 -21 52 -19 29 -34 56
-34 60 0 5 -4 8 -10 8 -5 0 -10 -3 -10 -7z"></path>
<path d="M3096 3004 c-4 -9 -4 -19 -2 -21 8 -8 26 8 26 23 0 19 -16 18 -24 -2z"></path>
<path d="M3820 2928 c0 -18 18 -34 28 -24 3 4 -2 14 -11 23 -16 16 -17 16 -17
1z"></path>
<path d="M3300 2753 c0 -5 11 -20 24 -32 14 -13 30 -36 36 -52 7 -16 16 -29
21 -29 14 0 11 74 -3 93 -14 19 -78 35 -78 20z"></path>
<path d="M3037 2707 c-10 -10 -24 -16 -32 -13 -15 5 -27 -62 -12 -71 5 -3 7
-14 4 -24 -3 -11 -1 -16 4 -13 5 3 12 -2 15 -10 8 -22 27 -20 20 2 -19 63 -18
70 9 88 14 9 45 20 68 25 37 6 40 6 22 -7 -10 -8 -22 -14 -27 -14 -14 0 -38
-58 -38 -93 0 -20 9 -46 22 -62 l22 -28 -22 5 c-12 4 -22 2 -22 -3 0 -10 -1
-10 50 -15 19 -2 47 -6 63 -8 21 -4 34 2 61 27 45 44 53 86 28 137 -19 39 -19
39 0 29 11 -6 29 -26 40 -45 22 -37 33 -42 41 -20 9 23 -58 91 -113 115 -66
28 -175 28 -203 -2z m109 -88 c3 -6 0 -18 -9 -26 -18 -18 -37 -9 -37 18 0 21
34 27 46 8z"></path>
<path d="M3720 2629 c0 -11 5 -17 10 -14 6 3 10 13 10 21 0 8 -4 14 -10 14 -5
0 -10 -9 -10 -21z"></path>
<path d="M3740 2361 c0 -11 -4 -23 -10 -26 -5 -3 -10 -12 -10 -18 0 -7 8 0 18
16 9 15 20 27 24 27 5 0 8 5 8 10 0 6 -7 10 -15 10 -8 0 -15 -9 -15 -19z"></path>
<path d="M3630 2179 c0 -16 -31 -38 -54 -39 -12 0 -16 5 -12 15 7 20 -27 20
-43 1 -17 -20 21 -40 61 -32 38 8 89 66 58 66 -5 0 -10 -5 -10 -11z"></path>
<path d="M3375 1930 c3 -5 10 -10 16 -10 5 0 9 5 9 10 0 6 -7 10 -16 10 -8 0
-12 -4 -9 -10z"></path>
<path d="M3420 1920 c0 -5 23 -10 50 -10 28 0 50 5 50 10 0 6 -22 10 -50 10
-27 0 -50 -4 -50 -10z"></path>
<path d="M3560 1910 c0 -5 5 -10 10 -10 6 0 10 5 10 10 0 6 -4 10 -10 10 -5 0
-10 -4 -10 -10z"></path>
<path d="M3220 1900 c0 -5 5 -10 10 -10 6 0 10 5 10 10 0 6 -4 10 -10 10 -5 0
-10 -4 -10 -10z"></path>
<path d="M3610 1900 c0 -5 5 -10 10 -10 6 0 10 5 10 10 0 6 -4 10 -10 10 -5 0
-10 -4 -10 -10z"></path>
<path d="M3230 1840 c0 -11 5 -20 10 -20 6 0 10 9 10 20 0 11 -4 20 -10 20 -5
0 -10 -9 -10 -20z"></path>
<path d="M3210 1621 c0 -11 130 -94 182 -115 38 -16 78 -10 93 14 11 18 0 21
-30 10 -31 -12 -88 10 -179 68 -52 33 -66 38 -66 23z"></path>
<path d="M3840 2680 c0 -16 5 -30 10 -30 6 0 10 14 10 30 0 17 -4 30 -10 30
-5 0 -10 -13 -10 -30z"></path>
<path d="M5974 1826 c-20 -25 -46 -60 -56 -78 -16 -27 -16 -29 -1 -8 10 14 40
49 67 78 27 28 44 52 38 52 -6 0 -28 -20 -48 -44z"></path>
<path d="M5837 1604 c-4 -4 -7 -14 -7 -23 0 -11 3 -12 11 -4 6 6 10 16 7 23
-2 6 -7 8 -11 4z"></path>
<path d="M2210 1170 c0 -5 5 -10 10 -10 6 0 10 5 10 10 0 6 -4 10 -10 10 -5 0
-10 -4 -10 -10z"></path>
<path d="M5590 4110 c0 -5 5 -10 10 -10 6 0 10 5 10 10 0 6 -4 10 -10 10 -5 0
-10 -4 -10 -10z"></path>
<path d="M806 4082 c-3 -5 -9 -35 -15 -68 -9 -58 -82 -235 -124 -304 -23 -36
-28 -48 -70 -160 -38 -101 -76 -183 -96 -205 -11 -11 -38 -62 -62 -112 -23
-51 -48 -93 -55 -93 -6 0 -11 -8 -10 -17 0 -10 -6 -18 -14 -18 -10 0 -15 -11
-16 -34 -1 -38 -34 -70 -71 -71 -19 0 -23 5 -23 30 0 37 -33 126 -56 151 -13
15 -20 16 -31 7 -10 -8 -17 -8 -25 0 -22 22 -32 12 -11 -10 33 -36 59 -97 77
-180 20 -90 17 -102 -31 -160 -19 -23 -44 -61 -55 -85 -11 -23 -26 -47 -34
-54 -8 -6 -14 -15 -14 -20 0 -5 -16 -29 -35 -55 l-35 -46 0 -397 0 -398 51 51
c28 28 57 66 65 84 14 35 105 128 190 197 30 23 70 71 100 118 27 44 68 105
90 136 72 97 114 192 115 258 1 89 24 131 84 155 73 28 180 58 259 72 80 13
108 40 31 29 -35 -4 -49 -2 -56 8 -16 25 -10 29 46 29 30 0 55 5 55 10 0 6
-17 10 -37 10 -54 0 -163 -21 -163 -31 0 -5 -13 -9 -28 -9 -22 0 -34 9 -56 42
-18 28 -26 51 -23 68 8 44 67 174 91 200 27 29 34 48 46 110 5 25 11 55 15 67
6 18 3 22 -16 21 -13 -1 -31 -7 -39 -14 -8 -6 -25 -15 -36 -18 -20 -6 -22 -2
-29 53 -7 64 -11 55 92 206 24 36 53 51 63 34 5 -7 19 0 42 20 20 17 45 31 57
31 19 0 27 19 22 53 0 4 5 7 13 7 21 0 29 17 37 77 5 39 3 61 -8 84 -13 26
-19 30 -52 27 -32 -3 -39 -9 -63 -53 -15 -27 -28 -57 -28 -66 0 -27 -75 -154
-90 -154 -25 0 -16 63 19 137 40 84 49 153 27 196 -9 18 -23 32 -32 32 -8 0
-17 7 -20 15 -7 16 -20 20 -28 7z m-64 -567 c-3 -21 -10 -35 -18 -35 -18 0
-18 20 2 48 8 12 16 22 18 22 1 0 0 -16 -2 -35z m-2 -242 c0 -24 -25 -9 -28
17 -3 21 -2 22 12 11 9 -7 16 -20 16 -28z"></path>
<path d="M5600 4060 c0 -5 5 -10 10 -10 6 0 10 5 10 10 0 6 -4 10 -10 10 -5 0
-10 -4 -10 -10z"></path>
<path d="M3302 4049 c2 -7 10 -15 17 -17 8 -3 12 1 9 9 -2 7 -10 15 -17 17 -8
3 -12 -1 -9 -9z"></path>
<path d="M6305 4031 c17 -11 54 -30 83 -42 53 -22 68 -39 32 -39 -11 0 -20 -4
-20 -9 0 -5 -12 -12 -27 -16 -14 -3 -71 -24 -126 -46 -104 -41 -127 -46 -127
-28 0 6 -14 29 -32 51 -25 32 -29 42 -17 49 8 6 72 7 157 3 90 -4 142 -3 142
3 0 6 -34 13 -77 17 -100 8 -303 8 -303 -1 0 -3 26 -34 58 -67 31 -34 67 -75
79 -91 13 -17 22 -25 22 -20 -3 24 3 31 34 44 17 7 46 20 62 27 17 7 74 27
127 44 54 17 99 34 102 39 5 8 -131 83 -174 95 -23 7 -23 6 5 -13z"></path>
<path d="M5610 4020 c0 -5 5 -10 10 -10 6 0 10 5 10 10 0 6 -4 10 -10 10 -5 0
-10 -4 -10 -10z"></path>
<path d="M3224 3998 c-8 -12 22 -38 44 -38 9 0 12 6 8 16 -3 9 -6 20 -6 25 0
13 -37 11 -46 -3z"></path>
<path d="M5850 3986 c0 -8 5 -18 10 -21 6 -3 10 1 10 9 0 8 -4 18 -10 21 -5 3
-10 -1 -10 -9z"></path>
<path d="M1476 3974 c-20 -20 -20 -27 2 -47 22 -21 46 -22 61 -3 8 10 6 19
-10 40 -24 30 -32 32 -53 10z"></path>
<path d="M5874 3933 c52 -134 187 -509 196 -543 7 -25 16 -49 20 -55 4 -5 16
-35 25 -67 12 -35 23 -54 30 -52 7 3 31 -16 53 -43 45 -52 63 -53 38 -2 -9 18
-16 36 -16 41 0 8 -22 60 -66 155 -38 81 -44 102 -34 108 5 3 71 -15 146 -40
75 -26 138 -44 140 -42 3 2 -5 21 -17 41 -22 38 -37 51 -19 15 15 -27 6 -35
-19 -17 -12 8 -19 17 -16 20 2 2 -45 50 -105 107 -61 56 -110 96 -110 89 1
-18 62 -84 138 -148 34 -29 61 -55 59 -57 -2 -2 -48 9 -101 24 -113 32 -126
46 -126 136 0 30 -9 86 -21 123 -19 62 -29 77 -101 147 -77 75 -107 94 -94 60z
m289 -618 c19 -44 37 -93 41 -110 l7 -30 -40 40 c-50 48 -96 169 -71 185 20
12 24 7 63 -85z"></path>
<path d="M6160 3777 c0 -7 127 -195 143 -212 18 -18 -24 49 -84 135 -32 46
-59 81 -59 77z"></path>
<path d="M4313 3758 c-6 -7 -13 -22 -17 -32 -5 -15 -4 -17 8 -7 7 6 16 21 19
31 6 23 3 25 -10 8z"></path>
<path d="M1525 3610 c-4 -6 -2 -17 5 -25 8 -10 8 -19 1 -34 -14 -25 1 -36 29
-21 24 13 26 37 4 68 -17 24 -29 28 -39 12z"></path>
<path d="M1265 3591 c-3 -5 -1 -12 5 -16 5 -3 10 -15 10 -26 0 -25 17 -24 25
1 10 31 -24 66 -40 41z"></path>
<path d="M1041 3560 c-24 -17 -47 -30 -51 -30 -4 0 -13 -13 -19 -28 -10 -24
-9 -34 7 -63 11 -19 23 -50 27 -69 19 -89 129 -397 151 -421 20 -22 90 -27 81
-6 -3 6 -8 19 -12 28 -4 10 4 28 21 48 24 29 26 38 21 83 -4 28 -2 59 4 69 7
14 3 31 -17 70 -25 51 -25 52 -9 96 17 44 17 45 -5 68 -17 18 -29 23 -50 18
-21 -4 -31 0 -44 18 -18 26 -21 65 -6 74 14 9 13 48 -2 63 -19 19 -50 14 -97
-18z m139 -246 c18 -21 29 -43 26 -51 -3 -8 -6 -19 -6 -25 0 -5 -10 -8 -22 -6
-16 2 -30 18 -46 50 -37 74 -7 94 48 32z"></path>
<path d="M6319 3535 c5 -11 17 -29 26 -40 l16 -20 -10 20 c-5 11 -17 29 -26
40 l-16 20 10 -20z"></path>
<path d="M30 3335 c7 -8 17 -15 22 -15 6 0 5 7 -2 15 -7 8 -17 15 -22 15 -6 0
-5 -7 2 -15z"></path>
<path d="M4372 3148 c-43 -174 -50 -209 -36 -197 6 5 17 23 24 39 13 31 29 40
31 18 1 -7 5 12 9 42 11 74 12 190 2 190 -4 0 -18 -42 -30 -92z"></path>
<path d="M4300 3110 c0 -16 5 -30 10 -30 6 0 10 14 10 30 0 17 -4 30 -10 30
-5 0 -10 -13 -10 -30z"></path>
<path d="M4390 2935 c0 -25 5 -45 10 -45 6 0 10 20 10 45 0 25 -4 45 -10 45
-5 0 -10 -20 -10 -45z"></path>
<path d="M4403 2835 c0 -22 2 -30 4 -17 2 12 2 30 0 40 -3 9 -5 -1 -4 -23z"></path>
<path d="M4400 2735 c0 -30 5 -55 10 -55 6 0 10 25 10 55 0 30 -4 55 -10 55
-5 0 -10 -25 -10 -55z"></path>
<path d="M4506 2719 c-2 -8 -9 -61 -16 -119 -6 -58 -14 -115 -17 -127 -4 -17
-1 -23 11 -23 9 0 16 -4 16 -10 0 -5 6 -10 13 -10 7 0 20 -41 34 -112 13 -61
25 -113 28 -116 14 -14 12 11 -6 93 -32 143 -50 200 -60 184 -15 -24 -18 -4
-7 41 14 59 24 69 39 37 7 -15 16 -27 21 -27 10 0 12 -9 -15 98 -24 95 -33
115 -41 91z"></path>
<path d="M2287 2672 c-24 -26 -21 -32 12 -32 31 0 46 21 28 39 -15 15 -21 14
-40 -7z"></path>
<path d="M1180 2666 c0 -8 4 -17 9 -20 11 -7 33 18 24 27 -12 12 -33 7 -33 -7z"></path>
<path d="M1340 2545 c0 -8 5 -15 10 -15 6 0 10 7 10 15 0 8 -4 15 -10 15 -5 0
-10 -7 -10 -15z"></path>
<path d="M2173 2518 c-23 -25 -58 -150 -49 -173 3 -8 14 -15 25 -15 23 0 80
72 88 112 4 19 10 25 24 23 16 -3 15 1 -8 36 -29 44 -50 49 -80 17z"></path>
<path d="M4421 2176 c-11 -13 -11 -20 -3 -28 8 -8 13 -7 18 5 10 27 0 41 -15
23z"></path>
<path d="M6570 1884 c39 -28 130 -124 130 -139 0 -7 7 -18 15 -25 26 -21 7 18
-36 75 -36 47 -48 58 -109 92 l-25 15 25 -18z"></path>
<path d="M4640 1830 c0 -11 5 -20 10 -20 6 0 10 9 10 20 0 11 -4 20 -10 20 -5
0 -10 -9 -10 -20z"></path>
<path d="M2130 1785 c0 -14 5 -25 10 -25 6 0 10 11 10 25 0 14 -4 25 -10 25
-5 0 -10 -11 -10 -25z"></path>
<path d="M2120 1710 c0 -16 5 -30 10 -30 6 0 10 14 10 30 0 17 -4 30 -10 30
-5 0 -10 -13 -10 -30z"></path>
<path d="M6740 1672 c0 -7 4 -20 9 -30 14 -25 58 -169 70 -227 20 -102 34
-363 29 -555 -3 -107 -2 -181 2 -165 12 46 11 480 0 596 -6 57 -18 133 -26
169 -23 103 -84 256 -84 212z"></path>
<path d="M2111 1538 c1 -62 5 -124 9 -138 5 -15 8 28 9 113 1 85 -3 137 -9
137 -6 0 -10 -44 -9 -112z"></path>
<path d="M2220 1630 c0 -5 5 -10 10 -10 6 0 10 5 10 10 0 6 -4 10 -10 10 -5 0
-10 -4 -10 -10z"></path>
<path d="M2206 1574 c-6 -24 -2 -44 8 -33 9 11 15 59 7 59 -5 0 -12 -12 -15
-26z"></path>
<path d="M3580 1549 c0 -11 5 -17 10 -14 6 3 10 13 10 21 0 8 -4 14 -10 14 -5
0 -10 -9 -10 -21z"></path>
<path d="M3846 1506 c-9 -22 -15 -44 -12 -50 5 -15 38 63 33 77 -2 7 -12 -6
-21 -27z"></path>
<path d="M2185 1473 c-3 -27 -9 -58 -12 -70 -3 -13 -1 -23 5 -23 5 0 12 20 15
45 4 25 9 56 13 70 3 14 2 25 -4 25 -5 0 -13 -21 -17 -47z"></path>
<path d="M3545 1399 c-22 -23 -109 -93 -192 -156 -84 -63 -155 -118 -157 -122
-7 -10 16 -52 35 -64 27 -17 64 0 171 80 132 98 248 209 248 238 0 21 -38 65
-56 65 -6 0 -28 -18 -49 -41z"></path>
<path d="M3970 1411 c0 -16 59 -63 76 -59 33 6 23 23 -26 45 -28 12 -50 18
-50 14z"></path>
<path d="M3786 1378 c-9 -12 -16 -26 -16 -31 0 -5 -13 -28 -30 -52 -16 -24
-30 -47 -30 -51 0 -11 81 107 91 133 11 29 5 29 -15 1z"></path>
<path d="M2970 1184 c-118 -98 -253 -172 -367 -202 -35 -9 -63 -20 -63 -24 0
-28 194 46 291 110 101 67 139 94 174 126 58 51 30 43 -35 -10z"></path>
<path d="M3085 1220 c3 -5 8 -10 11 -10 2 0 4 5 4 10 0 6 -5 10 -11 10 -5 0
-7 -4 -4 -10z"></path>
<path d="M3618 1156 c-71 -67 -135 -96 -209 -96 -22 0 -39 -4 -39 -10 0 -14
59 -12 113 4 45 13 139 79 186 130 48 51 15 33 -51 -28z"></path>
<path d="M2030 1191 c0 -11 67 -24 80 -16 6 4 8 11 5 16 -8 12 -85 12 -85 0z"></path>
<path d="M1785 1066 c-7 -70 2 -156 16 -156 5 0 9 50 9 110 0 121 -14 147 -25
46z"></path>
<path d="M2979 953 c-144 -148 -228 -264 -216 -298 7 -18 64 -48 77 -40 5 3
35 43 67 88 31 45 101 127 155 183 54 55 98 105 98 111 0 12 -53 63 -66 63 -6
0 -57 -48 -115 -107z"></path>
<path d="M1986 1029 c6 -10 106 -59 119 -59 3 0 5 11 5 24 0 20 -7 25 -57 35
-70 14 -76 14 -67 0z"></path>
<path d="M3581 1007 c-6 -14 -21 -33 -35 -42 -13 -9 -27 -24 -31 -33 -4 -11 2
-9 20 8 21 20 28 22 35 11 6 -10 12 -2 20 28 13 48 6 68 -9 28z"></path>
<path d="M4040 1010 c0 -5 5 -10 10 -10 6 0 10 5 10 10 0 6 -4 10 -10 10 -5 0
-10 -4 -10 -10z"></path>
<path d="M2210 950 c0 -5 9 -10 20 -10 11 0 20 5 20 10 0 6 -9 10 -20 10 -11
0 -20 -4 -20 -10z"></path>
<path d="M2480 950 c0 -5 9 -10 20 -10 11 0 20 5 20 10 0 6 -9 10 -20 10 -11
0 -20 -4 -20 -10z"></path>
<path d="M3800 950 c0 -5 5 -10 11 -10 5 0 7 5 4 10 -3 6 -8 10 -11 10 -2 0
-4 -4 -4 -10z"></path>
<path d="M2280 940 c0 -6 35 -10 85 -10 50 0 85 4 85 10 0 6 -35 10 -85 10
-50 0 -85 -4 -85 -10z"></path>
<path d="M3640 940 c0 -5 5 -10 10 -10 6 0 10 5 10 10 0 6 -4 10 -10 10 -5 0
-10 -4 -10 -10z"></path>
<path d="M3542 885 c-7 -15 -8 -26 -2 -30 8 -5 30 33 30 51 0 14 -18 0 -28
-21z"></path>
<path d="M3612 898 c-14 -14 -16 -38 -4 -38 10 0 42 33 42 43 0 11 -25 8 -38
-5z"></path>
<path d="M1800 865 c0 -14 5 -25 10 -25 6 0 10 11 10 25 0 14 -4 25 -10 25 -5
0 -10 -11 -10 -25z"></path>
<path d="M3457 838 c-45 -66 -334 -372 -356 -376 -9 -2 -27 -15 -42 -28 -16
-15 -56 -32 -109 -45 -46 -12 -103 -30 -126 -39 -23 -10 -45 -16 -48 -13 -11
11 -6 58 10 112 8 29 13 55 11 58 -3 2 -23 -1 -46 -8 -64 -19 -80 -43 -94
-144 l-13 -88 -62 -38 c-34 -21 -64 -33 -68 -28 -7 13 12 145 37 247 12 46 18
86 16 89 -15 14 -67 -231 -67 -312 0 -41 -3 -45 -69 -99 -50 -40 -72 -52 -78
-43 -20 32 -44 75 -59 109 -10 21 -21 35 -27 31 -6 -4 -22 -7 -36 -8 -35 -2
-223 47 -301 79 -35 14 -65 25 -66 23 -2 -2 66 -40 150 -85 152 -81 154 -83
161 -121 5 -33 2 -43 -19 -66 -27 -29 -33 -45 -16 -45 6 0 10 7 10 15 0 25 37
36 110 31 55 -4 78 -1 103 12 18 10 43 17 57 17 20 0 27 -7 34 -38 l10 -37
148 0 148 0 0 54 c0 58 10 76 84 154 43 45 67 57 42 20 -12 -16 -16 -47 -16
-109 0 -48 3 -94 6 -103 5 -13 25 -16 121 -16 106 0 115 1 108 18 -22 57 -37
141 -42 240 -6 108 -5 113 17 137 13 14 27 25 30 25 4 0 10 -24 14 -52 10 -79
54 -234 86 -305 l29 -63 276 0 277 0 -26 31 c-14 17 -70 68 -124 114 -98 83
-99 85 -125 162 -33 102 -57 219 -57 283 0 28 -5 82 -12 121 -8 52 -8 76 0 94
15 33 36 33 28 0 -4 -14 -2 -25 4 -25 5 0 11 6 11 13 4 38 7 97 5 97 -2 0 -19
-24 -39 -52z m-1287 -648 c0 -5 -4 -10 -10 -10 -5 0 -10 5 -10 10 0 6 5 10 10
10 6 0 10 -4 10 -10z m109 -13 c28 -30 62 -97 55 -108 -9 -15 -98 -10 -122 7
-17 11 -22 25 -22 58 0 23 5 47 12 54 19 19 53 14 77 -11z"></path>
<path d="M6737 813 c-4 -3 -7 -11 -7 -17 0 -6 5 -5 12 2 6 6 9 14 7 17 -3 3
-9 2 -12 -2z"></path>
<path d="M6595 628 c-60 -77 -156 -190 -213 -250 -57 -61 -114 -128 -128 -150
-29 -46 -80 -113 -138 -182 -22 -27 -34 -47 -26 -44 16 5 78 80 136 166 54 78
71 88 165 95 45 4 84 9 87 12 13 12 -8 13 -81 3 -43 -5 -81 -7 -85 -4 -3 4 30
44 74 89 45 45 104 112 133 149 28 37 57 65 64 62 7 -2 27 22 46 58 19 35 46
78 59 96 14 18 23 34 21 36 -2 2 -53 -59 -114 -136z"></path>
<path d="M6060 710 c0 -9 51 -40 66 -40 4 0 -3 11 -16 25 -24 25 -50 33 -50
15z"></path>
<path d="M6830 635 c0 -14 5 -25 10 -25 6 0 10 11 10 25 0 14 -4 25 -10 25 -5
0 -10 -11 -10 -25z"></path>
<path d="M2597 634 c-4 -4 -7 -14 -7 -23 0 -11 3 -12 11 -4 6 6 10 16 7 23 -2
6 -7 8 -11 4z"></path>
<path d="M1816 608 c-9 -12 -16 -37 -16 -54 0 -30 4 -33 173 -114 94 -45 195
-91 222 -100 46 -17 51 -22 59 -59 5 -23 13 -41 17 -41 11 0 12 -2 -5 56 -8
27 -20 77 -27 112 -6 34 -17 62 -23 61 -15 -3 -25 2 -205 88 -85 40 -160 73
-167 73 -7 0 -20 -10 -28 -22z"></path>
<path d="M2577 584 c-4 -4 -7 -14 -7 -23 0 -11 3 -12 11 -4 6 6 10 16 7 23 -2
6 -7 8 -11 4z"></path>
<path d="M6820 545 c0 -8 5 -15 10 -15 6 0 10 7 10 15 0 8 -4 15 -10 15 -5 0
-10 -7 -10 -15z"></path>
<path d="M6553 508 c-10 -13 -47 -105 -58 -145 -3 -13 -2 -23 3 -23 6 0 20 28
32 63 41 116 44 132 23 105z"></path>
<path d="M6810 460 c0 -5 5 -10 10 -10 6 0 10 5 10 10 0 6 -4 10 -10 10 -5 0
-10 -4 -10 -10z"></path>
<path d="M1555 450 c3 -5 13 -10 21 -10 8 0 12 5 9 10 -3 6 -13 10 -21 10 -8
0 -12 -4 -9 -10z"></path>
<path d="M1615 426 c11 -8 27 -16 35 -16 20 0 1 16 -30 25 -24 7 -24 7 -5 -9z"></path>
<path d="M6805 409 c-8 -24 3 -39 14 -20 5 8 14 10 21 6 9 -6 9 -3 1 14 -15
27 -28 27 -36 0z"></path>
<path d="M1677 390 c3 -10 -2 -50 -11 -89 -19 -81 -19 -84 -7 -77 5 3 15 35
22 71 17 87 25 92 89 59 28 -14 53 -24 56 -22 4 5 -50 33 -122 64 -30 12 -32
12 -27 -6z"></path>
<path d="M4097 305 c-8 -77 -41 -257 -53 -289 -3 -9 -2 -16 3 -16 21 0 66 238
61 325 l-3 60 -8 -80z"></path>
<path d="M6622 342 c-60 -9 -91 -18 -89 -26 2 -6 14 -10 26 -8 42 4 16 -22
-67 -68 -111 -62 -260 -155 -302 -190 -58 -47 -29 -43 46 7 109 74 311 194
407 243 48 25 87 48 87 53 0 4 -3 6 -7 6 -5 -1 -50 -8 -101 -17z"></path>
<path d="M6861 330 c-1 -19 -10 -100 -21 -180 -17 -130 -18 -162 -6 -149 11
11 44 323 36 342 -7 19 -9 17 -9 -13z"></path>
<path d="M1710 250 c0 -10 46 -32 205 -95 l100 -40 3 -57 c4 -70 22 -78 22
-10 0 29 -7 56 -18 69 -10 14 -63 41 -127 67 -61 24 -127 51 -147 60 -21 9
-38 12 -38 6z"></path>
<path d="M3682 202 c4 -19 68 -31 68 -13 0 6 -1 11 -3 11 -1 0 -17 4 -35 9
-29 9 -33 8 -30 -7z"></path>
<path d="M2330 10 c0 -5 5 -10 10 -10 6 0 10 5 10 10 0 6 -4 10 -10 10 -5 0
-10 -4 -10 -10z"></path>
<path d="M2415 10 c-3 -5 -1 -10 4 -10 6 0 11 5 11 10 0 6 -2 10 -4 10 -3 0
-8 -4 -11 -10z"></path>
</g>
</svg>