 <svg version="1.0" xmlns="http://www.w3.org/2000/svg" width="700.000000pt" height="408.000000pt" viewBox="0 0 700.000000 408.000000" preserveAspectRatio="xMidYMid meet">
<metadata>
Created by potrace 1.12, written by Peter Selinger 2001-2015
</metadata>
<g transform="translate(0.000000,408.000000) scale(0.100000,-0.100000)" fill="#000000" stroke="none">
<path d="M0 2040 l0 -2040 3500 0 3500 0 0 171 c0 158 -1 170 -17 165 -59 -17
-199 -36 -225 -31 -31 7 -30 8 43 46 112 59 199 121 199 142 0 14 -13 9 -64
-28 -67 -48 -225 -129 -311 -161 -43 -16 -85 -19 -285 -21 -129 -1 -278 -8
-330 -15 -181 -24 -342 -13 -435 32 -78 37 -213 80 -295 94 -19 3 -111 10
-205 16 -357 21 -454 36 -586 90 -79 32 -89 34 -89 22 0 -11 72 -46 147 -71
97 -33 216 -49 430 -61 312 -17 403 -34 565 -106 42 -19 100 -39 130 -44 29
-5 71 -12 93 -16 l40 -7 -60 -19 c-141 -45 -182 -48 -694 -48 -460 0 -489 -1
-504 -18 -10 -10 -17 -24 -17 -30 0 -9 -311 -12 -1290 -12 -709 0 -1290 2
-1290 5 0 8 111 56 165 71 101 28 259 13 347 -32 29 -15 45 -15 40 -1 -1 5 8
22 22 38 13 15 27 43 31 61 11 52 23 61 74 53 93 -13 140 -35 207 -97 36 -34
68 -58 72 -53 4 4 -23 35 -59 70 -77 73 -138 98 -239 99 l-64 1 -7 -46 c-8
-51 -35 -102 -53 -96 -6 2 -13 26 -16 53 -7 64 -14 74 -54 74 -21 0 -40 8 -52
21 -10 12 -38 32 -62 46 -38 22 -51 25 -108 20 -65 -5 -159 -42 -184 -72 -22
-27 -4 -27 35 0 42 28 123 55 167 55 38 0 85 -21 132 -59 21 -17 46 -31 56
-31 24 0 50 -32 50 -63 0 -37 -12 -40 -76 -21 -42 12 -82 15 -153 12 -85 -4
-101 -2 -141 17 -25 13 -60 26 -79 30 -19 4 -66 22 -104 41 -38 18 -89 36
-113 40 -49 7 -54 16 -22 38 16 11 46 16 103 16 75 0 85 2 135 35 33 21 68 35
88 35 40 0 41 -14 2 -30 -44 -18 -107 -66 -120 -91 -19 -34 -3 -34 26 0 36 43
97 77 166 92 86 18 74 35 -37 49 -65 8 -94 -1 -148 -46 -25 -21 -39 -24 -119
-24 l-91 0 -34 -37 c-33 -34 -35 -40 -31 -91 l5 -54 -33 5 c-37 6 -107 54 -99
68 3 4 -101 115 -232 245 -131 131 -261 269 -288 308 -38 53 -58 72 -77 74
-57 7 -59 -71 -3 -157 13 -20 37 -70 54 -112 23 -55 53 -101 107 -165 42 -49
84 -105 94 -125 24 -45 78 -94 159 -143 34 -21 59 -41 54 -45 -4 -3 -14 -17
-22 -30 -12 -22 -11 -26 5 -38 15 -11 -21 -13 -219 -12 -234 0 -236 0 -243 22
-3 12 -25 41 -47 64 -66 69 -20 71 57 3 20 -18 36 -28 36 -22 0 11 -41 55 -85
92 -57 47 -110 123 -165 234 -45 90 -63 117 -100 145 -25 18 -46 37 -48 42 -2
5 19 9 47 9 37 0 51 4 51 14 0 25 -23 36 -44 20 -35 -25 -58 -15 -127 51 -37
36 -74 65 -83 65 -27 0 -88 35 -149 85 -55 44 -57 48 -51 83 5 32 1 42 -28 76
-51 59 -69 41 -19 -19 53 -64 39 -86 -19 -30 -37 36 -40 43 -40 93 0 62 -13
92 -40 92 -28 0 -50 11 -50 25 0 7 -7 18 -15 25 -27 23 -16 -8 16 -45 24 -27
29 -39 21 -47 -9 -9 -18 -6 -37 12 l-25 23 0 1404 0 1403 210 0 c115 0 210 -3
210 -7 0 -5 -9 -19 -20 -33 -28 -35 -25 -103 8 -232 15 -59 31 -110 34 -113 4
-5 70 5 204 31 15 2 31 24 53 70 20 41 39 68 52 71 11 3 49 49 86 105 36 55
71 102 77 104 6 2 206 3 443 2 l432 -3 -34 -44 c-19 -24 -35 -49 -35 -55 1 -6
34 -46 74 -89 l74 -78 41 17 c22 9 47 14 55 11 30 -12 132 11 172 38 21 15 49
31 61 36 12 4 32 27 43 49 l21 41 -20 35 c-12 19 -21 37 -21 40 0 2 898 4
1995 4 l1994 0 3 -87 3 -88 55 -8 c75 -11 181 -9 197 5 8 6 11 19 7 30 -4 13
5 33 28 62 30 40 36 43 68 39 71 -11 61 -40 -27 -79 -29 -12 -53 -25 -53 -28
0 -5 22 3 118 41 7 3 19 21 27 39 8 19 21 34 29 34 8 0 20 9 26 20 10 19 21
20 150 20 l140 0 0 35 0 35 -3500 0 -3500 0 0 -2040z m900 1957 c0 -20 -101
-167 -115 -167 -13 0 -35 50 -35 80 0 9 22 31 50 49 27 18 52 36 55 42 9 14
45 11 45 -4z m5728 6 c-10 -2 -26 -2 -35 0 -10 3 -2 5 17 5 19 0 27 -2 18 -5z
m72 -3 c0 -5 -7 -10 -15 -10 -8 0 -15 5 -15 10 0 6 7 10 15 10 8 0 15 -4 15
-10z m-5951 -161 c1 -13 -5 -38 -15 -56 -18 -35 -39 -45 -30 -15 2 9 8 36 11
60 7 46 27 53 34 11z m-77 -137 c8 -8 8 -15 2 -21 -12 -13 -174 -40 -174 -30
0 4 12 22 27 39 25 30 30 32 80 28 30 -3 59 -10 65 -16z m-622 -2557 c0 -7 -7
-18 -15 -25 -13 -11 -15 -7 -15 25 0 32 2 36 15 25 8 -7 15 -18 15 -25z m80
-66 c0 -49 -4 -89 -9 -89 -5 0 -11 4 -13 8 -1 4 -20 21 -41 36 -20 16 -37 35
-37 42 0 19 80 105 91 98 5 -3 9 -45 9 -95z m102 -286 c56 -63 139 -143 184
-179 58 -46 97 -87 130 -137 88 -132 147 -199 214 -244 36 -24 93 -66 128 -94
l63 -49 -38 0 c-29 0 -51 10 -92 40 -29 22 -59 40 -65 40 -19 0 -126 72 -164
109 -18 19 -51 61 -74 94 -23 33 -65 86 -94 118 -29 31 -57 66 -63 77 -6 11
-50 44 -97 73 -95 57 -228 175 -220 195 3 7 17 31 31 54 31 50 20 56 157 -97z
m803 31 c28 -39 148 -168 268 -287 119 -120 217 -221 217 -226 0 -13 237 -211
244 -204 3 4 6 2 6 -4 0 -15 -28 -21 -81 -18 -34 2 -52 10 -78 34 -19 18 -75
53 -124 77 -142 71 -189 107 -243 191 -18 29 -61 85 -95 125 -56 66 -109 159
-109 191 0 7 -16 36 -36 66 -38 57 -59 138 -33 129 8 -3 37 -36 64 -74z m-859
-421 c-6 -7 -100 64 -135 101 -16 17 -21 31 -17 43 6 15 20 5 82 -60 42 -44
73 -81 70 -84z m6217 -173 c-42 -15 -86 -19 -225 -20 -95 -1 -200 2 -233 8
l-60 9 50 2 c28 1 68 6 90 10 22 5 128 9 235 9 l195 1 -52 -19z"></path>
<path d="M252 3963 c-5 -10 -13 -47 -16 -82 -4 -35 -21 -103 -37 -150 -60
-171 -62 -185 -53 -321 4 -69 6 -178 5 -243 -3 -104 0 -127 25 -207 15 -50 31
-90 36 -90 11 0 12 -5 -16 87 -21 71 -24 103 -26 264 -4 378 -6 346 28 434 37
95 58 177 67 263 6 63 3 75 -13 45z"></path>
<path d="M70 3906 c0 -58 14 -125 24 -115 8 8 -7 179 -15 179 -5 0 -9 -29 -9
-64z"></path>
<path d="M140 3923 c0 -27 -5 -66 -10 -88 -10 -42 -6 -55 11 -38 16 16 25 173
10 173 -7 0 -11 -19 -11 -47z"></path>
<path d="M348 3960 c-5 -13 -28 -143 -59 -335 -4 -27 -8 -108 -8 -180 -1 -71
-6 -184 -13 -250 -8 -85 -8 -145 -1 -205 12 -108 55 -300 67 -300 10 0 1 68
-26 180 -35 147 -21 621 26 889 24 136 31 244 14 201z"></path>
<path d="M6753 3934 c16 -54 98 -268 107 -279 14 -17 110 -76 110 -67 0 14
-97 277 -114 310 -9 17 -21 32 -27 32 -6 0 -9 -3 -7 -7 57 -117 106 -258 94
-270 -16 -16 -56 50 -101 165 -27 68 -53 126 -58 129 -6 4 -8 -2 -4 -13z"></path>
<path d="M6960 3933 c1 -18 29 -126 34 -131 10 -10 6 46 -6 93 -7 25 -16 45
-20 45 -4 0 -8 -3 -8 -7z"></path>
<path d="M920 3870 c0 -5 5 -10 10 -10 6 0 10 5 10 10 0 6 -4 10 -10 10 -5 0
-10 -4 -10 -10z"></path>
<path d="M6565 3830 c13 -21 180 -140 197 -140 28 0 21 17 -12 28 -16 6 -61
36 -98 66 -62 50 -103 72 -87 46z"></path>
<path d="M6456 3781 c-8 -12 137 -111 162 -111 11 0 25 -6 31 -14 13 -15 54
-29 46 -16 -3 5 -18 15 -33 23 -87 46 -130 72 -163 98 -21 16 -40 25 -43 20z"></path>
<path d="M1074 3700 c3 -14 11 -53 18 -87 11 -60 22 -77 30 -51 2 6 10 8 16 4
9 -5 12 -30 10 -76 -2 -40 2 -74 8 -80 7 -7 10 4 10 39 -1 27 2 53 7 57 4 4
33 -18 65 -49 62 -62 92 -86 106 -87 15 0 -25 39 -46 46 -10 3 -46 40 -79 82
-34 42 -67 81 -75 85 -9 5 -14 25 -14 53 0 33 -4 46 -17 51 -10 4 -24 14 -31
22 -12 14 -13 13 -8 -9z"></path>
<path d="M740 3690 c0 -17 78 -96 86 -88 4 4 -11 28 -32 52 -40 45 -54 54 -54
36z"></path>
<path d="M6187 3684 c3 -10 16 -32 28 -49 12 -16 25 -39 30 -50 4 -12 9 -15
12 -8 2 7 -7 28 -21 46 -14 19 -26 39 -26 44 0 6 -7 16 -15 23 -13 11 -14 10
-8 -6z"></path>
<path d="M935 3643 c7 -30 13 -39 19 -32 8 8 -6 59 -16 59 -6 0 -7 -11 -3 -27z"></path>
<path d="M6617 3630 c7 -27 120 -132 178 -165 28 -16 83 -60 123 -98 40 -38
76 -67 79 -63 12 12 -101 118 -182 171 -45 29 -108 80 -142 114 -35 35 -59 53
-56 41z"></path>
<path d="M6770 3603 c0 -15 75 -95 116 -122 60 -41 65 -39 15 8 -27 25 -41 47
-41 64 0 21 -8 28 -45 40 -25 9 -45 13 -45 10z"></path>
<path d="M3745 3571 c-3 -6 -3 -28 1 -50 7 -42 -9 -59 -20 -23 -10 30 -53 65
-71 58 -9 -3 -13 -10 -10 -16 4 -6 10 -8 15 -5 5 3 18 -9 30 -26 20 -27 21
-34 10 -55 -15 -28 -32 -31 -50 -9 -16 20 -40 19 -40 -1 0 -8 4 -13 8 -10 13
8 52 -23 52 -40 0 -20 -10 -18 -37 8 -13 12 -23 16 -23 10 0 -6 13 -21 29 -33
17 -12 63 -72 103 -133 40 -61 87 -130 104 -153 18 -23 34 -48 37 -55 3 -9 13
-6 33 13 16 14 38 30 49 34 13 4 15 9 8 12 -7 3 -25 -5 -39 -16 -15 -12 -33
-21 -40 -21 -8 0 -30 25 -50 56 -20 31 -54 80 -75 108 -46 60 -48 80 -12 118
15 15 22 28 15 28 -6 0 -19 -11 -28 -25 -20 -31 -40 -32 -48 -2 -15 57 -1 97
35 97 23 0 101 -71 152 -139 54 -70 113 -172 109 -188 -2 -8 8 -13 28 -13 25
0 33 -6 47 -35 13 -28 14 -39 5 -61 -10 -21 -9 -34 4 -72 23 -65 25 -415 3
-482 -16 -48 -21 -50 -86 -35 -20 5 -33 4 -33 -2 0 -5 25 -15 55 -22 31 -7 59
-20 64 -29 5 -9 13 -14 17 -10 7 8 69 -32 151 -99 47 -38 54 -41 48 -21 -15
49 -35 89 -65 133 -22 32 -28 50 -22 61 7 13 14 10 42 -23 27 -31 30 -32 15
-8 -10 17 -26 39 -36 51 -17 18 -19 38 -19 175 0 123 -4 170 -21 234 -23 88
-23 97 -13 138 9 37 -13 85 -48 107 -15 9 -51 50 -80 91 -80 115 -155 205
-197 239 -30 24 -40 40 -44 71 -7 54 -45 97 -62 70z"></path>
<path d="M6260 3546 c0 -9 5 -16 10 -16 6 0 10 4 10 9 0 6 -4 13 -10 16 -5 3
-10 -1 -10 -9z"></path>
<path d="M980 3525 c5 -13 21 -42 36 -64 19 -29 25 -48 20 -66 -8 -33 7 -32
22 1 13 28 14 26 -41 102 -43 58 -51 64 -37 27z"></path>
<path d="M6910 3542 c0 -12 52 -84 74 -101 29 -24 16 44 -16 79 -25 28 -58 40
-58 22z"></path>
<path d="M6090 3525 c0 -8 7 -15 16 -15 14 0 14 3 4 15 -7 8 -14 15 -16 15 -2
0 -4 -7 -4 -15z"></path>
<path d="M3650 3507 c0 -8 7 -20 15 -27 12 -10 15 -10 15 3 0 8 -7 20 -15 27
-12 10 -15 10 -15 -3z"></path>
<path d="M5085 3458 c-76 -69 -215 -249 -215 -278 0 -6 11 -15 23 -21 20 -9
35 -5 86 21 35 17 81 44 103 61 23 16 50 29 60 29 11 0 28 4 38 10 21 11 75
144 65 160 -9 14 -85 70 -96 70 -4 0 -33 -23 -64 -52z"></path>
<path d="M380 3475 c-9 -10 -14 -75 -16 -212 -4 -177 -2 -206 16 -273 12 -41
25 -104 31 -140 14 -92 34 -152 83 -251 62 -124 176 -274 176 -230 0 4 -17 30
-37 57 -100 130 -193 325 -193 402 0 21 -12 76 -27 123 -26 81 -27 92 -26 291
1 129 6 214 13 227 12 24 -2 28 -20 6z"></path>
<path d="M430 3411 c0 -101 37 -401 56 -458 24 -70 224 -473 235 -473 5 0 9 3
9 8 0 4 -45 98 -100 209 -54 110 -108 228 -120 262 -21 64 -60 361 -60 462 0
33 -4 59 -10 59 -6 0 -10 -30 -10 -69z"></path>
<path d="M6280 3380 c0 -11 5 -20 10 -20 6 0 10 9 10 20 0 11 -4 20 -10 20 -5
0 -10 -9 -10 -20z"></path>
<path d="M4594 3355 c-3 -8 -7 -29 -8 -47 -1 -27 4 -34 27 -42 37 -13 81 3 85
31 7 47 -88 100 -104 58z m81 -24 c3 -5 1 -12 -4 -15 -5 -3 -11 1 -15 9 -6 16
9 21 19 6z m-25 -45 c0 -3 -4 -8 -10 -11 -5 -3 -10 -1 -10 4 0 6 5 11 10 11 6
0 10 -2 10 -4z"></path>
<path d="M1051 3346 c-8 -10 -8 -21 -1 -41 9 -23 6 -38 -20 -93 -33 -71 -33
-72 -22 -72 5 0 22 30 40 68 23 48 31 79 29 109 -2 46 -8 51 -26 29z"></path>
<path d="M6290 3305 c0 -8 5 -15 10 -15 6 0 10 7 10 15 0 8 -4 15 -10 15 -5 0
-10 -7 -10 -15z"></path>
<path d="M1105 3248 c-34 -56 -37 -75 -6 -38 l30 35 33 -40 c43 -52 78 -85 91
-85 6 0 -9 19 -34 43 -24 23 -53 59 -64 80 -11 20 -22 37 -25 37 -3 0 -15 -15
-25 -32z"></path>
<path d="M910 3215 c0 -30 5 -55 10 -55 6 0 10 25 10 55 0 30 -4 55 -10 55 -5
0 -10 -25 -10 -55z"></path>
<path d="M6300 3250 c0 -5 5 -10 10 -10 6 0 10 5 10 10 0 6 -4 10 -10 10 -5 0
-10 -4 -10 -10z"></path>
<path d="M6310 3180 c0 -5 5 -10 10 -10 6 0 10 5 10 10 0 6 -4 10 -10 10 -5 0
-10 -4 -10 -10z"></path>
<path d="M1041 3128 c-13 -36 -22 -168 -12 -168 6 0 12 19 15 43 17 138 16
175 -3 125z"></path>
<path d="M6310 3115 c0 -19 5 -35 10 -35 6 0 10 16 10 35 0 19 -4 35 -10 35
-5 0 -10 -16 -10 -35z"></path>
<path d="M2280 3115 c-13 -13 -31 -27 -42 -31 -23 -7 -24 -45 0 -73 12 -15 30
-22 67 -24 l50 -2 3 44 c4 47 -21 111 -42 111 -7 0 -23 -11 -36 -25z m42 -42
c21 -19 23 -44 6 -61 -18 -18 -43 -15 -63 8 -17 18 -17 21 -1 45 19 29 33 31
58 8z"></path>
<path d="M1993 3123 c-19 -7 -15 -23 5 -23 32 0 55 -35 48 -71 -5 -27 -4 -30
9 -19 21 17 19 34 -10 80 -25 40 -29 43 -52 33z"></path>
<path d="M6794 3114 c3 -9 9 -27 12 -40 3 -13 11 -24 16 -24 6 0 7 7 4 16 -3
9 -9 27 -12 40 -3 13 -11 24 -16 24 -6 0 -7 -7 -4 -16z"></path>
<path d="M910 3092 c0 -15 5 -43 11 -62 6 -19 10 -74 10 -122 -1 -49 3 -88 8
-88 4 0 11 35 15 78 5 59 2 90 -9 122 -8 23 -15 55 -15 71 0 16 -4 29 -10 29
-5 0 -10 -12 -10 -28z"></path>
<path d="M1509 3090 c-26 -25 -30 -36 -28 -77 2 -29 -2 -48 -9 -51 -21 -7 -13
-20 10 -14 18 4 20 2 15 -18 l-6 -22 23 21 c13 12 35 21 55 21 39 0 81 38 81
75 0 87 -81 125 -141 65z m98 -12 c43 -40 18 -108 -39 -108 -65 0 -89 60 -43
105 30 31 52 31 82 3z"></path>
<path d="M1895 3078 c-41 -14 -115 -87 -115 -114 0 -30 -20 -84 -43 -118 -17
-25 -20 -44 -20 -124 1 -92 2 -96 28 -116 25 -18 32 -18 74 -7 88 23 104 39
122 119 9 39 21 77 26 84 6 7 14 35 17 61 4 26 14 63 21 81 15 36 12 46 -15
46 -38 0 -65 61 -38 88 15 15 -13 15 -57 0z"></path>
<path d="M960 3061 c0 -12 5 -21 10 -21 6 0 10 6 10 14 0 8 -4 18 -10 21 -5 3
-10 -3 -10 -14z"></path>
<path d="M2927 3072 c-10 -4 -24 -20 -32 -36 -18 -34 -18 -36 -5 -36 6 0 10 5
10 12 0 7 12 25 27 40 28 30 28 31 0 20z"></path>
<path d="M1250 3040 c0 -16 5 -30 10 -30 6 0 10 14 10 30 0 17 -4 30 -10 30
-5 0 -10 -13 -10 -30z"></path>
<path d="M3120 3031 c19 -17 44 -36 55 -42 18 -11 18 -10 -2 12 -12 13 -37 32
-55 43 l-33 19 35 -32z"></path>
<path d="M1310 3030 c0 -11 5 -20 10 -20 6 0 10 9 10 20 0 11 -4 20 -10 20 -5
0 -10 -9 -10 -20z"></path>
<path d="M6300 3020 c0 -11 5 -20 10 -20 6 0 10 9 10 20 0 11 -4 20 -10 20 -5
0 -10 -9 -10 -20z"></path>
<path d="M6824 3015 c3 -8 8 -37 12 -65 4 -28 11 -53 15 -56 5 -3 6 -16 3 -30
-3 -13 -2 -24 4 -24 5 0 9 -15 8 -32 -1 -23 3 -33 14 -33 17 0 25 29 14 53 -4
9 -6 22 -5 28 3 22 -50 174 -61 174 -5 0 -8 -7 -4 -15z"></path>
<path d="M1260 2970 c0 -11 5 -20 10 -20 6 0 10 9 10 20 0 11 -4 20 -10 20 -5
0 -10 -9 -10 -20z"></path>
<path d="M2924 2957 c-30 -34 -30 -36 -16 -69 8 -18 14 -39 13 -45 -1 -8 5
-10 14 -7 17 7 55 -21 55 -40 0 -6 -39 -41 -88 -78 -217 -165 -452 -440 -452
-528 0 -15 -2 -29 -6 -32 -3 -3 -28 7 -57 23 -58 32 -127 39 -147 14 -7 -8
-19 -15 -26 -15 -29 0 -12 -44 40 -98 29 -31 76 -93 104 -137 50 -78 170 -205
294 -309 51 -43 57 -51 51 -77 -3 -18 -1 -29 6 -29 6 0 11 9 11 20 0 25 11 25
38 3 18 -16 20 -24 12 -63 -4 -25 -6 -58 -2 -75 5 -27 4 -28 -11 -17 -13 11
-15 10 -10 -6 3 -12 -4 -24 -19 -34 -30 -20 -124 -42 -144 -34 -9 4 -22 2 -28
-3 -14 -11 -145 4 -211 25 -72 23 -215 96 -321 165 -50 32 -94 59 -99 59 -4 0
-23 11 -41 25 -38 29 -44 30 -44 10 0 -16 -9 -19 -34 -9 -9 3 -14 10 -11 14 3
5 1 12 -5 15 -18 11 -40 -16 -40 -50 0 -30 4 -34 54 -55 30 -12 90 -44 133
-71 108 -69 313 -172 403 -202 145 -49 288 -51 429 -6 88 28 108 20 146 -58
66 -133 220 -302 330 -359 94 -49 296 -89 415 -82 50 3 61 -1 121 -39 85 -54
250 -136 318 -158 74 -24 207 -17 276 14 174 80 428 336 520 525 65 133 86
230 92 421 4 132 2 191 -11 265 -22 126 -53 230 -77 256 -10 11 -19 32 -19 45
0 36 -7 39 -48 24 -28 -9 -36 -18 -35 -33 2 -13 -8 -29 -27 -42 -34 -24 -50
-19 -50 16 0 13 -4 24 -10 24 -5 0 -10 -7 -10 -16 0 -33 35 -184 42 -184 10 0
9 13 -1 67 -7 34 -5 45 9 58 25 23 50 19 50 -7 0 -13 16 -88 35 -168 38 -157
44 -237 21 -246 -19 -7 -63 17 -143 78 -35 27 -66 48 -71 48 -5 0 -33 13 -63
30 -30 16 -56 30 -59 30 -3 0 -4 -33 -2 -72 4 -80 -6 -83 -27 -8 -54 190 -203
412 -356 530 -42 32 -54 47 -50 61 8 23 -4 25 -19 4 -10 -14 -18 -13 -66 8
-218 96 -605 100 -768 6 -17 -10 -39 -16 -48 -12 -20 7 -143 -117 -196 -198
-94 -142 -147 -295 -149 -429 -1 -36 -4 -76 -8 -88 l-6 -24 -39 31 c-21 17
-43 31 -48 31 -18 0 -162 127 -263 231 -56 58 -113 128 -129 159 -16 30 -49
73 -73 96 -48 45 -53 66 -21 88 31 22 51 20 119 -10 65 -30 84 -27 100 13 61
158 218 341 447 523 50 39 93 77 96 85 9 25 -11 63 -42 79 -48 25 -58 43 -36
67 38 42 52 43 118 11 33 -17 99 -48 146 -70 143 -66 292 -191 401 -338 21
-29 39 -55 39 -57 0 -2 -26 -7 -59 -10 -108 -12 -295 -81 -361 -135 -43 -35
-16 -33 51 3 98 53 238 95 352 105 91 8 241 0 295 -16 22 -6 32 9 12 21 -6 4
-6 15 0 31 6 14 10 36 10 50 0 32 -36 32 -115 -2 -84 -36 -105 -40 -105 -20 0
20 -14 21 -30 1 -18 -22 -22 -19 -49 27 -33 58 -182 211 -268 275 -70 51 -182
113 -233 128 -14 4 -42 18 -62 32 -21 14 -57 28 -80 30 -39 4 -46 2 -74 -30z
m1923 -913 c-3 -3 -12 -4 -19 -1 -8 3 -5 6 6 6 11 1 17 -2 13 -5z m-2517 -730
c36 -12 85 -25 109 -29 24 -4 51 -15 61 -25 10 -10 31 -20 47 -23 19 -3 14 -4
-17 -5 -56 -2 -154 21 -240 55 -96 37 -105 43 -89 54 16 10 39 5 129 -27z"></path>
<path d="M4010 2970 c0 -5 5 -10 10 -10 6 0 10 5 10 10 0 6 -4 10 -10 10 -5 0
-10 -4 -10 -10z"></path>
<path d="M3952 2944 c-19 -13 -25 -14 -39 -2 -14 11 -14 8 1 -14 19 -29 36
-37 36 -16 0 6 7 20 17 30 20 22 15 23 -15 2z"></path>
<path d="M3280 2936 c0 -3 9 -10 20 -16 11 -6 20 -8 20 -6 0 3 -9 10 -20 16
-11 6 -20 8 -20 6z"></path>
<path d="M1270 2885 c0 -25 5 -45 10 -45 6 0 10 20 10 45 0 25 -4 45 -10 45
-5 0 -10 -20 -10 -45z"></path>
<path d="M2658 2906 c-10 -7 -18 -17 -18 -22 0 -4 5 -3 12 4 7 7 21 12 33 12
12 0 26 -5 33 -12 7 -7 12 -8 12 -2 0 31 -43 43 -72 20z"></path>
<path d="M6910 2901 c0 -5 6 -14 14 -20 12 -10 13 -8 9 8 -5 21 -23 30 -23 12z"></path>
<path d="M3375 2875 c69 -53 148 -106 151 -102 5 5 -126 100 -151 109 l-20 8
20 -15z"></path>
<path d="M3940 2860 c0 -11 5 -20 10 -20 6 0 10 9 10 20 0 11 -4 20 -10 20 -5
0 -10 -9 -10 -20z"></path>
<path d="M1000 2820 c0 -55 10 -63 30 -25 11 21 11 29 0 50 -20 38 -30 30 -30
-25z"></path>
<path d="M5950 2864 c1 -12 39 -61 40 -51 0 5 -9 20 -20 34 -11 14 -20 22 -20
17z"></path>
<path d="M6944 2839 c4 -13 12 -49 18 -79 14 -72 30 -112 35 -88 6 22 -36 176
-50 185 -7 4 -8 -2 -3 -18z"></path>
<path d="M2630 2842 c0 -10 22 -32 32 -32 5 0 3 9 -4 20 -13 20 -28 27 -28 12z"></path>
<path d="M2716 2834 c-4 -10 -1 -14 6 -12 15 5 23 28 10 28 -5 0 -13 -7 -16
-16z"></path>
<path d="M220 2831 c0 -8 57 -127 67 -140 2 -2 5 -2 8 1 5 5 -63 148 -71 148
-2 0 -4 -4 -4 -9z"></path>
<path d="M1520 2827 c-37 -19 -52 -57 -39 -97 9 -25 9 -34 -1 -40 -6 -4 -10
-18 -8 -31 4 -30 33 -32 33 -2 0 30 13 40 28 20 11 -15 16 -13 51 16 31 26 39
41 39 66 0 55 -56 92 -103 68z m75 -41 c19 -28 9 -58 -26 -76 -45 -25 -94 51
-57 88 21 21 66 14 83 -12z"></path>
<path d="M2890 2820 c-9 -6 -10 -10 -3 -10 6 0 15 5 18 10 8 12 4 12 -15 0z"></path>
<path d="M3950 2720 c0 -60 4 -100 10 -100 6 0 10 8 10 18 0 28 21 42 62 42
21 0 38 5 38 11 0 7 -18 10 -47 7 l-48 -3 -3 63 c-5 101 -22 72 -22 -38z"></path>
<path d="M960 2758 c0 -24 12 -74 25 -113 32 -91 32 -95 -10 -95 -36 0 -38 3
-49 50 -7 32 -104 106 -124 94 -7 -5 -21 -21 -30 -37 -20 -33 -9 -57 32 -68
30 -8 56 -27 56 -40 0 -5 -12 -14 -26 -19 -56 -22 -97 -64 -129 -135 -35 -76
-59 -142 -70 -190 l-7 -30 -19 24 c-25 31 -24 15 2 -28 16 -27 18 -36 7 -42
-17 -11 -26 -11 -33 1 -3 6 0 10 8 10 18 0 -46 125 -68 134 -8 3 -15 12 -15
21 0 18 50 21 50 3 1 -7 7 -26 15 -43 l13 -30 -5 40 c-9 60 -21 85 -41 85 -47
0 -54 -51 -20 -151 17 -50 33 -76 75 -116 55 -54 66 -85 36 -102 -24 -13 -6
-45 28 -49 13 -2 43 -21 67 -42 54 -48 117 -70 198 -70 l62 0 48 -77 c67 -107
103 -144 213 -221 56 -38 142 -112 206 -177 86 -86 126 -120 183 -149 41 -21
77 -35 80 -31 4 4 -2 12 -12 19 -103 61 -177 119 -246 196 -53 57 -114 111
-173 151 -51 34 -107 75 -126 93 -38 35 -141 189 -141 211 0 7 -7 15 -15 17
-10 2 1 16 31 41 64 51 92 48 34 -4 l-45 -40 36 17 c19 9 39 26 45 37 5 12 22
28 37 35 35 17 44 38 28 64 -18 29 -7 48 59 107 67 58 130 144 130 176 0 27
-18 45 -47 45 -16 0 -28 -11 -42 -37 -10 -21 -31 -49 -45 -62 l-26 -24 0 106
c0 73 -5 119 -15 145 -12 29 -13 45 -5 66 16 43 12 63 -20 99 -16 19 -30 42
-30 51 0 24 -25 30 -60 15 -41 -19 -42 -60 0 -91 34 -24 37 -39 14 -58 -12
-11 -18 -10 -34 6 -26 28 -70 158 -70 210 0 24 -4 44 -10 44 -5 0 -10 -19 -10
-42z m-127 -97 c-2 -17 2 -21 28 -21 25 0 32 -6 45 -36 19 -45 3 -70 -17 -28
-14 27 -27 37 -61 48 -12 4 -18 16 -18 37 0 20 4 29 13 26 6 -2 11 -14 10 -26z
m282 2 c0 -12 12 -31 28 -43 29 -23 37 -73 17 -110 -7 -13 -4 -30 10 -62 29
-64 24 -265 -8 -276 -9 -3 -11 15 -6 82 13 161 -26 221 -164 252 -46 10 -89
14 -115 10 -35 -6 -40 -5 -29 6 19 19 154 15 226 -7 49 -14 60 -15 67 -4 18
29 9 67 -21 92 -22 19 -30 34 -30 57 0 21 4 30 13 27 6 -2 12 -13 12 -24z
m220 -388 c0 -12 -8 -21 -20 -23 -11 -2 -47 -30 -80 -62 -85 -82 -112 -84 -34
-3 37 37 69 78 73 91 10 31 61 28 61 -3z m-185 -239 c0 -20 -29 -41 -40 -30
-6 6 -4 18 6 32 16 23 34 21 34 -2z m10 -76 c-20 -12 -33 -1 -19 16 9 11 15
12 23 4 8 -8 7 -13 -4 -20z m-190 -120 c0 -5 -5 -10 -11 -10 -5 0 -7 5 -4 10
3 6 8 10 11 10 2 0 4 -4 4 -10z"></path>
<path d="M1290 2786 c0 -8 5 -18 10 -21 6 -3 10 1 10 9 0 8 -4 18 -10 21 -5 3
-10 -1 -10 -9z"></path>
<path d="M2815 2765 c-16 -13 -26 -24 -21 -25 4 0 21 11 38 25 16 14 26 25 21
25 -4 0 -21 -11 -38 -25z"></path>
<path d="M6885 2749 c-4 -6 -5 -13 -2 -16 7 -7 27 6 27 18 0 12 -17 12 -25 -2z"></path>
<path d="M1010 2730 c0 -11 5 -20 10 -20 6 0 10 9 10 20 0 11 -4 20 -10 20 -5
0 -10 -9 -10 -20z"></path>
<path d="M3566 2729 c10 -11 28 -26 39 -31 14 -8 12 -2 -9 21 -33 34 -61 44
-30 10z"></path>
<path d="M2745 2710 c-3 -5 -2 -10 4 -10 5 0 13 5 16 10 3 6 2 10 -4 10 -5 0
-13 -4 -16 -10z"></path>
<path d="M1352 2664 c9 -20 9 -30 0 -45 -21 -33 -11 -39 22 -14 18 13 18 15
-4 49 -25 42 -35 47 -18 10z"></path>
<path d="M2624 2598 c-105 -110 -222 -268 -199 -268 3 0 17 19 32 43 35 54
119 154 202 240 36 37 61 67 55 67 -6 0 -47 -37 -90 -82z"></path>
<path d="M6860 2665 c0 -8 5 -15 10 -15 6 0 10 7 10 15 0 8 -4 15 -10 15 -5 0
-10 -7 -10 -15z"></path>
<path d="M3640 2664 c0 -6 16 -25 35 -44 19 -19 35 -29 35 -24 0 6 -16 25 -35
44 -19 19 -35 29 -35 24z"></path>
<path d="M6970 2595 c0 -25 4 -45 9 -45 11 0 24 67 16 80 -14 23 -25 7 -25
-35z"></path>
<path d="M3935 2579 c-4 -6 -5 -13 -2 -16 7 -7 27 6 27 18 0 12 -17 12 -25 -2z"></path>
<path d="M4832 2578 c-17 -17 -15 -59 4 -86 19 -27 29 -28 61 -2 14 11 36 20
49 20 34 0 30 14 -13 49 -39 32 -80 40 -101 19z"></path>
<path d="M3830 2570 c0 -5 7 -10 15 -10 8 0 15 5 15 10 0 6 -7 10 -15 10 -8 0
-15 -4 -15 -10z"></path>
<path d="M1340 2560 c0 -10 31 -26 65 -32 21 -4 28 11 16 31 -8 12 -12 13 -26
1 -12 -10 -19 -10 -27 -2 -15 15 -28 15 -28 2z"></path>
<path d="M3734 2554 c3 -9 6 -18 6 -20 0 -2 6 -4 14 -4 26 0 25 15 -1 27 -21
10 -24 10 -19 -3z"></path>
<path d="M5000 2515 c0 -2 11 -15 25 -29 29 -29 33 -80 9 -114 -8 -12 -11 -22
-5 -22 18 0 41 44 41 76 0 20 -10 44 -26 63 -23 27 -44 40 -44 26z"></path>
<path d="M6880 2490 c0 -5 5 -10 10 -10 6 0 10 5 10 10 0 6 -4 10 -10 10 -5 0
-10 -4 -10 -10z"></path>
<path d="M350 2455 c7 -9 15 -13 17 -11 7 7 -7 26 -19 26 -6 0 -6 -6 2 -15z"></path>
<path d="M6960 2435 c0 -19 5 -35 10 -35 6 0 10 16 10 35 0 19 -4 35 -10 35
-5 0 -10 -16 -10 -35z"></path>
<path d="M6870 2430 c0 -5 5 -10 10 -10 6 0 10 5 10 10 0 6 -4 10 -10 10 -5 0
-10 -4 -10 -10z"></path>
<path d="M4824 2415 c-10 -8 -14 -15 -8 -15 6 0 17 7 24 15 16 19 9 19 -16 0z"></path>
<path d="M6496 2409 c-9 -13 -16 -29 -16 -36 0 -31 93 -46 104 -17 4 12 1 14
-14 9 -17 -5 -20 -2 -20 21 0 26 0 27 20 9 11 -10 23 -15 27 -11 11 11 -20 35
-53 42 -26 5 -35 2 -48 -17z"></path>
<path d="M410 2391 c0 -5 5 -13 10 -16 6 -3 10 -2 10 4 0 5 -4 13 -10 16 -5 3
-10 2 -10 -4z"></path>
<path d="M4810 2347 c-7 -18 -17 -40 -21 -49 -14 -31 -2 -20 34 30 27 38 31
48 17 49 -9 1 -22 -12 -30 -30z"></path>
<path d="M6950 2370 c0 -5 5 -10 10 -10 6 0 10 5 10 10 0 6 -4 10 -10 10 -5 0
-10 -4 -10 -10z"></path>
<path d="M6860 2350 c0 -5 5 -10 10 -10 6 0 10 5 10 10 0 6 -4 10 -10 10 -5 0
-10 -4 -10 -10z"></path>
<path d="M4858 2298 c-19 -29 -38 -59 -42 -66 -5 -8 4 -17 28 -27 19 -8 37
-15 40 -15 2 0 12 22 21 49 17 51 47 87 64 77 9 -6 27 11 20 19 -2 2 -25 6
-50 10 l-46 7 -35 -54z"></path>
<path d="M6940 2330 c0 -5 5 -10 10 -10 6 0 10 5 10 10 0 6 -4 10 -10 10 -5 0
-10 -4 -10 -10z"></path>
<path d="M2220 2300 c-31 -33 -38 -50 -20 -50 6 0 10 7 10 15 0 29 47 48 102
42 37 -5 48 -3 41 4 -6 6 -32 14 -57 16 -42 5 -48 3 -76 -27z"></path>
<path d="M6140 2310 c0 -11 5 -20 10 -20 6 0 10 9 10 20 0 11 -4 20 -10 20 -5
0 -10 -9 -10 -20z"></path>
<path d="M2393 2306 c-13 -7 -20 -16 -16 -19 13 -13 31 -7 36 13 3 11 4 20 4
19 -1 -1 -12 -7 -24 -13z"></path>
<path d="M4458 2299 c-23 -13 -23 -37 -1 -61 15 -17 15 -19 -2 -38 -18 -20
-17 -20 22 -20 40 0 83 -30 83 -58 0 -17 -15 -15 -30 3 -7 8 -16 15 -20 15 -8
0 -43 -201 -35 -208 3 -3 17 -6 32 -6 28 -1 28 0 30 66 1 52 7 74 25 98 19 26
20 34 10 51 -9 14 -9 25 -2 39 17 31 12 55 -17 82 -24 22 -65 49 -75 48 -2 0
-11 -5 -20 -11z"></path>
<path d="M4310 2286 c0 -9 5 -16 10 -16 6 0 10 4 10 9 0 6 -4 13 -10 16 -5 3
-10 -1 -10 -9z"></path>
<path d="M6930 2290 c0 -5 5 -10 10 -10 6 0 10 5 10 10 0 6 -4 10 -10 10 -5 0
-10 -4 -10 -10z"></path>
<path d="M1640 2242 c0 -4 14 -16 30 -25 17 -10 30 -16 30 -14 0 2 -13 13 -30
25 -16 13 -30 19 -30 14z"></path>
<path d="M4320 2235 c0 -8 5 -15 10 -15 6 0 10 7 10 15 0 8 -4 15 -10 15 -5 0
-10 -7 -10 -15z"></path>
<path d="M6840 2230 c0 -5 5 -10 10 -10 6 0 10 5 10 10 0 6 -4 10 -10 10 -5 0
-10 -4 -10 -10z"></path>
<path d="M4320 2200 c0 -6 18 -37 40 -67 46 -65 55 -63 10 2 -16 24 -30 48
-30 54 0 5 -4 13 -10 16 -5 3 -10 1 -10 -5z"></path>
<path d="M6884 2150 c-16 -30 -31 -59 -33 -65 -2 -5 -10 -18 -19 -28 -8 -9
-13 -19 -10 -22 12 -12 102 137 95 158 -2 7 -17 -13 -33 -43z"></path>
<path d="M4726 2181 c-4 -7 -5 -15 -2 -18 9 -9 19 4 14 18 -4 11 -6 11 -12 0z"></path>
<path d="M6130 2135 c0 -8 5 -15 10 -15 6 0 10 7 10 15 0 8 -4 15 -10 15 -5 0
-10 -7 -10 -15z"></path>
<path d="M4445 2129 c-4 -6 -12 -8 -19 -6 -14 5 -17 -66 -3 -79 4 -4 7 -1 7 7
0 8 9 31 19 52 10 20 15 37 11 37 -5 0 -12 -5 -15 -11z"></path>
<path d="M6806 2116 c-3 -13 -9 -31 -12 -40 -3 -9 -2 -16 4 -16 5 0 13 11 16
24 3 13 9 31 12 40 3 9 2 16 -4 16 -5 0 -13 -11 -16 -24z"></path>
<path d="M4710 2110 c0 -11 5 -20 10 -20 6 0 10 9 10 20 0 11 -4 20 -10 20 -5
0 -10 -9 -10 -20z"></path>
<path d="M6120 2090 c0 -5 5 -10 10 -10 6 0 10 5 10 10 0 6 -4 10 -10 10 -5 0
-10 -4 -10 -10z"></path>
<path d="M6096 2021 c-4 -7 -5 -15 -2 -18 9 -9 19 4 14 18 -4 11 -6 11 -12 0z"></path>
<path d="M2250 1981 c0 -5 7 -14 15 -21 16 -14 18 -10 9 14 -6 17 -24 22 -24
7z"></path>
<path d="M6964 1980 c-31 -12 -39 -30 -21 -47 14 -14 15 -14 14 2 -1 10 4 20
11 22 9 3 12 -11 12 -51 0 -55 -19 -82 -21 -28 l-1 27 -10 -28 c-13 -37 -4
-57 27 -57 25 0 25 1 25 85 0 47 -3 85 -7 84 -5 0 -18 -4 -29 -9z"></path>
<path d="M6040 1960 c0 -5 5 -10 10 -10 6 0 10 5 10 10 0 6 -4 10 -10 10 -5 0
-10 -4 -10 -10z"></path>
<path d="M4618 1879 c6 -7 12 -26 12 -41 0 -15 5 -28 10 -28 6 0 10 9 10 20 0
24 3 24 41 4 37 -19 50 -12 17 10 -36 23 -105 50 -90 35z"></path>
<path d="M1110 1869 c0 -27 75 -116 209 -249 81 -80 174 -179 207 -221 68 -85
206 -217 212 -201 1 5 -32 45 -75 88 -43 44 -116 123 -163 178 -47 54 -126
136 -177 183 -51 46 -117 118 -148 159 -57 75 -65 83 -65 63z"></path>
<path d="M4490 1840 c0 -5 5 -10 10 -10 6 0 10 5 10 10 0 6 -4 10 -10 10 -5 0
-10 -4 -10 -10z"></path>
<path d="M4740 1818 c0 -8 7 -21 15 -28 19 -16 19 -1 0 24 -12 16 -15 17 -15
4z"></path>
<path d="M4640 1765 c0 -8 5 -15 10 -15 6 0 10 7 10 15 0 8 -4 15 -10 15 -5 0
-10 -7 -10 -15z"></path>
<path d="M820 1751 c0 -5 5 -13 10 -16 6 -3 10 -2 10 4 0 5 -4 13 -10 16 -5 3
-10 2 -10 -4z"></path>
<path d="M657 1723 c-11 -10 -8 -103 3 -103 6 0 10 25 10 55 0 56 -1 60 -13
48z"></path>
<path d="M697 1627 c-19 -61 -20 -67 -9 -67 4 0 13 19 19 43 7 23 15 50 18 60
4 9 3 17 -2 17 -5 0 -17 -24 -26 -53z"></path>
<path d="M1795 1660 c-4 -6 6 -10 22 -10 41 0 108 -28 303 -127 240 -122 269
-133 351 -133 97 0 86 17 -13 22 -78 4 -91 8 -210 66 -70 34 -164 82 -209 108
-122 69 -227 101 -244 74z"></path>
<path d="M5790 1600 c0 -27 5 -50 10 -50 6 0 10 23 10 50 0 28 -4 50 -10 50
-5 0 -10 -22 -10 -50z"></path>
<path d="M618 1532 c-49 -124 -77 -216 -83 -278 -7 -60 -8 -61 -26 -43 -23 23
-58 24 -85 5 -19 -14 -19 -15 1 -72 23 -63 50 -88 104 -98 l34 -6 -7 97 c-7
100 2 179 28 243 33 84 76 202 76 211 0 26 -18 1 -42 -59z"></path>
<path d="M5730 1554 c0 -8 5 -12 10 -9 6 3 10 10 10 16 0 5 -4 9 -10 9 -5 0
-10 -7 -10 -16z"></path>
<path d="M680 1518 c0 -13 -7 -52 -16 -88 -12 -47 -15 -81 -10 -122 10 -81 26
-73 19 10 -4 47 -1 83 11 121 18 62 21 101 6 101 -5 0 -10 -10 -10 -22z"></path>
<path d="M5680 1522 c0 -35 -72 -138 -143 -203 -40 -37 -69 -70 -64 -75 23
-24 180 123 219 206 15 30 22 57 17 58 -5 2 -9 10 -9 18 0 8 -4 14 -10 14 -5
0 -10 -8 -10 -18z"></path>
<path d="M2710 1495 c0 -8 5 -15 10 -15 6 0 10 7 10 15 0 8 -4 15 -10 15 -5 0
-10 -7 -10 -15z"></path>
<path d="M5790 1490 c0 -5 5 -10 10 -10 6 0 10 5 10 10 0 6 -4 10 -10 10 -5 0
-10 -4 -10 -10z"></path>
<path d="M2683 1447 c-40 -13 -44 -32 -5 -22 15 4 33 8 40 8 6 0 12 6 12 14 0
15 -2 15 -47 0z"></path>
<path d="M5771 1419 c-9 -29 -39 -69 -107 -139 -110 -115 -126 -146 -23 -45
95 94 184 225 151 225 -5 0 -14 -18 -21 -41z"></path>
<path d="M2610 1420 c0 -5 5 -10 10 -10 6 0 10 5 10 10 0 6 -4 10 -10 10 -5 0
-10 -4 -10 -10z"></path>
<path d="M2554 1409 c-3 -6 -1 -16 5 -22 9 -9 14 -8 21 3 5 8 10 18 10 23 0
11 -28 8 -36 -4z"></path>
<path d="M50 1310 c0 -8 11 -28 25 -45 18 -22 24 -26 25 -13 0 9 -11 30 -25
45 -16 19 -24 23 -25 13z"></path>
<path d="M6870 1229 c-65 -46 -229 -117 -355 -154 -49 -15 -108 -32 -130 -40
l-40 -13 32 -1 c38 -1 209 47 303 85 101 40 195 92 225 124 42 43 28 43 -35
-1z"></path>
<path d="M670 1180 c0 -27 5 -50 10 -50 6 0 10 23 10 50 0 28 -4 50 -10 50 -5
0 -10 -22 -10 -50z"></path>
<path d="M6929 1129 c-95 -71 -150 -96 -323 -149 -93 -28 -185 -60 -205 -70
-64 -32 -144 -51 -256 -60 -134 -10 -145 -14 -145 -50 0 -17 7 -31 18 -35 17
-7 246 -18 331 -17 30 1 78 18 160 55 96 45 129 56 191 61 41 4 98 13 127 20
63 17 173 76 173 93 0 18 -3 17 -60 -18 -68 -42 -126 -58 -238 -68 -85 -7
-102 -13 -199 -62 -95 -48 -113 -53 -167 -52 -34 0 -115 1 -181 2 -66 1 -127
6 -135 11 -28 17 5 29 95 35 128 8 199 23 285 61 63 27 170 62 355 115 56 16
245 141 245 161 0 15 -17 8 -71 -33z"></path>
<path d="M5505 1099 c-49 -50 -113 -96 -148 -105 -15 -3 -27 -10 -27 -15 0
-38 179 83 211 143 14 27 7 22 -36 -23z"></path>
<path d="M680 1063 c0 -5 9 -18 20 -28 11 -10 20 -14 20 -8 0 5 -9 18 -20 28
-11 10 -20 14 -20 8z"></path>
<path d="M6300 1010 c-18 -12 -2 -12 25 0 13 6 15 9 5 9 -8 0 -22 -4 -30 -9z"></path>
<path d="M622 960 c-14 -23 -15 -30 -4 -30 5 0 14 11 20 25 14 30 2 34 -16 5z"></path>
<path d="M6153 967 c-36 -14 -53 -27 -33 -27 24 0 90 23 90 32 0 11 -18 9 -57
-5z"></path>
<path d="M540 955 c0 -8 5 -15 10 -15 6 0 10 7 10 15 0 8 -4 15 -10 15 -5 0
-10 -7 -10 -15z"></path>
<path d="M5218 952 c-27 -8 -48 -20 -48 -25 0 -5 6 -7 14 -4 8 3 32 11 55 18
23 7 41 16 41 21 0 10 -5 10 -62 -10z"></path>
<path d="M6060 930 c0 -5 6 -10 14 -10 8 0 18 5 21 10 3 6 -3 10 -14 10 -12 0
-21 -4 -21 -10z"></path>
<path d="M656 908 c8 -28 12 -33 20 -25 9 8 -6 47 -17 47 -6 0 -7 -10 -3 -22z"></path>
<path d="M5130 920 c0 -5 5 -10 10 -10 6 0 10 5 10 10 0 6 -4 10 -10 10 -5 0
-10 -4 -10 -10z"></path>
<path d="M5945 919 c-22 -4 -61 -8 -87 -8 -29 -1 -48 -6 -48 -12 0 -17 155 -5
200 14 l35 15 -30 0 c-16 0 -48 -4 -70 -9z"></path>
<path d="M5090 910 c0 -5 5 -10 10 -10 6 0 10 5 10 10 0 6 -4 10 -10 10 -5 0
-10 -4 -10 -10z"></path>
<path d="M4920 900 c0 -5 9 -10 20 -10 11 0 20 5 20 10 0 6 -9 10 -20 10 -11
0 -20 -4 -20 -10z"></path>
<path d="M5020 900 c0 -5 9 -10 20 -10 11 0 20 5 20 10 0 6 -9 10 -20 10 -11
0 -20 -4 -20 -10z"></path>
<path d="M742 816 c3 -41 15 -71 49 -127 24 -41 46 -78 48 -84 2 -5 13 -23 24
-38 23 -33 37 -28 15 5 -9 13 -38 67 -67 120 -37 71 -51 109 -51 138 0 23 -5
40 -11 40 -8 0 -10 -18 -7 -54z"></path>
<path d="M670 840 c0 -11 5 -20 10 -20 6 0 10 9 10 20 0 11 -4 20 -10 20 -5 0
-10 -9 -10 -20z"></path>
<path d="M2790 792 c0 -5 11 -13 25 -16 26 -7 103 -51 170 -99 117 -82 184
-119 283 -151 59 -20 150 -59 202 -86 217 -115 433 -196 600 -224 217 -37 225
-37 204 -16 -5 5 -59 17 -119 25 -121 18 -363 88 -477 138 -40 18 -121 58
-179 89 -59 32 -157 74 -218 94 -89 29 -131 49 -204 100 -51 35 -121 82 -157
104 -67 40 -130 61 -130 42z"></path>
<path d="M2760 763 c0 -4 34 -37 75 -73 41 -36 75 -68 75 -71 0 -18 61 -69 81
-69 22 0 21 2 -12 36 -40 42 -196 178 -210 182 -5 2 -9 0 -9 -5z"></path>
<path d="M2019 630 c-64 -16 -119 -51 -166 -105 -25 -29 -55 -56 -66 -59 -12
-3 -18 -8 -15 -11 13 -14 59 9 77 39 30 48 91 92 151 110 79 23 215 21 282 -5
79 -30 159 -89 198 -147 36 -53 50 -63 50 -37 0 30 -132 150 -204 186 -64 31
-79 34 -170 36 -56 1 -117 -2 -137 -7z"></path>
<path d="M4530 583 c0 -12 56 -23 113 -23 20 0 37 5 37 10 0 6 -20 10 -44 10
-24 0 -58 3 -75 6 -18 4 -31 2 -31 -3z"></path>
<path d="M6945 551 c-27 -10 -78 -30 -112 -44 -152 -62 -265 -85 -503 -102
-133 -9 -182 -17 -174 -25 13 -12 348 7 434 25 90 19 216 58 285 89 28 13 67
29 88 35 20 7 37 19 37 27 0 8 -1 14 -2 14 -2 -1 -25 -9 -53 -19z"></path>
<path d="M2980 522 c0 -4 35 -24 78 -44 187 -88 312 -150 385 -191 92 -52 155
-74 252 -88 38 -5 104 -22 145 -36 70 -25 87 -27 247 -27 133 -1 175 2 185 13
11 11 -3 13 -92 8 -130 -7 -253 7 -346 39 -39 13 -105 28 -147 34 -89 11 -172
43 -271 103 -78 48 -173 95 -314 156 -92 41 -122 49 -122 33z"></path>
<path d="M4810 520 c0 -5 5 -10 10 -10 6 0 10 5 10 10 0 6 -4 10 -10 10 -5 0
-10 -4 -10 -10z"></path>
<path d="M4867 523 c-14 -13 -6 -23 18 -23 16 0 25 6 25 15 0 15 -31 21 -43 8z"></path>
<path d="M5060 513 c0 -5 42 -17 93 -26 104 -19 137 -21 137 -9 0 5 -39 14
-87 21 -49 6 -100 14 -115 18 -16 3 -28 1 -28 -4z"></path>
<path d="M4940 500 c0 -5 9 -10 20 -10 11 0 20 5 20 10 0 6 -9 10 -20 10 -11
0 -20 -4 -20 -10z"></path>
<path d="M5310 471 c0 -4 28 -13 63 -19 34 -7 125 -25 202 -42 154 -34 345
-51 345 -32 0 8 -22 12 -62 12 -75 0 -196 19 -378 60 -144 32 -170 35 -170 21z"></path>
<path d="M1704 421 c-17 -10 -34 -29 -37 -41 -5 -19 1 -17 34 16 52 51 53 55
3 25z"></path>
<path d="M2580 422 c0 -5 24 -14 53 -21 142 -36 268 -124 328 -229 13 -23 28
-42 33 -42 12 0 1 24 -40 86 -59 89 -132 139 -271 186 -90 30 -103 33 -103 20z"></path>
<path d="M5940 390 c0 -6 40 -10 100 -10 60 0 100 4 100 10 0 6 -40 10 -100
10 -60 0 -100 -4 -100 -10z"></path>
<path d="M1635 330 c-15 -16 -16 -23 -6 -33 14 -14 31 5 31 36 0 22 -3 21 -25
-3z"></path>
<path d="M1090 316 c0 -7 97 -79 128 -95 48 -26 32 -1 -25 37 -65 44 -103 65
-103 58z"></path>
<path d="M1185 109 c-20 -5 -9 -6 30 -2 33 3 62 7 64 9 8 7 -63 2 -94 -7z"></path>
</g>
</svg>