 <svg version="1.0" xmlns="http://www.w3.org/2000/svg" width="700.000000pt" height="458.000000pt" viewBox="0 0 700.000000 458.000000" preserveAspectRatio="xMidYMid meet">
<metadata>
Created by potrace 1.12, written by Peter Selinger 2001-2015
</metadata>
<g transform="translate(0.000000,458.000000) scale(0.100000,-0.100000)" fill="#000000" stroke="none">
<path d="M0 3922 l0 -658 43 -11 c71 -20 207 -149 207 -196 0 -17 24 -40 33
-31 3 3 3 12 0 20 -10 28 45 68 147 104 25 10 61 24 80 33 65 31 308 93 392
101 35 3 56 3 48 0 -8 -3 -24 -9 -35 -14 -11 -4 -40 -13 -65 -20 -25 -7 -85
-34 -134 -59 -72 -37 -103 -62 -170 -131 -130 -137 -196 -298 -196 -474 1
-153 31 -229 130 -328 53 -53 88 -77 152 -107 46 -21 94 -41 108 -44 14 -3 43
-10 65 -16 61 -16 244 -25 302 -14 41 8 55 7 63 -3 9 -9 -24 -40 -137 -131
-193 -154 -276 -215 -340 -248 -28 -14 -53 -30 -55 -33 -4 -9 -65 -52 -73 -52
-3 0 -31 -26 -63 -58 -51 -52 -112 -102 -125 -102 -2 0 -27 46 -55 103 -77
158 -189 389 -253 525 -32 67 -60 122 -63 122 -4 0 -6 -296 -6 -658 l0 -659
173 35 c162 32 177 34 218 21 55 -18 95 -72 109 -149 6 -30 17 -77 24 -105 20
-70 50 -234 75 -410 12 -82 26 -169 31 -193 6 -23 10 -51 10 -62 0 -19 7 -20
151 -20 l151 0 -6 28 c-10 54 -16 140 -22 317 -3 99 -6 191 -7 204 -2 18 9 33
43 58 84 61 125 89 155 103 17 8 48 26 70 41 22 14 74 44 115 66 103 55 150
82 182 104 14 11 31 19 37 19 6 0 11 5 11 10 0 15 -23 12 -49 -7 -35 -24 -114
-63 -129 -63 -11 0 -56 -25 -157 -85 -18 -11 -64 -38 -102 -59 -37 -22 -90
-55 -117 -74 -27 -19 -52 -30 -57 -25 -10 10 -15 546 -5 562 4 6 14 11 22 11
8 0 50 28 93 63 44 34 100 78 125 97 25 19 73 55 105 80 124 94 229 169 298
214 40 25 75 50 78 56 3 5 18 15 34 23 15 8 72 47 126 88 158 120 156 119 200
119 22 0 67 5 100 10 65 12 352 16 382 6 18 -6 38 -49 83 -171 12 -33 25 -67
29 -75 9 -17 75 -224 121 -380 17 -58 51 -163 75 -235 44 -128 120 -409 156
-575 21 -95 31 -151 59 -322 10 -65 22 -122 25 -128 9 -15 -15 -41 -29 -32 -6
4 -45 10 -86 14 -41 3 -131 14 -200 23 -99 13 -172 15 -355 11 -265 -7 -366
-14 -379 -27 -6 -5 -24 -9 -40 -9 -39 0 -228 -40 -240 -52 -26 -22 189 2 319
37 85 23 593 22 745 -1 117 -17 204 -30 268 -40 23 -3 42 -2 42 2 0 5 -7 49
-16 99 -9 50 -18 104 -20 120 -2 17 -13 80 -25 140 -11 61 -23 131 -26 157
l-5 47 73 36 c138 68 294 198 375 311 25 35 68 115 95 177 28 61 56 117 65
123 9 7 39 10 77 7 96 -7 276 29 364 72 163 80 250 252 223 442 -5 41 -13 79
-16 84 -3 5 5 37 18 72 19 51 23 81 22 167 0 93 -3 112 -28 163 -42 90 -94
167 -155 228 -130 130 -370 244 -598 284 -144 25 -382 18 -534 -16 l-56 -12
-69 39 c-106 61 -107 98 -4 178 19 15 79 68 134 119 54 51 110 100 125 110 61
42 175 92 271 118 19 6 44 14 55 19 11 5 45 16 75 25 30 8 75 22 100 29 110
33 339 84 415 92 65 7 208 36 295 60 58 17 94 26 175 44 28 6 84 20 125 31
227 59 240 60 485 69 132 5 290 14 350 20 102 11 164 11 450 -6 198 -11 467
-53 481 -75 3 -5 13 -9 23 -9 11 0 64 -28 120 -62 56 -35 109 -68 119 -73 23
-14 104 -68 117 -78 10 -8 142 -106 221 -165 l44 -32 0 100 c0 78 -3 100 -14
100 -25 0 -191 117 -264 187 -63 60 -73 74 -70 99 2 21 10 30 28 35 40 11 117
30 220 54 l95 22 3 76 c2 42 0 77 -3 77 -3 0 -16 -6 -28 -14 -12 -8 -65 -21
-117 -31 -52 -9 -124 -23 -160 -31 -165 -37 -316 -47 -605 -40 -154 3 -327 10
-385 16 -58 5 -154 12 -215 15 -114 6 -225 24 -225 36 0 18 144 95 235 127
242 84 425 170 456 213 31 44 22 64 -29 64 -37 0 -41 2 -35 20 3 11 29 47 57
80 48 56 106 139 135 193 12 22 11 22 -51 22 l-63 -1 -50 -71 c-96 -136 -168
-198 -320 -275 -261 -133 -281 -140 -266 -100 4 12 12 44 16 72 4 27 14 63 23
80 8 16 19 48 23 70 4 22 16 76 28 120 11 44 21 86 21 93 0 8 -17 12 -54 12
l-55 0 -6 -47 c-4 -27 -13 -75 -21 -109 -8 -33 -14 -68 -14 -78 0 -9 -13 -45
-28 -79 -16 -34 -35 -77 -42 -94 -7 -18 -16 -33 -19 -33 -4 0 -17 -17 -29 -37
-29 -53 -83 -101 -177 -159 -127 -79 -255 -137 -390 -179 -44 -13 -127 -40
-185 -58 -144 -47 -237 -71 -325 -85 -28 -5 -56 -12 -63 -16 -7 -4 -23 -9 -35
-10 -26 -3 -93 -19 -247 -59 -180 -46 -258 -58 -325 -51 -77 8 -95 18 -95 52
0 22 30 56 149 174 148 145 208 189 320 237 86 36 152 80 215 142 38 38 84 71
132 94 52 25 85 49 114 84 23 27 53 52 67 56 14 3 50 29 80 58 55 52 153 172
153 188 0 5 -98 9 -219 9 l-219 0 -6 -32 c-9 -48 -42 -98 -65 -98 -11 0 -23
-4 -26 -10 -3 -5 -40 -10 -81 -10 -77 0 -84 -4 -62 -43 7 -12 18 -42 24 -66
11 -43 11 -44 -24 -83 -53 -59 -85 -78 -141 -83 -28 -2 -55 -7 -61 -10 -14 -9
-91 46 -101 73 -13 35 -11 68 6 82 18 15 20 40 3 40 -7 0 -26 -7 -42 -15 -53
-28 -82 -20 -121 33 -30 41 -35 54 -35 107 0 33 7 72 14 88 l15 27 -551 0
-550 0 5 -23 c6 -20 -12 -62 -76 -182 -33 -61 -253 -235 -297 -235 -6 0 -25
-10 -42 -21 -16 -12 -50 -32 -75 -46 -26 -13 -69 -44 -96 -69 -27 -24 -53 -44
-58 -44 -13 0 -26 37 -34 96 -4 27 -11 54 -15 59 -3 6 -12 37 -19 70 -7 33
-16 76 -21 95 -17 67 -22 96 -30 180 -5 47 -9 93 -9 103 -1 16 -45 17 -776 17
l-775 0 0 -658z m1683 -403 c23 -12 61 -37 84 -56 48 -40 169 -196 203 -263
12 -25 27 -54 33 -65 21 -40 50 -100 58 -120 4 -11 20 -49 36 -85 17 -36 42
-96 57 -135 16 -38 35 -88 44 -109 l16 -39 -89 -83 c-50 -46 -109 -93 -131
-106 l-41 -22 -47 22 c-25 12 -46 28 -46 35 0 6 12 32 26 57 23 39 26 57 27
140 1 88 -2 100 -33 165 -18 39 -43 84 -54 100 -85 124 -266 249 -426 293 -92
26 -141 32 -267 32 -76 0 -133 4 -127 8 39 35 391 42 482 9 38 -13 44 -13 49
-1 7 20 3 23 -48 32 l-44 8 0 51 c1 59 15 80 84 125 54 34 97 36 154 7z m-443
-276 c92 -6 180 -32 285 -84 133 -66 205 -126 269 -223 31 -47 56 -92 56 -100
0 -8 5 -18 10 -21 6 -3 10 -17 10 -30 0 -13 5 -36 12 -50 14 -31 -2 -113 -38
-192 -21 -48 -29 -55 -101 -90 -86 -43 -167 -96 -318 -208 -166 -124 -215
-138 -445 -133 -172 5 -249 21 -355 77 -64 34 -141 103 -184 166 -44 65 -56
118 -55 241 2 117 17 179 71 289 49 99 167 223 253 267 14 7 36 20 50 28 49
32 172 63 263 66 50 2 92 6 96 9 3 4 15 3 26 0 11 -4 54 -9 95 -12z m1130
-440 c-1 -23 -115 -117 -131 -107 -16 10 -51 92 -44 104 7 12 175 14 175 3z
m385 -83 c39 -17 84 -38 102 -46 17 -8 35 -14 40 -14 31 0 237 -148 331 -237
75 -71 80 -90 17 -63 -182 78 -400 122 -612 123 -68 1 -123 5 -123 8 0 15 63
51 138 79 33 13 38 32 9 38 -8 2 -35 -6 -59 -16 -91 -42 -223 -92 -240 -92
-10 0 -18 6 -18 14 0 15 89 100 170 162 30 23 64 52 75 64 26 29 73 23 170
-20z m755 -28 c141 -26 342 -110 450 -188 74 -53 167 -168 214 -264 40 -84 41
-87 40 -190 -1 -116 -18 -172 -68 -222 -52 -51 -90 -62 -179 -49 -98 13 -231
59 -322 108 -57 32 -70 44 -81 76 -7 20 -11 37 -8 37 3 0 44 -11 92 -24 176
-49 243 -52 326 -15 57 26 70 152 23 231 -40 69 -70 101 -155 166 -97 74 -99
75 -229 119 -101 33 -117 36 -255 39 -163 4 -163 4 -305 92 -69 41 -89 68 -60
76 71 20 116 24 277 21 102 -1 210 -7 240 -13z m-725 -253 c91 -11 267 -49
340 -74 22 -7 74 -29 115 -49 41 -20 80 -36 87 -36 13 0 25 -15 81 -105 32
-50 60 -109 132 -280 30 -70 42 -341 21 -438 -6 -23 -17 -80 -26 -126 -14 -75
-50 -187 -76 -233 -5 -10 -9 -23 -9 -29 0 -14 -54 -92 -107 -155 -59 -70 -122
-98 -316 -143 -94 -22 -105 -17 -126 59 -35 125 -52 183 -79 270 -54 176 -134
425 -159 495 -14 39 -29 84 -33 100 -27 101 -145 415 -180 477 -6 10 -10 23
-10 30 0 7 -16 45 -35 83 -19 39 -37 84 -41 101 -5 26 -2 32 23 44 57 28 210
32 398 9z m-887 -13 c20 -19 6 -38 -58 -81 -45 -30 -60 -46 -60 -64 0 -36 54
-113 94 -135 l36 -19 49 48 c56 55 77 69 91 60 15 -9 1 -85 -25 -130 -28 -48
-122 -155 -137 -155 -9 0 -49 -30 -103 -77 -10 -10 -53 -40 -95 -68 -42 -27
-91 -62 -110 -77 -19 -15 -46 -33 -60 -40 -33 -17 -112 -74 -160 -115 -20 -18
-44 -33 -53 -33 -39 0 -157 188 -157 251 0 15 -4 30 -9 34 -14 8 -24 87 -17
122 5 20 31 48 88 93 264 212 484 364 568 394 47 16 96 13 118 -8z m423 -46
c19 -33 97 -208 114 -255 11 -27 25 -60 33 -73 26 -40 7 -45 -175 -43 -112 0
-189 -4 -233 -13 -35 -8 -68 -12 -73 -9 -4 2 6 20 22 38 16 19 42 55 57 80 24
42 26 53 21 110 -5 52 -3 65 12 79 10 9 21 16 26 16 5 0 16 7 25 15 25 22 133
75 149 73 8 -2 18 -10 22 -18z m1251 -29 c24 -10 65 -24 91 -30 27 -6 56 -18
64 -26 8 -8 25 -15 37 -15 13 0 29 -7 36 -15 7 -8 20 -15 29 -15 42 -1 141
-125 141 -177 0 -34 -30 -72 -59 -74 -134 -11 -249 9 -351 61 -44 23 -59 42
-125 163 l-48 89 32 29 c39 35 89 38 153 10z m-2452 -590 c19 -56 59 -130 105
-194 19 -26 32 -53 29 -60 -3 -7 -53 -48 -111 -92 -58 -44 -130 -99 -159 -122
-30 -24 -60 -43 -68 -43 -28 0 -35 109 -17 245 14 101 26 141 51 170 10 11 22
35 28 53 6 18 30 55 54 83 l43 51 15 -23 c8 -12 22 -43 30 -68z m3073 -27 c25
-115 -26 -262 -114 -329 l-53 -40 -105 1 c-81 1 -120 6 -163 22 -82 30 -148
77 -148 106 0 22 23 41 39 32 4 -3 52 -1 108 4 149 13 214 48 230 123 7 34 15
40 93 81 47 24 89 43 95 41 5 -1 13 -19 18 -41z m-330 -61 c78 -7 85 -22 29
-59 -55 -37 -218 -49 -252 -19 -12 11 -18 59 -11 83 2 5 168 2 234 -5z"></path>
<path d="M1408 3105 c-35 -20 -46 -54 -22 -72 40 -29 124 -4 124 36 0 39 -59
59 -102 36z"></path>
<path d="M734 3010 c-23 -9 -50 -69 -37 -81 5 -4 24 -10 43 -14 65 -12 138 60
94 92 -20 15 -68 16 -100 3z"></path>
<path d="M1197 2906 c-48 -18 -64 -32 -87 -75 -29 -58 -33 -94 -14 -140 32
-81 132 -102 244 -53 49 21 80 63 80 106 0 64 -65 149 -122 161 -18 4 -40 8
-48 10 -8 2 -32 -2 -53 -9z m113 -230 c0 -17 -31 -26 -87 -26 -46 0 -63 13
-36 29 28 16 123 14 123 -3z"></path>
<path d="M3180 2572 c0 -13 35 -19 120 -21 36 -1 92 -6 124 -11 55 -9 77 -7
64 5 -18 19 -308 44 -308 27z"></path>
<path d="M0 3068 c0 -13 13 -49 29 -79 16 -30 43 -101 60 -159 69 -231 113
-351 216 -580 56 -123 160 -295 271 -445 61 -83 81 -102 94 -89 7 7 -3 22 -25
44 -19 19 -35 38 -35 43 0 4 -18 30 -40 56 -22 26 -40 50 -40 54 0 4 -20 36
-45 72 -25 35 -50 74 -55 87 -6 13 -19 37 -30 53 -11 17 -29 50 -41 75 -11 25
-31 66 -45 91 -13 26 -24 55 -24 65 0 11 -9 30 -20 44 -11 14 -20 33 -20 43 0
9 -4 25 -9 35 -5 9 -14 31 -21 47 -7 17 -16 38 -21 47 -5 10 -9 24 -9 31 0 7
-9 30 -20 52 -11 22 -20 48 -20 58 0 26 -21 99 -32 112 -4 5 -8 21 -8 36 0 15
-4 31 -10 34 -5 3 -10 16 -10 29 0 12 -13 43 -30 69 -16 26 -30 54 -30 61 0 8
-7 19 -15 26 -13 10 -15 9 -15 -12z"></path>
<path d="M6865 1279 c-27 -5 -69 -14 -93 -19 -23 -6 -51 -10 -62 -10 -11 0
-20 -5 -20 -11 0 -7 14 -9 38 -6 20 3 71 10 112 16 132 18 160 23 160 32 0 11
-68 10 -135 -2z"></path>
<path d="M6586 1215 c-11 -8 -16 -18 -13 -22 4 -4 13 -1 19 5 7 7 25 12 41 12
16 0 26 4 22 10 -9 15 -47 12 -69 -5z"></path>
<path d="M1325 1055 c-151 -78 -292 -176 -280 -195 9 -14 31 -2 149 77 59 40
111 73 115 73 15 0 161 82 161 91 0 20 -41 7 -145 -46z"></path>
<path d="M6089 1075 c-40 -19 -79 -35 -85 -35 -12 0 -165 -78 -274 -139 -122
-69 -223 -151 -207 -167 2 -2 24 11 48 29 24 18 69 52 100 75 31 23 62 42 68
42 7 0 32 13 56 29 24 16 54 32 67 36 12 4 39 17 58 29 39 23 183 85 217 93
12 3 27 11 33 18 22 27 -8 23 -81 -10z"></path>
<path d="M5411 449 c-114 -9 -301 -34 -371 -51 -137 -33 -201 -51 -206 -59 -3
-5 -14 -9 -25 -9 -10 0 -27 -4 -37 -9 -9 -4 -52 -25 -95 -45 -43 -20 -75 -40
-72 -45 3 -5 39 6 81 25 102 47 281 105 369 119 22 4 63 11 90 17 50 9 145 20
308 34 63 5 87 11 87 20 0 8 -6 13 -12 13 -7 -1 -60 -5 -117 -10z"></path>
</g>
</svg>