 <svg version="1.0" xmlns="http://www.w3.org/2000/svg" width="700.000000pt" height="488.000000pt" viewBox="0 0 700.000000 488.000000" preserveAspectRatio="xMidYMid meet">
<metadata>
Created by potrace 1.12, written by Peter Selinger 2001-2015
</metadata>
<g transform="translate(0.000000,488.000000) scale(0.100000,-0.100000)" fill="#000000" stroke="none">
<path d="M29 4398 c-1 -650 -6 -882 -19 -886 -13 -5 -13 -79 1 -84 15 -5 15
-511 0 -516 -14 -5 -15 -82 -1 -82 6 0 10 -14 10 -31 0 -17 -4 -28 -10 -24 -6
3 -10 2 -10 -4 0 -5 6 -11 13 -14 15 -5 12 -180 -3 -185 -6 -2 -10 -19 -10
-38 0 -20 4 -33 9 -30 5 3 11 -11 15 -32 4 -27 2 -40 -9 -48 -8 -6 -15 -17
-15 -25 0 -11 2 -11 10 1 7 11 10 7 10 -17 0 -18 -4 -33 -10 -33 -14 0 -13
-97 1 -102 17 -6 16 -393 -2 -415 -9 -11 -10 -14 -2 -9 10 5 13 -3 13 -29 0
-22 -4 -34 -10 -30 -6 4 -10 -13 -10 -44 0 -27 5 -51 11 -53 7 -2 10 -69 10
-198 1 -236 1 -223 -11 -215 -5 3 -10 1 -10 -4 0 -6 5 -11 10 -11 6 0 10 -14
10 -31 0 -17 -4 -28 -10 -24 -6 4 -10 -13 -10 -44 0 -30 5 -51 13 -53 9 -4 13
-124 15 -546 l4 -542 3484 0 3484 0 0 2134 0 2133 -117 6 c-85 4 -121 2 -130
-6 -8 -9 -13 -228 -18 -827 -4 -448 -8 -816 -9 -818 -13 -12 -235 -56 -367
-72 -148 -18 -180 -5 -382 148 -62 47 -158 168 -189 240 -30 67 -45 243 -28
331 9 48 10 92 5 143 -10 88 -12 524 -4 928 l6 295 616 3 617 2 0 120 0 120
-3485 0 -3485 0 -1 -482z m4744 248 c22 -17 22 -25 -2 -19 -36 9 -43 -95 -11
-180 49 -130 177 -241 418 -357 133 -65 172 -89 215 -133 28 -29 60 -64 69
-78 l18 -24 -11 29 c-13 38 -81 132 -158 221 -128 145 -178 249 -168 348 2 26
0 47 -4 47 -5 0 -9 -7 -9 -15 0 -8 -4 -15 -10 -15 -5 0 -10 4 -10 9 0 16 -142
161 -151 155 -5 -3 -9 2 -9 10 0 14 19 16 129 16 l129 0 50 -55 c169 -185 305
-452 382 -752 77 -298 64 -782 -40 -1418 -59 -359 -61 -393 -70 -1020 -5 -319
-13 -596 -17 -615 l-9 -35 -1894 -3 c-1042 -1 -1898 2 -1902 6 -4 4 -11 96
-14 202 -6 179 -1 273 22 444 5 33 4 47 -3 43 -28 -17 -47 -377 -33 -612 l5
-80 -95 0 -95 0 0 295 c0 243 3 317 20 420 22 141 24 256 11 610 -7 205 -6
269 8 390 29 255 80 490 122 573 9 16 13 34 11 40 -2 7 -13 -6 -25 -29 -27
-54 -101 -134 -174 -190 -114 -88 -394 -200 -529 -211 -119 -10 -238 39 -273
111 -21 45 -22 128 -1 120 8 -4 13 -10 10 -14 -3 -5 5 -21 19 -36 64 -76 334
-19 552 116 44 27 137 100 205 163 201 184 247 210 476 273 157 43 203 66 269
130 73 70 110 152 183 404 101 345 177 496 295 582 21 15 35 28 30 29 -54 6
-127 -21 -196 -75 -27 -20 -48 -33 -48 -30 0 10 71 99 131 161 l59 63 1052 0
c860 -1 1056 -3 1071 -14z m-2207 -35 c-16 -11 -38 -31 -50 -46 -21 -26 -22
-26 -23 -5 -1 12 2 33 7 46 8 20 16 24 52 24 l43 0 -29 -19z m2245 -122 c8
-13 21 -43 28 -66 8 -23 31 -63 52 -88 56 -68 47 -69 -15 -4 -61 65 -97 132
-104 194 -7 63 10 95 18 34 3 -25 12 -57 21 -70z m249 2 c30 -43 30 -44 3 -14
-15 17 -46 53 -67 80 l-40 48 36 -34 c20 -18 50 -54 68 -80z m-2497 -47 c-17
-23 -29 -31 -32 -23 -2 7 9 23 25 36 39 31 40 29 7 -13z m2592 -298 c19 -8 35
-17 35 -20 0 -5 -71 22 -79 30 -9 8 11 4 44 -10z m121 -51 c31 -29 21 -33 -19
-7 -15 10 -24 22 -20 25 9 10 9 10 39 -18z m-4814 -402 c-23 -27 -57 -66 -76
-88 l-35 -40 24 50 c23 45 98 125 118 125 5 0 -9 -21 -31 -47z m1665 -183
c-31 -25 -101 -55 -92 -40 7 11 94 59 109 60 5 0 -3 -9 -17 -20z m-1809 -52
c-11 -46 -28 -73 -28 -46 0 16 28 88 34 88 2 0 -1 -19 -6 -42z m841 -513 c-3
-2 -32 -16 -64 -30 l-60 -26 33 31 c22 20 43 30 64 30 17 0 29 -2 27 -5z m408
-70 c-9 -29 -12 -33 -20 -20 -6 11 -3 22 9 36 23 26 24 25 11 -16z m-800 -6
c15 -7 44 -15 63 -20 28 -6 23 -8 -28 -5 -43 1 -68 8 -79 19 -16 16 -16 17 -1
17 9 0 29 -5 45 -11z m5015 -67 c24 -31 46 -58 51 -60 4 -2 7 -8 7 -14 0 -16
-36 19 -92 90 -31 39 -42 59 -29 52 12 -6 40 -36 63 -68z m-76 26 c28 -55 192
-215 317 -310 64 -49 129 -107 143 -128 15 -22 30 -40 34 -40 17 0 -6 -69 -34
-99 -65 -69 -154 -81 -252 -31 -68 34 -189 133 -248 203 l-40 48 22 157 c12
86 22 171 22 188 0 27 6 44 16 44 2 0 11 -15 20 -32z m-4951 -160 c33 -15 32
-20 -9 -42 -34 -18 -93 -28 -110 -18 -10 6 63 71 81 72 7 0 24 -5 38 -12z
m5226 -75 c13 -16 12 -17 -3 -4 -17 13 -22 21 -14 21 2 0 10 -8 17 -17z m637
-934 l-3 -874 -435 0 -435 0 -3 758 c-1 416 1 757 5 757 4 0 39 -22 79 -50
105 -72 158 -93 218 -85 120 15 208 111 204 219 -1 25 -5 46 -8 46 -3 0 -5 15
-6 34 l0 33 70 7 c67 5 156 18 256 35 25 4 48 5 53 1 4 -3 6 -400 5 -881z
m-5129 534 c-1 -65 -4 -89 -9 -73 -14 44 -10 170 6 170 2 0 4 -44 3 -97z m10
-285 c0 -39 -3 -48 -9 -33 -12 28 -12 85 0 85 6 0 10 -24 9 -52z m8 -215 c-2
-16 -4 -5 -4 22 0 28 2 40 4 28 2 -13 2 -35 0 -50z m-56 -526 c-13 -13 -15 41
-3 70 5 13 8 8 10 -21 2 -21 -1 -43 -7 -49z"></path>
<path d="M4494 4483 c-50 -104 -58 -202 -23 -282 17 -42 20 -57 11 -70 -70
-101 -97 -193 -88 -306 12 -173 89 -325 173 -341 19 -4 38 -3 43 2 5 5 20 59
33 120 33 148 79 255 132 310 35 38 47 44 82 44 22 0 42 -3 45 -6 3 -3 -13
-23 -36 -44 -59 -55 -109 -167 -141 -315 -42 -197 -54 -230 -93 -270 -19 -19
-41 -35 -48 -35 -26 0 -23 -19 10 -53 19 -20 44 -56 56 -81 20 -43 51 -176 64
-276 l6 -45 -15 38 c-38 99 -92 181 -191 290 -149 164 -228 220 -379 267 -90
28 -290 38 -402 21 -89 -14 -215 -49 -223 -62 -10 -14 -49 20 -69 59 -31 61
-50 159 -61 317 -27 364 -39 421 -107 496 -40 44 -36 46 51 23 42 -11 89 -15
148 -12 75 4 97 9 155 39 51 26 73 43 90 74 24 42 31 95 12 95 -5 0 -8 -4 -4
-10 7 -12 -20 -78 -43 -104 -27 -30 -128 -74 -190 -81 -68 -8 -176 13 -307 58
-72 25 -106 31 -170 31 -98 -1 -153 -22 -224 -89 -84 -79 -113 -139 -191 -404
-27 -91 -66 -206 -86 -256 -65 -155 -163 -229 -306 -229 -59 -1 -74 -9 -37
-21 25 -8 96 1 151 21 49 17 76 6 131 -55 48 -53 68 -95 107 -221 78 -254 170
-350 334 -350 25 0 48 -4 51 -10 3 -5 2 -10 -3 -10 -5 0 -20 -33 -33 -72 -49
-150 -24 -412 46 -478 14 -13 38 -46 54 -74 34 -60 61 -86 120 -117 50 -26 50
-24 6 -189 -14 -52 -33 -148 -42 -212 -15 -99 -15 -129 -5 -200 16 -110 62
-203 142 -286 34 -35 65 -74 70 -86 8 -23 110 -115 110 -100 0 4 -24 31 -54
59 -77 74 -91 109 -91 230 0 116 18 182 91 334 95 200 106 239 108 401 3 152
1 146 61 260 13 25 50 123 81 218 63 189 67 196 174 253 25 13 47 26 50 29 9
10 55 3 124 -18 48 -16 94 -22 155 -22 47 0 95 -3 106 -6 21 -6 102 -125 122
-180 7 -20 11 -104 12 -222 0 -105 3 -203 6 -219 33 -150 130 -216 276 -186
48 9 119 85 144 153 17 47 20 79 19 220 0 169 -23 392 -49 490 -22 84 -18 89
20 24 43 -72 73 -98 145 -125 68 -26 136 -21 214 14 71 33 98 71 198 275 92
190 146 257 217 268 l40 6 -34 42 c-62 76 -90 154 -140 396 -34 161 -64 228
-128 286 -66 59 -134 79 -231 69 -103 -12 -206 -10 -247 4 -43 14 -92 64 -108
110 -14 43 -14 134 0 184 13 49 5 71 -11 32 -7 -16 -14 -70 -16 -119 -2 -96
-10 -110 -54 -99 -101 23 -161 131 -140 255 7 44 36 119 78 201 2 4 -1 7 -7 7
-5 0 -27 -35 -47 -77z m-1360 -247 c27 -16 55 -43 70 -69 31 -53 56 -192 56
-312 0 -101 22 -273 45 -351 8 -28 26 -68 41 -89 l26 -39 -22 -16 c-81 -56
-143 -128 -239 -277 -57 -89 -125 -159 -166 -169 -41 -10 -115 2 -144 23 -46
35 -79 96 -125 237 -44 131 -79 199 -125 240 l-21 19 31 35 c42 47 48 65 114
298 82 289 124 384 202 455 48 45 64 50 139 46 55 -3 83 -10 118 -31z m1377
-154 c-6 -9 -22 -30 -36 -47 l-26 -30 27 52 c15 29 31 50 35 47 5 -3 5 -13 0
-22z m259 -126 c0 -2 -7 -9 -15 -16 -13 -11 -14 -10 -9 4 5 14 24 23 24 12z
m-338 -118 c-9 -20 -11 -18 -11 22 0 40 2 42 11 23 8 -17 8 -29 0 -45z m734
-4 c79 -49 124 -154 149 -348 9 -64 47 -177 73 -213 l21 -29 -50 -43 c-61 -52
-88 -94 -135 -208 -47 -114 -77 -165 -120 -202 -41 -37 -70 -45 -130 -38 -87
9 -121 66 -154 252 -19 108 -47 189 -82 237 -10 14 -9 21 9 40 38 42 55 89 84
237 16 80 36 167 45 193 20 62 68 126 107 144 49 22 127 13 183 -22z m-651
-244 c9 -8 32 -14 51 -14 29 0 34 -3 32 -19 -2 -11 -11 -25 -20 -31 -13 -8
-23 -5 -44 14 -27 26 -67 97 -78 140 -3 14 5 2 18 -25 13 -28 31 -57 41 -65z
m-500 -170 c37 -5 11 -8 -100 -9 -100 0 -145 3 -135 9 18 11 163 12 235 0z
m-355 -25 c-19 -7 -44 -13 -55 -13 -11 0 -2 6 20 13 52 18 80 17 35 0z m-87
-22 c-7 -2 -21 -2 -30 0 -10 3 -4 5 12 5 17 0 24 -2 18 -5z m547 -123 c10 -7
-6 -10 -55 -9 -48 0 -64 3 -50 9 27 12 87 12 105 0z m80 -50 c169 -27 306 -90
404 -186 48 -47 58 -64 85 -146 41 -126 49 -165 72 -363 38 -335 21 -493 -61
-575 -43 -43 -83 -55 -161 -48 -109 11 -131 78 -127 383 5 339 3 438 -11 478
-10 28 -10 45 -1 71 24 73 -28 165 -122 212 -76 39 -163 57 -279 58 -99 1
-109 -1 -164 -29 -82 -42 -108 -86 -101 -172 5 -54 2 -67 -24 -115 -16 -29
-61 -147 -100 -263 -104 -311 -127 -361 -206 -437 -49 -47 -100 -68 -163 -68
-61 0 -84 24 -102 107 -11 47 -10 71 4 150 18 105 49 179 130 311 30 48 90
151 136 229 152 262 288 367 526 403 75 11 192 11 265 0z m240 -35 c17 -9 30
-18 30 -21 0 -4 -59 23 -69 32 -10 9 13 3 39 -11z m-960 -199 c0 -2 -8 -10
-17 -17 -16 -13 -17 -12 -4 4 13 16 21 21 21 13z m-133 -210 c-56 -96 -103
-173 -105 -171 -7 7 30 80 62 124 19 25 45 71 58 101 21 46 72 120 83 120 2 0
-43 -78 -98 -174z m432 -15 c11 -7 9 -12 -10 -21 -13 -7 -34 -20 -47 -28 l-23
-15 21 36 c22 38 34 43 59 28z m-839 -253 c-7 -38 -17 -68 -22 -68 -14 0 -5
133 14 210 l13 55 3 -65 c2 -36 -2 -95 -8 -132z m1448 35 l-1 -78 -7 65 c-6
60 -4 90 6 90 2 0 3 -35 2 -77z m-1271 -225 c-3 -8 -6 -5 -6 6 -1 11 2 17 5
13 3 -3 4 -12 1 -19z m313 -293 c-9 -56 -16 -64 -30 -33 -10 21 -8 29 12 51
13 15 23 27 24 27 0 0 -2 -20 -6 -45z m-200 -52 c0 -2 -5 -14 -11 -25 -6 -12
-15 -49 -19 -83 -8 -61 -45 -163 -56 -153 -3 4 9 63 26 132 17 69 29 130 26
135 -3 5 3 7 14 4 11 -3 20 -7 20 -10z m-107 -475 l-11 -43 -1 55 c-1 41 2 51
11 42 8 -8 8 -23 1 -54z m45 -190 c11 -18 23 -44 27 -58 l7 -25 -17 22 c-17
25 -48 93 -41 93 2 0 13 -15 24 -32z"></path>
<path d="M3900 4438 c-1 -41 -36 -102 -84 -146 -52 -48 -56 -67 -7 -32 42 29
78 78 96 129 17 51 19 71 5 71 -5 0 -10 -10 -10 -22z"></path>
<path d="M4703 4375 c-9 -25 4 -29 17 -6 7 15 7 21 0 21 -6 0 -13 -7 -17 -15z"></path>
<path d="M5484 3829 c14 -51 35 -157 45 -236 11 -90 35 -158 51 -148 7 4 7 11
2 18 -17 21 -31 80 -42 172 -12 100 -37 202 -53 212 -6 4 -8 -3 -3 -18z"></path>
<path d="M1975 3271 c-11 -5 -29 -19 -40 -31 -18 -19 -20 -36 -20 -134 1 -99
4 -118 29 -179 39 -94 100 -173 187 -243 122 -99 222 -151 365 -189 68 -19
264 -32 264 -19 0 5 -28 24 -63 43 -76 42 -205 169 -235 232 -34 70 -54 182
-56 301 -1 76 -6 111 -16 124 -23 27 -89 51 -163 59 -37 4 -98 15 -135 26 -73
21 -87 22 -117 10z m170 -55 c44 -9 102 -19 128 -22 56 -6 126 -57 96 -69 -10
-4 -32 4 -54 19 -37 25 -94 46 -126 46 -9 0 -47 9 -83 20 -107 33 -135 2 -137
-152 l-1 -93 -15 45 c-20 64 -14 181 12 210 22 25 43 24 180 -4z m-96 -352
c22 -11 39 -31 51 -58 10 -23 32 -55 50 -72 18 -16 54 -49 79 -73 l46 -43 -48
33 c-71 49 -157 130 -195 183 -36 50 -33 55 17 30z m460 -328 c9 -11 6 -12
-15 -8 -19 3 -22 7 -12 13 16 11 14 11 27 -5z"></path>
<path d="M5536 2937 c-4 -9 -6 -27 -3 -39 17 -64 -52 -301 -117 -403 -41 -63
-43 -86 -3 -33 77 101 140 299 135 423 -2 48 -6 64 -12 52z"></path>
<path d="M5427 2875 c-47 -193 -86 -280 -154 -347 -58 -56 -142 -88 -233 -88
-38 0 -60 -4 -60 -11 0 -19 153 -3 206 20 60 27 145 115 182 187 40 80 74 195
70 236 l-4 33 -7 -30z"></path>
<path d="M3920 2550 c0 -5 23 -10 50 -10 56 0 60 -7 39 -85 -28 -109 -74 -195
-104 -195 -22 0 -65 41 -65 61 0 25 -16 24 -30 -1 -7 -13 -21 -20 -41 -20 -25
0 -33 6 -45 35 -22 54 -17 71 38 126 50 50 41 54 -14 7 -39 -33 -95 -143 -117
-229 -10 -41 -22 -119 -25 -174 -15 -213 -34 -295 -107 -458 -75 -166 -130
-377 -99 -377 5 0 10 10 10 22 0 12 12 34 26 49 26 27 26 28 4 22 -22 -6 -22
-4 -16 33 8 40 48 146 111 294 20 47 40 95 46 108 l9 22 60 -30 c35 -18 95
-63 141 -107 66 -63 88 -92 125 -167 48 -99 79 -218 71 -279 -4 -27 -16 -49
-42 -74 -34 -33 -37 -34 -60 -19 -28 18 -61 21 -70 6 -4 -6 8 -10 28 -10 42 0
76 -33 84 -84 3 -20 10 -36 14 -36 12 0 11 21 -2 59 -10 27 -8 36 12 66 42 62
105 42 139 -43 14 -35 30 -51 30 -29 0 7 -13 34 -30 58 -34 53 -31 90 12 122
22 16 29 17 49 7 47 -24 79 -63 79 -94 0 -20 3 -27 10 -20 6 6 13 53 16 105 6
95 -11 262 -42 394 -23 99 -17 161 27 332 35 131 42 175 43 258 1 127 -14 178
-71 244 -48 55 -95 89 -72 53 9 -15 7 -32 -11 -86 -12 -37 -19 -70 -16 -73 7
-7 34 55 43 98 3 16 9 31 13 34 4 2 22 -14 40 -37 l33 -40 -26 -54 c-31 -63
-83 -98 -112 -74 -9 7 -13 20 -10 29 4 10 -2 8 -18 -7 -29 -27 -58 -28 -82 -2
-17 19 -17 23 10 107 14 48 30 99 34 113 7 20 14 24 37 22 50 -6 14 17 -45 28
-68 13 -111 13 -111 0z"></path>
<path d="M3870 2540 c-8 -5 -11 -12 -8 -16 10 -9 38 3 38 16 0 12 -10 13 -30
0z"></path>
<path d="M3867 2497 c-11 -29 -9 -53 4 -40 6 6 9 21 7 34 -3 21 -4 22 -11 6z"></path>
<path d="M3841 2399 c-13 -44 -7 -67 7 -28 19 51 23 69 14 69 -5 0 -14 -18
-21 -41z"></path>
<path d="M4320 1665 c0 -8 5 -15 10 -15 6 0 10 7 10 15 0 8 -4 15 -10 15 -5 0
-10 -7 -10 -15z"></path>
<path d="M4310 1615 c0 -8 5 -15 10 -15 6 0 10 7 10 15 0 8 -4 15 -10 15 -5 0
-10 -7 -10 -15z"></path>
<path d="M4325 1533 c7 -40 12 -49 20 -42 8 9 -7 79 -17 79 -6 0 -7 -15 -3
-37z"></path>
<path d="M4346 1443 c8 -32 12 -39 19 -31 9 8 -6 58 -16 58 -5 0 -6 -12 -3
-27z"></path>
<path d="M4360 1380 c0 -5 5 -10 10 -10 6 0 10 5 10 10 0 6 -4 10 -10 10 -5 0
-10 -4 -10 -10z"></path>
<path d="M4370 1325 c0 -8 5 -15 10 -15 6 0 10 7 10 15 0 8 -4 15 -10 15 -5 0
-10 -7 -10 -15z"></path>
<path d="M3513 1312 c10 -10 17 -24 17 -30 0 -7 5 -12 10 -12 6 0 10 4 10 8 0
10 -38 52 -47 52 -3 0 1 -8 10 -18z"></path>
<path d="M4380 1210 c0 -33 4 -60 10 -60 6 0 10 27 10 60 0 33 -4 60 -10 60
-6 0 -10 -27 -10 -60z"></path>
<path d="M3530 1230 c0 -5 8 -10 18 -10 22 0 47 -25 57 -58 5 -17 1 -30 -13
-45 -11 -12 -25 -33 -32 -47 -9 -18 1 -13 36 21 27 26 56 49 64 52 10 4 8 6
-6 6 -12 1 -29 13 -39 29 -30 47 -85 81 -85 52z"></path>
<path d="M3475 1205 c-16 -13 -27 -27 -24 -30 3 -3 14 4 24 15 10 11 24 20 32
20 7 0 13 5 13 10 0 16 -12 11 -45 -15z"></path>
<path d="M3400 1191 c0 -25 21 -64 30 -55 7 7 6 20 -2 37 -13 26 -28 36 -28
18z"></path>
<path d="M3696 1135 c28 -19 50 -71 37 -88 -14 -17 -27 -55 -15 -42 57 62 83
97 67 88 -16 -10 -25 -6 -53 23 -18 19 -38 34 -45 34 -6 0 -2 -7 9 -15z"></path>
<path d="M4370 1110 c0 -37 -43 -135 -73 -167 -17 -18 -26 -33 -20 -33 20 0
74 78 94 135 21 61 24 85 9 85 -5 0 -10 -9 -10 -20z"></path>
<path d="M4209 1065 c-17 -38 -49 -75 -66 -75 -7 0 -13 -6 -13 -14 0 -8 -15
-27 -32 -42 l-33 -27 30 18 c62 37 142 131 132 157 -2 8 -10 1 -18 -17z"></path>
<path d="M3460 1051 c15 -30 90 -105 121 -121 15 -7 9 2 -15 23 -27 23 -37 39
-33 50 4 12 2 14 -10 10 -10 -4 -26 5 -45 28 -21 24 -26 27 -18 10z"></path>
<path d="M3697 984 c-4 -4 -7 -14 -7 -23 0 -11 3 -12 11 -4 6 6 10 16 7 23 -2
6 -7 8 -11 4z"></path>
<path d="M3660 900 c0 -6 12 -15 26 -20 32 -12 34 -12 34 0 0 6 -7 10 -15 10
-8 0 -15 5 -15 10 0 6 -7 10 -15 10 -8 0 -15 -5 -15 -10z"></path>
<path d="M3998 893 c-10 -2 -18 -9 -18 -14 0 -11 39 -2 55 12 9 9 -6 10 -37 2z"></path>
<path d="M3925 879 c-4 -6 -4 -13 -1 -16 8 -8 36 5 36 17 0 13 -27 13 -35 -1z"></path>
<path d="M3740 870 c0 -5 9 -10 20 -10 11 0 20 5 20 10 0 6 -9 10 -20 10 -11
0 -20 -4 -20 -10z"></path>
<path d="M3810 860 c0 -13 70 -13 90 0 11 7 0 10 -37 10 -29 0 -53 -4 -53 -10z"></path>
</g>
</svg>