 <svg version="1.0" xmlns="http://www.w3.org/2000/svg" width="700.000000pt" height="394.000000pt" viewBox="0 0 700.000000 394.000000" preserveAspectRatio="xMidYMid meet">
<metadata>
Created by potrace 1.12, written by Peter Selinger 2001-2015
</metadata>
<g transform="translate(0.000000,394.000000) scale(0.100000,-0.100000)" fill="#000000" stroke="none">
<path d="M640 3932 c0 -5 10 -17 21 -28 12 -10 49 -53 83 -94 33 -41 64 -76
68 -78 5 -2 8 -9 8 -17 0 -7 38 -50 85 -96 47 -45 85 -90 85 -99 0 -30 60
-111 133 -181 40 -38 76 -69 80 -69 5 0 -1 15 -13 34 -15 25 -17 36 -9 42 7 4
95 -78 233 -217 255 -258 303 -302 318 -293 6 4 8 3 5 -3 -4 -6 13 -27 36 -48
23 -20 60 -55 83 -77 23 -21 50 -41 60 -43 10 -1 18 -8 16 -14 -1 -6 8 -11 20
-11 17 0 19 -3 9 -9 -9 -6 -6 -9 13 -8 22 0 18 5 -37 49 -34 27 -78 66 -98 86
-20 20 -59 57 -88 82 -29 25 -65 56 -80 70 -15 14 -45 40 -67 59 -114 99 -409
397 -468 473 -37 47 -81 93 -98 101 -38 18 -226 204 -281 277 -71 95 -117 139
-117 112z m901 -919 c13 -16 12 -17 -3 -4 -10 7 -18 15 -18 17 0 8 8 3 21 -13z
m329 -298 c13 -14 21 -25 18 -25 -2 0 -15 11 -28 25 -13 14 -21 25 -18 25 2 0
15 -11 28 -25z"></path>
<path d="M2408 3911 c9 -16 18 -28 20 -27 5 6 -21 56 -29 56 -5 0 0 -13 9 -29z"></path>
<path d="M2560 3922 c0 -10 16 -64 35 -121 26 -77 32 -108 25 -122 -8 -14 -4
-31 20 -72 34 -60 80 -110 80 -86 0 8 -18 66 -41 129 -23 63 -48 135 -56 160
-32 98 -45 130 -54 130 -5 0 -9 -8 -9 -18z"></path>
<path d="M2764 3863 c73 -132 106 -185 167 -268 58 -80 89 -146 89 -189 0 -22
-58 -85 -97 -105 -12 -6 -66 -11 -120 -11 -125 0 -159 15 -180 80 -22 72 -23
73 -29 68 -3 -3 4 -34 15 -69 12 -34 21 -70 21 -80 0 -10 -31 -52 -70 -93
-123 -133 -148 -221 -101 -351 12 -33 23 -66 24 -74 2 -14 -99 -70 -210 -116
-38 -16 -57 -35 -35 -35 10 0 84 33 137 62 26 14 40 17 43 9 6 -17 22 -13 22
5 0 10 6 14 15 10 8 -3 15 -1 15 4 0 5 7 6 17 3 12 -5 14 -3 9 8 -4 8 17 -13
47 -46 82 -89 85 -97 53 -136 -39 -46 -66 -103 -66 -139 0 -46 23 -82 89 -139
73 -63 135 -161 102 -161 -10 0 -179 112 -241 160 -19 15 -87 64 -150 110 -63
46 -145 110 -181 142 -64 56 -96 76 -68 42 13 -15 11 -17 -18 -12 -18 2 -30 1
-27 -4 3 -4 18 -8 33 -8 16 0 34 -7 41 -15 7 -9 15 -13 18 -11 2 3 16 -9 29
-25 14 -16 28 -28 30 -25 3 3 14 -5 24 -17 10 -12 18 -18 19 -13 0 4 9 -2 20
-15 10 -13 19 -20 20 -15 0 4 9 -2 20 -15 10 -13 19 -21 20 -17 0 4 14 -6 32
-22 17 -16 35 -27 39 -25 4 3 9 -2 13 -10 3 -8 13 -15 21 -15 9 0 13 -4 10
-10 -3 -5 -2 -10 3 -10 5 0 25 -15 43 -33 19 -17 31 -28 27 -23 -17 21 -7 26
16 9 13 -10 21 -25 19 -33 -4 -13 -4 -13 6 0 7 10 11 11 11 3 0 -7 7 -13 16
-13 9 0 12 -5 8 -12 -5 -8 -2 -9 10 -5 10 4 19 1 22 -8 4 -8 12 -15 19 -15 7
0 15 -4 17 -8 2 -4 20 -18 41 -31 l37 -23 -20 -33 c-52 -84 -7 -166 184 -339
42 -38 169 -106 235 -125 43 -13 56 -22 56 -37 0 -14 -7 -19 -30 -20 -16 0
-49 -11 -72 -24 -50 -30 -18 -38 -423 105 -168 59 -327 114 -355 122 -27 8
-68 23 -90 32 -66 30 -304 106 -310 99 -5 -5 42 -115 55 -128 3 -3 26 -36 52
-75 86 -128 109 -160 140 -192 29 -30 29 -32 11 -41 -11 -6 -51 -16 -89 -23
-75 -13 -147 -48 -167 -83 -6 -11 -19 -41 -28 -66 -14 -43 -20 -48 -110 -93
-52 -27 -146 -77 -209 -112 -63 -35 -169 -88 -235 -119 -66 -30 -140 -65 -164
-77 -64 -33 -276 -37 -411 -7 -87 18 -96 19 -127 4 -32 -15 -33 -17 -33 -79 0
-105 25 -153 114 -218 44 -33 68 -35 193 -17 72 10 89 10 136 -5 30 -9 77 -17
104 -17 45 0 54 4 78 31 14 18 35 49 46 70 10 21 29 44 42 50 12 7 39 27 61
45 52 45 140 73 266 85 120 11 188 25 245 49 34 14 44 15 70 4 48 -21 63 -17
79 21 8 19 21 35 28 35 7 0 58 -12 112 -25 115 -30 154 -27 51 3 -154 45 -234
59 -270 48 -27 -8 -33 -15 -29 -28 7 -24 -18 -24 -38 0 -19 20 -48 114 -48
152 0 38 79 252 101 273 31 29 53 19 25 -12 -75 -86 -102 -285 -45 -342 10
-10 28 -19 40 -19 19 0 19 2 -8 28 -39 35 -51 121 -28 197 26 88 104 189 148
191 80 3 97 5 109 17 10 10 34 11 108 5 120 -11 286 -7 283 7 -2 6 -76 12
-185 15 -155 4 -180 7 -163 18 20 13 20 13 -1 7 -16 -4 -31 8 -70 57 -98 122
-214 303 -214 333 0 13 46 2 137 -31 159 -59 346 -125 371 -131 25 -6 34 -20
74 -111 18 -43 23 -64 15 -67 -7 -2 -19 -5 -27 -8 -8 -2 10 -7 40 -11 30 -4
60 -12 67 -18 7 -6 20 -8 28 -4 8 3 15 1 15 -5 0 -7 12 -9 30 -7 17 3 30 1 30
-4 0 -4 9 -8 21 -8 38 0 9 -19 -60 -40 -38 -11 -76 -18 -84 -14 -8 3 -47 -8
-85 -25 -39 -17 -75 -31 -81 -31 -6 0 -11 -5 -11 -11 0 -6 8 -8 18 -5 129 37
168 47 232 60 41 8 101 16 134 18 79 4 86 -7 62 -101 -14 -53 -17 -89 -12
-153 3 -46 7 -93 7 -105 1 -13 5 -23 9 -23 11 0 27 46 46 130 25 114 100 240
136 228 5 -2 11 -28 13 -58 4 -68 28 -152 58 -205 14 -24 74 -83 151 -147
l128 -107 82 5 c132 8 186 15 186 24 0 4 -53 6 -118 3 -86 -4 -125 -2 -143 7
-13 7 -72 53 -130 102 -73 61 -115 105 -132 137 -31 55 -57 150 -57 202 0 42
-20 64 -50 54 -13 -4 -20 -2 -20 7 0 17 52 99 59 93 2 -3 19 6 37 20 31 24 55
31 66 20 3 -3 -5 -38 -18 -77 -30 -92 -30 -118 2 -182 35 -70 157 -229 208
-270 78 -64 121 -80 228 -84 75 -3 98 -8 98 -18 0 -8 4 -14 9 -14 16 0 68 25
67 32 -2 11 75 59 85 52 12 -7 -8 -34 -25 -34 -7 0 -21 -7 -32 -16 -18 -15
-18 -15 9 -9 15 3 27 2 27 -2 0 -5 -68 -75 -150 -157 -83 -82 -150 -154 -150
-159 0 -6 8 -3 18 5 9 8 39 27 65 41 63 34 67 22 32 -90 -70 -226 -196 -376
-342 -407 l-31 -7 -6 53 c-3 29 -8 110 -11 179 -3 69 -12 150 -19 180 -21 80
-78 199 -115 241 -33 38 -80 54 -226 76 -46 8 -50 7 -51 -12 0 -12 -4 -28 -8
-37 -5 -11 7 -24 46 -48 l52 -33 21 26 c11 14 25 26 31 26 6 0 43 -21 82 -46
l72 -46 -1 -51 c0 -29 -6 -83 -12 -122 -11 -64 -15 -70 -38 -73 -14 -2 -37 6
-53 19 -26 20 -28 26 -22 71 6 43 4 51 -18 73 -42 42 -102 30 -172 -35 -28
-25 -62 -45 -99 -55 -62 -18 -94 -47 -126 -112 -23 -48 -17 -69 30 -102 40
-29 75 -26 127 10 61 41 112 62 140 55 13 -4 49 -36 79 -73 48 -58 53 -69 41
-82 -7 -9 -19 -33 -25 -53 -12 -35 -10 -40 20 -85 41 -61 38 -57 46 -50 3 4
-8 25 -26 47 -29 36 -30 41 -14 46 58 18 80 57 126 224 48 175 48 172 37 231
-10 54 -6 75 10 49 18 -29 30 -118 39 -291 4 -97 13 -185 20 -197 17 -31 62
-28 140 8 35 17 66 29 68 26 5 -5 -83 -127 -101 -139 -7 -6 -6 -7 4 -5 22 6
108 115 206 261 68 100 84 130 75 141 -8 9 -8 21 -1 40 13 35 24 33 17 -3 -6
-26 -3 -31 32 -44 63 -26 301 -85 390 -98 75 -10 206 -7 219 5 4 5 -63 78
-342 371 l-149 156 41 42 c23 24 42 50 42 58 0 8 5 20 11 26 6 6 7 13 2 16 -9
6 -175 -17 -231 -32 -96 -26 -226 52 -357 214 -41 50 -75 98 -75 105 0 7 -3
10 -7 7 -3 -4 -17 9 -30 28 -16 24 -23 48 -23 83 0 54 18 163 28 174 4 4 18 2
32 -5 23 -12 25 -19 30 -107 3 -52 8 -102 10 -110 3 -10 -1 -14 -12 -12 -9 1
-22 -7 -28 -18 -7 -13 -7 -20 0 -20 5 0 10 5 10 10 0 6 7 10 15 10 8 0 31 -31
51 -73 41 -80 56 -79 24 2 -11 28 -20 61 -20 72 0 12 -9 34 -20 50 -18 24 -20
41 -18 106 l3 78 140 -2 140 -1 -125 8 c-69 4 -162 17 -208 29 -71 18 -98 33
-184 94 -146 104 -192 154 -229 251 l-31 80 18 51 c19 59 15 85 -20 138 -14
20 -23 37 -19 37 15 0 -24 33 -54 45 -18 8 -53 31 -78 52 -62 52 -63 91 -1
178 25 34 55 69 68 77 41 27 194 210 246 293 88 143 105 183 99 236 -3 26 -17
66 -31 88 -15 22 -26 46 -26 53 0 9 -3 9 -12 0 -8 -8 -9 -15 -3 -20 17 -12 33
-69 28 -96 -4 -19 -1 -26 11 -26 9 0 16 -6 16 -12 0 -24 -89 -198 -101 -198
-6 0 -20 11 -31 25 -11 14 -36 34 -56 43 -33 16 -37 23 -58 102 -12 47 -20 87
-17 90 3 3 30 -22 60 -55 31 -33 46 -45 34 -27 -12 17 -18 32 -13 32 11 0 31
-23 47 -52 11 -22 61 -55 70 -46 5 5 -27 44 -93 111 -15 15 -33 25 -41 22 -11
-4 -121 67 -121 79 0 2 18 -1 40 -6 49 -13 58 -6 37 26 -9 13 -13 26 -10 30 4
3 41 6 83 6 73 0 78 1 118 36 23 19 42 42 42 50 0 9 5 12 10 9 6 -3 10 -15 10
-26 0 -10 5 -19 11 -19 8 0 9 17 4 56 -6 54 -6 55 14 45 28 -15 50 -49 57 -88
3 -18 11 -33 16 -33 6 0 7 13 3 31 l-7 32 42 -34 c64 -51 140 -126 140 -138 0
-11 62 -78 67 -73 8 8 82 -28 95 -45 7 -10 22 -24 33 -31 11 -7 35 -22 53 -33
17 -12 32 -24 32 -28 0 -11 50 -32 61 -26 5 3 6 -1 3 -9 -3 -9 -2 -16 2 -16 5
-1 21 -11 37 -23 27 -23 27 -23 12 -66 -19 -55 -19 -64 1 -27 12 22 18 25 25
15 11 -18 19 -8 22 27 1 16 6 34 10 39 5 6 21 33 37 60 111 194 249 275 444
261 172 -11 263 -51 376 -165 42 -42 84 -87 94 -101 9 -14 14 -18 10 -10 -18
37 -70 106 -101 133 -18 16 -33 33 -33 39 0 18 61 98 71 92 5 -3 9 -2 8 3 -3
20 2 34 11 28 5 -3 8 0 5 7 -2 7 7 27 20 43 14 17 25 25 25 18 0 -6 -4 -15
-10 -18 -6 -3 -10 -11 -10 -17 0 -7 5 -7 14 1 11 9 15 9 19 -1 3 -7 6 -2 6 12
1 18 4 21 10 11 15 -24 31 -1 33 47 3 75 15 -256 17 -445 1 -148 -1 -173 -14
-173 -17 0 -20 -17 -4 -22 12 -4 34 -476 24 -487 -3 -3 -15 0 -25 7 -11 7 -22
12 -25 12 -3 0 -5 -26 -5 -57 -1 -105 -51 -174 -154 -209 -50 -17 -81 -13 -72
11 10 27 -3 16 -30 -24 -14 -22 -23 -44 -20 -49 3 -5 -4 -37 -15 -70 -17 -49
-32 -72 -76 -112 -96 -88 -248 -152 -386 -164 l-58 -5 -27 46 c-15 26 -39 60
-54 77 -28 33 -26 33 -43 -19 -7 -23 -18 -19 -92 31 -99 67 -176 147 -214 221
-27 54 -33 78 -37 149 -4 73 -1 97 23 169 28 88 44 111 70 101 24 -9 18 -84
-11 -156 -21 -52 -25 -74 -19 -115 3 -27 10 -57 16 -65 8 -11 9 -9 4 9 -13 45
-8 135 9 169 18 35 36 42 36 14 0 -48 68 -190 143 -299 62 -91 112 -136 185
-169 52 -24 66 -25 149 -21 62 4 107 12 138 26 57 25 72 26 54 4 -33 -39 -89
-53 -221 -53 -113 0 -156 -8 -129 -24 4 -3 65 -6 135 -7 l126 -1 64 36 c60 34
106 76 142 132 9 13 15 26 13 28 -2 3 -54 -20 -114 -51 -107 -53 -114 -55
-210 -60 -89 -5 -106 -3 -153 17 -67 29 -125 93 -199 218 -66 114 -89 174
-112 302 l-17 95 -42 0 c-36 0 -47 5 -70 34 -101 127 -96 234 18 351 73 75
121 74 150 -3 19 -51 33 -77 40 -77 4 0 12 24 18 53 6 28 14 60 17 70 4 10 3
17 -4 17 -6 0 -13 -11 -17 -25 -7 -27 -24 -34 -24 -11 0 21 -63 66 -92 66 -14
0 -37 -9 -51 -20 -22 -18 -30 -19 -81 -8 -47 9 -63 18 -91 51 -40 47 -44 41
-14 -20 11 -24 23 -70 26 -103 8 -80 -14 -129 -77 -175 l-47 -35 19 -57 c15
-45 19 -78 16 -149 -3 -105 -14 -124 -86 -155 -75 -33 -136 -34 -232 -4 -128
39 -126 39 -115 27 19 -20 195 -93 262 -108 191 -44 218 -64 247 -180 33 -133
116 -234 236 -291 35 -17 57 -33 55 -40 -6 -16 1 -16 58 1 28 8 49 10 53 5 3
-5 7 -51 10 -102 2 -50 9 -132 16 -180 12 -96 21 -107 87 -107 48 0 65 -30 59
-105 -3 -36 -11 -72 -18 -80 -11 -13 -10 -14 2 -10 8 3 21 20 29 38 15 33 140
127 171 127 9 0 139 -71 290 -157 338 -193 588 -329 755 -408 11 -5 67 -33
124 -61 309 -153 497 -243 519 -249 14 -4 39 -15 55 -25 17 -9 53 -25 80 -35
78 -27 173 -71 265 -120 19 -10 40 -20 46 -21 5 -1 30 -11 55 -22 28 -14 37
-21 24 -22 -16 0 -17 -2 -5 -10 9 -6 17 -5 22 3 5 8 16 7 43 -6 20 -9 48 -17
63 -16 l27 1 -30 10 c-129 43 -242 94 -350 156 -11 6 -73 32 -138 57 -66 25
-126 50 -135 55 -10 5 -89 43 -177 86 -401 193 -684 334 -735 364 -30 18 -101
57 -157 86 -56 29 -144 78 -195 110 -115 70 -190 114 -293 172 -44 24 -90 51
-103 59 l-22 14 27 25 28 25 -39 -26 c-21 -14 -48 -25 -60 -25 -12 0 -41 -14
-66 -30 -25 -16 -49 -30 -55 -30 -5 1 -19 20 -30 43 -19 39 -23 42 -67 47 -26
3 -51 9 -55 14 -24 23 -45 257 -25 270 5 3 31 -2 58 -10 27 -9 87 -16 134 -17
125 -2 217 33 283 105 161 177 217 260 217 321 0 31 18 47 52 47 16 0 42 7 57
14 32 17 44 15 159 -22 61 -20 82 -31 82 -44 0 -38 -198 -161 -361 -224 -55
-21 -76 -39 -34 -30 17 4 107 32 200 63 164 53 283 109 498 230 l77 44 68 -22
c135 -44 137 -46 101 -85 -14 -15 -22 -40 -26 -81 -6 -69 8 -105 58 -147 17
-15 30 -29 27 -31 -2 -2 -21 0 -43 5 -22 5 -41 7 -43 6 -2 -2 15 -17 37 -32
22 -16 39 -35 36 -41 -5 -16 10 -16 93 -2 l64 11 24 -28 c13 -16 24 -38 24
-49 1 -24 19 -49 43 -58 9 -4 19 -12 21 -19 2 -7 10 -34 17 -60 7 -27 17 -48
21 -48 4 0 8 -9 8 -20 0 -11 -4 -20 -10 -20 -5 0 -10 9 -10 19 0 11 -4 23 -10
26 -14 8 -13 -2 5 -63 9 -29 20 -50 26 -46 5 3 7 14 4 25 -4 10 -2 19 3 19 9
0 26 -50 38 -114 5 -28 4 -37 -5 -32 -6 4 -11 1 -11 -8 0 -8 5 -18 10 -21 6
-3 10 -15 10 -26 0 -10 5 -19 11 -19 14 0 38 -30 39 -49 0 -8 -8 -3 -20 10
l-19 24 -1 -22 c0 -12 5 -25 10 -28 6 -3 10 -15 10 -26 0 -10 5 -19 11 -19 6
0 9 9 6 20 -8 32 13 23 24 -10 6 -16 15 -30 21 -30 6 0 7 8 3 18 -4 9 -10 25
-12 35 -3 9 -8 17 -12 17 -4 0 -8 10 -9 23 -2 28 -171 530 -181 537 -13 10
-30 49 -23 53 4 2 28 10 55 17 26 7 47 17 47 22 0 5 -8 7 -17 4 -101 -30 -170
-45 -190 -40 -34 9 -28 24 10 24 19 0 83 15 143 33 112 35 179 51 249 62 41 6
73 20 65 29 -11 10 -237 -35 -332 -67 -57 -19 -126 -38 -154 -41 l-51 -6 -46
49 c-46 49 -47 52 -47 113 0 69 13 97 66 142 25 21 42 26 83 26 28 0 51 5 51
10 0 6 -12 10 -28 10 l-27 0 -228 682 c-125 375 -225 683 -223 685 3 3 219
-325 614 -934 251 -386 287 -444 287 -457 0 -7 16 -10 43 -8 45 3 49 -3 31
-42 -6 -13 -9 -36 -5 -51 8 -31 86 -108 127 -125 52 -22 30 -37 -45 -31 -38 3
-225 -19 -251 -30 -11 -5 11 -5 50 -1 39 4 106 7 150 7 69 0 85 -3 110 -23 16
-13 35 -35 42 -50 19 -38 34 -61 68 -107 16 -22 30 -42 32 -44 2 -2 5 -2 8 1
3 2 -6 18 -20 34 -14 16 -25 34 -25 41 0 7 -8 20 -18 30 -11 10 -22 26 -25 35
-8 24 20 24 46 1 19 -17 20 -17 8 4 -6 12 -7 24 -3 27 5 3 96 1 203 -5 107 -5
219 -6 249 -2 30 4 62 6 70 4 8 -1 45 -32 83 -69 l67 -66 0 40 c0 32 -6 46
-30 69 -34 33 -38 52 -13 70 15 11 6 25 -86 125 -71 79 -99 116 -92 123 6 6
10 31 9 56 l-1 46 -4 -45 c-3 -31 -11 -50 -26 -62 -17 -14 -19 -18 -6 -18 22
0 189 -187 189 -211 0 -37 -29 -18 -120 79 -50 53 -103 104 -118 113 -36 21
-39 43 -10 79 80 103 81 105 12 53 -17 -13 -36 -23 -42 -23 -7 0 -12 -4 -12
-10 0 -5 5 -10 10 -10 6 0 10 -4 10 -10 0 -5 -7 -10 -15 -10 -8 0 -15 5 -15
10 0 6 -10 8 -23 5 -15 -4 -28 0 -37 10 -12 15 -12 21 3 46 l17 30 -30 -17
c-24 -15 -31 -15 -44 -5 -21 18 -20 38 3 53 19 11 19 12 -1 39 -11 15 -17 32
-14 38 9 14 3 14 -29 -1 -26 -12 -33 -32 -14 -44 16 -9 4 -100 -16 -131 -21
-31 -14 -40 10 -13 10 11 23 20 29 20 20 0 99 -88 93 -103 -4 -10 0 -13 12
-10 12 3 47 -28 119 -105 56 -60 102 -112 102 -115 0 -13 -132 -17 -295 -7
-215 12 -214 12 -231 35 -21 28 -6 38 47 32 27 -3 49 -4 49 -3 0 2 -15 19 -33
38 l-34 33 4 85 c5 95 23 170 60 248 20 42 22 56 13 67 -19 23 -43 19 -35 -5
4 -12 -6 -53 -25 -103 -42 -107 -60 -279 -34 -309 50 -54 -37 -14 -109 51 -64
58 -82 115 -54 174 14 32 27 35 27 8 0 -29 21 -37 37 -15 19 25 76 211 70 227
-5 14 -7 9 -29 -63 -9 -33 -18 -45 -32 -45 -11 0 -22 -7 -24 -15 -3 -8 -12
-21 -20 -30 -14 -13 -15 -13 -10 8 3 12 2 22 -3 22 -5 0 -9 -5 -9 -11 0 -6 -7
-17 -15 -25 -8 -9 -15 -26 -15 -40 0 -13 -4 -24 -8 -24 -5 0 -46 62 -92 138
-73 119 -230 374 -350 567 -159 255 -280 458 -276 462 3 3 15 -6 28 -19 102
-106 841 -890 863 -916 27 -33 28 -33 11 -74 -25 -64 -12 -56 17 11 15 34 36
65 49 72 19 10 20 13 7 18 -9 3 -59 52 -110 107 -161 174 -489 523 -872 927
l-367 387 20 40 c23 46 36 56 47 36 4 -7 47 -56 94 -107 47 -52 139 -155 204
-229 66 -74 167 -187 225 -250 58 -63 171 -187 250 -275 80 -88 204 -223 276
-300 72 -77 162 -175 200 -217 37 -43 70 -76 72 -73 3 2 -1 11 -8 20 -10 12
-9 16 4 21 25 10 19 25 -8 18 -25 -6 -61 32 -470 485 -82 91 -238 263 -346
381 -188 206 -378 419 -448 500 -20 24 -28 41 -22 45 7 5 5 12 -7 22 -10 8
-13 12 -8 10 6 -3 9 12 6 39 -4 53 19 97 47 88 14 -5 15 -4 2 5 -13 9 -9 14
10 13 3 0 6 10 6 23 l2 24 -22 -23 c-11 -12 -15 -15 -8 -6 6 9 12 20 12 23 0
4 -91 7 -202 7 l-202 0 -34 -32 c-25 -25 -31 -28 -26 -13 4 11 11 26 17 33 18
23 -15 13 -39 -13 -28 -31 -40 -31 -134 0 -74 25 -76 25 -450 24 -206 0 -368
-3 -360 -6 8 -3 18 -12 23 -19 4 -7 15 -11 25 -7 14 5 14 3 -2 -9 -17 -13 -17
-15 -2 -21 21 -8 21 -23 -1 -32 -10 -4 -88 -15 -173 -26 -85 -10 -209 -26
-275 -36 -142 -20 -206 -19 -240 3 -30 20 -31 45 -5 103 11 24 20 45 20 47 0
2 -22 4 -50 4 l-50 0 0 -51 c0 -45 -4 -55 -34 -85 -26 -26 -42 -34 -70 -34
-20 0 -36 4 -36 9 0 5 -21 43 -47 85 -29 49 -52 76 -64 76 -15 0 -11 -13 25
-77z m2272 -175 c-41 -74 -46 -79 -46 -51 0 30 49 152 73 182 10 12 13 9 15
-17 2 -23 -10 -55 -42 -114z m-1679 86 c-3 -3 -12 -4 -19 -1 -8 3 -5 6 6 6 11
1 17 -2 13 -5z m-37 -20 c0 -2 -7 -4 -15 -4 -8 0 -15 4 -15 10 0 5 7 7 15 4 8
-4 15 -8 15 -10z m53 -11 c-7 -2 -19 -2 -25 0 -7 3 -2 5 12 5 14 0 19 -2 13
-5z m-140 -10 c-13 -2 -33 -2 -45 0 -13 2 -3 4 22 4 25 0 35 -2 23 -4z m-110
-10 c-7 -2 -19 -2 -25 0 -7 3 -2 5 12 5 14 0 19 -2 13 -5z m1245 -20 c-10 -2
-26 -2 -35 0 -10 3 -2 5 17 5 19 0 27 -2 18 -5z m-171 -9 c-3 -3 -12 -4 -19
-1 -8 3 -5 6 6 6 11 1 17 -2 13 -5z m-810 -50 c-3 -3 -12 -4 -19 -1 -8 3 -5 6
6 6 11 1 17 -2 13 -5z m-94 -11 c3 -5 -17 -9 -45 -10 -30 -2 -47 1 -43 7 7 12
82 14 88 3z m54 1 c-3 -3 -12 -4 -19 -1 -8 3 -5 6 6 6 11 1 17 -2 13 -5z m843
-8 c0 -18 -30 -37 -105 -66 -70 -28 -87 -39 -79 -51 3 -5 -1 -6 -9 -3 -23 9
-156 -64 -142 -77 2 -2 -6 -5 -18 -6 -61 -4 -143 -34 -130 -47 4 -4 -1 -4 -12
0 -14 6 -17 4 -12 -8 5 -15 -6 -24 -31 -29 -4 0 -16 -6 -26 -11 -18 -10 -18
-11 -3 -23 16 -12 16 -13 1 -19 -9 -3 -21 -3 -27 1 -7 3 -9 3 -5 -2 7 -8 -182
-105 -204 -105 -5 0 -28 16 -50 35 -23 19 -46 32 -52 28 -6 -3 -8 -3 -4 2 4 4
-32 48 -80 97 -48 49 -86 96 -84 103 1 8 -20 31 -48 51 -27 20 -50 44 -50 53
0 22 52 69 58 53 2 -7 8 -12 13 -12 6 0 8 4 5 9 -3 4 33 7 79 6 54 -2 83 1 79
7 -4 7 8 8 34 3 23 -3 49 -2 59 4 11 5 25 6 32 1 11 -6 10 -9 -4 -11 -10 -2
65 -5 166 -7 101 -2 191 -5 199 -7 8 -3 78 6 155 19 164 28 295 34 295 12z
m-1057 -3 c-13 -2 -35 -2 -50 0 -16 2 -5 4 22 4 28 0 40 -2 28 -4z m-100 -10
c-7 -2 -19 -2 -25 0 -7 3 -2 5 12 5 14 0 19 -2 13 -5z m-23 -55 c0 -6 -6 -5
-15 2 -8 7 -15 14 -15 16 0 2 7 1 15 -2 8 -4 15 -11 15 -16z m1441 -101 c-10
-9 -11 -8 -5 6 3 10 9 15 12 12 3 -3 0 -11 -7 -18z m-181 3 c-8 -5 -22 -9 -30
-9 -10 0 -8 3 5 9 27 12 43 12 25 0z m67 4 c-3 -3 -12 -4 -19 -1 -8 3 -5 6 6
6 11 1 17 -2 13 -5z m19 -37 c3 -3 1 -14 -4 -24 -8 -13 -6 -24 8 -40 10 -12
21 -19 25 -15 5 4 5 1 1 -6 -4 -7 -12 -9 -18 -6 -8 5 -9 1 -5 -10 4 -11 3 -15
-4 -11 -6 4 -8 13 -6 19 3 7 1 19 -4 27 -5 8 -9 10 -10 4 -7 -52 -7 -64 1 -62
4 1 7 -2 7 -8 -1 -5 -7 -9 -14 -7 -7 2 -13 -2 -13 -8 0 -5 5 -10 11 -10 8 0 8
-5 -1 -15 -13 -15 -35 -21 -26 -7 3 5 -40 7 -94 6 -76 -2 -111 -8 -152 -26
-77 -33 -134 -66 -157 -91 -53 -59 -91 -106 -120 -149 -23 -35 -39 -48 -55
-48 -40 0 -229 155 -223 183 1 6 11 16 22 22 35 18 153 66 169 69 9 1 22 8 28
14 14 14 32 16 24 3 -8 -12 53 2 84 20 14 7 29 12 33 11 4 -1 36 11 70 28 34
16 72 30 85 30 13 0 20 4 17 10 -5 8 8 14 18 9 1 -1 21 8 44 20 23 11 48 21
55 21 7 0 27 7 43 16 64 35 143 50 161 31z m-176 -21 c0 -2 -7 -7 -16 -10 -8
-3 -12 -2 -9 4 6 10 25 14 25 6z m230 -32 c0 -8 -19 -13 -24 -6 -3 5 1 9 9 9
8 0 15 -2 15 -3z m-655 -24 c-3 -5 -12 -10 -18 -10 -7 0 -6 4 3 10 19 12 23
12 15 0z m1224 -45 c20 -46 105 -274 186 -500 26 -71 107 -296 181 -499 82
-227 130 -374 125 -379 -6 -6 -41 1 -91 17 -45 14 -90 26 -101 26 -21 0 -373
175 -388 193 -10 13 3 1010 15 1103 4 39 10 51 22 50 11 -1 17 6 16 21 -1 31
12 19 35 -32z m-959 41 c0 -2 -11 -6 -25 -8 -13 -3 -22 -1 -19 3 5 9 44 13 44
5z m-310 -11 c0 -2 -10 -9 -22 -15 -22 -11 -22 -10 -4 4 21 17 26 19 26 11z
m124 -63 c-11 -10 -33 -22 -49 -26 -24 -5 -21 -2 15 18 55 30 59 31 34 8z
m1006 -1119 c12 -16 19 -22 15 -15 -4 7 8 4 27 -8 74 -44 265 -138 296 -145
44 -9 40 -27 -11 -48 -86 -35 -299 2 -303 53 -1 8 -2 25 -2 38 -1 14 -8 22
-19 22 -12 0 -14 -3 -6 -8 7 -4 11 -17 11 -28 -2 -24 -31 -22 -67 5 -24 18
-24 19 -8 60 10 23 17 52 17 65 0 44 20 47 50 9z m-2155 -613 c164 -64 218
-88 200 -91 -57 -8 -316 17 -329 32 -15 17 -55 112 -51 120 4 5 9 7 13 5 4 -2
79 -32 167 -66z m295 -80 c0 -5 9 -10 20 -10 11 0 20 -2 20 -4 0 -10 -73 -132
-94 -157 -13 -15 -32 -49 -41 -74 -34 -89 -37 -44 -5 77 11 42 10 51 -4 73
-17 26 -57 42 -75 30 -6 -3 -11 -2 -11 4 0 6 19 15 43 21 23 6 56 17 72 24 62
28 75 30 75 16z m2717 -22 c-3 -8 -6 -5 -6 6 -1 11 2 17 5 13 3 -3 4 -12 1
-19z m-1940 -679 c-4 -17 -3 -19 6 -10 25 25 60 11 119 -49 32 -33 58 -64 58
-68 0 -5 23 -28 51 -53 27 -24 71 -66 97 -93 26 -27 73 -75 105 -106 32 -31
54 -59 51 -63 -13 -12 -139 -7 -225 9 -98 18 -240 54 -254 64 -5 4 -25 10 -44
14 -47 8 -62 23 -55 52 4 15 2 24 -5 24 -6 0 -11 7 -11 15 0 9 9 15 24 15 19
0 28 -8 37 -35 12 -34 29 -47 29 -24 0 9 -33 78 -48 99 -2 2 -7 -2 -12 -10
-15 -25 -19 -7 -7 37 8 33 8 47 -2 66 -15 28 -11 37 39 95 39 45 55 52 47 21z
m-672 -10 c10 -31 1 -32 -25 -4 -23 25 -23 25 -2 25 12 0 23 -8 27 -21z"></path>
<path d="M4933 3241 c-14 -23 -5 -35 14 -20 14 12 18 39 5 39 -4 0 -13 -9 -19
-19z"></path>
<path d="M2431 3867 c-1 -4 5 -20 13 -35 20 -38 56 -151 56 -174 0 -11 -5 -18
-12 -15 -7 2 -28 0 -46 -5 -23 -7 -38 -6 -48 2 -8 7 -21 9 -31 4 -10 -4 -42
-6 -71 -5 -53 3 -53 3 -49 -26 2 -17 11 -29 21 -31 14 -3 17 1 11 17 -8 25 0
27 21 6 18 -17 35 -18 122 -5 79 11 106 2 122 -42 7 -18 14 -28 17 -22 5 15
-54 187 -95 274 -17 36 -31 61 -31 57z"></path>
<path d="M5617 3863 c-12 -11 -8 -23 8 -23 8 0 15 7 15 15 0 16 -12 20 -23 8z"></path>
<path d="M5473 3767 c-15 -13 -41 -31 -58 -42 -19 -12 -25 -20 -16 -23 7 -2
26 5 42 17 15 11 32 21 37 21 5 0 19 11 32 25 31 33 4 35 -37 2z"></path>
<path d="M2580 3632 c0 -15 17 -70 39 -122 21 -52 43 -111 50 -131 12 -37 51
-83 51 -60 0 7 -21 63 -46 124 -25 62 -53 136 -63 164 -18 58 -31 69 -31 25z"></path>
<path d="M5295 3629 c-4 -6 -5 -13 -2 -16 7 -7 27 6 27 18 0 12 -17 12 -25 -2z"></path>
<path d="M1930 3609 c-96 -11 -198 -19 -227 -19 -28 1 -54 -4 -58 -10 -5 -7
-21 -9 -47 -5 -29 5 -43 3 -49 -6 -14 -23 -10 -39 10 -39 28 0 52 11 45 21 -3
5 2 9 10 9 9 0 16 -4 16 -9 0 -5 26 -7 58 -4 31 3 83 5 115 5 31 0 57 4 57 9
0 5 9 9 20 9 11 0 20 5 20 10 0 6 7 10 15 10 8 0 15 -7 15 -16 0 -14 7 -15 38
-10 20 3 56 6 78 6 33 0 43 4 47 20 4 15 14 20 41 20 20 0 36 5 36 10 0 13
-29 12 -240 -11z"></path>
<path d="M1440 3559 c0 -7 -26 -8 -80 -3 -102 8 -108 -9 -9 -27 50 -9 73 -9
77 -2 4 6 20 13 36 15 41 4 46 28 7 28 -17 0 -31 -5 -31 -11z"></path>
<path d="M2570 3485 c0 -5 5 -17 10 -25 5 -8 10 -10 10 -5 0 6 -5 17 -10 25
-5 8 -10 11 -10 5z"></path>
<path d="M3130 3260 c0 -5 5 -10 10 -10 6 0 10 5 10 10 0 6 -4 10 -10 10 -5 0
-10 -4 -10 -10z"></path>
<path d="M2880 3226 c-68 -18 -80 -26 -80 -52 0 -30 18 -32 22 -1 2 17 10 23
38 25 42 3 90 21 90 33 0 11 -12 10 -70 -5z"></path>
<path d="M3170 3155 c0 -12 60 -124 70 -130 5 -3 22 5 37 19 15 14 39 28 54
31 15 4 30 13 33 20 3 9 13 12 23 9 15 -5 15 -4 3 5 -11 7 -21 6 -37 -4 -12
-8 -31 -15 -42 -15 -11 0 -23 -4 -26 -10 -3 -5 -15 -10 -26 -10 -12 0 -17 4
-14 11 4 6 -2 13 -13 16 -11 3 -26 18 -32 34 -11 25 -30 40 -30 24z"></path>
<path d="M3315 3130 c-3 -5 -1 -10 4 -10 6 0 11 5 11 10 0 6 -2 10 -4 10 -3 0
-8 -4 -11 -10z"></path>
<path d="M3270 3100 c0 -13 11 -13 30 0 12 8 11 10 -7 10 -13 0 -23 -4 -23
-10z"></path>
<path d="M2980 3070 c0 -5 5 -10 10 -10 6 0 10 5 10 10 0 6 -4 10 -10 10 -5 0
-10 -4 -10 -10z"></path>
<path d="M4140 3052 c0 -5 8 -17 19 -26 16 -15 19 -15 24 -2 4 10 -1 20 -13
26 -23 12 -30 13 -30 2z"></path>
<path d="M4260 3040 c0 -5 5 -10 10 -10 6 0 10 5 10 10 0 6 -4 10 -10 10 -5 0
-10 -4 -10 -10z"></path>
<path d="M4024 2972 c-80 -45 -100 -77 -29 -48 21 9 57 16 81 16 38 0 51 -6
88 -40 24 -22 46 -40 49 -40 3 0 -6 21 -20 46 -43 77 -105 101 -169 66z"></path>
<path d="M3300 2941 c0 -6 4 -13 10 -16 6 -3 7 1 4 9 -7 18 -14 21 -14 7z"></path>
<path d="M4280 2860 c6 -11 13 -20 16 -20 2 0 0 9 -6 20 -6 11 -13 20 -16 20
-2 0 0 -9 6 -20z"></path>
<path d="M4607 2844 c-3 -19 -1 -24 12 -22 21 4 26 34 8 41 -10 4 -17 -3 -20
-19z"></path>
<path d="M4553 2743 c-24 -8 -43 -18 -43 -21 0 -4 29 -7 64 -7 71 0 103 -19
126 -76 17 -40 30 -36 20 6 -12 51 -37 85 -75 101 -40 17 -38 17 -92 -3z"></path>
<path d="M4340 2735 c0 -8 7 -15 15 -15 8 0 15 4 15 9 0 5 -7 11 -15 15 -9 3
-15 0 -15 -9z"></path>
<path d="M3538 2717 c-54 -44 -96 -117 -68 -117 6 0 10 6 10 14 0 8 16 24 36
36 27 17 38 20 47 11 9 -9 8 -15 -6 -22 -102 -58 -100 -166 4 -183 51 -8 64 2
48 36 -9 22 -8 30 10 54 21 29 21 29 2 100 -27 105 -34 111 -83 71z m62 -107
c8 -15 7 -27 -5 -49 -8 -17 -15 -39 -15 -50 0 -29 -17 -35 -45 -17 -38 25 -33
64 12 103 21 18 39 32 40 33 1 0 7 -9 13 -20z"></path>
<path d="M3924 2722 c-69 -33 -104 -101 -90 -177 9 -48 30 -46 24 3 -13 105
96 195 196 162 40 -13 96 -71 96 -100 0 -11 5 -20 10 -20 27 0 -18 91 -62 123
-39 29 -122 33 -174 9z"></path>
<path d="M4000 2587 c-38 -19 -64 -79 -53 -125 8 -33 13 -37 42 -40 54 -5 76
5 94 44 18 37 14 64 -4 31 -14 -25 -38 -21 -45 8 -10 39 2 58 31 51 27 -7 33
5 13 22 -24 18 -53 22 -78 9z m9 -141 c-11 -12 -32 6 -35 29 -2 12 2 12 21 -3
15 -10 20 -21 14 -26z"></path>
<path d="M1990 2576 c0 -2 8 -10 18 -17 15 -13 16 -12 3 4 -13 16 -21 21 -21
13z"></path>
<path d="M4770 2560 c0 -5 5 -10 10 -10 6 0 10 5 10 10 0 6 -4 10 -10 10 -5 0
-10 -4 -10 -10z"></path>
<path d="M4150 2550 c0 -5 5 -10 10 -10 6 0 10 5 10 10 0 6 -4 10 -10 10 -5 0
-10 -4 -10 -10z"></path>
<path d="M4453 2500 c-38 -15 -26 -21 31 -14 51 6 57 5 84 -23 41 -40 59 -126
38 -177 -8 -19 -24 -41 -35 -48 -24 -15 -27 -28 -8 -28 8 0 28 21 47 46 29 41
32 51 27 94 -7 58 -38 123 -69 144 -24 17 -80 20 -115 6z"></path>
<path d="M4385 2449 c-11 -17 1 -21 15 -4 8 9 8 15 2 15 -6 0 -14 -5 -17 -11z"></path>
<path d="M4397 2400 c-26 -21 -50 -81 -41 -103 2 -7 21 -22 40 -35 l36 -24 25
24 c29 27 47 57 39 65 -3 3 -13 0 -21 -7 -22 -18 -37 0 -33 36 2 23 8 29 26
28 27 -1 29 12 3 26 -29 15 -45 12 -74 -10z m-4 -65 c-3 -9 -8 -14 -10 -11 -3
3 -2 9 2 15 9 16 15 13 8 -4z m21 -40 c18 -14 18 -15 2 -21 -11 -4 -22 -1 -27
7 -19 31 -6 38 25 14z"></path>
<path d="M4716 2411 c-4 -7 -5 -15 -2 -18 9 -9 19 4 14 18 -4 11 -6 11 -12 0z"></path>
<path d="M6535 2350 c-3 -5 3 -10 14 -10 12 0 21 5 21 10 0 6 -6 10 -14 10 -8
0 -18 -4 -21 -10z"></path>
<path d="M6590 2352 c0 -4 9 -13 20 -20 22 -13 27 -3 8 16 -14 14 -28 16 -28
4z"></path>
<path d="M4683 2333 c-3 -10 -8 -22 -11 -28 -3 -5 4 -1 16 9 24 20 28 36 12
36 -6 0 -13 -8 -17 -17z"></path>
<path d="M4735 2320 c3 -5 8 -10 11 -10 2 0 4 5 4 10 0 6 -5 10 -11 10 -5 0
-7 -4 -4 -10z"></path>
<path d="M6505 2300 c-16 -11 -38 -20 -47 -20 -12 0 -18 -8 -18 -21 0 -12 -8
-28 -17 -35 -10 -7 -15 -16 -11 -20 4 -4 13 -3 20 3 7 5 33 16 56 23 34 11 48
11 63 2 10 -7 19 -8 19 -3 0 6 -4 13 -10 16 -5 3 -10 22 -10 41 0 39 -4 41
-45 14z"></path>
<path d="M4055 2296 c-18 -13 -16 -46 4 -46 6 0 8 7 5 15 -4 8 -1 22 6 30 15
19 10 19 -15 1z"></path>
<path d="M6630 2277 c0 -13 -5 -28 -12 -35 -15 -15 -11 -18 39 -25 33 -4 40
-2 36 9 -3 8 -14 14 -24 14 -14 0 -19 7 -19 30 0 17 -4 30 -10 30 -5 0 -10
-10 -10 -23z"></path>
<path d="M4750 2280 c0 -5 5 -10 10 -10 6 0 10 5 10 10 0 6 -4 10 -10 10 -5 0
-10 -4 -10 -10z"></path>
<path d="M4678 2249 c-10 -5 -18 -7 -18 -3 0 3 -6 1 -14 -6 -8 -6 -25 -42 -37
-78 -12 -37 -33 -89 -47 -117 -16 -32 -19 -45 -9 -37 10 9 28 11 50 7 33 -6
38 -4 66 36 37 50 41 99 10 130 -22 22 -19 49 5 49 8 0 22 -10 30 -22 20 -28
31 -17 19 19 -11 31 -29 38 -55 22z m-7 -103 c13 -29 -4 -77 -33 -95 -31 -19
-38 -4 -21 47 8 26 16 53 19 60 6 20 24 14 35 -12z"></path>
<path d="M3787 2243 c-13 -13 -7 -69 19 -163 54 -200 135 -290 259 -290 49 0
132 46 210 115 89 80 111 110 94 131 -16 20 -29 18 -29 -5 0 -23 -36 -51 -65
-51 -29 0 -62 25 -46 34 6 4 19 2 27 -5 8 -6 17 -9 21 -5 18 17 -107 80 -203
102 -38 8 -83 19 -100 25 -40 12 -71 12 -79 -1 -8 -12 -46 -3 -57 14 -4 6 -8
30 -8 52 0 29 -5 44 -16 48 -19 7 -19 7 -27 -1z m298 -237 c69 -31 98 -56 116
-98 15 -37 5 -48 -76 -78 -110 -40 -207 6 -236 112 -7 29 -7 43 2 54 6 8 8 14
3 14 -5 0 0 8 11 16 29 22 107 14 180 -20z"></path>
<path d="M4090 2240 c0 -5 6 -10 14 -10 8 0 23 -3 33 -7 16 -6 16 -5 4 10 -15
18 -51 23 -51 7z"></path>
<path d="M3850 2222 c0 -5 24 -14 53 -21 28 -6 62 -14 75 -17 12 -4 22 -2 22
3 0 5 -31 17 -69 26 -80 20 -81 20 -81 9z"></path>
<path d="M4280 2199 c0 -11 5 -17 10 -14 6 3 10 13 10 21 0 8 -4 14 -10 14 -5
0 -10 -9 -10 -21z"></path>
<path d="M6586 2183 c9 -37 8 -36 30 -11 10 12 14 18 8 15 -7 -4 -14 0 -18 8
-10 27 -27 17 -20 -12z"></path>
<path d="M4090 2162 c0 -10 41 -24 49 -17 6 7 0 11 -26 19 -13 4 -23 3 -23 -2z"></path>
<path d="M6693 2118 c-24 -32 -24 -41 0 -19 15 14 27 26 27 28 0 8 -19 2 -27
-9z"></path>
<path d="M6580 2113 c0 -3 7 -15 16 -25 14 -15 15 -20 3 -34 -13 -16 -12 -16
9 -5 26 14 26 15 6 46 -15 23 -34 33 -34 18z"></path>
<path d="M4266 2091 c5 -5 20 -12 34 -16 24 -7 24 -7 5 9 -21 16 -56 23 -39 7z"></path>
<path d="M6629 2024 c-23 -25 -23 -26 -2 -15 23 12 38 29 31 37 -3 2 -15 -8
-29 -22z"></path>
<path d="M3587 1915 c3 -16 12 -41 19 -55 16 -32 120 -132 161 -156 39 -21 59
-9 23 15 -13 9 -40 29 -58 45 -18 16 -47 36 -63 45 -31 17 -47 39 -73 101 -14
33 -15 33 -9 5z"></path>
<path d="M6150 1901 c0 -6 5 -13 10 -16 6 -3 10 1 10 9 0 9 -4 16 -10 16 -5 0
-10 -4 -10 -9z"></path>
<path d="M6190 1899 c0 -9 9 -27 20 -40 26 -32 27 -3 0 31 -15 19 -20 21 -20
9z"></path>
<path d="M5370 1880 c-9 -6 -10 -10 -3 -10 6 0 15 5 18 10 8 12 4 12 -15 0z"></path>
<path d="M5253 1866 c-13 -6 -23 -15 -23 -19 0 -5 -23 -29 -51 -54 -42 -39
-50 -51 -47 -77 4 -37 42 -65 119 -89 72 -22 88 -24 88 -12 0 6 -38 24 -86 42
-105 39 -112 45 -93 80 15 27 136 121 157 122 6 1 15 6 18 11 8 13 -54 11 -82
-4z"></path>
<path d="M6177 1851 c3 -10 16 -30 31 -43 l25 -23 -19 33 c-24 43 -44 61 -37
33z"></path>
<path d="M5329 1834 c-20 -25 -24 -125 -6 -161 18 -35 47 -62 47 -44 0 7 -7
26 -16 43 -16 31 -16 107 1 156 9 26 -6 30 -26 6z"></path>
<path d="M6255 1800 c10 -11 20 -20 23 -20 3 0 -3 9 -13 20 -10 11 -20 20 -23
20 -3 0 3 -9 13 -20z"></path>
<path d="M6552 1787 c-25 -27 -30 -46 -6 -27 15 13 38 50 31 50 -2 0 -13 -10
-25 -23z"></path>
<path d="M5983 1751 c-35 -9 -63 -19 -63 -23 0 -5 24 -8 53 -8 53 0 103 22 92
41 -7 11 -3 11 -82 -10z"></path>
<path d="M6371 1713 c6 -6 21 -14 34 -17 24 -6 35 -26 15 -26 -5 0 -10 -4 -10
-9 0 -4 17 -7 38 -6 52 3 52 3 52 20 0 11 -8 13 -30 9 -24 -5 -30 -3 -30 10 0
13 7 17 32 14 19 -2 33 2 36 10 3 10 -12 13 -71 10 -55 -2 -73 -6 -66 -15z"></path>
<path d="M4899 1639 l-24 -20 28 17 c15 9 27 18 27 20 0 8 -8 4 -31 -17z"></path>
<path d="M5825 1605 c-39 -17 -21 -18 25 0 19 7 28 14 20 14 -8 0 -28 -6 -45
-14z"></path>
<path d="M4913 1581 c-113 -15 -126 -19 -170 -52 -26 -20 -84 -60 -127 -90
l-80 -54 39 -3 c22 -2 80 3 130 12 102 17 155 18 156 2 0 -6 4 -2 8 9 6 13 25
25 54 32 55 15 153 59 226 103 54 31 56 32 114 20 67 -13 89 -7 31 9 -128 34
-202 36 -381 12z"></path>
<path d="M5370 1535 c19 -7 44 -14 55 -14 11 0 0 7 -25 15 -57 17 -77 17 -30
-1z"></path>
<path d="M3625 1496 c-55 -23 -143 -55 -195 -70 -107 -32 -122 -38 -127 -53
-5 -14 31 -7 152 29 148 44 348 141 283 137 -7 0 -58 -20 -113 -43z"></path>
<path d="M6344 1515 c1 -8 8 -21 14 -27 9 -9 12 -8 12 4 0 8 -6 21 -14 27 -11
10 -14 9 -12 -4z"></path>
<path d="M2355 1483 c-69 -16 -125 -36 -125 -44 0 -5 23 0 51 12 29 11 84 24
123 28 62 7 64 8 21 9 -27 0 -59 -2 -70 -5z"></path>
<path d="M6386 1440 c4 -14 12 -29 18 -35 43 -38 68 -95 42 -95 -9 0 -16 4
-16 8 0 5 -11 22 -25 38 -39 45 -29 8 10 -40 19 -24 35 -48 35 -54 0 -6 6 -14
13 -18 6 -4 9 -4 5 1 -4 4 -3 14 4 22 9 11 14 11 29 -3 19 -18 27 -80 9 -69
-13 8 -13 -11 0 -36 15 -27 32 -24 24 6 -8 33 -1 32 36 -7 l31 -33 -27 50
c-14 28 -32 57 -38 65 -7 8 -31 47 -54 85 -23 39 -55 86 -72 105 -28 32 -31
33 -24 10z"></path>
<path d="M5690 1368 c0 -9 5 -20 11 -23 17 -11 20 0 4 21 -13 17 -14 17 -15 2z"></path>
<path d="M5710 1316 c0 -9 5 -16 10 -16 6 0 10 4 10 9 0 6 -4 13 -10 16 -5 3
-10 -1 -10 -9z"></path>
<path d="M4230 1245 c-19 -23 -8 -26 19 -4 16 13 18 19 8 19 -8 0 -20 -7 -27
-15z"></path>
<path d="M6476 1215 c4 -8 8 -15 10 -15 2 0 4 7 4 15 0 8 -4 15 -10 15 -5 0
-7 -7 -4 -15z"></path>
<path d="M4850 1055 c0 -77 4 -125 10 -125 6 0 10 48 10 125 0 77 -4 125 -10
125 -6 0 -10 -48 -10 -125z"></path>
<path d="M5780 1110 c0 -5 5 -10 10 -10 6 0 10 5 10 10 0 6 -4 10 -10 10 -5 0
-10 -4 -10 -10z"></path>
<path d="M6735 893 c4 -15 1 -25 -11 -31 -10 -5 -14 -14 -10 -21 6 -8 12 -9
20 -2 15 13 34 -6 60 -58 20 -42 20 -52 1 -45 -8 4 -12 10 -10 15 3 4 -8 23
-25 40 -42 44 -38 27 12 -50 29 -43 44 -59 46 -48 4 22 11 21 28 0 19 -26 17
-35 -6 -28 -16 5 -19 3 -13 -12 15 -39 45 -83 55 -77 5 3 3 16 -6 30 -23 35
-19 47 8 27 13 -10 22 -21 20 -25 -2 -4 7 -19 21 -35 32 -37 33 -10 0 33 -14
18 -25 35 -25 39 0 8 -43 69 -52 73 -5 2 -8 9 -8 16 0 11 -47 90 -90 151 -17
23 -20 25 -15 8z"></path>
<path d="M2395 893 c-37 -9 -43 -26 -6 -19 18 3 40 6 47 6 8 0 14 5 14 10 0
10 -20 11 -55 3z"></path>
<path d="M2503 893 c15 -2 37 -2 50 0 12 2 0 4 -28 4 -27 0 -38 -2 -22 -4z"></path>
<path d="M2590 893 c0 -8 97 -33 128 -33 28 0 9 18 -25 23 -21 4 -53 9 -70 13
-18 4 -33 2 -33 -3z"></path>
<path d="M2305 854 c-19 -16 -19 -16 5 -9 31 9 50 25 30 25 -8 0 -24 -8 -35
-16z"></path>
<path d="M2760 860 c0 -5 5 -10 10 -10 6 0 10 5 10 10 0 6 -4 10 -10 10 -5 0
-10 -4 -10 -10z"></path>
<path d="M5982 622 c4 -12 2 -22 -3 -22 -5 0 -9 -5 -9 -11 0 -5 5 -7 10 -4 6
4 10 -5 10 -20 0 -15 4 -24 10 -20 6 4 10 -5 10 -19 0 -14 5 -26 10 -26 6 0
10 -9 10 -20 0 -11 -4 -20 -10 -20 -5 0 -7 -7 -4 -15 4 -8 12 -15 19 -15 8 0
16 -8 18 -17 3 -10 5 -4 6 13 1 36 -37 154 -50 154 -5 0 -9 11 -9 24 0 14 -5
28 -12 32 -8 5 -9 0 -6 -14z"></path>
<path d="M6074 360 c3 -14 6 -28 6 -32 0 -5 5 -8 10 -8 15 0 12 24 -6 46 -15
18 -15 18 -10 -6z"></path>
</g>
</svg>