 <svg version="1.0" xmlns="http://www.w3.org/2000/svg" width="700.000000pt" height="438.000000pt" viewBox="0 0 700.000000 438.000000" preserveAspectRatio="xMidYMid meet">
<metadata>
Created by potrace 1.12, written by Peter Selinger 2001-2015
</metadata>
<g transform="translate(0.000000,438.000000) scale(0.100000,-0.100000)" fill="#000000" stroke="none">
<path d="M0 4265 l0 -115 1103 -2 1102 -3 -77 -29 c-51 -18 -78 -34 -78 -44 0
-8 23 -147 51 -309 29 -161 49 -296 46 -300 -4 -3 -159 6 -344 19 -186 14
-383 29 -438 32 -55 3 -219 15 -365 26 -146 12 -272 22 -280 22 -28 0 -414 28
-530 38 -63 5 -132 10 -152 10 l-38 0 0 -304 0 -303 43 -6 c23 -3 67 -4 97 -1
30 3 192 0 360 -5 168 -6 312 -11 320 -11 190 2 435 -1 467 -6 27 -4 44 -12
47 -23 65 -240 66 -242 137 -317 38 -40 70 -70 72 -68 6 7 22 -17 37 -56 8
-19 21 -42 29 -50 23 -24 83 -46 131 -48 25 -2 70 -7 100 -12 30 -4 118 -9
195 -9 152 -1 199 -7 214 -25 6 -7 15 -45 21 -85 26 -164 -37 -314 -150 -361
-28 -12 -42 -11 -106 5 -41 10 -77 16 -80 12 -14 -14 16 -97 52 -146 74 -99
217 -171 356 -179 l88 -5 5 -36 c13 -80 18 -102 52 -261 20 -91 40 -166 44
-168 4 -2 6 -9 3 -16 -3 -8 2 -40 10 -72 8 -33 20 -111 26 -174 14 -149 26
-217 55 -315 46 -156 56 -255 30 -305 l-16 -30 -1319 0 -1320 0 0 -115 0 -115
3500 0 3500 0 0 110 0 110 -47 0 c-27 0 -360 0 -740 0 l-693 0 7 61 c5 46 3
59 -7 57 -15 -4 -44 84 -61 188 -16 90 -10 104 39 104 25 0 50 9 73 25 22 17
42 24 56 20 16 -4 26 3 42 28 27 44 100 114 132 126 23 8 29 6 47 -19 12 -15
24 -40 28 -54 3 -14 10 -29 15 -32 27 -17 -14 82 -45 109 l-21 17 30 25 c17
14 50 34 74 46 60 28 195 62 199 50 2 -7 13 -6 30 0 14 6 44 7 67 4 260 -40
514 -294 635 -635 26 -72 28 -76 35 -68 8 7 -42 143 -76 208 -16 30 -51 89
-78 130 -26 41 -46 81 -44 87 3 7 0 13 -7 13 -7 0 -47 33 -89 73 -67 63 -180
148 -214 160 -7 2 -9 7 -5 11 10 12 426 151 526 176 l92 24 0 1613 0 1613
-3500 0 -3500 0 0 -115z m2558 -122 c103 -5 122 -9 122 -22 0 -9 -16 -25 -35
-35 -60 -32 -67 -47 -71 -143 -5 -122 -14 -254 -19 -279 -3 -12 -17 -27 -33
-33 -15 -6 -55 -30 -87 -51 -33 -22 -71 -40 -83 -40 -33 0 -74 -26 -98 -61
-15 -23 -25 -29 -49 -27 -36 4 -30 -16 -95 345 -28 162 -44 272 -38 278 5 6
57 27 116 47 95 34 115 37 177 33 39 -3 125 -8 193 -12z m2142 -17 c50 -1 63
-6 135 -57 44 -31 87 -65 96 -75 9 -11 26 -75 38 -144 13 -69 25 -137 28 -152
5 -27 4 -28 -41 -28 -128 0 -206 -96 -206 -255 0 -86 21 -153 67 -217 57 -79
174 -137 249 -124 26 5 34 3 39 -13 5 -18 34 -172 75 -406 41 -232 52 -294 76
-425 14 -74 32 -173 40 -220 8 -47 23 -119 34 -160 25 -100 71 -350 65 -359
-2 -4 -36 -8 -74 -9 l-71 -2 0 34 c0 19 -7 67 -15 106 -8 40 -20 115 -26 168
-13 125 -88 565 -98 574 -4 4 -270 17 -591 28 -322 11 -621 24 -665 28 l-79 7
3 87 c1 48 -2 103 -9 122 -11 34 -9 39 49 126 65 98 94 165 110 256 15 81 15
228 1 289 -14 62 -59 175 -77 193 -7 7 -13 17 -13 22 0 5 -7 15 -14 23 -17 17
-18 16 86 103 76 63 173 177 188 221 17 47 -1 80 -51 94 -57 18 -150 0 -280
-51 -56 -23 -104 -38 -107 -35 -3 3 -1 18 5 33 7 15 31 74 54 131 l43 104 440
-8 c243 -4 466 -8 496 -9z m-994 -518 c90 -60 159 -165 190 -287 25 -99 15
-316 -17 -392 -28 -65 -90 -173 -124 -214 l-24 -30 -40 39 c-34 34 -39 43 -34
70 3 17 19 41 35 54 47 39 71 97 63 151 -4 25 -10 76 -13 113 -5 45 -14 76
-29 96 -12 17 -29 60 -37 96 -19 80 -52 148 -99 199 -25 28 -33 46 -30 65 3
25 3 25 -9 8 -54 -77 -74 -100 -121 -135 -29 -23 -90 -59 -135 -81 -185 -90
-394 -248 -440 -331 -24 -44 -30 -49 -52 -42 -14 4 -46 8 -72 8 -127 0 -175
-179 -67 -255 l32 -24 -44 -38 -44 -38 55 -55 c30 -30 58 -55 63 -55 4 0 26
39 48 86 22 48 42 85 44 82 18 -17 89 -183 118 -275 77 -239 81 -387 13 -520
-30 -60 -119 -144 -184 -174 -71 -33 -208 -38 -286 -10 -33 11 -61 19 -63 17
-7 -7 24 -24 76 -41 49 -16 53 -19 37 -31 -20 -14 -103 -34 -144 -34 -54 1
-160 29 -225 60 -70 34 -123 83 -155 141 -11 20 -26 46 -33 57 -18 29 -8 35
27 17 79 -41 154 -26 224 44 127 127 125 310 -5 667 -72 198 -93 383 -59 523
47 195 190 373 373 465 48 25 56 26 89 15 52 -18 185 -15 261 5 l63 17 37 -39
c20 -22 57 -47 84 -57 93 -35 246 -1 441 97 l70 35 50 -20 c28 -12 70 -33 92
-49z m-133 -130 c46 -58 64 -95 82 -172 9 -36 27 -82 40 -102 26 -38 33 -92
14 -111 -7 -7 -4 -20 10 -44 27 -44 29 -84 4 -74 -59 25 -104 37 -162 42 -36
3 -69 11 -73 17 -13 19 -8 -38 5 -62 7 -12 37 -41 67 -63 84 -63 100 -105 56
-156 -37 -43 -84 -38 -177 20 -66 41 -83 47 -130 47 -70 0 -162 -43 -222 -103
-77 -76 -124 -211 -95 -267 20 -36 40 -35 92 5 l47 36 20 -26 c25 -31 34 -31
92 0 l46 24 13 -27 c18 -38 57 -40 97 -6 27 22 34 25 42 13 16 -26 9 -44 -26
-68 -32 -21 -39 -22 -79 -12 -64 16 -140 14 -184 -5 -23 -10 -64 -16 -111 -16
l-75 0 -41 114 c-23 62 -57 142 -74 177 -22 43 -31 72 -27 87 3 13 9 35 12 49
9 34 -2 32 -64 -15 -29 -22 -61 -40 -72 -40 -11 0 -34 13 -51 28 -57 51 -48
156 16 198 40 26 109 14 151 -27 l34 -33 -6 44 c-5 39 -2 51 23 86 55 81 227
205 418 302 90 46 136 76 180 120 33 32 63 59 67 60 4 1 22 -17 41 -40z m-13
-493 c14 -17 41 -20 56 -5 15 15 108 -20 112 -42 2 -9 -12 -34 -32 -55 l-35
-38 -33 31 c-18 16 -54 47 -81 68 -26 21 -45 42 -42 47 9 14 41 11 55 -6z
m-1462 -53 c7 -9 11 -26 10 -37 -3 -18 -10 -20 -83 -19 -305 5 -305 5 -328 44
-16 27 -16 29 0 34 10 3 101 3 203 0 159 -4 187 -7 198 -22z m1337 -178 c100
-61 128 -64 187 -22 15 11 23 7 54 -22 57 -55 68 -85 68 -175 0 -86 -18 -155
-39 -155 -15 0 -45 43 -45 65 0 23 -16 18 -35 -11 -13 -20 -19 -23 -31 -13 -8
6 -14 24 -14 40 0 37 -17 46 -31 16 -6 -14 -22 -31 -36 -38 -22 -12 -27 -11
-39 6 -8 10 -14 34 -14 53 l0 34 -46 -41 c-26 -23 -54 -41 -63 -41 -24 0 -41
20 -41 47 0 30 -6 29 -60 -8 -56 -38 -84 -36 -88 9 -2 17 -6 32 -9 32 -3 0
-31 -20 -61 -45 -68 -56 -86 -55 -90 3 -4 55 43 160 96 215 62 65 174 110 242
99 14 -3 57 -24 95 -48z m-675 -82 c-22 -51 -40 -97 -40 -102 0 -19 -21 -9
-62 29 l-42 39 49 33 c26 19 66 49 88 67 22 18 41 31 43 29 2 -2 -14 -45 -36
-95z m782 -264 c-11 -18 -23 -48 -27 -66 l-7 -32 -49 26 c-27 15 -49 30 -49
34 0 14 60 49 74 44 8 -3 25 1 38 10 35 25 42 19 20 -16z m-147 -80 c44 -22
107 -64 139 -93 l60 -53 -27 -32 c-35 -41 -34 -64 5 -97 17 -16 57 -51 87 -78
31 -28 70 -60 88 -73 34 -24 91 -29 125 -11 19 10 29 3 97 -72 95 -107 153
-164 271 -268 104 -92 299 -296 362 -378 22 -29 38 -60 36 -70 -2 -11 -19 -23
-43 -31 -24 -7 -54 -29 -76 -53 -20 -23 -41 -40 -47 -38 -25 9 -174 131 -270
222 -57 54 -136 119 -176 145 -114 75 -447 356 -595 502 -90 90 -182 152 -199
135 -4 -4 1 -12 11 -19 10 -6 40 -30 65 -53 26 -24 51 -43 57 -43 5 0 59 -51
120 -113 60 -62 179 -170 263 -240 105 -89 152 -134 152 -148 0 -51 75 -173
166 -268 89 -94 140 -164 188 -258 41 -83 39 -94 -24 -126 -30 -15 -172 -73
-315 -128 -143 -55 -318 -123 -389 -150 -142 -55 -170 -57 -213 -11 -20 22
-26 24 -46 14 -31 -17 -133 15 -187 58 -38 30 -40 34 -40 88 0 54 14 102 88
303 12 31 24 85 28 121 6 58 4 69 -18 104 -33 52 -115 127 -167 154 -23 11
-107 64 -186 116 -118 77 -152 106 -185 152 -39 54 -58 97 -47 108 3 3 38 12
78 20 140 29 224 75 289 156 67 84 84 143 86 291 1 82 6 132 14 141 6 8 43 36
80 62 109 74 167 76 295 12z m-364 -9 c-26 -21 -37 -19 -28 6 4 8 17 15 29 15
l23 -1 -24 -20z m664 -175 c18 -8 42 -25 54 -38 18 -20 20 -25 7 -35 -15 -13
-132 1 -168 20 -19 10 -19 12 8 40 31 33 52 36 99 13z m147 -144 c33 -40 34
-51 8 -75 -29 -26 -61 -13 -131 53 l-61 57 78 -1 c75 -1 78 -1 106 -34z
m-1322 -395 c0 -58 95 -158 239 -252 l114 -74 -6 -71 c-3 -39 -2 -119 3 -177
5 -58 16 -194 26 -301 12 -145 14 -222 8 -300 l-9 -105 -90 4 c-49 1 -91 4
-93 6 -2 2 -8 34 -13 71 -5 38 -21 112 -35 164 -29 105 -38 159 -59 330 -7 63
-29 185 -48 270 -46 201 -82 413 -74 434 8 20 37 21 37 1z m2890 -176 c61 -38
92 -72 134 -149 57 -106 80 -204 80 -350 0 -215 -35 -280 -148 -280 -35 0 -64
9 -108 32 -151 80 -245 278 -236 495 3 80 9 109 32 160 59 130 138 160 246 92z
m-299 -261 c-3 -158 47 -303 143 -418 56 -68 42 -76 -50 -29 -42 21 -80 50
-110 86 -44 51 -80 71 -67 37 5 -15 3 -15 -24 0 -39 20 -63 78 -56 134 8 58
29 73 37 27 10 -52 24 -43 19 13 -3 32 2 64 16 103 23 59 80 153 89 145 2 -3
4 -47 3 -98z m-2163 48 c3 -12 -1 -17 -10 -14 -7 3 -15 13 -16 22 -3 12 1 17
10 14 7 -3 15 -13 16 -22z m1805 -187 c40 -22 80 -49 91 -59 18 -18 18 -18
-10 -33 -16 -8 -45 -12 -64 -10 -27 4 -40 0 -54 -16 -26 -28 -33 -27 -56 12
-16 26 -20 28 -20 11 0 -11 11 -31 25 -44 14 -13 25 -26 25 -30 0 -4 -17 -11
-37 -16 -20 -5 -38 -15 -41 -22 -3 -11 0 -12 16 -3 51 27 117 4 110 -39 -5
-36 -151 -116 -188 -103 -38 13 -52 66 -38 145 6 35 11 84 10 109 -3 58 29
100 91 122 59 22 60 21 140 -24z m176 -124 c7 -25 12 -47 10 -49 -2 -2 -19
-11 -38 -21 -38 -19 -39 -18 -68 48 -12 27 -11 29 30 47 23 11 44 20 47 20 3
0 12 -20 19 -45z m-148 5 c10 -6 31 -34 45 -63 15 -29 28 -53 29 -55 1 -2 19
7 39 19 l36 21 0 -50 c0 -43 -4 -54 -26 -71 -35 -27 -73 -27 -115 2 -29 20
-34 28 -31 58 2 27 -4 41 -23 59 -30 28 -30 30 -4 64 23 30 23 30 50 16z
m-301 -161 c0 -11 5 -30 11 -41 8 -15 8 -19 0 -14 -6 4 -11 2 -11 -5 0 -7 -3
-10 -6 -6 -4 3 -24 -3 -46 -14 -37 -19 -666 -270 -965 -385 l-141 -55 -118 3
-118 3 130 49 c169 64 1203 464 1229 476 30 13 35 12 35 -11z m281 -35 c7 -8
26 -22 43 -31 29 -15 29 -16 10 -30 -24 -18 -71 -10 -101 19 -27 26 -29 45 -5
51 31 8 39 7 53 -9z m-63 -55 c35 -31 35 -49 -1 -49 -22 0 -87 34 -87 46 0 9
33 33 45 33 6 0 25 -13 43 -30z m-1708 -22 c0 -40 -13 -67 -32 -67 -9 0 -10
55 -2 88 11 40 34 26 34 -21z m2230 -36 l35 -1 28 -163 c16 -89 31 -172 34
-185 l5 -22 -423 2 -424 3 -7 62 c-8 70 -20 98 -48 113 -16 9 -20 21 -20 70 0
32 5 62 10 65 6 4 36 9 68 12 31 3 59 10 62 14 4 5 26 8 50 8 44 -1 120 -1
207 0 23 1 44 5 47 9 3 5 33 10 68 11 34 1 64 4 66 5 3 3 94 2 242 -3z m-866
-163 c-3 -20 -11 -41 -17 -46 -33 -25 -457 -44 -496 -22 -11 6 -9 11 10 23 21
13 287 119 439 175 l55 20 7 -57 c4 -31 5 -73 2 -93z m-1471 -142 c44 -16 77
-43 77 -63 0 -10 -23 -13 -100 -13 -80 0 -100 3 -100 14 0 8 5 18 10 21 13 8
13 25 0 25 -6 0 -19 -13 -28 -30 -17 -29 -62 -43 -62 -19 0 64 108 98 203 65z"></path>
<path d="M3067 3196 c-22 -22 -30 -87 -17 -135 12 -47 67 -107 116 -127 74
-31 163 -3 214 67 35 49 45 79 36 114 -10 38 -26 30 -19 -10 3 -19 2 -35 -2
-35 -4 0 -32 12 -60 26 -50 24 -177 53 -237 54 -29 0 -37 17 -16 38 6 6 9 14
6 17 -3 3 -12 -1 -21 -9z m93 -86 c12 -23 32 -25 58 -9 24 15 109 -12 147 -47
l27 -25 -23 -26 c-101 -108 -270 -69 -304 69 -11 44 0 58 44 58 30 0 43 -5 51
-20z"></path>
<path d="M2673 2895 c-13 -9 -23 -23 -23 -32 0 -15 2 -14 18 0 24 22 32 21 32
-2 0 -21 49 -66 59 -55 3 3 -4 13 -16 21 -24 16 -30 47 -12 59 6 3 24 -3 40
-15 32 -24 40 -14 10 13 -27 25 -82 30 -108 11z"></path>
<path d="M3139 2880 c14 -12 38 -20 61 -20 48 0 93 16 85 30 -4 7 -11 7 -18 2
-25 -19 -67 -22 -103 -7 -48 20 -54 19 -25 -5z"></path>
<path d="M2944 1555 c-8 -19 16 -58 66 -110 95 -99 147 -152 170 -171 31 -27
80 -88 105 -131 22 -38 35 -42 35 -13 0 40 -34 86 -151 205 -119 120 -189 200
-189 215 0 15 -31 20 -36 5z"></path>
<path d="M3282 1079 c-13 -5 -33 -16 -45 -25 -21 -15 -20 -15 23 -9 l45 7 -25
-21 -25 -22 50 7 c59 8 66 12 42 25 -27 15 -11 29 34 29 21 0 39 5 39 10 0 13
-107 12 -138 -1z"></path>
<path d="M3308 933 c-26 -30 -46 -77 -67 -158 -23 -87 -26 -136 -11 -166 19
-34 30 -20 30 37 0 68 23 161 56 225 34 69 30 105 -8 62z"></path>
<path d="M5282 1357 c-32 -34 -52 -102 -52 -179 0 -185 109 -383 230 -419 40
-12 44 -11 61 9 20 26 39 105 39 165 -1 124 -68 294 -150 379 -27 28 -47 55
-44 60 3 4 -10 8 -29 8 -22 0 -41 -8 -55 -23z"></path>
<path d="M6080 923 c-28 -34 -31 -43 -27 -88 5 -53 24 -112 33 -102 4 3 1 20
-5 38 -20 58 -14 124 15 158 14 17 23 31 21 31 -3 0 -20 -17 -37 -37z"></path>
<path d="M6980 800 c0 -5 5 -10 10 -10 6 0 10 5 10 10 0 6 -4 10 -10 10 -5 0
-10 -4 -10 -10z"></path>
<path d="M6928 793 c-10 -2 -18 -9 -18 -15 0 -5 7 -7 16 -4 9 3 20 6 25 6 5 0
9 5 9 10 0 10 -3 11 -32 3z"></path>
<path d="M6821 759 c-13 -5 -22 -12 -19 -15 8 -8 58 7 58 17 0 11 -8 11 -39
-2z"></path>
<path d="M6715 720 c-3 -5 1 -10 9 -10 8 0 18 5 21 10 3 6 -1 10 -9 10 -8 0
-18 -4 -21 -10z"></path>
<path d="M5904 681 c3 -18 6 -37 6 -42 0 -5 5 -9 11 -9 13 0 2 60 -13 75 -7 7
-9 -1 -4 -24z"></path>
<path d="M6118 670 c23 -39 93 -95 113 -88 7 2 -8 16 -34 31 -25 15 -58 42
-73 59 l-26 33 20 -35z"></path>
<path d="M5616 638 c-17 -24 -22 -53 -7 -44 9 6 33 66 26 66 -2 0 -11 -10 -19
-22z"></path>
<path d="M5920 570 c0 -22 5 -40 10 -40 6 0 10 18 10 40 0 22 -4 40 -10 40 -5
0 -10 -18 -10 -40z"></path>
<path d="M5580 554 c-16 -40 -50 -166 -50 -182 0 -7 5 -10 10 -7 6 3 10 15 10
25 0 10 12 56 26 100 14 45 23 84 20 87 -3 3 -10 -7 -16 -23z"></path>
<path d="M6339 501 c39 -40 79 -93 94 -125 27 -56 37 -68 37 -43 0 18 -92 157
-122 183 -62 57 -68 47 -9 -15z"></path>
<path d="M5890 457 c-32 -49 -51 -90 -47 -100 2 -7 18 17 35 52 32 66 38 88
12 48z"></path>
<path d="M5820 310 c0 -5 5 -10 10 -10 6 0 10 5 10 10 0 6 -4 10 -10 10 -5 0
-10 -4 -10 -10z"></path>
<path d="M6470 296 c0 -8 5 -18 10 -21 6 -3 10 1 10 9 0 8 -4 18 -10 21 -5 3
-10 -1 -10 -9z"></path>
<path d="M5810 255 c0 -8 5 -15 10 -15 6 0 10 7 10 15 0 8 -4 15 -10 15 -5 0
-10 -7 -10 -15z"></path>
</g>
</svg>