 <svg version="1.0" xmlns="http://www.w3.org/2000/svg" width="700.000000pt" height="462.000000pt" viewBox="0 0 700.000000 462.000000" preserveAspectRatio="xMidYMid meet">
<metadata>
Created by potrace 1.12, written by Peter Selinger 2001-2015
</metadata>
<g transform="translate(0.000000,462.000000) scale(0.100000,-0.100000)" fill="#000000" stroke="none">
<path d="M2875 4493 c-45 -7 -178 -53 -195 -67 -8 -7 -37 -25 -63 -40 -70 -40
-206 -179 -266 -270 -28 -43 -51 -85 -51 -92 0 -8 -4 -22 -9 -32 -5 -9 -14
-35 -19 -57 -6 -22 -15 -59 -21 -81 -22 -82 -13 -208 22 -329 21 -76 108 -232
175 -315 37 -46 74 -93 83 -104 24 -30 39 -172 39 -360 0 -149 4 -195 31 -351
26 -153 73 -319 107 -377 15 -25 14 -28 -21 -69 -21 -23 -37 -45 -37 -49 0 -3
65 -71 145 -152 80 -80 145 -148 145 -152 0 -3 -16 -26 -35 -52 -19 -25 -35
-53 -35 -61 0 -9 24 -38 53 -63 l52 -47 -19 -59 c-11 -33 -23 -63 -26 -69 -4
-5 -10 -21 -13 -35 -3 -14 -10 -43 -16 -65 -33 -124 -43 -195 -48 -355 -5
-140 -2 -192 11 -256 9 -45 16 -92 16 -105 0 -28 52 -131 68 -137 7 -2 12 7
12 22 0 37 18 42 49 12 33 -32 51 -33 51 -3 1 12 7 33 15 47 14 26 13 27 30
-25 7 -25 23 -17 51 25 15 23 31 37 35 33 4 -4 14 -37 23 -73 20 -79 78 -199
112 -231 20 -18 29 -21 42 -13 15 10 18 37 22 205 3 107 9 202 14 211 16 35
124 51 161 24 18 -13 20 -34 27 -217 9 -225 15 -245 60 -215 13 9 34 33 45 53
24 43 83 216 83 244 0 30 19 32 54 5 31 -23 34 -24 50 -8 17 16 19 16 33 -5
12 -17 19 -20 33 -13 14 8 23 3 45 -25 25 -33 90 -75 116 -75 7 0 9 10 6 29
-5 23 -2 30 13 34 16 4 20 16 22 68 l3 64 38 3 c25 2 46 -3 65 -16 77 -55 142
-78 142 -49 0 6 -25 44 -56 82 -124 158 -174 228 -178 248 -2 12 -9 81 -15
152 -17 198 -27 255 -67 362 -63 170 -203 433 -244 458 -5 3 -10 10 -10 15 0
9 24 17 135 40 188 41 299 145 362 340 64 200 89 385 98 720 8 306 3 286 94
382 95 101 178 228 216 333 31 86 43 272 24 367 -40 197 -83 288 -189 396
-118 121 -244 172 -421 172 -129 0 -210 -26 -196 -62 3 -8 22 -19 43 -25 155
-45 194 -59 194 -70 0 -7 -16 -15 -35 -19 -39 -7 -60 -27 -52 -48 4 -9 33 -29
66 -46 33 -16 72 -42 86 -57 38 -40 105 -139 105 -156 0 -7 3 -17 7 -21 30
-30 43 -236 21 -323 -26 -101 -105 -221 -185 -282 -75 -58 -78 -58 -771 -55
l-633 2 -43 26 c-69 40 -100 84 -155 219 -6 15 -11 69 -11 120 0 73 5 106 25
161 58 159 132 269 230 343 39 29 75 53 81 53 13 0 54 43 54 57 0 21 -38 43
-73 43 -38 0 -46 10 -24 28 6 6 53 24 102 40 71 23 91 33 93 50 2 13 -4 25
-16 31 -23 12 -143 21 -187 14z m135 -33 l25 -7 -28 -12 c-16 -6 -35 -11 -42
-11 -39 0 -145 -66 -145 -90 0 -26 28 -44 68 -45 52 0 49 -17 -11 -53 -76 -46
-155 -125 -216 -215 -88 -131 -111 -207 -111 -364 0 -101 1 -108 38 -181 43
-88 115 -166 185 -201 l47 -24 223 9 c285 11 542 11 788 0 260 -12 326 3 422
93 150 140 212 333 175 540 -22 125 -141 290 -237 332 -52 23 -46 36 18 41 25
2 46 8 48 14 10 31 -83 84 -199 114 -26 7 -45 16 -42 21 9 15 244 10 295 -5
64 -20 144 -64 196 -110 80 -70 187 -249 206 -345 15 -78 20 -290 7 -340 -40
-156 -101 -259 -224 -381 -42 -41 -80 -88 -86 -105 -12 -36 -30 -310 -30 -450
0 -93 -5 -145 -31 -335 -11 -79 -12 -84 -54 -221 -56 -182 -160 -289 -320
-328 -27 -7 -66 -16 -85 -21 -122 -30 -473 -41 -623 -20 -279 40 -338 61 -438
157 -66 63 -117 157 -141 258 -59 255 -87 496 -88 765 0 63 -4 130 -10 149 -7
27 -89 136 -121 161 -15 12 -101 136 -113 164 -55 120 -82 294 -65 411 25 175
80 288 196 402 83 83 219 183 247 183 8 0 17 4 20 8 7 11 170 49 216 50 8 0
26 -3 40 -8z m-250 -2552 c0 -12 10 -35 23 -52 42 -56 44 -63 12 -42 -45 28
-85 68 -85 84 0 17 31 43 42 36 5 -3 8 -15 8 -26z m178 -207 c50 -47 72 -79
35 -50 -43 33 -107 99 -97 99 6 0 34 -22 62 -49z m79 -113 c-3 -7 -5 -2 -5 12
0 14 2 19 5 13 2 -7 2 -19 0 -25z m-63 -96 c-7 -26 -34 -30 -34 -4 0 22 21 45
32 34 4 -4 5 -17 2 -30z m1252 -889 c15 -20 19 -63 5 -63 -5 0 -12 11 -15 24
-3 13 -9 31 -12 40 -8 21 5 20 22 -1z m74 -99 c0 -8 -4 -12 -10 -9 -5 3 -10
10 -10 16 0 5 5 9 10 9 6 0 10 -7 10 -16z"></path>
<path d="M3913 2569 c-106 -20 -179 -96 -203 -210 -37 -172 94 -339 266 -339
56 0 142 48 180 100 58 79 71 203 34 304 -41 108 -156 169 -277 145z"></path>
<path d="M2957 2546 c-75 -27 -143 -96 -167 -170 -29 -89 6 -235 72 -304 37
-37 122 -72 178 -72 44 0 120 30 168 66 76 59 105 204 62 318 -26 68 -77 129
-131 157 -45 22 -126 25 -182 5z"></path>
</g>
</svg>