 <svg version="1.0" xmlns="http://www.w3.org/2000/svg" width="700.000000pt" height="526.000000pt" viewBox="0 0 700.000000 526.000000" preserveAspectRatio="xMidYMid meet">
<metadata>
Created by potrace 1.12, written by Peter Selinger 2001-2015
</metadata>
<g transform="translate(0.000000,526.000000) scale(0.100000,-0.100000)" fill="#000000" stroke="none">
<path d="M2873 5060 c-169 -35 -312 -116 -447 -254 -106 -108 -169 -206 -206
-321 -73 -230 -51 -437 71 -650 73 -128 221 -315 249 -315 35 0 5 49 -100 165
-157 176 -215 327 -214 565 0 207 60 364 190 500 187 196 353 280 551 280 81
0 112 -14 56 -25 -74 -15 -132 -37 -171 -66 -66 -49 -50 -89 37 -89 22 0 42
-4 45 -9 3 -4 -17 -22 -44 -40 -164 -106 -295 -268 -350 -430 -19 -57 -21 -82
-18 -215 l3 -151 43 -72 c46 -77 121 -152 186 -186 54 -28 157 -31 449 -15
330 19 291 33 -93 33 -340 1 -331 0 -414 58 -37 26 -91 112 -123 195 -22 60
-25 77 -20 167 11 223 145 454 332 573 59 38 85 63 85 83 0 24 -30 39 -74 39
-84 0 -42 37 96 84 76 25 93 35 93 51 0 11 -11 25 -25 31 -35 17 -137 24 -187
14z"></path>
<path d="M4135 5024 c-115 -23 -128 -63 -28 -83 74 -14 205 -63 210 -77 2 -6
-13 -14 -34 -17 -21 -4 -47 -13 -58 -21 -29 -21 -12 -42 68 -83 107 -56 182
-162 228 -322 58 -201 -23 -445 -195 -589 -79 -66 -88 -67 -470 -64 -274 2
-337 1 -334 -10 5 -14 204 -24 511 -27 122 -1 157 2 202 18 150 53 281 218
319 404 31 150 12 307 -50 409 -48 79 -169 206 -203 215 -67 16 -61 43 10 43
134 0 17 101 -164 141 -86 19 -56 32 83 37 161 6 246 -17 368 -97 70 -47 126
-112 193 -223 62 -103 86 -180 99 -320 12 -130 1 -236 -36 -342 -42 -120 -91
-193 -219 -326 -47 -49 -85 -97 -89 -113 -11 -48 13 -30 117 85 211 235 275
394 264 658 -9 231 -80 402 -222 539 -109 105 -187 143 -349 171 -76 13 -133
11 -221 -6z"></path>
<path d="M2526 3383 c2 -54 6 -174 8 -268 3 -93 11 -201 19 -240 8 -38 20
-101 27 -140 60 -343 153 -508 338 -603 102 -52 162 -98 162 -124 0 -10 4 -18
8 -18 11 0 107 98 101 104 -2 2 -42 12 -89 21 -173 34 -312 131 -379 263 -86
170 -148 561 -164 1022 -2 60 -5 75 -19 78 -14 3 -16 -8 -12 -95z"></path>
<path d="M4532 3463 c-5 -10 -13 -119 -17 -243 -18 -565 -79 -816 -239 -976
-78 -77 -126 -101 -265 -130 -41 -8 -78 -17 -83 -20 -14 -9 2 -24 25 -24 41 0
182 40 242 69 194 90 287 291 339 734 20 164 32 592 18 601 -6 4 -15 -1 -20
-11z"></path>
<path d="M3945 2946 c-117 -54 -157 -115 -163 -252 -4 -77 -1 -98 17 -138 52
-120 136 -178 255 -179 83 -1 130 19 187 80 46 48 64 83 79 157 13 63 9 108
-16 183 -46 139 -224 213 -359 149z"></path>
<path d="M2987 2946 c-71 -15 -132 -57 -174 -120 -60 -88 -65 -174 -21 -296
69 -186 298 -236 446 -96 60 56 76 99 76 206 1 110 -20 169 -82 233 -69 72
-144 94 -245 73z"></path>
<path d="M2657 2282 c-15 -15 -27 -35 -27 -44 0 -9 71 -85 158 -170 l159 -153
-44 -59 c-46 -64 -50 -75 -31 -94 18 -18 40 -15 34 6 -3 9 4 33 15 51 l21 35
19 -25 19 -24 0 39 c0 22 7 47 15 56 13 14 6 23 -65 89 -59 53 -80 79 -80 97
0 21 -4 24 -20 19 -16 -5 -35 8 -85 56 -68 65 -75 81 -49 110 15 17 12 39 -5
39 -4 0 -19 -13 -34 -28z"></path>
<path d="M3175 2022 c-25 -39 -75 -125 -111 -191 -37 -67 -70 -121 -75 -121
-5 0 -9 16 -9 35 0 19 -4 35 -10 35 -5 0 -10 -9 -10 -20 0 -13 -7 -20 -20 -20
-29 0 -24 -23 10 -48 17 -13 30 -29 30 -37 0 -29 31 -15 46 21 23 54 126 236
131 230 3 -2 0 -14 -7 -25 -9 -17 -8 -21 5 -21 8 0 15 -2 15 -4 0 -2 -48 -102
-106 -222 -114 -238 -136 -294 -154 -396 -14 -79 -8 -113 9 -48 17 68 43 150
63 199 22 51 169 301 177 301 15 0 3 -78 -17 -117 -38 -73 -23 -91 17 -21 40
71 35 26 -10 -84 -23 -57 -54 -137 -69 -178 -15 -41 -48 -129 -73 -195 -52
-137 -55 -148 -43 -155 4 -3 18 22 31 55 50 134 203 415 226 415 4 0 -17 -50
-47 -111 -30 -61 -53 -116 -52 -121 2 -5 32 34 67 87 61 91 78 112 86 103 2
-2 -28 -74 -67 -161 -39 -86 -68 -161 -64 -165 4 -4 30 18 57 48 26 30 49 51
49 46 0 -12 -55 -108 -110 -191 -50 -75 -110 -178 -110 -189 0 -3 8 -6 18 -6
11 0 26 17 40 48 13 26 43 72 67 102 78 96 156 201 162 216 3 8 9 14 13 14 13
0 18 -36 8 -54 -7 -12 -6 -33 1 -62 10 -38 9 -49 -9 -84 -26 -51 -25 -58 4
-31 13 12 27 18 30 13 3 -5 -4 -18 -15 -28 -12 -11 -33 -39 -47 -64 -39 -68
-148 -210 -156 -203 -12 12 -6 48 14 80 30 50 6 48 -36 -2 -32 -40 -35 -49
-26 -68 6 -12 13 -35 14 -52 4 -45 32 -44 64 4 15 23 30 41 33 41 4 0 16 -35
26 -78 22 -91 99 -247 131 -269 17 -10 28 -12 41 -4 16 9 18 28 19 208 0 109
5 212 11 228 11 35 53 54 124 54 83 1 83 3 91 -250 8 -247 13 -267 61 -236 14
9 34 31 46 50 24 40 101 262 101 295 0 29 5 28 51 -9 39 -30 59 -31 59 -3 0
22 23 12 35 -14 11 -25 25 -28 43 -10 6 6 13 10 15 7 59 -83 93 -109 142 -109
29 0 30 5 10 40 -8 14 -14 32 -14 40 0 9 5 6 11 -7 14 -28 24 -29 38 -4 16 30
13 91 -4 91 -8 0 -18 -5 -22 -11 -3 -6 -14 2 -25 21 -30 48 -43 29 -36 -52 6
-64 5 -69 -11 -56 -25 20 -61 62 -62 71 0 5 -19 47 -42 95 -23 48 -42 96 -44
107 -7 57 -27 101 -74 160 -29 36 -51 68 -48 70 2 2 33 -29 68 -70 36 -41 69
-70 74 -65 10 10 -15 46 -106 152 -38 44 -66 83 -62 87 3 3 23 -14 44 -38 23
-27 40 -39 44 -32 4 6 -18 38 -51 74 -32 34 -65 71 -73 81 -40 53 82 -46 185
-149 78 -78 147 -181 193 -287 12 -28 27 -48 36 -48 65 0 -104 282 -283 472
-35 37 -58 68 -51 68 7 0 22 -7 32 -17 26 -23 35 -7 11 20 -11 12 -23 31 -27
42 -10 34 -71 123 -100 146 -14 11 -26 28 -26 37 0 12 3 13 12 4 22 -22 29
-12 9 16 -40 56 -91 143 -91 153 0 6 50 -37 111 -95 111 -105 150 -128 103
-59 -24 36 -54 121 -54 155 0 10 -9 36 -20 57 -19 38 -50 119 -50 133 0 3 26
-20 57 -54 59 -61 76 -64 48 -6 -14 29 -9 26 36 -22 28 -30 62 -72 75 -92 27
-42 49 -51 38 -15 -13 42 -71 122 -144 200 -59 63 -72 82 -64 95 6 9 15 17 20
18 15 5 140 -182 183 -274 26 -55 35 -62 45 -37 10 28 -132 283 -184 330 -11
10 -20 23 -20 29 0 27 -36 34 -126 24 -84 -10 -400 -4 -506 8 l-47 6 -46 -70z"></path>
<path d="M4120 1628 c-10 -21 -8 -30 12 -60 14 -20 37 -78 51 -129 32 -113 55
-298 34 -268 -2 2 -19 38 -39 79 -38 78 -140 202 -151 184 -3 -6 10 -33 29
-60 93 -130 159 -285 175 -414 12 -98 27 -160 41 -177 16 -20 28 -5 18 23 -13
33 -13 84 0 84 6 0 10 -6 10 -14 0 -8 11 -28 25 -44 14 -17 25 -41 25 -55 0
-14 5 -29 10 -32 6 -3 10 -1 10 4 0 6 3 11 8 11 10 -1 65 -80 59 -86 -3 -3
-37 13 -75 35 -78 45 -87 48 -96 26 -3 -8 -15 -15 -26 -15 -13 0 -20 -7 -20
-19 0 -29 13 -33 65 -21 44 10 50 9 105 -25 72 -44 128 -67 141 -60 11 7 -39
80 -117 170 -28 33 -64 78 -79 100 -14 22 -31 40 -38 40 -16 0 -23 39 -31 165
-14 223 -35 336 -94 495 -32 87 -38 94 -52 63z"></path>
<path d="M2957 1603 c-29 -49 -98 -332 -111 -456 -6 -52 -4 -58 11 -55 12 2
19 14 21 33 9 98 46 276 77 363 19 56 35 106 35 112 0 11 -27 14 -33 3z"></path>
<path d="M2840 953 c0 -59 5 -135 10 -168 6 -33 15 -87 21 -120 5 -33 22 -85
37 -115 31 -62 59 -74 54 -23 -3 27 -1 31 17 26 11 -3 27 -16 36 -29 24 -37
41 -29 59 26 20 60 12 84 -15 49 -19 -24 -19 -24 -19 44 0 54 -3 67 -15 67 -9
0 -22 -15 -30 -32 -14 -31 -15 -32 -21 -10 -10 35 -31 26 -38 -18 -7 -46 -21
-52 -29 -12 -7 33 -1 228 8 300 5 36 4 52 -4 52 -6 0 -13 -11 -17 -25 -11 -46
-25 -26 -23 32 2 48 0 59 -14 61 -15 3 -17 -8 -17 -105z"></path>
</g>
</svg>